<svg xmlns="http://www.w3.org/2000/svg" viewBox="0 0 316 316">
  <title>1-arvo-large</title>
  <g id="network-diagram">
    <g>
      <line x1="230.2" y1="164.8" x2="264.1" y2="168.7" fill="none" stroke="#ffc440" stroke-miterlimit="10" stroke-width="2" stroke-dasharray="2 2"/>
      <line x1="196.2" y1="219.6" x2="212.4" y2="249.7" fill="none" stroke="#ffc440" stroke-miterlimit="10" stroke-width="2" stroke-dasharray="2 2"/>
      <line x1="106.4" y1="248.4" x2="123.9" y2="218.9" fill="none" stroke="#ffc440" stroke-miterlimit="10" stroke-width="2" stroke-dasharray="2 2"/>
      <line x1="55" y1="172.5" x2="88.8" y2="167.9" fill="none" stroke="#ffc440" stroke-miterlimit="10" stroke-width="2" stroke-dasharray="2 2"/>
      <line x1="167.4" y1="86.9" x2="170.8" y2="50.9" fill="none" stroke="#ffc440" stroke-miterlimit="10" stroke-width="2" stroke-dasharray="2 2"/>
      <line x1="74.8" y1="94.6" x2="103.1" y2="114.7" fill="none" stroke="#ffc440" stroke-miterlimit="10" stroke-width="2" stroke-dasharray="2 2"/>
    </g>
    <path d="M222,72.9a104.5,104.5,0,0,0-21.8-12.5l-2.2-.9" fill="none"/>
    <path d="M263.7,169.5a106.1,106.1,0,0,0-.4-27.4" fill="none"/>
    <path d="M174.5,261.5a105.8,105.8,0,0,0,25.7-7.2l.8-.3" fill="none"/>
    <path d="M201,254a107.8,107.8,0,0,0,23.5-14.1" fill="none"/>
    <path d="M120.4,255.2a102.6,102.6,0,0,0,26.7,6.7" fill="none"/>
    <path d="M147.1,261.9a97.1,97.1,0,0,0,12.1.7,110.2,110.2,0,0,0,15.3-1.1" fill="none"/>
    <path d="M257.1,196.2a102.4,102.4,0,0,0,6.6-26.7" fill="none"/>
    <path d="M243.7,220.2a107.8,107.8,0,0,0,12.5-21.9l.9-2.1" fill="none"/>
    <path d="M224.5,239.9a99.4,99.4,0,0,0,9.1-8.1,110.4,110.4,0,0,0,10.1-11.6" fill="none"/>
    <path d="M76.7,222.7a104.2,104.2,0,0,0,19.7,19.1" fill="none"/>
    <path d="M54.7,145.2a98.7,98.7,0,0,0-.7,12.2,96.7,96.7,0,0,0,1.1,15.3" fill="none"/>
    <path d="M96.4,241.8a105.1,105.1,0,0,0,21.8,12.5l2.2.9" fill="none"/>
    <path d="M61.4,118.6a102.9,102.9,0,0,0-6.7,26.6" fill="none"/>
    <path d="M55.1,172.7a108.1,108.1,0,0,0,7.1,25.6l.4.8" fill="none"/>
    <path d="M62.6,199.1a106.1,106.1,0,0,0,14.1,23.6" fill="none"/>
    <g>
      <path d="M54,157.4a98.7,98.7,0,0,1,.7-12.2l-11.1-1.3a120.8,120.8,0,0,0-.8,13.5A118,118,0,0,0,44,174.3l11.1-1.6A96.7,96.7,0,0,1,54,157.4Z" fill="#3973c6"/>
      <path d="M62.2,198.3a108.1,108.1,0,0,1-7.1-25.6L44,174.3a119,119,0,0,0,8.3,29.3l10.3-4.5Z" fill="#3973c6"/>
    </g>
    <g>
      <path d="M120.4,255.2l-4.1,10.4a116.1,116.1,0,0,0,29.5,7.4l1.3-11.1A102.6,102.6,0,0,1,120.4,255.2Z" fill="#797384"/>
      <path d="M118.2,254.3a105.1,105.1,0,0,1-21.8-12.5l-6.6,9a118.4,118.4,0,0,0,26.5,14.8l4.1-10.4Z" fill="#797384"/>
      <path d="M84.8,231.8a99.4,99.4,0,0,1-8.1-9.1l-8.8,6.9a118.8,118.8,0,0,0,21.9,21.2l6.6-9A100.3,100.3,0,0,1,84.8,231.8Z" fill="#797384"/>
    </g>
    <path d="M159.1,87.5a69.9,69.9,0,1,1-69.9,69.9,69.9,69.9,0,0,1,69.9-69.9m0-8a77.9,77.9,0,1,0,77.8,77.9,78,78,0,0,0-77.8-77.9Z" fill="#ffc440"/>
    <path d="M62.2,116.4A104.5,104.5,0,0,1,74.7,94.6l-8.9-6.7A117,117,0,0,0,51,114.5l10.4,4.1A19.5,19.5,0,0,1,62.2,116.4Z" fill="#d2ccdb"/>
    <g>
      <path d="M233.6,231.8a99.4,99.4,0,0,1-9.1,8.1l7,8.7a114.7,114.7,0,0,0,21.1-21.8l-8.9-6.6A110.4,110.4,0,0,1,233.6,231.8Z" fill="#7272ed"/>
      <path d="M201,254l4.4,10.3a119.1,119.1,0,0,0,26.1-15.7l-7-8.7A107.8,107.8,0,0,1,201,254Z" fill="#7272ed"/>
      <path d="M200.2,254.3a105.8,105.8,0,0,1-25.7,7.2l1.7,11.1a119.4,119.4,0,0,0,29.2-8.3L201,254Z" fill="#7272ed"/>
      <path d="M257.1,196.2l10.3,4.1a116.1,116.1,0,0,0,7.4-29.5l-11.1-1.3A102.4,102.4,0,0,1,257.1,196.2Z" fill="#10008b"/>
      <path d="M264.4,157.4a97.1,97.1,0,0,1-.7,12.1l11.1,1.3a117.2,117.2,0,0,0-.4-30.4l-11.1,1.7A96.7,96.7,0,0,1,264.4,157.4Z" fill="#10008b"/>
    </g>
    <path d="M84.8,83a99.4,99.4,0,0,1,9.1-8.1l-7-8.8A121,121,0,0,0,65.8,87.9l8.9,6.7A101.1,101.1,0,0,1,84.8,83Z" fill="#d2ccdb"/>
    <g>
      <path d="M241.7,92.1a99.4,99.4,0,0,0-8.1-9.1A101.1,101.1,0,0,0,222,72.9" fill="none"/>
      <path d="M171.3,52.8a121,121,0,0,0-12.1-.6,96.7,96.7,0,0,0-15.3,1.1" fill="none"/>
      <path d="M143.9,53.3a101.3,101.3,0,0,0-25.7,7.1l-.8.4" fill="none"/>
      <path d="M198,59.5a106.7,106.7,0,0,0-26.7-6.7" fill="none"/>
      <path d="M256.2,116.4a5.9,5.9,0,0,1-.4-.8" fill="none"/>
      <path d="M255.8,115.6a105.5,105.5,0,0,0-14.1-23.5" fill="none"/>
      <path d="M200.2,60.4A104.5,104.5,0,0,1,222,72.9l6.7-8.9a115.7,115.7,0,0,0-26.6-14.9L198,59.5Z" fill="#96daea"/>
      <path d="M233.6,83a99.4,99.4,0,0,1,8.1,9.1l8.8-7A120.9,120.9,0,0,0,228.7,64L222,72.9A101.1,101.1,0,0,1,233.6,83Z" fill="#96daea"/>
      <path d="M255.8,115.6l10.3-4.4a120.3,120.3,0,0,0-15.6-26.1l-8.8,7A105.5,105.5,0,0,1,255.8,115.6Z" fill="#96daea"/>
      <path d="M198,59.5l4.1-10.4a115.9,115.9,0,0,0-29.5-7.3l-1.3,11A106.7,106.7,0,0,1,198,59.5Z" fill="#96daea"/>
      <path d="M118.2,60.4a101.3,101.3,0,0,1,25.7-7.1l-1.6-11.1A114.8,114.8,0,0,0,113,50.5l4.4,10.3Z" fill="#96daea"/>
      <path d="M159.2,52.2a121,121,0,0,1,12.1.6l1.3-11a99.4,99.4,0,0,0-13.4-.8,116.9,116.9,0,0,0-16.9,1.2l1.6,11.1A96.7,96.7,0,0,1,159.2,52.2Z" fill="#96daea"/>
    </g>
    <g id="circle_2" data-name="circle 2">
      <path d="M309.9,119.1a163.2,163.2,0,0,0-15.3-38.2,159,159,0,0,0-24.8-32.8A154.5,154.5,0,0,0,199.6,6.7l-7.2,26.1a124,124,0,0,1,31.3,13.3,132.9,132.9,0,0,1,26.8,21,129.9,129.9,0,0,1,20.4,27.2,125.3,125.3,0,0,1,12.7,31.5,127.6,127.6,0,0,1,4.1,33.5v.3a132.4,132.4,0,0,1-4.9,33.6l26.1,7.3a155.5,155.5,0,0,0,5.8-40.6v-.4A154.2,154.2,0,0,0,309.9,119.1Z" fill="#4339fc"/>
      <g id="right_sm" data-name="right sm">
        <path d="M248.3,251.1l19,19.3a152.8,152.8,0,0,0,25.4-32.2l-23.3-13.8A133.5,133.5,0,0,1,248.3,251.1Z" fill="#d4f4d5"/>
      </g>
      <g id="left">
        <path d="M66.5,65.6l-19-19.4A155.7,155.7,0,0,0,22.3,78.6L45.6,92.4A129.7,129.7,0,0,1,66.5,65.6Z" fill="#ffd066"/>
        <path d="M93.5,45.1,80.2,21.5A155.3,155.3,0,0,0,47.5,46.2l19,19.4A132.6,132.6,0,0,1,93.5,45.1Z" fill="#ffd066"/>
        <path d="M158.7,28.1,158.9,1a160.9,160.9,0,0,0-40.7,5l6.7,26.3A129.9,129.9,0,0,1,158.7,28.1Z" fill="#ffd066"/>
        <path d="M124.9,32.3,118.2,6a156.4,156.4,0,0,0-38,15.5L93.5,45.1A128.7,128.7,0,0,1,124.9,32.3Z" fill="#ffd066"/>
        <path d="M45.6,92.4,22.3,78.6A151.5,151.5,0,0,0,6.4,116.3l26.1,7.3A128.7,128.7,0,0,1,45.6,92.4Z" fill="#ffd066"/>
        <path d="M27.8,156.7a124.8,124.8,0,0,1,4.7-33.1L6.4,116.3A156.7,156.7,0,0,0,.7,156.5c0,.1.1.2,0,.3l27.1.3Z" fill="#ffd066"/>
      </g>
      <g id="bottom">
        <path d="M122.7,283.1l-7.3,26.1a159.1,159.1,0,0,0,40.5,5.8l.2-27.1A127.1,127.1,0,0,1,122.7,283.1Z" fill="#6fdc74"/>
        <path d="M189.8,283.9l6.7,26.3a155.7,155.7,0,0,0,38-15.2l-13.3-23.6A127.9,127.9,0,0,1,189.8,283.9Z" fill="#6fdc74"/>
        <path d="M156.5,287.9h-.4l-.2,27.1h.3a162.3,162.3,0,0,0,40.3-4.8l-6.7-26.3A130.9,130.9,0,0,1,156.5,287.9Z" fill="#6fdc74"/>
        <path d="M44.7,222,21.1,235.3a153.4,153.4,0,0,0,24.6,32.6l19.3-19A130.2,130.2,0,0,1,44.7,222Z" fill="#6fdc74"/>
        <path d="M65,248.9l-19.3,19a154.4,154.4,0,0,0,32.1,25.3l13.8-23.4A128.5,128.5,0,0,1,65,248.9Z" fill="#6fdc74"/>
        <path d="M91.6,269.8,77.8,293.2a154.8,154.8,0,0,0,37.6,16l7.3-26.1A128.5,128.5,0,0,1,91.6,269.8Z" fill="#6fdc74"/>
        <path d="M32,190.6,5.7,197.4a157.1,157.1,0,0,0,15.4,37.9L44.7,222A132.5,132.5,0,0,1,32,190.6Z" fill="#6fdc74"/>
      </g>
    </g>
  </g>
</svg>
