<svg xmlns="http://www.w3.org/2000/svg" viewBox="0 0 900 356"><defs><style>.dfbafdf6-4178-4d69-b91f-5757ad7ba1ae{fill:#ee3124;}.c4ff9a0f-ddf8-4f53-ab3f-916a0227595f{fill:#444;}.\32 69d0dcb-672a-4979-8d1e-72e658ee9c97{fill:#1c1c1c;}.\31 a1e2c01-9c81-4a22-b1cd-bf9895ba7879,.\34 dc3cbaf-e8fb-4131-b0f3-b1868a69b0c2,.\35 cca2206-cf7a-4353-8694-7f0037776f11,.\38 c237c5a-59d5-4d52-b280-42d3d65640a0,.\39 458fb19-06fa-426b-ad54-c7b62b6f3e95,.b2055691-c81d-4a79-8935-a72fb5641e8f{fill:none;stroke-miterlimit:10;}.\34 dc3cbaf-e8fb-4131-b0f3-b1868a69b0c2{stroke:#4fe89c;stroke-width:10.5px;}.\39 458fb19-06fa-426b-ad54-c7b62b6f3e95{stroke:#000;stroke-dasharray:3 6;}.\34 d490c98-d97e-4747-9d10-fe0a47b088ca{fill:#4fe89c;}.c3b351ba-3e1b-4ee0-a6bd-4e1588562cc9{fill:#4d4d4d;}.\38 c237c5a-59d5-4d52-b280-42d3d65640a0{stroke:#fff;}.bd68ad0a-8b91-4a9a-82f5-a5ec45bf72d2{fill:#e6e6e6;}.\31 a1e2c01-9c81-4a22-b1cd-bf9895ba7879{stroke:#5e6367;stroke-width:2px;}.a1d97236-5c38-4cf4-8649-1d7f678ee669{fill:#f2f2f2;}.\37 0d11d26-321d-4fb0-9a22-8d68a8b67b7f{fill:#666;}.\35 cca2206-cf7a-4353-8694-7f0037776f11{stroke:#4d4d4d;}.b2055691-c81d-4a79-8935-a72fb5641e8f{stroke:#b3b3b3;stroke-width:3px;}.ab319cd7-50f4-48bb-bc03-a3cf8d7500c9{fill:#4330fc;}</style></defs><title>Artboard 1 copy 7</title><g id="d3a14846-1340-480c-ae2d-8865d80cab34" data-name="Layer 1"><path d="M446.34,180.62h-3.23l-3.76-10.56h2.9l1.94,6.38.58,2.08.56-2,2-6.42h2.8Z"/><path d="M458,170.34a5.62,5.62,0,0,1,2,1.46l-1.55,1.79a3.42,3.42,0,0,0-1.24-1.18,3.61,3.61,0,0,0-1.7-.38,2.36,2.36,0,0,0-1.28.29.88.88,0,0,0-.45.77.73.73,0,0,0,.47.65,6.14,6.14,0,0,0,1.61.46,7,7,0,0,1,3.13,1.17,2.64,2.64,0,0,1,.94,2.16,2.74,2.74,0,0,1-.58,1.74,3.57,3.57,0,0,1-1.59,1.12,6.46,6.46,0,0,1-2.3.38,8.07,8.07,0,0,1-2.91-.44,5,5,0,0,1-1.94-1.35l1.41-1.92a3.56,3.56,0,0,0,1.41,1.22,4.6,4.6,0,0,0,1.89.35,2.76,2.76,0,0,0,1.32-.25.78.78,0,0,0,.44-.71c0-.25-.16-.45-.47-.6a6.73,6.73,0,0,0-1.58-.44,11.72,11.72,0,0,1-2.25-.65,3.3,3.3,0,0,1-1.38-1,2.61,2.61,0,0,1-.49-1.63,3.07,3.07,0,0,1,.54-1.78,3.5,3.5,0,0,1,1.57-1.22,6.2,6.2,0,0,1,2.44-.44A6.62,6.62,0,0,1,458,170.34Z"/><circle class="dfbafdf6-4178-4d69-b91f-5757ad7ba1ae" cx="562.62" cy="173.18" r="30.85"/><path class="c4ff9a0f-ddf8-4f53-ab3f-916a0227595f" d="M593.2,169.07a30.23,30.23,0,0,1,0,8.23"/><path class="c4ff9a0f-ddf8-4f53-ab3f-916a0227595f" d="M593.2,169.07H562.62a4.11,4.11,0,1,0,0,8.23H593.2a30.23,30.23,0,0,0,0-8.23Z"/><circle class="269d0dcb-672a-4979-8d1e-72e658ee9c97" cx="562.62" cy="173.18" r="4.11"/><path class="4dc3cbaf-e8fb-4131-b0f3-b1868a69b0c2" d="M520.4,165.34a42.13,42.13,0,0,1,11.41-21.56"/><path class="9458fb19-06fa-426b-ad54-c7b62b6f3e95" d="M564.37,214.2A42,42,0,0,1,521,174.76"/><polygon points="560.99 210.13 560.32 210.87 563.98 214.17 560.42 217.58 561.12 218.3 565.45 214.15 560.99 210.13"/><line class="9458fb19-06fa-426b-ad54-c7b62b6f3e95" x1="702.62" y1="173.18" x2="627.71" y2="173.18"/><polygon points="631.02 169.09 631.7 169.82 628.09 173.18 631.7 176.54 631.02 177.27 626.62 173.18 631.02 169.09"/><circle class="4d490c98-d97e-4747-9d10-fe0a47b088ca" cx="724.71" cy="173.18" r="4.11"/><rect class="c3b351ba-3e1b-4ee0-a6bd-4e1588562cc9" x="243.66" y="258.05" width="44.14" height="44.14" transform="translate(531.47 560.23) rotate(180)"/><rect class="c3b351ba-3e1b-4ee0-a6bd-4e1588562cc9" x="92.77" y="258.05" width="44.14" height="44.14" transform="translate(229.67 560.23) rotate(180)"/><rect class="c3b351ba-3e1b-4ee0-a6bd-4e1588562cc9" x="139.53" y="258.05" width="11.03" height="44.14" transform="translate(290.09 560.23) rotate(180)"/><rect class="c3b351ba-3e1b-4ee0-a6bd-4e1588562cc9" x="152.91" y="258.05" width="88.28" height="44.14" transform="translate(394.09 560.23) rotate(180)"/><line class="8c237c5a-59d5-4d52-b280-42d3d65640a0" x1="267.59" y1="270.96" x2="268.54" y2="266.47"/><line class="8c237c5a-59d5-4d52-b280-42d3d65640a0" x1="262.92" y1="266.47" x2="263.88" y2="270.96"/><line class="8c237c5a-59d5-4d52-b280-42d3d65640a0" x1="263.88" y1="270.96" x2="262.92" y2="266.47"/><line class="8c237c5a-59d5-4d52-b280-42d3d65640a0" x1="257.76" y1="268.72" x2="260.46" y2="272.44"/><line class="8c237c5a-59d5-4d52-b280-42d3d65640a0" x1="253.91" y1="272.87" x2="257.89" y2="275.17"/><line class="8c237c5a-59d5-4d52-b280-42d3d65640a0" x1="260.46" y1="272.44" x2="257.76" y2="268.72"/><line class="8c237c5a-59d5-4d52-b280-42d3d65640a0" x1="257.89" y1="275.17" x2="253.91" y2="272.87"/><line class="8c237c5a-59d5-4d52-b280-42d3d65640a0" x1="252.05" y1="278.26" x2="256.62" y2="278.74"/><line class="8c237c5a-59d5-4d52-b280-42d3d65640a0" x1="274.56" y1="282.56" x2="278.93" y2="283.98"/><line class="8c237c5a-59d5-4d52-b280-42d3d65640a0" x1="279.42" y1="278.26" x2="274.84" y2="278.74"/><line class="8c237c5a-59d5-4d52-b280-42d3d65640a0" x1="273.57" y1="275.17" x2="277.56" y2="272.87"/><line class="8c237c5a-59d5-4d52-b280-42d3d65640a0" x1="273.71" y1="268.72" x2="271" y2="272.44"/><line class="8c237c5a-59d5-4d52-b280-42d3d65640a0" x1="268.54" y1="266.47" x2="267.59" y2="270.96"/><line class="8c237c5a-59d5-4d52-b280-42d3d65640a0" x1="271" y1="272.44" x2="273.71" y2="268.72"/><line class="8c237c5a-59d5-4d52-b280-42d3d65640a0" x1="274.84" y1="278.74" x2="279.42" y2="278.26"/><line class="8c237c5a-59d5-4d52-b280-42d3d65640a0" x1="277.56" y1="272.87" x2="273.57" y2="275.17"/><line class="8c237c5a-59d5-4d52-b280-42d3d65640a0" x1="269.58" y1="288.33" x2="271.45" y2="292.53"/><line class="8c237c5a-59d5-4d52-b280-42d3d65640a0" x1="276.12" y1="289.04" x2="272.7" y2="285.97"/><line class="8c237c5a-59d5-4d52-b280-42d3d65640a0" x1="271.45" y1="292.53" x2="269.58" y2="288.33"/><line class="8c237c5a-59d5-4d52-b280-42d3d65640a0" x1="265.73" y1="289.17" x2="265.73" y2="293.76"/><line class="8c237c5a-59d5-4d52-b280-42d3d65640a0" x1="278.93" y1="283.98" x2="274.56" y2="282.56"/><line class="8c237c5a-59d5-4d52-b280-42d3d65640a0" x1="272.7" y1="285.97" x2="276.12" y2="289.04"/><line class="8c237c5a-59d5-4d52-b280-42d3d65640a0" x1="265.73" y1="293.76" x2="265.73" y2="289.17"/><line class="8c237c5a-59d5-4d52-b280-42d3d65640a0" x1="261.89" y1="288.33" x2="260.02" y2="292.53"/><line class="8c237c5a-59d5-4d52-b280-42d3d65640a0" x1="256.91" y1="282.56" x2="252.53" y2="283.98"/><line class="8c237c5a-59d5-4d52-b280-42d3d65640a0" x1="255.35" y1="289.04" x2="258.77" y2="285.97"/><line class="8c237c5a-59d5-4d52-b280-42d3d65640a0" x1="260.02" y1="292.53" x2="261.89" y2="288.33"/><line class="8c237c5a-59d5-4d52-b280-42d3d65640a0" x1="258.77" y1="285.97" x2="255.35" y2="289.04"/><circle class="bd68ad0a-8b91-4a9a-82f5-a5ec45bf72d2" cx="265.73" cy="280.12" r="11.03"/><line class="1a1e2c01-9c81-4a22-b1cd-bf9895ba7879" x1="274.34" y1="273.22" x2="267.64" y2="278.59"/><circle class="a1d97236-5c38-4cf4-8649-1d7f678ee669" cx="177.39" cy="280.12" r="13.79"/><path class="70d11d26-321d-4fb0-9a22-8d68a8b67b7f" d="M181.44,280.95l6.75,1.43A11,11,0,0,0,183,270.61l-3.45,6"/><path class="70d11d26-321d-4fb0-9a22-8d68a8b67b7f" d="M176.22,276.15l-2.13-6.56a11,11,0,0,0-7.74,10.53h6.9"/><path class="70d11d26-321d-4fb0-9a22-8d68a8b67b7f" d="M174.69,283.25l-4.62,5.13a11,11,0,0,0,7.31,2.77,11.18,11.18,0,0,0,1.28-.08,11,11,0,0,0,4.33-1.46l-3.45-6"/><circle class="a1d97236-5c38-4cf4-8649-1d7f678ee669" cx="216.7" cy="280.12" r="13.79" transform="translate(-136.42 307.19) rotate(-56.66)"/><path class="70d11d26-321d-4fb0-9a22-8d68a8b67b7f" d="M219.62,283l4.85,4.91a11,11,0,0,0,2.13-12.68l-6.17,3.1"/><path class="70d11d26-321d-4fb0-9a22-8d68a8b67b7f" d="M217.91,276.16l1.83-6.66a11,11,0,0,0-12.25,4.55l5.76,3.79"/><path class="70d11d26-321d-4fb0-9a22-8d68a8b67b7f" d="M212.72,281.25,206,283a11,11,0,0,0,4.58,6.34,11.18,11.18,0,0,0,1.11.64,11,11,0,0,0,4.42,1.16l.4-6.89"/><circle class="bd68ad0a-8b91-4a9a-82f5-a5ec45bf72d2" cx="114.84" cy="280.43" r="13.79"/><path class="5cca2206-cf7a-4353-8694-7f0037776f11" d="M101,281.27h3.48c2.1.46,2.86,2.52,4.08,4,.38.53.84,1.15,1.45,1.07a2.18,2.18,0,0,0,.94-.28,2.83,2.83,0,0,0,.72-.61,8.52,8.52,0,0,0,.8-1.15c1.2-2,1.51-4.37,2.27-6.59.53-1.38,1.3-3.36,2.9-3.29.84,0,1.38,1.07,1.91,1.91,1.07,1.76,1.76,4,3.81,4.85.62,0,1.19,0,1.72,0h3.48"/><line class="b2055691-c81d-4a79-8935-a72fb5641e8f" x1="145.04" y1="264.12" x2="145.04" y2="296.12"/><polygon class="ab319cd7-50f4-48bb-bc03-a3cf8d7500c9" points="92.75 55 92.75 120.29 92.77 120.29 122.77 120.29 125.77 120.29 155.78 120.29 158.78 120.29 188.78 120.29 191.78 120.29 221.79 120.29 224.79 120.29 254.8 120.29 287.8 120.29 287.8 86.39 287.8 55.49 287.8 55 92.75 55"/><polygon class="ab319cd7-50f4-48bb-bc03-a3cf8d7500c9" points="254.8 123.29 224.79 123.29 221.79 123.29 191.78 123.29 188.78 123.29 158.78 123.29 155.78 123.29 125.77 123.29 122.77 123.29 92.77 123.29 92.75 123.29 92.75 154.19 92.77 154.19 122.77 154.19 125.77 154.19 155.78 154.19 158.78 154.19 188.78 154.19 191.78 154.19 221.79 154.19 224.79 154.19 254.8 154.19 287.8 154.19 287.8 123.29 254.8 123.29"/><polygon class="ab319cd7-50f4-48bb-bc03-a3cf8d7500c9" points="92.77 191.09 92.77 221.99 92.77 224.99 92.77 240 92.77 255.89 122.77 255.89 122.77 240 122.77 224.99 122.77 221.99 122.77 191.09 122.77 157.19 92.77 157.19 92.77 191.09"/><polygon class="ab319cd7-50f4-48bb-bc03-a3cf8d7500c9" points="188.78 188.09 188.78 157.19 188.75 157.19 158.78 157.19 125.77 157.19 125.77 191.09 125.77 221.99 125.77 224.99 125.77 255.89 125.77 256 188.75 256 188.75 255.89 188.78 255.89 188.78 224.99 188.75 224.99 188.75 221.99 188.78 221.99 188.78 191.09 188.75 191.09 188.75 188.09 188.78 188.09"/><polygon class="ab319cd7-50f4-48bb-bc03-a3cf8d7500c9" points="191.75 157 191.75 255.89 191.78 255.89 221.79 255.89 224.79 255.89 254.8 255.89 287.8 255.89 287.8 221.99 287.8 191.09 287.8 188.09 287.8 157.19 287.8 157 191.75 157"/><path class="9458fb19-06fa-426b-ad54-c7b62b6f3e95" d="M86.09,189.51c-32.64.43-58.92,20.41-58.92,45s26.28,44.56,58.92,45"/><polygon points="82.63 185.58 81.97 186.34 85.71 189.55 82.23 193.04 82.94 193.75 87.17 189.5 82.63 185.58"/><polygon points="82.63 283.42 81.97 282.66 85.71 279.44 82.23 275.95 82.94 275.25 87.17 279.5 82.63 283.42"/><path class="9458fb19-06fa-426b-ad54-c7b62b6f3e95" d="M86.09,77c-32.64.93-58.92,43.88-58.92,96.73s26.28,95.8,58.92,96.73"/><polygon points="82.57 73.15 81.92 73.92 85.71 77.08 82.28 80.62 83 81.32 87.17 77 82.57 73.15"/><polygon points="82.57 274.35 81.92 273.58 85.71 270.42 82.28 266.88 83 266.18 87.17 270.5 82.57 274.35"/><path class="9458fb19-06fa-426b-ad54-c7b62b6f3e95" d="M86.09,86.51c-19.38.41-34.92,11.89-34.92,26s15.53,25.57,34.91,26"/><polygon points="82.63 82.57 81.98 83.33 85.71 86.55 82.22 90.04 82.93 90.75 87.17 86.5 82.63 82.57"/><polygon points="82.63 142.43 81.98 141.67 85.71 138.45 82.22 134.96 82.93 134.25 87.17 138.5 82.63 142.43"/><path class="9458fb19-06fa-426b-ad54-c7b62b6f3e95" d="M233.17,114.42c-.22-21.78-7-106.41-34-105.92-14.09.26-25.57,15.54-26,34.91"/><polygon points="237.12 110.97 236.37 110.31 233.13 114.03 229.66 110.53 228.95 111.24 233.18 115.5 237.12 110.97"/><polygon points="169.25 39.96 170 39.3 173.23 43.03 176.72 39.55 177.42 40.26 173.17 44.5 169.25 39.96"/><path class="9458fb19-06fa-426b-ad54-c7b62b6f3e95" d="M294.26,85.5c32.25.22,41,10.15,41,24s-9.65,23.78-41.92,24"/><polygon points="297.49 89.67 298.19 88.95 294.64 85.53 298.32 82.24 297.65 81.5 293.18 85.5 297.49 89.67"/><polygon points="296.57 129.32 297.26 130.04 293.72 133.47 297.4 136.76 296.73 137.5 292.25 133.5 296.57 129.32"/><path class="9458fb19-06fa-426b-ad54-c7b62b6f3e95" d="M294.26,143.51c32.25.37,41,17.12,41,28,0,38.59-103.62,38-137.92,38"/><polygon points="297.44 147.73 298.14 147.02 294.64 143.55 298.36 140.31 297.7 139.56 293.18 143.5 297.44 147.73"/><polygon points="200.64 205.4 201.32 206.13 197.72 209.5 201.34 212.85 200.66 213.58 196.25 209.5 200.64 205.4"/><path class="9458fb19-06fa-426b-ad54-c7b62b6f3e95" d="M294.26,215.51c32.15.6,36.45,27.72,39,43,1,6,5.58,49.59-21,71-34,27.41-99.57,16.1-101-16.92"/><polygon points="297.42 219.74 298.13 219.04 294.64 215.55 298.37 212.33 297.72 211.57 293.18 215.5 297.42 219.74"/><polygon points="215.68 315.56 215 316.29 211.37 312.96 208.31 316.83 207.53 316.21 211.25 311.5 215.68 315.56"/><path class="9458fb19-06fa-426b-ad54-c7b62b6f3e95" d="M294.34,75.5c52.38.47,84.91,35.24,84.91,71,0,42.71-32.53,78.51-84.92,79"/><polygon points="297.56 79.68 298.26 78.96 294.72 75.53 298.4 72.25 297.73 71.5 293.25 75.5 297.56 79.68"/><polygon points="297.56 221.32 298.26 222.03 294.72 225.47 298.4 228.75 297.74 229.49 293.25 225.5 297.56 221.32"/></g></svg>