<svg xmlns="http://www.w3.org/2000/svg" viewBox="0 0 200 200">
  <title>planets</title>
  <g id="Layer_2" data-name="Layer 2">
    <g id="Layer_1-2" data-name="Layer 1">
      <g>
        <path id="moon-dot" d="M46,79a3,3,0,1,1-3,3,2.9,2.9,0,0,1,3-3m0-7A10,10,0,1,0,56,82,10,10,0,0,0,46,72Z" fill="#7f8482"/>
        <g id="planet-dots">
          <path d="M46,187a3,3,0,1,1-3,3,2.9,2.9,0,0,1,3-3m0-7a10,10,0,1,0,10,10,10,10,0,0,0-10-10Z" fill="#6fdc74"/>
          <path d="M10,187a3,3,0,0,1,0,6,3,3,0,0,1,0-6m0-7a10,10,0,1,0,10,10,10,10,0,0,0-10-10Z" fill="#6fdc74"/>
          <path d="M190,151a3,3,0,1,1-3,3,2.9,2.9,0,0,1,3-3m0-7a10,10,0,1,0,10,10,10,10,0,0,0-10-10Z" fill="#6fdc74"/>
          <path d="M154,151a3,3,0,1,1-3,3,2.9,2.9,0,0,1,3-3m0-7a10,10,0,1,0,10,10,10,10,0,0,0-10-10Z" fill="#6fdc74"/>
          <path d="M118,151a3,3,0,1,1-3,3,2.9,2.9,0,0,1,3-3m0-7a10,10,0,1,0,10,10,10,10,0,0,0-10-10Z" fill="#6fdc74"/>
          <path d="M82,151a3,3,0,1,1-3,3,2.9,2.9,0,0,1,3-3m0-7a10,10,0,1,0,10,10,10,10,0,0,0-10-10Z" fill="#6fdc74"/>
          <path d="M46,151a3,3,0,1,1-3,3,2.9,2.9,0,0,1,3-3m0-7a10,10,0,1,0,10,10,10,10,0,0,0-10-10Z" fill="#6fdc74"/>
          <path d="M10,151a3,3,0,0,1,0,6,3,3,0,0,1,0-6m0-7a10,10,0,1,0,10,10,10,10,0,0,0-10-10Z" fill="#6fdc74"/>
          <path d="M190,115a3,3,0,1,1-3,3,2.9,2.9,0,0,1,3-3m0-7a10,10,0,1,0,10,10,10,10,0,0,0-10-10Z" fill="#6fdc74"/>
          <path d="M154,115a3,3,0,1,1-3,3,2.9,2.9,0,0,1,3-3m0-7a10,10,0,1,0,10,10,10,10,0,0,0-10-10Z" fill="#6fdc74"/>
          <path d="M118,115a3,3,0,1,1-3,3,2.9,2.9,0,0,1,3-3m0-7a10,10,0,1,0,10,10,10,10,0,0,0-10-10Z" fill="#6fdc74"/>
          <path d="M82,115a3,3,0,1,1-3,3,2.9,2.9,0,0,1,3-3m0-7a10,10,0,1,0,10,10,10,10,0,0,0-10-10Z" fill="#6fdc74"/>
          <path d="M46,115a3,3,0,1,1-3,3,2.9,2.9,0,0,1,3-3m0-7a10,10,0,1,0,10,10,10,10,0,0,0-10-10Z" fill="#6fdc74"/>
          <path d="M10,115a3,3,0,0,1,0,6,3,3,0,0,1,0-6m0-7a10,10,0,1,0,10,10,10,10,0,0,0-10-10Z" fill="#6fdc74"/>
          <path d="M190,79a3,3,0,1,1-3,3,2.9,2.9,0,0,1,3-3m0-7a10,10,0,1,0,10,10,10,10,0,0,0-10-10Z" fill="#6fdc74"/>
          <path d="M154,79a3,3,0,1,1-3,3,2.9,2.9,0,0,1,3-3m0-7a10,10,0,1,0,10,10,10,10,0,0,0-10-10Z" fill="#6fdc74"/>
          <path d="M118,79a3,3,0,1,1-3,3,2.9,2.9,0,0,1,3-3m0-7a10,10,0,1,0,10,10,10,10,0,0,0-10-10Z" fill="#6fdc74"/>
          <path d="M82,79a3,3,0,1,1-3,3,2.9,2.9,0,0,1,3-3m0-7A10,10,0,1,0,92,82,10,10,0,0,0,82,72Z" fill="#6fdc74"/>
          <path d="M10,79a3,3,0,0,1,0,6,3,3,0,0,1,0-6m0-7A10,10,0,1,0,20,82,10,10,0,0,0,10,72Z" fill="#6fdc74"/>
          <path d="M190,43a3,3,0,1,1-3,3,2.9,2.9,0,0,1,3-3m0-7a10,10,0,1,0,10,10,10,10,0,0,0-10-10Z" fill="#6fdc74"/>
          <path d="M154,43a3,3,0,1,1-3,3,2.9,2.9,0,0,1,3-3m0-7a10,10,0,1,0,10,10,10,10,0,0,0-10-10Z" fill="#6fdc74"/>
          <path d="M118,43a3,3,0,1,1-3,3,2.9,2.9,0,0,1,3-3m0-7a10,10,0,1,0,10,10,10,10,0,0,0-10-10Z" fill="#6fdc74"/>
          <path d="M82,43a3,3,0,1,1-3,3,2.9,2.9,0,0,1,3-3m0-7A10,10,0,1,0,92,46,10,10,0,0,0,82,36Z" fill="#6fdc74"/>
          <path d="M46,43a3,3,0,1,1-3,3,2.9,2.9,0,0,1,3-3m0-7A10,10,0,1,0,56,46,10,10,0,0,0,46,36Z" fill="#6fdc74"/>
          <path d="M10,43a3,3,0,0,1,0,6,3,3,0,0,1,0-6m0-7A10,10,0,1,0,20,46,10,10,0,0,0,10,36Z" fill="#6fdc74"/>
          <path d="M190,7a2.9,2.9,0,0,1,3,3,3,3,0,0,1-6,0,2.9,2.9,0,0,1,3-3m0-7a10,10,0,1,0,10,10A10,10,0,0,0,190,0Z" fill="#6fdc74"/>
          <path d="M154,7a2.9,2.9,0,0,1,3,3,3,3,0,0,1-6,0,2.9,2.9,0,0,1,3-3m0-7a10,10,0,1,0,10,10A10,10,0,0,0,154,0Z" fill="#6fdc74"/>
          <path d="M118,7a2.9,2.9,0,0,1,3,3,3,3,0,0,1-6,0,2.9,2.9,0,0,1,3-3m0-7a10,10,0,1,0,10,10A10,10,0,0,0,118,0Z" fill="#6fdc74"/>
          <path d="M82,7a2.9,2.9,0,0,1,3,3,3,3,0,0,1-6,0,2.9,2.9,0,0,1,3-3m0-7A10,10,0,1,0,92,10,10,10,0,0,0,82,0Z" fill="#6fdc74"/>
          <path d="M46,7a2.9,2.9,0,0,1,3,3,3,3,0,0,1-6,0,2.9,2.9,0,0,1,3-3m0-7A10,10,0,1,0,56,10,10,10,0,0,0,46,0Z" fill="#6fdc74"/>
          <path d="M10,7a2.9,2.9,0,0,1,3,3,2.9,2.9,0,0,1-3,3,2.9,2.9,0,0,1-3-3,2.9,2.9,0,0,1,3-3m0-7A10,10,0,1,0,20,10,10,10,0,0,0,10,0Z" fill="#6fdc74"/>
        </g>
      </g>
    </g>
  </g>
</svg>
