<svg xmlns="http://www.w3.org/2000/svg" width="100" height="100" viewBox="0 0 100 100">
  <g fill="none" fill-rule="evenodd" transform="translate(-730 -850)">
    <polygon fill="#4330FC" points="780.385 942.324 773.644 949.539 769.101 940.773 760.664 945.902 758.653 936.235 749.146 938.898 749.818 929.047 739.945 929.046 743.25 919.742 733.743 917.077 739.435 909.009 731 903.878 738.658 897.646 731.92 890.429 740.975 886.494 736.434 877.727 746.216 876.381 744.208 866.714 753.99 868.057 754.665 858.206 763.722 862.138 767.03 852.836 774.69 859.065 780.385 851 786.08 859.065 793.74 852.836 797.047 862.138 806.104 858.206 806.779 868.057 816.561 866.714 814.554 876.381 824.335 877.727 819.794 886.494 828.849 890.429 822.111 897.646 829.769 903.878 821.334 909.009 827.027 917.077 817.52 919.742 820.825 929.046 810.951 929.047 811.623 938.898 802.116 936.235 800.105 945.902 791.669 940.773 787.125 949.539"/>
    <path fill="#FFFFFF" d="M756.09116,883.844883 L756.09116,894.404883 L753.43516,894.404883 L753.43516,886.548883 C752.613822,887.295554 751.781831,887.743549 750.93916,887.892883 L750.68316,885.620883 C751.227163,885.556883 751.83249,885.340885 752.49916,884.972883 C753.16583,884.604881 753.632492,884.228885 753.89916,883.844883 L756.09116,883.844883 Z M763.11516,883.844883 L763.11516,894.404883 L760.45916,894.404883 L760.45916,886.548883 C759.637822,887.295554 758.805831,887.743549 757.96316,887.892883 L757.70716,885.620883 C758.251163,885.556883 758.85649,885.340885 759.52316,884.972883 C760.18983,884.604881 760.656492,884.228885 760.92316,883.844883 L763.11516,883.844883 Z M774.90716,894.404883 C774.608492,895.258221 774.283162,895.935547 773.93116,896.436883 C773.579158,896.938219 773.163162,897.298215 772.68316,897.516883 C772.203157,897.735551 771.62183,897.844883 770.93916,897.844883 C770.032489,897.844883 769.307163,897.647552 768.76316,897.252883 L769.33916,895.428883 C769.509827,895.588884 769.699159,895.698216 769.90716,895.756883 C770.115161,895.81555 770.384492,895.844883 770.71516,895.844883 C771.045828,895.844883 771.307159,895.788884 771.49916,895.676883 C771.691161,895.564883 771.845826,895.364885 771.96316,895.076883 L772.15516,894.580883 L771.22716,892.404883 L768.84316,886.404883 L771.83516,886.404883 L773.06716,890.964883 L773.45116,892.660883 L773.88316,890.900883 L775.11516,886.404883 L777.83516,886.404883 L774.90716,894.404883 Z M786.34716,891.188883 L780.89116,891.188883 C780.976494,891.690219 781.160492,892.058215 781.44316,892.292883 C781.725828,892.527551 782.101824,892.644883 782.57116,892.644883 C782.965829,892.644883 783.288492,892.570217 783.53916,892.420883 C783.789828,892.271549 783.957826,892.052885 784.04316,891.764883 L786.25116,892.468883 C786.027159,893.151553 785.592496,893.671548 784.94716,894.028883 C784.301823,894.386218 783.509831,894.564883 782.57116,894.564883 C781.17382,894.564883 780.104497,894.20222 779.36316,893.476883 C778.621823,892.751546 778.25116,891.727556 778.25116,890.404883 C778.25116,889.08221 778.613823,888.05822 779.33916,887.332883 C780.064497,886.607546 781.09382,886.244883 782.42716,886.244883 C783.717833,886.244883 784.707156,886.599546 785.39516,887.308883 C786.083163,888.01822 786.42716,889.012877 786.42716,890.292883 C786.42716,890.655552 786.400493,890.954215 786.34716,891.188883 Z M781.37916,888.532883 C781.128492,888.788884 780.965827,889.183547 780.89116,889.716883 L783.89916,889.716883 C783.749826,888.671545 783.253831,888.148883 782.41116,888.148883 C781.973824,888.148883 781.629828,888.276882 781.37916,888.532883 Z M796.17116,892.788883 L795.96316,894.308883 C795.653825,894.479551 795.291162,894.564883 794.87516,894.564883 C793.723154,894.564883 793.035161,894.154221 792.81116,893.332883 C792.331157,894.154221 791.381834,894.564883 789.96316,894.564883 C789.163156,894.564883 788.549829,894.394218 788.12316,894.052883 C787.696491,893.711548 787.48316,893.215553 787.48316,892.564883 C787.48316,891.882213 787.725824,891.330219 788.21116,890.908883 C788.696496,890.487548 789.493821,890.164884 790.60316,889.940883 L792.41116,889.588883 L792.41116,889.300883 C792.41116,888.938215 792.309828,888.650218 792.10716,888.436883 C791.904492,888.223549 791.627162,888.116883 791.27516,888.116883 C790.869825,888.116883 790.539161,888.212882 790.28316,888.404883 C790.027159,888.596884 789.861827,888.911548 789.78716,889.348883 L787.57916,888.708883 C787.717827,887.930213 788.101823,887.324885 788.73116,886.892883 C789.360496,886.460881 790.208488,886.244883 791.27516,886.244883 C792.523166,886.244883 793.47249,886.500881 794.12316,887.012883 C794.77383,887.524886 795.09916,888.292878 795.09916,889.316883 L795.09916,892.228883 C795.09916,892.644885 795.291158,892.852883 795.67516,892.852883 C795.877828,892.852883 796.043159,892.83155 796.17116,892.788883 Z M791.96316,892.492883 C792.261828,892.284882 792.41116,892.010218 792.41116,891.668883 L792.41116,890.980883 L791.11516,891.284883 C790.773825,891.370217 790.531161,891.474216 790.38716,891.596883 C790.243159,891.71955 790.17116,891.892882 790.17116,892.116883 C790.17116,892.340884 790.240493,892.511549 790.37916,892.628883 C790.517827,892.746217 790.709825,892.804883 790.95516,892.804883 C791.328495,892.804883 791.664492,892.700884 791.96316,892.492883 Z M803.05116,886.420883 L802.76316,888.724883 C802.656493,888.660883 802.512494,888.604883 802.33116,888.556883 C802.149826,888.508883 801.957828,888.484883 801.75516,888.484883 C801.243157,888.484883 800.816495,888.647548 800.47516,888.972883 C800.133825,889.298218 799.96316,889.76488 799.96316,890.372883 L799.96316,894.404883 L797.24316,894.404883 L797.24316,886.404883 L799.64316,886.404883 L799.75516,888.116883 C800.181829,886.868877 800.992487,886.244883 802.18716,886.244883 C802.549828,886.244883 802.837825,886.303549 803.05116,886.420883 Z M803.40316,893.156883 L804.81116,891.620883 C805.269829,892.37822 806.059154,892.756883 807.17916,892.756883 C807.552495,892.756883 807.845825,892.706217 808.05916,892.604883 C808.272494,892.503549 808.37916,892.367551 808.37916,892.196883 C808.37916,892.047549 808.269828,891.916884 808.05116,891.804883 C807.832492,891.692883 807.456496,891.58355 806.92316,891.476883 C805.728487,891.242215 804.877829,890.922219 804.37116,890.516883 C803.864491,890.111548 803.61116,889.572887 803.61116,888.900883 C803.61116,888.442214 803.755158,888.010219 804.04316,887.604883 C804.331161,887.199548 804.765824,886.871551 805.34716,886.620883 C805.928496,886.370215 806.635156,886.244883 807.46716,886.244883 C808.384498,886.244883 809.133824,886.370215 809.71516,886.620883 C810.296496,886.871551 810.768491,887.247547 811.13116,887.748883 L809.72316,889.124883 C809.467159,888.751548 809.163162,888.479551 808.81116,888.308883 C808.459158,888.138216 808.037829,888.052883 807.54716,888.052883 C807.163158,888.052883 806.864494,888.111549 806.65116,888.228883 C806.437825,888.346217 806.33116,888.490216 806.33116,888.660883 C806.33116,888.820884 806.440492,888.956883 806.65916,889.068883 C806.877828,889.180884 807.259157,889.290216 807.80316,889.396883 C808.976499,889.599551 809.821824,889.900881 810.33916,890.300883 C810.856496,890.700885 811.11516,891.247546 811.11516,891.940883 C811.11516,892.719554 810.78983,893.351547 810.13916,893.836883 C809.48849,894.322219 808.544499,894.564883 807.30716,894.564883 C805.472484,894.564883 804.171164,894.095555 803.40316,893.156883 Z M763.45916,915.636883 C763.45916,915.999552 763.512493,916.255549 763.61916,916.404883 C763.725827,916.554217 763.917825,916.628883 764.19516,916.628883 C764.451161,916.628883 764.723158,916.580884 765.01116,916.484883 L764.83516,918.164883 C764.643159,918.282217 764.392495,918.378216 764.08316,918.452883 C763.773825,918.52755 763.469828,918.564883 763.17116,918.564883 C762.317822,918.564883 761.699162,918.364885 761.31516,917.964883 C760.931158,917.564881 760.73916,916.922221 760.73916,916.036883 L760.73916,907.012883 L763.45916,907.012883 L763.45916,915.636883 Z M774.25916,916.788883 L774.05116,918.308883 C773.741825,918.479551 773.379162,918.564883 772.96316,918.564883 C771.811154,918.564883 771.123161,918.154221 770.89916,917.332883 C770.419157,918.154221 769.469834,918.564883 768.05116,918.564883 C767.251156,918.564883 766.637829,918.394218 766.21116,918.052883 C765.784491,917.711548 765.57116,917.215553 765.57116,916.564883 C765.57116,915.882213 765.813824,915.330219 766.29916,914.908883 C766.784496,914.487548 767.581821,914.164884 768.69116,913.940883 L770.49916,913.588883 L770.49916,913.300883 C770.49916,912.938215 770.397828,912.650218 770.19516,912.436883 C769.992492,912.223549 769.715162,912.116883 769.36316,912.116883 C768.957825,912.116883 768.627161,912.212882 768.37116,912.404883 C768.115159,912.596884 767.949827,912.911548 767.87516,913.348883 L765.66716,912.708883 C765.805827,911.930213 766.189823,911.324885 766.81916,910.892883 C767.448496,910.460881 768.296488,910.244883 769.36316,910.244883 C770.611166,910.244883 771.56049,910.500881 772.21116,911.012883 C772.86183,911.524886 773.18716,912.292878 773.18716,913.316883 L773.18716,916.228883 C773.18716,916.644885 773.379158,916.852883 773.76316,916.852883 C773.965828,916.852883 774.131159,916.83155 774.25916,916.788883 Z M770.05116,916.492883 C770.349828,916.284882 770.49916,916.010218 770.49916,915.668883 L770.49916,914.980883 L769.20316,915.284883 C768.861825,915.370217 768.619161,915.474216 768.47516,915.596883 C768.331159,915.71955 768.25916,915.892882 768.25916,916.116883 C768.25916,916.340884 768.328493,916.511549 768.46716,916.628883 C768.605827,916.746217 768.797825,916.804883 769.04316,916.804883 C769.416495,916.804883 769.752492,916.700884 770.05116,916.492883 Z M780.81916,917.956883 C780.552492,918.138217 780.213829,918.284883 779.80316,918.396883 C779.392491,918.508884 778.979162,918.564883 778.56316,918.564883 C777.613822,918.564883 776.888496,918.362219 776.38716,917.956883 C775.885824,917.551548 775.629827,916.900888 775.61916,916.004883 L775.61916,912.340883 L774.24316,912.340883 L774.24316,910.404883 L775.61916,910.404883 L775.61916,908.612883 L778.33916,907.860883 L778.33916,910.404883 L780.73916,910.404883 L780.73916,912.340883 L778.33916,912.340883 L778.33916,915.556883 C778.33916,916.271553 778.691156,916.628883 779.39516,916.628883 C779.832495,916.628883 780.216492,916.511551 780.54716,916.276883 L780.81916,917.956883 Z M789.68316,915.188883 L784.22716,915.188883 C784.312494,915.690219 784.496492,916.058215 784.77916,916.292883 C785.061828,916.527551 785.437824,916.644883 785.90716,916.644883 C786.301829,916.644883 786.624492,916.570217 786.87516,916.420883 C787.125828,916.271549 787.293826,916.052885 787.37916,915.764883 L789.58716,916.468883 C789.363159,917.151553 788.928496,917.671548 788.28316,918.028883 C787.637823,918.386218 786.845831,918.564883 785.90716,918.564883 C784.50982,918.564883 783.440497,918.20222 782.69916,917.476883 C781.957823,916.751546 781.58716,915.727556 781.58716,914.404883 C781.58716,913.08221 781.949823,912.05822 782.67516,911.332883 C783.400497,910.607546 784.42982,910.244883 785.76316,910.244883 C787.053833,910.244883 788.043156,910.599546 788.73116,911.308883 C789.419163,912.01822 789.76316,913.012877 789.76316,914.292883 C789.76316,914.655552 789.736493,914.954215 789.68316,915.188883 Z M784.71516,912.532883 C784.464492,912.788884 784.301827,913.183547 784.22716,913.716883 L787.23516,913.716883 C787.085826,912.671545 786.589831,912.148883 785.74716,912.148883 C785.309824,912.148883 784.965828,912.276882 784.71516,912.532883 Z M797.09116,910.420883 L796.80316,912.724883 C796.696493,912.660883 796.552494,912.604883 796.37116,912.556883 C796.189826,912.508883 795.997828,912.484883 795.79516,912.484883 C795.283157,912.484883 794.856495,912.647548 794.51516,912.972883 C794.173825,913.298218 794.00316,913.76488 794.00316,914.372883 L794.00316,918.404883 L791.28316,918.404883 L791.28316,910.404883 L793.68316,910.404883 L793.79516,912.116883 C794.221829,910.868877 795.032487,910.244883 796.22716,910.244883 C796.589828,910.244883 796.877825,910.303549 797.09116,910.420883 Z M801.01116,911.252883 L800.70716,914.964883 L798.48316,914.964883 L798.17916,911.252883 L798.17916,907.844883 L801.01116,907.844883 L801.01116,911.252883 Z M800.72316,916.212883 C801.000495,916.447551 801.13916,916.778214 801.13916,917.204883 C801.13916,917.620885 801.000495,917.946215 800.72316,918.180883 C800.445825,918.415551 800.067162,918.532883 799.58716,918.532883 C799.107157,918.532883 798.731161,918.415551 798.45916,918.180883 C798.187159,917.946215 798.05116,917.620885 798.05116,917.204883 C798.05116,916.778214 798.187159,916.447551 798.45916,916.212883 C798.731161,915.978215 799.107157,915.860883 799.58716,915.860883 C800.067162,915.860883 800.445825,915.978215 800.72316,916.212883 Z" transform="rotate(18 780.907 901.205)"/>
  </g>
</svg>
