<svg width="655" height="745" viewBox="0 0 655 745" fill="none" xmlns="http://www.w3.org/2000/svg">
<g clip-path="url(#clip0_2289_521)">
<mask id="mask0_2289_521" style="mask-type:luminance" maskUnits="userSpaceOnUse" x="1" y="1" width="653" height="737">
<path d="M458.926 1.10385V182.389C458.926 332.491 531.78 465.384 606.29 562.037L653.49 531.35L567.269 737.715L347.028 682.743L400.09 663.933C369.988 627.341 339.224 585.858 310.314 539.971C276.989 592.613 241.268 639.406 206.961 679.619L1.14767 578.153L1.10352 578.341C80.3711 480.506 163.049 340.13 163.049 180.237V1.10385H458.926Z" fill="white"/>
</mask>
<g mask="url(#mask0_2289_521)">
<path d="M268.632 22.9049H184.685V214.787H268.632V22.9049Z" stroke="white" stroke-width="2.16" stroke-linejoin="round"/>
<path d="M185.303 39.2971H269.251" stroke="white" stroke-width="2.16" stroke-linejoin="round"/>
<path d="M262.451 27.2872H189.817V33.546H262.451V27.2872Z" stroke="white" stroke-width="2.16" stroke-linejoin="round"/>
<path d="M208.649 33.1487V27.2872" stroke="white" stroke-width="2.16" stroke-linejoin="round"/>
<path d="M226.664 33.1487V27.2872" stroke="white" stroke-width="2.16" stroke-linejoin="round"/>
<path d="M244.083 33.546V27.6846" stroke="white" stroke-width="2.16" stroke-linejoin="round"/>
<path d="M209.112 76.7397C218.458 76.7397 226.035 69.1635 226.035 59.8177C226.035 50.4719 218.458 42.8957 209.112 42.8957C199.767 42.8957 192.19 50.4719 192.19 59.8177C192.19 69.1635 199.767 76.7397 209.112 76.7397Z" stroke="white" stroke-width="2.16" stroke-linejoin="round"/>
<path d="M209.113 66.9596C213.057 66.9596 216.255 63.7621 216.255 59.8177C216.255 55.8733 213.057 52.6758 209.113 52.6758C205.168 52.6758 201.971 55.8733 201.971 59.8177C201.971 63.7621 205.168 66.9596 209.113 66.9596Z" stroke="white" stroke-width="2.16" stroke-linejoin="round"/>
<path d="M244.204 76.7397C253.55 76.7397 261.126 69.1635 261.126 59.8177C261.126 50.4719 253.55 42.8957 244.204 42.8957C234.858 42.8957 227.282 50.4719 227.282 59.8177C227.282 69.1635 234.858 76.7397 244.204 76.7397Z" stroke="white" stroke-width="2.16" stroke-linejoin="round"/>
<path d="M244.204 66.9596C248.149 66.9596 251.346 63.7621 251.346 59.8177C251.346 55.8733 248.149 52.6758 244.204 52.6758C240.26 52.6758 237.062 55.8733 237.062 59.8177C237.062 63.7621 240.26 66.9596 244.204 66.9596Z" stroke="white" stroke-width="2.16" stroke-linejoin="round"/>
<path d="M268.235 82.6453H184.685V106.776H268.235V82.6453Z" stroke="white" stroke-width="2.16" stroke-linejoin="round"/>
<path d="M255.464 106.764H237.272V214.776H255.464V106.764Z" stroke="white" stroke-width="2.16" stroke-linejoin="round"/>
<path d="M221.409 106.764H203.218V214.776H221.409V106.764Z" stroke="white" stroke-width="2.16" stroke-linejoin="round"/>
<path d="M212.523 89.6437H263.223" stroke="white" stroke-width="2.16" stroke-linecap="round" stroke-linejoin="round"/>
<path d="M212.313 93.9267H263.024" stroke="white" stroke-width="2.16" stroke-linecap="round" stroke-linejoin="round"/>
<path d="M212.313 98.1986H263.024" stroke="white" stroke-width="2.16" stroke-linecap="round" stroke-linejoin="round"/>
<path d="M207.258 89.5113H190.402V98.8719H207.258V89.5113Z" stroke="white" stroke-width="2.16" stroke-linejoin="round"/>
<path d="M436.34 22.9049H352.393V214.787H436.34V22.9049Z" stroke="white" stroke-width="2.16" stroke-linejoin="round"/>
<path d="M353.021 39.2971H436.969" stroke="white" stroke-width="2.16" stroke-linejoin="round"/>
<path d="M430.159 27.2872H357.525V33.546H430.159V27.2872Z" stroke="white" stroke-width="2.16" stroke-linejoin="round"/>
<path d="M376.357 33.1487V27.2872" stroke="white" stroke-width="2.16" stroke-linejoin="round"/>
<path d="M394.372 33.1487V27.2872" stroke="white" stroke-width="2.16" stroke-linejoin="round"/>
<path d="M411.791 33.546V27.6846" stroke="white" stroke-width="2.16" stroke-linejoin="round"/>
<path d="M376.832 76.7397C386.178 76.7397 393.754 69.1635 393.754 59.8177C393.754 50.4719 386.178 42.8957 376.832 42.8957C367.486 42.8957 359.91 50.4719 359.91 59.8177C359.91 69.1635 367.486 76.7397 376.832 76.7397Z" stroke="white" stroke-width="2.16" stroke-linejoin="round"/>
<path d="M376.832 66.9596C380.777 66.9596 383.974 63.7621 383.974 59.8177C383.974 55.8733 380.777 52.6758 376.832 52.6758C372.888 52.6758 369.69 55.8733 369.69 59.8177C369.69 63.7621 372.888 66.9596 376.832 66.9596Z" stroke="white" stroke-width="2.16" stroke-linejoin="round"/>
<path d="M411.912 76.7397C421.258 76.7397 428.834 69.1635 428.834 59.8177C428.834 50.4719 421.258 42.8957 411.912 42.8957C402.567 42.8957 394.99 50.4719 394.99 59.8177C394.99 69.1635 402.567 76.7397 411.912 76.7397Z" stroke="white" stroke-width="2.16" stroke-linejoin="round"/>
<path d="M411.912 66.9596C415.857 66.9596 419.054 63.7621 419.054 59.8177C419.054 55.8733 415.857 52.6758 411.912 52.6758C407.968 52.6758 404.771 55.8733 404.771 59.8177C404.771 63.7621 407.968 66.9596 411.912 66.9596Z" stroke="white" stroke-width="2.16" stroke-linejoin="round"/>
<path d="M435.943 82.6453H352.393V106.776H435.943V82.6453Z" stroke="white" stroke-width="2.16" stroke-linejoin="round"/>
<path d="M423.183 106.764H404.991V214.776H423.183V106.764Z" stroke="white" stroke-width="2.16" stroke-linejoin="round"/>
<path d="M389.129 106.764H370.938V214.776H389.129V106.764Z" stroke="white" stroke-width="2.16" stroke-linejoin="round"/>
<path d="M380.231 89.6437H430.942" stroke="white" stroke-width="2.16" stroke-linecap="round" stroke-linejoin="round"/>
<path d="M380.033 93.9267H430.733" stroke="white" stroke-width="2.16" stroke-linecap="round" stroke-linejoin="round"/>
<path d="M380.033 98.1986H430.733" stroke="white" stroke-width="2.16" stroke-linecap="round" stroke-linejoin="round"/>
<path d="M374.966 89.5113H358.11V98.8719H374.966V89.5113Z" stroke="white" stroke-width="2.16" stroke-linejoin="round"/>
<path d="M341.818 48.3376H277.706V70.6023H341.818V48.3376Z" stroke="white" stroke-width="2.16" stroke-linejoin="round"/>
<path d="M341.818 138.721H277.706V149.053H341.818V138.721Z" stroke="white" stroke-width="2.16" stroke-linejoin="round"/>
<path d="M341.818 154.528H277.706V164.86H341.818V154.528Z" stroke="white" stroke-width="2.16" stroke-linejoin="round"/>
<path d="M287.265 82.3694H277.706V91.9287H287.265V82.3694Z" stroke="white" stroke-width="2.16" stroke-linejoin="round"/>
<path d="M301.394 82.3694H291.835V91.9287H301.394V82.3694Z" stroke="white" stroke-width="2.16" stroke-linejoin="round"/>
<path d="M287.265 95.9026H277.706V105.462H287.265V95.9026Z" stroke="white" stroke-width="2.16" stroke-linejoin="round"/>
<path d="M301.394 95.9026H291.835V105.462H301.394V95.9026Z" stroke="white" stroke-width="2.16" stroke-linejoin="round"/>
<path d="M306.45 83.2414H341.807" stroke="white" stroke-width="2.16" stroke-linecap="round" stroke-linejoin="round"/>
<path d="M306.45 90.6482H341.807" stroke="white" stroke-width="2.16" stroke-linecap="round" stroke-linejoin="round"/>
<path d="M306.45 98.0551H341.807" stroke="white" stroke-width="2.16" stroke-linecap="round" stroke-linejoin="round"/>
<path d="M306.45 105.473H341.807" stroke="white" stroke-width="2.16" stroke-linecap="round" stroke-linejoin="round"/>
<path d="M277.706 178.846H341.807" stroke="white" stroke-width="2.16" stroke-linecap="round" stroke-linejoin="round"/>
<path d="M277.706 186.33H341.807" stroke="white" stroke-width="2.16" stroke-linecap="round" stroke-linejoin="round"/>
<path d="M277.706 194.079H341.807" stroke="white" stroke-width="2.16" stroke-linecap="round" stroke-linejoin="round"/>
<path d="M277.706 202.744H341.807" stroke="white" stroke-width="2.16" stroke-linecap="round" stroke-linejoin="round"/>
<path d="M352.392 22.9049H268.444V214.787H352.392V22.9049Z" stroke="white" stroke-width="2.16" stroke-linejoin="round"/>
<path d="M267.782 39.2971H351.73" stroke="white" stroke-width="2.16" stroke-linejoin="round"/>
<path d="M282.387 126.435C284.874 126.435 286.89 124.419 286.89 121.931C286.89 119.444 284.874 117.428 282.387 117.428C279.899 117.428 277.883 119.444 277.883 121.931C277.883 124.419 279.899 126.435 282.387 126.435Z" stroke="white" stroke-width="2.16" stroke-linejoin="round"/>
<path d="M296.195 126.435C298.682 126.435 300.699 124.419 300.699 121.931C300.699 119.444 298.682 117.428 296.195 117.428C293.708 117.428 291.691 119.444 291.691 121.931C291.691 124.419 293.708 126.435 296.195 126.435Z" stroke="white" stroke-width="2.16" stroke-linejoin="round"/>
<path d="M310.005 126.435C312.492 126.435 314.508 124.419 314.508 121.931C314.508 119.444 312.492 117.428 310.005 117.428C307.517 117.428 305.501 119.444 305.501 121.931C305.501 124.419 307.517 126.435 310.005 126.435Z" stroke="white" stroke-width="2.16" stroke-linejoin="round"/>
<path d="M323.813 126.435C326.301 126.435 328.317 124.419 328.317 121.931C328.317 119.444 326.301 117.428 323.813 117.428C321.326 117.428 319.31 119.444 319.31 121.931C319.31 124.419 321.326 126.435 323.813 126.435Z" stroke="white" stroke-width="2.16" stroke-linejoin="round"/>
<path d="M337.623 126.435C340.11 126.435 342.127 124.419 342.127 121.931C342.127 119.444 340.11 117.428 337.623 117.428C335.136 117.428 333.119 119.444 333.119 121.931C333.119 124.419 335.136 126.435 337.623 126.435Z" stroke="white" stroke-width="2.16" stroke-linejoin="round"/>
<path d="M346.067 27.5852H273.434V33.546H346.067V27.5852Z" stroke="white" stroke-width="2.16" stroke-linejoin="round"/>
<path d="M292.276 33.1597V27.5852" stroke="white" stroke-width="2.16" stroke-linejoin="round"/>
<path d="M310.28 33.1597V27.5852" stroke="white" stroke-width="2.16" stroke-linejoin="round"/>
<path d="M327.699 33.546V27.9716" stroke="white" stroke-width="2.16" stroke-linejoin="round"/>
<path d="M397.123 545.629C397.123 513.397 423.395 487.125 455.627 487.125C487.86 487.125 514.131 513.397 514.131 545.629C514.131 577.861 487.86 604.133 455.627 604.133C423.395 604.133 397.123 577.861 397.123 545.629ZM511.924 545.629C511.924 514.611 486.645 489.333 455.627 489.333C424.609 489.333 399.331 514.611 399.331 545.629C399.331 576.647 424.609 601.925 455.627 601.925C486.645 601.925 511.924 576.647 511.924 545.629ZM426.044 552.142L431.894 543.532C434.875 539.116 439.18 537.35 443.485 537.35C447.79 537.35 452.536 539.227 455.517 543.532L457.504 546.402C460.043 550.155 464.016 551.7 467.77 551.7C471.523 551.7 474.945 550.265 477.594 546.402L483.444 537.792C483.665 537.461 483.996 537.35 484.327 537.35C485.321 537.35 485.652 538.454 485.21 539.116L479.36 547.726C476.38 552.142 472.075 553.908 467.77 553.908C463.464 553.908 458.718 552.031 455.738 547.726L453.751 544.856C451.212 541.103 447.238 539.558 443.485 539.558C439.732 539.558 436.31 540.993 433.66 544.856L427.81 553.466C427.589 553.798 427.258 553.908 426.927 553.908C425.934 553.908 425.602 552.804 426.044 552.142Z" fill="white"/>
<path d="M249.459 287.034H195.216V438.726H249.459V287.034Z" stroke="white" stroke-width="2.16" stroke-linejoin="round"/>
<path d="M207.292 314.951C209.243 314.951 210.824 313.369 210.824 311.418C210.824 309.468 209.243 307.886 207.292 307.886C205.341 307.886 203.76 309.468 203.76 311.418C203.76 313.369 205.341 314.951 207.292 314.951Z" stroke="white" stroke-width="2.16" stroke-linejoin="round"/>
<path d="M217.801 314.951C219.752 314.951 221.333 313.369 221.333 311.418C221.333 309.468 219.752 307.886 217.801 307.886C215.85 307.886 214.269 309.468 214.269 311.418C214.269 313.369 215.85 314.951 217.801 314.951Z" stroke="white" stroke-width="2.16" stroke-linejoin="round"/>
<path d="M228.298 314.918C230.249 314.918 231.83 313.336 231.83 311.385C231.83 309.434 230.249 307.853 228.298 307.853C226.347 307.853 224.766 309.434 224.766 311.385C224.766 313.336 226.347 314.918 228.298 314.918Z" stroke="white" stroke-width="2.16" stroke-linejoin="round"/>
<path d="M221.389 385.288C223.717 385.288 225.605 383.4 225.605 381.071C225.605 378.743 223.717 376.855 221.389 376.855C219.06 376.855 217.172 378.743 217.172 381.071C217.172 383.4 219.06 385.288 221.389 385.288Z" stroke="white" stroke-width="2.16" stroke-linejoin="round"/>
<path d="M221.388 403.667C222.552 403.667 223.496 402.723 223.496 401.559C223.496 400.394 222.552 399.451 221.388 399.451C220.223 399.451 219.279 400.394 219.279 401.559C219.279 402.723 220.223 403.667 221.388 403.667Z" stroke="white" stroke-width="2.16" stroke-linejoin="round"/>
<path d="M221.388 412.288C227.313 412.288 232.117 407.485 232.117 401.559C232.117 395.633 227.313 390.829 221.388 390.829C215.462 390.829 210.658 395.633 210.658 401.559C210.658 407.485 215.462 412.288 221.388 412.288Z" stroke="white" stroke-width="2.16" stroke-linejoin="round"/>
<path d="M238.807 314.918C240.758 314.918 242.339 313.336 242.339 311.385C242.339 309.434 240.758 307.853 238.807 307.853C236.856 307.853 235.274 309.434 235.274 311.385C235.274 313.336 236.856 314.918 238.807 314.918Z" stroke="white" stroke-width="2.16" stroke-linejoin="round"/>
<path d="M203.76 330.99H241.269" stroke="white" stroke-width="2.16" stroke-linecap="round" stroke-linejoin="round"/>
<path d="M195.216 299.729H249.459" stroke="white" stroke-width="2.16" stroke-linecap="round" stroke-linejoin="round"/>
<path d="M195.293 431.164H249.536" stroke="white" stroke-width="2.16" stroke-linecap="round" stroke-linejoin="round"/>
<path d="M203.76 338.341H241.269" stroke="white" stroke-width="2.16" stroke-linecap="round" stroke-linejoin="round"/>
<path d="M203.76 345.693H241.269" stroke="white" stroke-width="2.16" stroke-linecap="round" stroke-linejoin="round"/>
<path d="M390.917 287.034H269.935C266.887 287.034 264.416 289.505 264.416 292.554V380.387C264.416 383.435 266.887 385.906 269.935 385.906H390.917C393.966 385.906 396.437 383.435 396.437 380.387V292.554C396.437 289.505 393.966 287.034 390.917 287.034Z" stroke="white" stroke-width="2.16" stroke-linejoin="round"/>
<path d="M389.118 295.313H271.745V373.08H389.118V295.313Z" stroke="white" stroke-width="2.16" stroke-linejoin="round"/>
<path d="M320.734 385.906L312.919 400.698H347.944L340.46 385.906H320.734Z" stroke="white" stroke-width="2.16" stroke-linejoin="round"/>
<path d="M302.433 400.698H358.431" stroke="white" stroke-width="2.16" stroke-linecap="round" stroke-linejoin="round"/>
<path d="M316.374 380.001H344.489" stroke="white" stroke-width="2.16" stroke-linecap="round" stroke-linejoin="round"/>
<path d="M266.768 433.041L278.248 408.866H330.349H381.59L394.097 433.041H266.768Z" stroke="white" stroke-width="2.16" stroke-linecap="round" stroke-linejoin="round"/>
<path d="M266.768 433.041V438.726H394.097V433.041" stroke="white" stroke-width="2.16" stroke-linecap="round" stroke-linejoin="round"/>
<path d="M281.868 414.662H290.28" stroke="white" stroke-width="2.16" stroke-linecap="round" stroke-linejoin="round"/>
<path d="M296.439 414.662H304.862" stroke="white" stroke-width="2.16" stroke-linecap="round" stroke-linejoin="round"/>
<path d="M289.021 420.954H297.444" stroke="white" stroke-width="2.16" stroke-linecap="round" stroke-linejoin="round"/>
<path d="M303.857 420.954H312.269" stroke="white" stroke-width="2.16" stroke-linecap="round" stroke-linejoin="round"/>
<path d="M318.561 420.954H326.972" stroke="white" stroke-width="2.16" stroke-linecap="round" stroke-linejoin="round"/>
<path d="M369.315 414.662H377.727" stroke="white" stroke-width="2.16" stroke-linecap="round" stroke-linejoin="round"/>
<path d="M333.385 420.954H341.807" stroke="white" stroke-width="2.16" stroke-linecap="round" stroke-linejoin="round"/>
<path d="M348.221 420.954H356.632" stroke="white" stroke-width="2.16" stroke-linecap="round" stroke-linejoin="round"/>
<path d="M362.924 420.954H371.335" stroke="white" stroke-width="2.16" stroke-linecap="round" stroke-linejoin="round"/>
<path d="M376.436 420.954H382.198" stroke="white" stroke-width="2.16" stroke-linecap="round" stroke-linejoin="round"/>
<path d="M277.397 420.954H283.16" stroke="white" stroke-width="2.16" stroke-linecap="round" stroke-linejoin="round"/>
<path d="M354.744 414.662H363.155" stroke="white" stroke-width="2.16" stroke-linecap="round" stroke-linejoin="round"/>
<path d="M340.163 414.662H348.585" stroke="white" stroke-width="2.16" stroke-linecap="round" stroke-linejoin="round"/>
<path d="M325.592 414.662H334.003" stroke="white" stroke-width="2.16" stroke-linecap="round" stroke-linejoin="round"/>
<path d="M311.021 414.662H319.432" stroke="white" stroke-width="2.16" stroke-linecap="round" stroke-linejoin="round"/>
<path d="M281.868 426.992H290.28" stroke="white" stroke-width="2.16" stroke-linecap="round" stroke-linejoin="round"/>
<path d="M296.439 426.992H304.862" stroke="white" stroke-width="2.16" stroke-linecap="round" stroke-linejoin="round"/>
<path d="M369.315 426.992H377.727" stroke="white" stroke-width="2.16" stroke-linecap="round" stroke-linejoin="round"/>
<path d="M354.744 426.992H363.155" stroke="white" stroke-width="2.16" stroke-linecap="round" stroke-linejoin="round"/>
<path d="M340.163 426.992H348.585" stroke="white" stroke-width="2.16" stroke-linecap="round" stroke-linejoin="round"/>
<path d="M325.592 426.992H334.003" stroke="white" stroke-width="2.16" stroke-linecap="round" stroke-linejoin="round"/>
<path d="M311.021 426.992H319.432" stroke="white" stroke-width="2.16" stroke-linecap="round" stroke-linejoin="round"/>
<path d="M427.642 430.171C426.351 424.651 422.576 419.993 417.366 417.752C415.423 416.925 414.716 417.013 413.756 417.013H405.168C402.453 417.355 400.3 420.313 401.879 422.885L406.967 431.186C407.574 432.18 408.645 432.776 409.804 432.776H426.561C428.636 432.776 427.642 430.171 427.642 430.171Z" stroke="white" stroke-width="2.16" stroke-linecap="round" stroke-linejoin="round"/>
<path d="M415.158 424.894C413.182 419.441 409.054 417.013 409.054 417.013" stroke="white" stroke-width="2.16" stroke-linecap="round" stroke-linejoin="round"/>
<path d="M401.304 420.998L401.183 429.243L407.066 438.77H427.874V431.528" stroke="white" stroke-width="2.16" stroke-linecap="round" stroke-linejoin="round"/>
<path d="M407.685 432.434V438.416" stroke="white" stroke-width="2.16" stroke-linecap="round" stroke-linejoin="round"/>
<path d="M405.157 417.013C400.09 417.013 392.021 401.78 409.054 397.629C430.336 392.441 428.923 373.091 397.816 373.091" stroke="white" stroke-width="2.16" stroke-linecap="round" stroke-linejoin="round"/>
<path d="M169.871 572.457H155.013" stroke="white" stroke-width="2.16" stroke-linejoin="round"/>
<path d="M106.068 572.457H100.516C88.6386 572.457 78.2624 563.715 77.004 551.914C75.7346 539.982 83.5719 529.639 94.4338 526.978C95.3058 526.769 95.9019 525.93 95.8357 525.036C94.1468 505.155 109.998 504.074 115.484 504.659C116.4 504.758 117.272 504.173 117.482 503.279C121.026 488.752 134.128 477.967 149.748 477.967C161.824 477.967 172.388 484.414 178.205 494.04C178.658 494.801 179.563 495.154 180.402 494.889C222.282 481.908 223.595 516.172 223.242 524.572C223.198 525.543 223.904 526.382 224.865 526.515C236.157 528.016 244.867 537.675 244.867 549.387C244.867 561.562 235.44 571.541 223.474 572.402C222.922 572.446 222.359 572.468 221.796 572.468H189.354" stroke="white" stroke-width="2.16" stroke-linejoin="round"/>
<path d="M141.711 556.087L125.032 582.27" stroke="white" stroke-width="2.16" stroke-linejoin="round"/>
<path d="M120.849 588.827L113.84 599.811" stroke="white" stroke-width="2.16" stroke-linejoin="round"/>
<path d="M112.647 575.978L104.137 589.335" stroke="white" stroke-width="2.16" stroke-linejoin="round"/>
<path d="M125.32 556.087L116.677 569.653" stroke="white" stroke-width="2.16" stroke-linejoin="round"/>
<path d="M145.432 575.978L136.91 589.335" stroke="white" stroke-width="2.16" stroke-linejoin="round"/>
<path d="M158.104 556.087L149.45 569.653" stroke="white" stroke-width="2.16" stroke-linejoin="round"/>
<path d="M178.944 556.087L160.863 588.695L176.527 588.297L166.879 612.273L198.913 579.831L185.17 579.621L198.913 556.087H178.944Z" stroke="white" stroke-width="2.16" stroke-linejoin="round"/>
<path d="M160.864 518.7C170.252 518.7 177.863 516.752 177.863 514.35C177.863 511.948 170.252 510.001 160.864 510.001C151.475 510.001 143.864 511.948 143.864 514.35C143.864 516.752 151.475 518.7 160.864 518.7Z" stroke="white" stroke-width="2.16" stroke-miterlimit="10"/>
<path d="M177.863 521.746C177.863 524.517 170.246 526.758 160.864 526.758C151.47 526.758 143.864 524.517 143.864 521.746" stroke="white" stroke-width="2.16" stroke-miterlimit="10"/>
<path d="M177.863 529.628C177.863 532.398 170.246 534.639 160.864 534.639C151.47 534.639 143.864 532.398 143.864 529.628" stroke="white" stroke-width="2.16" stroke-miterlimit="10"/>
<path d="M143.864 514.35V537.509C143.864 540.28 151.481 542.521 160.864 542.521C170.257 542.521 177.863 540.28 177.863 537.509V514.35" stroke="white" stroke-width="2.16" stroke-miterlimit="10"/>
<path d="M154.693 523.81C155.424 523.81 156.017 523.217 156.017 522.486C156.017 521.754 155.424 521.161 154.693 521.161C153.961 521.161 153.368 521.754 153.368 522.486C153.368 523.217 153.961 523.81 154.693 523.81Z" fill="white"/>
<path d="M160.996 523.81C161.727 523.81 162.32 523.217 162.32 522.486C162.32 521.754 161.727 521.161 160.996 521.161C160.264 521.161 159.671 521.754 159.671 522.486C159.671 523.217 160.264 523.81 160.996 523.81Z" fill="white"/>
<path d="M167.288 523.81C168.019 523.81 168.612 523.217 168.612 522.486C168.612 521.754 168.019 521.161 167.288 521.161C166.556 521.161 165.963 521.754 165.963 522.486C165.963 523.217 166.556 523.81 167.288 523.81Z" fill="white"/>
<path d="M154.693 531.88C155.424 531.88 156.017 531.286 156.017 530.555C156.017 529.823 155.424 529.23 154.693 529.23C153.961 529.23 153.368 529.823 153.368 530.555C153.368 531.286 153.961 531.88 154.693 531.88Z" fill="white"/>
<path d="M160.996 531.88C161.727 531.88 162.32 531.286 162.32 530.555C162.32 529.823 161.727 529.23 160.996 529.23C160.264 529.23 159.671 529.823 159.671 530.555C159.671 531.286 160.264 531.88 160.996 531.88Z" fill="white"/>
<path d="M167.288 531.88C168.019 531.88 168.612 531.286 168.612 530.555C168.612 529.823 168.019 529.23 167.288 529.23C166.556 529.23 165.963 529.823 165.963 530.555C165.963 531.286 166.556 531.88 167.288 531.88Z" fill="white"/>
<path d="M154.693 539.728C155.424 539.728 156.017 539.135 156.017 538.403C156.017 537.672 155.424 537.079 154.693 537.079C153.961 537.079 153.368 537.672 153.368 538.403C153.368 539.135 153.961 539.728 154.693 539.728Z" fill="white"/>
<path d="M160.996 539.728C161.727 539.728 162.32 539.135 162.32 538.403C162.32 537.672 161.727 537.079 160.996 537.079C160.264 537.079 159.671 537.672 159.671 538.403C159.671 539.135 160.264 539.728 160.996 539.728Z" fill="white"/>
<path d="M167.288 539.728C168.019 539.728 168.612 539.135 168.612 538.403C168.612 537.672 168.019 537.079 167.288 537.079C166.556 537.079 165.963 537.672 165.963 538.403C165.963 539.135 166.556 539.728 167.288 539.728Z" fill="white"/>
</g>
<path d="M458.926 1.10385V182.389C458.926 332.491 531.78 465.384 606.29 562.037L653.49 531.35L567.269 737.715L347.028 682.743L400.09 663.933C369.988 627.341 339.224 585.858 310.314 539.971C276.989 592.613 241.268 639.406 206.961 679.619L1.14767 578.153L1.10352 578.341C80.3711 480.506 163.049 340.13 163.049 180.237V1.10385H458.926Z" stroke="white" stroke-width="2" stroke-linejoin="round"/>
</g>
<defs>
<clipPath id="clip0_2289_521">
<rect width="654.595" height="745" fill="white"/>
</clipPath>
</defs>
</svg>
