<svg width="659" height="502" viewBox="0 0 659 502" fill="none" xmlns="http://www.w3.org/2000/svg">
<path d="M219.748 1H1V501H219.748V1Z" stroke="#AAE68C" stroke-width="2" stroke-linejoin="round"/>
<path d="M2.63989 43.7142H221.388" stroke="#AAE68C" stroke-width="2" stroke-linejoin="round"/>
<path d="M203.64 12.4192H14.3748V28.7283H203.64V12.4192Z" stroke="#AAE68C" stroke-width="2" stroke-linejoin="round"/>
<path d="M63.4458 27.6928V12.4192" stroke="#AAE68C" stroke-width="2" stroke-linejoin="round"/>
<path d="M110.388 27.6928V12.4192" stroke="#AAE68C" stroke-width="2" stroke-linejoin="round"/>
<path d="M155.778 28.7283V13.4835" stroke="#AAE68C" stroke-width="2" stroke-linejoin="round"/>
<path d="M64.6541 141.281C89.007 141.281 108.749 121.539 108.749 97.1859C108.749 72.833 89.007 53.0911 64.6541 53.0911C40.3012 53.0911 20.5593 72.833 20.5593 97.1859C20.5593 121.539 40.3012 141.281 64.6541 141.281Z" stroke="#AAE68C" stroke-width="2" stroke-linejoin="round"/>
<path d="M64.6546 115.796C74.9327 115.796 83.2647 107.464 83.2647 97.1858C83.2647 86.9077 74.9327 78.5757 64.6546 78.5757C54.3765 78.5757 46.0444 86.9077 46.0444 97.1858C46.0444 107.464 54.3765 115.796 64.6546 115.796Z" stroke="#AAE68C" stroke-width="2" stroke-linejoin="round"/>
<path d="M156.094 141.281C180.447 141.281 200.189 121.539 200.189 97.1859C200.189 72.833 180.447 53.0911 156.094 53.0911C131.741 53.0911 111.999 72.833 111.999 97.1859C111.999 121.539 131.741 141.281 156.094 141.281Z" stroke="#AAE68C" stroke-width="2" stroke-linejoin="round"/>
<path d="M156.095 115.796C166.373 115.796 174.705 107.464 174.705 97.1858C174.705 86.9077 166.373 78.5757 156.095 78.5757C145.816 78.5757 137.484 86.9077 137.484 97.1858C137.484 107.464 145.816 115.796 156.095 115.796Z" stroke="#AAE68C" stroke-width="2" stroke-linejoin="round"/>
<path d="M218.713 156.669H1V219.547H218.713V156.669Z" stroke="#AAE68C" stroke-width="2" stroke-linejoin="round"/>
<path d="M185.433 219.547H138.03V501H185.433V219.547Z" stroke="#AAE68C" stroke-width="2" stroke-linejoin="round"/>
<path d="M96.6968 219.547H49.2942V501H96.6968V219.547Z" stroke="#AAE68C" stroke-width="2" stroke-linejoin="round"/>
<path d="M73.542 174.906H205.683" stroke="#AAE68C" stroke-width="2" stroke-linecap="round" stroke-linejoin="round"/>
<path d="M72.9958 186.066H205.136" stroke="#AAE68C" stroke-width="2" stroke-linecap="round" stroke-linejoin="round"/>
<path d="M72.9958 197.226H205.136" stroke="#AAE68C" stroke-width="2" stroke-linecap="round" stroke-linejoin="round"/>
<path d="M59.8216 174.56H15.8994V198.952H59.8216V174.56Z" stroke="#AAE68C" stroke-width="2" stroke-linejoin="round"/>
<path d="M656.784 1H438.036V501H656.784V1Z" stroke="#AAE68C" stroke-width="2" stroke-linejoin="round"/>
<path d="M439.647 43.7142H658.395" stroke="#AAE68C" stroke-width="2" stroke-linejoin="round"/>
<path d="M640.647 12.4192H451.382V28.7283H640.647V12.4192Z" stroke="#AAE68C" stroke-width="2" stroke-linejoin="round"/>
<path d="M500.482 27.6928V12.4192" stroke="#AAE68C" stroke-width="2" stroke-linejoin="round"/>
<path d="M547.396 27.6928V12.4192" stroke="#AAE68C" stroke-width="2" stroke-linejoin="round"/>
<path d="M592.785 28.7283V13.4835" stroke="#AAE68C" stroke-width="2" stroke-linejoin="round"/>
<path d="M501.69 141.281C526.043 141.281 545.785 121.539 545.785 97.1859C545.785 72.833 526.043 53.0911 501.69 53.0911C477.337 53.0911 457.595 72.833 457.595 97.1859C457.595 121.539 477.337 141.281 501.69 141.281Z" stroke="#AAE68C" stroke-width="2" stroke-linejoin="round"/>
<path d="M501.691 115.796C511.969 115.796 520.301 107.464 520.301 97.1858C520.301 86.9077 511.969 78.5757 501.691 78.5757C491.413 78.5757 483.081 86.9077 483.081 97.1858C483.081 107.464 491.413 115.796 501.691 115.796Z" stroke="#AAE68C" stroke-width="2" stroke-linejoin="round"/>
<path d="M593.101 141.281C617.454 141.281 637.196 121.539 637.196 97.1859C637.196 72.833 617.454 53.0911 593.101 53.0911C568.749 53.0911 549.007 72.833 549.007 97.1859C549.007 121.539 568.749 141.281 593.101 141.281Z" stroke="#AAE68C" stroke-width="2" stroke-linejoin="round"/>
<path d="M593.102 115.796C603.38 115.796 611.712 107.464 611.712 97.1858C611.712 86.9077 603.38 78.5757 593.102 78.5757C582.824 78.5757 574.492 86.9077 574.492 97.1858C574.492 107.464 582.824 115.796 593.102 115.796Z" stroke="#AAE68C" stroke-width="2" stroke-linejoin="round"/>
<path d="M655.749 156.669H438.036V219.547H655.749V156.669Z" stroke="#AAE68C" stroke-width="2" stroke-linejoin="round"/>
<path d="M622.469 219.547H575.066V501H622.469V219.547Z" stroke="#AAE68C" stroke-width="2" stroke-linejoin="round"/>
<path d="M533.733 219.547H486.33V501H533.733V219.547Z" stroke="#AAE68C" stroke-width="2" stroke-linejoin="round"/>
<path d="M510.549 174.906H642.69" stroke="#AAE68C" stroke-width="2" stroke-linecap="round" stroke-linejoin="round"/>
<path d="M510.031 186.066H642.143" stroke="#AAE68C" stroke-width="2" stroke-linecap="round" stroke-linejoin="round"/>
<path d="M510.031 197.226H642.143" stroke="#AAE68C" stroke-width="2" stroke-linecap="round" stroke-linejoin="round"/>
<path d="M496.829 174.56H452.907V198.952H496.829V174.56Z" stroke="#AAE68C" stroke-width="2" stroke-linejoin="round"/>
<path d="M410.451 67.3004H243.391V125.317H410.451V67.3004Z" stroke="#AAE68C" stroke-width="2" stroke-linejoin="round"/>
<path d="M410.451 302.789H243.391V329.712H410.451V302.789Z" stroke="#AAE68C" stroke-width="2" stroke-linejoin="round"/>
<path d="M410.451 343.979H243.391V370.902H410.451V343.979Z" stroke="#AAE68C" stroke-width="2" stroke-linejoin="round"/>
<path d="M268.301 155.979H243.391V180.888H268.301V155.979Z" stroke="#AAE68C" stroke-width="2" stroke-linejoin="round"/>
<path d="M305.118 155.979H280.209V180.888H305.118V155.979Z" stroke="#AAE68C" stroke-width="2" stroke-linejoin="round"/>
<path d="M268.301 191.243H243.391V216.153H268.301V191.243Z" stroke="#AAE68C" stroke-width="2" stroke-linejoin="round"/>
<path d="M305.118 191.243H280.209V216.153H305.118V191.243Z" stroke="#AAE68C" stroke-width="2" stroke-linejoin="round"/>
<path d="M318.292 158.223H410.451" stroke="#AAE68C" stroke-width="2" stroke-linecap="round" stroke-linejoin="round"/>
<path d="M318.292 177.523H410.451" stroke="#AAE68C" stroke-width="2" stroke-linecap="round" stroke-linejoin="round"/>
<path d="M318.292 196.852H410.451" stroke="#AAE68C" stroke-width="2" stroke-linecap="round" stroke-linejoin="round"/>
<path d="M318.292 216.153H410.451" stroke="#AAE68C" stroke-width="2" stroke-linecap="round" stroke-linejoin="round"/>
<path d="M243.391 407.345H410.451" stroke="#AAE68C" stroke-width="2" stroke-linecap="round" stroke-linejoin="round"/>
<path d="M243.391 426.876H410.451" stroke="#AAE68C" stroke-width="2" stroke-linecap="round" stroke-linejoin="round"/>
<path d="M243.391 447.039H410.451" stroke="#AAE68C" stroke-width="2" stroke-linecap="round" stroke-linejoin="round"/>
<path d="M243.391 469.648H410.451" stroke="#AAE68C" stroke-width="2" stroke-linecap="round" stroke-linejoin="round"/>
<path d="M438.007 1H219.259V501H438.007V1Z" stroke="#AAE68C" stroke-width="2" stroke-linejoin="round"/>
<path d="M217.533 43.7142H436.281" stroke="#AAE68C" stroke-width="2" stroke-linejoin="round"/>
<path d="M255.616 270.775C262.097 270.775 267.351 265.521 267.351 259.039C267.351 252.558 262.097 247.304 255.616 247.304C249.134 247.304 243.88 252.558 243.88 259.039C243.88 265.521 249.134 270.775 255.616 270.775Z" fill="#AAE68C" stroke="#AAE68C" stroke-width="2" stroke-linejoin="round"/>
<path d="M291.57 270.775C298.052 270.775 303.306 265.521 303.306 259.039C303.306 252.558 298.052 247.304 291.57 247.304C285.089 247.304 279.835 252.558 279.835 259.039C279.835 265.521 285.089 270.775 291.57 270.775Z" fill="#AAE68C" stroke="#AAE68C" stroke-width="2" stroke-linejoin="round"/>
<path d="M327.554 270.775C334.035 270.775 339.289 265.521 339.289 259.039C339.289 252.558 334.035 247.304 327.554 247.304C321.072 247.304 315.818 252.558 315.818 259.039C315.818 265.521 321.072 270.775 327.554 270.775Z" fill="#AAE68C" stroke="#AAE68C" stroke-width="2" stroke-linejoin="round"/>
<path d="M363.537 270.775C370.018 270.775 375.273 265.521 375.273 259.039C375.273 252.558 370.018 247.304 363.537 247.304C357.056 247.304 351.802 252.558 351.802 259.039C351.802 265.521 357.056 270.775 363.537 270.775Z" fill="#AAE68C" stroke="#AAE68C" stroke-width="2" stroke-linejoin="round"/>
<path d="M399.521 270.775C406.002 270.775 411.256 265.521 411.256 259.039C411.256 252.558 406.002 247.304 399.521 247.304C393.039 247.304 387.785 252.558 387.785 259.039C387.785 265.521 393.039 270.775 399.521 270.775Z" fill="#AAE68C" stroke="#AAE68C" stroke-width="2" stroke-linejoin="round"/>
<path d="M421.526 13.2246H232.26V28.757H421.526V13.2246Z" stroke="#AAE68C" stroke-width="2" stroke-linejoin="round"/>
<path d="M281.359 27.7503V13.2246" stroke="#AAE68C" stroke-width="2" stroke-linejoin="round"/>
<path d="M328.273 27.7503V13.2246" stroke="#AAE68C" stroke-width="2" stroke-linejoin="round"/>
<path d="M373.662 28.7283V14.2314" stroke="#AAE68C" stroke-width="2" stroke-linejoin="round"/>
</svg>
