<svg width="1076" height="721" viewBox="0 0 1076 721" fill="none" xmlns="http://www.w3.org/2000/svg">
<g clip-path="url(#clip0_2316_232)">
<path d="M139.06 55.3575H55.3799V246.551H139.06V55.3575Z" stroke="white" stroke-width="2" stroke-linejoin="round"/>
<path d="M55.9961 71.6908H139.676" stroke="white" stroke-width="2" stroke-linejoin="round"/>
<path d="M132.898 59.724H60.4961V65.9604H132.898V59.724Z" stroke="white" stroke-width="2" stroke-linejoin="round"/>
<path d="M79.2676 65.5644V59.724" stroke="white" stroke-width="2" stroke-linejoin="round"/>
<path d="M97.2256 65.5644V59.724" stroke="white" stroke-width="2" stroke-linejoin="round"/>
<path d="M114.589 65.9714V60.131" stroke="white" stroke-width="2" stroke-linejoin="round"/>
<path d="M79.7303 108.999C89.0463 108.999 96.5984 101.45 96.5984 92.1378C96.5984 82.8255 89.0463 75.2765 79.7303 75.2765C70.4144 75.2765 62.8623 82.8255 62.8623 92.1378C62.8623 101.45 70.4144 108.999 79.7303 108.999Z" stroke="white" stroke-width="2" stroke-linejoin="round"/>
<path d="M79.7305 99.2541C83.6622 99.2541 86.8496 96.068 86.8496 92.1378C86.8496 88.2076 83.6622 85.0215 79.7305 85.0215C75.7987 85.0215 72.6113 88.2076 72.6113 92.1378C72.6113 96.068 75.7987 99.2541 79.7305 99.2541Z" stroke="white" stroke-width="2" stroke-linejoin="round"/>
<path d="M114.71 108.999C124.026 108.999 131.578 101.45 131.578 92.1378C131.578 82.8255 124.026 75.2765 114.71 75.2765C105.394 75.2765 97.8418 82.8255 97.8418 92.1378C97.8418 101.45 105.394 108.999 114.71 108.999Z" stroke="white" stroke-width="2" stroke-linejoin="round"/>
<path d="M114.71 99.2541C118.642 99.2541 121.829 96.068 121.829 92.1378C121.829 88.2076 118.642 85.0215 114.71 85.0215C110.778 85.0215 107.591 88.2076 107.591 92.1378C107.591 96.068 110.778 99.2541 114.71 99.2541Z" stroke="white" stroke-width="2" stroke-linejoin="round"/>
<path d="M138.664 114.884H55.3799V138.927H138.664V114.884Z" stroke="white" stroke-width="2" stroke-linejoin="round"/>
<path d="M125.933 138.927H107.8V246.551H125.933V138.927Z" stroke="white" stroke-width="2" stroke-linejoin="round"/>
<path d="M91.9879 138.927H73.8545V246.551H91.9879V138.927Z" stroke="white" stroke-width="2" stroke-linejoin="round"/>
<path d="M83.1299 121.857H133.668" stroke="white" stroke-width="2" stroke-linecap="round" stroke-linejoin="round"/>
<path d="M82.9209 126.124H133.47" stroke="white" stroke-width="2" stroke-linecap="round" stroke-linejoin="round"/>
<path d="M82.9209 130.392H133.47" stroke="white" stroke-width="2" stroke-linecap="round" stroke-linejoin="round"/>
<path d="M77.8811 121.725H61.0791V131.052H77.8811V121.725Z" stroke="white" stroke-width="2" stroke-linejoin="round"/>
<path d="M306.233 55.3575H222.553V246.551H306.233V55.3575Z" stroke="white" stroke-width="2" stroke-linejoin="round"/>
<path d="M223.18 71.6908H306.86" stroke="white" stroke-width="2" stroke-linejoin="round"/>
<path d="M300.071 59.724H227.669V65.9604H300.071V59.724Z" stroke="white" stroke-width="2" stroke-linejoin="round"/>
<path d="M246.44 65.5644V59.724" stroke="white" stroke-width="2" stroke-linejoin="round"/>
<path d="M264.398 65.5644V59.724" stroke="white" stroke-width="2" stroke-linejoin="round"/>
<path d="M281.762 65.9714V60.131" stroke="white" stroke-width="2" stroke-linejoin="round"/>
<path d="M246.903 108.999C256.219 108.999 263.771 101.45 263.771 92.1378C263.771 82.8255 256.219 75.2765 246.903 75.2765C237.587 75.2765 230.035 82.8255 230.035 92.1378C230.035 101.45 237.587 108.999 246.903 108.999Z" stroke="white" stroke-width="2" stroke-linejoin="round"/>
<path d="M246.903 99.2541C250.835 99.2541 254.022 96.068 254.022 92.1378C254.022 88.2076 250.835 85.0215 246.903 85.0215C242.972 85.0215 239.784 88.2076 239.784 92.1378C239.784 96.068 242.972 99.2541 246.903 99.2541Z" stroke="white" stroke-width="2" stroke-linejoin="round"/>
<path d="M281.883 108.999C291.199 108.999 298.751 101.45 298.751 92.1378C298.751 82.8255 291.199 75.2765 281.883 75.2765C272.567 75.2765 265.015 82.8255 265.015 92.1378C265.015 101.45 272.567 108.999 281.883 108.999Z" stroke="white" stroke-width="2" stroke-linejoin="round"/>
<path d="M281.883 99.2541C285.815 99.2541 289.002 96.068 289.002 92.1378C289.002 88.2076 285.815 85.0215 281.883 85.0215C277.951 85.0215 274.764 88.2076 274.764 92.1378C274.764 96.068 277.951 99.2541 281.883 99.2541Z" stroke="white" stroke-width="2" stroke-linejoin="round"/>
<path d="M305.837 114.884H222.553V138.927H305.837V114.884Z" stroke="white" stroke-width="2" stroke-linejoin="round"/>
<path d="M293.106 138.927H274.973V246.551H293.106V138.927Z" stroke="white" stroke-width="2" stroke-linejoin="round"/>
<path d="M259.161 138.927H241.027V246.551H259.161V138.927Z" stroke="white" stroke-width="2" stroke-linejoin="round"/>
<path d="M250.303 121.857H300.852" stroke="white" stroke-width="2" stroke-linecap="round" stroke-linejoin="round"/>
<path d="M250.094 126.124H300.643" stroke="white" stroke-width="2" stroke-linecap="round" stroke-linejoin="round"/>
<path d="M250.094 130.392H300.643" stroke="white" stroke-width="2" stroke-linecap="round" stroke-linejoin="round"/>
<path d="M245.055 121.725H228.253V131.052H245.055V121.725Z" stroke="white" stroke-width="2" stroke-linejoin="round"/>
<path d="M212.001 80.7099H148.094V102.895H212.001V80.7099Z" stroke="white" stroke-width="2" stroke-linejoin="round"/>
<path d="M212.001 170.758H148.094V181.053H212.001V170.758Z" stroke="white" stroke-width="2" stroke-linejoin="round"/>
<path d="M212.001 186.508H148.094V196.803H212.001V186.508Z" stroke="white" stroke-width="2" stroke-linejoin="round"/>
<path d="M157.623 114.62H148.094V124.145H157.623V114.62Z" stroke="white" stroke-width="2" stroke-linejoin="round"/>
<path d="M171.717 114.62H162.188V124.145H171.717V114.62Z" stroke="white" stroke-width="2" stroke-linejoin="round"/>
<path d="M157.623 128.104H148.094V137.629H157.623V128.104Z" stroke="white" stroke-width="2" stroke-linejoin="round"/>
<path d="M171.717 128.104H162.188V137.629H171.717V128.104Z" stroke="white" stroke-width="2" stroke-linejoin="round"/>
<path d="M176.757 115.477H212" stroke="white" stroke-width="2" stroke-linecap="round" stroke-linejoin="round"/>
<path d="M176.757 122.858H212" stroke="white" stroke-width="2" stroke-linecap="round" stroke-linejoin="round"/>
<path d="M176.757 130.249H212" stroke="white" stroke-width="2" stroke-linecap="round" stroke-linejoin="round"/>
<path d="M176.757 137.629H212" stroke="white" stroke-width="2" stroke-linecap="round" stroke-linejoin="round"/>
<path d="M148.094 210.739H212.001" stroke="white" stroke-width="2" stroke-linecap="round" stroke-linejoin="round"/>
<path d="M148.094 218.207H212.001" stroke="white" stroke-width="2" stroke-linecap="round" stroke-linejoin="round"/>
<path d="M148.094 225.917H212.001" stroke="white" stroke-width="2" stroke-linecap="round" stroke-linejoin="round"/>
<path d="M148.094 234.563H212.001" stroke="white" stroke-width="2" stroke-linecap="round" stroke-linejoin="round"/>
<path d="M222.553 55.3575H138.873V246.551H222.553V55.3575Z" stroke="white" stroke-width="2" stroke-linejoin="round"/>
<path d="M138.213 71.6908H221.893" stroke="white" stroke-width="2" stroke-linejoin="round"/>
<path d="M152.77 158.516C155.249 158.516 157.259 156.507 157.259 154.029C157.259 151.55 155.249 149.541 152.77 149.541C150.29 149.541 148.28 151.55 148.28 154.029C148.28 156.507 150.29 158.516 152.77 158.516Z" stroke="white" stroke-width="2" stroke-linejoin="round"/>
<path d="M166.535 158.516C169.015 158.516 171.025 156.507 171.025 154.029C171.025 151.55 169.015 149.541 166.535 149.541C164.056 149.541 162.046 151.55 162.046 154.029C162.046 156.507 164.056 158.516 166.535 158.516Z" stroke="white" stroke-width="2" stroke-linejoin="round"/>
<path d="M180.3 158.516C182.779 158.516 184.789 156.507 184.789 154.029C184.789 151.55 182.779 149.541 180.3 149.541C177.82 149.541 175.811 151.55 175.811 154.029C175.811 156.507 177.82 158.516 180.3 158.516Z" stroke="white" stroke-width="2" stroke-linejoin="round"/>
<path d="M194.066 158.516C196.545 158.516 198.555 156.507 198.555 154.029C198.555 151.55 196.545 149.541 194.066 149.541C191.586 149.541 189.576 151.55 189.576 154.029C189.576 156.507 191.586 158.516 194.066 158.516Z" stroke="white" stroke-width="2" stroke-linejoin="round"/>
<path d="M207.83 158.516C210.31 158.516 212.32 156.507 212.32 154.029C212.32 151.55 210.31 149.541 207.83 149.541C205.351 149.541 203.341 151.55 203.341 154.029C203.341 156.507 205.351 158.516 207.83 158.516Z" stroke="white" stroke-width="2" stroke-linejoin="round"/>
<path d="M216.248 60.032H143.847V65.9714H216.248V60.032Z" stroke="white" stroke-width="2" stroke-linejoin="round"/>
<path d="M162.629 65.5864V60.032" stroke="white" stroke-width="2" stroke-linejoin="round"/>
<path d="M180.575 65.5864V60.032" stroke="white" stroke-width="2" stroke-linejoin="round"/>
<path d="M197.938 65.9714V60.417" stroke="white" stroke-width="2" stroke-linejoin="round"/>
<path d="M469.433 74.6385H415.363V225.785H469.433V74.6385Z" stroke="white" stroke-width="2" stroke-linejoin="round"/>
<path d="M427.412 102.466C429.356 102.466 430.933 100.89 430.933 98.9461C430.933 97.0023 429.356 95.4265 427.412 95.4265C425.467 95.4265 423.891 97.0023 423.891 98.9461C423.891 100.89 425.467 102.466 427.412 102.466Z" stroke="white" stroke-width="2" stroke-linejoin="round"/>
<path d="M437.876 102.466C439.82 102.466 441.397 100.89 441.397 98.9461C441.397 97.0023 439.82 95.4265 437.876 95.4265C435.931 95.4265 434.354 97.0023 434.354 98.9461C434.354 100.89 435.931 102.466 437.876 102.466Z" stroke="white" stroke-width="2" stroke-linejoin="round"/>
<path d="M448.351 102.422C450.296 102.422 451.872 100.846 451.872 98.9021C451.872 96.9583 450.296 95.3825 448.351 95.3825C446.407 95.3825 444.83 96.9583 444.83 98.9021C444.83 100.846 446.407 102.422 448.351 102.422Z" stroke="white" stroke-width="2" stroke-linejoin="round"/>
<path d="M441.452 172.551C443.774 172.551 445.656 170.67 445.656 168.349C445.656 166.029 443.774 164.148 441.452 164.148C439.131 164.148 437.249 166.029 437.249 168.349C437.249 170.67 439.131 172.551 441.452 172.551Z" stroke="white" stroke-width="2" stroke-linejoin="round"/>
<path d="M441.452 190.853C442.613 190.853 443.554 189.912 443.554 188.752C443.554 187.592 442.613 186.651 441.452 186.651C440.292 186.651 439.351 187.592 439.351 188.752C439.351 189.912 440.292 190.853 441.452 190.853Z" stroke="white" stroke-width="2" stroke-linejoin="round"/>
<path d="M441.452 199.443C447.359 199.443 452.147 194.657 452.147 188.752C452.147 182.848 447.359 178.061 441.452 178.061C435.545 178.061 430.757 182.848 430.757 188.752C430.757 194.657 435.545 199.443 441.452 199.443Z" stroke="white" stroke-width="2" stroke-linejoin="round"/>
<path d="M458.815 102.422C460.76 102.422 462.336 100.846 462.336 98.9021C462.336 96.9583 460.76 95.3825 458.815 95.3825C456.87 95.3825 455.294 96.9583 455.294 98.9021C455.294 100.846 456.87 102.422 458.815 102.422Z" stroke="white" stroke-width="2" stroke-linejoin="round"/>
<path d="M423.88 118.436H461.269" stroke="white" stroke-width="2" stroke-linecap="round" stroke-linejoin="round"/>
<path d="M415.363 87.2983H469.433" stroke="white" stroke-width="2" stroke-linecap="round" stroke-linejoin="round"/>
<path d="M415.451 218.251H469.521" stroke="white" stroke-width="2" stroke-linecap="round" stroke-linejoin="round"/>
<path d="M423.88 125.761H461.269" stroke="white" stroke-width="2" stroke-linecap="round" stroke-linejoin="round"/>
<path d="M423.88 133.087H461.269" stroke="white" stroke-width="2" stroke-linecap="round" stroke-linejoin="round"/>
<path d="M610.451 74.6385H489.855C486.817 74.6385 484.354 77.1007 484.354 80.138V167.656C484.354 170.694 486.817 173.156 489.855 173.156H610.451C613.49 173.156 615.953 170.694 615.953 167.656V80.138C615.953 77.1007 613.49 74.6385 610.451 74.6385Z" stroke="white" stroke-width="2" stroke-linejoin="round"/>
<path d="M608.647 82.8987H491.649V160.386H608.647V82.8987Z" stroke="white" stroke-width="2" stroke-linejoin="round"/>
<path d="M540.493 173.167L532.691 187.894H567.616L560.156 173.167H540.493Z" stroke="white" stroke-width="2" stroke-linejoin="round"/>
<path d="M522.249 187.894H578.058" stroke="white" stroke-width="2" stroke-linecap="round" stroke-linejoin="round"/>
<path d="M536.146 167.271H564.161" stroke="white" stroke-width="2" stroke-linecap="round" stroke-linejoin="round"/>
<path d="M486.687 220.121L498.13 196.033H550.065H601.143L613.62 220.121H486.687Z" stroke="white" stroke-width="2" stroke-linecap="round" stroke-linejoin="round"/>
<path d="M486.687 220.121V225.785H613.62V220.121" stroke="white" stroke-width="2" stroke-linecap="round" stroke-linejoin="round"/>
<path d="M501.739 201.808H510.135" stroke="white" stroke-width="2" stroke-linecap="round" stroke-linejoin="round"/>
<path d="M516.264 201.808H524.659" stroke="white" stroke-width="2" stroke-linecap="round" stroke-linejoin="round"/>
<path d="M508.88 208.077H517.264" stroke="white" stroke-width="2" stroke-linecap="round" stroke-linejoin="round"/>
<path d="M523.657 208.077H532.053" stroke="white" stroke-width="2" stroke-linecap="round" stroke-linejoin="round"/>
<path d="M538.314 208.077H546.699" stroke="white" stroke-width="2" stroke-linecap="round" stroke-linejoin="round"/>
<path d="M588.907 201.808H597.303" stroke="white" stroke-width="2" stroke-linecap="round" stroke-linejoin="round"/>
<path d="M553.092 208.077H561.487" stroke="white" stroke-width="2" stroke-linecap="round" stroke-linejoin="round"/>
<path d="M567.88 208.077H576.264" stroke="white" stroke-width="2" stroke-linecap="round" stroke-linejoin="round"/>
<path d="M582.536 208.077H590.921" stroke="white" stroke-width="2" stroke-linecap="round" stroke-linejoin="round"/>
<path d="M596.016 208.077H601.759" stroke="white" stroke-width="2" stroke-linecap="round" stroke-linejoin="round"/>
<path d="M497.283 208.077H503.027" stroke="white" stroke-width="2" stroke-linecap="round" stroke-linejoin="round"/>
<path d="M574.383 201.808H582.767" stroke="white" stroke-width="2" stroke-linecap="round" stroke-linejoin="round"/>
<path d="M559.858 201.808H568.243" stroke="white" stroke-width="2" stroke-linecap="round" stroke-linejoin="round"/>
<path d="M545.323 201.808H553.719" stroke="white" stroke-width="2" stroke-linecap="round" stroke-linejoin="round"/>
<path d="M530.799 201.808H539.183" stroke="white" stroke-width="2" stroke-linecap="round" stroke-linejoin="round"/>
<path d="M501.739 214.094H510.135" stroke="white" stroke-width="2" stroke-linecap="round" stroke-linejoin="round"/>
<path d="M516.264 214.094H524.659" stroke="white" stroke-width="2" stroke-linecap="round" stroke-linejoin="round"/>
<path d="M588.907 214.094H597.303" stroke="white" stroke-width="2" stroke-linecap="round" stroke-linejoin="round"/>
<path d="M574.383 214.094H582.767" stroke="white" stroke-width="2" stroke-linecap="round" stroke-linejoin="round"/>
<path d="M559.858 214.094H568.243" stroke="white" stroke-width="2" stroke-linecap="round" stroke-linejoin="round"/>
<path d="M545.323 214.094H553.719" stroke="white" stroke-width="2" stroke-linecap="round" stroke-linejoin="round"/>
<path d="M530.799 214.094H539.183" stroke="white" stroke-width="2" stroke-linecap="round" stroke-linejoin="round"/>
<path d="M647.049 217.261C645.761 211.762 641.998 207.12 636.805 204.888C634.868 204.063 634.164 204.151 633.207 204.151H624.646C621.939 204.492 619.794 207.439 621.367 210.002L626.44 218.273C627.045 219.263 628.112 219.857 629.267 219.857H645.97C648.039 219.857 647.049 217.261 647.049 217.261Z" stroke="white" stroke-width="2" stroke-linecap="round" stroke-linejoin="round"/>
<path d="M634.603 212.004C632.634 206.57 628.519 204.151 628.519 204.151" stroke="white" stroke-width="2" stroke-linecap="round" stroke-linejoin="round"/>
<path d="M620.795 208.132L620.674 216.337L626.539 225.84H647.28V218.614" stroke="white" stroke-width="2" stroke-linecap="round" stroke-linejoin="round"/>
<path d="M627.154 219.516V225.477" stroke="white" stroke-width="2" stroke-linecap="round" stroke-linejoin="round"/>
<path d="M624.645 204.151C619.595 204.151 611.551 188.972 628.529 184.837C649.744 179.667 648.335 160.386 617.328 160.386" stroke="white" stroke-width="2" stroke-linecap="round" stroke-linejoin="round"/>
<path d="M1.10059 358.333H460.213L821.923 719.9L1074.62 467.299L965.615 358.333H1074.9" stroke="white" stroke-width="2" stroke-linecap="round" stroke-linejoin="round"/>
<path d="M1074.9 1.09988H1.10059" stroke="white" stroke-width="2" stroke-linecap="round" stroke-linejoin="round"/>
<path d="M839.583 190.809L824.058 206.119" stroke="white" stroke-width="2" stroke-linecap="round" stroke-linejoin="round"/>
<path d="M876.554 158.461L856.154 174.641" stroke="white" stroke-width="2" stroke-linecap="round" stroke-linejoin="round"/>
<path d="M860.611 113.971L879.691 128.863" stroke="white" stroke-width="2" stroke-linecap="round" stroke-linejoin="round"/>
<path d="M847.693 74.9685V82.4698" stroke="white" stroke-width="2" stroke-linecap="round" stroke-linejoin="round"/>
<path d="M955.47 105.732L947.834 103.06" stroke="white" stroke-width="2" stroke-linecap="round" stroke-linejoin="round"/>
<path d="M941.089 68.6331L961.28 93.2377" stroke="white" stroke-width="2" stroke-linecap="round" stroke-linejoin="round"/>
<path d="M928.578 82.3048V75.0125" stroke="white" stroke-width="2" stroke-linecap="round" stroke-linejoin="round"/>
<path d="M862.438 101.608H909.367" stroke="white" stroke-width="2" stroke-linecap="round" stroke-linejoin="round"/>
<path d="M820.669 124.805L833.862 114.642" stroke="white" stroke-width="2" stroke-linecap="round" stroke-linejoin="round"/>
<path d="M876.004 221.023L855.362 191.139" stroke="white" stroke-width="2" stroke-linecap="round" stroke-linejoin="round"/>
<path d="M938.658 228.898L903.249 233.276" stroke="white" stroke-width="2" stroke-linecap="round" stroke-linejoin="round"/>
<path d="M966.528 201.324L960.686 209.804" stroke="white" stroke-width="2" stroke-linecap="round" stroke-linejoin="round"/>
<path d="M910.841 150.839L954.007 174.762" stroke="white" stroke-width="2" stroke-linecap="round" stroke-linejoin="round"/>
<path d="M915.396 184.826L905.878 157.075" stroke="white" stroke-width="2" stroke-linecap="round" stroke-linejoin="round"/>
<path d="M379.701 278.173L398.858 296.607L379.701 315.042" stroke="white" stroke-width="2" stroke-linecap="round" stroke-linejoin="round"/>
<path d="M306.508 296.607H398.858" stroke="white" stroke-width="2" stroke-linecap="round" stroke-linejoin="round"/>
<path d="M758.512 278.173L777.657 296.607L758.512 315.042" stroke="white" stroke-width="2" stroke-linecap="round" stroke-linejoin="round"/>
<path d="M685.307 296.607H777.657" stroke="white" stroke-width="2" stroke-linecap="round" stroke-linejoin="round"/>
<path d="M1057.21 278.173L1076.35 296.607L1057.21 315.042" stroke="white" stroke-width="2" stroke-linecap="round" stroke-linejoin="round"/>
<path d="M984 296.607H1076.35" stroke="white" stroke-width="2" stroke-linecap="round" stroke-linejoin="round"/>
<path d="M750.105 376.327L750.611 402.901L724.027 402.395" stroke="white" stroke-width="2" stroke-linecap="round" stroke-linejoin="round"/>
<path d="M685.307 337.622L750.611 402.901" stroke="white" stroke-width="2" stroke-linecap="round" stroke-linejoin="round"/>
<path d="M844.425 69.2931L842.312 62.7157C841.993 61.7478 841.542 61.2309 840.706 60.9669L834.038 58.9321C832.805 58.5582 831.661 57.3263 831.661 55.6764C831.661 54.0266 832.805 52.7837 834.038 52.4208L840.706 50.386C841.531 50.133 841.993 49.6161 842.312 48.6372L844.425 42.0598C844.854 40.7399 846.053 39.662 847.682 39.662C849.31 39.662 850.51 40.7509 850.939 42.0598L853.052 48.6372C853.371 49.6051 853.822 50.122 854.658 50.386L861.326 52.4208C862.558 52.7947 863.703 54.0266 863.703 55.6764C863.703 57.3263 862.558 58.5692 861.326 58.9321L854.658 60.9669C853.833 61.2199 853.371 61.7368 853.052 62.7157L850.939 69.2931C850.51 70.613 849.31 71.6908 847.682 71.6908C846.053 71.6908 844.854 70.602 844.425 69.2931ZM848.782 68.6002L850.895 61.9678C851.379 60.45 852.325 59.3061 853.987 58.7891L860.655 56.7543C861.084 56.6114 861.425 56.2154 861.425 55.6655C861.425 55.1155 861.084 54.7195 860.655 54.5766L853.987 52.5418C852.325 52.0248 851.379 50.8809 850.895 49.3631L848.782 42.7307C848.639 42.3018 848.243 41.9278 847.693 41.9278C847.143 41.9278 846.747 42.3018 846.604 42.7307L844.491 49.3631C844.007 50.8809 843.061 52.0248 841.399 52.5418L834.731 54.5766C834.302 54.7195 833.961 55.1155 833.961 55.6655C833.961 56.2154 834.302 56.6114 834.731 56.7543L841.399 58.7891C843.061 59.3061 844.007 60.45 844.491 61.9678L846.604 68.6002C846.747 69.0291 847.143 69.4031 847.693 69.4031C848.243 69.4031 848.639 69.0291 848.782 68.6002Z" fill="white"/>
<path d="M844.425 196.132L842.312 189.555C841.993 188.587 841.542 188.07 840.706 187.806L834.038 185.771C832.805 185.397 831.661 184.166 831.661 182.516C831.661 180.866 832.805 179.623 834.038 179.26L840.706 177.225C841.531 176.972 841.993 176.455 842.312 175.476L844.425 168.899C844.854 167.579 846.053 166.501 847.682 166.501C849.31 166.501 850.51 167.59 850.939 168.899L853.052 175.476C853.371 176.444 853.822 176.961 854.658 177.225L861.326 179.26C862.558 179.634 863.703 180.866 863.703 182.516C863.703 184.166 862.558 185.408 861.326 185.771L854.658 187.806C853.833 188.059 853.371 188.576 853.052 189.555L850.939 196.132C850.51 197.452 849.31 198.53 847.682 198.53C846.053 198.53 844.854 197.441 844.425 196.132ZM848.782 195.439L850.895 188.807C851.379 187.289 852.325 186.145 853.987 185.628L860.655 183.594C861.084 183.451 861.425 183.055 861.425 182.505C861.425 181.955 861.084 181.559 860.655 181.416L853.987 179.381C852.325 178.864 851.379 177.72 850.895 176.202L848.782 169.57C848.639 169.141 848.243 168.767 847.693 168.767C847.143 168.767 846.747 169.141 846.604 169.57L844.491 176.202C844.007 177.72 843.061 178.864 841.399 179.381L834.731 181.416C834.302 181.559 833.961 181.955 833.961 182.505C833.961 183.055 834.302 183.451 834.731 183.594L841.399 185.628C843.061 186.145 844.007 187.289 844.491 188.807L846.604 195.439C846.747 195.868 847.143 196.242 847.693 196.242C848.243 196.242 848.639 195.868 848.782 195.439Z" fill="white"/>
<path d="M919.82 207.131L917.707 200.554C917.388 199.586 916.937 199.069 916.1 198.805L909.432 196.77C908.2 196.396 907.056 195.165 907.056 193.515C907.056 191.865 908.2 190.622 909.432 190.259L916.1 188.224C916.926 187.971 917.388 187.454 917.707 186.475L919.82 179.898C920.249 178.578 921.448 177.5 923.076 177.5C924.705 177.5 925.904 178.589 926.333 179.898L928.446 186.475C928.765 187.443 929.216 187.96 930.053 188.224L936.721 190.259C937.953 190.633 939.097 191.865 939.097 193.515C939.097 195.165 937.953 196.407 936.721 196.77L930.053 198.805C929.227 199.058 928.765 199.575 928.446 200.554L926.333 207.131C925.904 208.451 924.705 209.529 923.076 209.529C921.448 209.529 920.249 208.44 919.82 207.131ZM924.166 206.449L926.278 199.817C926.763 198.299 927.709 197.155 929.37 196.638L936.038 194.604C936.467 194.461 936.809 194.065 936.809 193.515C936.809 192.965 936.467 192.569 936.038 192.426L929.37 190.391C927.709 189.874 926.763 188.73 926.278 187.212L924.166 180.58C924.023 180.151 923.627 179.777 923.076 179.777C922.526 179.777 922.13 180.151 921.987 180.58L919.875 187.212C919.39 188.73 918.444 189.874 916.783 190.391L910.115 192.426C909.685 192.569 909.344 192.965 909.344 193.515C909.344 194.065 909.685 194.461 910.115 194.604L916.783 196.638C918.444 197.155 919.39 198.299 919.875 199.817L921.987 206.449C922.13 206.878 922.526 207.252 923.076 207.252C923.627 207.252 924.023 206.878 924.166 206.449Z" fill="white"/>
<path d="M832.762 102.488C832.762 93.1387 840.717 85.5825 850.389 85.5825C855.737 85.5825 861.062 87.9582 864.517 91.9068C864.693 92.1048 864.803 92.3688 864.803 92.6548C864.803 93.2817 864.286 93.7986 863.659 93.7986C863.318 93.7986 863.032 93.6557 862.801 93.4027C859.709 89.916 855.164 87.8812 850.389 87.8812C841.949 87.8812 835.05 94.4256 835.05 102.499C835.05 109.758 840.629 115.334 847.209 115.334C852.964 115.334 857.618 110.99 857.618 105.644C857.618 101.036 854.24 97.6703 850.378 97.6703C847.319 97.6703 844.766 99.727 844.766 102.708C844.766 103.335 844.249 103.852 843.622 103.852C842.995 103.852 842.478 103.335 842.478 102.708C842.478 98.3632 846.197 95.3825 850.378 95.3825C855.495 95.3825 859.907 99.815 859.907 105.644C859.907 112.277 854.152 117.622 847.209 117.622C839.342 117.622 832.762 110.99 832.762 102.499V102.488Z" fill="white"/>
<path d="M786.306 150.916C786.306 150.289 786.823 149.772 787.45 149.772C788.077 149.772 788.594 150.289 788.594 150.916C788.594 152.742 789.629 153.49 791.169 153.49C791.884 153.49 792.688 153.38 793.513 153.149C792.71 152.61 791.939 152.005 791.257 151.345C791.059 151.147 790.916 150.828 790.916 150.52C790.916 149.893 791.433 149.376 792.06 149.376C792.38 149.376 792.633 149.486 792.864 149.695C793.975 150.641 795.097 151.444 796.297 152.071C803.075 148.782 811.371 140.456 814.661 133.714C812.427 129.171 807.74 126.047 802.326 126.047C794.745 126.047 788.594 132.196 788.594 139.774C788.594 141.545 788.935 143.261 789.563 144.867C789.849 145.581 789.332 146.439 788.506 146.439C788.022 146.439 787.615 146.153 787.45 145.724C786.702 143.921 786.306 141.864 786.306 139.774C786.306 130.942 793.491 123.76 802.326 123.76C807.905 123.76 812.824 126.619 815.717 130.964C815.949 130.139 816.059 129.336 816.059 128.621C816.059 127.081 815.31 126.047 813.484 126.047C812.857 126.047 812.339 125.53 812.339 124.904C812.339 124.277 812.857 123.76 813.484 123.76C816.741 123.76 818.347 126.014 818.347 128.621C818.347 130.139 817.918 131.855 817.115 133.659C817.918 135.55 818.347 137.607 818.347 139.774C818.347 148.606 811.162 155.788 802.326 155.788C800.148 155.788 798.068 155.359 796.209 154.557C794.404 155.359 792.688 155.788 791.169 155.788C788.561 155.788 786.306 154.183 786.306 150.927V150.916ZM815.651 136.496C812.02 142.7 805.264 149.453 799.025 153.083C800.082 153.336 801.171 153.479 802.315 153.479C809.897 153.479 816.048 147.33 816.048 139.752C816.048 138.641 815.905 137.519 815.651 136.496Z" fill="white"/>
<path d="M791.225 234.046C791.225 233.419 791.742 232.902 792.369 232.902C792.996 232.902 793.513 233.419 793.513 234.046C793.513 235.871 794.548 236.619 796.088 236.619C796.803 236.619 797.606 236.509 798.432 236.278C797.629 235.739 796.858 235.135 796.176 234.475C795.978 234.277 795.835 233.958 795.835 233.65C795.835 233.023 796.352 232.506 796.979 232.506C797.298 232.506 797.551 232.616 797.783 232.825C798.894 233.771 800.016 234.574 801.216 235.201C807.994 231.912 816.29 223.586 819.58 216.843C817.346 212.301 812.659 209.177 807.245 209.177C799.664 209.177 793.513 215.326 793.513 222.904C793.513 224.675 793.854 226.39 794.482 227.996C794.768 228.711 794.251 229.569 793.425 229.569C792.941 229.569 792.534 229.283 792.369 228.854C791.621 227.05 791.225 224.994 791.225 222.904C791.225 214.072 798.41 206.889 807.245 206.889C812.824 206.889 817.742 209.749 820.636 214.094C820.867 213.269 820.977 212.466 820.977 211.751C820.977 210.211 820.229 209.177 818.403 209.177C817.776 209.177 817.258 208.66 817.258 208.033C817.258 207.406 817.776 206.889 818.403 206.889C821.66 206.889 823.266 209.144 823.266 211.751C823.266 213.269 822.837 214.985 822.034 216.788C822.837 218.68 823.266 220.737 823.266 222.904C823.266 231.736 816.081 238.918 807.245 238.918C805.067 238.918 802.987 238.489 801.128 237.686C799.323 238.489 797.606 238.918 796.088 238.918C793.48 238.918 791.225 237.312 791.225 234.057V234.046ZM820.581 219.637C816.95 225.84 810.194 232.594 803.955 236.223C805.012 236.476 806.101 236.619 807.245 236.619C814.827 236.619 820.977 230.471 820.977 222.893C820.977 221.782 820.834 220.66 820.581 219.637Z" fill="white"/>
<path d="M873.661 234.794C873.661 225.444 881.617 217.888 891.288 217.888C896.636 217.888 901.962 220.264 905.417 224.213C905.593 224.411 905.703 224.675 905.703 224.961C905.703 225.587 905.186 226.104 904.558 226.104C904.217 226.104 903.931 225.961 903.7 225.708C900.608 222.222 896.064 220.187 891.288 220.187C882.849 220.187 875.95 226.731 875.95 234.805C875.95 242.064 881.528 247.64 888.108 247.64C893.863 247.64 898.518 243.296 898.518 237.95C898.518 233.342 895.14 229.976 891.277 229.976C888.218 229.976 885.666 232.033 885.666 235.014C885.666 235.64 885.149 236.157 884.521 236.157C883.894 236.157 883.377 235.64 883.377 235.014C883.377 230.669 887.096 227.688 891.277 227.688C896.394 227.688 900.806 232.121 900.806 237.95C900.806 244.583 895.052 249.928 888.108 249.928C880.241 249.928 873.661 243.296 873.661 234.805V234.794Z" fill="white"/>
<path d="M912.7 112.761C912.7 112.134 913.217 111.617 913.845 111.617C914.472 111.617 914.989 112.134 914.989 112.761C914.989 114.587 916.023 115.334 917.564 115.334C918.279 115.334 919.082 115.225 919.907 114.994C919.104 114.455 918.334 113.85 917.652 113.19C917.454 112.992 917.311 112.673 917.311 112.365C917.311 111.738 917.828 111.221 918.455 111.221C918.774 111.221 919.027 111.331 919.258 111.54C920.37 112.486 921.492 113.289 922.691 113.916C929.469 110.627 937.766 102.301 941.056 95.5585C938.822 91.0159 934.135 87.8922 928.721 87.8922C921.14 87.8922 914.989 94.0406 914.989 101.619C914.989 103.39 915.33 105.106 915.957 106.711C916.243 107.426 915.726 108.284 914.901 108.284C914.417 108.284 914.01 107.998 913.845 107.569C913.096 105.765 912.7 103.709 912.7 101.619C912.7 92.7867 919.885 85.6045 928.721 85.6045C934.3 85.6045 939.218 88.4642 942.112 92.8087C942.343 91.9838 942.453 91.1809 942.453 90.466C942.453 88.9261 941.705 87.8922 939.878 87.8922C939.251 87.8922 938.734 87.3753 938.734 86.7483C938.734 86.1214 939.251 85.6045 939.878 85.6045C943.135 85.6045 944.742 87.8592 944.742 90.466C944.742 91.9838 944.313 93.6997 943.509 95.5035C944.313 97.3953 944.742 99.4521 944.742 101.619C944.742 110.451 937.557 117.633 928.721 117.633C926.542 117.633 924.463 117.204 922.603 116.401C920.799 117.204 919.082 117.633 917.564 117.633C914.956 117.633 912.7 116.027 912.7 112.772V112.761ZM942.057 98.3412C938.426 104.545 931.67 111.298 925.431 114.928C926.487 115.181 927.577 115.323 928.721 115.323C936.302 115.323 942.453 109.175 942.453 101.597C942.453 100.486 942.31 99.3641 942.057 98.3412Z" fill="white"/>
<path d="M958.518 118.26C958.518 117.633 959.035 117.116 959.662 117.116C960.289 117.116 960.806 117.633 960.806 118.26C960.806 120.086 961.841 120.834 963.381 120.834C964.096 120.834 964.899 120.724 965.725 120.493C964.921 119.954 964.151 119.349 963.469 118.689C963.271 118.491 963.128 118.172 963.128 117.864C963.128 117.237 963.645 116.72 964.272 116.72C964.591 116.72 964.844 116.83 965.076 117.039C966.187 117.985 967.309 118.788 968.509 119.415C975.287 116.126 983.583 107.8 986.873 101.058C984.639 96.5154 979.952 93.3917 974.538 93.3917C966.957 93.3917 960.806 99.5401 960.806 107.118C960.806 108.889 961.147 110.605 961.775 112.211C962.061 112.926 961.543 113.784 960.718 113.784C960.234 113.784 959.827 113.498 959.662 113.069C958.914 111.265 958.518 109.208 958.518 107.118C958.518 98.2862 965.703 91.1039 974.538 91.1039C980.117 91.1039 985.035 93.9636 987.929 98.3082C988.16 97.4833 988.27 96.6804 988.27 95.9654C988.27 94.4256 987.522 93.3917 985.696 93.3917C985.069 93.3917 984.551 92.8747 984.551 92.2478C984.551 91.6209 985.069 91.1039 985.696 91.1039C988.953 91.1039 990.559 93.3587 990.559 95.9654C990.559 97.4833 990.13 99.1991 989.327 101.003C990.13 102.895 990.559 104.952 990.559 107.118C990.559 115.95 983.374 123.133 974.538 123.133C972.36 123.133 970.28 122.704 968.421 121.901C966.616 122.704 964.899 123.133 963.381 123.133C960.773 123.133 958.518 121.527 958.518 118.271V118.26ZM987.863 103.852C984.232 110.055 977.476 116.808 971.237 120.438C972.294 120.691 973.383 120.834 974.527 120.834C982.109 120.834 988.259 114.686 988.259 107.107C988.259 105.996 988.116 104.875 987.863 103.852Z" fill="white"/>
<path d="M913.845 56.5674C913.845 47.2183 921.8 39.662 931.472 39.662C936.82 39.662 942.145 42.0378 945.6 45.9864C945.776 46.1844 945.886 46.4484 945.886 46.7343C945.886 47.3613 945.369 47.8782 944.742 47.8782C944.401 47.8782 944.115 47.7352 943.884 47.4823C940.792 43.9956 936.247 41.9608 931.472 41.9608C923.032 41.9608 916.133 48.5052 916.133 56.5784C916.133 63.8376 921.712 69.4141 928.292 69.4141C934.047 69.4141 938.701 65.0695 938.701 59.724C938.701 55.1155 935.323 51.7498 931.461 51.7498C928.402 51.7498 925.849 53.8066 925.849 56.7873C925.849 57.4143 925.332 57.9312 924.705 57.9312C924.078 57.9312 923.561 57.4143 923.561 56.7873C923.561 52.4428 927.28 49.4621 931.461 49.4621C936.578 49.4621 940.99 53.8946 940.99 59.724C940.99 66.3564 935.235 71.7019 928.292 71.7019C920.425 71.7019 913.845 65.0695 913.845 56.5784V56.5674Z" fill="white"/>
<path d="M941.991 239.611C941.991 238.984 942.508 238.467 943.136 238.467C943.763 238.467 944.28 238.984 944.28 239.611C944.28 241.437 945.314 242.185 946.855 242.185C947.57 242.185 948.373 242.075 949.198 241.844C948.395 241.305 947.625 240.7 946.943 240.04C946.745 239.842 946.602 239.523 946.602 239.215C946.602 238.588 947.119 238.071 947.746 238.071C948.065 238.071 948.318 238.181 948.549 238.39C949.661 239.336 950.783 240.139 951.982 240.766C958.76 237.477 967.057 229.151 970.347 222.409C968.113 217.866 963.426 214.743 958.012 214.743C950.431 214.743 944.28 220.891 944.28 228.469C944.28 230.24 944.621 231.956 945.248 233.562C945.534 234.277 945.017 235.135 944.192 235.135C943.708 235.135 943.301 234.849 943.136 234.42C942.387 232.616 941.991 230.559 941.991 228.469C941.991 219.637 949.176 212.455 958.012 212.455C963.591 212.455 968.509 215.315 971.403 219.659C971.634 218.834 971.744 218.031 971.744 217.316C971.744 215.776 970.996 214.743 969.169 214.743C968.542 214.743 968.025 214.226 968.025 213.599C968.025 212.972 968.542 212.455 969.169 212.455C972.426 212.455 974.033 214.71 974.033 217.316C974.033 218.834 973.604 220.55 972.8 222.354C973.604 224.246 974.033 226.302 974.033 228.469C974.033 237.301 966.848 244.484 958.012 244.484C955.833 244.484 953.754 244.055 951.894 243.252C950.09 244.055 948.373 244.484 946.855 244.484C944.247 244.484 941.991 242.878 941.991 239.622V239.611ZM971.348 225.203C967.717 231.406 960.961 238.159 954.722 241.789C955.778 242.042 956.868 242.185 958.012 242.185C965.593 242.185 971.744 236.036 971.744 228.458C971.744 227.347 971.601 226.225 971.348 225.203Z" fill="white"/>
<path d="M955.294 183.407C955.294 174.058 963.249 166.501 972.921 166.501C978.269 166.501 983.594 168.877 987.049 172.826C987.225 173.024 987.335 173.288 987.335 173.574C987.335 174.201 986.818 174.718 986.191 174.718C985.85 174.718 985.564 174.575 985.333 174.322C982.241 170.835 977.697 168.8 972.921 168.8C964.482 168.8 957.583 175.344 957.583 183.418C957.583 190.677 963.161 196.253 969.741 196.253C975.496 196.253 980.15 191.909 980.15 186.563C980.15 181.955 976.772 178.589 972.91 178.589C969.851 178.589 967.298 180.646 967.298 183.627C967.298 184.254 966.781 184.771 966.154 184.771C965.527 184.771 965.01 184.254 965.01 183.627C965.01 179.282 968.729 176.301 972.91 176.301C978.027 176.301 982.439 180.734 982.439 186.563C982.439 193.196 976.684 198.541 969.741 198.541C961.874 198.541 955.294 191.909 955.294 183.418V183.407Z" fill="white"/>
<path d="M877.787 153.204C877.787 152.577 878.304 152.06 878.931 152.06C879.559 152.06 880.076 152.577 880.076 153.204C880.076 155.03 881.11 155.777 882.651 155.777C883.366 155.777 884.169 155.667 884.994 155.436C884.191 154.898 883.421 154.293 882.739 153.633C882.541 153.435 882.397 153.116 882.397 152.808C882.397 152.181 882.915 151.664 883.542 151.664C883.861 151.664 884.114 151.774 884.345 151.983C885.456 152.929 886.579 153.732 887.778 154.359C894.556 151.07 902.853 142.744 906.143 136.001C903.909 131.459 899.222 128.335 893.808 128.335C886.227 128.335 880.076 134.484 880.076 142.062C880.076 143.833 880.417 145.548 881.044 147.154C881.33 147.869 880.813 148.727 879.988 148.727C879.504 148.727 879.096 148.441 878.931 148.012C878.183 146.208 877.787 144.152 877.787 142.062C877.787 133.23 884.972 126.047 893.808 126.047C899.387 126.047 904.305 128.907 907.199 133.252C907.43 132.427 907.54 131.624 907.54 130.909C907.54 129.369 906.792 128.335 904.965 128.335C904.338 128.335 903.821 127.818 903.821 127.191C903.821 126.564 904.338 126.047 904.965 126.047C908.222 126.047 909.829 128.302 909.829 130.909C909.829 132.427 909.4 134.143 908.596 135.946C909.4 137.838 909.829 139.895 909.829 142.062C909.829 150.894 902.644 158.076 893.808 158.076C891.629 158.076 889.55 157.647 887.69 156.844C885.886 157.647 884.169 158.076 882.651 158.076C880.043 158.076 877.787 156.47 877.787 153.215V153.204ZM907.144 138.784C903.513 144.988 896.757 151.741 890.518 155.37C891.574 155.623 892.664 155.766 893.808 155.766C901.389 155.766 907.54 149.618 907.54 142.04C907.54 140.929 907.397 139.807 907.144 138.784Z" fill="white"/>
<path d="M118.396 304.582V286.62C118.396 285.96 118.88 285.476 119.54 285.476C120.024 285.476 120.431 285.707 120.629 286.191L126.813 301.348L132.997 286.191C133.195 285.707 133.602 285.476 134.086 285.476C134.746 285.476 135.231 285.96 135.231 286.62V304.582C135.231 305.242 134.746 305.725 134.086 305.725C133.426 305.725 132.942 305.242 132.942 304.582V292.34L127.935 304.582C127.704 305.154 127.396 305.472 126.824 305.472C126.252 305.472 125.933 305.154 125.713 304.582L120.706 292.34V304.582C120.706 305.242 120.222 305.725 119.562 305.725C118.902 305.725 118.418 305.242 118.418 304.582H118.396Z" fill="white"/>
<path d="M138.564 301.634C138.564 299.346 139.764 297.74 141.766 297.201L143.626 296.684C144.737 296.365 145.43 296.09 145.43 295.024C145.43 293.957 144.803 293.484 143.483 293.484C142.163 293.484 141.392 294.023 140.71 294.859C140.424 295.199 140.105 295.32 139.797 295.32C139.225 295.32 138.652 294.859 138.652 294.177C138.652 293.946 138.707 293.693 138.972 293.374C140.226 291.889 141.513 291.196 143.494 291.196C146.036 291.196 147.73 292.659 147.73 295.024V304.571C147.73 305.231 147.246 305.714 146.586 305.714C145.926 305.714 145.441 305.231 145.441 304.571V304.197C144.869 305.198 143.868 305.945 142.328 305.945C140.38 305.945 138.575 304.483 138.575 301.623L138.564 301.634ZM142.735 303.834C144.132 303.834 145.42 302.657 145.42 300.314V298.059C145.1 298.576 144.594 298.774 143.989 298.95L142.669 299.324C141.271 299.72 140.842 300.435 140.842 301.645C140.842 303.13 141.667 303.845 142.735 303.845V303.834Z" fill="white"/>
<path d="M150.58 287.137C150.58 286.312 151.185 285.707 152.01 285.707C152.836 285.707 153.441 286.312 153.441 287.137C153.441 287.962 152.836 288.567 152.01 288.567C151.185 288.567 150.58 287.962 150.58 287.137ZM150.866 304.582V292.571C150.866 291.911 151.35 291.427 152.01 291.427C152.671 291.427 153.155 291.911 153.155 292.571V304.582C153.155 305.242 152.671 305.725 152.01 305.725C151.35 305.725 150.866 305.242 150.866 304.582Z" fill="white"/>
<path d="M156.412 304.582V292.571C156.412 291.911 156.896 291.427 157.556 291.427C158.217 291.427 158.701 291.911 158.701 292.571V292.714C159.273 291.768 160.362 291.196 161.65 291.196C163.685 291.196 165.567 292.945 165.567 295.859V304.582C165.567 305.242 165.083 305.725 164.422 305.725C163.762 305.725 163.278 305.242 163.278 304.582V296.002C163.278 294.397 162.53 293.462 161.166 293.462C159.537 293.462 158.701 294.661 158.701 296.75V304.582C158.701 305.242 158.217 305.725 157.556 305.725C156.896 305.725 156.412 305.242 156.412 304.582Z" fill="white"/>
<path d="M170.287 304.549V293.715H168.889C168.229 293.715 167.712 293.231 167.712 292.571C167.712 291.911 168.229 291.427 168.889 291.427H170.287V289.249C170.287 287.247 171.827 285.707 173.83 285.707H175.029C175.689 285.707 176.173 286.191 176.173 286.851C176.173 287.511 175.689 287.995 175.029 287.995H173.83C173.082 287.995 172.575 288.512 172.575 289.249V291.427H175.007C175.667 291.427 176.184 291.911 176.184 292.571C176.184 293.231 175.667 293.715 175.007 293.715H172.575V304.549C172.575 305.209 172.091 305.725 171.431 305.725C170.771 305.725 170.287 305.209 170.287 304.549Z" fill="white"/>
<path d="M178.154 304.582V292.571C178.154 291.889 178.616 291.427 179.299 291.427C179.981 291.427 180.443 291.889 180.443 292.571V292.802C180.982 291.911 181.84 291.196 183.073 291.196C184.844 291.196 185.879 292.483 185.879 294.232V294.573C185.879 295.233 185.394 295.716 184.734 295.716C184.074 295.716 183.59 295.233 183.59 294.573V294.232C183.59 293.638 183.249 293.176 182.534 293.176C181.334 293.176 180.443 294.892 180.443 298.07V304.593C180.443 305.274 179.981 305.736 179.299 305.736C178.616 305.736 178.154 305.274 178.154 304.593V304.582Z" fill="white"/>
<path d="M187.738 301.634C187.738 299.346 188.938 297.74 190.94 297.201L192.8 296.684C193.911 296.365 194.604 296.09 194.604 295.024C194.604 293.957 193.977 293.484 192.657 293.484C191.336 293.484 190.566 294.023 189.884 294.859C189.598 295.199 189.279 295.32 188.971 295.32C188.398 295.32 187.826 294.859 187.826 294.177C187.826 293.946 187.881 293.693 188.145 293.374C189.4 291.889 190.687 291.196 192.668 291.196C195.21 291.196 196.904 292.659 196.904 295.024V304.571C196.904 305.231 196.42 305.714 195.76 305.714C195.099 305.714 194.615 305.231 194.615 304.571V304.197C194.043 305.198 193.042 305.945 191.501 305.945C189.554 305.945 187.749 304.483 187.749 301.623L187.738 301.634ZM191.92 303.834C193.317 303.834 194.604 302.657 194.604 300.314V298.059C194.285 298.576 193.779 298.774 193.174 298.95L191.854 299.324C190.456 299.72 190.027 300.435 190.027 301.645C190.027 303.13 190.852 303.845 191.92 303.845V303.834Z" fill="white"/>
<path d="M200.469 304.813V292.571C200.469 291.911 200.953 291.427 201.613 291.427C202.273 291.427 202.757 291.911 202.757 292.571V292.714C203.33 291.768 204.364 291.196 205.618 291.196C207.192 291.196 208.479 291.878 209.249 293.308C210.053 292.021 211.395 291.196 212.913 291.196C215.543 291.196 217.348 293.143 217.348 297.146V304.582C217.348 305.242 216.864 305.725 216.203 305.725C215.543 305.725 215.059 305.242 215.059 304.582V297.146C215.059 294.804 214.454 293.462 212.627 293.462C210.944 293.462 210.053 294.837 210.053 297.212V304.593C210.053 305.252 209.568 305.736 208.908 305.736C208.248 305.736 207.764 305.252 207.764 304.593V297.157C207.764 294.815 207.159 293.473 205.332 293.473C203.649 293.473 202.757 294.848 202.757 297.223V304.835C202.757 305.494 202.273 305.978 201.613 305.978C200.953 305.978 200.469 305.494 200.469 304.835V304.813Z" fill="white"/>
<path d="M220.495 298.576C220.495 294.573 222.267 291.196 225.447 291.196C228.627 291.196 230.112 294.287 230.112 297.773C230.112 298.433 229.595 298.917 228.935 298.917H222.784C222.872 301.436 223.895 303.669 225.59 303.669C226.558 303.669 227.306 302.987 227.768 301.953C227.966 301.491 228.34 301.238 228.803 301.238C229.408 301.238 229.98 301.7 229.98 302.349C229.98 302.525 229.947 302.723 229.87 302.888C228.979 304.857 227.471 305.945 225.612 305.945C222.355 305.945 220.517 302.569 220.517 298.565L220.495 298.576ZM222.949 296.629H227.757C227.526 294.914 226.811 293.484 225.436 293.484C224.06 293.484 223.29 294.826 222.949 296.629Z" fill="white"/>
<path d="M428.545 304.582V286.851C428.545 286.191 429.029 285.707 429.689 285.707H433.408C437.161 285.707 439.218 288.226 439.218 291.658C439.218 295.09 437.161 297.608 433.408 297.608H430.834V304.582C430.834 305.242 430.349 305.725 429.689 305.725C429.029 305.725 428.545 305.242 428.545 304.582ZM433.408 295.309C435.664 295.309 436.929 293.737 436.929 291.647C436.929 289.557 435.675 287.984 433.408 287.984H430.834V295.309H433.408Z" fill="white"/>
<path d="M441.078 298.576C441.078 294.573 442.85 291.196 446.03 291.196C449.21 291.196 450.695 294.287 450.695 297.773C450.695 298.433 450.178 298.917 449.518 298.917H443.367C443.455 301.436 444.478 303.669 446.173 303.669C447.141 303.669 447.889 302.987 448.351 301.953C448.549 301.491 448.923 301.238 449.386 301.238C449.991 301.238 450.563 301.7 450.563 302.349C450.563 302.525 450.53 302.723 450.453 302.888C449.562 304.857 448.054 305.945 446.195 305.945C442.938 305.945 441.1 302.569 441.1 298.565L441.078 298.576ZM443.543 296.629H448.351C448.12 294.914 447.405 293.484 446.03 293.484C444.654 293.484 443.884 294.826 443.543 296.629Z" fill="white"/>
<path d="M453.951 304.582V292.571C453.951 291.889 454.413 291.427 455.096 291.427C455.778 291.427 456.24 291.889 456.24 292.571V292.802C456.779 291.911 457.637 291.196 458.87 291.196C460.641 291.196 461.675 292.483 461.675 294.232V294.573C461.675 295.233 461.191 295.716 460.531 295.716C459.871 295.716 459.387 295.233 459.387 294.573V294.232C459.387 293.627 459.046 293.176 458.33 293.176C457.131 293.176 456.24 294.892 456.24 298.07V304.593C456.24 305.274 455.778 305.736 455.096 305.736C454.413 305.736 453.951 305.274 453.951 304.593V304.582Z" fill="white"/>
<path d="M463.943 304.208C463.602 303.889 463.514 303.603 463.514 303.317C463.514 302.635 463.998 302.14 464.603 302.14C464.944 302.14 465.23 302.316 465.571 302.602C466.253 303.174 467.002 303.658 468.113 303.658C469.367 303.658 470.083 302.943 470.083 301.799C470.083 300.908 469.51 300.314 468.421 299.94L466.848 299.401C464.9 298.719 463.734 297.08 463.734 295.112C463.734 292.824 465.45 291.196 467.794 291.196C469.455 291.196 470.71 291.856 471.711 292.769C471.997 293.022 472.107 293.374 472.107 293.66C472.107 294.287 471.59 294.804 470.963 294.804C470.644 294.804 470.391 294.694 470.16 294.485C469.389 293.803 468.696 293.484 467.783 293.484C466.815 293.484 466.011 294.023 466.011 295.112C466.011 296.145 466.584 296.882 467.761 297.289L469.334 297.828C471.084 298.433 472.371 299.83 472.371 301.81C472.371 304.329 470.512 305.956 468.113 305.956C466.342 305.956 465.054 305.208 463.932 304.208H463.943Z" fill="white"/>
<path d="M475.155 298.576C475.155 294.573 476.927 291.196 480.107 291.196C483.287 291.196 485.058 294.573 485.058 298.576C485.058 302.58 483.287 305.956 480.107 305.956C476.927 305.956 475.155 302.58 475.155 298.576ZM482.759 298.576C482.759 295.914 481.79 293.484 480.096 293.484C478.401 293.484 477.433 295.914 477.433 298.576C477.433 301.238 478.401 303.669 480.096 303.669C481.79 303.669 482.759 301.238 482.759 298.576Z" fill="white"/>
<path d="M488.314 304.582V292.571C488.314 291.911 488.799 291.427 489.459 291.427C490.119 291.427 490.603 291.911 490.603 292.571V292.714C491.175 291.768 492.265 291.196 493.552 291.196C495.588 291.196 497.469 292.945 497.469 295.859V304.582C497.469 305.242 496.985 305.725 496.325 305.725C495.665 305.725 495.18 305.242 495.18 304.582V296.002C495.18 294.397 494.432 293.462 493.068 293.462C491.439 293.462 490.603 294.661 490.603 296.75V304.582C490.603 305.242 490.119 305.725 489.459 305.725C488.799 305.725 488.314 305.242 488.314 304.582Z" fill="white"/>
<path d="M500.616 301.634C500.616 299.346 501.816 297.74 503.818 297.201L505.678 296.684C506.789 296.365 507.482 296.079 507.482 295.024C507.482 293.968 506.855 293.484 505.535 293.484C504.214 293.484 503.444 294.023 502.762 294.859C502.476 295.199 502.157 295.32 501.849 295.32C501.276 295.32 500.704 294.859 500.704 294.177C500.704 293.946 500.759 293.693 501.023 293.374C502.278 291.889 503.565 291.196 505.546 291.196C508.087 291.196 509.782 292.659 509.782 295.024V304.571C509.782 305.231 509.298 305.714 508.638 305.714C507.977 305.714 507.493 305.231 507.493 304.571V304.197C506.921 305.198 505.92 305.945 504.379 305.945C502.432 305.945 500.627 304.483 500.627 301.623L500.616 301.634ZM504.786 303.834C506.184 303.834 507.471 302.657 507.471 300.314V298.059C507.152 298.576 506.646 298.774 506.041 298.95L504.72 299.324C503.323 299.72 502.894 300.435 502.894 301.645C502.894 303.13 503.719 303.845 504.786 303.845V303.834Z" fill="white"/>
<path d="M512.918 304.582V286.851C512.918 286.191 513.402 285.707 514.062 285.707C514.723 285.707 515.207 286.191 515.207 286.851V304.582C515.207 305.242 514.723 305.725 514.062 305.725C513.402 305.725 512.918 305.242 512.918 304.582Z" fill="white"/>
<path d="M523.778 295.716C523.778 290.426 525.671 285.476 530.105 285.476C532.57 285.476 534.198 286.873 535.365 289.623C535.453 289.821 535.508 290.019 535.508 290.195C535.508 290.855 535.024 291.339 534.364 291.339C533.934 291.339 533.472 291.108 533.274 290.591C532.669 289.073 531.899 287.764 530.094 287.764C527.178 287.764 526.056 291.713 526.056 295.716C526.056 299.72 527.167 303.669 530.094 303.669C531.899 303.669 532.669 302.349 533.274 300.842C533.472 300.325 533.934 300.094 534.364 300.094C535.024 300.094 535.508 300.578 535.508 301.238C535.508 301.414 535.453 301.612 535.365 301.81C534.187 304.56 532.559 305.956 530.105 305.956C525.671 305.956 523.778 301.007 523.778 295.716Z" fill="white"/>
<path d="M538.006 298.576C538.006 294.573 539.777 291.196 542.957 291.196C546.137 291.196 547.909 294.573 547.909 298.576C547.909 302.58 546.137 305.956 542.957 305.956C539.777 305.956 538.006 302.58 538.006 298.576ZM545.609 298.576C545.609 295.914 544.641 293.484 542.946 293.484C541.252 293.484 540.284 295.914 540.284 298.576C540.284 301.238 541.252 303.669 542.946 303.669C544.641 303.669 545.609 301.238 545.609 298.576Z" fill="white"/>
<path d="M551.188 304.802V292.56C551.188 291.9 551.672 291.416 552.332 291.416C552.992 291.416 553.476 291.9 553.476 292.56V292.703C554.048 291.757 555.083 291.185 556.337 291.185C557.91 291.185 559.198 291.867 559.968 293.297C560.771 292.01 562.114 291.185 563.632 291.185C566.262 291.185 568.067 293.132 568.067 297.135V304.571C568.067 305.231 567.582 305.714 566.922 305.714C566.262 305.714 565.778 305.231 565.778 304.571V297.135C565.778 294.793 565.173 293.451 563.346 293.451C561.663 293.451 560.771 294.826 560.771 297.201V304.582C560.771 305.242 560.287 305.725 559.627 305.725C558.967 305.725 558.483 305.242 558.483 304.582V297.146C558.483 294.804 557.878 293.462 556.051 293.462C554.367 293.462 553.476 294.837 553.476 297.212V304.824C553.476 305.484 552.992 305.967 552.332 305.967C551.672 305.967 551.188 305.484 551.188 304.824V304.802Z" fill="white"/>
<path d="M571.676 310.587V292.571C571.676 291.911 572.16 291.427 572.82 291.427C573.48 291.427 573.964 291.911 573.964 292.571V292.714C574.504 291.768 575.593 291.196 576.88 291.196C579.829 291.196 581.546 294.573 581.546 298.576C581.546 302.58 579.829 305.956 576.88 305.956C575.593 305.956 574.504 305.385 573.964 304.439V310.587C573.964 311.247 573.48 311.731 572.82 311.731C572.16 311.731 571.676 311.247 571.676 310.587ZM579.257 298.576C579.257 295.914 578.377 293.484 576.682 293.484C574.988 293.484 573.964 295.628 573.964 298.576C573.964 301.524 574.999 303.669 576.682 303.669C578.366 303.669 579.257 301.238 579.257 298.576Z" fill="white"/>
<path d="M584.747 300.864V292.604C584.747 291.944 585.231 291.427 585.891 291.427C586.552 291.427 587.036 291.944 587.036 292.604V300.864C587.036 302.668 587.718 303.669 589.269 303.669C590.821 303.669 591.503 302.668 591.503 300.864V292.604C591.503 291.944 591.987 291.427 592.647 291.427C593.308 291.427 593.792 291.944 593.792 292.604V300.864C593.792 303.691 592.306 305.956 589.269 305.956C586.232 305.956 584.747 303.702 584.747 300.864Z" fill="white"/>
<path d="M599.107 304.549V293.704H597.137C596.477 293.704 595.96 293.22 595.96 292.56C595.96 291.9 596.477 291.416 597.137 291.416H599.107V288.072C599.107 287.412 599.591 286.895 600.251 286.895C600.911 286.895 601.396 287.412 601.396 288.072V291.416H603.365C604.025 291.416 604.543 291.9 604.543 292.56C604.543 293.22 604.025 293.704 603.365 293.704H601.396V304.549C601.396 305.209 600.911 305.725 600.251 305.725C599.591 305.725 599.107 305.209 599.107 304.549Z" fill="white"/>
<path d="M606.116 287.137C606.116 286.312 606.721 285.707 607.547 285.707C608.372 285.707 608.977 286.301 608.977 287.137C608.977 287.973 608.383 288.567 607.547 288.567C606.71 288.567 606.116 287.962 606.116 287.137ZM606.402 304.582V292.571C606.402 291.911 606.886 291.427 607.547 291.427C608.207 291.427 608.691 291.911 608.691 292.571V304.582C608.691 305.242 608.207 305.725 607.547 305.725C606.886 305.725 606.402 305.242 606.402 304.582Z" fill="white"/>
<path d="M611.959 304.582V292.571C611.959 291.911 612.443 291.427 613.103 291.427C613.764 291.427 614.248 291.911 614.248 292.571V292.714C614.82 291.768 615.909 291.196 617.197 291.196C619.232 291.196 621.114 292.945 621.114 295.859V304.582C621.114 305.242 620.63 305.725 619.969 305.725C619.309 305.725 618.825 305.242 618.825 304.582V296.002C618.825 294.397 618.077 293.462 616.712 293.462C615.084 293.462 614.248 294.661 614.248 296.75V304.582C614.248 305.242 613.764 305.725 613.103 305.725C612.443 305.725 611.959 305.242 611.959 304.582Z" fill="white"/>
<path d="M624.282 298.576C624.282 294.573 625.999 291.196 628.948 291.196C630.235 291.196 631.325 291.768 631.864 292.714V292.571C631.864 291.911 632.348 291.427 633.008 291.427C633.668 291.427 634.152 291.911 634.152 292.571V306.869C634.152 310.246 631.919 311.962 629.168 311.962C626.219 311.962 624.789 309.905 624.503 308.981C624.448 308.805 624.415 308.64 624.415 308.497C624.415 307.815 624.932 307.386 625.559 307.386C626.021 307.386 626.417 307.639 626.615 308.101C627.077 309.157 627.991 309.674 629.157 309.674C630.697 309.674 631.853 308.871 631.853 306.869V304.439C631.314 305.385 630.224 305.956 628.937 305.956C625.988 305.956 624.271 302.58 624.271 298.576H624.282ZM631.864 298.576C631.864 295.628 630.829 293.484 629.146 293.484C627.462 293.484 626.571 295.914 626.571 298.576C626.571 301.238 627.462 303.669 629.146 303.669C630.829 303.669 631.864 301.524 631.864 298.576Z" fill="white"/>
<path d="M843.533 296.827C843.533 296.541 843.676 296.233 843.907 296.002L845.536 294.375C846.141 293.77 847.021 293.429 847.935 293.429C848.848 293.429 849.706 293.748 850.311 294.342L851.368 295.398C851.566 295.595 851.852 295.716 852.171 295.716C852.49 295.716 852.776 295.606 852.974 295.398L854.58 293.792C854.812 293.561 855.12 293.418 855.406 293.418C856.066 293.418 856.583 293.935 856.583 294.595C856.583 294.881 856.44 295.2 856.209 295.419L854.58 297.047C853.975 297.641 853.095 297.993 852.182 297.993C851.268 297.993 850.41 297.674 849.805 297.08L848.749 296.024C848.551 295.826 848.265 295.705 847.946 295.705C847.626 295.705 847.34 295.815 847.142 296.024L845.536 297.63C845.305 297.861 844.997 298.004 844.711 298.004C844.05 298.004 843.533 297.487 843.533 296.827Z" fill="white"/>
<path d="M863.56 299.368V286.84C863.56 286.18 864.044 285.696 864.704 285.696C865.364 285.696 865.848 286.18 865.848 286.84V299.368C865.848 301.744 866.817 303.658 869.567 303.658C872.318 303.658 873.286 301.744 873.286 299.368V286.84C873.286 286.18 873.771 285.696 874.431 285.696C875.091 285.696 875.575 286.18 875.575 286.84V299.368C875.575 303.086 873.573 305.945 869.567 305.945C865.562 305.945 863.56 303.086 863.56 299.368Z" fill="white"/>
<path d="M879.228 304.582V292.571C879.228 291.889 879.69 291.427 880.372 291.427C881.054 291.427 881.516 291.889 881.516 292.571V292.802C882.055 291.911 882.914 291.196 884.146 291.196C885.918 291.196 886.952 292.483 886.952 294.232V294.573C886.952 295.233 886.468 295.716 885.807 295.716C885.147 295.716 884.663 295.233 884.663 294.573V294.232C884.663 293.627 884.322 293.176 883.607 293.176C882.407 293.176 881.516 294.892 881.516 298.07V304.593C881.516 305.274 881.054 305.736 880.372 305.736C879.69 305.736 879.228 305.274 879.228 304.593V304.582Z" fill="white"/>
<path d="M889.45 304.582V286.851C889.45 286.191 889.934 285.707 890.595 285.707C891.255 285.707 891.739 286.191 891.739 286.851V292.714C892.278 291.768 893.367 291.196 894.655 291.196C897.604 291.196 899.32 294.573 899.32 298.576C899.32 302.58 897.604 305.956 894.655 305.956C893.367 305.956 892.278 305.385 891.739 304.439V304.582C891.739 305.242 891.255 305.725 890.595 305.725C889.934 305.725 889.45 305.242 889.45 304.582ZM897.031 298.576C897.031 295.914 896.14 293.484 894.457 293.484C892.773 293.484 891.739 295.628 891.739 298.576C891.739 301.524 892.773 303.669 894.457 303.669C896.14 303.669 897.031 301.238 897.031 298.576Z" fill="white"/>
<path d="M901.917 287.137C901.917 286.312 902.522 285.707 903.347 285.707C904.173 285.707 904.778 286.301 904.778 287.137C904.778 287.973 904.173 288.567 903.347 288.567C902.522 288.567 901.917 287.962 901.917 287.137ZM902.203 304.582V292.571C902.203 291.911 902.687 291.427 903.347 291.427C904.008 291.427 904.492 291.911 904.492 292.571V304.582C904.492 305.242 904.008 305.725 903.347 305.725C902.687 305.725 902.203 305.242 902.203 304.582Z" fill="white"/>
<path d="M909.498 304.549V293.704H907.528C906.868 293.704 906.351 293.22 906.351 292.56C906.351 291.9 906.868 291.416 907.528 291.416H909.498V288.072C909.498 287.412 909.982 286.895 910.642 286.895C911.302 286.895 911.786 287.412 911.786 288.072V291.416H913.756C914.416 291.416 914.933 291.9 914.933 292.56C914.933 293.22 914.416 293.704 913.756 293.704H911.786V304.549C911.786 305.209 911.302 305.725 910.642 305.725C909.982 305.725 909.498 305.209 909.498 304.549Z" fill="white"/>
<path d="M737.572 585.01C737.572 579.719 739.465 574.77 743.899 574.77C746.364 574.77 747.992 576.166 749.159 578.916C749.247 579.114 749.302 579.312 749.302 579.488C749.302 580.148 748.818 580.632 748.157 580.632C747.728 580.632 747.266 580.401 747.068 579.884C746.463 578.366 745.693 577.057 743.888 577.057C740.972 577.057 739.85 581.006 739.85 585.01C739.85 589.013 740.961 592.962 743.888 592.962C745.693 592.962 746.463 591.642 747.068 590.135C747.266 589.618 747.728 589.387 748.157 589.387C748.818 589.387 749.302 589.871 749.302 590.531C749.302 590.707 749.247 590.905 749.159 591.103C747.981 593.853 746.353 595.25 743.899 595.25C739.465 595.25 737.572 590.3 737.572 585.01Z" fill="white"/>
<path d="M751.788 593.875V576.144C751.788 575.485 752.272 575.001 752.932 575.001C753.593 575.001 754.077 575.485 754.077 576.144V593.875C754.077 594.535 753.593 595.019 752.932 595.019C752.272 595.019 751.788 594.535 751.788 593.875Z" fill="white"/>
<path d="M756.938 587.869C756.938 583.866 758.71 580.489 761.89 580.489C765.07 580.489 766.841 583.866 766.841 587.869C766.841 591.873 765.07 595.25 761.89 595.25C758.71 595.25 756.938 591.873 756.938 587.869ZM764.553 587.869C764.553 585.208 763.584 582.777 761.89 582.777C760.195 582.777 759.227 585.208 759.227 587.869C759.227 590.531 760.195 592.962 761.89 592.962C763.584 592.962 764.553 590.531 764.553 587.869Z" fill="white"/>
<path d="M770.01 590.157V581.897C770.01 581.237 770.494 580.72 771.154 580.72C771.814 580.72 772.298 581.237 772.298 581.897V590.157C772.298 591.961 772.981 592.962 774.532 592.962C776.084 592.962 776.766 591.961 776.766 590.157V581.897C776.766 581.237 777.25 580.72 777.91 580.72C778.57 580.72 779.054 581.237 779.054 581.897V590.157C779.054 592.984 777.569 595.25 774.532 595.25C771.495 595.25 770.01 592.995 770.01 590.157Z" fill="white"/>
<path d="M782.224 587.869C782.224 583.866 783.94 580.489 786.889 580.489C788.176 580.489 789.266 581.061 789.805 582.007V576.144C789.805 575.485 790.289 575.001 790.949 575.001C791.609 575.001 792.094 575.485 792.094 576.144V593.875C792.094 594.535 791.609 595.019 790.949 595.019C790.289 595.019 789.805 594.535 789.805 593.875V593.732C789.266 594.678 788.176 595.25 786.889 595.25C783.94 595.25 782.224 591.873 782.224 587.869ZM789.805 587.869C789.805 584.922 788.771 582.777 787.087 582.777C785.404 582.777 784.512 585.208 784.512 587.869C784.512 590.531 785.404 592.962 787.087 592.962C788.771 592.962 789.805 590.817 789.805 587.869Z" fill="white"/>
<path d="M801.105 585.01C801.105 579.719 802.998 574.77 807.432 574.77C809.897 574.77 811.526 576.166 812.692 578.916C812.78 579.114 812.835 579.312 812.835 579.488C812.835 580.148 812.351 580.632 811.691 580.632C811.261 580.632 810.799 580.401 810.601 579.884C809.996 578.366 809.226 577.057 807.421 577.057C804.505 577.057 803.383 581.006 803.383 585.01C803.383 589.013 804.494 592.962 807.421 592.962C809.226 592.962 809.996 591.642 810.601 590.135C810.799 589.618 811.261 589.387 811.691 589.387C812.351 589.387 812.835 589.871 812.835 590.531C812.835 590.707 812.78 590.905 812.692 591.103C811.515 593.853 809.886 595.25 807.432 595.25C802.998 595.25 801.105 590.3 801.105 585.01Z" fill="white"/>
<path d="M815.321 587.869C815.321 583.866 817.093 580.489 820.273 580.489C823.453 580.489 825.224 583.866 825.224 587.869C825.224 591.873 823.453 595.25 820.273 595.25C817.093 595.25 815.321 591.873 815.321 587.869ZM822.936 587.869C822.936 585.208 821.967 582.777 820.273 582.777C818.578 582.777 817.61 585.208 817.61 587.869C817.61 590.531 818.578 592.962 820.273 592.962C821.967 592.962 822.936 590.531 822.936 587.869Z" fill="white"/>
<path d="M828.515 594.106V581.864C828.515 581.204 828.999 580.72 829.659 580.72C830.319 580.72 830.803 581.204 830.803 581.864V582.007C831.376 581.061 832.41 580.489 833.664 580.489C835.238 580.489 836.525 581.171 837.295 582.601C838.099 581.314 839.441 580.489 840.959 580.489C843.589 580.489 845.394 582.436 845.394 586.439V593.875C845.394 594.535 844.91 595.019 844.249 595.019C843.589 595.019 843.105 594.535 843.105 593.875V586.439C843.105 584.097 842.5 582.755 840.673 582.755C838.99 582.755 838.099 584.13 838.099 586.505V593.886C838.099 594.546 837.614 595.03 836.954 595.03C836.294 595.03 835.81 594.546 835.81 593.886V586.45C835.81 584.108 835.205 582.766 833.378 582.766C831.695 582.766 830.803 584.141 830.803 586.516V594.128C830.803 594.788 830.319 595.272 829.659 595.272C828.999 595.272 828.515 594.788 828.515 594.128V594.106Z" fill="white"/>
<path d="M849.003 599.88V581.864C849.003 581.204 849.487 580.72 850.147 580.72C850.807 580.72 851.292 581.204 851.292 581.864V582.007C851.831 581.061 852.92 580.489 854.207 580.489C857.156 580.489 858.873 583.866 858.873 587.869C858.873 591.873 857.156 595.25 854.207 595.25C852.92 595.25 851.831 594.678 851.292 593.732V599.88C851.292 600.54 850.807 601.024 850.147 601.024C849.487 601.024 849.003 600.54 849.003 599.88ZM856.584 587.869C856.584 585.208 855.693 582.777 854.009 582.777C852.326 582.777 851.292 584.922 851.292 587.869C851.292 590.817 852.326 592.962 854.009 592.962C855.693 592.962 856.584 590.531 856.584 587.869Z" fill="white"/>
<path d="M862.074 590.157V581.897C862.074 581.237 862.558 580.72 863.219 580.72C863.879 580.72 864.363 581.237 864.363 581.897V590.157C864.363 591.961 865.045 592.962 866.597 592.962C868.148 592.962 868.83 591.961 868.83 590.157V581.897C868.83 581.237 869.314 580.72 869.975 580.72C870.635 580.72 871.119 581.237 871.119 581.897V590.157C871.119 592.984 869.634 595.25 866.597 595.25C863.56 595.25 862.074 592.995 862.074 590.157Z" fill="white"/>
<path d="M876.434 593.842V583.008H874.464C873.804 583.008 873.287 582.524 873.287 581.864C873.287 581.204 873.804 580.72 874.464 580.72H876.434V577.376C876.434 576.716 876.918 576.199 877.578 576.199C878.239 576.199 878.723 576.716 878.723 577.376V580.72H880.692C881.353 580.72 881.87 581.204 881.87 581.864C881.87 582.524 881.353 583.008 880.692 583.008H878.723V593.842C878.723 594.502 878.239 595.019 877.578 595.019C876.918 595.019 876.434 594.502 876.434 593.842Z" fill="white"/>
<path d="M883.442 576.43C883.442 575.606 884.048 575.001 884.873 575.001C885.698 575.001 886.303 575.606 886.303 576.43C886.303 577.255 885.698 577.86 884.873 577.86C884.048 577.86 883.442 577.255 883.442 576.43ZM883.728 593.875V581.864C883.728 581.204 884.213 580.72 884.873 580.72C885.533 580.72 886.017 581.204 886.017 581.864V593.875C886.017 594.535 885.533 595.019 884.873 595.019C884.213 595.019 883.728 594.535 883.728 593.875Z" fill="white"/>
<path d="M889.274 593.875V581.864C889.274 581.204 889.759 580.72 890.419 580.72C891.079 580.72 891.563 581.204 891.563 581.864V582.007C892.135 581.061 893.225 580.489 894.512 580.489C896.548 580.489 898.429 582.238 898.429 585.153V593.875C898.429 594.535 897.945 595.019 897.285 595.019C896.625 595.019 896.14 594.535 896.14 593.875V585.296C896.14 583.69 895.392 582.755 894.028 582.755C892.399 582.755 891.563 583.954 891.563 586.043V593.875C891.563 594.535 891.079 595.019 890.419 595.019C889.759 595.019 889.274 594.535 889.274 593.875Z" fill="white"/>
<path d="M901.61 587.869C901.61 583.866 903.326 580.489 906.275 580.489C907.562 580.489 908.652 581.061 909.191 582.007V581.864C909.191 581.204 909.675 580.72 910.335 580.72C910.995 580.72 911.48 581.204 911.48 581.864V596.162C911.48 599.539 909.246 601.255 906.506 601.255C903.557 601.255 902.127 599.198 901.841 598.285C901.786 598.109 901.753 597.944 901.753 597.801C901.753 597.119 902.27 596.69 902.897 596.69C903.359 596.69 903.755 596.943 903.953 597.405C904.415 598.461 905.329 598.978 906.495 598.978C908.036 598.978 909.18 598.175 909.18 596.173V593.743C908.641 594.689 907.551 595.261 906.264 595.261C903.315 595.261 901.599 591.884 901.599 587.88L901.61 587.869ZM909.191 587.869C909.191 584.922 908.157 582.777 906.473 582.777C904.79 582.777 903.898 585.208 903.898 587.869C903.898 590.531 904.79 592.962 906.473 592.962C908.157 592.962 909.191 590.817 909.191 587.869Z" fill="white"/>
<path d="M810.304 463.351H802.723H800.423C795.505 463.351 791.202 459.732 790.685 454.838C790.157 449.899 793.403 445.61 797.914 444.51C798.277 444.422 798.52 444.081 798.498 443.707C797.793 435.469 804.362 435.029 806.64 435.271C807.025 435.315 807.377 435.073 807.465 434.699C808.929 428.682 814.364 424.217 820.834 424.217C825.841 424.217 830.22 426.889 832.63 430.871C832.817 431.179 833.191 431.333 833.543 431.223C850.895 425.844 851.445 440.033 851.291 443.52C851.269 443.927 851.566 444.268 851.963 444.323C856.639 444.95 860.248 448.942 860.248 453.793C860.248 458.841 856.342 462.966 851.379 463.329C851.148 463.351 850.917 463.351 850.686 463.351H837.24H828.514" stroke="white" stroke-width="2" stroke-linecap="round" stroke-linejoin="round"/>
<path d="M819.602 446.027L812.549 457.917L818.799 457.719L814.243 469.026L829.362 453.738L822.87 453.639L827.876 446.027H819.602Z" stroke="white" stroke-width="2" stroke-linecap="round" stroke-linejoin="round"/>
<path d="M821.946 380.1C831.305 380.1 838.891 378.16 838.891 375.766C838.891 373.373 831.305 371.433 821.946 371.433C812.588 371.433 805.001 373.373 805.001 375.766C805.001 378.16 812.588 380.1 821.946 380.1Z" stroke="white" stroke-width="2" stroke-linecap="round" stroke-linejoin="round"/>
<path d="M838.891 383.147C838.891 385.907 831.299 388.14 821.946 388.14C812.582 388.14 805.001 385.907 805.001 383.147" stroke="white" stroke-width="2" stroke-linecap="round" stroke-linejoin="round"/>
<path d="M838.891 390.989C838.891 393.75 831.299 395.982 821.946 395.982C812.582 395.982 805.001 393.75 805.001 390.989" stroke="white" stroke-width="2" stroke-linecap="round" stroke-linejoin="round"/>
<path d="M805.001 375.766V398.842C805.001 401.603 812.593 403.836 821.946 403.836C831.31 403.836 838.891 401.603 838.891 398.842V375.766" stroke="white" stroke-width="2" stroke-linecap="round" stroke-linejoin="round"/>
<path d="M815.795 385.193C816.524 385.193 817.115 384.602 817.115 383.873C817.115 383.144 816.524 382.553 815.795 382.553C815.066 382.553 814.475 383.144 814.475 383.873C814.475 384.602 815.066 385.193 815.795 385.193Z" fill="white"/>
<path d="M822.078 385.193C822.807 385.193 823.399 384.602 823.399 383.873C823.399 383.144 822.807 382.553 822.078 382.553C821.349 382.553 820.758 383.144 820.758 383.873C820.758 384.602 821.349 385.193 822.078 385.193Z" fill="white"/>
<path d="M828.35 385.193C829.079 385.193 829.67 384.602 829.67 383.873C829.67 383.144 829.079 382.553 828.35 382.553C827.62 382.553 827.029 383.144 827.029 383.873C827.029 384.602 827.62 385.193 828.35 385.193Z" fill="white"/>
<path d="M815.795 393.244C816.524 393.244 817.115 392.653 817.115 391.924C817.115 391.195 816.524 390.604 815.795 390.604C815.066 390.604 814.475 391.195 814.475 391.924C814.475 392.653 815.066 393.244 815.795 393.244Z" fill="white"/>
<path d="M822.078 393.244C822.807 393.244 823.399 392.653 823.399 391.924C823.399 391.195 822.807 390.604 822.078 390.604C821.349 390.604 820.758 391.195 820.758 391.924C820.758 392.653 821.349 393.244 822.078 393.244Z" fill="white"/>
<path d="M828.35 393.244C829.079 393.244 829.67 392.653 829.67 391.924C829.67 391.195 829.079 390.604 828.35 390.604C827.62 390.604 827.029 391.195 827.029 391.924C827.029 392.653 827.62 393.244 828.35 393.244Z" fill="white"/>
<path d="M815.795 401.053C816.524 401.053 817.115 400.462 817.115 399.733C817.115 399.004 816.524 398.413 815.795 398.413C815.066 398.413 814.475 399.004 814.475 399.733C814.475 400.462 815.066 401.053 815.795 401.053Z" fill="white"/>
<path d="M822.078 401.053C822.807 401.053 823.399 400.462 823.399 399.733C823.399 399.004 822.807 398.413 822.078 398.413C821.349 398.413 820.758 399.004 820.758 399.733C820.758 400.462 821.349 401.053 822.078 401.053Z" fill="white"/>
<path d="M828.35 401.053C829.079 401.053 829.67 400.462 829.67 399.733C829.67 399.004 829.079 398.413 828.35 398.413C827.62 398.413 827.029 399.004 827.029 399.733C827.029 400.462 827.62 401.053 828.35 401.053Z" fill="white"/>
<path d="M850.664 484.469H795.868C792.829 484.469 790.366 486.931 790.366 489.968V528.233C790.366 531.27 792.829 533.733 795.868 533.733H850.664C853.703 533.733 856.166 531.27 856.166 528.233V489.968C856.166 486.931 853.703 484.469 850.664 484.469Z" stroke="white" stroke-width="2" stroke-linecap="round" stroke-linejoin="round"/>
<path d="M851.962 489.154H794.569V526.803H851.962V489.154Z" stroke="white" stroke-width="2" stroke-linecap="round" stroke-linejoin="round"/>
<path d="M818.435 533.733L814.54 541.102H831.991L828.261 533.733H818.435Z" stroke="white" stroke-width="2" stroke-linecap="round" stroke-linejoin="round"/>
<path d="M809.313 541.102H837.218" stroke="white" stroke-width="2" stroke-linecap="round" stroke-linejoin="round"/>
<path d="M816.257 530.18H830.275" stroke="white" stroke-width="2" stroke-linecap="round" stroke-linejoin="round"/>
<path d="M774.235 484.469H719.439C716.401 484.469 713.938 486.931 713.938 489.968V528.233C713.938 531.27 716.401 533.733 719.439 533.733H774.235C777.274 533.733 779.737 531.27 779.737 528.233V489.968C779.737 486.931 777.274 484.469 774.235 484.469Z" stroke="white" stroke-width="2" stroke-linecap="round" stroke-linejoin="round"/>
<path d="M775.534 489.154H718.141V526.803H775.534V489.154Z" stroke="white" stroke-width="2" stroke-linecap="round" stroke-linejoin="round"/>
<path d="M742.006 533.733L738.111 541.102H755.574L751.843 533.733H742.006Z" stroke="white" stroke-width="2" stroke-linecap="round" stroke-linejoin="round"/>
<path d="M732.896 541.102H760.801" stroke="white" stroke-width="2" stroke-linecap="round" stroke-linejoin="round"/>
<path d="M739.839 530.18H753.846" stroke="white" stroke-width="2" stroke-linecap="round" stroke-linejoin="round"/>
<path d="M927.082 484.469H872.286C869.247 484.469 866.784 486.931 866.784 489.968V528.233C866.784 531.27 869.247 533.733 872.286 533.733H927.082C930.121 533.733 932.584 531.27 932.584 528.233V489.968C932.584 486.931 930.121 484.469 927.082 484.469Z" stroke="white" stroke-width="2" stroke-linecap="round" stroke-linejoin="round"/>
<path d="M928.38 489.154H870.987V526.803H928.38V489.154Z" stroke="white" stroke-width="2" stroke-linecap="round" stroke-linejoin="round"/>
<path d="M894.853 533.733L890.958 541.102H908.42L904.69 533.733H894.853Z" stroke="white" stroke-width="2" stroke-linecap="round" stroke-linejoin="round"/>
<path d="M885.731 541.102H913.636" stroke="white" stroke-width="2" stroke-linecap="round" stroke-linejoin="round"/>
<path d="M892.686 530.18H906.693" stroke="white" stroke-width="2" stroke-linecap="round" stroke-linejoin="round"/>
<path d="M822.078 420.906V408.312" stroke="white" stroke-width="2" stroke-linecap="round" stroke-linejoin="round"/>
<path d="M822.078 479.585V468.102" stroke="white" stroke-width="2" stroke-linecap="round" stroke-linejoin="round"/>
<path d="M746.078 479.585L803.812 469.752" stroke="white" stroke-width="2" stroke-linecap="round" stroke-linejoin="round"/>
<path d="M898.077 479.585L840.332 469.752" stroke="white" stroke-width="2" stroke-linecap="round" stroke-linejoin="round"/>
</g>
<defs>
<clipPath id="clip0_2316_232">
<rect width="1076" height="721" fill="white"/>
</clipPath>
</defs>
</svg>
