<svg width="1114" height="699" viewBox="0 0 1114 699" fill="none" xmlns="http://www.w3.org/2000/svg">
<path d="M140.535 53.5723H59.4863V238.827H140.535V53.5723Z" stroke="white" stroke-width="2" stroke-linejoin="round"/>
<path d="M60.083 69.3983H141.131" stroke="white" stroke-width="2" stroke-linejoin="round"/>
<path d="M134.555 57.8032H64.4307V63.8459H134.555V57.8032Z" stroke="white" stroke-width="2" stroke-linejoin="round"/>
<path d="M82.623 63.4622V57.8032" stroke="white" stroke-width="2" stroke-linejoin="round"/>
<path d="M100.005 63.4622V57.8032" stroke="white" stroke-width="2" stroke-linejoin="round"/>
<path d="M116.822 63.8565V58.1975" stroke="white" stroke-width="2" stroke-linejoin="round"/>
<path d="M83.071 105.548C92.094 105.548 99.4086 98.2331 99.4086 89.2101C99.4086 80.1871 92.094 72.8726 83.071 72.8726C74.048 72.8726 66.7334 80.1871 66.7334 89.2101C66.7334 98.2331 74.048 105.548 83.071 105.548Z" stroke="white" stroke-width="2" stroke-linejoin="round"/>
<path d="M83.072 96.1054C86.8801 96.1054 89.9672 93.0183 89.9672 89.2101C89.9672 85.402 86.8801 82.3149 83.072 82.3149C79.2639 82.3149 76.1768 85.402 76.1768 89.2101C76.1768 93.0183 79.2639 96.1054 83.072 96.1054Z" stroke="white" stroke-width="2" stroke-linejoin="round"/>
<path d="M116.94 105.548C125.963 105.548 133.278 98.2331 133.278 89.2101C133.278 80.1871 125.963 72.8726 116.94 72.8726C107.917 72.8726 100.603 80.1871 100.603 89.2101C100.603 98.2331 107.917 105.548 116.94 105.548Z" stroke="white" stroke-width="2" stroke-linejoin="round"/>
<path d="M116.94 96.1054C120.748 96.1054 123.835 93.0183 123.835 89.2101C123.835 85.402 120.748 82.3149 116.94 82.3149C113.132 82.3149 110.045 85.402 110.045 89.2101C110.045 93.0183 113.132 96.1054 116.94 96.1054Z" stroke="white" stroke-width="2" stroke-linejoin="round"/>
<path d="M140.151 111.249H59.4863V134.546H140.151V111.249Z" stroke="white" stroke-width="2" stroke-linejoin="round"/>
<path d="M127.82 134.546H110.257V238.827H127.82V134.546Z" stroke="white" stroke-width="2" stroke-linejoin="round"/>
<path d="M94.943 134.546H77.3799V238.827H94.943V134.546Z" stroke="white" stroke-width="2" stroke-linejoin="round"/>
<path d="M86.3535 118.006H135.313" stroke="white" stroke-width="2" stroke-linecap="round" stroke-linejoin="round"/>
<path d="M86.1621 122.141H135.111" stroke="white" stroke-width="2" stroke-linecap="round" stroke-linejoin="round"/>
<path d="M86.1621 126.276H135.111" stroke="white" stroke-width="2" stroke-linecap="round" stroke-linejoin="round"/>
<path d="M81.2697 117.878H64.9961V126.916H81.2697V117.878Z" stroke="white" stroke-width="2" stroke-linejoin="round"/>
<path d="M302.45 53.5723H221.401V238.827H302.45V53.5723Z" stroke="white" stroke-width="2" stroke-linejoin="round"/>
<path d="M221.999 69.3983H303.047" stroke="white" stroke-width="2" stroke-linejoin="round"/>
<path d="M296.472 57.8032H226.348V63.8459H296.472V57.8032Z" stroke="white" stroke-width="2" stroke-linejoin="round"/>
<path d="M244.539 63.4622V57.8032" stroke="white" stroke-width="2" stroke-linejoin="round"/>
<path d="M261.921 63.4622V57.8032" stroke="white" stroke-width="2" stroke-linejoin="round"/>
<path d="M278.737 63.8565V58.1975" stroke="white" stroke-width="2" stroke-linejoin="round"/>
<path d="M244.987 105.548C254.01 105.548 261.325 98.2331 261.325 89.2101C261.325 80.1871 254.01 72.8726 244.987 72.8726C235.964 72.8726 228.649 80.1871 228.649 89.2101C228.649 98.2331 235.964 105.548 244.987 105.548Z" stroke="white" stroke-width="2" stroke-linejoin="round"/>
<path d="M244.987 96.1054C248.795 96.1054 251.882 93.0183 251.882 89.2101C251.882 85.402 248.795 82.3149 244.987 82.3149C241.179 82.3149 238.092 85.402 238.092 89.2101C238.092 93.0183 241.179 96.1054 244.987 96.1054Z" stroke="white" stroke-width="2" stroke-linejoin="round"/>
<path d="M278.866 105.548C287.889 105.548 295.203 98.2331 295.203 89.2101C295.203 80.1871 287.889 72.8726 278.866 72.8726C269.843 72.8726 262.528 80.1871 262.528 89.2101C262.528 98.2331 269.843 105.548 278.866 105.548Z" stroke="white" stroke-width="2" stroke-linejoin="round"/>
<path d="M278.867 96.1054C282.675 96.1054 285.762 93.0183 285.762 89.2101C285.762 85.402 282.675 82.3149 278.867 82.3149C275.059 82.3149 271.972 85.402 271.972 89.2101C271.972 93.0183 275.059 96.1054 278.867 96.1054Z" stroke="white" stroke-width="2" stroke-linejoin="round"/>
<path d="M302.066 111.249H221.401V134.546H302.066V111.249Z" stroke="white" stroke-width="2" stroke-linejoin="round"/>
<path d="M289.737 134.546H272.174V238.827H289.737V134.546Z" stroke="white" stroke-width="2" stroke-linejoin="round"/>
<path d="M256.858 134.546H239.295V238.827H256.858V134.546Z" stroke="white" stroke-width="2" stroke-linejoin="round"/>
<path d="M248.28 118.006H297.229" stroke="white" stroke-width="2" stroke-linecap="round" stroke-linejoin="round"/>
<path d="M248.077 122.141H297.026" stroke="white" stroke-width="2" stroke-linecap="round" stroke-linejoin="round"/>
<path d="M248.077 126.276H297.026" stroke="white" stroke-width="2" stroke-linecap="round" stroke-linejoin="round"/>
<path d="M243.196 117.878H226.923V126.916H243.196V117.878Z" stroke="white" stroke-width="2" stroke-linejoin="round"/>
<path d="M211.182 78.1373H149.284V99.633H211.182V78.1373Z" stroke="white" stroke-width="2" stroke-linejoin="round"/>
<path d="M211.182 165.388H149.284V175.363H211.182V165.388Z" stroke="white" stroke-width="2" stroke-linejoin="round"/>
<path d="M211.182 180.649H149.284V190.625H211.182V180.649Z" stroke="white" stroke-width="2" stroke-linejoin="round"/>
<path d="M158.513 110.994H149.284V120.223H158.513V110.994Z" stroke="white" stroke-width="2" stroke-linejoin="round"/>
<path d="M172.154 110.994H162.925V120.223H172.154V110.994Z" stroke="white" stroke-width="2" stroke-linejoin="round"/>
<path d="M158.513 124.059H149.284V133.289H158.513V124.059Z" stroke="white" stroke-width="2" stroke-linejoin="round"/>
<path d="M172.154 124.059H162.925V133.289H172.154V124.059Z" stroke="white" stroke-width="2" stroke-linejoin="round"/>
<path d="M177.046 111.825H211.181" stroke="white" stroke-width="2" stroke-linecap="round" stroke-linejoin="round"/>
<path d="M177.046 118.976H211.181" stroke="white" stroke-width="2" stroke-linecap="round" stroke-linejoin="round"/>
<path d="M177.046 126.138H211.181" stroke="white" stroke-width="2" stroke-linecap="round" stroke-linejoin="round"/>
<path d="M177.046 133.289H211.181" stroke="white" stroke-width="2" stroke-linecap="round" stroke-linejoin="round"/>
<path d="M149.284 204.127H211.182" stroke="white" stroke-width="2" stroke-linecap="round" stroke-linejoin="round"/>
<path d="M149.284 211.364H211.182" stroke="white" stroke-width="2" stroke-linecap="round" stroke-linejoin="round"/>
<path d="M149.284 218.834H211.182" stroke="white" stroke-width="2" stroke-linecap="round" stroke-linejoin="round"/>
<path d="M149.284 227.211H211.182" stroke="white" stroke-width="2" stroke-linecap="round" stroke-linejoin="round"/>
<path d="M221.402 53.5723H140.354V238.827H221.402V53.5723Z" stroke="white" stroke-width="2" stroke-linejoin="round"/>
<path d="M139.703 69.3983H220.752" stroke="white" stroke-width="2" stroke-linejoin="round"/>
<path d="M153.813 153.527C156.214 153.527 158.161 151.58 158.161 149.179C158.161 146.777 156.214 144.83 153.813 144.83C151.412 144.83 149.465 146.777 149.465 149.179C149.465 151.58 151.412 153.527 153.813 153.527Z" stroke="white" stroke-width="2" stroke-linejoin="round"/>
<path d="M167.146 153.527C169.547 153.527 171.494 151.58 171.494 149.179C171.494 146.777 169.547 144.83 167.146 144.83C164.745 144.83 162.798 146.777 162.798 149.179C162.798 151.58 164.745 153.527 167.146 153.527Z" stroke="white" stroke-width="2" stroke-linejoin="round"/>
<path d="M180.478 153.527C182.879 153.527 184.826 151.58 184.826 149.179C184.826 146.777 182.879 144.83 180.478 144.83C178.077 144.83 176.13 146.777 176.13 149.179C176.13 151.58 178.077 153.527 180.478 153.527Z" stroke="white" stroke-width="2" stroke-linejoin="round"/>
<path d="M193.8 153.527C196.202 153.527 198.148 151.58 198.148 149.179C198.148 146.777 196.202 144.83 193.8 144.83C191.399 144.83 189.452 146.777 189.452 149.179C189.452 151.58 191.399 153.527 193.8 153.527Z" stroke="white" stroke-width="2" stroke-linejoin="round"/>
<path d="M207.132 153.527C209.534 153.527 211.481 151.58 211.481 149.179C211.481 146.777 209.534 144.83 207.132 144.83C204.731 144.83 202.784 146.777 202.784 149.179C202.784 151.58 204.731 153.527 207.132 153.527Z" stroke="white" stroke-width="2" stroke-linejoin="round"/>
<path d="M215.296 58.1016H145.171V63.8565H215.296V58.1016Z" stroke="white" stroke-width="2" stroke-linejoin="round"/>
<path d="M163.352 63.4835V58.1016" stroke="white" stroke-width="2" stroke-linejoin="round"/>
<path d="M180.745 63.4835V58.1016" stroke="white" stroke-width="2" stroke-linejoin="round"/>
<path d="M197.562 63.8565V58.4746" stroke="white" stroke-width="2" stroke-linejoin="round"/>
<path d="M1 53.5723H59.487V238.827H46.7729" stroke="white" stroke-width="2" stroke-linejoin="round"/>
<path d="M1.59668 69.3983H60.0837" stroke="white" stroke-width="2" stroke-linejoin="round"/>
<path d="M1.5752 57.8032H53.5187V63.8565H1.5752" stroke="white" stroke-width="2" stroke-linejoin="round"/>
<path d="M1.5752 63.4622V57.8032" stroke="white" stroke-width="2" stroke-linejoin="round"/>
<path d="M18.957 63.4622V57.8032" stroke="white" stroke-width="2" stroke-linejoin="round"/>
<path d="M35.7744 63.8565V58.1975" stroke="white" stroke-width="2" stroke-linejoin="round"/>
<path d="M2.02344 72.8726C11.0501 72.8726 18.361 80.1834 18.361 89.2101C18.361 98.2368 11.0501 105.548 2.02344 105.548" stroke="white" stroke-width="2" stroke-linejoin="round"/>
<path d="M2.02344 82.3149C5.83874 82.3149 8.91868 85.4055 8.91868 89.2101C8.91868 93.0148 5.82808 96.1054 2.02344 96.1054" stroke="white" stroke-width="2" stroke-linejoin="round"/>
<path d="M35.8923 105.548C44.9153 105.548 52.2298 98.2331 52.2298 89.2101C52.2298 80.1871 44.9153 72.8726 35.8923 72.8726C26.8693 72.8726 19.5547 80.1871 19.5547 89.2101C19.5547 98.2331 26.8693 105.548 35.8923 105.548Z" stroke="white" stroke-width="2" stroke-linejoin="round"/>
<path d="M35.8923 96.1054C39.7005 96.1054 42.7876 93.0183 42.7876 89.2101C42.7876 85.402 39.7005 82.3149 35.8923 82.3149C32.0842 82.3149 28.9971 85.402 28.9971 89.2101C28.9971 93.0183 32.0842 96.1054 35.8923 96.1054Z" stroke="white" stroke-width="2" stroke-linejoin="round"/>
<path d="M1.29785 111.249H59.1028V134.546H1.29785" stroke="white" stroke-width="2" stroke-linejoin="round"/>
<path d="M46.7721 134.546H29.209V238.827H46.7721V134.546Z" stroke="white" stroke-width="2" stroke-linejoin="round"/>
<path d="M13.8945 134.546V238.827" stroke="white" stroke-width="2" stroke-linejoin="round"/>
<path d="M5.30566 118.006H54.2651" stroke="white" stroke-width="2" stroke-linecap="round" stroke-linejoin="round"/>
<path d="M5.11328 122.141H54.0621" stroke="white" stroke-width="2" stroke-linecap="round" stroke-linejoin="round"/>
<path d="M5.11328 126.276H54.0621" stroke="white" stroke-width="2" stroke-linecap="round" stroke-linejoin="round"/>
<path d="M460.519 72.2544H408.149V218.706H460.519V72.2544Z" stroke="white" stroke-width="2" stroke-linejoin="round"/>
<path d="M419.809 99.2173C421.692 99.2173 423.219 97.6905 423.219 95.807C423.219 93.9235 421.692 92.3967 419.809 92.3967C417.925 92.3967 416.398 93.9235 416.398 95.807C416.398 97.6905 417.925 99.2173 419.809 99.2173Z" stroke="white" stroke-width="2" stroke-linejoin="round"/>
<path d="M429.954 99.2173C431.838 99.2173 433.365 97.6905 433.365 95.807C433.365 93.9235 431.838 92.3967 429.954 92.3967C428.071 92.3967 426.544 93.9235 426.544 95.807C426.544 97.6905 428.071 99.2173 429.954 99.2173Z" stroke="white" stroke-width="2" stroke-linejoin="round"/>
<path d="M440.089 99.1747C441.973 99.1747 443.499 97.6478 443.499 95.7644C443.499 93.8809 441.973 92.354 440.089 92.354C438.206 92.354 436.679 93.8809 436.679 95.7644C436.679 97.6478 438.206 99.1747 440.089 99.1747Z" stroke="white" stroke-width="2" stroke-linejoin="round"/>
<path d="M433.418 167.125C435.666 167.125 437.489 165.303 437.489 163.054C437.489 160.806 435.666 158.983 433.418 158.983C431.169 158.983 429.347 160.806 429.347 163.054C429.347 165.303 431.169 167.125 433.418 167.125Z" stroke="white" stroke-width="2" stroke-linejoin="round"/>
<path d="M433.417 184.859C434.542 184.859 435.453 183.948 435.453 182.823C435.453 181.699 434.542 180.788 433.417 180.788C432.293 180.788 431.382 181.699 431.382 182.823C431.382 183.948 432.293 184.859 433.417 184.859Z" stroke="white" stroke-width="2" stroke-linejoin="round"/>
<path d="M433.418 193.182C439.139 193.182 443.777 188.545 443.777 182.823C443.777 177.102 439.139 172.465 433.418 172.465C427.697 172.465 423.06 177.102 423.06 182.823C423.06 188.545 427.697 193.182 433.418 193.182Z" stroke="white" stroke-width="2" stroke-linejoin="round"/>
<path d="M450.235 99.1747C452.118 99.1747 453.645 97.6478 453.645 95.7644C453.645 93.8809 452.118 92.354 450.235 92.354C448.351 92.354 446.824 93.8809 446.824 95.7644C446.824 97.6478 448.351 99.1747 450.235 99.1747Z" stroke="white" stroke-width="2" stroke-linejoin="round"/>
<path d="M416.398 114.692H452.612" stroke="white" stroke-width="2" stroke-linecap="round" stroke-linejoin="round"/>
<path d="M408.149 84.5209H460.519" stroke="white" stroke-width="2" stroke-linecap="round" stroke-linejoin="round"/>
<path d="M408.225 211.406H460.594" stroke="white" stroke-width="2" stroke-linecap="round" stroke-linejoin="round"/>
<path d="M416.398 121.789H452.612" stroke="white" stroke-width="2" stroke-linecap="round" stroke-linejoin="round"/>
<path d="M416.398 128.887H452.612" stroke="white" stroke-width="2" stroke-linecap="round" stroke-linejoin="round"/>
<path d="M597.092 72.2544H480.289C477.346 72.2544 474.96 74.6401 474.96 77.5831V162.383C474.96 165.326 477.346 167.712 480.289 167.712H597.092C600.035 167.712 602.421 165.326 602.421 162.383V77.5831C602.421 74.6401 600.035 72.2544 597.092 72.2544Z" stroke="white" stroke-width="2" stroke-linejoin="round"/>
<path d="M595.355 80.258H482.036V155.338H595.355V80.258Z" stroke="white" stroke-width="2" stroke-linejoin="round"/>
<path d="M529.333 167.722L521.788 181.992H555.604L548.378 167.722H529.333Z" stroke="white" stroke-width="2" stroke-linejoin="round"/>
<path d="M511.663 181.992H565.717" stroke="white" stroke-width="2" stroke-linecap="round" stroke-linejoin="round"/>
<path d="M525.123 162.01H552.256" stroke="white" stroke-width="2" stroke-linecap="round" stroke-linejoin="round"/>
<path d="M477.219 213.218L488.313 189.879H538.615H588.086L600.161 213.218H477.219Z" stroke="white" stroke-width="2" stroke-linecap="round" stroke-linejoin="round"/>
<path d="M477.219 213.218V218.706H600.161V213.218" stroke="white" stroke-width="2" stroke-linecap="round" stroke-linejoin="round"/>
<path d="M491.809 195.474H499.929" stroke="white" stroke-width="2" stroke-linecap="round" stroke-linejoin="round"/>
<path d="M505.877 195.474H513.998" stroke="white" stroke-width="2" stroke-linecap="round" stroke-linejoin="round"/>
<path d="M498.714 201.548H506.845" stroke="white" stroke-width="2" stroke-linecap="round" stroke-linejoin="round"/>
<path d="M513.038 201.548H521.159" stroke="white" stroke-width="2" stroke-linecap="round" stroke-linejoin="round"/>
<path d="M527.233 201.548H535.354" stroke="white" stroke-width="2" stroke-linecap="round" stroke-linejoin="round"/>
<path d="M576.235 195.474H584.356" stroke="white" stroke-width="2" stroke-linecap="round" stroke-linejoin="round"/>
<path d="M541.546 201.548H549.667" stroke="white" stroke-width="2" stroke-linecap="round" stroke-linejoin="round"/>
<path d="M555.858 201.548H563.99" stroke="white" stroke-width="2" stroke-linecap="round" stroke-linejoin="round"/>
<path d="M570.055 201.548H578.186" stroke="white" stroke-width="2" stroke-linecap="round" stroke-linejoin="round"/>
<path d="M583.109 201.548H588.672" stroke="white" stroke-width="2" stroke-linecap="round" stroke-linejoin="round"/>
<path d="M487.493 201.548H493.056" stroke="white" stroke-width="2" stroke-linecap="round" stroke-linejoin="round"/>
<path d="M562.169 195.474H570.29" stroke="white" stroke-width="2" stroke-linecap="round" stroke-linejoin="round"/>
<path d="M548.09 195.474H556.221" stroke="white" stroke-width="2" stroke-linecap="round" stroke-linejoin="round"/>
<path d="M534.022 195.474H542.143" stroke="white" stroke-width="2" stroke-linecap="round" stroke-linejoin="round"/>
<path d="M519.944 195.474H528.076" stroke="white" stroke-width="2" stroke-linecap="round" stroke-linejoin="round"/>
<path d="M491.809 207.378H499.929" stroke="white" stroke-width="2" stroke-linecap="round" stroke-linejoin="round"/>
<path d="M505.877 207.378H513.998" stroke="white" stroke-width="2" stroke-linecap="round" stroke-linejoin="round"/>
<path d="M576.235 207.378H584.356" stroke="white" stroke-width="2" stroke-linecap="round" stroke-linejoin="round"/>
<path d="M562.169 207.378H570.29" stroke="white" stroke-width="2" stroke-linecap="round" stroke-linejoin="round"/>
<path d="M548.09 207.378H556.221" stroke="white" stroke-width="2" stroke-linecap="round" stroke-linejoin="round"/>
<path d="M534.022 207.378H542.143" stroke="white" stroke-width="2" stroke-linecap="round" stroke-linejoin="round"/>
<path d="M519.944 207.378H528.076" stroke="white" stroke-width="2" stroke-linecap="round" stroke-linejoin="round"/>
<path d="M632.538 210.447C631.291 205.118 627.646 200.621 622.616 198.458C620.74 197.658 620.058 197.744 619.131 197.744H610.84C608.218 198.074 606.14 200.93 607.664 203.413L612.577 211.428C613.163 212.387 614.197 212.962 615.316 212.962H631.493C633.497 212.962 632.538 210.447 632.538 210.447Z" stroke="white" stroke-width="2" stroke-linecap="round" stroke-linejoin="round"/>
<path d="M620.495 205.353C618.587 200.088 614.602 197.744 614.602 197.744" stroke="white" stroke-width="2" stroke-linecap="round" stroke-linejoin="round"/>
<path d="M607.12 201.602L606.992 209.552L612.683 218.76H632.772V211.758" stroke="white" stroke-width="2" stroke-linecap="round" stroke-linejoin="round"/>
<path d="M613.28 212.632V218.408" stroke="white" stroke-width="2" stroke-linecap="round" stroke-linejoin="round"/>
<path d="M610.84 197.744C605.948 197.744 598.158 183.037 614.602 179.03C635.149 174.021 633.785 155.338 603.753 155.338" stroke="white" stroke-width="2" stroke-linecap="round" stroke-linejoin="round"/>
<path d="M1112.12 1H1.29883V347.137H517.92L868.256 697.473L1113 452.719L1007.42 347.137H1112.12" stroke="white" stroke-width="2" stroke-linecap="round" stroke-linejoin="round"/>
<path d="M819.031 184.816L803.993 199.651" stroke="white" stroke-width="2" stroke-linecap="round" stroke-linejoin="round"/>
<path d="M854.829 153.473L835.07 169.15" stroke="white" stroke-width="2" stroke-linecap="round" stroke-linejoin="round"/>
<path d="M839.386 110.365L857.865 124.795" stroke="white" stroke-width="2" stroke-linecap="round" stroke-linejoin="round"/>
<path d="M826.874 72.5741V79.8424" stroke="white" stroke-width="2" stroke-linecap="round" stroke-linejoin="round"/>
<path d="M931.273 102.382L923.877 99.7928" stroke="white" stroke-width="2" stroke-linecap="round" stroke-linejoin="round"/>
<path d="M917.344 66.4355L936.889 90.2758" stroke="white" stroke-width="2" stroke-linecap="round" stroke-linejoin="round"/>
<path d="M905.227 79.6825V72.6167" stroke="white" stroke-width="2" stroke-linecap="round" stroke-linejoin="round"/>
<path d="M841.155 98.386H886.619" stroke="white" stroke-width="2" stroke-linecap="round" stroke-linejoin="round"/>
<path d="M800.711 120.862L813.489 111.015" stroke="white" stroke-width="2" stroke-linecap="round" stroke-linejoin="round"/>
<path d="M854.305 214.092L834.302 185.136" stroke="white" stroke-width="2" stroke-linecap="round" stroke-linejoin="round"/>
<path d="M914.988 221.722L880.693 225.964" stroke="white" stroke-width="2" stroke-linecap="round" stroke-linejoin="round"/>
<path d="M941.983 195.005L936.313 203.221" stroke="white" stroke-width="2" stroke-linecap="round" stroke-linejoin="round"/>
<path d="M888.047 146.088L929.855 169.267" stroke="white" stroke-width="2" stroke-linecap="round" stroke-linejoin="round"/>
<path d="M892.46 179.019L883.241 152.131" stroke="white" stroke-width="2" stroke-linecap="round" stroke-linejoin="round"/>
<path d="M120.512 295.055V277.652C120.512 277.012 120.981 276.543 121.62 276.543C122.089 276.543 122.483 276.767 122.675 277.236L128.665 291.922L134.654 277.236C134.846 276.767 135.24 276.543 135.709 276.543C136.348 276.543 136.817 277.012 136.817 277.652V295.055C136.817 295.695 136.348 296.163 135.709 296.163C135.07 296.163 134.601 295.695 134.601 295.055V283.194L129.752 295.055C129.528 295.609 129.229 295.918 128.675 295.918C128.121 295.918 127.812 295.609 127.599 295.055L122.75 283.194V295.055C122.75 295.695 122.281 296.163 121.641 296.163C121.002 296.163 120.533 295.695 120.533 295.055H120.512Z" fill="white"/>
<path d="M140.047 292.199C140.047 289.982 141.209 288.426 143.148 287.904L144.949 287.403C146.026 287.094 146.697 286.828 146.697 285.794C146.697 284.76 146.09 284.302 144.811 284.302C143.532 284.302 142.786 284.824 142.125 285.634C141.848 285.964 141.539 286.082 141.24 286.082C140.686 286.082 140.132 285.634 140.132 284.973C140.132 284.75 140.185 284.504 140.441 284.195C141.656 282.757 142.903 282.085 144.821 282.085C147.283 282.085 148.924 283.503 148.924 285.794V295.044C148.924 295.684 148.455 296.153 147.816 296.153C147.177 296.153 146.708 295.684 146.708 295.044V294.682C146.153 295.652 145.184 296.377 143.692 296.377C141.805 296.377 140.058 294.959 140.058 292.188L140.047 292.199ZM144.097 294.33C145.45 294.33 146.697 293.19 146.697 290.92V288.735C146.388 289.236 145.898 289.428 145.312 289.599L144.033 289.961C142.679 290.345 142.264 291.037 142.264 292.21C142.264 293.648 143.063 294.341 144.097 294.341V294.33Z" fill="white"/>
<path d="M151.685 278.153C151.685 277.353 152.271 276.767 153.07 276.767C153.869 276.767 154.455 277.353 154.455 278.153C154.455 278.952 153.869 279.538 153.07 279.538C152.271 279.538 151.685 278.952 151.685 278.153ZM151.962 295.055V283.417C151.962 282.778 152.431 282.309 153.07 282.309C153.709 282.309 154.178 282.778 154.178 283.417V295.055C154.178 295.695 153.709 296.163 153.07 296.163C152.431 296.163 151.962 295.695 151.962 295.055Z" fill="white"/>
<path d="M157.343 295.055V283.417C157.343 282.778 157.812 282.309 158.451 282.309C159.091 282.309 159.559 282.778 159.559 283.417V283.556C160.114 282.639 161.169 282.085 162.416 282.085C164.387 282.085 166.21 283.78 166.21 286.604V295.055C166.21 295.695 165.741 296.163 165.101 296.163C164.462 296.163 163.993 295.695 163.993 295.055V286.742C163.993 285.186 163.268 284.281 161.947 284.281C160.369 284.281 159.559 285.442 159.559 287.467V295.055C159.559 295.695 159.091 296.163 158.451 296.163C157.812 296.163 157.343 295.695 157.343 295.055Z" fill="white"/>
<path d="M170.782 295.023V284.526H169.428C168.789 284.526 168.288 284.057 168.288 283.417C168.288 282.778 168.789 282.309 169.428 282.309H170.782V280.199C170.782 278.259 172.274 276.767 174.214 276.767H175.375C176.015 276.767 176.484 277.236 176.484 277.876C176.484 278.515 176.015 278.984 175.375 278.984H174.214C173.489 278.984 172.999 279.485 172.999 280.199V282.309H175.354C175.993 282.309 176.494 282.778 176.494 283.417C176.494 284.057 175.993 284.526 175.354 284.526H172.999V295.023C172.999 295.663 172.53 296.163 171.89 296.163C171.251 296.163 170.782 295.663 170.782 295.023Z" fill="white"/>
<path d="M178.402 295.055V283.417C178.402 282.757 178.85 282.309 179.511 282.309C180.171 282.309 180.619 282.757 180.619 283.417V283.641C181.141 282.778 181.973 282.085 183.166 282.085C184.882 282.085 185.884 283.332 185.884 285.027V285.357C185.884 285.996 185.415 286.465 184.775 286.465C184.136 286.465 183.667 285.996 183.667 285.357V285.027C183.667 284.451 183.337 284.004 182.644 284.004C181.482 284.004 180.619 285.666 180.619 288.746V295.066C180.619 295.726 180.171 296.174 179.511 296.174C178.85 296.174 178.402 295.726 178.402 295.066V295.055Z" fill="white"/>
<path d="M187.685 292.199C187.685 289.982 188.846 288.426 190.786 287.904L192.587 287.403C193.663 287.094 194.335 286.828 194.335 285.794C194.335 284.76 193.727 284.302 192.448 284.302C191.169 284.302 190.423 284.824 189.763 285.634C189.486 285.964 189.177 286.082 188.878 286.082C188.324 286.082 187.77 285.634 187.77 284.973C187.77 284.75 187.823 284.504 188.079 284.195C189.294 282.757 190.541 282.085 192.459 282.085C194.921 282.085 196.562 283.503 196.562 285.794V295.044C196.562 295.684 196.093 296.153 195.454 296.153C194.814 296.153 194.345 295.684 194.345 295.044V294.682C193.791 295.652 192.821 296.377 191.329 296.377C189.443 296.377 187.695 294.959 187.695 292.188L187.685 292.199ZM191.724 294.33C193.077 294.33 194.324 293.19 194.324 290.92V288.735C194.015 289.236 193.525 289.428 192.939 289.599L191.66 289.961C190.306 290.345 189.891 291.037 189.891 292.21C189.891 293.648 190.69 294.341 191.724 294.341V294.33Z" fill="white"/>
<path d="M200.015 295.279V283.417C200.015 282.778 200.484 282.309 201.123 282.309C201.762 282.309 202.231 282.778 202.231 283.417V283.556C202.786 282.639 203.787 282.085 205.002 282.085C206.526 282.085 207.773 282.746 208.519 284.131C209.297 282.885 210.597 282.085 212.068 282.085C214.615 282.085 216.363 283.972 216.363 287.851V295.055C216.363 295.695 215.894 296.163 215.255 296.163C214.615 296.163 214.146 295.695 214.146 295.055V287.851C214.146 285.581 213.56 284.281 211.791 284.281C210.16 284.281 209.297 285.613 209.297 287.915V295.066C209.297 295.705 208.828 296.174 208.189 296.174C207.549 296.174 207.08 295.705 207.08 295.066V287.861C207.08 285.591 206.494 284.291 204.725 284.291C203.095 284.291 202.231 285.623 202.231 287.925V295.3C202.231 295.94 201.762 296.409 201.123 296.409C200.484 296.409 200.015 295.94 200.015 295.3V295.279Z" fill="white"/>
<path d="M219.4 289.236C219.4 285.357 221.116 282.085 224.196 282.085C227.276 282.085 228.715 285.08 228.715 288.458C228.715 289.098 228.214 289.567 227.575 289.567H221.617C221.702 292.007 222.693 294.171 224.335 294.171C225.273 294.171 225.997 293.51 226.445 292.508C226.637 292.06 226.999 291.815 227.447 291.815C228.033 291.815 228.587 292.263 228.587 292.892C228.587 293.062 228.555 293.254 228.48 293.414C227.617 295.322 226.157 296.377 224.356 296.377C221.201 296.377 219.422 293.105 219.422 289.226L219.4 289.236ZM221.788 287.35H226.445C226.221 285.687 225.528 284.302 224.196 284.302C222.864 284.302 222.118 285.602 221.788 287.35Z" fill="white"/>
<path d="M420.918 295.055V277.876C420.918 277.236 421.387 276.767 422.026 276.767H425.628C429.263 276.767 431.256 279.208 431.256 282.533C431.256 285.858 429.263 288.298 425.628 288.298H423.135V295.055C423.135 295.695 422.666 296.163 422.026 296.163C421.387 296.163 420.918 295.695 420.918 295.055ZM425.628 286.071C427.813 286.071 429.039 284.547 429.039 282.522C429.039 280.497 427.824 278.973 425.628 278.973H423.135V286.071H425.628Z" fill="white"/>
<path d="M433.056 289.236C433.056 285.357 434.771 282.085 437.851 282.085C440.931 282.085 442.37 285.08 442.37 288.458C442.37 289.098 441.869 289.567 441.23 289.567H435.272C435.358 292.007 436.349 294.171 437.99 294.171C438.928 294.171 439.652 293.51 440.1 292.508C440.292 292.06 440.654 291.815 441.102 291.815C441.688 291.815 442.242 292.263 442.242 292.892C442.242 293.062 442.21 293.254 442.136 293.414C441.272 295.322 439.812 296.377 438.011 296.377C434.857 296.377 433.077 293.105 433.077 289.226L433.056 289.236ZM435.432 287.35H440.089C439.866 285.687 439.173 284.302 437.841 284.302C436.509 284.302 435.763 285.602 435.432 287.35Z" fill="white"/>
<path d="M445.525 295.055V283.417C445.525 282.757 445.973 282.309 446.634 282.309C447.295 282.309 447.742 282.757 447.742 283.417V283.641C448.264 282.778 449.096 282.085 450.289 282.085C452.005 282.085 453.007 283.332 453.007 285.027V285.357C453.007 285.996 452.538 286.465 451.898 286.465C451.259 286.465 450.79 285.996 450.79 285.357V285.027C450.79 284.44 450.46 284.004 449.767 284.004C448.605 284.004 447.742 285.666 447.742 288.746V295.066C447.742 295.726 447.295 296.174 446.634 296.174C445.973 296.174 445.525 295.726 445.525 295.066V295.055Z" fill="white"/>
<path d="M455.192 294.693C454.862 294.384 454.776 294.107 454.776 293.83C454.776 293.169 455.245 292.689 455.831 292.689C456.162 292.689 456.439 292.86 456.769 293.137C457.43 293.691 458.155 294.16 459.231 294.16C460.446 294.16 461.139 293.467 461.139 292.359C461.139 291.496 460.585 290.92 459.529 290.558L458.006 290.036C456.119 289.375 454.989 287.787 454.989 285.879C454.989 283.662 456.652 282.085 458.922 282.085C460.531 282.085 461.746 282.725 462.716 283.609C462.993 283.854 463.1 284.195 463.1 284.472C463.1 285.08 462.599 285.581 461.991 285.581C461.682 285.581 461.437 285.474 461.213 285.272C460.467 284.611 459.796 284.302 458.911 284.302C457.974 284.302 457.196 284.824 457.196 285.879C457.196 286.881 457.75 287.595 458.89 287.989L460.414 288.512C462.109 289.098 463.355 290.451 463.355 292.369C463.355 294.81 461.554 296.387 459.231 296.387C457.515 296.387 456.268 295.663 455.181 294.693H455.192Z" fill="white"/>
<path d="M466.051 289.236C466.051 285.357 467.767 282.085 470.847 282.085C473.926 282.085 475.642 285.357 475.642 289.236C475.642 293.115 473.926 296.387 470.847 296.387C467.767 296.387 466.051 293.115 466.051 289.236ZM473.426 289.236C473.426 286.657 472.488 284.302 470.847 284.302C469.205 284.302 468.268 286.657 468.268 289.236C468.268 291.815 469.205 294.171 470.847 294.171C472.488 294.171 473.426 291.815 473.426 289.236Z" fill="white"/>
<path d="M478.797 295.055V283.417C478.797 282.778 479.266 282.309 479.905 282.309C480.545 282.309 481.014 282.778 481.014 283.417V283.556C481.568 282.639 482.623 282.085 483.87 282.085C485.841 282.085 487.664 283.78 487.664 286.604V295.055C487.664 295.695 487.195 296.163 486.555 296.163C485.916 296.163 485.447 295.695 485.447 295.055V286.742C485.447 285.186 484.722 284.281 483.401 284.281C481.824 284.281 481.014 285.442 481.014 287.467V295.055C481.014 295.695 480.545 296.163 479.905 296.163C479.266 296.163 478.797 295.695 478.797 295.055Z" fill="white"/>
<path d="M490.713 292.199C490.713 289.982 491.875 288.426 493.814 287.904L495.615 287.403C496.692 287.094 497.363 286.817 497.363 285.794C497.363 284.771 496.756 284.302 495.477 284.302C494.198 284.302 493.452 284.824 492.791 285.634C492.514 285.964 492.205 286.082 491.906 286.082C491.352 286.082 490.798 285.634 490.798 284.973C490.798 284.75 490.851 284.504 491.107 284.195C492.322 282.757 493.569 282.085 495.487 282.085C497.949 282.085 499.59 283.503 499.59 285.794V295.044C499.59 295.684 499.121 296.153 498.482 296.153C497.843 296.153 497.374 295.684 497.374 295.044V294.682C496.819 295.652 495.85 296.377 494.358 296.377C492.471 296.377 490.724 294.959 490.724 292.188L490.713 292.199ZM494.763 294.33C496.116 294.33 497.363 293.19 497.363 290.92V288.735C497.054 289.236 496.564 289.428 495.978 289.599L494.699 289.961C493.345 290.345 492.93 291.037 492.93 292.21C492.93 293.648 493.729 294.341 494.763 294.341V294.33Z" fill="white"/>
<path d="M502.627 295.055V277.876C502.627 277.236 503.096 276.767 503.735 276.767C504.375 276.767 504.844 277.236 504.844 277.876V295.055C504.844 295.695 504.375 296.163 503.735 296.163C503.096 296.163 502.627 295.695 502.627 295.055Z" fill="white"/>
<path d="M513.156 286.465C513.156 281.339 514.989 276.543 519.284 276.543C521.671 276.543 523.249 277.897 524.378 280.561C524.464 280.753 524.517 280.945 524.517 281.115C524.517 281.755 524.048 282.224 523.409 282.224C522.993 282.224 522.545 282 522.353 281.499C521.767 280.028 521.021 278.76 519.274 278.76C516.449 278.76 515.362 282.586 515.362 286.465C515.362 290.345 516.439 294.171 519.274 294.171C521.021 294.171 521.767 292.892 522.353 291.432C522.545 290.931 522.993 290.707 523.409 290.707C524.048 290.707 524.517 291.176 524.517 291.815C524.517 291.986 524.464 292.178 524.378 292.369C523.238 295.034 521.661 296.387 519.284 296.387C514.989 296.387 513.156 291.591 513.156 286.465Z" fill="white"/>
<path d="M526.926 289.236C526.926 285.357 528.642 282.085 531.722 282.085C534.801 282.085 536.517 285.357 536.517 289.236C536.517 293.115 534.801 296.387 531.722 296.387C528.642 296.387 526.926 293.115 526.926 289.236ZM534.301 289.236C534.301 286.657 533.363 284.302 531.722 284.302C530.08 284.302 529.143 286.657 529.143 289.236C529.143 291.815 530.08 294.171 531.722 294.171C533.363 294.171 534.301 291.815 534.301 289.236Z" fill="white"/>
<path d="M539.703 295.268V283.407C539.703 282.767 540.172 282.298 540.811 282.298C541.451 282.298 541.92 282.767 541.92 283.407V283.545C542.474 282.629 543.476 282.075 544.691 282.075C546.215 282.075 547.462 282.735 548.208 284.121C548.986 282.874 550.286 282.075 551.756 282.075C554.304 282.075 556.051 283.961 556.051 287.84V295.044C556.051 295.684 555.582 296.153 554.943 296.153C554.304 296.153 553.835 295.684 553.835 295.044V287.84C553.835 285.57 553.248 284.27 551.479 284.27C549.849 284.27 548.986 285.602 548.986 287.904V295.055C548.986 295.695 548.517 296.163 547.877 296.163C547.238 296.163 546.769 295.695 546.769 295.055V287.851C546.769 285.581 546.183 284.281 544.414 284.281C542.783 284.281 541.92 285.613 541.92 287.915V295.29C541.92 295.929 541.451 296.398 540.811 296.398C540.172 296.398 539.703 295.929 539.703 295.29V295.268Z" fill="white"/>
<path d="M559.537 300.874V283.417C559.537 282.778 560.006 282.309 560.645 282.309C561.285 282.309 561.754 282.778 561.754 283.417V283.556C562.276 282.639 563.331 282.085 564.578 282.085C567.434 282.085 569.097 285.357 569.097 289.236C569.097 293.115 567.434 296.387 564.578 296.387C563.331 296.387 562.276 295.833 561.754 294.917V300.874C561.754 301.513 561.285 301.982 560.645 301.982C560.006 301.982 559.537 301.513 559.537 300.874ZM566.88 289.236C566.88 286.657 566.027 284.302 564.386 284.302C562.745 284.302 561.754 286.38 561.754 289.236C561.754 292.092 562.756 294.171 564.386 294.171C566.017 294.171 566.88 291.815 566.88 289.236Z" fill="white"/>
<path d="M572.208 291.453V283.449C572.208 282.81 572.677 282.309 573.316 282.309C573.956 282.309 574.425 282.81 574.425 283.449V291.453C574.425 293.201 575.085 294.171 576.588 294.171C578.091 294.171 578.752 293.201 578.752 291.453V283.449C578.752 282.81 579.22 282.309 579.86 282.309C580.499 282.309 580.968 282.81 580.968 283.449V291.453C580.968 294.192 579.53 296.387 576.588 296.387C573.647 296.387 572.208 294.203 572.208 291.453Z" fill="white"/>
<path d="M586.116 295.023V284.515H584.209C583.569 284.515 583.068 284.046 583.068 283.407C583.068 282.767 583.569 282.298 584.209 282.298H586.116V279.059C586.116 278.419 586.585 277.918 587.225 277.918C587.864 277.918 588.333 278.419 588.333 279.059V282.298H590.241C590.88 282.298 591.381 282.767 591.381 283.407C591.381 284.046 590.88 284.515 590.241 284.515H588.333V295.023C588.333 295.663 587.864 296.163 587.225 296.163C586.585 296.163 586.116 295.663 586.116 295.023Z" fill="white"/>
<path d="M592.904 278.153C592.904 277.353 593.49 276.767 594.29 276.767C595.089 276.767 595.675 277.343 595.675 278.153C595.675 278.963 595.1 279.538 594.29 279.538C593.48 279.538 592.904 278.952 592.904 278.153ZM593.181 295.055V283.417C593.181 282.778 593.65 282.309 594.29 282.309C594.929 282.309 595.398 282.778 595.398 283.417V295.055C595.398 295.695 594.929 296.163 594.29 296.163C593.65 296.163 593.181 295.695 593.181 295.055Z" fill="white"/>
<path d="M598.553 295.055V283.417C598.553 282.778 599.022 282.309 599.661 282.309C600.301 282.309 600.769 282.778 600.769 283.417V283.556C601.324 282.639 602.379 282.085 603.626 282.085C605.597 282.085 607.42 283.78 607.42 286.604V295.055C607.42 295.695 606.951 296.163 606.311 296.163C605.672 296.163 605.203 295.695 605.203 295.055V286.742C605.203 285.186 604.478 284.281 603.157 284.281C601.579 284.281 600.769 285.442 600.769 287.467V295.055C600.769 295.695 600.301 296.163 599.661 296.163C599.022 296.163 598.553 295.695 598.553 295.055Z" fill="white"/>
<path d="M610.5 289.236C610.5 285.357 612.162 282.085 615.019 282.085C616.265 282.085 617.321 282.639 617.843 283.556V283.417C617.843 282.778 618.312 282.309 618.951 282.309C619.591 282.309 620.059 282.778 620.059 283.417V297.272C620.059 300.544 617.896 302.206 615.232 302.206C612.376 302.206 610.99 300.213 610.713 299.318C610.66 299.148 610.628 298.988 610.628 298.849C610.628 298.188 611.129 297.773 611.736 297.773C612.184 297.773 612.567 298.018 612.759 298.465C613.207 299.489 614.091 299.989 615.221 299.989C616.713 299.989 617.832 299.211 617.832 297.272V294.917C617.31 295.833 616.255 296.387 615.008 296.387C612.152 296.387 610.489 293.115 610.489 289.236H610.5ZM617.843 289.236C617.843 286.38 616.841 284.302 615.21 284.302C613.58 284.302 612.717 286.657 612.717 289.236C612.717 291.815 613.58 294.171 615.21 294.171C616.841 294.171 617.843 292.092 617.843 289.236Z" fill="white"/>
<path d="M822.845 287.542C822.845 287.265 822.983 286.966 823.207 286.742L824.784 285.165C825.371 284.579 826.223 284.249 827.108 284.249C827.992 284.249 828.823 284.558 829.41 285.133L830.433 286.156C830.625 286.348 830.902 286.465 831.211 286.465C831.52 286.465 831.797 286.359 831.989 286.156L833.545 284.6C833.768 284.377 834.067 284.238 834.344 284.238C834.983 284.238 835.484 284.739 835.484 285.378C835.484 285.655 835.346 285.964 835.122 286.178L833.545 287.755C832.958 288.33 832.106 288.671 831.221 288.671C830.337 288.671 829.506 288.362 828.919 287.787L827.896 286.764C827.704 286.572 827.427 286.455 827.118 286.455C826.809 286.455 826.532 286.561 826.34 286.764L824.784 288.32C824.561 288.544 824.262 288.682 823.985 288.682C823.346 288.682 822.845 288.181 822.845 287.542Z" fill="white"/>
<path d="M842.241 290.004V277.865C842.241 277.226 842.71 276.757 843.35 276.757C843.989 276.757 844.458 277.226 844.458 277.865V290.004C844.458 292.306 845.396 294.16 848.06 294.16C850.724 294.16 851.662 292.306 851.662 290.004V277.865C851.662 277.226 852.131 276.757 852.771 276.757C853.41 276.757 853.879 277.226 853.879 277.865V290.004C853.879 293.606 851.939 296.377 848.06 296.377C844.181 296.377 842.241 293.606 842.241 290.004Z" fill="white"/>
<path d="M857.428 295.055V283.417C857.428 282.757 857.875 282.309 858.536 282.309C859.197 282.309 859.644 282.757 859.644 283.417V283.641C860.167 282.778 860.998 282.085 862.191 282.085C863.907 282.085 864.909 283.332 864.909 285.027V285.357C864.909 285.996 864.44 286.465 863.801 286.465C863.161 286.465 862.692 285.996 862.692 285.357V285.027C862.692 284.44 862.362 284.004 861.669 284.004C860.508 284.004 859.644 285.666 859.644 288.746V295.066C859.644 295.726 859.197 296.174 858.536 296.174C857.875 296.174 857.428 295.726 857.428 295.066V295.055Z" fill="white"/>
<path d="M867.318 295.055V277.876C867.318 277.236 867.787 276.767 868.427 276.767C869.066 276.767 869.535 277.236 869.535 277.876V283.556C870.057 282.639 871.112 282.085 872.359 282.085C875.215 282.085 876.878 285.357 876.878 289.236C876.878 293.115 875.215 296.387 872.359 296.387C871.112 296.387 870.057 295.833 869.535 294.917V295.055C869.535 295.695 869.066 296.163 868.427 296.163C867.787 296.163 867.318 295.695 867.318 295.055ZM874.661 289.236C874.661 286.657 873.798 284.302 872.167 284.302C870.537 284.302 869.535 286.38 869.535 289.236C869.535 292.092 870.537 294.171 872.167 294.171C873.798 294.171 874.661 291.815 874.661 289.236Z" fill="white"/>
<path d="M879.403 278.153C879.403 277.353 879.989 276.767 880.789 276.767C881.588 276.767 882.174 277.343 882.174 278.153C882.174 278.963 881.588 279.538 880.789 279.538C879.989 279.538 879.403 278.952 879.403 278.153ZM879.68 295.055V283.417C879.68 282.778 880.149 282.309 880.789 282.309C881.428 282.309 881.897 282.778 881.897 283.417V295.055C881.897 295.695 881.428 296.163 880.789 296.163C880.149 296.163 879.68 295.695 879.68 295.055Z" fill="white"/>
<path d="M886.745 295.023V284.515H884.838C884.198 284.515 883.697 284.046 883.697 283.407C883.697 282.767 884.198 282.298 884.838 282.298H886.745V279.059C886.745 278.419 887.214 277.918 887.854 277.918C888.493 277.918 888.962 278.419 888.962 279.059V282.298H890.87C891.509 282.298 892.01 282.767 892.01 283.407C892.01 284.046 891.509 284.515 890.87 284.515H888.962V295.023C888.962 295.663 888.493 296.163 887.854 296.163C887.214 296.163 886.745 295.663 886.745 295.023Z" fill="white"/>
<path d="M781.911 566.773C781.911 561.646 783.744 556.851 788.039 556.851C790.426 556.851 792.004 558.204 793.133 560.868C793.219 561.06 793.272 561.252 793.272 561.423C793.272 562.062 792.803 562.531 792.163 562.531C791.748 562.531 791.3 562.307 791.108 561.806C790.522 560.336 789.776 559.067 788.028 559.067C785.204 559.067 784.117 562.893 784.117 566.773C784.117 570.652 785.194 574.478 788.028 574.478C789.776 574.478 790.522 573.199 791.108 571.739C791.3 571.238 791.748 571.014 792.163 571.014C792.803 571.014 793.272 571.483 793.272 572.123C793.272 572.293 793.219 572.485 793.133 572.677C791.993 575.341 790.416 576.694 788.039 576.694C783.744 576.694 781.911 571.899 781.911 566.773Z" fill="white"/>
<path d="M795.681 575.362V558.183C795.681 557.543 796.15 557.074 796.789 557.074C797.428 557.074 797.897 557.543 797.897 558.183V575.362C797.897 576.002 797.428 576.471 796.789 576.471C796.15 576.471 795.681 576.002 795.681 575.362Z" fill="white"/>
<path d="M800.668 569.543C800.668 565.664 802.384 562.392 805.464 562.392C808.544 562.392 810.26 565.664 810.26 569.543C810.26 573.423 808.544 576.694 805.464 576.694C802.384 576.694 800.668 573.423 800.668 569.543ZM808.043 569.543C808.043 566.964 807.105 564.609 805.464 564.609C803.823 564.609 802.885 566.964 802.885 569.543C802.885 572.122 803.823 574.478 805.464 574.478C807.105 574.478 808.043 572.122 808.043 569.543Z" fill="white"/>
<path d="M813.329 571.76V563.757C813.329 563.117 813.798 562.616 814.437 562.616C815.077 562.616 815.546 563.117 815.546 563.757V571.76C815.546 573.508 816.207 574.478 817.709 574.478C819.212 574.478 819.873 573.508 819.873 571.76V563.757C819.873 563.117 820.342 562.616 820.981 562.616C821.62 562.616 822.089 563.117 822.089 563.757V571.76C822.089 574.499 820.651 576.694 817.709 576.694C814.768 576.694 813.329 574.51 813.329 571.76Z" fill="white"/>
<path d="M825.158 569.543C825.158 565.664 826.821 562.392 829.677 562.392C830.924 562.392 831.979 562.947 832.501 563.863V558.183C832.501 557.543 832.97 557.074 833.609 557.074C834.249 557.074 834.718 557.543 834.718 558.183V575.362C834.718 576.002 834.249 576.471 833.609 576.471C832.97 576.471 832.501 576.002 832.501 575.362V575.224C831.979 576.14 830.924 576.694 829.677 576.694C826.821 576.694 825.158 573.423 825.158 569.543ZM832.501 569.543C832.501 566.687 831.499 564.609 829.869 564.609C828.238 564.609 827.375 566.964 827.375 569.543C827.375 572.122 828.238 574.478 829.869 574.478C831.499 574.478 832.501 572.4 832.501 569.543Z" fill="white"/>
<path d="M843.446 566.773C843.446 561.646 845.279 556.851 849.574 556.851C851.961 556.851 853.539 558.204 854.668 560.868C854.754 561.06 854.807 561.252 854.807 561.423C854.807 562.062 854.338 562.531 853.699 562.531C853.283 562.531 852.835 562.307 852.644 561.806C852.057 560.336 851.311 559.067 849.564 559.067C846.739 559.067 845.652 562.893 845.652 566.773C845.652 570.652 846.729 574.478 849.564 574.478C851.311 574.478 852.057 573.199 852.644 571.739C852.835 571.238 853.283 571.014 853.699 571.014C854.338 571.014 854.807 571.483 854.807 572.123C854.807 572.293 854.754 572.485 854.668 572.677C853.528 575.341 851.951 576.694 849.574 576.694C845.279 576.694 843.446 571.899 843.446 566.773Z" fill="white"/>
<path d="M857.216 569.543C857.216 565.664 858.932 562.392 862.012 562.392C865.092 562.392 866.807 565.664 866.807 569.543C866.807 573.423 865.092 576.694 862.012 576.694C858.932 576.694 857.216 573.423 857.216 569.543ZM864.591 569.543C864.591 566.964 863.653 564.609 862.012 564.609C860.37 564.609 859.433 566.964 859.433 569.543C859.433 572.122 860.37 574.478 862.012 574.478C863.653 574.478 864.591 572.122 864.591 569.543Z" fill="white"/>
<path d="M869.994 575.586V563.725C869.994 563.085 870.463 562.616 871.102 562.616C871.742 562.616 872.211 563.085 872.211 563.725V563.863C872.765 562.947 873.767 562.392 874.982 562.392C876.506 562.392 877.753 563.053 878.499 564.439C879.277 563.192 880.577 562.392 882.047 562.392C884.595 562.392 886.342 564.279 886.342 568.158V575.362C886.342 576.002 885.873 576.471 885.234 576.471C884.595 576.471 884.126 576.002 884.126 575.362V568.158C884.126 565.888 883.54 564.588 881.77 564.588C880.14 564.588 879.277 565.92 879.277 568.222V575.373C879.277 576.012 878.808 576.481 878.168 576.481C877.529 576.481 877.06 576.012 877.06 575.373V568.169C877.06 565.899 876.474 564.598 874.705 564.598C873.074 564.598 872.211 565.931 872.211 568.233V575.607C872.211 576.247 871.742 576.716 871.102 576.716C870.463 576.716 869.994 576.247 869.994 575.607V575.586Z" fill="white"/>
<path d="M889.838 581.181V563.725C889.838 563.085 890.307 562.616 890.946 562.616C891.586 562.616 892.055 563.085 892.055 563.725V563.863C892.577 562.947 893.632 562.392 894.879 562.392C897.735 562.392 899.397 565.664 899.397 569.543C899.397 573.423 897.735 576.694 894.879 576.694C893.632 576.694 892.577 576.14 892.055 575.224V581.181C892.055 581.821 891.586 582.29 890.946 582.29C890.307 582.29 889.838 581.821 889.838 581.181ZM897.181 569.543C897.181 566.964 896.317 564.609 894.687 564.609C893.056 564.609 892.055 566.687 892.055 569.543C892.055 572.4 893.056 574.478 894.687 574.478C896.317 574.478 897.181 572.122 897.181 569.543Z" fill="white"/>
<path d="M902.498 571.76V563.757C902.498 563.117 902.967 562.616 903.606 562.616C904.246 562.616 904.715 563.117 904.715 563.757V571.76C904.715 573.508 905.375 574.478 906.878 574.478C908.381 574.478 909.042 573.508 909.042 571.76V563.757C909.042 563.117 909.511 562.616 910.15 562.616C910.789 562.616 911.258 563.117 911.258 563.757V571.76C911.258 574.499 909.82 576.694 906.878 576.694C903.937 576.694 902.498 574.51 902.498 571.76Z" fill="white"/>
<path d="M916.405 575.33V564.833H914.498C913.858 564.833 913.357 564.364 913.357 563.725C913.357 563.085 913.858 562.616 914.498 562.616H916.405V559.376C916.405 558.737 916.874 558.236 917.514 558.236C918.153 558.236 918.622 558.737 918.622 559.376V562.616H920.53C921.169 562.616 921.67 563.085 921.67 563.725C921.67 564.364 921.169 564.833 920.53 564.833H918.622V575.33C918.622 575.97 918.153 576.471 917.514 576.471C916.874 576.471 916.405 575.97 916.405 575.33Z" fill="white"/>
<path d="M923.194 558.46C923.194 557.661 923.781 557.074 924.58 557.074C925.379 557.074 925.965 557.661 925.965 558.46C925.965 559.259 925.379 559.845 924.58 559.845C923.781 559.845 923.194 559.259 923.194 558.46ZM923.471 575.362V563.725C923.471 563.085 923.94 562.616 924.58 562.616C925.219 562.616 925.688 563.085 925.688 563.725V575.362C925.688 576.002 925.219 576.471 924.58 576.471C923.94 576.471 923.471 576.002 923.471 575.362Z" fill="white"/>
<path d="M928.843 575.362V563.725C928.843 563.085 929.312 562.616 929.951 562.616C930.591 562.616 931.059 563.085 931.059 563.725V563.863C931.614 562.947 932.669 562.392 933.916 562.392C935.887 562.392 937.71 564.087 937.71 566.911V575.362C937.71 576.002 937.241 576.471 936.601 576.471C935.962 576.471 935.493 576.002 935.493 575.362V567.05C935.493 565.494 934.768 564.588 933.447 564.588C931.869 564.588 931.059 565.749 931.059 567.774V575.362C931.059 576.002 930.591 576.471 929.951 576.471C929.312 576.471 928.843 576.002 928.843 575.362Z" fill="white"/>
<path d="M940.79 569.543C940.79 565.664 942.452 562.392 945.309 562.392C946.556 562.392 947.611 562.947 948.133 563.863V563.725C948.133 563.085 948.602 562.616 949.241 562.616C949.881 562.616 950.35 563.085 950.35 563.725V577.579C950.35 580.851 948.186 582.513 945.532 582.513C942.676 582.513 941.291 580.52 941.014 579.636C940.961 579.465 940.929 579.305 940.929 579.167C940.929 578.506 941.429 578.091 942.037 578.091C942.484 578.091 942.868 578.336 943.06 578.783C943.508 579.806 944.392 580.307 945.522 580.307C947.014 580.307 948.122 579.529 948.122 577.59V575.234C947.6 576.151 946.545 576.705 945.298 576.705C942.442 576.705 940.779 573.433 940.779 569.554L940.79 569.543ZM948.133 569.543C948.133 566.687 947.131 564.609 945.5 564.609C943.87 564.609 943.007 566.964 943.007 569.543C943.007 572.122 943.87 574.478 945.5 574.478C947.131 574.478 948.133 572.4 948.133 569.543Z" fill="white"/>
<path d="M373.61 269.467L392.154 287.329L373.61 305.19" stroke="white" stroke-width="2" stroke-linecap="round" stroke-linejoin="round"/>
<path d="M302.707 287.329H392.153" stroke="white" stroke-width="2" stroke-linecap="round" stroke-linejoin="round"/>
<path d="M740.498 269.467L759.052 287.329L740.498 305.19" stroke="white" stroke-width="2" stroke-linecap="round" stroke-linejoin="round"/>
<path d="M669.595 287.329H759.052" stroke="white" stroke-width="2" stroke-linecap="round" stroke-linejoin="round"/>
<path d="M732.366 364.572L732.846 390.32L707.098 389.83" stroke="white" stroke-width="2" stroke-linecap="round" stroke-linejoin="round"/>
<path d="M669.595 327.069L732.846 390.32" stroke="white" stroke-width="2" stroke-linecap="round" stroke-linejoin="round"/>
<path d="M823.72 67.075L821.674 60.702C821.365 59.7641 820.928 59.2632 820.118 59.0075L813.659 57.0359C812.466 56.6735 811.357 55.4799 811.357 53.8813C811.357 52.2827 812.466 51.0785 813.659 50.7268L820.118 48.7552C820.917 48.5101 821.365 48.0092 821.674 47.0607L823.72 40.6876C824.136 39.4088 825.297 38.3643 826.874 38.3643C828.452 38.3643 829.613 39.4194 830.029 40.6876L832.075 47.0607C832.384 47.9985 832.821 48.4994 833.631 48.7552L840.089 50.7268C841.283 51.0891 842.391 52.2827 842.391 53.8813C842.391 55.4799 841.283 56.6842 840.089 57.0359L833.631 59.0075C832.832 59.2526 832.384 59.7535 832.075 60.702L830.029 67.075C829.613 68.3539 828.452 69.3983 826.874 69.3983C825.297 69.3983 824.136 68.3432 823.72 67.075ZM827.93 66.4036L829.976 59.9773C830.445 58.5066 831.361 57.3982 832.97 56.8973L839.429 54.9257C839.844 54.7872 840.175 54.4035 840.175 53.8707C840.175 53.3378 839.844 52.9541 839.429 52.8156L832.97 50.844C831.361 50.3431 830.445 49.2348 829.976 47.7641L827.93 41.3377C827.791 40.9221 827.407 40.5597 826.874 40.5597C826.342 40.5597 825.958 40.9221 825.819 41.3377L823.773 47.7641C823.304 49.2348 822.388 50.3431 820.778 50.844L814.32 52.8156C813.905 52.9541 813.574 53.3378 813.574 53.8707C813.574 54.4035 813.905 54.7872 814.32 54.9257L820.778 56.8973C822.388 57.3982 823.304 58.5066 823.773 59.9773L825.819 66.4036C825.958 66.8192 826.342 67.1816 826.874 67.1816C827.407 67.1816 827.791 66.8192 827.93 66.4036Z" fill="white"/>
<path d="M823.72 189.975L821.674 183.601C821.365 182.664 820.928 182.163 820.118 181.907L813.659 179.935C812.466 179.573 811.357 178.379 811.357 176.781C811.357 175.182 812.466 173.978 813.659 173.626L820.118 171.655C820.917 171.41 821.365 170.909 821.674 169.96L823.72 163.587C824.136 162.308 825.297 161.264 826.874 161.264C828.452 161.264 829.613 162.319 830.029 163.587L832.075 169.96C832.384 170.898 832.821 171.399 833.631 171.655L840.089 173.626C841.283 173.989 842.391 175.182 842.391 176.781C842.391 178.379 841.283 179.584 840.089 179.935L833.631 181.907C832.832 182.152 832.384 182.653 832.075 183.601L830.029 189.975C829.613 191.253 828.452 192.298 826.874 192.298C825.297 192.298 824.136 191.243 823.72 189.975ZM827.93 189.303L829.976 182.877C830.445 181.406 831.361 180.298 832.97 179.797L839.429 177.825C839.844 177.687 840.175 177.303 840.175 176.77C840.175 176.237 839.844 175.854 839.429 175.715L832.97 173.744C831.361 173.243 830.445 172.134 829.976 170.664L827.93 164.237C827.791 163.822 827.407 163.459 826.874 163.459C826.342 163.459 825.958 163.822 825.819 164.237L823.773 170.664C823.304 172.134 822.388 173.243 820.778 173.744L814.32 175.715C813.905 175.854 813.574 176.237 813.574 176.77C813.574 177.303 813.905 177.687 814.32 177.825L820.778 179.797C822.388 180.298 823.304 181.406 823.773 182.877L825.819 189.303C825.958 189.719 826.342 190.081 826.874 190.081C827.407 190.081 827.791 189.719 827.93 189.303Z" fill="white"/>
<path d="M896.733 200.632L894.686 194.259C894.377 193.321 893.94 192.82 893.13 192.564L886.672 190.593C885.479 190.23 884.37 189.037 884.37 187.438C884.37 185.84 885.479 184.635 886.672 184.284L893.13 182.312C893.93 182.067 894.377 181.566 894.686 180.617L896.733 174.244C897.148 172.966 898.31 171.921 899.887 171.921C901.464 171.921 902.626 172.976 903.042 174.244L905.088 180.617C905.397 181.555 905.834 182.056 906.644 182.312L913.102 184.284C914.296 184.646 915.404 185.84 915.404 187.438C915.404 189.037 914.296 190.241 913.102 190.593L906.644 192.564C905.845 192.809 905.397 193.31 905.088 194.259L903.042 200.632C902.626 201.911 901.464 202.955 899.887 202.955C898.31 202.955 897.148 201.9 896.733 200.632ZM900.942 199.971L902.988 193.545C903.457 192.074 904.374 190.966 905.983 190.465L912.441 188.493C912.857 188.355 913.187 187.971 913.187 187.438C913.187 186.905 912.857 186.522 912.441 186.383L905.983 184.411C904.374 183.911 903.457 182.802 902.988 181.331L900.942 174.905C900.804 174.49 900.42 174.127 899.887 174.127C899.354 174.127 898.971 174.49 898.832 174.905L896.786 181.331C896.317 182.802 895.4 183.911 893.791 184.411L887.333 186.383C886.917 186.522 886.587 186.905 886.587 187.438C886.587 187.971 886.917 188.355 887.333 188.493L893.791 190.465C895.4 190.966 896.317 192.074 896.786 193.545L898.832 199.971C898.971 200.387 899.354 200.749 899.887 200.749C900.42 200.749 900.804 200.387 900.942 199.971Z" fill="white"/>
<path d="M812.412 99.2386C812.412 90.1799 820.117 82.8584 829.485 82.8584C834.664 82.8584 839.823 85.1604 843.169 88.9863C843.339 89.1782 843.446 89.4339 843.446 89.711C843.446 90.3185 842.945 90.8194 842.338 90.8194C842.007 90.8194 841.73 90.6808 841.506 90.4357C838.512 87.0574 834.11 85.0858 829.485 85.0858C821.311 85.0858 814.629 91.4268 814.629 99.2493C814.629 106.283 820.032 111.686 826.405 111.686C831.979 111.686 836.487 107.477 836.487 102.297C836.487 97.8319 833.215 94.5707 829.474 94.5707C826.512 94.5707 824.039 96.5636 824.039 99.4517C824.039 100.059 823.538 100.56 822.931 100.56C822.323 100.56 821.822 100.059 821.822 99.4517C821.822 95.2421 825.425 92.354 829.474 92.354C834.43 92.354 838.704 96.6489 838.704 102.297C838.704 108.724 833.13 113.903 826.405 113.903C818.785 113.903 812.412 107.477 812.412 99.2493V99.2386Z" fill="white"/>
<path d="M767.417 146.163C767.417 145.555 767.918 145.054 768.525 145.054C769.133 145.054 769.634 145.555 769.634 146.163C769.634 147.932 770.635 148.656 772.127 148.656C772.82 148.656 773.598 148.55 774.397 148.326C773.62 147.804 772.874 147.218 772.213 146.578C772.021 146.386 771.882 146.077 771.882 145.779C771.882 145.171 772.383 144.671 772.991 144.671C773.3 144.671 773.545 144.777 773.769 144.98C774.845 145.896 775.932 146.674 777.094 147.282C783.659 144.095 791.694 136.027 794.881 129.495C792.717 125.093 788.177 122.066 782.934 122.066C775.591 122.066 769.634 128.024 769.634 135.367C769.634 137.083 769.964 138.745 770.572 140.301C770.849 140.994 770.348 141.825 769.548 141.825C769.08 141.825 768.685 141.548 768.525 141.132C767.801 139.385 767.417 137.392 767.417 135.367C767.417 126.809 774.376 119.85 782.934 119.85C788.337 119.85 793.101 122.621 795.904 126.83C796.128 126.031 796.234 125.253 796.234 124.56C796.234 123.068 795.51 122.066 793.74 122.066C793.133 122.066 792.632 121.566 792.632 120.958C792.632 120.351 793.133 119.85 793.74 119.85C796.895 119.85 798.451 122.034 798.451 124.56C798.451 126.031 798.035 127.693 797.257 129.441C798.035 131.274 798.451 133.267 798.451 135.367C798.451 143.925 791.492 150.884 782.934 150.884C780.824 150.884 778.81 150.468 777.009 149.69C775.261 150.468 773.598 150.884 772.127 150.884C769.602 150.884 767.417 149.328 767.417 146.173V146.163ZM795.851 132.191C792.334 138.202 785.79 144.745 779.747 148.262C780.771 148.507 781.826 148.646 782.934 148.646C790.277 148.646 796.234 142.688 796.234 135.345C796.234 134.269 796.096 133.182 795.851 132.191Z" fill="white"/>
<path d="M772.181 226.71C772.181 226.103 772.682 225.602 773.289 225.602C773.896 225.602 774.397 226.103 774.397 226.71C774.397 228.479 775.399 229.204 776.891 229.204C777.584 229.204 778.362 229.097 779.161 228.874C778.383 228.351 777.637 227.765 776.976 227.126C776.785 226.934 776.646 226.625 776.646 226.326C776.646 225.719 777.147 225.218 777.754 225.218C778.063 225.218 778.309 225.325 778.532 225.527C779.609 226.444 780.696 227.222 781.857 227.829C788.422 224.643 796.458 216.575 799.644 210.042C797.481 205.641 792.941 202.614 787.698 202.614C780.355 202.614 774.397 208.571 774.397 215.914C774.397 217.63 774.728 219.293 775.335 220.849C775.612 221.541 775.111 222.373 774.312 222.373C773.843 222.373 773.449 222.096 773.289 221.68C772.564 219.932 772.181 217.939 772.181 215.914C772.181 207.357 779.14 200.397 787.698 200.397C793.101 200.397 797.865 203.168 800.667 207.378C800.891 206.579 800.998 205.801 800.998 205.108C800.998 203.616 800.273 202.614 798.504 202.614C797.897 202.614 797.396 202.113 797.396 201.506C797.396 200.898 797.897 200.397 798.504 200.397C801.659 200.397 803.215 202.582 803.215 205.108C803.215 206.579 802.799 208.241 802.021 209.989C802.799 211.822 803.215 213.815 803.215 215.914C803.215 224.472 796.255 231.431 787.698 231.431C785.587 231.431 783.573 231.016 781.772 230.238C780.024 231.016 778.362 231.431 776.891 231.431C774.365 231.431 772.181 229.875 772.181 226.721V226.71ZM800.614 212.749C797.097 218.76 790.554 225.303 784.511 228.82C785.534 229.065 786.589 229.204 787.698 229.204C795.04 229.204 800.998 223.246 800.998 215.904C800.998 214.827 800.859 213.74 800.614 212.749Z" fill="white"/>
<path d="M852.024 227.435C852.024 218.376 859.73 211.055 869.097 211.055C874.277 211.055 879.435 213.357 882.781 217.183C882.952 217.374 883.058 217.63 883.058 217.907C883.058 218.515 882.557 219.016 881.95 219.016C881.62 219.016 881.343 218.877 881.119 218.632C878.124 215.254 873.723 213.282 869.097 213.282C860.923 213.282 854.241 219.623 854.241 227.445C854.241 234.479 859.644 239.882 866.017 239.882C871.591 239.882 876.099 235.673 876.099 230.493C876.099 226.028 872.827 222.767 869.087 222.767C866.124 222.767 863.651 224.76 863.651 227.648C863.651 228.255 863.151 228.756 862.543 228.756C861.936 228.756 861.435 228.255 861.435 227.648C861.435 223.438 865.037 220.55 869.087 220.55C874.042 220.55 878.316 224.845 878.316 230.493C878.316 236.92 872.742 242.099 866.017 242.099C858.397 242.099 852.024 235.673 852.024 227.445V227.435Z" fill="white"/>
<path d="M889.848 109.192C889.848 108.585 890.349 108.084 890.956 108.084C891.563 108.084 892.064 108.585 892.064 109.192C892.064 110.962 893.066 111.686 894.558 111.686C895.251 111.686 896.029 111.58 896.828 111.356C896.05 110.834 895.304 110.248 894.643 109.608C894.452 109.416 894.313 109.107 894.313 108.809C894.313 108.201 894.814 107.7 895.421 107.7C895.73 107.7 895.976 107.807 896.199 108.01C897.276 108.926 898.363 109.704 899.524 110.312C906.089 107.125 914.125 99.0574 917.311 92.5245C915.148 88.1231 910.608 85.0964 905.365 85.0964C898.022 85.0964 892.064 91.0538 892.064 98.3967C892.064 100.113 892.395 101.775 893.002 103.331C893.279 104.024 892.778 104.855 891.979 104.855C891.51 104.855 891.116 104.578 890.956 104.162C890.231 102.414 889.848 100.422 889.848 98.3967C889.848 89.8389 896.807 82.8797 905.365 82.8797C910.768 82.8797 915.532 85.6506 918.334 89.8602C918.558 89.0609 918.665 88.283 918.665 87.5902C918.665 86.0982 917.94 85.0964 916.171 85.0964C915.564 85.0964 915.063 84.5955 915.063 83.9881C915.063 83.3806 915.564 82.8797 916.171 82.8797C919.326 82.8797 920.882 85.0645 920.882 87.5902C920.882 89.0609 920.466 90.7235 919.688 92.4713C920.466 94.3043 920.882 96.2972 920.882 98.3967C920.882 106.954 913.922 113.914 905.365 113.914C903.254 113.914 901.24 113.498 899.439 112.72C897.691 113.498 896.029 113.914 894.558 113.914C892.032 113.914 889.848 112.358 889.848 109.203V109.192ZM918.271 95.2208C914.754 101.232 908.21 107.775 902.167 111.292C903.191 111.537 904.246 111.676 905.354 111.676C912.697 111.676 918.654 105.718 918.654 98.3754C918.654 97.299 918.516 96.212 918.271 95.2208Z" fill="white"/>
<path d="M934.214 114.521C934.214 113.914 934.715 113.413 935.322 113.413C935.93 113.413 936.431 113.914 936.431 114.521C936.431 116.29 937.432 117.015 938.924 117.015C939.617 117.015 940.395 116.908 941.194 116.685C940.416 116.162 939.67 115.576 939.01 114.937C938.818 114.745 938.679 114.436 938.679 114.137C938.679 113.53 939.18 113.029 939.788 113.029C940.097 113.029 940.342 113.136 940.566 113.338C941.642 114.255 942.729 115.033 943.891 115.64C950.456 112.454 958.491 104.386 961.678 97.8532C959.514 93.4517 954.974 90.4251 949.731 90.4251C942.388 90.4251 936.431 96.3825 936.431 103.725C936.431 105.441 936.761 107.104 937.368 108.66C937.646 109.352 937.145 110.184 936.345 110.184C935.876 110.184 935.482 109.907 935.322 109.491C934.598 107.743 934.214 105.75 934.214 103.725C934.214 95.1675 941.173 88.2084 949.731 88.2084C955.134 88.2084 959.898 90.9792 962.701 95.1889C962.924 94.3896 963.031 93.6116 963.031 92.9189C963.031 91.4268 962.306 90.4251 960.537 90.4251C959.93 90.4251 959.429 89.9242 959.429 89.3167C959.429 88.7093 959.93 88.2084 960.537 88.2084C963.692 88.2084 965.248 90.3931 965.248 92.9189C965.248 94.3896 964.832 96.0521 964.054 97.7999C964.832 99.6329 965.248 101.626 965.248 103.725C965.248 112.283 958.289 119.242 949.731 119.242C947.621 119.242 945.606 118.827 943.805 118.049C942.058 118.827 940.395 119.242 938.924 119.242C936.399 119.242 934.214 117.686 934.214 114.532V114.521ZM962.647 100.56C959.131 106.571 952.587 113.114 946.544 116.631C947.567 116.876 948.622 117.015 949.731 117.015C957.074 117.015 963.031 111.058 963.031 103.715C963.031 102.638 962.893 101.551 962.647 100.56Z" fill="white"/>
<path d="M890.945 54.7446C890.945 45.6859 898.65 38.3643 908.018 38.3643C913.198 38.3643 918.356 40.6663 921.702 44.4923C921.873 44.6841 921.979 44.9399 921.979 45.217C921.979 45.8244 921.478 46.3253 920.871 46.3253C920.54 46.3253 920.263 46.1868 920.04 45.9417C917.045 42.5633 912.643 40.5917 908.018 40.5917C899.844 40.5917 893.162 46.9328 893.162 54.7552C893.162 61.789 898.565 67.1922 904.938 67.1922C910.512 67.1922 915.02 62.9826 915.02 57.8032C915.02 53.3378 911.748 50.0767 908.008 50.0767C905.045 50.0767 902.572 52.0696 902.572 54.9577C902.572 55.5652 902.071 56.0661 901.464 56.0661C900.857 56.0661 900.356 55.5652 900.356 54.9577C900.356 50.7481 903.958 47.86 908.008 47.86C912.963 47.86 917.237 52.1548 917.237 57.8032C917.237 64.2295 911.663 69.4089 904.938 69.4089C897.318 69.4089 890.945 62.9826 890.945 54.7552V54.7446Z" fill="white"/>
<path d="M918.218 232.103C918.218 231.495 918.719 230.994 919.326 230.994C919.934 230.994 920.435 231.495 920.435 232.103C920.435 233.872 921.436 234.596 922.928 234.596C923.621 234.596 924.399 234.49 925.198 234.266C924.42 233.744 923.674 233.158 923.014 232.518C922.822 232.326 922.683 232.017 922.683 231.719C922.683 231.112 923.184 230.611 923.791 230.611C924.101 230.611 924.346 230.717 924.57 230.92C925.646 231.836 926.733 232.614 927.895 233.222C934.459 230.035 942.495 221.968 945.682 215.435C943.518 211.033 938.978 208.007 933.735 208.007C926.392 208.007 920.435 213.964 920.435 221.307C920.435 223.023 920.765 224.685 921.372 226.241C921.649 226.934 921.149 227.765 920.349 227.765C919.88 227.765 919.486 227.488 919.326 227.072C918.601 225.325 918.218 223.332 918.218 221.307C918.218 212.749 925.177 205.79 933.735 205.79C939.138 205.79 943.902 208.561 946.705 212.77C946.928 211.971 947.035 211.193 947.035 210.5C947.035 209.008 946.31 208.007 944.541 208.007C943.934 208.007 943.433 207.506 943.433 206.898C943.433 206.291 943.934 205.79 944.541 205.79C947.696 205.79 949.252 207.975 949.252 210.5C949.252 211.971 948.836 213.634 948.058 215.381C948.836 217.214 949.252 219.207 949.252 221.307C949.252 229.865 942.293 236.824 933.735 236.824C931.625 236.824 929.61 236.408 927.809 235.63C926.062 236.408 924.399 236.824 922.928 236.824C920.402 236.824 918.218 235.268 918.218 232.113V232.103ZM946.651 218.142C943.134 224.152 936.591 230.696 930.548 234.213C931.571 234.458 932.626 234.596 933.735 234.596C941.078 234.596 947.035 228.639 947.035 221.296C947.035 220.22 946.896 219.133 946.651 218.142Z" fill="white"/>
<path d="M931.102 177.644C931.102 168.585 938.807 161.264 948.174 161.264C953.354 161.264 958.512 163.566 961.858 167.392C962.029 167.584 962.135 167.839 962.135 168.116C962.135 168.724 961.635 169.225 961.027 169.225C960.697 169.225 960.42 169.086 960.196 168.841C957.201 165.463 952.8 163.491 948.174 163.491C940 163.491 933.318 169.832 933.318 177.655C933.318 184.689 938.722 190.092 945.095 190.092C950.668 190.092 955.176 185.882 955.176 180.703C955.176 176.237 951.904 172.976 948.164 172.976C945.201 172.976 942.729 174.969 942.729 177.857C942.729 178.465 942.228 178.966 941.62 178.966C941.013 178.966 940.512 178.465 940.512 177.857C940.512 173.648 944.114 170.759 948.164 170.759C953.119 170.759 957.393 175.054 957.393 180.703C957.393 187.129 951.819 192.308 945.095 192.308C937.475 192.308 931.102 185.882 931.102 177.655V177.644Z" fill="white"/>
<path d="M856.032 148.379C856.032 147.772 856.533 147.271 857.141 147.271C857.748 147.271 858.249 147.772 858.249 148.379C858.249 150.148 859.251 150.873 860.743 150.873C861.435 150.873 862.213 150.766 863.013 150.543C862.235 150.02 861.489 149.434 860.828 148.795C860.636 148.603 860.498 148.294 860.498 147.996C860.498 147.388 860.998 146.887 861.606 146.887C861.915 146.887 862.16 146.994 862.384 147.196C863.46 148.113 864.547 148.891 865.709 149.498C872.274 146.312 880.309 138.244 883.496 131.711C881.333 127.31 876.793 124.283 871.549 124.283C864.206 124.283 858.249 130.241 858.249 137.583C858.249 139.299 858.579 140.962 859.187 142.518C859.464 143.21 858.963 144.042 858.164 144.042C857.695 144.042 857.3 143.765 857.141 143.349C856.416 141.601 856.032 139.608 856.032 137.583C856.032 129.026 862.991 122.066 871.549 122.066C876.952 122.066 881.716 124.837 884.519 129.047C884.743 128.248 884.849 127.47 884.849 126.777C884.849 125.285 884.125 124.283 882.356 124.283C881.748 124.283 881.247 123.782 881.247 123.175C881.247 122.567 881.748 122.066 882.356 122.066C885.51 122.066 887.066 124.251 887.066 126.777C887.066 128.248 886.651 129.91 885.873 131.658C886.651 133.491 887.066 135.484 887.066 137.583C887.066 146.141 880.107 153.1 871.549 153.1C869.439 153.1 867.425 152.685 865.624 151.907C863.876 152.685 862.213 153.1 860.743 153.1C858.217 153.1 856.032 151.544 856.032 148.39V148.379ZM884.466 134.408C880.949 140.418 874.405 146.962 868.363 150.479C869.386 150.724 870.441 150.862 871.549 150.862C878.892 150.862 884.849 144.905 884.849 137.562C884.849 136.486 884.711 135.399 884.466 134.408Z" fill="white"/>
<path d="M852.356 448.893H845.013H842.786C838.022 448.893 833.855 445.386 833.354 440.644C832.843 435.859 835.987 431.702 840.356 430.637C840.708 430.551 840.942 430.221 840.921 429.859C840.239 421.876 846.601 421.45 848.807 421.685C849.18 421.727 849.521 421.493 849.607 421.13C851.024 415.301 856.289 410.974 862.555 410.974C867.404 410.974 871.646 413.564 873.98 417.422C874.161 417.72 874.523 417.869 874.864 417.763C891.671 412.551 892.204 426.299 892.055 429.678C892.033 430.072 892.321 430.402 892.705 430.456C897.234 431.063 900.73 434.932 900.73 439.631C900.73 444.331 896.946 448.52 892.14 448.871C891.916 448.893 891.692 448.893 891.468 448.893H878.445H869.994" stroke="white" stroke-width="2" stroke-linecap="round" stroke-linejoin="round"/>
<path d="M861.362 432.107L854.53 443.628L860.584 443.436L856.172 454.392L870.815 439.578L864.527 439.482L869.376 432.107H861.362Z" stroke="white" stroke-width="2" stroke-linecap="round" stroke-linejoin="round"/>
<path d="M863.631 368.228C872.695 368.228 880.043 366.348 880.043 364.029C880.043 361.71 872.695 359.83 863.631 359.83C854.567 359.83 847.219 361.71 847.219 364.029C847.219 366.348 854.567 368.228 863.631 368.228Z" stroke="white" stroke-width="2" stroke-linecap="round" stroke-linejoin="round"/>
<path d="M880.043 371.18C880.043 373.855 872.69 376.018 863.631 376.018C854.562 376.018 847.219 373.855 847.219 371.18" stroke="white" stroke-width="2" stroke-linecap="round" stroke-linejoin="round"/>
<path d="M880.043 378.779C880.043 381.453 872.69 383.617 863.631 383.617C854.562 383.617 847.219 381.453 847.219 378.779" stroke="white" stroke-width="2" stroke-linecap="round" stroke-linejoin="round"/>
<path d="M847.219 364.029V386.388C847.219 389.063 854.572 391.226 863.631 391.226C872.7 391.226 880.043 389.063 880.043 386.388V364.029" stroke="white" stroke-width="2" stroke-linecap="round" stroke-linejoin="round"/>
<path d="M857.673 373.162C858.38 373.162 858.952 372.59 858.952 371.883C858.952 371.177 858.38 370.604 857.673 370.604C856.967 370.604 856.395 371.177 856.395 371.883C856.395 372.59 856.967 373.162 857.673 373.162Z" fill="white"/>
<path d="M863.759 373.162C864.466 373.162 865.038 372.59 865.038 371.883C865.038 371.177 864.466 370.604 863.759 370.604C863.053 370.604 862.48 371.177 862.48 371.883C862.48 372.59 863.053 373.162 863.759 373.162Z" fill="white"/>
<path d="M869.834 373.162C870.54 373.162 871.112 372.59 871.112 371.883C871.112 371.177 870.54 370.604 869.834 370.604C869.127 370.604 868.555 371.177 868.555 371.883C868.555 372.59 869.127 373.162 869.834 373.162Z" fill="white"/>
<path d="M857.673 380.963C858.38 380.963 858.952 380.391 858.952 379.684C858.952 378.978 858.38 378.406 857.673 378.406C856.967 378.406 856.395 378.978 856.395 379.684C856.395 380.391 856.967 380.963 857.673 380.963Z" fill="white"/>
<path d="M863.759 380.963C864.466 380.963 865.038 380.391 865.038 379.684C865.038 378.978 864.466 378.406 863.759 378.406C863.053 378.406 862.48 378.978 862.48 379.684C862.48 380.391 863.053 380.963 863.759 380.963Z" fill="white"/>
<path d="M869.834 380.963C870.54 380.963 871.112 380.391 871.112 379.684C871.112 378.978 870.54 378.406 869.834 378.406C869.127 378.406 868.555 378.978 868.555 379.684C868.555 380.391 869.127 380.963 869.834 380.963Z" fill="white"/>
<path d="M857.673 388.53C858.38 388.53 858.952 387.957 858.952 387.251C858.952 386.545 858.38 385.972 857.673 385.972C856.967 385.972 856.395 386.545 856.395 387.251C856.395 387.957 856.967 388.53 857.673 388.53Z" fill="white"/>
<path d="M863.759 388.53C864.466 388.53 865.038 387.957 865.038 387.251C865.038 386.545 864.466 385.972 863.759 385.972C863.053 385.972 862.48 386.545 862.48 387.251C862.48 387.957 863.053 388.53 863.759 388.53Z" fill="white"/>
<path d="M869.834 388.53C870.54 388.53 871.112 387.957 871.112 387.251C871.112 386.545 870.54 385.972 869.834 385.972C869.127 385.972 868.555 386.545 868.555 387.251C868.555 387.957 869.127 388.53 869.834 388.53Z" fill="white"/>
<path d="M891.446 469.355H838.373C835.43 469.355 833.044 471.74 833.044 474.683V511.76C833.044 514.703 835.43 517.088 838.373 517.088H891.446C894.389 517.088 896.774 514.703 896.774 511.76V474.683C896.774 471.74 894.389 469.355 891.446 469.355Z" stroke="white" stroke-width="2" stroke-linecap="round" stroke-linejoin="round"/>
<path d="M892.703 473.895H837.115V510.374H892.703V473.895Z" stroke="white" stroke-width="2" stroke-linecap="round" stroke-linejoin="round"/>
<path d="M860.231 517.088L856.458 524.229H873.36L869.748 517.088H860.231Z" stroke="white" stroke-width="2" stroke-linecap="round" stroke-linejoin="round"/>
<path d="M851.396 524.229H878.422" stroke="white" stroke-width="2" stroke-linecap="round" stroke-linejoin="round"/>
<path d="M858.121 513.646H871.698" stroke="white" stroke-width="2" stroke-linecap="round" stroke-linejoin="round"/>
<path d="M817.421 469.355H764.348C761.405 469.355 759.02 471.74 759.02 474.683V511.76C759.02 514.703 761.405 517.088 764.348 517.088H817.421C820.364 517.088 822.75 514.703 822.75 511.76V474.683C822.75 471.74 820.364 469.355 817.421 469.355Z" stroke="white" stroke-width="2" stroke-linecap="round" stroke-linejoin="round"/>
<path d="M818.679 473.895H763.091V510.374H818.679V473.895Z" stroke="white" stroke-width="2" stroke-linecap="round" stroke-linejoin="round"/>
<path d="M786.205 517.088L782.433 524.229H799.346L795.733 517.088H786.205Z" stroke="white" stroke-width="2" stroke-linecap="round" stroke-linejoin="round"/>
<path d="M777.371 524.229H804.409" stroke="white" stroke-width="2" stroke-linecap="round" stroke-linejoin="round"/>
<path d="M784.106 513.646H797.673" stroke="white" stroke-width="2" stroke-linecap="round" stroke-linejoin="round"/>
<path d="M965.461 469.355H912.388C909.445 469.355 907.06 471.74 907.06 474.683V511.76C907.06 514.703 909.445 517.088 912.388 517.088H965.461C968.404 517.088 970.79 514.703 970.79 511.76V474.683C970.79 471.74 968.404 469.355 965.461 469.355Z" stroke="white" stroke-width="2" stroke-linecap="round" stroke-linejoin="round"/>
<path d="M966.719 473.895H911.131V510.374H966.719V473.895Z" stroke="white" stroke-width="2" stroke-linecap="round" stroke-linejoin="round"/>
<path d="M934.246 517.088L930.474 524.229H947.387L943.774 517.088H934.246Z" stroke="white" stroke-width="2" stroke-linecap="round" stroke-linejoin="round"/>
<path d="M925.411 524.229H952.438" stroke="white" stroke-width="2" stroke-linecap="round" stroke-linejoin="round"/>
<path d="M932.146 513.646H945.713" stroke="white" stroke-width="2" stroke-linecap="round" stroke-linejoin="round"/>
<path d="M863.759 407.766V395.564" stroke="white" stroke-width="2" stroke-linecap="round" stroke-linejoin="round"/>
<path d="M863.759 464.623V453.497" stroke="white" stroke-width="2" stroke-linecap="round" stroke-linejoin="round"/>
<path d="M790.149 464.623L846.068 455.095" stroke="white" stroke-width="2" stroke-linecap="round" stroke-linejoin="round"/>
<path d="M937.369 464.623L881.439 455.095" stroke="white" stroke-width="2" stroke-linecap="round" stroke-linejoin="round"/>
<path d="M29.2095 238.827H1.5752" stroke="white" stroke-width="2" stroke-linejoin="round"/>
</svg>
