<?xml version="1.0" encoding="UTF-8"?>
<svg id="Layer_2" data-name="Layer 2" xmlns="http://www.w3.org/2000/svg" viewBox="0 0 53.53 65.82">
  <defs>
    <style>
      .cls-1 {
        fill: #231f20;
        stroke-width: 0px;
      }
    </style>
  </defs>
  <g id="Layer_1-2" data-name="Layer 1">
    <g>
      <path class="cls-1" d="M40.3,40.87c-.48,0-.91.19-1.3.58l-3.67,3.67c-.53.53-1.04.91-1.55,1.15-.5.24-1.04.36-1.62.36-.53,0-1.04-.12-1.55-.36-.5-.24-1.02-.62-1.55-1.15l-2.02-2.02c-.86-.86-1.76-1.49-2.7-1.87-.94-.38-1.91-.58-2.92-.58s-2.05.21-2.99.61c-.94.41-1.84,1.04-2.7,1.91l-3.74,3.67c-.38.38-.58.84-.58,1.37s.18.96.54,1.3c.36.34.8.5,1.33.5.48,0,.91-.19,1.3-.58l3.67-3.67c.53-.53,1.04-.91,1.55-1.15.5-.24,1.04-.36,1.62-.36.53,0,1.04.12,1.55.36.5.24,1.02.62,1.55,1.15l2.02,2.02c.86.86,1.76,1.49,2.7,1.87.94.38,1.91.58,2.92.58s2.05-.2,2.99-.61c.94-.41,1.84-1.04,2.7-1.91l3.74-3.67c.38-.38.58-.84.58-1.37s-.18-.96-.54-1.3c-.36-.33-.8-.5-1.33-.5Z"/>
      <path class="cls-1" d="M42,25.02v-10.19c0-8.03-6.98-14.82-15.24-14.82s-15.32,6.79-15.32,14.82v2.58c0,.99.81,1.8,1.8,1.8s1.8-.81,1.8-1.8v-2.58c0-6.08,5.37-11.22,11.72-11.22s11.64,5.14,11.64,11.22v10.13H12.84c-7.08,0-12.84,5.76-12.84,12.84v15.18c0,7.08,5.76,12.84,12.84,12.84h27.84c7.08,0,12.84-5.76,12.84-12.84v-15.18c0-6.64-5.06-12.11-11.52-12.77ZM49.93,52.97c0,5.1-4.15,9.24-9.24,9.24H12.84c-5.1,0-9.24-4.15-9.24-9.24v-15.18c0-5.1,4.15-9.24,9.24-9.24h27.84c5.1,0,9.24,4.15,9.24,9.24v15.18Z"/>
    </g>
  </g>
</svg>