<svg width="25" height="30" viewBox="0 0 25 30" fill="none" xmlns="http://www.w3.org/2000/svg">
<path d="M18.0698 17.81C17.7298 17.81 17.4298 17.95 17.1598 18.22L15.3998 19.98C15.2898 20.09 15.1598 20.17 15.0098 20.23C14.8498 20.29 14.6898 20.32 14.5198 20.32C14.3498 20.32 14.1898 20.29 14.0298 20.23C13.8698 20.17 13.7398 20.08 13.6398 19.98L12.4698 18.81C12.1298 18.47 11.7398 18.22 11.2898 18.05C10.8398 17.88 10.3598 17.8 9.85977 17.8C9.35977 17.8 8.86977 17.89 8.40977 18.07C7.94977 18.25 7.54977 18.51 7.20977 18.84L5.41977 20.64C5.14977 20.91 5.00977 21.22 5.00977 21.55C5.00977 21.91 5.13977 22.21 5.38977 22.46C5.63977 22.71 5.94977 22.84 6.29977 22.84C6.63977 22.84 6.93977 22.7 7.20977 22.43L8.96977 20.67C9.06977 20.56 9.20976 20.48 9.35977 20.42C9.51976 20.36 9.67977 20.33 9.84977 20.33C10.0198 20.33 10.1798 20.36 10.3398 20.42C10.4998 20.48 10.6298 20.57 10.7298 20.67L11.8998 21.84C12.2298 22.18 12.6298 22.43 13.0798 22.6C13.5298 22.7701 14.0098 22.85 14.5098 22.85C15.0098 22.85 15.4998 22.76 15.9598 22.58C16.4198 22.4 16.8198 22.14 17.1598 21.81L18.9598 20.01C19.2298 19.74 19.3698 19.4301 19.3698 19.1C19.3698 18.74 19.2398 18.4401 18.9898 18.1901C18.7398 17.9401 18.4298 17.81 18.0798 17.81H18.0698Z" fill="white"/>
<path d="M22.91 13.06C22.04 12.03 20.58 11.13 19.32 10.95V7.12999C19.32 3.18999 16.12 -0.0100098 12.18 -0.0100098C8.24 -0.0100098 5.04 3.18999 5.04 7.12999V7.44999C5.04 8.14999 5.6 8.70999 6.3 8.70999C7 8.70999 7.56 8.14999 7.56 7.44999V7.12999C7.56 4.57999 9.63 2.50999 12.18 2.50999C14.73 2.50999 16.8 4.57999 16.8 7.12999V10.91H5.46C4.11 10.91 2.42 11.9 1.45 13.05C0.48 14.2 0 15.72 0 17.63V23.01C0 25.11 0.59 26.76 1.76 27.95C2.94 29.14 4.59 29.74 6.72 29.74H18.64C20.77 29.74 21.42 29.14 22.6 27.95C23.78 26.76 24.36 25.12 24.36 23.01V17.63C24.36 15.73 23.88 14.2 22.91 13.05V13.06ZM21.84 23.02C21.84 24.42 21.5 25.47 20.81 26.17C20.12 26.87 19.07 27.22 17.64 27.22H6.72C5.29 27.22 4.24 26.87 3.55 26.17C2.86 25.47 2.52 24.42 2.52 23.02V17.64C2.52 16.21 2.87 15.16 3.57 14.47C4.27 13.78 5.32 13.44 6.72 13.44H17.64C19.04 13.44 20.09 13.78 20.79 14.47C21.49 15.16 21.84 16.21 21.84 17.64V23.02Z" fill="white"/>
</svg>
