<svg width="68" height="97" viewBox="0 0 68 97" fill="none" xmlns="http://www.w3.org/2000/svg">
<g clip-path="url(#clip0_1082_1728)">
<path d="M55.8737 48.5L9.06684 83.4636V13.5364L55.8737 48.5ZM68 48.5C68 47.0344 67.3207 45.6797 66.1877 44.8901L7.25448 0.9031C7.0517 0.761833 6.82357 0.678586 6.60812 0.567591C6.45096 0.484344 6.31155 0.391007 6.14679 0.325419C5.64238 0.128654 5.11261 0 4.53469 0C2.04048 0 0 2.03071 0 4.51045V92.487C0 94.9693 2.04048 96.9975 4.53215 96.9975C5.11008 96.9975 5.63731 96.8688 6.14426 96.6721C6.30902 96.6065 6.44843 96.5131 6.60305 96.4324C6.82104 96.3189 7.0517 96.2356 7.25448 96.0944L66.1877 52.1048C67.3207 51.3153 68 49.9606 68 48.495" fill="#AAE68C"/>
</g>
<defs>
<clipPath id="clip0_1082_1728">
<rect width="68" height="97" fill="white"/>
</clipPath>
</defs>
</svg>
