<svg width="31" height="32" viewBox="0 0 31 32" fill="none" xmlns="http://www.w3.org/2000/svg">
<path d="M16.5725 16.6707C16.4479 16.8313 16.3494 16.9582 16.2507 17.085C16.0863 17.2967 15.9272 17.5127 15.7551 17.7177C15.6661 17.8239 15.6655 17.9109 15.7418 18.0201C15.8553 18.1819 15.9649 18.3471 16.0662 18.5171C16.1028 18.5786 16.1446 18.6753 16.1216 18.7246C16.0987 18.7732 15.9988 18.797 15.9292 18.8064C15.6033 18.8505 15.3496 18.7641 15.1628 18.4447C14.9096 18.0119 14.6206 17.6003 14.3324 17.1903C14.1744 16.9658 13.9876 16.7626 13.8114 16.5521C13.7719 16.5046 13.7221 16.4663 13.6614 16.4091C13.6257 16.47 13.5924 16.5132 13.5727 16.5621C13.1781 17.5443 12.7809 18.5253 12.3958 19.5115C12.3165 19.7144 12.2699 19.9346 12.2346 20.1515C12.1697 20.5497 12.3424 20.8332 12.7205 20.9515C12.8973 21.0068 13.0844 21.0269 13.2668 21.0631C13.321 21.2645 13.3048 21.2967 13.1154 21.2973C12.1815 21.2998 11.2474 21.2995 10.3136 21.2973C10.153 21.297 10.1035 21.2411 10.1297 21.1188C10.1518 21.0154 10.2381 21.0172 10.3094 21.0075C10.6177 20.9658 10.8891 20.8304 11.0859 20.5929C11.2633 20.3787 11.4269 20.1375 11.5365 19.8811C11.9605 18.8888 12.3616 17.8859 12.7697 16.8864C13.3387 15.4923 13.9066 14.0976 14.4747 12.7033C14.7184 12.1046 14.9603 11.5051 15.2055 10.9071C15.2391 10.8249 15.2582 10.7276 15.3711 10.7078C15.5161 10.6823 15.5756 10.7142 15.651 10.8882C16.0412 11.7868 16.4296 12.6865 16.8194 13.5854C17.387 14.8946 17.9569 16.2029 18.523 17.5127C18.8468 18.2622 19.1606 19.0163 19.488 19.7643C19.5959 20.0106 19.7235 20.2494 19.8581 20.4818C20.0627 20.8344 20.3868 20.991 20.7719 21.0315C20.8338 21.0379 20.9016 21.0263 20.9564 21.0491C20.9956 21.0656 21.0413 21.1255 21.0413 21.1659C21.0413 21.2076 20.9965 21.266 20.957 21.2855C20.9107 21.308 20.8489 21.2992 20.7935 21.2989C19.5691 21.2949 18.3447 21.2913 17.1203 21.2843C17.0325 21.2837 16.9126 21.3244 16.889 21.1748C16.8725 21.0689 16.9223 21.0342 17.1012 21.0047C17.2441 20.9813 17.3899 20.9633 17.5281 20.9211C17.9041 20.8061 18.0801 20.5278 17.9878 20.1372C17.908 19.7992 17.8004 19.4643 17.6678 19.1446C17.3516 18.3839 17.0136 17.6332 16.6833 16.8788C16.6583 16.8219 16.6255 16.7687 16.574 16.6716L16.5725 16.6707ZM15.0685 13.0805C15.0502 13.0786 15.0319 13.0771 15.0137 13.0753C14.9842 13.1285 14.9491 13.1793 14.9256 13.235C14.6038 14.0003 14.2867 14.7681 13.9602 15.5313C13.9015 15.6687 13.9328 15.7466 14.0318 15.8449C14.4959 16.3057 14.9267 16.7967 15.2671 17.3655C15.2907 17.405 15.3293 17.4348 15.3667 17.4756C15.4062 17.437 15.4392 17.4114 15.4645 17.3792C15.7344 17.0357 15.9979 16.6868 16.2746 16.3495C16.3789 16.2224 16.3883 16.1177 16.3211 15.9656C15.997 15.2329 15.6855 14.4937 15.3685 13.7576C15.2706 13.531 15.1687 13.3062 15.0685 13.0805Z" fill="#878787"/>
</svg>
