<svg width="66" height="33" viewBox="0 0 66 33" fill="none" xmlns="http://www.w3.org/2000/svg">
<path d="M0 32.7701C0 32.5665 0 32.3767 0 32.1849C0 27.1341 0 22.0833 0 17.0325C0 16.3702 0 16.3663 0.659696 16.3682C5.67655 16.3682 10.6954 16.3722 15.7122 16.3742C16.1626 16.3742 16.3884 16.1548 16.3897 15.7159C16.3897 10.6967 16.3897 5.67946 16.3897 0.660264C16.3897 0.00197611 16.3897 0 17.0277 0C27.5492 0 38.0708 0 48.5943 0C49.2204 0 49.2145 0.00198277 49.2145 0.620734C49.2125 5.68738 49.2165 10.754 49.2046 15.8226C49.2046 16.2417 49.3212 16.386 49.7537 16.3841C54.7706 16.3702 59.7894 16.3682 64.8063 16.3762C65.6299 16.3762 65.6022 16.1982 65.6022 17.1392C65.6022 22.1584 65.6022 27.1756 65.6022 32.1948C65.6022 32.3846 65.6022 32.5744 65.6022 32.8136C65.2921 32.8136 65.0512 32.8136 64.8102 32.8136C59.825 32.8136 54.8397 32.8136 49.8564 32.8136C49.2027 32.8136 49.2007 32.8136 49.2007 32.1751C49.2007 27.1084 49.1948 22.0418 49.2106 16.9732C49.2106 16.4967 49.0644 16.3722 48.6022 16.3722C38.0649 16.3841 27.5255 16.3801 16.9882 16.3821C16.3719 16.3821 16.3838 16.388 16.3838 17.0127C16.3857 22.0952 16.3838 27.1796 16.3877 32.262C16.3877 32.6218 16.3364 32.8235 15.89 32.8215C10.727 32.8077 5.56199 32.8116 0.398978 32.8096C0.28837 32.8096 0.175787 32.7879 0 32.7701Z" fill="#44420C"/>
</svg>
