<svg width="58" height="29" viewBox="0 0 58 29" fill="none" xmlns="http://www.w3.org/2000/svg">
<path d="M57.6364 0V28.5071H29.0859V0H57.6364ZM37.9982 8.79206C35.6852 10.9296 38.6772 14.7326 41.3268 12.7026C44.1703 10.5241 40.5418 6.44146 37.9982 8.79206ZM46.5977 8.141C43.2436 8.54001 43.8252 13.7073 47.3086 13.2296C50.5058 12.791 49.9273 7.74487 46.5977 8.141ZM37.9982 19.715C40.5418 22.0656 44.1702 17.9831 41.3268 15.8045C38.6772 13.7745 35.6852 17.5775 37.9982 19.715ZM46.3805 15.2934C43.3677 15.8092 43.8591 20.6449 47.0896 20.3841C50.5784 20.1024 50.0056 14.6728 46.3805 15.2934Z" fill="#5E604C"/>
<path d="M0.00206577 0.426758L13.9 14.2533L8.16642 19.9572C8.06219 19.9758 7.02411 18.8302 6.84736 18.628C2.5743 13.7388 -0.0848073 6.94952 0.00206577 0.426758Z" fill="#5E604C"/>
<path d="M0.320312 0.000976562C5.71255 0.0749954 11.1041 1.70984 15.6018 4.65377C16.1914 5.03972 19.9575 7.82169 19.8808 8.2598L14.1824 13.8721L0.320312 0.000976562Z" fill="#5E604C"/>
<path d="M20.2669 8.54356C20.4833 8.54356 22.8592 11.4163 23.085 11.8165C23.15 11.9317 23.2451 12.0296 23.1593 12.1688L11.942 23.2668L8.45312 20.3394L20.2669 8.54346V8.54356Z" fill="#5E604C"/>
<path d="M23.6322 12.4922L25.8296 16.5508L16.6341 25.7383C16.2914 25.9392 15.5513 25.4422 15.1843 25.2527C14.2442 24.7671 13.3437 24.1725 12.457 23.5965L23.6322 12.4922Z" fill="#5E604C"/>
<path d="M17.0039 26.1565L26.0959 17.1323C26.7872 18.6296 27.3158 20.2088 27.6727 21.8209L21.7024 27.714L17.004 26.1566L17.0039 26.1565Z" fill="#5E604C"/>
<path d="M28.4427 28.5076C26.3997 28.4968 24.3278 28.3166 22.3477 27.8135L27.7471 22.4233C27.903 22.5161 27.8763 22.6493 27.915 22.7873C28.1012 23.4499 28.6786 28.272 28.4427 28.5076Z" fill="#5E604C"/>
</svg>
