<svg width="78" height="77" viewBox="0 0 78 77" fill="none" xmlns="http://www.w3.org/2000/svg">
<path d="M77.0119 38.5008C77.0119 26.509 71.5692 15.4123 62.0789 8.05873C59.9547 6.41249 57.6675 5.01611 55.2649 3.85378C55.2032 3.81898 55.1494 3.77471 55.083 3.74308C55.015 3.70987 54.9422 3.68615 54.8742 3.65452C53.9204 3.20698 52.9524 2.78949 51.9638 2.42102C51.9607 2.42102 51.9559 2.41944 51.9559 2.41944C48.734 1.21916 45.3618 0.458501 41.8915 0.151709C33.9497 -0.548853 26.1154 1.18595 19.2365 5.16792C18.8553 5.38932 18.5501 5.6882 18.3224 6.03295C18.1499 6.29546 17.8684 6.47574 17.5568 6.5216C17.1455 6.5817 16.7438 6.73351 16.38 6.9897C12.0334 10.0466 8.42554 13.8878 5.6528 18.4106C4.91097 19.622 5.10552 21.2761 6.21905 22.1601C6.74102 22.5744 7.35314 22.7689 7.95736 22.7689C8.89848 22.7689 9.81743 22.2929 10.341 21.4295C12.7215 17.5124 15.8327 14.1883 19.5877 11.5473C20.0322 11.2342 20.3517 10.812 20.5478 10.3439C21.0508 10.3597 21.5633 10.26 22.0299 9.98962C27.9091 6.58486 34.6076 5.10308 41.4011 5.70244C45.2826 6.0456 49.0171 7.0577 52.5064 8.69762C54.6844 9.72237 56.7485 10.978 58.664 12.4629C66.7813 18.7553 71.4379 28.2454 71.4379 38.5008C71.4379 39.0416 71.5992 39.5413 71.865 39.9683C71.5613 40.37 71.3573 40.8555 71.3098 41.3931C71.1453 43.2513 70.8258 45.1 70.3576 46.8838C70.0302 48.1331 70.5284 49.4883 71.6752 50.0845C72.05 50.2791 72.4249 50.3866 72.7982 50.4198C74.1252 50.5368 75.3843 49.686 75.7354 48.3545C76.2906 46.2496 76.6702 44.072 76.8648 41.8818C76.9201 41.2556 76.7556 40.6641 76.4456 40.1691C76.7983 39.7026 77.0135 39.1286 77.0135 38.4992L77.0119 38.5008Z" fill="#EDECED"/>
<path d="M53.4984 67.8248C48.8307 70.2143 43.7866 71.4256 38.5053 71.4256C37.9643 71.4256 37.4645 71.5869 37.0359 71.8526C36.6341 71.549 36.1485 71.345 35.6108 71.2975C30.0368 70.8057 24.6589 68.8986 20.0577 65.7832C19.7477 65.5729 19.4108 65.4369 19.0676 65.3657C18.892 65.0573 18.6547 64.7774 18.3558 64.5465C10.2321 58.2541 5.57394 48.7625 5.57394 38.5024C5.57394 37.9616 5.41263 37.4618 5.1469 37.0333C5.45059 36.6316 5.6546 36.1461 5.70205 35.6084C5.89819 33.3802 6.31894 31.1742 6.95162 29.0535C7.39134 27.5796 6.55303 26.0267 5.07729 25.5871C3.60788 25.149 2.04991 25.9856 1.61019 27.461C0.869952 29.9407 0.378021 32.5168 0.148672 35.1182C0.0933119 35.7444 0.257834 36.3359 0.56785 36.8308C0.216709 37.2974 0 37.8714 0 38.5008C0 50.4973 5.44583 61.5956 14.9425 68.9507C15.2841 69.2164 15.6732 69.3556 16.0702 69.441C16.2759 69.811 16.5574 70.1431 16.9307 70.3977C22.3149 74.0444 28.6053 76.2758 35.1204 76.8514C35.7468 76.9068 36.3383 76.7423 36.8334 76.4324C37.3 76.7834 37.8742 77.0001 38.5037 77.0001C44.6771 77.0001 50.5769 75.5816 56.037 72.7856C57.4068 72.0835 57.9477 70.4056 57.247 69.0346C56.5447 67.6666 54.8665 67.1226 53.4952 67.8248H53.4984Z" fill="#EDECED"/>
<path d="M28.3925 31.71H35.1338C35.1338 31.71 38.5028 31.71 38.5028 35.0784C38.5028 35.0784 38.5028 38.4467 41.8719 38.4467H48.6131C48.6131 38.4467 51.9822 38.4467 51.9822 41.8151C51.9822 41.8151 51.9822 45.1835 48.6131 45.1835H41.8719C41.8719 45.1835 38.5028 45.1835 38.5028 41.8151C38.5028 41.8151 38.5028 38.4467 35.1338 38.4467H28.3925C28.3925 38.4467 25.0234 38.4467 25.0234 35.0784C25.0234 35.0784 25.0234 31.71 28.3925 31.71Z" fill="#EDECED"/>
<path d="M48.6133 34.9646C48.6133 34.9646 48.6133 31.5962 51.9823 31.5962C51.9823 31.5962 55.3514 31.5962 55.3514 34.9646C55.3514 34.9646 55.3514 38.333 51.9823 38.333C51.9823 38.333 48.6133 38.333 48.6133 34.9646Z" fill="#EDECED"/>
<path d="M21.6562 41.738C21.6562 41.738 21.6563 38.3696 25.0253 38.3696C25.0253 38.3696 28.3944 38.3696 28.3944 41.738C28.3944 41.738 28.3944 45.1064 25.0253 45.1064C25.0253 45.1064 21.6562 45.1064 21.6562 41.738Z" fill="#EDECED"/>
</svg>
