<svg width="15" height="12" viewBox="0 0 15 12" fill="none" xmlns="http://www.w3.org/2000/svg">
<path d="M14.9647 1.67245C14.8392 0.794091 14.1018 0.0994858 13.2181 0.00124573C13.2077 0.000118382 13.1981 -0.000203717 13.1877 0.000118382C12.766 0.0155791 1.76651 -0.0111551 1.71431 0.00881504C0.87633 0.132823 0.207003 0.768807 0.04281 1.59435C0.0404974 1.60626 0.0391759 1.6185 0.0390107 1.63058C-0.0196297 4.83772 -0.00558904 7.70472 0.0378544 10.3358C0.0378544 10.3454 0.0388455 10.3553 0.0403322 10.3648C0.172314 11.2225 0.916965 11.8996 1.80334 11.9976C1.82251 11.9954 13.1812 12.0039 13.1984 11.9976C14.084 11.8968 14.7886 11.2578 14.9576 10.4045C14.9599 10.3926 14.9613 10.3804 14.9614 10.3683C15.0184 7.49809 15.0054 4.58181 14.9667 1.70032C14.9667 1.69097 14.9661 1.68163 14.9647 1.67245ZM1.97943 10.7089C1.65617 10.6788 1.40178 10.4514 1.35223 10.1493V9.77291C1.35223 9.64214 1.4928 9.5497 1.61272 9.60832C1.85026 9.72444 2.14808 9.70688 2.37686 9.54986C2.38909 9.54148 2.40032 9.5315 2.4104 9.52071L4.48148 7.32255C4.54673 7.2533 4.65443 7.24573 4.73157 7.30209C5.78478 8.07271 6.62045 8.03422 8.43417 7.98398C9.07079 7.94532 9.75185 7.70778 10.2657 7.3095C10.3437 7.24911 10.4549 7.25346 10.5221 7.32496L12.5919 9.52184C12.6031 9.53375 12.6156 9.5447 12.6294 9.55356C12.8636 9.70463 13.1546 9.71944 13.3859 9.60606C13.5068 9.5468 13.6487 9.63731 13.6487 9.76921V10.1319C13.6048 10.4435 13.3499 10.678 13.0215 10.7086H1.97943V10.7089ZM13.0218 1.29012C13.2729 1.31315 13.4784 1.45778 13.5812 1.66617C13.617 1.73865 13.5932 1.82754 13.5286 1.87779C13.4959 1.90324 13.465 1.93126 13.4445 1.95429C12.1554 3.25718 10.9285 4.65799 9.65868 5.97022C8.8772 6.77965 7.81374 6.58236 6.58378 6.56835C5.66899 6.51923 5.08605 5.68838 4.4719 5.04467C3.56256 4.08868 2.71037 3.11207 1.77972 2.16816C1.68639 2.07298 1.59273 1.96766 1.47364 1.88246C1.40442 1.83302 1.37601 1.74154 1.41367 1.6665C1.51312 1.46808 1.7044 1.32572 1.92938 1.29689L13.0218 1.29012ZM3.50342 6.30697C2.92115 6.95954 2.26652 7.56042 1.675 8.21073C1.56218 8.3349 1.35223 8.25696 1.35223 8.09107L1.35272 4.24699C1.35272 4.08223 1.56036 4.00348 1.67467 4.12491L3.49929 6.0654C3.56305 6.1332 3.56537 6.23756 3.50342 6.30697ZM13.3245 8.21476C12.7412 7.56203 12.0887 6.96792 11.5069 6.31695C11.4452 6.24786 11.4471 6.14383 11.5106 6.07603L13.3264 4.13264C13.4404 4.01073 13.6487 4.08932 13.6487 4.25424V8.09687C13.6487 8.26388 13.4369 8.3407 13.3245 8.21476Z" fill="#606060"/>
</svg>
