<svg width="11" height="14" viewBox="0 0 11 14" fill="none" xmlns="http://www.w3.org/2000/svg">
<path fill-rule="evenodd" clip-rule="evenodd" d="M1.6893 0.624302C1.57446 0.42526 1.64261 0.170743 1.84151 0.0558236C2.04042 -0.0590943 2.29475 0.00910316 2.40959 0.208147L3.2927 1.73883C3.30418 1.7409 3.31568 1.74347 3.32716 1.74655L5.3593 2.29158C5.58119 2.35109 5.71286 2.57931 5.65341 2.80133C5.59399 3.02335 5.36593 3.15511 5.14408 3.0956L3.30928 2.60349L2.81812 4.43826C2.75869 4.66032 2.53066 4.79205 2.3088 4.73254C2.08695 4.67305 1.95528 4.44482 2.01471 4.2228L2.55911 2.18912C2.56248 2.17652 2.56639 2.16422 2.57082 2.15223L1.6893 0.624302ZM5.99668 7.26565C6.79813 6.80259 7.07267 5.77697 6.60991 4.97484C6.14713 4.17271 5.12226 3.89783 4.32081 4.36089C3.51933 4.82395 3.24479 5.84957 3.70758 6.6517C4.17036 7.45383 5.19523 7.72871 5.99668 7.26565ZM5.56329 6.53058C5.9598 6.30149 6.09564 5.79408 5.86669 5.39723C5.63773 5.00038 5.13066 4.86437 4.73415 5.09346C4.33765 5.32255 4.20181 5.83 4.43076 6.22685C4.65971 6.6237 5.16675 6.75967 5.56329 6.53058ZM3.12716 6.99442C3.58994 7.79656 3.31539 8.82218 2.51393 9.28524C1.71247 9.74826 0.687609 9.47338 0.224828 8.67128C-0.237951 7.86915 0.0366018 6.8435 0.838057 6.38047C1.63952 5.91741 2.66438 6.19229 3.12716 6.99442ZM2.37743 7.40237C2.60638 7.79922 2.47055 8.30663 2.07403 8.53576C1.67751 8.76484 1.17047 8.62884 0.941511 8.23199C0.712553 7.83514 0.848387 7.32773 1.2449 7.09864C1.64142 6.86952 2.14847 7.00552 2.37743 7.40237ZM6.28597 11.5369C7.08742 11.0739 7.36195 10.0482 6.8992 9.24614C6.43642 8.44401 5.41155 8.16913 4.6101 8.63215C3.80862 9.09521 3.53408 10.1209 3.99687 10.923C4.45965 11.7251 5.48452 12 6.28597 11.5369ZM5.83968 10.7829C6.23618 10.5538 6.37202 10.0464 6.14307 9.64954C5.91408 9.25269 5.40704 9.11669 5.01053 9.34578C4.61403 9.57486 4.47819 10.0823 4.70714 10.4792C4.93609 10.876 5.44313 11.012 5.83968 10.7829ZM10.3937 11.4843C10.8565 12.2864 10.5819 13.312 9.78047 13.7751C8.97902 14.2381 7.95415 13.9633 7.49137 13.1612C7.02858 12.359 7.30315 11.3334 8.1046 10.8703C8.90605 10.4073 9.93092 10.6822 10.3937 11.4843ZM9.64959 11.9013C9.87854 12.2982 9.74271 12.8056 9.3462 13.0347C8.94966 13.2638 8.44262 13.1278 8.21367 12.7309C7.98472 12.3341 8.12055 11.8267 8.51706 11.5976C8.91356 11.3685 9.4206 11.5045 9.64959 11.9013ZM9.78146 9.51736C10.5829 9.0543 10.8575 8.02868 10.3947 7.22655C9.93191 6.42442 8.90704 6.14954 8.10559 6.6126C7.30414 7.07566 7.02957 8.10128 7.49236 8.90341C7.95514 9.70554 8.98001 9.98042 9.78146 9.51736ZM9.36348 8.77775C9.75998 8.54866 9.89582 8.04121 9.66687 7.64437C9.43788 7.24752 8.93084 7.11155 8.53434 7.34063C8.13783 7.56972 8.00199 8.07714 8.23095 8.47399C8.4599 8.87083 8.96694 9.00684 9.36348 8.77775ZM10.1054 2.95526C10.5682 3.75738 10.2936 4.78304 9.49218 5.24606C8.69073 5.70912 7.66586 5.43424 7.20307 4.63211C6.74032 3.82998 7.01486 2.80436 7.81631 2.34131C8.61775 1.87826 9.64262 2.15313 10.1054 2.95526ZM9.35593 3.3575C9.58488 3.75434 9.44905 4.26176 9.05254 4.49085C8.65603 4.71994 8.14896 4.58396 7.92001 4.18712C7.69106 3.79027 7.82689 3.28282 8.2234 3.05373C8.61994 2.82464 9.12698 2.96064 9.35593 3.3575Z" fill="#878787"/>
</svg>
