<svg width="46" height="40" viewBox="0 0 46 40" fill="none" xmlns="http://www.w3.org/2000/svg">
<path d="M24.0262 21.0666H44.0947C44.3711 21.0666 45.005 21.8441 45.088 22.1145C45.3648 23.017 44.8277 23.9926 43.8751 24.0215L1.00351 24.021C0.224168 23.9131 -0.016645 23.0211 0.000881102 22.2588C0.0197729 21.4342 0.945697 21.0666 1.00988 21.0666H21.0784V0.998988C21.0784 0.43269 21.8316 0 22.7288 0C23.3013 0 24.0264 0.368731 24.0264 0.772059V21.0664L24.0262 21.0666Z" fill="#4D4E4E"/>
<path d="M8.40798 29.2611C8.51768 29.1514 9.16501 28.9995 9.38853 28.9932L35.9319 28.9993C37.5971 29.2256 37.6597 31.4703 36.1623 31.9569H8.93763C8.19926 31.8558 7.75063 30.6905 7.94957 30.0481C7.96299 30.0047 8.37565 29.2932 8.40798 29.2611Z" fill="#4D4E4E"/>
<path d="M16.6796 36.9629H28.4228C29.6537 37.6851 29.5857 39.4247 28.2271 39.8932L17.1057 39.8895C15.5325 39.6753 15.3806 37.7017 16.6796 36.9629Z" fill="#4D4E4E"/>
</svg>
