<svg width="21" height="21" viewBox="0 0 21 21" fill="none" xmlns="http://www.w3.org/2000/svg">
<path d="M9.30075 0.0207223C17.7921 -0.506926 23.1116 9.15578 18.0439 16.0092C13.713 21.8661 4.83707 21.3109 1.27891 14.9676C-2.29347 8.59934 2.01323 0.473482 9.30075 0.0207223ZM9.90448 1.7567C9.72934 1.76818 9.54186 1.76887 9.36569 1.78395C3.90276 2.24905 0.302788 7.9435 2.29976 13.0788C4.51764 18.782 11.9047 20.1558 16.0474 15.6354C19.2954 12.0913 18.898 6.59396 15.1787 3.55849C13.8367 2.46326 11.6405 1.64205 9.90431 1.7567H9.90448Z" fill="#B2B2B2"/>
<path d="M9.94603 8.62303C10.024 8.61601 10.2178 8.64908 10.2965 8.67033C10.8039 8.8076 11.098 9.2206 11.1636 9.72785L11.1604 14.4438C11.0207 15.8353 9.12106 15.8955 8.85938 14.5605L8.86212 9.57962C8.96391 9.05386 9.41718 8.67016 9.94603 8.62303Z" fill="#B2B2B2"/>
<path d="M9.82981 4.5875C10.8517 4.46411 11.6441 5.4656 11.3026 6.43761C11.0423 7.17861 10.1785 7.56711 9.4516 7.24905C8.15964 6.6837 8.44343 4.75493 9.82981 4.5875Z" fill="#B2B2B2"/>
</svg>
