<svg width="81" height="13" viewBox="0 0 81 13" fill="none" xmlns="http://www.w3.org/2000/svg">
<path d="M37.3008 2.12514C37.3912 1.50035 37.53 1.86256 37.8316 1.8436C38.1913 1.82102 38.0184 1.32496 38.0662 1.06805C38.1952 0.373182 38.5981 0.793023 38.7103 0.72954C38.7482 0.708069 38.7581 0.497545 38.8743 0.467709C39.3871 0.335817 39.1275 1.19716 39.2001 1.29326L39.8629 0.831596C39.8568 1.06768 39.8911 1.37245 40.1468 1.47795C40.3448 1.04119 40.3051 0.735954 40.244 0.27661L40.7654 0.73837C40.7929 0.463433 41.1947 0.415937 41.2865 0.557681C41.3596 0.670798 40.917 1.06499 41.8113 1.1083C42.2488 1.12949 41.9265 0.928911 42.0925 0.645795C42.3846 0.148157 42.7812 0.967577 42.7115 1.2928C42.9406 1.2414 42.8358 0.790978 42.9895 0.687156C43.441 0.382105 43.4791 1.05616 43.4708 1.38575C44.3935 0.355243 44.0538 1.60333 44.2297 1.75512L44.7024 1.57099C44.6868 2.17672 45.2365 1.87632 45.0841 2.49497C45.5269 2.40035 45.7964 2.11826 46.126 1.84797C46.1413 2.08275 46.0987 2.31345 46.0273 2.53652C45.9274 2.84799 45.4141 3.27415 46.1788 3.24134C46.5252 3.22646 46.6264 2.77567 46.9807 2.63319L46.3173 2.63411C46.3913 2.36754 47.2327 2.07365 47.2639 2.02699C47.2923 1.98451 47.0655 1.20905 47.172 1.0161L47.8341 1.66282C48.0443 1.44272 47.9015 0.778709 47.9295 0.739671C47.9529 0.706861 48.6787 0.540207 48.7258 0.547271C48.8705 0.569021 48.7749 0.924729 48.9731 0.923149L48.9752 0.369092L49.5923 1.01591L50.1126 0.64691C50.1735 0.720152 49.8946 1.24642 50.0605 1.48334C50.2221 1.71385 50.5488 1.37859 50.8277 1.56485C51.1101 1.75354 50.734 1.85931 50.7783 1.93859C50.7831 1.94714 50.9109 1.92047 50.9661 2.007C51.213 2.39385 51.1033 2.70773 51.7256 2.35481L51.347 1.94129C53.0127 2.41383 52.3463 0.810497 52.8651 0.500333C53.3484 0.211454 53.1496 1.12912 53.4337 1.2006C53.498 0.816724 53.7652 0.523477 54.0523 0.276982C53.8542 0.966462 54.406 0.351618 54.5581 0.800552C54.6708 1.13293 54.4314 2.09028 55.0013 1.10876L55.0953 1.29298L55.4269 0.831689L55.5235 1.75521C56.8895 1.2783 56.3215 2.07997 56.3771 2.1243C56.4394 2.17403 57.137 1.92261 57.1869 1.85373C57.2175 1.81163 57.211 0.999551 57.327 0.831131C57.5876 0.794882 57.4724 0.85855 57.5168 0.968228C57.6089 1.19585 57.6018 1.5709 57.9898 1.57024L58.0862 0.461574C58.3754 0.634734 58.6337 0.956795 58.6557 1.29336L58.8913 0.831782L59.4612 1.38398C59.7306 1.22941 59.6121 0.551175 60.0226 0.650814C60.364 0.73363 60.0301 1.62964 60.1706 1.71125C60.3892 1.83802 60.6428 1.63131 60.8767 1.66254C61.0367 1.68392 61.1371 1.85587 61.3495 1.84918C61.7426 1.83672 62.0845 0.957725 62.3571 0.647282L62.5443 1.47767L62.6415 0.461667L63.2563 1.0173L63.7782 0.461667L63.7803 1.10821C64.0208 0.95819 63.907 0.750825 64.2981 0.733909C64.9167 0.70714 64.6738 1.19437 64.7758 1.20218L65.4865 0.461667C65.5025 0.695615 65.2995 1.13934 65.5812 1.2928C65.623 0.919802 65.9579 0.71188 66.1998 0.462132C66.0749 1.2809 66.5688 0.608709 66.8763 0.575992C67.0667 0.555729 67.2928 0.75352 67.4251 0.744226C67.5094 0.738277 67.7769 0.0470311 67.954 0C67.9554 0.455347 67.7475 0.844144 67.9564 1.2928C68.1865 1.21658 67.9648 0.682602 68.0617 0.565954C68.306 0.271777 68.5184 0.70398 68.5456 0.72164C68.5628 0.732886 68.9317 0.804362 68.9522 0.801109C69.0731 0.781869 69.1174 0.60369 69.2334 0.580918C69.6562 0.498288 69.3453 1.1268 69.2838 1.38593C69.2938 1.75818 69.5949 1.89612 70.1873 1.79992L70.2328 2.03303C70.2537 2.05654 70.2091 2.19894 70.2332 2.21771C70.265 2.24244 70.9586 1.96285 70.9812 1.92986C71.0794 1.78644 70.8769 1.2006 70.8023 1.01721C70.9198 0.925844 71.5175 1.40368 71.6976 1.39197C71.7408 1.38918 72.0462 0.808824 72.3197 0.83141L72.5575 1.57034L72.7474 0.554521C72.9117 0.743389 73.1224 0.962837 73.2543 1.16964C73.6196 1.74201 73.2027 1.85243 74.2184 1.66328L74.124 2.49432L74.6934 2.58671L74.5979 2.31103L75.7374 2.12449L74.9782 1.38695C75.2064 1.27216 76.2573 1.52275 76.306 1.47841C76.3522 1.43622 76.6064 0.520224 76.9702 0.461574L77.0182 1.47786C77.32 1.23275 77.1379 0.508977 77.5888 0.462039C77.693 0.451164 77.557 0.687621 77.7294 0.645981L77.7774 0.36965C78.1444 0.451536 78.3473 1.35043 78.399 1.38379C78.4898 1.44254 78.894 1.23313 78.9637 1.29326C78.9925 1.31808 79.0373 1.86098 79.1162 2.02792C79.2663 2.34514 79.9523 2.33799 80.0055 2.82057C80.0147 2.9032 79.6538 2.90924 79.7692 3.05033L80.9564 3.69799L80.1979 3.78917C80.0137 4.00025 80.009 4.26189 80.1838 4.57401C80.2255 4.97638 80.0695 5.26869 79.7157 5.45096C79.9256 5.74012 79.8921 5.95594 79.5015 6.00214L79.4308 6.24473C79.7975 6.59616 80.2945 7.10932 79.6319 7.44867L79.9938 7.95737C79.8953 8.29151 80.0583 8.50427 80.4826 8.59564C80.5323 8.66265 80.5456 8.71424 80.5775 8.78051C80.5986 8.87104 80.5739 8.94316 80.4976 8.99484L79.4294 8.95329C79.5408 9.14486 79.5427 9.32053 79.3428 9.44322C80.5228 10.025 79.3583 10.3369 78.5912 10.1126C78.41 10.5137 78.1467 10.7319 77.8012 10.7672C77.4862 11.2033 77.2726 11.0981 77.0671 10.6637C76.9027 10.3162 77.1168 10.1335 77.0611 10.6326C77.0575 10.665 77.0192 10.6938 76.9711 10.7216C76.7254 10.8055 76.3517 10.5478 76.2119 10.5367C76.0273 10.4612 75.8974 10.175 75.9271 9.98213C75.9839 9.87756 75.9206 9.87756 75.7373 9.98213C75.6257 10.376 74.6324 10.4709 74.5997 9.93221C74.2543 10.0613 73.9216 10.0756 73.6013 9.97525C73.3749 11.0545 73.0524 11.2897 72.6339 10.681C72.4296 10.7836 72.167 10.7972 71.8462 10.7216C71.65 10.2098 71.0751 10.7367 70.8492 10.2576C70.7687 10.0871 71.0354 9.69631 70.7309 9.51999C70.3439 9.29599 69.7995 9.56842 69.3793 9.51897C69.6484 9.27833 69.932 8.96305 70.3272 8.96426L69.9471 8.82577C69.9165 8.65215 70.3246 8.44004 70.3239 8.36448C70.3219 8.13034 69.4597 7.50834 69.2839 7.30265L70.6129 7.20859C70.6417 6.6932 69.6707 7.09761 69.5685 7.02335C69.7883 6.75585 69.8834 6.43044 69.9863 6.10522C70.028 5.97333 69.825 5.78632 70.1371 5.82136C70.1637 5.64522 69.9376 5.76512 69.8532 5.73027C69.249 5.89385 69.589 5.21451 69.9455 5.03791C69.926 4.955 69.2603 4.53032 69.1995 4.54055C69.1595 5.08029 68.9721 5.39399 68.6373 5.48154C68.4904 5.73352 68.3066 5.99015 68.0857 6.25142C68.2161 6.48946 68.1253 6.68019 67.8134 6.82351C68.216 7.19251 68.2349 7.44625 67.8699 7.58484C68.2377 7.79536 68.361 8.00905 68.2396 8.22599C68.1505 8.40574 67.9558 8.47406 67.6556 8.43103C67.6668 8.78962 67.8084 8.99057 68.0805 9.03369L68.1447 9.24273C68.3053 9.39981 68.5544 9.68005 68.5244 9.88974L68.391 10.0411L67.4886 9.80339C66.9137 9.61703 66.7277 9.96344 66.9308 10.8425L66.8161 10.999C66.6556 11.5023 66.8069 11.8794 66.3897 12.2908C65.8917 12.0936 66.1422 11.9191 66.1306 11.536C66.1266 11.4026 66.0941 11.0514 65.8669 11.2763C65.6237 11.2057 65.4111 11.0888 65.2291 10.9257L65.1077 10.999C64.9909 10.953 65.083 10.6526 64.918 10.7674C64.5858 10.9987 64.8101 11.6377 64.5396 11.9721C64.0019 11.9841 64.2895 11.2978 64.2517 10.8613C64.2229 10.5287 64.0886 9.24766 63.9698 9.03388C63.859 8.83469 63.498 8.92829 63.4142 8.8584C63.2876 8.7529 63.5406 8.22961 63.0198 8.31735L63.3993 7.85782C62.9956 7.79824 62.8039 7.31074 62.3554 7.39411L62.3793 7.18052L63.2096 6.93198C62.7019 6.55647 62.6124 6.3044 63.3724 6.26564L62.9748 6.18924C62.4995 6.27103 62.0936 5.82972 62.6401 5.73036C62.8329 5.40384 62.8247 5.20214 62.6156 5.12518C62.6428 4.91252 62.5255 4.55021 62.3554 4.80601C62.3178 5.02796 62.2437 5.22129 61.9757 5.08327C61.6135 5.32093 61.4345 5.05101 61.4388 4.27351C61.1525 3.91427 61.1484 4.00397 61.4266 4.54269C60.9749 4.83844 60.9135 5.07927 61.2425 5.26498L61.1216 5.45292L61.2925 5.57784C62.6213 5.56334 63.0209 6.67396 61.3114 6.65453C61.6581 6.77499 61.9487 6.93495 61.5103 7.21184C60.6506 7.07214 61.0164 7.41484 61.5554 7.63717L61.5961 7.85615C61.62 7.91908 61.6705 7.97838 61.691 8.04102C61.5616 8.22729 61.2952 8.29012 60.8917 8.2297C61.5052 8.28696 61.2199 8.72604 60.8467 8.96984C61.0718 9.09104 61.074 9.22256 60.9317 9.42751C60.9157 9.7399 60.6344 9.8665 60.0877 9.80738L59.6748 10.5436C59.4296 10.9238 59.0281 11.0317 58.9305 10.5232C58.9286 10.8055 58.8363 10.9641 58.654 10.9989C58.563 10.5522 58.3046 10.7276 57.9897 10.9065C57.624 10.9727 57.464 10.6768 57.5096 10.0189C56.6538 10.673 56.2131 10.64 56.1874 9.91994L55.4091 9.95498C55.477 10.6737 54.9154 11.6507 54.3886 10.6944C54.1519 10.7935 53.9286 10.8334 53.7189 10.8142C53.6921 10.7965 53.5637 10.8475 53.5051 10.8105C53.4149 10.7536 53.4493 10.5693 53.2941 10.6305C53.2216 10.6591 53.0079 10.958 52.9607 10.9065C53.0016 10.7714 52.8733 10.622 52.8648 10.5368C52.6507 9.86241 52.2697 9.80766 51.5368 9.7848L51.248 9.60959C51.2116 9.1483 50.4615 9.29004 50.5876 9.73108C50.7289 10.2111 50.444 10.3366 49.7328 10.1078C49.6467 10.4774 49.6214 10.8581 49.6569 11.2499L49.4481 11.3688C49.4426 11.3942 49.3731 11.4274 49.3532 11.4612C49.1826 11.4059 48.7782 10.8652 48.6837 10.6837C48.6771 10.671 48.9084 10.6008 48.594 10.7217C47.6341 10.9798 48.042 10.292 47.55 9.98222C47.5482 9.56693 46.9521 9.40874 46.4616 9.30203C46.0626 8.80086 45.742 9.40269 45.8678 9.82644C46.1838 10.3535 46.2093 10.8146 45.4187 10.6204C45.3848 11.1639 44.9907 11.1968 44.6579 10.8316C44.3784 10.9189 44.1936 10.8176 44.0033 10.624C43.8794 10.883 43.5384 11.1156 43.3741 10.8141C43.3691 10.5985 43.3988 10.4971 43.1385 10.4423C42.7474 10.36 42.984 10.6895 42.8476 10.728C42.7045 10.7685 42.4107 10.6891 42.2353 10.7217L42.0819 10.5298C42.4886 9.66183 42.2595 9.47213 41.3944 9.96065C41.7823 10.8573 40.933 11.2112 40.5712 10.3389C40.5797 11.1561 40.3314 11.5988 39.7615 10.7454C39.5146 11.1642 39.1662 10.8195 39.0337 10.4736L38.9137 10.5368C38.8572 10.6478 38.7757 10.9229 38.7294 10.958C38.3131 11.274 38.2143 10.2033 38.1483 9.9587C38.0879 9.7347 38.0854 9.93258 38.0469 9.46952C38.0001 8.90617 37.3651 8.9414 36.9208 8.96445C37.5581 8.30071 37.1375 8.62408 37.0257 8.35602C36.8923 8.03637 37.1952 8.02671 37.1954 8.00124C37.1958 7.92205 37.0724 7.76925 37.104 7.62843C37.1225 7.54589 37.4891 7.56532 37.4882 7.44021C37.4879 7.39894 37.0861 7.15087 37.2051 6.93226C37.4151 6.93272 37.6362 6.98403 37.7728 6.79321L37.2054 6.10094C37.4069 6.09834 37.6985 6.15448 37.7746 5.91635L37.0156 5.5453C36.5807 5.70991 36.7805 5.09879 37.1313 5.02796C36.8897 4.70581 36.7056 4.40912 37.2509 4.32565C36.7889 4.29331 36.5814 4.4411 36.6284 4.76873C36.3945 4.78017 36.2368 4.85666 36.1551 4.99822C35.7081 5.03856 35.7063 5.1461 36.1496 5.32074C36.2054 5.40198 36.2706 5.50088 36.246 5.59131C36.2324 5.64123 35.5708 6.23757 35.4987 6.25495C35.9295 6.59124 35.8028 6.85548 35.3404 7.05987C35.6683 7.31157 36.0482 7.65529 35.4861 7.89956C35.4369 8.17431 35.3141 8.4063 35.1175 8.59545C35.3553 8.90087 34.7376 9.07171 34.4464 9.08863C36.1396 9.18492 34.7908 10.1124 33.8732 9.97367C33.7439 10.3894 33.535 11.0198 33.0296 10.9987L32.8397 11.0911L32.6356 11.0985C32.6161 10.9438 32.4627 10.9721 32.1753 11.1835C31.1627 11.0717 31.2401 9.71593 30.9318 9.20565C30.7875 8.96687 30.559 9.0046 30.4729 8.91351C30.2734 8.70262 30.0729 8.28129 29.8032 8.08647L30.3714 7.94956C30.1777 7.89612 30.0101 7.84695 29.8027 7.85587C29.6199 7.83329 29.5567 7.77166 29.6129 7.671L29.4942 7.51011C29.0732 7.28592 29.0983 7.10217 29.57 6.95866C29.3052 6.87723 29.1401 6.71123 29.4231 6.56177L29.4192 6.34604C29.6704 6.29399 29.1922 5.75118 29.08 6.13961C28.304 6.01097 28.0964 6.4098 28.9293 6.52524L28.9486 6.74664C29.397 6.90976 28.8838 7.46354 28.5689 7.11639C28.3903 7.18712 28.1979 7.25376 27.9916 7.31632C28.477 7.64981 28.6062 7.92214 28.3791 8.13313C28.2665 8.2878 28.1462 8.2785 27.9802 8.23333C28.3449 8.71461 28.3692 8.99735 28.0532 9.08147C28.1384 9.57901 27.6764 9.64287 27.2983 9.44814C27.5442 10.2375 27.0947 10.5067 26.4481 9.96688C26.6929 10.7522 26.2196 10.598 25.7039 10.3394C25.5973 10.6947 25.4254 10.8752 25.188 10.8805C25.065 11.2019 24.8949 11.4261 24.6777 11.5531C24.7007 11.3569 24.6894 11.3458 24.4879 11.3682C24.4165 11.13 24.3695 10.8549 24.347 10.543C24.1071 10.9879 23.6959 11.4426 23.6144 10.6755C23.082 11.0118 22.7222 11.0319 22.5348 10.7359C22.2798 10.9323 21.8129 11.0794 21.5711 10.846C20.8197 11.6067 20.8709 10.4612 20.935 10.4944C20.9581 10.5064 20.9267 10.9897 20.7867 10.9061C20.3661 11.1296 20.2575 10.5851 20.0733 10.4446C19.8725 10.2916 19.5921 10.4626 19.6478 10.1666L19.5091 9.97004C19.8016 9.57046 18.8626 9.51135 18.7496 9.62856C18.6418 10.0518 18.3965 10.0804 18.0027 10.0602C18.0519 10.7487 17.8826 10.9744 17.495 10.7374C17.3755 11.0576 17.0957 11.0605 16.8251 10.8864C16.8337 11.0518 16.8004 11.1507 16.6109 11.1834C16.4784 10.9754 16.3841 10.9519 16.2313 10.8136L16.0298 10.7637C15.7115 10.738 15.3376 10.6282 15.474 10.0439C15.233 10.0853 15.011 10.1262 14.8077 10.1665C14.5883 10.1938 14.3368 10.129 14.053 9.97199C14.2097 10.7059 13.5583 10.7194 13.1664 10.2324C12.7923 10.3714 12.4045 10.2836 12.0029 9.9693L11.8833 10.3267C12.0393 11.0318 11.6144 11.1848 11.0114 10.9984C10.7917 11.6521 10.4417 11.1926 10.5369 10.6507C10.5754 10.8871 10.5121 11.0338 10.347 11.0908L9.11322 10.8135C9.2335 10.6895 9.32842 10.5509 9.39796 10.3976C9.09013 10.2787 9.10343 9.20258 9.39796 9.0573C9.30761 9.27889 9.05308 9.39907 8.63447 9.41756C9.48965 10.155 8.81793 10.223 8.0188 10.0938C7.95781 10.9597 6.89911 11.6756 6.36022 10.8334C6.32364 11.1069 6.10027 11.2197 5.84802 11.098C5.85742 11.2205 5.82892 11.3061 5.69657 11.3681C5.67795 11.4052 5.64175 11.4511 5.60166 11.4605L5.38542 11.48L4.87702 10.7552C4.7079 10.8526 4.56187 10.8621 4.43883 10.784C4.30753 11.0404 4.1311 11.1367 3.90953 11.0728C3.76863 11.2987 3.60503 11.3971 3.41881 11.3681H3.32389C3.15649 11.3536 3.06756 11.2397 3.0572 11.0266C3.00238 11.2678 2.90148 11.4125 2.7544 11.4605C2.61417 11.3174 2.74737 11.0875 2.47051 11.2763C2.45664 11.0229 2.71269 10.7407 2.42073 10.5372C2.128 10.4973 2.43308 10.7112 2.28553 10.858C2.22776 10.9155 1.94967 11.0409 1.90122 10.9985C1.98207 10.5362 1.41116 10.2354 1.51975 9.8573C1.54778 9.7598 1.81789 9.84586 1.70996 9.61238C0.854968 9.71165 -0.371324 9.07952 1.14209 8.82624C0.840621 8.69379 0.547136 8.52295 0.381819 8.22636L1.33125 8.1323C1.39453 7.74982 0.703997 8.16585 0.757393 7.63735C0.764234 7.57006 1.21125 7.34345 1.23539 7.20961C0.53222 7.36725 0.284339 6.78642 1.04584 6.65277L0.666469 6.10038C0.758818 6.03356 1.31244 6.22038 1.33011 6.00827C0.885846 5.9855 1.18076 5.68333 1.09848 5.54605C1.03644 5.44251 0.563383 5.23235 0.477114 5.03596C0.58495 4.91159 0.931736 5.05668 1.03292 4.97703C1.42161 4.67114 0.512648 4.35465 0.476639 3.97441C0.781715 3.93491 1.19007 4.09245 1.4236 3.8348C1.04489 3.4988 0.640341 3.66285 0.236644 3.69585C0.135459 3.70412 -0.0231126 3.75134 0.00282508 3.60504L0.760528 3.1403L0.477114 3.00339C0.790076 2.67975 1.11425 2.32507 1.61543 2.30889L1.33125 1.75614C1.47681 1.65566 2.05779 1.68336 2.08544 1.65789C2.13637 1.61086 2.29399 0.567905 2.70737 0.461574L2.75535 1.47786C3.07696 1.32654 3.04922 0.936161 3.0401 0.645981C3.28342 0.621815 3.61272 1.19641 3.65538 1.19781C3.71628 1.19976 4.13537 0.666243 4.17908 1.38565L5.41164 1.10914C3.99058 2.38269 5.71871 2.04818 5.88146 2.22338C5.91756 2.26233 5.8483 2.46226 5.90654 2.56506C5.92194 2.5922 6.61988 2.92615 6.07595 2.95683C6.01913 3.10591 6.02274 3.37369 6.23062 3.33875C6.48734 3.48328 6.45466 3.6569 6.17077 3.69631L6.07585 3.97357L6.01105 4.17146C5.6998 4.16356 5.62265 4.32798 5.77961 4.66491C6.47584 5.08261 6.01105 5.53266 5.52755 5.82164L5.78322 6.05772C6.00991 5.89776 6.30245 5.71475 6.43869 6.04127C6.59185 5.96106 6.70938 6.02082 6.74016 6.19184C6.9145 6.70333 7.47649 6.51864 7.6418 7.11425L8.16265 6.19203C8.18611 6.51093 8.38031 6.78373 8.4301 7.09696C8.46582 7.32208 8.24958 7.56235 8.50506 7.66208C8.92463 7.82594 8.78344 7.49719 8.84615 7.41809C8.91959 7.32542 9.16291 7.34327 9.1974 7.29103C9.29288 7.1465 9.07569 6.8408 9.19616 6.69534C9.35046 6.50907 9.8313 6.48472 9.96612 6.28563L8.73385 5.91588C8.90638 5.85045 9.46685 5.75704 9.54827 5.63965C9.59074 5.57849 9.45583 5.07053 9.97106 4.8482C10.1845 4.75619 10.4085 4.93669 10.6312 4.89681C10.4302 4.48868 9.91615 4.52949 9.58779 4.29647C9.90161 4.11727 10.2663 4.03427 10.6308 4.0654C10.6749 3.86864 10.4231 3.73191 10.4365 3.5581C10.4397 3.51609 10.5992 3.51358 10.6089 3.49499C10.6322 3.4501 10.2683 2.70132 10.1966 2.59443C10.1145 2.4722 9.84175 2.4498 9.87311 2.26623C9.94627 1.83812 10.9748 2.42601 11.295 2.40165L11.0109 1.57117C11.0793 1.51773 11.8498 1.93497 12.1566 1.71524C12.3013 1.61161 12.1966 1.35833 12.269 1.22272C12.2908 1.18173 12.4486 1.14929 12.5141 1.05104C12.7131 0.752498 12.8346 0.408223 13.1468 0.184221L13.1947 1.01517C13.4013 0.911995 13.3516 0.39995 13.7051 0.729168C13.8604 0.873794 13.6786 1.15338 13.8101 1.29243C14.0003 1.15961 14.3097 0.659551 14.5673 0.738649C14.8076 0.812449 14.6282 1.39179 14.9007 1.47702L15.1855 0.0920174C15.2152 0.383592 15.4796 0.631946 15.545 0.897774C15.6852 1.46828 15.3129 2.1348 16.2288 1.38537C16.565 1.95839 16.385 2.17347 17.0844 1.84806L16.8008 2.58662L17.3692 2.49516L17.3697 2.95673L17.3921 3.08556C17.2433 3.22423 16.7832 3.69864 17.2754 3.48755L17.4646 3.60374L17.5595 3.69613C17.7497 3.90656 17.7976 4.11188 17.703 4.31209L17.8442 4.34313C17.8419 4.56918 17.7777 4.65952 18.0341 4.62039C18.0216 4.71966 18.0533 4.78128 18.129 4.80526L19.2678 4.89672L18.4142 4.11151L19.0776 4.06475C19.0299 3.87096 18.5783 3.97831 18.5214 3.7308C18.4198 3.28883 19.0125 3.46023 19.078 3.41775C19.0975 3.40511 18.9094 3.11697 18.9263 3.0007C18.9425 2.88935 19.136 2.83804 19.0776 2.67975C18.4119 2.76768 18.2958 2.57881 18.8562 2.23203C19.0204 2.13044 19.4578 2.01992 19.514 1.94268C19.5501 1.89314 19.3882 0.964789 19.5532 0.737719C19.7165 0.512881 19.9473 1.53344 20.2159 1.47758L20.3607 0.830202C20.4666 0.621722 20.6523 0.927424 20.7397 0.920453C20.8008 0.91562 21.1862 0.156894 21.4037 0.0915527L21.4517 1.10783C21.6725 0.997599 21.7574 0.670426 21.9704 0.54755C22.1052 0.469754 22.2622 0.55164 22.433 0.454696C22.6729 0.318622 22.5987 0.0523291 22.8737 0.0916456C22.8313 0.542252 22.6817 0.938206 22.8755 1.38444C23.221 1.25608 22.9848 0.271126 23.0646 0.184035C23.4196 0.140443 23.921 1.36771 24.2025 1.10728C24.2471 1.06591 23.93 0.60527 24.5817 0.552569C24.4849 1.14167 25.0809 0.428206 25.0581 1.10728C25.2756 1.13544 25.0177 0.514089 25.2929 0.646446C25.4508 0.722383 25.634 1.19911 25.6273 1.38509L26.4801 1.01591C26.5241 1.05941 26.0671 1.81191 26.4326 1.84509C26.4843 1.84983 27.1466 1.49198 27.4296 1.66347C27.4743 1.69526 26.8671 2.4551 27.194 2.49395C27.2542 2.50111 28.0868 1.82696 28.1368 1.75047C28.2948 1.50936 28.2779 1.10551 28.38 0.830759L28.8524 1.01535L28.7594 0.460924C28.9691 0.57971 29.187 0.773783 29.2342 1.0147L29.233 0.554242C29.4526 0.383964 30.0976 1.73467 30.1872 0.463619C31.1644 0.516599 30.9764 0.780847 30.9418 1.56959C31.1555 1.59469 31.2287 1.34727 31.4616 1.38063C31.509 1.38742 31.497 1.54933 31.5542 1.55491C31.8216 1.58112 32.4567 1.55212 32.6754 1.58995C33.3467 1.70604 33.8993 2.39041 33.789 1.01591L34.5467 1.38519C34.5126 0.899819 34.4738 0.75287 35.0231 0.737534L34.9277 0.461667L35.3549 0.737812C36.1124 -0.130033 35.7055 1.21798 35.7816 1.29289L36.6814 1.10783C36.9054 1.23062 36.7253 1.3574 36.7306 1.47767C36.5281 1.93153 36.4865 2.32153 36.9774 2.57723C36.7528 2.25415 37.5865 2.17607 37.5845 2.21836C37.5836 2.23853 37.1842 2.30769 37.3001 2.12477L37.3008 2.12514Z" fill="white"/>
<path d="M28.0447 8.00186C28.2088 7.80761 28.2784 7.8473 28.2345 8.09424C28.5529 8.25596 28.8993 8.57168 28.9927 8.92607L28.2346 8.83471C28.3903 9.06976 28.662 9.24997 28.6135 9.57285L28.2348 9.48158C28.8464 10.5957 27.6989 9.85159 27.5703 9.94388C27.7381 10.1741 27.9433 10.9777 27.4391 10.8554C27.3312 10.8291 27.0136 10.2464 26.7167 10.3131L26.9049 11.237L26.2438 10.8673L25.8141 11.6062L25.6734 11.2376C25.6906 11.6481 25.2911 11.8774 25.1964 12.2529L25.0564 11.0509C24.9348 10.7682 24.5682 11.6522 24.3897 11.6983C24.1594 11.7535 24.3148 11.5212 24.3437 11.4218C24.4811 10.949 24.815 10.6066 24.8193 10.1284L24.9142 10.6819L25.2941 9.94258L26.051 10.3127C25.9682 9.98905 25.785 9.75158 25.8633 9.38846C27.4682 10.7904 26.6012 9.13593 26.7169 9.01929C26.8954 9.04123 27.5107 9.47499 27.5662 9.06576C27.5753 8.99903 26.9857 8.31526 27.8542 8.83387L27.2858 7.91059C27.5468 7.8881 27.7975 7.92499 28.045 8.00204L28.0447 8.00186Z" fill="#BBBBBB"/>
<path d="M5.36657 11.2365C5.347 11.2008 5.25247 10.7029 5.27223 10.6825L5.79067 10.8665L5.93698 10.3122C6.17725 10.3194 6.29315 10.8418 6.3246 10.8631C6.34892 10.8795 6.88836 10.8629 6.91657 10.854C7.17736 10.7708 7.63205 10.0752 7.45496 9.75808L8.59321 9.84907C8.44301 9.57517 8.04523 9.51643 8.02366 9.15907L9.06776 8.92578V10.266C9.06776 10.3361 9.39344 10.6531 9.35249 10.6809C9.16362 10.6784 8.97209 10.6883 8.78313 10.6819C8.64518 10.6772 8.4205 10.5779 8.40453 10.5888C8.33091 10.6389 8.33689 11.1473 8.29015 11.2677C8.27837 11.2981 7.8917 11.7362 7.84049 11.748C7.1044 11.9154 7.32224 11.5012 6.83867 11.2355L6.88579 11.6978C6.77758 11.6849 6.66395 11.7978 6.56496 11.7778C6.3113 11.7266 6.42036 11.2817 6.2219 11.237L6.31481 12.1606C5.92957 11.9362 5.74165 11.6171 5.52323 11.2648C5.4992 11.2261 5.37047 11.2433 5.36676 11.2364L5.36657 11.2365Z" fill="#BCBCBC"/>
<path d="M19.3158 10.0361C19.3124 10.047 19.2024 10.0734 19.1458 10.1937C19.0532 10.3908 19.2749 10.6271 18.8765 10.6507C18.7597 10.6576 18.5025 10.5568 18.4622 10.5902C18.4269 10.6196 18.3441 11.2972 18.3658 11.4225C17.9007 10.8977 17.8776 11.8882 17.512 11.4692C17.3196 11.2488 17.4911 10.9898 17.3709 10.776C17.1364 10.973 17.2462 11.3017 17.2284 11.5629C17.1875 12.1656 16.9297 11.4757 16.7576 11.385C16.674 11.341 16.3765 11.4233 16.2923 11.3134C16.2382 11.2426 16.3004 11.0862 16.279 11.0528L16.3753 9.85195C16.6691 10.0466 16.383 10.7421 16.887 10.6868C16.985 10.6762 17.0128 10.3932 17.0394 10.3137L17.5117 10.5906C17.2402 9.37646 17.9004 9.85334 18.0861 9.72165C18.3129 9.56086 18.0431 9.1376 18.9774 9.3035C19.5082 9.39774 19.4458 9.6142 19.3158 10.0361Z" fill="#BBBBBB"/>
<path d="M14.4747 10.0355C14.6289 10.2337 14.4811 10.4818 14.2849 10.59C14.3183 10.7463 14.645 10.935 14.333 11.2365C14.2007 11.1679 13.8326 10.7967 13.7493 10.7847C13.6286 10.7672 13.5329 10.9509 13.3983 10.9455C13.2533 10.9398 12.7278 10.4786 12.526 10.5125C12.2275 10.5627 12.3478 11.4769 12.2765 11.5912C12.1971 11.7185 11.854 11.752 11.8654 11.5146C10.8344 12.5295 11.5309 11.2734 11.2416 11.0573C11.2231 11.0434 10.897 11.1718 10.7735 11.0522C10.5252 11.0798 10.518 11.0558 10.6786 10.8673C10.9116 10.7403 11.415 10.7136 11.4384 10.6818C11.4506 10.6651 11.3282 10.4567 11.3479 10.2818C11.4831 9.07714 12.0406 9.98462 12.4489 10.0181C12.6048 10.0308 12.7286 9.87142 12.8147 9.87607C12.9903 9.88555 13.4536 10.6452 13.58 10.0391C13.6027 9.93044 13.3042 9.72457 13.576 9.66629C13.8886 9.59928 14.248 9.85236 14.4747 10.0355Z" fill="#BCBCBC"/>
<path d="M20.4532 10.7747C20.4496 10.6387 20.6466 10.2624 20.5491 10.0358C20.7723 10.0929 20.5643 10.5217 20.6585 10.6668C20.8533 10.9674 21.1946 10.6429 21.1187 10.3126L21.5911 10.7741C21.4159 10.2931 21.8019 10.0324 21.8288 10.6817L22.3043 10.2205C22.346 10.456 22.3471 10.7035 22.6754 10.6877C22.7348 10.6849 22.7232 10.5409 22.778 10.5204C23.0844 10.4051 23.2687 10.4697 23.4427 10.0342L23.4889 10.8663L24.0117 10.0357C24.2731 10.3101 24.3509 10.9253 24.1545 11.2368C24.1193 11.2925 23.8727 11.4047 23.8218 11.5137L23.6816 11.3297L23.5386 11.6047L23.0642 11.2373L22.732 11.6065L22.6842 11.145C22.4174 11.2596 22.4082 11.3141 22.4453 11.6061L22.068 11.2371C21.9891 11.84 21.8481 11.5015 21.5578 11.5425C21.3987 11.565 21.2156 11.703 21.0831 11.6805C20.895 11.6484 20.4591 10.9822 20.4535 10.7747H20.4532Z" fill="#BBBBBB"/>
<path d="M5.74559 3.84287C5.93275 3.82828 6.13882 3.82122 6.31847 3.88572C6.52396 4.01351 6.2874 4.28202 6.31505 4.30414L6.88432 4.306L5.9357 5.09108C6.40397 5.26005 6.22261 5.7031 5.74597 5.60003C5.83699 5.79168 6.18071 5.63665 6.40825 5.73926C6.65184 5.84902 6.71967 6.00312 6.40977 6.06121C6.33091 6.07599 6.15231 6.03992 6.12466 6.06186C6.11098 6.07273 6.2227 6.23073 6.15212 6.40416C5.94586 6.91097 5.87888 6.0087 5.93418 5.78396C5.34211 6.41996 5.29783 5.99819 4.79688 5.55235C5.41849 5.56954 6.15107 4.66364 5.08103 4.76625C5.561 4.28732 4.99211 4.25042 4.98812 4.16649C4.98156 4.03219 5.58275 3.8556 5.7454 3.84296L5.74559 3.84287Z" fill="#BBBBBB"/>
<path d="M3.08588 11.2369C3.12227 11.0924 3.52395 10.7784 3.60831 10.5904L3.70227 10.8668L4.13113 10.3135L4.22575 10.59L4.55694 10.3147L5.26871 11.3294C5.16943 11.3529 4.42279 11.6557 4.36474 11.6929C4.18195 11.8098 4.06814 12.0788 3.84611 12.1613L3.93903 11.0527C3.71615 11.2379 3.50846 11.8646 3.22687 11.9756C3.00124 12.0646 3.06736 11.3108 3.08598 11.2371L3.08588 11.2369Z" fill="#BABABA"/>
<path d="M28.2341 6.98527C28.6036 7.07682 28.9479 7.17469 29.281 7.39923L29.2779 7.53986C29.3624 7.58921 29.434 7.62573 29.4677 7.72472C29.2908 7.73234 28.734 7.83216 28.5325 7.87816C28.406 7.90707 28.2812 7.96544 28.234 8.09444C28.1837 8.06888 28.0804 8.0133 28.0441 8.00205C27.9756 7.55194 27.5314 7.401 27.2852 7.07896C27.5068 7.05721 27.6988 6.92198 27.9189 6.89298C28.1045 6.86854 28.2175 6.98667 28.2339 6.98536L28.2341 6.98527Z" fill="#B9B9B9"/>
<path d="M14.4755 10.0357C14.4892 10.0153 14.4442 9.91093 14.4925 9.87087C14.5943 9.78629 15.0324 9.79364 15.1904 9.68164C15.4601 9.80693 15.2516 10.2551 15.3397 10.395C15.4004 10.4914 15.7564 10.4169 15.8114 10.4545C15.9014 10.5161 15.8781 10.6638 15.899 10.6827C15.3303 10.8411 14.8632 10.5263 14.2857 10.5903C14.234 10.349 14.3545 10.2149 14.4756 10.0357L14.4755 10.0357Z" fill="#BABABA"/>
<path d="M17.798 4.67417C17.776 4.70903 17.5577 4.78617 17.6085 4.85773C17.8185 4.8423 18.5364 5.43174 18.3678 5.59801C17.7314 5.58138 16.8736 5.67125 17.2281 4.85959C17.1479 4.77948 16.7064 5.15189 16.5649 5.04343C16.2459 4.79909 17.7148 4.61367 17.7031 4.4894C17.8552 4.46626 18.0599 4.26058 17.798 4.67417Z" fill="#B9B9B9"/>
<path d="M5.83872 3.56503L5.93354 3.3811C5.84908 3.32301 5.46184 3.58966 5.36456 3.33342C5.33463 3.25451 5.55266 3.31669 5.5616 3.23574C5.61423 2.76062 4.91157 2.94381 4.60547 2.91704C4.61202 2.79408 5.18842 2.64853 5.22746 2.64844C5.26784 2.64844 5.25825 2.80495 5.33577 2.82438C5.4646 2.85672 5.67123 2.79677 5.74381 2.82558C6.09229 2.96379 6.60066 3.34792 6.88207 3.61169L5.83863 3.56494L5.83872 3.56503Z" fill="#B9B9B9"/>
<path d="M10.0138 10.9596C9.9836 10.7299 10.034 10.4572 10.0143 10.2197H10.393L10.3945 11.052C10.4152 11.0796 10.6116 10.9035 10.6782 10.8672C10.6996 10.9142 10.7838 11.0249 10.7731 11.052C10.7663 11.069 10.5966 11.0997 10.5892 11.2733C10.5795 11.4983 10.8296 11.7612 10.7262 11.9759C10.372 11.6213 10.083 11.4863 10.0138 10.9596Z" fill="#B4B4B4"/>
<path d="M17.133 3.47313C17.0249 3.53782 16.5408 3.71116 16.4688 3.65697C16.5937 3.12321 16.5607 3.08278 17.0381 2.82607C17.2205 2.72802 17.5187 2.6967 17.7014 2.54883C17.6168 2.88258 17.4379 3.2905 17.133 3.47304V3.47313Z" fill="#B9B9B9"/>
<path d="M2.99146 11.2374C2.91204 11.6957 2.43198 12.1068 2.42201 11.3299C2.41327 10.6515 2.84383 10.7363 2.8976 10.1289C3.22451 10.2994 2.93978 10.7253 2.92848 10.8371C2.91442 10.9776 3.01018 11.1288 2.99127 11.2374H2.99146Z" fill="#B9B9B9"/>
<path d="M17.2287 3.56577C17.338 3.51354 18.047 3.16779 18.0828 3.19707C17.8573 3.47738 17.7036 3.94544 17.5134 4.21283C17.2994 4.51359 17.3181 4.33877 16.9446 4.3041C16.9116 4.12667 17.164 4.25828 17.2183 4.20372C17.238 4.18393 17.2422 3.85658 17.2295 3.84348C17.1644 3.77563 16.7773 4.00483 16.8486 3.6589C17.0131 3.69263 17.0988 3.62785 17.2287 3.56586V3.56577Z" fill="#B5B5B5"/>
<path d="M28.1419 4.30414C29.3096 4.19121 28.402 4.5364 28.3284 4.64942C28.1802 4.87703 28.3903 5.3015 28.3245 5.40606C28.2375 5.54454 27.3089 5.50262 27.0977 5.5055C27.2125 5.29769 27.212 5.15957 27.0977 4.95278C27.458 4.86876 27.6247 5.21199 27.9517 5.22816C27.8479 4.69607 27.4124 4.42821 27.0978 4.02866L28.2354 3.84277L28.1419 4.30414H28.1419Z" fill="#BBBBBB"/>
<path d="M34.7852 8.46381L34.5469 8.2783C35.0076 8.15636 34.915 7.80448 35.0019 7.64908C35.0281 7.60243 35.2348 7.57464 35.26 7.49248C35.3186 7.30129 34.7725 7.09087 34.6908 6.93808C34.8273 6.7508 35.3157 6.62923 35.2591 6.47764C35.2315 6.40366 35.0349 6.31723 34.9896 6.18385C34.8776 5.85447 35.1546 5.99964 35.2922 5.88514C35.4234 5.77603 35.3967 5.37833 35.8285 5.41216L34.9756 4.90451L35.829 4.67271L35.2599 4.12027L36.2078 4.58144C35.6963 3.40777 36.3598 4.37363 36.6771 4.02035C36.9346 3.73353 36.2174 3.52981 36.4919 3.42469C36.8687 3.28035 37.1813 3.48873 37.5367 3.56605C37.4397 3.80835 36.9898 3.73707 36.7782 3.75064L37.3471 4.39612L36.6834 4.3976C37.3017 5.19951 36.8981 4.93044 36.6271 5.22516C36.5614 5.29663 36.6851 5.3866 36.6833 5.41327C36.6561 5.82844 36.2032 5.53865 35.9262 5.82928L36.6829 6.29185C35.972 6.47616 36.3677 6.50664 36.2629 6.70665C36.191 6.84411 35.9301 6.86503 35.9171 6.94551C35.8761 7.19869 36.2066 7.35334 36.2071 7.40046C36.2081 7.48885 35.6383 7.77623 35.6413 7.86276C35.6436 7.92763 36.1006 8.13387 36.1681 8.27848C36.2151 8.37895 36.0597 8.47376 36.019 8.55592C35.774 8.82275 34.9783 8.74338 34.7852 8.46353V8.46381Z" fill="#BCBCBC"/>
<path d="M43.0411 10.6828C43.4645 10.6359 43.5733 10.4391 43.5166 10.0363C43.7398 10.2319 43.8404 10.5049 44.1789 10.5905C44.2277 10.5204 44.0936 9.9038 44.3685 9.85166C44.5123 10.2555 44.2744 10.7829 44.8431 10.7756L44.9396 10.2212C46.017 10.6306 45.4228 10.0603 45.3364 9.6918C45.2177 9.18527 45.5157 8.87977 45.9365 8.65039C46.0464 9.22691 46.6969 8.9544 47.1299 9.33472C47.1708 9.37069 47.6079 9.92964 47.2166 9.85101C47.1643 9.81802 47.0077 9.81821 46.9021 9.76263C46.8128 9.7156 46.8645 9.54979 46.7902 9.57414C46.7616 9.58353 46.3771 9.94925 46.3578 9.98448C45.9951 10.6485 46.7218 10.8213 46.3604 11.3293C45.6184 10.82 45.9715 11.6594 45.6522 11.695C45.2877 11.7356 45.275 11.0222 45.3177 10.7754C44.99 10.8515 45.194 11.4244 45.1279 11.5148C44.602 11.381 44.3294 10.3351 44.3692 11.5151C43.8844 11.6028 43.8384 11.2565 43.7992 10.8679C43.4302 11.081 43.6231 11.6515 43.0416 11.5154C42.946 11.236 43.0458 10.8844 43.0412 10.6829L43.0411 10.6828Z" fill="#BBBBBB"/>
<path d="M36.0168 8.55637C35.8496 8.89282 35.5992 9.01337 35.5079 9.20139C35.4651 9.28959 35.5259 9.6015 35.4367 9.6555C35.2869 9.74631 34.7624 9.53561 34.5938 9.80458C34.9268 10.0682 35.3209 10.1222 35.7317 10.1733C35.5051 10.5904 34.4556 10.521 34.3215 10.6022C34.2311 10.657 33.5679 12.6264 33.1229 11.4221L32.6016 11.9756C32.7088 11.6583 32.6293 11.1341 32.6954 10.867C32.734 10.711 33.0496 10.5238 33.1557 10.3449C33.2601 10.1688 33.3416 9.69742 33.369 9.67474C33.4177 9.6345 33.8719 9.68181 34.0494 9.64361C34.2322 9.60429 35.1465 9.29926 34.6406 9.20511C34.3061 9.14293 33.8701 9.22714 33.6445 8.83464C33.8895 8.77376 34.1901 8.78074 34.4246 8.71484C34.5875 8.66911 34.7584 8.46892 34.7832 8.4639C34.9921 8.42124 35.7482 8.59281 36.017 8.55628L36.0168 8.55637Z" fill="#BCBCBC"/>
<path d="M67.9056 8.09445C67.6879 7.71905 67.3029 7.54265 66.957 7.30834L67.6204 7.26206C67.6716 7.0205 67.3042 6.92421 67.2753 6.75441C67.2725 6.73842 67.3372 6.44798 67.3515 6.43962C67.4198 6.39974 67.5941 6.45374 67.6209 6.43032C67.6805 6.37818 67.5221 6.10549 67.5249 6.02324C67.526 5.98792 67.8395 5.89024 67.8169 5.64784L67.6213 5.50741L68.1902 5.50546L67.9076 5.18295C68.0331 4.90412 68.4118 5.18155 68.4729 5.13722C68.5387 5.08954 68.6335 4.48254 68.6666 4.35233C68.6989 4.22602 68.5911 4.19962 68.8095 4.20864C69.0694 4.21933 69.6276 4.6871 69.8982 4.81434C69.9508 5.03313 69.0054 5.38686 69.5188 5.59877C69.4843 6.39621 68.6488 5.43157 68.9489 6.43014C68.6246 6.31786 68.3019 6.36898 68.7605 6.56769C68.4549 6.73536 68.5819 7.15415 68.5224 7.26076C68.4935 7.31271 68.3453 7.33269 68.3168 7.38418C68.0937 7.78727 68.3767 7.78709 68.5697 8.09342C68.3806 8.09881 68.1896 8.0898 68.0004 8.09445H67.9056Z" fill="#BCBCBC"/>
<path d="M53.3828 10.6831C53.4671 10.4358 53.8994 10.4865 54.0018 10.3156C54.1004 10.151 53.9518 9.86246 54.1409 9.85186C54.2456 10.1207 54.1121 10.8625 54.5575 10.7635C54.9156 10.684 54.8604 9.70938 54.9029 9.66784C55.0118 9.56142 55.9885 9.71478 56.1814 9.48047C56.2961 9.74545 55.8147 9.98003 56.1842 10.2208C56.4851 10.3018 57.254 9.24932 57.3684 9.89731C57.4382 10.2919 57.1992 10.5052 57.6534 10.7755C57.5194 10.8516 57.285 11.1628 57.1444 11.1388C56.6648 11.0569 57.2136 10.4346 57.1787 10.4067C56.8334 10.5771 56.2879 10.4166 56.0051 10.5105C55.8317 10.568 55.7244 11.4697 55.5637 11.6999C55.0638 11.6003 55.2278 11.1171 55.0436 10.7745C54.9249 11.5492 54.4586 11.2008 54.4274 11.2368C54.3649 11.3087 54.3256 12.0324 53.9049 11.332L53.62 11.7008C53.5507 11.6976 53.588 10.8185 53.3828 10.6831Z" fill="#BCBCBC"/>
<path d="M60.7877 9.11128L61.7367 9.20469C61.6131 9.40563 61.4137 9.63092 61.1674 9.66772C62.2307 10.6052 60.8314 10.1904 60.5284 10.4303C60.3714 10.5546 60.1747 11.3799 59.79 11.5136L59.5067 10.6846C59.2784 10.6851 59.3859 11.6113 59.3633 11.7917L58.9359 11.3305C58.7326 11.2551 58.7923 11.5685 58.6454 11.6017C58.2346 11.6944 58.3016 11.121 58.3204 10.8675C58.3433 10.5583 58.4939 10.0937 58.5113 9.75853C58.8318 9.91532 58.7332 10.3292 58.8418 10.5898C59.2485 10.5008 59.4747 9.62255 59.648 9.52636C59.9547 9.35618 60.1846 9.65889 60.598 9.29623C60.5114 9.06016 60.5747 8.99854 60.7878 9.11137L60.7877 9.11128Z" fill="#BBBBBB"/>
<path d="M38.5821 10.4052C38.605 10.3603 38.5192 10.1369 38.7231 10.2212C38.8718 10.2826 39.0488 10.6285 39.2454 10.6824C39.2173 10.6379 39.2167 9.86725 39.435 10.128C39.5223 10.2323 39.628 10.8895 40.0046 10.9598C39.985 10.7245 40.0142 9.85972 40.2434 9.75869C40.4708 10.0666 40.4078 10.6236 40.9541 10.4978C41.0848 10.2743 40.6473 9.46834 40.9087 9.38953C41.1533 9.31573 41.0057 9.61603 41.0503 9.66668C41.4144 9.44622 41.7483 9.32995 42.1882 9.38953C42.1331 9.78081 41.9717 10.2191 41.9036 10.5902C41.861 10.8218 41.9364 11.3786 41.7645 11.4066C41.2665 11.4878 41.4661 10.6672 41.0501 10.6823L40.9535 11.8841C40.6119 11.6841 40.3693 11.3409 40.289 10.9606L40.1944 11.6068L39.579 10.9603C39.2502 11.2665 39.6938 11.7437 39.1121 11.7967C38.7958 11.3834 38.7714 10.8676 38.582 10.4053L38.5821 10.4052Z" fill="#BBBBBB"/>
<path d="M49.1133 11.2372C49.2089 10.795 48.9862 10.2281 49.3045 9.75845L50.1569 9.94248C49.8215 9.0639 50.3257 8.9861 51.1062 9.01984C50.632 9.71449 52.1665 9.46782 52.3399 9.57424C52.3482 9.57926 52.2567 9.69999 52.3028 9.75994C52.3905 9.87398 52.5682 9.83615 52.6111 10.107C52.6417 10.3002 52.5283 10.3899 52.5298 10.4053C52.089 10.351 51.7693 10.3481 51.96 9.8513C51.2228 9.89926 50.7485 10.0798 51.0108 10.867C49.9476 10.43 49.9477 11.1364 50.0618 11.9761C49.588 11.9562 49.6363 11.1859 49.1134 11.2372L49.1133 11.2372Z" fill="#BBBBBB"/>
<path d="M68.1883 9.75784C68.4952 9.88377 68.868 10.2315 68.8521 10.5892C68.3343 10.4402 67.8854 10.3479 67.3337 10.4043C67.3601 10.7653 67.2671 12.9049 67.0006 12.9915C66.8863 13.0286 66.6699 12.9309 66.6699 12.8542V11.3753C66.6699 11.2729 66.4813 10.9716 66.5731 10.7732C66.5291 10.7849 66.4953 10.8652 66.4802 10.867C66.341 10.8835 66.3207 9.62474 66.4741 9.52111C66.5929 9.44081 67.0185 9.46721 67.1837 9.48942C67.2856 9.50308 68.1056 9.724 68.1884 9.75793L68.1883 9.75784Z" fill="#BBBBBB"/>
<path d="M62.8762 6.80038C62.8911 6.84638 62.9432 6.89127 62.965 6.93905C62.6993 7.14603 62.3753 7.08645 62.0221 7.26258C61.9761 7.28553 61.7465 7.20058 61.8331 7.39985C61.8868 7.52328 62.1736 7.65126 62.2119 7.81614C61.9419 7.74439 61.4965 7.78017 61.2629 7.72468C61.1628 7.70089 60.5436 7.35515 60.4967 7.30802C60.3835 7.19436 60.5357 7.05513 60.4891 7.00113C60.4683 6.97697 60.2194 6.98672 60.3145 6.89406C60.4887 6.72435 61.0276 6.92733 61.2628 6.89183L60.9781 6.52313C61.7983 6.26819 62.4311 6.36067 62.8761 6.80038H62.8762Z" fill="#BBBBBB"/>
<path d="M64.7719 10.867C64.7566 10.5832 64.6597 10.3212 64.6781 10.0357C64.8637 10.1592 64.9017 10.4365 65.0572 10.6354C65.1473 10.7507 65.3003 10.8949 65.4353 10.9594C65.4704 10.6627 65.3185 10.1336 65.6249 9.94336C65.6637 10.2327 65.7678 10.5268 65.729 10.8254C65.7046 11.0132 65.5433 10.8928 65.5311 11.1443C65.4999 11.7945 65.4196 11.4431 65.3414 11.6748C65.2288 12.0087 65.4518 12.9647 64.7794 12.6137C64.8292 12.0382 64.8029 11.4437 64.7719 10.867Z" fill="#BABABA"/>
<path d="M61.3576 7.9097C61.3954 8.02579 61.3694 8.15646 61.4474 8.23063C61.6246 8.39913 62.1665 8.54236 62.3066 8.83308C61.9181 8.86672 61.1984 8.76542 60.8553 8.92695C60.7284 8.98662 60.8054 9.09322 60.7883 9.11135C60.7285 9.17473 60.6641 9.23868 60.5985 9.29621C60.6622 9.04536 60.2092 8.91794 60.2193 8.88076C60.2508 8.7644 60.7407 8.46773 60.7883 8.28045C60.4729 8.27496 60.1118 8.335 59.8398 8.14131C60.2709 7.82671 60.8569 7.92197 61.3577 7.90979L61.3576 7.9097Z" fill="#BABABA"/>
<path d="M67.903 8.09423C67.9346 8.09284 67.9663 8.09498 67.998 8.09423C67.8002 8.36479 67.9664 8.23104 68.0927 8.3212C68.1919 8.39202 68.9176 8.88071 68.7567 9.01798C68.454 8.92597 68.0456 9.11734 67.8081 9.11092C67.7011 9.10804 67.1692 8.8558 67.1532 8.82457C67.1354 8.79 67.2636 8.62028 67.2345 8.52074C67.1722 8.30735 66.7757 8.49295 66.8591 8.18755C67.2078 8.08987 67.5483 8.11031 67.903 8.09414V8.09423Z" fill="#B9B9B9"/>
<path d="M36.3983 1.34766C36.4103 1.62416 36.3987 1.89982 36.3988 2.17902C36.6284 2.2306 36.7651 2.00113 36.9677 1.99462C37.0168 1.99304 37.1549 2.11257 37.2521 2.08822L36.7779 2.27289L36.9671 2.73351C36.2936 2.76688 35.7725 1.75028 36.3982 1.34766H36.3983Z" fill="#B7B7B7"/>
<path d="M32.5083 10.9604C32.5288 11.0818 32.3778 11.56 32.5077 11.7917C32.3606 11.9543 31.8506 11.204 31.8439 11.0528C31.835 10.849 32.1317 10.5537 32.2715 10.4062C32.2508 10.6023 32.494 10.876 32.5082 10.9604H32.5083Z" fill="#B5B5B5"/>
<path d="M49.018 11.3295C48.594 12.0494 48.2769 10.9635 48.2588 10.5901C48.2248 9.88986 49.0868 11.0869 49.018 11.3295Z" fill="#BABABA"/>
<path d="M68.9497 1.25488C69.2066 1.59031 69.1501 1.43463 69.4167 1.48798C69.4821 1.50109 69.5354 1.6155 69.5674 1.62414C69.6415 1.64403 69.6163 1.27003 69.9452 1.34829C70.2006 1.40898 70.0447 1.7867 69.8988 1.90194C69.7484 1.73251 69.1025 1.87508 68.8673 1.70574C68.7624 1.5193 68.9225 1.37013 68.9498 1.25498L68.9497 1.25488Z" fill="#B6B6B6"/>
<path d="M60.7883 5.32211C60.6473 4.86623 60.086 5.24674 60.6934 4.58369L59.8398 4.58174C60.0661 4.26852 60.6422 4.43926 60.9781 4.39688L60.4088 3.75195H61.2623L61.074 3.93421C61.4476 3.92538 61.2688 4.64633 61.3761 4.84551C61.4049 4.89913 61.6022 4.90796 61.6424 4.95248C61.6849 4.9997 61.9457 5.30696 61.927 5.32118C61.5114 5.20157 61.2029 5.263 60.7882 5.32221L60.7883 5.32211Z" fill="#BABABA"/>
<path d="M46.3409 6.50626C46.2726 6.56295 46.0303 6.486 45.9238 6.61184C45.8781 6.66575 45.8782 7.33855 45.9768 7.40491C46.0224 7.43558 46.9464 7.52202 46.6451 7.72426C46.4761 7.83774 45.283 7.78691 45.1266 7.63132C45.5308 7.24896 45.0974 7.22498 45.0598 7.03435C44.9801 6.63089 45.4521 7.03863 45.6012 6.75237L45.3163 6.24704C45.9741 6.56054 45.9795 5.97194 46.0265 5.96998C46.2923 5.95892 46.5824 6.30578 46.3409 6.50626Z" fill="#BBBBBB"/>
<path d="M51.773 4.86071C51.709 5.04752 51.0413 5.47032 51.0172 5.51446C50.9787 5.58473 51.5749 6.71332 50.1602 5.82972L50.9189 5.59811L50.6361 5.18294C50.932 4.9082 51.3735 4.83348 51.773 4.86071Z" fill="#BABABA"/>
<path d="M51.6756 3.84376L51.2968 3.93596L51.5814 4.39611C51.5375 4.42771 50.5752 4.4516 50.5382 4.21348C50.8243 4.18885 51.0729 4.07491 50.8306 3.80872C50.7136 3.68027 50.4031 3.80686 50.3477 3.56624C50.9615 3.35944 51.1504 3.65778 51.6754 3.84376H51.6756Z" fill="#B9B9B9"/>
<path d="M46.6468 5.32038C46.0236 5.57198 45.8587 5.16535 45.3203 4.90549C45.8797 4.5406 46.3741 4.77862 46.6468 5.32038Z" fill="#BABABA"/>
<path d="M62.0189 4.67455C61.6527 4.24042 62.4085 3.62626 62.3045 4.95179C62.7697 4.66971 62.4725 5.21863 62.8723 5.23071L62.3036 5.59885C62.2822 5.3823 62.2486 4.88069 62.2133 4.73245C62.1878 4.62547 62.0299 4.68747 62.0189 4.67455Z" fill="#B8B8B8"/>
<path d="M80.2431 8.64896C80.2528 8.66922 80.3802 8.67982 80.3949 8.77927C80.4112 8.89024 80.2813 9.06302 80.3528 9.187C80.373 9.22204 81.0855 9.4912 80.9068 9.66528L79.6737 9.5742C79.6372 9.60022 79.9606 9.93556 79.956 9.98965C79.9463 10.1033 79.6883 10.101 79.6459 10.1276C79.2998 10.3445 80.2742 10.4594 80.3373 10.6811C80.0788 10.8881 79.0738 10.6525 79.018 10.6881C78.9957 10.7022 78.9141 11.0027 78.7769 11.1485C78.5156 11.4261 78.4049 11.2954 78.2685 11.3561C78.2289 11.3737 78.2071 11.5709 78.0996 11.5986C77.6701 11.7092 77.7721 10.9567 77.6796 10.6823C77.3658 10.705 77.5012 11.5209 77.2551 11.4208C77.0089 11.3207 76.7138 10.8459 76.6369 10.5898C76.5988 10.463 76.4122 9.85656 76.6843 9.85237C76.8953 9.84912 76.7771 10.4676 76.868 10.5954C77.0944 10.9137 77.475 10.565 77.3972 10.2207L77.5379 10.4968C77.912 10.3446 78.0452 9.86232 78.1496 9.80144C78.2525 9.74149 79.1856 10.0324 79.3885 9.71119L78.6318 9.34194C78.6907 9.24119 78.997 9.1422 79.0064 9.0659C79.0158 8.98959 78.7091 8.80529 78.9118 8.69237C79.2502 8.50388 79.8693 8.80464 80.2432 8.64878L80.2431 8.64896Z" fill="#BCBCBC"/>
<path d="M79.8623 3.65795C79.861 3.67338 79.7825 3.71084 79.7662 3.74839C80.2777 3.76744 80.6748 4.09227 81.0006 4.44406L79.9579 4.4909C79.9514 4.66656 80.3891 4.61758 80.4312 4.67641C80.4938 4.76368 80.2978 5.04269 80.3458 5.12346C80.3687 5.16185 80.6144 5.19503 80.6198 5.27421C80.6222 5.30962 80.4649 5.4258 80.4672 5.55285C80.4683 5.61735 80.6174 5.68213 80.5797 5.78344C80.5276 5.92397 80.1431 6.19564 79.9574 6.15465L80.3369 6.61481C80.0599 6.48506 79.792 6.81203 79.7696 7.03416C79.762 7.11112 81.0039 7.91655 79.8625 8.09574C79.8441 8.1134 80.0945 8.39343 80.1471 8.46435C80.0485 8.66008 79.8585 8.50208 79.7369 8.44576C79.1595 8.17855 79.4902 8.20365 79.4826 7.87268C79.4817 7.82974 78.9917 7.30899 78.9138 7.21605C80.0999 7.07069 78.9206 6.30122 78.9099 6.18569C78.8805 5.86969 79.0296 5.57023 79.3878 5.6905L79.1038 5.23109L79.7671 4.81285C79.3701 4.73961 79.7347 4.43876 79.664 4.31793C79.6421 4.28048 79.3988 4.24888 79.3894 4.16746C79.3843 4.12313 79.58 3.93994 79.5743 3.88817C79.553 3.69504 79.0349 3.74039 79.0088 3.56659L79.8145 3.56641C79.8623 3.57858 79.8656 3.61697 79.8623 3.65795Z" fill="#BBBBBB"/>
<path d="M71.5117 10.5901L71.7025 10.2209L71.9452 10.4958C72.1838 10.5632 72.303 10.1488 72.3644 10.221C72.4742 10.3502 72.56 10.7073 72.8393 10.7748C72.7651 10.5896 73.0647 9.6785 73.1866 9.65759C73.3256 9.63379 73.5122 9.75304 73.6473 9.7391C73.9522 9.70759 74.2408 9.58686 74.5484 9.57422C74.2182 10.25 74.9635 9.91569 75.4026 9.85063C75.4784 9.77144 75.5568 9.73863 75.5925 9.85063C75.8167 9.99497 75.9302 10.1278 75.8772 10.4052C75.4461 10.371 74.6013 10.7128 74.0735 10.6358C73.834 10.9155 73.7493 11.2466 73.7889 11.6064C73.2375 11.3683 73.3792 11.1039 72.7226 11.4284C72.6193 11.4794 72.6569 11.6006 72.6486 11.6057C72.5672 11.6558 72.2542 11.1831 72.1145 11.1589C71.8403 11.1113 71.7713 11.5835 71.5743 11.0347C71.5185 10.879 71.5444 10.6754 71.5118 10.5902L71.5117 10.5901Z" fill="#BCBCBC"/>
<path d="M74.6424 8.55782C74.7385 8.71248 74.2939 8.97123 74.3585 9.01714L75.1172 9.10953C74.8064 9.1218 73.9017 9.13955 73.6947 8.92411C73.4779 8.69845 74.3608 8.79306 74.1697 8.37083C74.1918 8.34954 74.6293 8.53654 74.6425 8.55773L74.6424 8.55782Z" fill="#BABABA"/>
<path d="M53.5038 2.20191C53.5193 1.95226 53.4215 1.6459 53.6476 1.46298C53.7288 1.86972 54.0131 2.11733 54.312 2.38632C54.197 1.74787 54.5053 2.19978 54.9275 1.83245C54.7918 2.16176 54.9661 2.28566 55.308 2.29542C55.3499 2.3392 54.7712 3.04485 55.7824 2.66507L55.4038 3.35836L55.6868 3.49472L55.4031 3.67977L56.2571 3.77421C55.9432 4.07387 56.4261 4.31144 56.3059 4.79142C56.419 4.79793 57.3207 4.56324 57.3952 4.51147C57.4375 4.482 56.7506 4.14581 57.6803 4.32734C57.6486 3.91883 57.2931 3.83918 57.0169 3.63414L57.6807 3.495L57.1133 2.89511L57.6803 2.75597L57.3015 2.34013C57.7197 2.26828 57.5672 2.28789 57.4915 1.92512C57.651 1.92967 57.7951 2.06119 57.9643 1.97763C58.1846 1.86898 58.0611 1.58279 58.2492 1.55537L58.2972 2.20136L58.9619 1.55677C59.1997 1.73513 59.0839 2.04362 59.1054 2.2943C59.5471 1.86647 59.7646 2.50883 59.6546 2.87541C59.6128 3.01474 59.3905 3.13687 59.3909 3.17247C59.392 3.27703 60.0991 3.60765 60.2429 3.63414C60.1538 3.82105 59.7297 3.64222 59.8619 4.0853C59.8892 4.17704 60.0385 4.13243 60.0524 4.1446C60.1332 4.21571 59.3856 4.47141 59.3911 4.65154C59.3924 4.69504 59.9883 4.97276 59.9346 5.30273C59.907 5.47189 59.205 5.61559 59.3895 5.80548L60.7173 6.17559L60.148 6.1768C60.0644 6.32663 60.2653 6.71088 60.2443 6.73012C60.2192 6.75307 59.6446 6.83849 59.5856 6.92744C59.5654 6.95784 59.6518 7.6238 59.6858 7.64453C59.8248 7.72949 60.2808 7.52983 60.3375 7.74668L59.3892 8.11931L60.0535 8.76371C59.3623 8.59352 59.7998 9.28124 59.7697 9.31814C59.7522 9.33952 59.474 9.34333 59.4086 9.43237C59.3407 9.52476 59.425 9.7812 59.2463 9.8735L58.7724 9.32214C58.4678 9.58081 58.4436 9.93912 57.9348 9.78473C57.7667 9.73371 57.8514 9.15046 57.3018 9.41239C57.4161 8.80665 56.9815 9.07062 56.5421 9.13355C56.6864 8.77486 57.1606 8.79829 57.3954 8.58107L56.3522 8.39396L56.5425 7.65615C56.232 7.62985 55.9949 7.53978 55.688 7.65457C56.1249 7.20247 55.7112 6.98907 55.7822 6.45388C55.3562 6.64061 54.1659 6.84946 55.1175 7.19448C55.1573 7.34654 54.9601 7.23389 54.9273 7.34608C54.8479 7.61776 54.8983 7.82903 55.2137 7.74873L54.5494 8.44155L55.0234 8.39582C54.8502 8.51591 54.9319 8.78899 54.8817 8.85619C54.8167 8.94328 54.6537 8.93966 54.6437 8.95165C54.5948 9.0103 54.9061 9.20595 54.9282 9.27352C54.9392 9.30717 54.5567 9.43544 54.7377 9.87331C54.5435 9.79189 54.545 9.41229 54.3102 9.32009C54.0938 9.23504 54.1186 9.65563 54.0731 9.68872C53.5263 9.27083 53.6168 9.77144 53.3629 9.79217C52.7849 9.83948 52.6363 9.14377 52.6683 8.71426C52.6774 8.59157 52.8364 8.48319 52.7995 8.39452C52.7041 8.16606 52.2804 8.12005 52.1767 7.93369C52.6971 8.08687 52.7508 7.44274 52.2716 7.42471L52.8388 6.96211C52.6714 6.6882 52.3371 6.6895 52.1075 6.56802C51.6958 6.35015 52.3968 6.31083 52.6225 6.19483C53.2238 5.8856 52.7675 5.91283 52.6958 5.80669C52.6336 5.71448 52.7507 5.43685 52.3661 5.25319L53.0304 5.25123C52.8222 4.98987 52.4106 4.65349 52.4932 4.27529C52.5246 4.13131 53.1004 3.97284 53.0294 3.68089C52.8405 3.76343 52.5546 3.84485 52.3665 3.72746L53.0304 3.21959C52.7653 3.18669 52.3163 3.20481 52.1765 2.94252C52.5118 2.9151 52.7184 2.64695 52.9335 2.43298L52.3665 2.29337C52.3842 2.11492 52.7041 2.17087 52.8007 2.01751C52.9067 1.84946 52.6353 1.61226 52.8885 1.46289C53.022 1.75902 53.201 2.0387 53.5039 2.20182L53.5038 2.20191Z" fill="#5E604C"/>
<path d="M21.9015 2.20118L22.2808 1.3707C22.4795 1.42544 22.5473 2.28697 22.8472 2.10879L23.2756 1.18555C23.3603 1.31223 23.8826 2.10842 23.9405 2.10768C24.0199 2.10665 24.2237 1.64675 24.4164 1.92364L24.3684 2.38661C24.5287 2.2537 24.7373 2.15071 24.8935 2.01715C25.0444 1.88813 25.2915 1.34709 25.1262 2.01649C25.5464 2.11985 25.4419 2.08407 25.6949 1.83274L25.8873 2.5713L26.4553 2.20276C26.0914 3.05295 26.4287 2.97664 27.2141 2.94178C27.4983 3.16504 26.2627 3.36618 26.2645 3.44965C27.0717 3.83268 27.7777 3.52503 26.5523 4.18914L27.2139 4.60387L26.2659 4.79116L26.4554 5.06628L25.886 5.06823C26.1885 5.19259 26.2265 5.95848 26.2659 5.99222C26.2956 6.01769 26.7628 5.76989 26.8792 6.2692C26.9151 6.42247 26.6153 6.89269 26.6452 6.915L27.4994 6.73208L26.7406 7.42482L27.3091 7.60876C27.1688 7.78452 26.8642 7.81259 26.7298 7.97664C26.6629 8.05825 26.7421 8.19702 26.7314 8.20343C26.6607 8.24591 26.2465 8.15761 26.5149 8.40262C26.6394 8.51629 27.0086 8.50337 26.9288 8.76456L26.0756 8.67319C27.0844 9.87026 25.6982 8.51267 25.6942 9.41258C25.4964 9.25783 25.2571 9.43127 25.0976 9.39641C24.9317 9.36026 24.8735 9.08541 24.6521 9.13532L24.746 10.0587L23.9398 9.13486L23.8459 9.50358L23.4653 9.04238L23.4174 9.87379C23.0799 9.59876 22.8948 9.11357 22.4214 9.04442L22.3734 9.68892C22.1785 9.63343 22.0667 9.31796 21.8522 9.31657C21.8089 9.31629 21.8276 9.44874 21.7306 9.49958C21.6695 9.53165 21.512 9.47133 21.4437 9.5205C21.3941 9.55619 21.4201 9.7959 21.2814 9.87295C21.1026 9.97222 21.0426 9.39214 20.807 9.3201C20.6064 9.249 20.6679 9.49754 20.5787 9.55182C20.5088 9.59439 20.3684 9.50135 20.2619 9.52394C20.1563 9.54634 20.0479 9.72098 20.0029 9.68882C19.9761 9.66968 19.7458 9.24509 19.6739 9.12686C19.5561 8.93335 19.7621 8.68258 19.3379 8.76372L20.191 8.07098C18.9459 8.16458 19.9025 7.80209 20.2859 7.3315L19.4322 7.46962C19.8449 7.2774 19.7167 6.96166 19.7354 6.92941C19.7688 6.87178 20.0574 6.86667 20.0013 6.68626L19.4327 6.31475C19.9598 6.18806 19.9826 5.86163 19.433 5.80558C19.3931 5.65352 19.5925 5.76636 19.6233 5.65361C19.641 5.58883 19.6373 5.2663 19.6228 5.25199C19.5736 5.20282 19.2211 5.35423 19.2432 5.16109C19.6362 5.09481 19.9385 4.84032 20.191 4.55851C18.4551 4.44493 19.6611 4.36453 20.1907 3.63331C20.1979 3.34834 19.6029 3.81688 19.4328 3.67979L20.0011 3.40178C20.0908 3.17778 19.624 3.07767 19.6241 2.98761L19.9999 2.71044L19.5277 2.29534L20.0967 2.29338L19.8587 1.83283C20.0005 2.07319 20.4857 2.02272 20.5759 2.07013C20.7418 2.1575 20.6902 2.38299 20.8548 2.38624C20.9098 2.00636 20.7158 1.49766 20.9988 1.18555C21.1374 1.33324 21.144 1.70689 21.282 1.83701C21.4674 2.01185 21.8576 1.6949 21.9014 2.20118H21.9015Z" fill="#5E604C"/>
<path d="M78.2729 2.01805L77.9882 2.38584L78.9368 2.52499C78.565 2.75577 78.1198 2.90812 77.8933 3.31011C78.2503 3.33772 78.795 3.00562 79.0319 3.40232C78.5665 3.46552 78.1966 3.76974 77.8938 4.09728L78.5572 4.05164L77.8938 4.55942L78.3678 4.60617L78.0835 4.83584C79.0251 5.45255 78.3611 5.59987 77.8946 6.17512C78.1986 6.13162 77.9732 6.35069 77.9877 6.36055C78.0232 6.38462 78.5174 6.36603 78.6523 6.45507C78.3735 6.74786 78.0525 6.98924 77.8933 7.3772L78.7474 7.47164L77.9889 8.25686C78.4373 8.13398 78.3186 8.4698 78.7475 8.39581C78.5157 8.68813 78.0838 8.75821 78.1772 9.22732L77.989 9.13381L77.9872 9.78091C77.761 9.64372 77.6672 9.21802 77.3244 9.22732L77.4177 9.87386L76.9916 9.3211C76.7912 9.4622 76.654 9.68815 76.4936 9.85211C76.448 9.89868 76.4129 10.127 76.3255 9.87572C76.2774 9.73732 76.2029 9.31023 76.0962 9.18029C75.864 8.89745 75.0945 8.59379 75.996 8.39349C75.927 7.88702 75.6917 8.08881 75.3298 7.88655C75.7432 7.71265 76.1332 7.49069 76.3747 7.1018C75.8769 7.28732 76.0175 6.97595 75.6645 6.82407L75.4269 7.1927C75.41 6.92009 75.2917 6.65184 75.0936 6.45582L74.7601 7.00774C74.5669 6.93552 74.7544 6.67917 74.4175 6.64497C74.2262 6.62554 74.3083 6.83792 74.2414 6.82435C74.175 6.81088 73.9182 6.56076 73.8136 6.63874C73.7959 6.65194 73.7878 6.89332 73.694 6.98617C73.6114 7.06788 73.2766 7.10794 73.2432 7.24085C73.1791 7.4959 73.6997 7.47378 73.7168 7.65456L73.053 7.56403C73.2033 7.96221 73.6694 8.04865 73.9064 8.21131C73.9577 8.24654 73.3601 8.80506 73.2425 8.81315L73.9071 9.50319C73.1453 9.22927 73.1195 9.39518 72.8162 10.0583C72.4628 9.72301 72.6501 9.34322 72.6263 8.95006C72.3015 9.30558 71.8214 9.47205 71.6773 9.96588C71.4266 9.77766 71.6105 9.44872 71.4866 9.22723C71.2865 8.86956 69.8642 8.52873 71.3441 8.34925C71.2096 8.13816 70.9006 8.06966 70.7425 7.93795C70.6261 7.84101 70.781 7.56691 70.3956 7.65456L71.1497 7.13647C71.1933 6.89211 70.6227 6.75948 70.4914 6.59115L71.2493 6.26741C71.3377 6.01859 71.0764 6.09574 71.0161 5.99796C70.9739 5.92946 71.0738 5.7931 70.9771 5.66567C70.8362 5.48015 70.277 5.45069 70.5624 5.25736C70.6506 5.19759 71.0628 5.05705 71.0492 4.85489C71.018 4.39118 70.4608 4.78825 70.3008 4.42139L71.2496 4.04895C71.2826 4.00229 71.0627 3.81602 71.0008 3.7847C70.8343 3.70049 70.422 3.72735 70.4899 3.54313C70.5214 3.45753 70.8922 3.479 71.0061 3.3142C71.021 3.29282 71.1466 2.84138 71.1429 2.81591C71.1156 2.62881 70.6623 2.4668 70.6807 2.43343C70.7593 2.29067 71.3333 2.23211 71.251 1.73995C71.3436 1.66922 71.6457 2.27068 71.6306 2.38603L71.9616 1.55685C72.0778 1.5615 72.2216 2.24466 72.6354 1.93133C72.7703 1.82918 72.6897 1.5785 72.9576 1.64701C72.864 2.10347 73.1243 2.09362 73.527 2.11007C73.6137 2.37748 73.159 2.31548 73.2435 2.52415C73.3142 2.69852 73.6559 2.74313 73.7172 2.94046L73.0533 2.98721C73.3443 3.25853 73.6999 3.49842 74.0961 3.58979C74.1293 3.77922 73.8198 3.6055 73.811 3.7281C73.7921 3.99318 74.0347 3.98296 74.0962 4.14199C73.7532 4.14887 73.5347 4.2433 73.5271 4.60459C73.996 4.7837 73.8924 4.62318 74.0738 4.3553C74.3914 3.88648 74.2896 4.84588 74.1927 5.06737C74.4266 4.90973 74.6956 4.70348 74.7625 4.4212C75.0465 4.48208 74.675 4.93037 74.8081 5.067C74.9614 4.90871 75.1378 4.76985 75.2795 4.60068C75.5423 4.28699 75.2278 4.15166 75.8975 4.32695C76.0945 3.92263 75.8008 3.94113 75.7995 3.91055C75.7965 3.84028 76.045 3.30807 75.984 3.22878C75.9273 3.15498 75.4456 3.1271 75.4259 2.94251L76.4704 2.89529C75.7877 2.58893 76.1437 2.6487 76.0879 2.34709C76.0492 2.1374 75.8938 2.03488 75.9009 1.83234L76.5633 2.29438L76.4704 1.64747L76.8963 2.10784L77.5123 1.37012C77.4034 1.94797 77.7815 2.00169 78.2725 2.01815L78.2729 2.01805Z" fill="#5E604C"/>
<path d="M40.7601 1.48593C40.8763 1.58752 40.8372 1.86971 40.8951 1.91274C40.9532 1.95606 41.1225 1.89499 41.1863 1.92854C41.2816 1.97874 41.263 2.115 41.3098 2.11407C41.7089 2.10598 42.0852 1.64887 42.3028 1.37012L42.21 2.29448L42.9671 1.55545L42.7789 2.3864L43.6315 1.83234L43.3478 2.38594L44.3912 2.20255L44.2024 2.84844L45.2449 2.7567C45.3803 2.92522 44.2757 3.39981 45.3403 3.54183L44.6765 4.51183C44.99 4.50634 45.3578 4.26412 45.625 4.55951C44.4921 4.95807 45.0133 4.82497 45.2029 5.25615C45.2912 5.45682 45.143 5.556 45.1465 5.66316C45.1499 5.76643 45.3794 5.64485 45.3402 5.80574C44.9209 5.72851 44.5199 5.74152 44.1058 5.85296L44.2961 5.9908C43.8849 5.9539 44.3436 6.20904 44.4146 6.38508C44.6692 7.01582 44.1927 6.83829 44.1221 6.92873C44.0272 7.05031 44.271 7.62825 44.3528 7.73998C44.6772 8.18333 45.089 7.93498 44.5815 8.67121L45.5299 8.6727C45.4308 8.81352 45.1422 9.46545 45.0881 9.5096C44.8472 9.70581 44.6967 9.32268 44.6289 9.32092C44.4672 9.31673 44.2606 9.92572 44.013 9.87386L43.9161 9.13484L43.4436 9.68852L43.4906 9.13493L42.6844 9.87386L42.8733 9.22778L42.019 9.13344C42.417 8.90572 42.2021 8.80524 42.2605 8.66387C42.6589 7.69954 42.3537 8.36114 41.9193 7.86564C41.6042 7.50631 42.1223 6.89546 41.4205 7.10329C41.3436 7.12606 41.3539 7.28305 41.2965 7.29085C41.0871 7.3193 40.5557 6.94667 40.2159 7.10189C40.4742 7.33305 40.6564 7.89037 40.9751 7.84129L40.4083 8.34869L40.8797 8.85664L40.2159 8.76565L40.6904 9.31831C40.213 9.24182 40.1278 9.61593 39.9792 9.96588C39.7234 9.85824 39.9132 9.32454 39.7893 9.13493C39.6133 9.1525 39.2216 10.0472 39.0776 9.87339L39.0301 9.13493C38.7712 9.34926 38.5665 9.63303 38.5064 9.96606C38.054 9.71083 38.6467 8.86334 37.9389 8.76333C37.9544 8.60457 38.1123 8.72299 38.1782 8.49369C38.1893 8.45483 38.2139 8.01045 38.2045 7.98675C38.1441 7.83497 37.9635 7.86155 37.9385 7.83859C37.9023 7.80541 38.5464 7.4629 37.7489 7.24001L38.412 6.59171C37.1832 6.30273 38.3081 6.31881 38.4123 5.71484L37.7488 5.57616L38.5068 4.92739L37.8433 4.88148L38.5076 4.23642L37.9402 4.09672C38.0751 3.94903 38.3954 3.90832 38.3113 3.64426L37.5586 3.12719C37.7768 3.27535 38.2872 2.97866 38.1282 2.75801C38.0964 2.71395 37.7354 2.7489 37.7492 2.57285C38.1436 2.44384 38.7292 1.91581 38.7933 1.55536L39.3607 2.38622C39.3793 2.18052 39.279 1.65268 39.5047 1.55527L39.9788 2.10765C40.2933 1.8712 40.3361 1.11516 40.7601 1.48565V1.48593Z" fill="#5E604C"/>
<path d="M13.2641 2.3866L13.3587 1.64795L13.7847 2.10822C13.9937 2.06333 14.076 1.47311 14.2581 1.55621C14.5667 1.69702 14.3872 2.43056 14.9703 1.8331L14.8762 2.10925C15.4043 1.99604 15.1831 2.29932 15.3115 2.39617C15.4545 2.50418 15.8288 2.47425 16.0145 2.48085L14.9718 2.94075L16.2047 3.22024C16.1391 3.83453 15.1181 4.34082 16.2997 4.23699C15.7419 4.77711 16.2854 4.6441 16.3945 4.79282C16.4369 4.85082 16.0301 5.23441 16.1103 5.34409C16.1556 5.40608 16.6581 5.41993 16.68 5.43834C16.7023 5.45711 16.519 5.82184 16.6804 5.99277L17.0589 5.90066C16.8445 6.18796 16.5255 6.43724 16.4901 6.82362C17.4077 6.38147 16.7666 6.91927 16.7765 7.0558C16.7891 7.23082 17.4168 7.26066 17.4396 7.28678C17.4517 7.30063 17.3429 7.45446 17.3563 7.52147C17.3837 7.65866 17.5115 7.74817 17.4937 7.8466C17.4811 7.91566 17.0973 8.44314 17.154 8.48701L17.8183 8.39657C17.6975 8.4528 17.218 9.37177 17.3906 9.31926L17.7224 9.13513C17.5982 9.70053 16.9382 10.1802 16.773 9.32019C16.2973 9.30522 16.4333 10.1444 15.9189 9.82935C15.6212 9.64699 15.9169 9.12518 15.1615 9.50431C15.0869 9.31591 15.4448 9.1539 15.444 9.08884C15.44 8.78546 14.9275 8.88956 14.7823 9.13494L14.8753 8.11829C14.6268 8.16123 14.4631 8.72718 14.3334 8.76594C13.8497 8.91075 13.9744 8.6189 13.8358 8.44211C13.4566 7.95842 13.5865 8.42901 13.3984 8.47251C13.231 8.51127 12.9766 8.21495 12.9771 8.76548C12.7178 8.85182 12.6353 8.43142 12.5848 8.40373C12.546 8.38253 12.2311 8.4753 12.2209 8.49054C12.1111 8.6544 12.5028 8.96457 12.4082 9.04209C12.3738 9.07034 12.1345 8.99812 12.0421 9.05454C11.9775 9.09404 11.9836 9.36387 11.9219 9.40058C11.8195 9.46137 11.577 9.36285 11.4726 9.42466C11.3636 9.48916 11.4221 10.1602 10.9326 10.1426C10.8708 10.1404 10.5357 9.18885 10.2728 9.13541C10.2262 9.56622 10.132 9.3002 9.9869 9.40309C9.81911 9.52207 9.82329 9.74226 9.6575 9.78148C9.55926 9.59903 9.79099 8.79987 9.75222 8.76557C9.70415 8.72309 9.4366 8.85498 9.46729 8.67392C9.65389 8.67931 10.6019 8.38867 10.0844 8.30288C9.96543 8.28317 9.73237 8.38356 9.75203 8.21179L10.4155 8.02459L9.84676 7.83991L10.3206 7.65485L9.9412 7.10246C10.5568 7.21233 10.2182 6.85448 10.3298 6.73662C10.3834 6.67993 10.7718 6.86089 10.558 6.45444C10.5181 6.37859 10.1738 6.13042 10.2261 6.08544C11.0299 6.32357 10.4735 5.1093 11.1749 5.15903L10.701 4.32892L11.1744 4.42122C11.1236 3.84308 11.3343 3.94644 11.839 3.77272L10.9856 3.31273C11.4284 3.33308 11.88 3.1747 12.2184 2.8953L11.9347 2.84855L12.2185 2.71136L11.5547 2.1111C12.5204 2.2917 12.2391 1.75605 12.7866 1.46289L13.2643 2.38669L13.2641 2.3866Z" fill="#5E604C"/>
<path d="M65.7457 2.29471L65.7478 1.64817L66.174 2.10807C66.3309 1.56916 67.027 2.11978 67.3997 1.84327C67.5205 1.75366 67.367 1.53041 67.5486 1.55597C67.5727 1.65691 67.7302 2.1104 67.7882 2.11086C68.089 2.11309 68.0071 1.69288 68.2127 1.64863C68.2553 1.99598 68.7106 1.78397 68.9735 2.11207L68.5958 2.43329L69.4445 2.98689C69.3887 3.34697 68.8583 3.21377 68.7272 3.40153C68.6533 3.50749 68.8571 3.70862 68.6921 3.81951C68.5877 3.88968 68.1396 3.92993 68.1187 3.95921C68.1043 3.97938 68.3309 4.42999 68.0718 4.41874C67.9981 4.41558 67.649 3.51994 67.3611 3.49643C67.3313 3.65202 67.3983 4.38444 67.3605 4.42125C67.3042 4.47609 66.6194 4.29902 66.5067 4.5603C66.4749 4.63382 66.7916 5.11454 66.8171 5.1402C66.8398 5.16306 67.2964 5.16585 67.0753 5.34412C67.0375 5.37461 66.65 5.35704 66.5456 5.52909C66.4677 5.65745 66.6224 5.82076 66.6083 5.93183C66.5962 6.02756 66.3171 6.05405 66.3178 6.13083C66.3184 6.20435 66.5724 6.24636 66.5924 6.2828C66.6305 6.35158 66.4982 6.49676 66.5189 6.58673C66.5262 6.61834 66.9093 6.98139 66.9799 7.05463L66.221 7.74737L67.1697 7.84199L66.3174 8.44178C66.6064 8.55573 66.5452 8.91692 66.6194 9.0227C66.7031 9.14195 67.071 9.03915 67.0745 9.22634C66.6717 9.27551 66.0761 9.2743 66.2199 9.78152L65.8887 9.32161L65.273 10.0591L65.1299 9.04296C65.0194 9.19706 64.853 9.35545 64.7615 9.51606C64.6304 9.74601 64.5994 10.079 64.4187 10.2437C64.4866 9.92196 64.1564 9.03961 64.2258 8.81217C64.2611 8.69682 64.4831 8.83215 64.5121 8.7195C64.4567 8.53844 63.8782 8.23255 63.8574 8.19667C63.8114 8.1173 64.0277 7.76995 63.9339 7.66464C63.8984 7.62496 63.577 7.67031 63.5638 7.47234C63.8792 7.40365 64.2395 7.18764 64.4177 6.91753C64.2861 6.91781 63.7131 6.86846 63.6583 6.8231C63.4231 6.628 64.3471 6.5489 64.222 6.14273L63.4691 5.66823C63.7743 5.53662 64.1472 5.61441 64.1331 5.1612C63.7801 5.12189 63.591 5.1388 63.6508 4.74508C63.6934 4.46484 64.1178 4.59999 64.1283 4.28899C64.0497 4.20171 63.9349 4.02409 63.8023 4.05151C63.589 4.09566 63.7584 4.51317 63.5647 4.51252L63.0877 3.40469C62.8692 3.42727 63.0713 3.83708 62.9806 3.94573C62.6978 4.28471 62.5295 3.72108 62.2913 3.68501L61.9023 4.14287C62.0322 3.47244 61.7351 3.68278 61.1914 3.4506L61.9496 2.89403C61.9884 2.65237 61.3919 2.71678 61.6883 2.17537C61.7761 2.01513 62.0315 2.02526 61.9511 1.74019L62.3771 2.10817C62.5434 2.01801 62.7126 1.60058 62.8522 1.55559C62.9289 1.53096 62.8062 1.77523 63.1406 1.74586C63.3527 1.72717 63.2462 1.51897 63.3256 1.5555C63.4822 1.62763 63.68 2.1802 63.8961 2.29415L63.9899 1.92543L64.4164 2.38664L64.3235 1.74019L64.891 2.29471C64.9171 2.02767 64.7926 1.52715 65.0806 1.37109C65.1608 1.75143 65.4035 2.0946 65.7451 2.29471H65.7457Z" fill="#5E604C"/>
<path d="M35.3769 1.46253C35.436 1.51718 35.4918 2.1074 35.7109 2.20137L35.9467 1.92448L36.232 2.84828L35.3789 2.66443C35.3355 2.83155 35.5085 2.88007 35.5432 3.01187C35.6414 3.38328 35.4645 3.34741 35.3484 3.51861C35.2127 3.71873 35.4516 3.96058 34.9034 3.86605L35.1881 4.60452L34.5247 4.42076L34.9033 5.43649L34.0498 5.43797L34.5243 6.08303C33.7329 6.01797 34.0806 6.12932 33.9509 6.3813C33.9008 6.47861 33.7818 6.42693 33.7575 6.58606C33.6696 7.16382 33.9703 7.29292 33.2923 7.70161C33.4005 7.94393 34.0702 8.07693 34.1146 8.25121C34.2272 8.69401 33.4545 8.5795 33.2923 8.90323L33.7649 9.41054L33.1 9.31992L33.1963 9.50302C32.9987 9.43694 32.7585 9.67516 32.6714 9.68957C32.6184 9.6983 32.6338 9.50414 32.5703 9.49596C32.4448 9.47969 32.2495 9.63278 32.1649 9.58798C32.1143 9.5613 32.1114 9.27177 31.9154 9.31936L31.3935 9.96599C31.2951 9.55833 31.2015 8.71204 30.8914 8.4147C30.8567 8.38143 30.4375 8.41033 30.6333 8.21143C30.7066 8.13707 31.4327 7.90935 31.4871 7.56396L30.538 7.65439C31.1645 7.26216 31.4101 6.88962 30.4436 7.00785L30.9171 5.99213L30.4431 6.17551L30.6328 5.71533C30.0642 5.79155 29.9659 5.19297 29.3991 5.43612C29.7658 5.07845 29.9689 4.6416 30.0624 4.14303C29.4085 4.67283 29.8603 4.26414 29.6912 4.09703C29.5034 3.91132 29.0528 3.98474 29.0184 3.95779C28.995 3.93948 29.0816 3.7969 29.0631 3.73109C28.9245 3.23922 29.0605 3.43914 29.2087 2.94188L28.4504 2.9403C28.6169 2.72977 28.8212 2.76156 28.735 2.38717C28.3823 2.38345 28.1566 2.50363 28.0703 2.11084C28.3884 1.96658 28.6727 2.15963 28.9234 1.92457L28.8765 2.38624L29.5877 1.64731L29.6357 2.29385L30.0646 1.64805C30.2122 1.60437 30.1474 1.81536 30.2515 1.88544C30.3426 1.94678 30.4755 1.83153 30.5199 1.85653C31.0223 2.13993 30.6903 2.61173 30.7285 2.66443C30.7472 2.69027 30.859 2.58003 30.8957 2.59834C30.9178 2.60922 30.9206 2.7452 30.9826 2.75357C31.2397 2.78823 31.5121 2.73702 31.7711 2.757C31.8787 3.00806 31.5135 3.16402 31.4929 3.27695C31.4634 3.43812 31.7413 3.53218 31.7505 3.63378C31.7597 3.73583 31.5242 3.88659 31.5823 4.05009L31.9604 3.95825L31.9618 4.42076C32.5772 4.53992 32.2487 4.15279 32.3416 4.05037L32.9094 4.23533C32.7787 3.83566 32.8964 3.68229 32.961 3.35967C33.0273 3.02888 32.6451 2.99737 33.4794 3.03315C33.5303 2.6582 33.1826 2.47333 33.0052 2.20276C33.6434 2.20806 33.9338 2.36421 34.0504 1.6474C34.3062 1.72854 34.2693 2.02281 34.3809 2.20127C34.5071 1.93182 34.8424 1.9756 34.9939 1.87419C35.1381 1.77762 35.1892 1.28946 35.3765 1.46262L35.3769 1.46253Z" fill="#5E604C"/>
<path d="M3.29784 1.46222L3.39475 2.29419C3.71921 1.94229 3.73042 1.84154 4.24708 1.83224C3.94333 2.74229 4.39482 2.16118 4.91177 2.52581L4.1535 2.98888C4.1021 3.18871 4.41962 3.19457 4.43748 3.22087C4.47473 3.27543 4.24509 3.49479 4.2506 3.54303C4.26827 3.69853 4.90949 3.78543 4.91025 3.91194C4.83662 4.16689 4.27425 4.2103 4.24718 4.2366C4.23217 4.2511 4.38048 4.49267 4.35074 4.63553C4.33079 4.73117 4.06362 4.76222 4.0601 4.8362C4.05222 5.00053 4.85391 5.1236 4.91225 5.34369C4.50798 5.31088 4.18846 5.57141 3.86733 5.76066C5.41666 5.97992 4.29934 6.0671 3.96338 6.82276C4.01706 6.86626 4.73211 6.55219 4.81667 6.82239C4.67026 6.7946 3.98181 7.18247 4.05839 7.28462C4.59406 7.46215 4.83804 7.37292 4.72346 8.02531C4.96583 7.98609 5.18227 7.48009 5.28687 7.42543C5.40222 7.3652 5.74815 7.62713 5.76848 7.19362C5.96335 7.25162 6.01408 7.80131 6.19498 7.84054C6.38975 7.88273 6.62072 7.45852 6.62233 7.28611C7.41054 7.48511 6.95345 8.27497 7.85329 7.37831C7.92188 7.613 7.70612 7.95142 7.76892 8.14754C7.83789 8.36271 8.3766 8.44348 8.41252 8.49795C8.63731 8.83916 7.94032 8.85413 7.87058 8.96473C7.79932 9.07785 7.89177 9.3619 7.85386 9.41227C7.83457 9.43793 7.68284 9.35149 7.62289 9.36877C7.07154 9.5279 6.65644 9.4067 6.6192 10.0581L6.19289 9.22731C5.9776 9.8389 5.67024 9.40214 5.57561 9.45531C5.42891 9.53766 5.22132 10.2471 5.14949 10.2446C5.13267 9.52427 4.96422 9.90508 4.73914 9.76705C4.7038 9.7454 4.51083 9.19134 4.29487 9.13492L4.201 9.68851L3.58467 9.04197L3.67797 10.1506L2.87133 9.13492L2.82383 10.1506L2.11211 9.22731L2.01767 9.50513C2.01016 9.05006 1.65226 9.26755 1.30642 9.22582L2.25443 8.62547C1.96836 8.47862 1.48238 8.74947 1.30614 8.39608L2.06327 7.97893L1.49644 7.65418C1.51421 7.48845 2.26451 7.43222 2.06432 7.19511C2.04826 7.17606 1.61796 7.03152 1.59972 6.99825C1.55411 6.91525 1.96028 6.3953 1.40124 6.40794L2.15923 5.75917L1.87658 5.7153C1.84237 5.40801 1.79896 5.35243 1.49616 5.29871C1.82166 5.04561 2.21633 4.86148 2.25491 4.4211C0.525249 4.4528 2.06403 4.01408 2.06327 3.81927L1.21094 3.21948C1.80817 3.32274 2.25557 2.95086 1.49464 2.71013L1.97054 2.66365L1.87563 2.01748L2.44455 2.10839L2.39676 1.83243L2.68055 2.10848C2.83998 2.08859 3.14059 1.28422 3.29784 1.46222Z" fill="#5E604C"/>
<path d="M49.8808 2.18801C49.8704 2.20901 49.6484 2.16207 49.7088 2.33942C49.7865 2.51741 50.1693 2.65135 50.2296 2.75759C50.4047 3.06608 50.039 3.24872 50.6565 3.2648C50.4365 3.47449 49.8293 3.53593 49.8951 3.91301C49.9102 3.99983 50.1306 3.89554 50.087 4.05002L49.6136 4.00429C49.7954 4.15765 49.9489 4.36985 50.1357 4.51262C50.3385 4.66775 50.6254 4.69851 50.7512 4.88162L50.087 4.97596C50.0332 5.30165 50.1089 5.33771 50.3705 5.48354L49.9055 5.95897C49.8714 6.14812 50.3653 6.46581 50.562 6.4554C50.5319 6.69985 50.1165 6.57484 50.0819 6.69251C49.9629 7.09739 50.1294 7.11077 50.4668 7.14702C50.1229 7.38106 49.7348 7.55822 49.5183 7.93224L50.3723 7.74932L49.8049 8.16433C50.1732 8.32206 50.1952 8.63706 50.467 8.81087C50.1809 9.05848 49.8079 9.02047 49.8974 9.50426C49.6631 9.5933 49.6256 9.19883 49.5662 9.22764C49.3381 9.33825 49.1683 9.99929 48.9499 10.1512C49.0418 9.56904 48.6777 9.78784 48.4954 9.6697C48.4604 9.64702 48.1593 9.06155 48.0934 8.95085L48.0478 9.87391C47.6964 9.52517 47.9186 8.7432 47.2411 8.8566L47.9998 8.21155C47.6771 8.17827 47.314 8.46501 47.0513 8.16386C48.51 7.60014 47.1235 7.57904 46.9601 7.23578C46.8022 6.90378 47.5386 6.93724 47.6202 6.82254C47.6527 6.7769 47.4867 6.64715 47.4793 6.56034C47.4639 6.38095 47.6112 6.15648 47.4336 6.03528C47.274 5.92644 46.7738 6.03528 46.6719 5.80867C47.1218 5.68654 47.6091 5.59415 47.9043 5.2061L47.2411 5.15981C47.1806 4.88032 47.7762 4.83459 47.7147 4.56374C47.6887 4.44913 47.1492 4.2414 47.0513 4.09686L47.9978 3.81997C47.7004 3.47839 47.453 3.21768 47.0513 2.98763L47.8098 2.75582L47.4304 2.29583L47.9049 2.29387L47.7151 2.01856C48.158 1.92097 48.2967 1.55234 48.4264 2.29443L49.1867 1.37109C49.1276 1.68981 50.0078 1.93342 49.881 2.18838L49.8808 2.18801Z" fill="#5E604C"/>
<path d="M23.9467 6.14405C23.8344 6.49737 24.2704 6.6371 24.3071 6.75342C24.38 6.98457 24.0621 6.82208 24.4922 7.04496C24.8524 7.23161 24.3252 7.33529 24.2243 7.47698C24.12 7.6234 24.1617 7.84869 24.1246 7.88697C24.0541 7.9599 23.1357 7.91902 23.0458 8.45324L22.9519 8.17693L22.6204 8.54605C22.6886 8.15259 22.2604 7.90481 22.1724 7.55009C22.11 7.29869 22.3074 6.82617 22.2934 6.79031C22.2416 6.65754 21.8179 6.43345 21.7656 6.23733C22.1106 6.23324 22.6541 6.58062 22.6663 6.05198L22.9978 6.32865L22.9999 5.86719C23.1431 5.91689 23.3916 6.41766 23.5206 6.41877C23.5894 6.41933 23.7527 6.07232 23.9467 6.14405Z" fill="white"/>
<path d="M23.285 3.09484C23.6728 3.51477 23.7806 3.64716 24.4211 3.55779C23.7635 4.17534 23.8522 4.24697 24.136 5.03463C23.3688 4.64005 23.5582 5.09827 23.3759 5.21988C23.3214 5.25621 23.1561 4.99784 23.0265 4.96142C22.7221 4.87594 22.2944 4.9761 21.955 4.75674L22.144 4.52652C21.52 4.47979 22.2077 4.27345 22.2255 3.95645C22.236 3.77138 21.9559 3.65469 21.9563 3.60303C21.9565 3.56819 22.3824 3.26411 22.24 3.00258C22.3073 2.92844 23.1654 3.79832 23.2852 3.09484H23.285Z" fill="white"/>
<path d="M41.5926 3.64932C41.6808 3.71054 41.8463 3.5029 41.9231 3.49955C41.9792 3.49704 42.2948 3.72234 42.5396 3.55799C42.2536 4.108 42.3051 4.07966 42.8239 4.34193C42.7352 4.4459 42.5771 4.46773 42.4961 4.58033C42.4577 4.63375 42.2748 5.19333 42.2506 5.21795C42.22 5.24898 42.0457 5.13182 41.967 5.17335C41.8263 5.24759 41.7231 5.71277 41.4971 5.77455C41.5607 5.20104 41.3774 5.51739 41.3211 5.48264C41.2736 5.45328 41.2412 5.2252 41.1646 5.22166C41.1356 5.22036 40.9888 5.49695 40.7362 5.36474C40.5542 5.26942 40.5127 4.71365 40.168 4.57448C40.7407 4.63422 40.5353 4.48947 40.2633 4.15724L40.5474 4.1105C40.1307 3.609 40.4846 3.82389 40.6326 3.69057C40.8923 3.45626 40.8399 3.12105 41.2105 3.46527C41.2695 2.67835 41.5579 3.62544 41.5924 3.64941L41.5926 3.64932Z" fill="white"/>
<path d="M13.866 4.32299C13.9053 4.33748 14.4949 4.81028 14.5097 4.84865C14.5649 4.99266 14.1788 5.36679 14.2635 5.71278C14.2954 5.84312 14.632 5.84303 14.6501 5.86756C14.6925 5.92507 14.3267 6.163 14.8385 6.18966L14.3168 6.69795L14.1763 6.51428C14.0972 7.23514 13.7975 6.61936 13.3478 6.62688C13.1414 6.63041 13.0407 6.88117 12.9893 6.88144C12.9382 6.88163 12.5135 6.22441 12.1836 6.32744L12.9397 6.00534C12.377 5.5475 12.818 5.63185 12.9187 5.47986C13.1926 5.06661 12.5609 5.34403 12.4682 5.12895C13.0903 4.96219 12.3833 4.95763 12.6574 4.80462C12.7957 4.72741 13.0084 4.7263 13.1361 4.61834C13.2337 4.53602 13.1559 4.06137 13.866 4.32299Z" fill="white"/>
</svg>
