<svg width="48" height="48" viewBox="0 0 48 48" fill="none" xmlns="http://www.w3.org/2000/svg">
<path d="M23.9277 31.0263C23.7223 31.2161 23.4951 31.3327 23.4181 31.5126C23.0408 32.4042 22.709 33.3135 22.3496 34.211C21.9822 35.1263 21.5951 36.0317 21.2277 36.945C20.8801 37.8069 20.5542 38.6787 20.2026 39.5406C19.6989 40.7721 19.1735 41.9958 18.6679 43.2274C18.3143 44.0873 17.9509 44.9433 17.6388 45.819C17.1984 47.0625 15.4543 48.0212 14.0698 47.2107C12.6418 46.3745 12.225 44.8543 12.9558 43.3954C13.3706 42.5671 13.653 41.6736 13.9987 40.8097C14.3937 39.8233 14.7927 38.8388 15.1917 37.8543C15.5472 36.9746 15.9067 36.0969 16.2602 35.2192C16.6355 34.2861 17.0088 33.3531 17.3801 32.418C17.7514 31.483 18.1307 30.5499 18.4803 29.6089C18.5375 29.4528 18.5257 29.1365 18.4447 29.0949C18.2906 29.0159 18.0378 29.0258 17.868 29.0969C16.3155 29.7592 14.7769 30.457 13.2244 31.1153C12.0038 31.6332 10.7575 32.0958 9.53683 32.6118C8.36558 33.1079 7.21605 33.6516 6.05071 34.1556C5.26658 34.4957 4.48838 34.8732 3.67265 35.1144C1.87527 35.6462 0.376144 34.6064 0.141103 32.8885C0.0265451 32.0563 0.753395 30.6151 1.65998 30.2811C3.10183 29.7513 4.50418 29.1127 5.91443 28.5019C7.76118 27.7032 9.59411 26.873 11.4428 26.0822C13.0289 25.4042 14.6287 24.7617 16.2227 24.1014C16.2721 24.0817 16.3096 24.0323 16.436 23.9275C16.2681 23.7535 16.1377 23.5183 15.9442 23.4372C15.0356 23.0557 14.1053 22.7276 13.1889 22.3618C11.9919 21.8854 10.8009 21.3932 9.60596 20.9069C8.3399 20.3909 7.07384 19.8789 5.80975 19.357C4.54566 18.8351 3.29935 18.2599 2.01353 17.7953C1.26891 17.5265 0.757346 17.0916 0.31689 16.4491C-0.313179 15.5299 0.0541968 13.9029 0.909432 13.2407C1.92465 12.4539 2.9853 12.4677 4.12101 12.9956C4.96241 13.387 5.84728 13.6835 6.71041 14.0255C7.66243 14.4031 8.61444 14.7806 9.56251 15.1681C10.4572 15.5318 11.3461 15.9114 12.2428 16.2771C13.1908 16.6626 14.1429 17.0421 15.0929 17.4217C16.0094 17.7874 16.9219 18.161 17.8482 18.5011C18.0161 18.5623 18.3321 18.5485 18.4092 18.4437C18.498 18.3212 18.4506 18.0404 18.3756 17.8645C17.3722 15.4646 16.359 13.0687 15.3339 10.6767C14.6623 9.1071 13.9611 7.55134 13.2856 5.98371C12.9755 5.26809 12.6477 4.55643 12.4067 3.81511C11.7806 1.88572 12.9183 0.15005 14.8519 0.163888C15.8593 0.171795 16.7382 0.622515 17.1707 1.64652C17.7692 3.06391 18.3558 4.48525 18.9681 5.89671C19.4817 7.08084 20.0426 8.2452 20.5482 9.43328C21.0598 10.6392 21.5141 11.8688 22.0217 13.0766C22.3594 13.8832 22.7564 14.664 23.112 15.4627C23.2423 15.7533 23.3272 16.0656 23.4793 16.4965C23.7065 16.2929 23.9494 16.1743 24.0284 15.9865C24.4076 15.0969 24.7375 14.1856 25.097 13.2881C25.4545 12.3906 25.8297 11.4991 26.1912 10.6036C26.5408 9.74166 26.8825 8.87779 27.2281 8.01391C27.7377 6.74478 28.2453 5.47368 28.7589 4.20652C29.1144 3.32683 29.4521 2.43922 29.8452 1.57732C30.414 0.329935 31.8934 -0.397526 33.2839 0.229133C34.9845 0.99417 35.103 2.91961 34.4571 4.16502C34.0226 5.00122 33.7658 5.93031 33.4162 6.81199C33.0449 7.74703 32.6558 8.67417 32.2805 9.60724C31.7492 10.9278 31.2258 12.2503 30.6925 13.5688C30.3311 14.4643 29.9558 15.3559 29.5924 16.2514C29.3712 16.797 29.148 17.3446 28.9603 17.9021C28.907 18.0602 28.909 18.3291 29.0058 18.42C29.1006 18.509 29.3692 18.4912 29.5252 18.4279C30.6135 17.9831 31.692 17.5146 32.7743 17.052C34.0305 16.5143 35.2887 15.9786 36.5429 15.435C37.7971 14.8933 39.0434 14.3358 40.2996 13.8001C41.4175 13.3237 42.5276 12.8255 43.6692 12.4163C45.4745 11.7699 47.3666 13.039 47.2936 14.8597C47.2501 15.8975 46.8136 16.7753 45.7628 17.2121C44.3625 17.7973 42.9621 18.3825 41.5696 18.9874C40.3865 19.5013 39.2192 20.0529 38.0361 20.5688C37.2697 20.9029 36.4817 21.1876 35.7114 21.5157C34.4552 22.0515 33.2069 22.605 31.9507 23.1447C31.6604 23.2692 31.3621 23.37 30.9375 23.5301C31.1824 23.7673 31.3206 23.9967 31.5181 24.0777C33.1713 24.7459 34.8403 25.3765 36.4955 26.0388C37.7458 26.5389 38.9802 27.0766 40.2265 27.5827C41.8106 28.2271 43.4025 28.8479 44.9846 29.4982C45.7885 29.8284 46.5588 30.1664 47.0842 30.969C47.7083 31.9198 47.4397 33.4499 46.5865 34.1991C45.7293 34.9523 44.4158 35.0591 43.3769 34.551C42.5276 34.1359 41.6229 33.8334 40.744 33.4796C39.7762 33.0921 38.8084 32.7027 37.8406 32.3152C36.5212 31.7854 35.1998 31.2616 33.8824 30.7278C32.9876 30.3661 32.0969 29.9904 31.2021 29.6267C30.657 29.4053 30.1118 29.1819 29.5529 28.9941C29.3949 28.9408 29.1243 28.9467 29.0374 29.0455C28.9485 29.1444 28.9702 29.4112 29.0334 29.5654C29.5015 30.7061 29.9953 31.8368 30.4772 32.9715C30.9987 34.1952 31.5162 35.4228 32.0396 36.6445C32.5551 37.8484 33.0844 39.0444 33.596 40.2503C34.0858 41.4047 34.6152 42.5454 35.0359 43.7255C35.6817 45.5383 34.4097 47.4242 32.5867 47.3451C31.5517 47.2997 30.6767 46.8608 30.2402 45.8072C29.6595 44.4036 29.069 43.002 28.4685 41.6083C27.6785 39.7778 26.8667 37.9551 26.0786 36.1246C25.575 34.9563 25.0989 33.7761 24.6071 32.6038C24.3978 32.1037 24.1746 31.6075 23.9198 31.0204L23.9277 31.0263Z" fill="#EDEDED"/>
</svg>
