<svg width="38" height="38" viewBox="0 0 38 38" fill="none" xmlns="http://www.w3.org/2000/svg">
<circle cx="19" cy="19" r="19" fill="#5E604C"/>
<path d="M26.5335 11.2883C25.5393 12.2257 24.6424 13.2871 23.7075 14.283C21.6419 16.4835 19.5603 18.6614 17.5431 20.9011C17.2071 21.2742 16.8618 21.6728 16.5607 22.0656C16.5835 22.23 16.7613 22.2418 16.8584 22.3175C17.5899 22.8883 18.4733 23.975 18.6514 24.9066C18.7883 25.6221 17.986 25.8447 17.6944 25.2249C17.5979 25.0198 17.5438 24.7417 17.4376 24.523C17.1067 23.8418 16.4754 23.1838 15.7728 22.9167L14.5695 24.1588C13.8106 25.1062 12.9285 25.9146 12.2786 26.9583C11.9934 27.4165 11.7704 28.1204 11.2783 28.3775C10.1048 28.9909 8.77193 27.9622 9.15201 26.6621C9.36362 25.9384 9.84453 25.8741 10.3748 25.5111C11.4096 24.8029 12.0523 24.0784 12.9088 23.2059C13.2636 22.8445 13.6557 22.52 14.0007 22.148C14.0379 22.0066 13.5088 21.6588 13.3881 21.5421C12.5966 20.7769 12.1204 19.8841 12.0155 18.7768C12.193 18.4732 12.6572 18.3565 12.9103 18.6418C13.1124 18.9827 13.1857 19.431 13.3779 19.772C13.4295 19.8635 13.5549 19.9427 13.5737 19.9897C13.6039 20.065 13.5336 20.1434 13.5551 20.2297C13.5734 20.303 13.7231 20.394 13.7773 20.4682C13.8175 20.5233 13.828 20.6014 13.8688 20.6507C14.1225 20.9574 14.4977 21.3025 14.9191 21.2451C15.1632 20.9778 15.4188 20.652 15.6701 20.3978C17.0985 18.9536 18.5515 17.5334 19.9621 16.0616C21.7805 14.1645 23.8206 12.2729 25.557 10.2892C25.6324 10.203 25.9588 9.85352 25.8751 9.76321C25.124 9.91714 24.3579 10.0596 23.6183 10.268C23.2215 10.3798 22.9789 10.6642 22.5659 10.3561C22.1945 10.0791 22.1563 9.64908 22.4947 9.32705C22.7427 9.09107 22.9684 9.20538 23.2495 9.16877C24.382 9.02128 25.5444 8.7843 26.6637 8.56556C27.0311 8.49376 27.5225 8.30655 27.8732 8.26464C28.2358 8.22126 28.4329 8.54769 28.4332 8.87096C28.1736 10.0743 28.0878 11.3047 27.9275 12.5225C27.9046 12.6961 27.8438 12.9407 27.8367 13.1172C27.8279 13.3388 27.8849 13.9455 27.815 14.0992C27.7976 14.1374 27.4327 14.4294 27.3843 14.4447C26.9895 14.5701 26.7345 14.4271 26.5505 14.0865C26.3341 13.6858 26.5004 13.674 26.607 13.3479C26.8512 12.6013 26.9004 11.7477 27.0567 10.9764L26.948 10.9028C26.887 10.9032 26.6204 11.2064 26.5334 11.2884L26.5335 11.2883Z" fill="white"/>
<path d="M15.6402 19.6595C15.5127 19.7338 15.0598 19.6334 14.9233 19.5512C14.5974 19.3547 14.3734 18.788 14.5996 18.4597C14.784 18.1919 15.1182 18.0782 15.4349 18.1722C15.4641 18.1809 15.7983 18.4698 15.8263 18.5113C15.9296 18.664 16.0495 19.0055 16.0141 19.1888C16.008 19.2203 15.6661 19.6444 15.6402 19.6595Z" fill="white"/>
<path d="M16.8247 16.4382C17.069 16.3653 17.2449 16.4455 17.4098 16.6104C17.9873 17.1875 17.2533 17.846 16.7247 17.3411C16.4677 17.0956 16.4679 16.5446 16.8247 16.4382Z" fill="white"/>
</svg>
