<svg width="69" height="49" viewBox="0 0 69 49" fill="none" xmlns="http://www.w3.org/2000/svg">
<path d="M68.3264 4.90403C69.2113 8.13814 67.3566 10.0063 65.1603 11.9871C59.1815 17.3759 53.3786 22.9585 47.5025 28.462C41.4862 34.096 35.3396 39.6015 29.507 45.4194C27.2198 47.7026 24.8734 48.6436 21.7902 48.264C20.8362 48.1474 19.8368 48.3491 18.8926 48.1988C18.2744 48.1 17.3481 47.7343 17.2217 47.2974C17.0656 46.7537 17.4113 45.8385 17.8537 45.3897C19.7538 43.4623 21.7704 41.6476 23.7436 39.7913C29.8053 34.0901 35.865 28.3889 41.9267 22.6877C48.7488 16.2709 55.571 9.85601 62.3931 3.43721C63.351 2.53577 64.3188 1.64224 65.2452 0.709173C65.8891 0.0607695 66.6199 -0.184367 67.4573 0.147742C68.277 0.473921 68.3521 1.22118 68.3343 1.99807C68.3126 2.96475 68.3284 3.9334 68.3284 4.90206L68.3264 4.90403ZM19.0823 46.3959C19.1277 46.4948 19.1751 46.5956 19.2205 46.6944C21.0337 46.6944 22.8508 46.7577 24.6581 46.6608C25.2822 46.6272 26.0091 46.3366 26.4752 45.9215C28.5846 44.0415 30.6131 42.0726 32.6771 40.1432C39.2326 34.011 45.792 27.8808 52.3515 21.7507C56.7343 17.6546 61.1231 13.5665 65.498 9.46263C65.9444 9.04354 66.6396 8.57107 66.6693 8.08675C66.7996 6.03479 66.7246 3.96898 66.7246 1.54735C50.6608 16.6702 34.8715 31.5321 19.0823 46.3959Z" fill="#EDEDED"/>
<path d="M40.795 48.2448C39.7877 48.2448 38.7804 48.2586 37.775 48.2408C36.9475 48.227 35.9303 48.1934 35.79 47.2425C35.6992 46.6277 36.11 45.7401 36.59 45.2756C39.5803 42.3637 42.6517 39.5328 45.6993 36.6783C50.1315 32.5309 54.5657 28.3854 58.9999 24.24C61.1468 22.2335 63.2642 20.1914 65.4684 18.2502C65.9504 17.8252 66.7878 17.4871 67.3883 17.582C68.2949 17.7243 68.3344 18.6535 68.3284 19.464C68.3166 21.3993 68.3956 23.3366 68.285 25.266C68.2475 25.9164 67.9077 26.7071 67.4396 27.1519C60.2798 33.9305 53.0863 40.6735 45.8593 47.3789C45.3497 47.8514 44.528 48.1123 43.813 48.2132C42.8255 48.3535 41.8043 48.2487 40.797 48.2468L40.795 48.2448ZM66.7483 19.1872C56.8983 28.4171 47.2913 37.4176 37.6842 46.4182C39.5803 46.6969 41.2849 46.6436 42.9855 46.7167C43.9157 46.7582 44.5873 46.4557 45.249 45.835C52.1837 39.3114 59.1401 32.8096 66.0827 26.292C66.3513 26.0389 66.7108 25.695 66.7207 25.3846C66.7799 23.4315 66.7503 21.4744 66.7503 19.1892L66.7483 19.1872Z" fill="#EDEDED"/>
<path d="M26.0813 24.2316C25.8897 31.7377 20.0413 37.2056 12.4193 36.9585C5.38384 36.7292 -0.377642 30.6642 0.0193612 23.4211C0.380811 16.8026 5.75911 11.0777 13.4049 11.1746C20.4956 11.2635 26.2591 17.2692 26.0813 24.2316ZM13.077 35.381C19.4093 35.3731 24.5071 30.338 24.4953 24.1031C24.4834 17.8543 19.4014 12.7896 13.1106 12.7541C6.85334 12.7204 1.48886 18.0045 1.56392 24.1327C1.63897 30.3618 6.78618 35.3889 13.079 35.381H13.077Z" fill="#EDEDED"/>
<path d="M60.783 48.2424C59.3885 48.2424 57.9842 48.3354 56.6036 48.1989C56.0091 48.1396 55.144 47.7166 54.9761 47.252C54.7865 46.7222 55.0255 45.7477 55.4422 45.3384C58.7032 42.1459 62.0254 39.0145 65.4009 35.9445C65.8551 35.5313 66.7696 35.3376 67.3879 35.4602C68.1759 35.6164 68.3438 36.4387 68.3359 37.2453C68.3083 39.7994 68.3399 42.3534 68.3221 44.9075C68.3083 46.8705 67.1765 48.1001 65.1955 48.2049C63.7279 48.282 62.2525 48.2207 60.781 48.2207C60.781 48.2286 60.781 48.2345 60.781 48.2424H60.783ZM66.74 36.8795C63.169 40.2224 59.8586 43.3221 56.2935 46.659C59.5446 46.659 62.4283 46.7222 65.3021 46.5977C65.7998 46.576 66.6511 45.7773 66.6748 45.3048C66.8091 42.6282 66.74 39.9437 66.74 36.8795Z" fill="#EDEDED"/>
</svg>
