<svg width="31" height="31" viewBox="0 0 31 31" fill="none" xmlns="http://www.w3.org/2000/svg">
<path d="M11.234 18.023C12.6151 18.023 13.7347 16.9034 13.7347 15.5224C13.7347 14.1413 12.6151 13.0217 11.234 13.0217C9.85297 13.0217 8.7334 14.1413 8.7334 15.5224C8.7334 16.9034 9.85297 18.023 11.234 18.023Z" fill="#878787"/>
<path d="M22.3557 15.8377V14.5196C22.3557 14.3021 22.2263 14.2452 22.0657 14.3967L16.0997 20.0442C15.9294 20.2051 15.9797 20.3406 16.2164 20.3406H17.6069C17.6512 20.3406 17.6921 20.3247 17.7236 20.2932L22.2991 15.9638C22.3339 15.9322 22.3527 15.888 22.3527 15.8409L22.356 15.8377H22.3557Z" fill="#878787"/>
<path d="M22.3556 12.2458V10.8741C22.3556 10.7227 22.1758 10.6472 22.0656 10.7512L12.3033 20.0439C12.133 20.2048 12.1834 20.3403 12.42 20.3403H13.8138C13.858 20.3403 13.899 20.3244 13.9305 20.2929L22.3023 12.372C22.337 12.3404 22.3559 12.293 22.3559 12.2491V12.2458H22.3556Z" fill="#878787"/>
<path d="M20.06 20.3374H21.8478C22.1254 20.3374 22.3523 20.1105 22.3523 19.8329V18.1585C22.3523 18.0103 22.1758 17.9346 22.0685 18.0356L19.9433 20.0474C19.8328 20.1514 19.9056 20.3374 20.06 20.3374Z" fill="#878787"/>
</svg>
