<svg width="23" height="31" viewBox="0 0 23 31" fill="none" xmlns="http://www.w3.org/2000/svg">
<path d="M4.83987 0H2.39522C0.87303 0 0 0.861621 0 2.36438V19.4947C0 25.8387 5.15827 30.9999 11.4989 30.9999C17.8395 30.9999 22.9971 25.8391 22.9971 19.4955V0H21.0451V19.4949C21.0451 20.1197 20.9823 20.7512 20.859 21.3719C20.5835 22.7553 20.0118 24.0382 19.1603 25.1852C18.907 25.4792 18.5738 25.4575 18.3841 25.2938C18.0982 25.0444 18.0894 24.8112 18.3177 24.5049C19.3974 23.0376 19.9684 21.3046 19.9684 19.4949V0H18.0164V19.7786H16.9395V3.92442H15.051V21.0294C15.051 21.2943 14.8974 21.5681 14.6403 21.5681H13.9734V3.32626C13.9734 3.06167 14.1883 2.84629 14.4527 2.84629H16.9395V1.05307H14.4527C14.1883 1.05307 13.9734 0.837691 13.9734 0.573091V0H12.022V19.7786H10.9762V18.5737C10.9762 18.4832 10.9023 18.4096 10.8122 18.4096H9.18813C9.09801 18.4096 9.0249 18.4831 9.0249 18.5737V20.9973C9.0249 21.328 8.83878 21.5681 8.5817 21.5681H7.94648V2.36438C7.94648 2.01518 8.14666 1.76169 8.4221 1.76169H9.02479V17.1677C9.02479 17.2582 9.09869 17.3318 9.18881 17.3318H10.8122C10.9023 17.3318 10.9762 17.2583 10.9762 17.1677V0H8.3898C6.86828 0 5.99537 0.861621 5.99537 2.36438V19.7786H4.98133V0.141543C4.98133 0.0636264 4.91785 0 4.84021 0H4.83987ZM3.65739 23.8882C3.60491 23.9164 3.50232 23.9622 3.37741 23.9622C3.33014 23.9622 3.27913 23.9555 3.22745 23.9389C3.13064 23.9079 2.99632 23.8314 2.90179 23.6419C2.54655 22.9055 2.28799 22.1318 2.13293 21.3392C2.01255 20.7229 1.95202 20.1025 1.95202 19.4951V2.36438C1.95202 2.01518 2.1514 1.76169 2.42696 1.76169H3.02965V19.4947C3.02965 20.7725 3.3162 22.0125 3.88194 23.1801C3.99642 23.4815 3.90631 23.7435 3.65739 23.888V23.8882Z" fill="#5E604C"/>
</svg>
