<svg width="31" height="32" viewBox="0 0 31 32" fill="none" xmlns="http://www.w3.org/2000/svg">
<path d="M20.4421 12.2348C21.3391 12.2622 22.1088 11.5051 22.145 10.56C22.1804 9.63952 21.4422 8.83647 20.5266 8.79967C19.6046 8.76256 18.8337 9.5075 18.7948 10.4727C18.7571 11.4053 19.5059 12.2062 20.4421 12.2348Z" fill="#878787"/>
<path d="M10.4809 19.1094C9.69881 19.0744 8.82568 19.715 8.82568 20.8137C8.82568 21.8385 9.60923 22.5351 10.5124 22.5308C11.4286 22.5266 12.1482 21.7479 12.1505 20.797C12.1529 19.8808 11.3911 19.0653 10.4806 19.1094H10.4809Z" fill="#878787"/>
<path d="M20.6254 19.1167C20.2403 19.0805 19.9179 18.9339 19.6895 18.6041C19.3657 18.1363 19.2914 17.625 19.419 17.0659C19.5248 16.6023 19.5985 16.1308 19.6866 15.6627C19.6374 14.7477 19.3819 13.9261 18.8786 13.1866C17.8469 11.6712 16.0143 11.0224 14.2604 11.5605C13.7724 11.7101 13.3059 11.6998 12.8521 11.454C12.3683 11.1918 12.1756 10.7711 12.1208 10.2142C12.0524 9.52125 11.4719 8.94847 10.8265 8.83075C10.0866 8.69569 9.38026 9.02847 9.03549 9.67425C8.68423 10.3328 8.7691 11.1152 9.25266 11.6627C9.53644 11.9842 9.88239 12.1892 10.3073 12.216C10.9182 12.2543 11.2824 12.6099 11.4907 13.1696C11.6378 13.5644 11.6351 13.9675 11.5122 14.369C11.2712 15.1574 11.2571 15.952 11.4551 16.7504C12.0315 19.0726 14.4331 20.5308 16.7404 19.7482C17.6524 19.4388 18.8344 20.0317 18.8559 21.0914C18.8736 21.952 19.7455 22.5971 20.5606 22.5305C21.4514 22.4578 22.1377 21.7123 22.1392 20.8155C22.1406 19.9298 21.4932 19.1982 20.6254 19.117V19.1167ZM15.4954 18.2352C14.1231 18.244 12.9859 17.0908 12.9797 15.684C12.9735 14.2677 14.0777 13.1209 15.4621 13.1015C16.8975 13.0814 17.9889 14.3219 17.9615 15.6493C17.9757 17.0729 16.8757 18.2257 15.4951 18.2349L15.4954 18.2352Z" fill="#878787"/>
<path d="M20.442 12.2348C19.5059 12.2062 18.7574 11.4053 18.7948 10.4727C18.8337 9.5075 19.6049 8.76256 20.5266 8.79967C21.4422 8.83647 22.1803 9.63952 22.145 10.56C22.1084 11.5054 21.3387 12.2622 20.442 12.2348Z" fill="#878787"/>
<path d="M10.4806 19.1094C11.3908 19.0653 12.1529 19.8805 12.1505 20.797C12.1479 21.7479 11.4283 22.5266 10.5124 22.5308C9.60923 22.5351 8.82568 21.8388 8.82568 20.8137C8.82568 19.715 9.69881 19.0744 10.4809 19.1094H10.4806Z" fill="#878787"/>
</svg>
