<svg width="63" height="31" viewBox="0 0 63 31" fill="none" xmlns="http://www.w3.org/2000/svg">
<path d="M31.922 30.883V16.0816L32.1348 15.8691H62.7746C62.9672 15.8691 62.9989 16.3218 62.9925 16.499C62.729 23.8147 56.1184 30.3553 48.8713 30.8811L31.9219 30.883H31.922Z" fill="#5E604C"/>
<path d="M30.2184 30.8821L14.2544 30.8893C1.55893 29.935 -4.76534 14.1984 4.20816 4.97363L30.2184 30.8821Z" fill="#5E604C"/>
<path d="M61.285 8.2207C61.7834 9.53018 62.3483 10.7973 62.6375 12.1817C62.7456 12.6994 63.0265 14.0804 62.9999 14.5251C62.9909 14.6759 62.9216 15.0194 62.7745 15.0194H32.1346L31.9219 14.8069V8.2207H61.285Z" fill="#5E604C"/>
<path d="M60.5758 7.22942H32.1346L31.9219 7.01695V0.00582685L48.737 0C53.5438 0.424081 58.0994 3.10173 60.5758 7.22942Z" fill="#5E604C"/>
<path d="M30.5036 0.00585938C30.5181 7.8147 27.419 15.5816 21.9216 21.1076L17.1719 16.3652C21.3124 12.0061 23.8442 6.07417 23.6947 0.00585938H30.5036Z" fill="#5E604C"/>
<path d="M22.6995 0.00585938C22.8229 4.52267 21.2977 9.15231 18.759 12.8556C18.4787 13.2645 16.7175 15.6299 16.4067 15.5759L11.7989 10.9626C11.7449 10.6866 12.7875 9.60681 13.0274 9.2572C14.9484 6.45931 15.9704 3.42864 16.0325 0.00585938H22.6995Z" fill="#5E604C"/>
<path d="M31.0699 30.1752L22.7109 21.8698C26.2191 18.0093 28.8082 13.6717 30.2894 8.64552C30.5112 7.89257 30.6176 7.1014 30.8294 6.35059C30.8711 6.20307 30.8637 5.92281 31.0699 5.95465V30.175V30.1752Z" fill="#5E604C"/>
<path d="M15.0397 0.00490507C14.9787 3.80643 13.5504 7.40586 10.9962 10.201L6.26953 5.46012C6.59043 4.98914 6.9787 4.5652 7.26109 4.06622C7.55798 3.54166 8.05795 1.93288 8.3166 1.72084C8.72377 1.38715 10.4575 0.777887 11.0359 0.611751C12.3114 0.245369 13.7074 0.00220483 15.0397 0.00490507Z" fill="#5E604C"/>
<path d="M6.67097 2.83909C6.75127 2.92294 6.31425 3.72804 6.22102 3.87556C5.79097 4.55616 5.57296 5.01833 4.97266 4.18381C5.12145 3.98499 6.51038 2.67153 6.67097 2.83909Z" fill="#5E604C"/>
</svg>
