<svg width="32" height="32" viewBox="0 0 32 32" fill="none" xmlns="http://www.w3.org/2000/svg">
<path d="M7.34083 11.6332C7.23042 11.6332 7.14068 11.7232 7.14311 11.8336C7.24836 16.5241 11.0312 20.3069 15.7214 20.4119C15.8318 20.4143 15.9218 20.3246 15.9218 20.2142V11.833C15.9218 11.7226 15.8324 11.6332 15.722 11.6332H7.34083Z" fill="#878787"/>
<path d="M16.1724 20.0289C16.1742 15.2767 19.9512 11.7886 24.6673 11.6377C24.8248 11.6326 24.9538 11.7615 24.9489 11.9194C24.7981 16.6361 21.2948 20.4113 16.5416 20.4122C16.5407 20.4122 16.5413 20.4088 16.3756 20.41C16.2639 20.4107 16.1724 20.3209 16.1724 20.2093V20.0289Z" fill="#878787"/>
</svg>
