<svg width="70" height="35" viewBox="0 0 70 35" fill="none" xmlns="http://www.w3.org/2000/svg">
<g clip-path="url(#clip0_423_6546)">
<path d="M11.2802 10.264C7.84534 6.8301 4.45779 3.4416 1.07812 0.0649414H34.4548V33.3322C31.1106 29.9832 27.7171 26.5829 24.2547 23.1134C25.9406 21.0748 26.747 18.5211 26.2541 15.6477C25.909 13.6426 24.9487 11.9355 23.464 10.5265C20.7488 7.9471 15.5531 6.80839 11.2802 10.264Z" fill="#44420C"/>
<path d="M0.0625 0.880371C3.53287 4.3557 6.9362 7.76789 10.3474 11.184C6.62662 15.8217 8.22772 21.0081 10.7161 23.5894C13.3248 26.2971 18.7552 27.8463 23.3021 24.1479C26.6956 27.5404 30.0832 30.9309 33.5594 34.4082C29.8189 34.3588 26.2579 33.6681 22.8131 32.409C15.8704 29.875 10.2745 25.559 6.08241 19.4688C2.2512 13.8996 0.28137 7.70671 0.0625 0.880371Z" fill="#44420C"/>
<path d="M36.7266 25.3257C37.4482 22.7325 38.3967 20.3762 39.6054 18.1185C39.8124 17.7317 40.0964 17.7277 40.4414 17.7297C43.1191 17.7336 45.7988 17.7297 48.4765 17.7297C53.688 17.7297 58.9014 17.7297 64.1129 17.7297C64.3673 17.7297 64.6216 17.7297 65.0278 17.7297C64.5625 18.452 64.1937 19.0658 63.7856 19.6499C62.4862 21.5149 61.0093 23.2318 59.3865 24.8244C59.0395 25.1639 58.6786 25.3336 58.1758 25.3336C51.2745 25.3198 44.3732 25.3237 37.4719 25.3237C37.257 25.3237 37.044 25.3237 36.7285 25.3237L36.7266 25.3257Z" fill="#44420C"/>
<path d="M40.4648 16.5281C41.2161 15.4723 41.9082 14.3691 42.7304 13.3725C43.8189 12.0502 45.0059 10.8129 46.1495 9.53797C46.4039 9.25379 46.6977 9.12354 47.098 9.12551C54.1018 9.13735 61.1076 9.1334 68.1115 9.13538C68.2751 9.13538 68.4368 9.1709 68.7207 9.20445C68.3244 10.3728 67.9991 11.5075 67.5574 12.5949C67.0684 13.7988 66.4551 14.9533 65.9326 16.1453C65.7374 16.5913 65.4712 16.7235 64.9921 16.7215C60.1612 16.7038 55.3302 16.7097 50.4993 16.7097C47.4568 16.7097 44.4124 16.7097 41.3699 16.7097H40.5792C40.5417 16.6505 40.5043 16.5913 40.4648 16.5321V16.5281Z" fill="#44420C"/>
<path d="M35.585 34.4476C35.585 33.4629 35.5061 32.5906 35.6028 31.74C35.7783 30.1868 36.0405 28.6416 36.3008 27.0983C36.4329 26.3227 36.4684 26.3247 37.2118 26.3247C43.7246 26.3247 50.2375 26.3247 56.7523 26.3247H57.4365C57.4464 26.3938 57.4562 26.4629 57.4681 26.53C51.111 31.7025 43.835 34.347 35.587 34.4457L35.585 34.4476Z" fill="#44420C"/>
<path d="M47.9336 7.93939C54.2926 2.75895 61.5725 0.100649 69.8718 0C69.8896 0.252608 69.9192 0.459826 69.9152 0.667043C69.8679 2.93854 69.6392 5.19031 69.1265 7.40655C68.9609 8.12293 68.9648 8.12687 68.251 8.12885C65.1612 8.12885 62.0734 8.12885 58.9836 8.12885C55.5802 8.12885 52.1769 8.12885 48.7756 8.12885H47.9908C47.973 8.06569 47.9513 8.00254 47.9336 7.93939Z" fill="#44420C"/>
<path d="M20.3031 21.0533C21.0504 21.7973 21.7958 22.5393 22.5431 23.2833C20.0192 25.7857 15.0404 26.212 11.7633 23.161C8.3757 20.0073 8.45655 14.8802 11.15 11.9692C11.8816 12.7251 12.6151 13.4809 13.4038 14.296C12.6407 15.3952 12.2266 16.7254 12.5421 18.2016C12.7472 19.1646 13.2066 20.0053 13.9243 20.6921C15.5846 22.2828 17.5505 22.3933 20.3031 21.0533Z" fill="#44420C"/>
<path d="M23.3179 22.4959C23.1956 22.3893 23.0655 22.2867 22.9452 22.1742C22.2945 21.5664 21.6458 20.9566 21.0286 20.3783C22.4818 17.5602 22.3458 15.5334 20.6678 13.8145C19.0548 12.1607 17.1087 12.0304 14.2831 13.3566C13.5239 12.6008 12.7747 11.8568 12.0273 11.1128C14.7642 8.4959 19.8731 8.2354 23.1306 11.6397C26.3722 15.0242 25.7353 20.1336 23.3179 22.4959Z" fill="#44420C"/>
<path d="M14.2202 15.0303C15.9811 16.8045 17.7064 18.5451 19.4297 20.2818C17.7951 21.6218 15.6794 20.9823 14.6126 19.9246C13.3034 18.628 13.12 16.5341 14.2202 15.0303Z" fill="#44420C"/>
<path d="M20.3068 19.4119C18.5835 17.6713 16.8581 15.9287 15.1328 14.19C16.3001 13.1066 18.4888 13.1974 19.8139 14.415C21.1409 15.6307 21.5924 17.8469 20.3048 19.4139L20.3068 19.4119Z" fill="#44420C"/>
</g>
<defs>
<clipPath id="clip0_423_6546">
<rect width="69.9733" height="34.4474" fill="white"/>
</clipPath>
</defs>
</svg>
