<svg width="15" height="14" viewBox="0 0 15 14" fill="none" xmlns="http://www.w3.org/2000/svg">
<path fill-rule="evenodd" clip-rule="evenodd" d="M13.5509 0H0.527957C0.236374 0 0 0.23505 0 0.525001V3.19374C0 3.48369 0.236374 3.71876 0.527957 3.71876H4.22366C4.80683 3.71876 5.27958 4.18884 5.27958 4.76874V6.89062C5.27958 7.31347 4.93487 7.65624 4.50964 7.65624C4.0844 7.65624 3.7397 7.31347 3.7397 6.89062V5.3375C3.7397 5.04755 3.50332 4.81251 3.21174 4.81251H0.527957C0.236374 4.81251 0 5.04755 0 5.3375V12.95C0 13.5299 0.472748 14 1.05591 14H13.023C13.6061 14 14.0789 13.5299 14.0789 12.95V5.3375C14.0789 5.04755 13.8425 4.81251 13.5509 4.81251H10.8671C10.5755 4.81251 10.3392 5.04755 10.3392 5.3375V6.89062C10.3392 7.31347 9.99441 7.65624 9.56923 7.65624C9.14405 7.65624 8.79929 7.31347 8.79929 6.89062V4.76874C8.79929 4.18884 9.27207 3.71876 9.85521 3.71876H13.5509C13.8425 3.71876 14.0789 3.48369 14.0789 3.19374V0.525001C14.0789 0.23505 13.8425 0 13.5509 0Z" fill="#878787"/>
</svg>
