<svg width="50" height="50" viewBox="0 0 50 50" fill="none" xmlns="http://www.w3.org/2000/svg">
<path d="M24.8786 0.00529278C32.1906 0.00529278 39.5006 -0.0124978 46.8125 0.0171548C48.6079 0.0250622 49.5876 1.09454 49.6528 2.83218C49.7377 5.1352 49.6686 7.44612 49.6765 9.7531C49.6824 11.7042 48.8272 12.8113 46.7355 12.7282C42.562 12.5661 38.3787 12.6788 34.1993 12.6828C32.6508 12.6828 30.8119 14.5351 30.8119 16.0829C30.8119 18.6726 30.806 21.2623 30.8119 23.8519C30.8159 26.1628 31.9378 27.2758 34.227 27.2639C35.7063 27.256 36.8598 25.7418 36.846 23.8084C36.8361 22.397 36.9072 20.9756 36.7749 19.574C36.5813 17.5142 38.0844 17.1168 39.4512 17.018C42.0288 16.8341 44.6557 16.7531 47.2036 17.0812C48.1142 17.1979 49.5521 18.6054 49.5679 19.4475C49.7417 28.2603 49.7515 37.079 49.5718 45.8917C49.5501 46.9197 48.3057 48.2382 47.2846 48.8392C46.3029 49.4164 44.8769 49.371 43.6444 49.3749C30.3419 49.4065 17.0373 49.3947 3.73478 49.3947C1.77741 49.3947 0.0708938 47.8112 0.0629933 45.868C0.0254656 37.1699 -0.00218654 28.4718 0.0274405 19.7737C0.0333659 17.9076 1.43374 17.1069 3.0336 17.0061C5.46105 16.8539 7.91812 16.8203 10.3377 17.0259C11.6096 17.1346 13.01 17.5972 12.8224 19.5286C12.6762 21.0211 12.7533 22.5393 12.7631 24.0457C12.775 25.9889 14.282 27.3015 16.4152 27.262C17.6871 27.2382 18.9512 25.5599 18.9414 23.9567C18.9256 21.5094 18.8979 19.0601 18.9453 16.6127C18.9986 13.8649 17.3079 12.7994 14.9792 12.7203C10.7801 12.58 6.57502 12.6452 2.37193 12.7025C0.641709 12.7263 0.120272 11.6627 0.0610183 10.2987C-0.0416889 7.89091 0.0195406 5.47521 0.00571464 3.06149C-0.00416105 1.14593 1.13944 0.00331702 3.05335 0.00331702C10.3298 0.0072707 17.6042 0.00331702 24.8806 0.00331702L24.8786 0.00529278Z" fill="#44420C"/>
</svg>
