<svg width="31" height="32" viewBox="0 0 31 32" fill="none" xmlns="http://www.w3.org/2000/svg">
<path fill-rule="evenodd" clip-rule="evenodd" d="M20.3913 10.5193H10.5152C10.2942 10.5193 10.1147 10.7033 10.1147 10.9302V13.0194C10.1147 13.2463 10.2939 13.4303 10.5152 13.4303H13.3179C13.7602 13.4303 14.1185 13.7984 14.1185 14.2522V15.9134C14.1185 16.2443 13.8571 16.5126 13.5348 16.5126C13.2124 16.5126 12.951 16.2443 12.951 15.9134V14.6975C12.951 14.4706 12.7718 14.2866 12.5505 14.2866H10.5152C10.2942 14.2866 10.1147 14.4706 10.1147 14.6975V20.6568C10.1147 21.1106 10.4734 21.4787 10.9154 21.4787H19.9905C20.4329 21.4787 20.7912 21.1106 20.7912 20.6568V14.6975C20.7912 14.4706 20.612 14.2866 20.3907 14.2866H18.3554C18.1344 14.2866 17.9549 14.4706 17.9549 14.6975V15.9134C17.9549 16.2443 17.6935 16.5126 17.3712 16.5126C17.0488 16.5126 16.7874 16.2443 16.7874 15.9134V14.2522C16.7874 13.7984 17.146 13.4303 17.588 13.4303H20.3907C20.6117 13.4303 20.7912 13.2463 20.7912 13.0194V10.9302C20.7912 10.7033 20.612 10.5193 20.3907 10.5193H20.3913Z" fill="#878787"/>
</svg>
