<svg width="78" height="15" viewBox="0 0 78 15" fill="none" xmlns="http://www.w3.org/2000/svg">
<path d="M23.3082 2.3798C23.2966 2.46212 23.2699 2.54051 23.2673 2.62384L23.3978 2.72685C23.7856 2.38502 24.1991 2.68968 23.9464 3.15596C24.118 3.14891 24.2968 3.28242 24.3116 3.4575C24.3327 3.70859 24.1971 3.66995 24.5168 3.88716C24.6368 3.55347 25.0896 3.69834 24.9889 4.03807C24.9555 4.15079 24.8273 4.11883 24.8134 4.20665L25.1513 4.2539C25.1994 4.25005 25.2398 3.99283 25.3599 4.0236C25.3456 3.92754 25.2093 3.98944 25.1625 3.8769C25.0085 3.50631 25.3854 3.3315 25.6335 3.61317C25.6107 3.4564 25.6439 3.2815 25.7913 3.19973C25.9351 3.11997 26.0385 3.18572 26.1513 3.14936C26.4064 3.06704 26.0972 2.85414 26.095 2.72365C26.0904 2.45379 26.4058 2.26433 26.6149 2.47018C26.6607 2.4667 26.7109 2.12276 27.0264 2.10188C27.245 2.08741 27.1674 2.23246 27.366 1.9441L27.3653 1.87963C27.2048 1.8604 27.173 1.67268 27.2388 1.54631C27.4204 1.19807 27.8845 1.48542 27.6862 1.83138C27.7967 1.86004 27.8916 1.92185 27.9152 1.76371C27.6798 1.52919 27.7938 1.10375 28.1432 1.16739C28.2671 1.19001 28.29 1.27142 28.37 1.32874C28.3788 0.928665 28.7418 0.838834 29.0085 1.10064C28.9681 0.829676 29.2955 0.658529 29.5088 0.80541C29.5908 0.86191 29.5709 0.954214 29.647 0.963371C29.5505 0.367057 30.4218 0.445168 30.1945 1.00906C30.3287 1.05485 30.379 1.06502 30.4682 0.940569C30.3091 0.865206 30.2639 0.808432 30.2875 0.62538C30.3429 0.194995 31.0262 0.401214 30.7874 0.826197C30.8961 0.878576 31.0813 0.829768 31.1037 0.705872C31.1171 0.632157 30.9957 0.588294 30.9763 0.519707C30.9115 0.290137 31.1805 0.128788 31.3622 0.274112C31.477 0.365959 31.3327 0.694975 31.6786 0.689114C31.7636 0.687649 31.7983 0.583715 31.8687 0.561464C32.0479 0.504872 32.2016 0.581976 32.3379 0.689481C32.3208 0.354695 32.7309 0.250579 32.8773 0.541226C32.9346 0.654775 32.87 0.793872 32.8892 0.820611C32.8956 0.829493 33.0806 0.905955 33.0915 0.905131C33.1237 0.902842 33.201 0.801747 33.2643 0.771162C33.4921 0.661093 33.6029 0.732885 33.7973 0.872166C33.8961 0.381892 34.5064 0.619154 34.2995 1.05458L34.604 1.13809C34.703 1.14789 34.8027 0.920973 35.0639 1.04313C35.3106 1.15842 35.0903 1.52287 35.4135 1.5606C35.5594 1.21345 35.9551 1.55337 36.0348 1.1706C35.6367 0.976649 36.024 0.418704 36.3316 0.732794C36.4899 0.894326 36.2807 1.31812 36.7166 0.962546C36.2501 0.469892 37.0972 0.214591 36.9927 0.869968L37.2802 0.958609C37.4712 0.715578 37.7947 0.72968 37.9071 1.03113C37.9593 1.17115 37.8525 1.47965 38.0814 1.20851C37.6301 0.650471 38.5473 0.322462 38.5172 1.05586C38.8409 1.19825 38.6523 0.916761 38.6327 0.800557C38.555 0.34096 39.2588 0.445351 39.0421 0.871891C39.3437 1.00732 39.2892 0.924819 39.4865 0.837185C39.8542 0.673822 40.137 1.05485 39.909 1.37416C40.0992 1.37324 40.157 1.55282 40.2738 1.64897C40.29 1.56115 40.288 1.41674 40.3956 1.38103C40.8198 1.24001 40.7635 2.05197 40.2738 1.64897C40.2644 1.69997 40.2221 2.01159 40.2247 2.03064C40.2296 2.06525 40.4628 2.10728 40.4605 2.40251C40.4597 2.49408 40.3991 2.61633 40.4071 2.67017C40.4122 2.70451 40.5243 2.73024 40.5697 2.79077C40.689 2.94946 40.649 3.13847 40.5473 3.29286C40.876 3.33196 40.8857 3.70026 40.7296 3.93257C40.9196 3.92104 41.0154 4.10015 41.0069 4.27496C41.002 4.3745 40.9165 4.49208 40.9176 4.50508C40.921 4.54317 41.4656 4.80919 41.1178 5.12154C41.0539 5.17905 40.9527 5.13244 40.958 5.21183C41.3222 5.13344 41.5448 5.51704 41.278 5.78342C41.2791 5.81684 41.7461 5.93616 41.5636 6.29878C41.5167 6.392 41.4232 6.36737 41.4142 6.4452C41.7182 6.43916 41.9257 6.78301 41.6663 6.99509C41.5066 7.12567 41.0843 6.96789 41.3912 7.26724C41.9143 6.65426 42.3097 7.7653 41.5505 7.65505C41.4437 7.74598 41.5431 7.84643 41.6192 7.90668C42.1209 7.27383 42.5351 8.43102 41.7335 8.227L41.6974 8.38038L41.8017 8.50062C42.3114 7.96767 42.6939 8.97248 41.9156 8.86699L42.0076 9.18658C42.5143 8.6062 42.8701 9.64325 42.1646 9.4721C42.0029 9.57722 42.1735 9.70185 42.258 9.78033C42.7105 9.23438 43.0396 10.2792 42.3264 10.1001L42.2853 10.2614L42.3935 10.3282C42.5727 10.1036 42.8651 10.0866 43.0006 10.3633C43.0711 10.5074 42.9717 10.5969 43.0788 10.6933L43.237 10.5343C42.683 10.0463 43.7596 9.73711 43.5117 10.4654L43.7854 10.5113C43.8731 10.4233 43.4571 10.1789 43.6526 9.89818C43.6975 9.83362 43.7892 9.85212 43.7854 9.78115C43.4715 9.80624 43.3132 9.40086 43.5773 9.22916C43.7084 9.14391 43.996 9.26029 43.9221 9.07303C43.8585 8.91205 43.7255 9.09775 43.651 9.12147C43.099 9.29775 43.1091 8.39174 43.6942 8.59329L43.7305 8.43981L43.5603 8.32077C43.5316 8.5551 43.1635 8.54146 43.079 8.36482C42.9324 8.0586 43.238 7.77409 43.5117 7.99908C43.597 7.5165 43.2767 7.89121 43.0815 7.86319C42.7065 7.80934 42.8709 7.11926 43.2839 7.35973L43.3202 7.20644L43.2103 7.08749C43.0412 7.22411 42.7873 7.32978 42.6792 7.07219C42.4752 6.58586 43.4027 6.84088 42.9875 6.44658C42.5642 6.94821 42.1651 6.06756 42.8668 6.11994C42.9604 5.965 42.8753 5.90887 42.7594 5.80704C42.3388 6.3486 41.966 5.37116 42.6908 5.53196C42.7154 5.35331 42.6949 5.28536 42.5773 5.16677C42.0772 5.6554 41.8501 4.71295 42.5084 4.8927C42.5636 4.66936 42.5162 4.62174 42.3489 4.48164C41.9268 5.08903 41.6432 3.9964 42.3259 4.34437L42.368 4.03101C42.2685 4.00428 42.1969 3.95089 42.1888 3.8421C42.1076 3.83899 42.1376 3.9627 42.0875 4.01362C41.9489 4.15436 41.6277 4.00675 41.7559 3.75016C41.8677 3.59926 42.0162 3.64513 42.1434 3.75044L42.2351 3.38598C41.8114 3.29249 42.0377 2.92547 41.9997 2.77209C41.9833 2.70598 41.808 2.69114 41.7808 2.49023C41.7613 2.34647 41.8384 2.2059 41.828 2.13558C41.8217 2.09309 41.4874 2.031 41.6061 1.63532C41.6229 1.57937 41.7532 1.48588 41.7334 1.46683C41.4035 1.48981 41.3563 0.962547 41.629 0.882238C42.002 0.772444 42.168 1.13452 41.9615 1.42013L42.0973 1.46637L42.2282 1.21455C41.7024 0.621351 42.8307 0.407349 42.5997 1.10054C42.6904 1.14514 42.8479 1.14908 42.8695 1.0261C42.8764 0.987271 42.5445 0.56943 42.9417 0.547819C43.2965 0.528498 43.1485 0.85495 43.1976 0.913373C43.2087 0.926467 43.4558 0.952474 43.4895 1.05485C43.6446 0.733893 43.9256 0.781876 44.15 1.00934C44.1655 0.459819 44.8649 0.667503 44.6977 1.14642C44.8442 1.21034 44.8753 1.138 44.9707 1.03113C45.0068 0.936357 44.8676 0.969964 44.8405 0.890205C44.6883 0.442329 45.4495 0.406158 45.2449 0.917768C45.3925 0.837094 45.6105 1.09963 45.6328 1.09972C45.6514 1.09972 45.7168 0.97674 45.8174 0.962455C46.0475 0.929764 46.1868 1.13186 46.0896 1.32938C46.009 1.4932 45.4426 1.33286 45.8152 1.73962C46.2766 1.19779 46.567 2.21653 45.9296 2.01406C45.8484 2.26836 45.9002 2.23557 46.0214 2.42549C46.112 2.39262 46.1175 2.23301 46.2353 2.20371C46.5785 2.11864 46.5847 2.84187 46.1119 2.60818C46.0587 2.8611 46.06 2.87035 46.2036 3.06466C46.3133 3.0078 46.2417 2.85954 46.4176 2.84571C46.8216 2.81412 46.6929 3.42701 46.2945 3.20183L46.2128 3.50091C46.2754 3.57023 46.3405 3.58176 46.3956 3.67123C46.5452 3.91444 46.3685 4.04438 46.3905 4.13412C46.4036 4.18733 46.5053 4.21031 46.5427 4.25527C46.6703 4.40856 46.6245 4.6472 46.5221 4.79994C46.8302 4.88821 46.8736 5.18802 46.7045 5.43975C47.0384 5.48352 47.0653 5.87673 46.8414 6.07956C47.1633 6.05145 47.3062 6.43422 47.0703 6.65115C47.5374 6.82083 47.3977 7.46467 46.8874 7.2677C46.8771 7.37649 46.8802 7.50789 47.0224 7.49535C47.1264 7.16862 47.5892 7.34792 47.5704 7.65248C47.5558 7.88901 47.313 7.92262 47.1204 7.91163C47.0574 8.02362 47.0945 8.10924 47.2287 8.13635C47.7255 7.52227 48.0787 8.7007 47.2979 8.45492C47.3143 8.51472 47.234 8.64667 47.2563 8.67653C47.4119 8.88494 47.5319 8.59091 47.6773 8.60299C47.911 8.62241 48.03 8.9343 47.8793 9.08411C47.7775 9.18539 47.2503 9.08145 47.6004 9.36395C47.8256 9.16021 48.1776 9.22916 48.1187 9.57255C48.0666 9.87684 47.6397 9.64315 47.7083 9.89388C47.7564 10.0696 47.913 9.85148 47.968 9.83463C48.2625 9.74434 48.51 10.0856 48.3008 10.3278L48.5941 10.4228C48.692 10.2071 48.9182 10.1921 49.1202 10.2827L49.2577 10.0311C48.8735 9.81503 49.0398 9.33492 49.4844 9.46019C49.6621 9.16268 49.4425 9.15636 49.403 8.96992C49.3418 8.68092 49.6374 8.44631 49.8967 8.59255C49.9417 8.45959 49.9529 8.40776 49.8285 8.31903C49.3356 8.90545 49.0005 7.92463 49.709 8.04084L49.8327 7.77198C49.8524 7.69177 49.4957 7.50798 49.7131 7.24334C49.8761 7.04491 50.1145 7.25103 50.2096 6.96249C50.2376 6.87742 50.1123 6.89848 50.0671 6.80114C50.0173 6.69419 50.0144 6.51526 50.0667 6.40949C50.113 6.31591 50.2072 6.34118 50.216 6.26316C49.6926 6.2236 49.8678 5.55898 50.3527 5.76043L50.447 5.46539C50.0703 5.22437 50.339 4.71524 50.7633 4.89243C50.8723 4.6385 50.7082 4.6493 50.6502 4.52614C50.577 4.37019 50.6321 4.15647 50.7628 4.04686C50.7612 3.99136 50.4379 3.96499 50.5558 3.61015C50.6429 3.3478 50.9227 3.47582 50.9488 3.45613C50.9593 3.44825 51.0712 3.23663 51.0709 3.22354C51.0695 3.16887 50.8444 3.07025 50.9093 2.77823C50.9808 2.45708 51.4492 2.61907 51.4467 2.49371L51.2868 2.39051C50.764 2.86146 50.4977 1.88751 51.1735 2.06021C51.1396 1.95097 51.303 1.77451 51.2983 1.71655C51.291 1.6269 50.9672 1.49476 51.2402 1.23497C51.4428 1.04203 51.6564 1.20649 51.6744 1.19193C51.7061 1.16638 51.7301 0.916395 51.947 0.846709C52.1773 0.772719 52.3014 0.925369 52.376 0.911083C52.4786 0.891487 52.5112 0.650837 52.829 0.744698C53.0955 0.823449 52.9244 1.27948 53.1115 1.23717L53.2254 1.12197C53.2568 1.04157 53.0801 1.0369 53.051 0.883612C52.9643 0.427037 53.7539 0.443062 53.5455 1.00852C53.7567 1.08946 53.7811 0.989743 53.956 0.916944C53.9824 0.878484 53.5644 0.713381 53.7729 0.482987C53.9413 0.297005 54.2508 0.565584 54.0968 0.762097C54.0552 0.815208 53.9495 0.798451 53.9562 0.871525C54.1572 0.814567 54.2909 0.830317 54.4567 0.963371C54.4914 0.736182 54.7639 0.661551 54.94 0.777297C55.0198 0.829768 55.0152 0.947987 55.0956 0.963096C55.0942 0.749734 55.158 0.591591 55.391 0.595253C55.8116 0.601938 55.4898 1.07555 55.8048 1.0521C55.9478 1.04148 55.9335 0.826105 56.3022 0.874089C56.3737 0.883429 56.4581 0.953481 56.4877 0.951283C56.5378 0.94762 56.6469 0.73783 56.8449 0.748453C57.0858 0.761364 57.2256 1.03132 57.1028 1.23689C57.2227 1.25301 57.3053 1.22151 57.3762 1.12289C56.7053 0.653493 57.9156 0.247373 57.6501 1.05412C57.8725 1.11025 57.9209 1.06135 58.0603 0.894417C57.4899 0.518425 58.4774 0.146279 58.2429 0.871525L58.6069 0.962913C58.7972 0.518059 59.3183 0.809897 59.1998 1.25649L59.3146 1.2836C59.4891 1.05329 59.0703 0.94991 59.3594 0.68829C59.6199 0.452494 59.8976 0.764661 59.7937 1.05421C59.9459 1.08205 60.0225 1.00165 60.1126 0.894326C59.5226 0.429784 60.6347 0.241147 60.2952 0.87125C60.4049 0.815208 60.5944 0.95403 60.6378 0.951009C60.6886 0.947529 60.7463 0.815117 60.8289 0.78966C61.1489 0.69122 61.3845 0.98489 61.2531 1.2825L61.4065 1.28497C61.5522 1.14889 61.3702 1.11364 61.3442 0.984615C61.2643 0.586463 61.7116 0.455515 61.8855 0.813377C61.7464 1.2542 62.1485 1.09734 62.115 0.900736C62.105 0.842039 61.9457 0.783067 61.9886 0.676935C62.1242 0.289313 62.577 0.525476 62.3931 0.871341C62.5234 0.814476 62.6373 0.94524 62.6992 0.956045C62.7831 0.970788 62.9679 0.627944 63.2596 0.849181C63.3332 0.90504 63.3219 1.00046 63.3959 1.00861C63.3663 0.446084 64.0641 0.547636 63.9439 1.1L64.2626 0.962455C64.2608 0.883246 64.1428 0.906871 64.1025 0.827204C63.9561 0.538204 64.2971 0.323469 64.4841 0.582617L64.445 0.87125L64.7884 1.00668C64.9642 0.720523 65.2215 0.724552 65.4483 0.963096C65.4242 0.618787 65.8827 0.538479 66.009 0.8392C66.0515 0.940295 65.9641 1.12564 66.0652 1.1456C66.1365 1.1597 66.2122 1.03296 66.2159 0.978205C66.2203 0.913739 65.9869 0.589942 66.2567 0.513663C66.6984 0.38876 66.525 0.846983 66.5429 0.871341C66.5547 0.887275 66.8501 0.930863 66.8854 1.05247C67.2577 0.61256 67.6941 1.06996 67.3187 1.46518C67.6895 1.41766 67.8273 1.79713 67.5924 2.05902C68.0677 2.07074 67.8352 2.46075 67.8734 2.62667C67.8922 2.70854 68.1505 2.72649 68.1417 3.03948C68.1399 3.10559 68.0706 3.25861 68.0951 3.29075C68.1121 3.31291 68.3119 3.3054 68.3555 3.50997C68.3878 3.66162 68.3165 3.80905 68.3291 3.86023C68.3403 3.90529 68.5564 4.00299 68.5878 4.19566C68.612 4.34455 68.518 4.39657 68.5043 4.52577C68.6281 4.52532 68.7394 4.62531 68.7655 4.74307C68.8232 5.00479 68.6386 5.10881 68.9377 5.25661C69.1666 4.83236 69.6768 5.13885 69.3708 5.53095C69.5188 5.52638 69.6212 5.60714 69.713 5.71401C69.8646 5.23088 70.4353 5.44378 70.2827 5.89678C70.4504 5.94312 70.4964 5.91977 70.6012 5.78278C70.4431 5.66282 70.3279 5.49204 70.5129 5.32794C70.7541 5.11412 71.0743 5.48233 70.8302 5.71373C70.9701 5.71565 71.0695 5.79376 71.1474 5.64029C70.8467 5.27162 71.0469 4.92319 71.5138 5.07465L71.6083 4.78044C71.2108 4.58163 71.4597 4.06874 71.877 4.25198L72.0159 3.93358C71.5748 3.78634 71.8671 3.18865 72.2868 3.3836C72.4313 3.12501 72.3109 3.1761 72.24 2.99864C72.1492 2.77154 72.2814 2.57521 72.5071 2.52439C72.6232 2.49829 72.6891 2.61486 72.7579 2.45791C72.8383 2.27449 72.5374 2.26433 72.6187 1.9094C72.7028 1.54256 73.1622 1.85555 73.1941 1.49513C72.7788 1.08305 73.2919 0.617597 73.703 1.00888C73.7267 0.484544 74.442 0.633805 74.2961 1.16867C74.3046 1.24184 74.5262 1.16199 74.5252 1.03205C73.9474 0.592781 75.0322 0.242978 74.8435 0.963004C75.2117 1.08589 75.3846 0.623549 75.7549 0.963371C75.8263 0.68014 76.1451 0.580144 76.3244 0.827296C76.4428 0.990384 76.3159 1.11721 76.42 1.18644C76.5781 1.29697 76.6495 1.19093 76.7592 1.10036C76.5882 1.07729 76.4511 1.09587 76.4141 0.87244C76.3545 0.511649 76.8533 0.460643 76.9331 0.721073C76.9963 0.927108 76.8927 0.990201 76.7592 1.10036C76.8807 1.11675 76.9743 1.0663 77.1044 1.14303C77.3202 1.27032 77.2989 1.66417 77.0779 1.76224C76.9751 1.80784 76.6312 1.73926 76.6686 1.89841C76.6718 1.91178 76.8112 2.0854 76.8499 2.10518L76.914 1.87258C77.5279 1.64475 77.3897 2.58547 76.8508 2.19684C76.862 2.33987 76.8085 2.47805 76.6917 2.56294C76.4997 2.7025 75.9872 2.52109 76.4394 2.88198C76.4486 2.52201 76.9973 2.61486 76.9349 2.93948C76.8976 3.13279 76.6346 3.24231 76.5083 3.06567L76.3034 3.40769C76.7542 3.62471 76.4553 4.17927 76.03 3.88706C76.049 4.04182 75.976 4.13559 75.8927 4.25161C76.3571 4.44043 76.0973 4.97905 75.6195 4.7547L75.4822 5.07392C75.9458 5.23564 75.6687 5.83873 75.2108 5.62344L75.0724 5.87435C75.5294 6.17031 75.2608 6.59795 74.7579 6.49639L74.7108 6.71287C74.9919 6.81424 74.9856 7.12457 74.7534 7.29032C75.2676 7.46842 75.0873 8.0597 74.5704 7.86108C74.4848 8.09541 74.5833 8.05585 74.6621 8.22654C75.2499 7.47236 75.5943 8.82835 74.753 8.45529C74.7239 8.63935 74.7012 8.70482 74.8667 8.81993C75.4087 8.09322 75.8252 9.38025 74.9352 9.14024L74.9114 9.32503L75.0949 9.46001C75.24 8.88613 75.953 9.39316 75.6078 9.72273C75.554 9.7741 75.4345 9.74416 75.4369 9.8252C75.7987 9.76247 76.0004 10.0269 75.8016 10.3418C75.7747 10.3842 75.6936 10.3495 75.7105 10.419C76.3374 10.4243 76.1604 11.2453 75.5738 11.0131L75.5373 11.1665L75.6869 11.288C75.9802 10.7611 76.5916 11.2663 76.1662 11.6981C76.5168 11.6788 76.5987 12.0493 76.3943 12.292C76.7645 12.3142 76.8177 12.7011 76.5768 12.9315C77.2058 13.1034 76.7821 13.8419 76.3035 13.3889C76.3138 13.8102 75.9315 13.8992 75.665 13.6174C75.6395 14.2092 74.803 13.9085 75.1163 13.4571L74.8503 13.3477L74.7068 13.5711C75.1749 13.5859 75.1177 14.2091 74.6401 14.119C74.4111 14.0758 74.4381 13.7612 74.5699 13.6178L74.2056 13.4802C74.0963 14.0222 73.3536 13.6871 73.658 13.207L73.4068 13.0699C73.2278 13.4056 72.8395 13.3806 72.7487 13.0007L72.928 12.7042C72.598 12.7091 72.4533 12.4015 72.6548 12.1338C72.3245 11.9933 72.2237 11.7629 72.4719 11.4708C72.1255 11.4975 72.1099 11.1446 72.1941 10.8832L71.9475 10.6947C71.7863 11.1281 71.3337 11.0122 71.4456 10.5562C71.5361 10.4669 71.6613 10.4384 71.7776 10.4978C71.8704 10.5452 71.8467 10.6384 71.9242 10.6479L71.9501 10.2831L71.7192 10.1001C71.4663 10.728 70.8853 9.98069 71.3767 9.84424C71.5697 9.79068 71.5822 9.91723 71.6962 10.0083L71.7226 9.64315L71.5398 9.54883C71.3099 10.0069 70.7593 9.64077 71.0581 9.23255L70.7615 9.09601C70.5495 9.54737 69.9682 9.33996 70.1464 8.8669L69.9448 8.81938L69.8268 9.00279C70.5906 9.46138 69.2432 9.83811 69.6443 9.04977C69.4648 9.03558 69.2633 8.92917 69.2342 9.18548C69.6971 9.29198 69.372 9.92556 69.0321 9.685C68.9679 9.63949 68.9858 9.54838 68.9151 9.55204C68.91 9.71952 68.8859 9.93673 68.687 9.96356C68.7101 10.0573 68.869 9.99131 68.9487 10.0659C69.2143 10.3146 68.7915 10.7673 68.5047 10.4198C68.5287 10.5926 68.4669 10.701 68.3676 10.8304C68.8296 10.9589 68.6014 11.5877 68.0961 11.334L67.9116 11.6306C68.5108 11.7497 68.1681 12.4828 67.6838 12.1558L67.5893 12.4499C68.0722 12.6835 67.6887 13.2727 67.2734 12.9781L67.1363 13.2752C67.5758 13.4731 67.3622 14.0431 66.9106 13.8205C66.7195 13.6752 66.8803 13.3616 66.8627 13.3437L66.641 13.3018L66.4976 13.5256C66.7548 13.4921 66.7924 13.9097 66.6476 14.0308C66.3496 14.2798 65.9743 13.8688 66.224 13.5725L65.9969 13.4804L65.8599 13.6859C66.6034 14.2023 65.2992 14.6099 65.6311 13.7552L65.3795 13.618C65.2936 13.5866 65.3045 13.7349 65.2473 13.8038C64.9697 14.1377 64.6933 13.7277 64.6738 13.7545C64.6526 14.3046 63.8578 14.095 64.1264 13.5722C63.9472 13.4944 63.853 13.538 63.7613 13.7083C64.0245 13.7176 64.1388 14.0608 63.916 14.2063C63.6318 14.392 63.3401 14.0236 63.5778 13.7771L63.2818 13.6179C63.1781 13.9541 62.8678 13.9684 62.6216 13.7545C62.5775 14.3364 61.7569 14.0516 62.0738 13.5725L61.8466 13.4804L61.7548 13.7077C62.1997 13.8713 61.8994 14.3933 61.4917 14.1548C61.4155 14.0302 61.4141 13.8853 61.4806 13.7563L61.1684 13.6693C61.0662 13.9415 60.7621 13.9417 60.5693 13.7545C60.4664 14.28 59.7645 14.0578 59.9762 13.5721L59.7767 13.5222L59.6993 13.6809C59.703 13.7284 59.8893 13.7024 59.8894 13.9601C59.8896 14.4455 59.1152 14.1915 59.4274 13.777C59.1537 13.5064 59.0919 13.8599 58.8544 13.8905C58.6853 13.9123 58.6202 13.8301 58.4713 13.8C58.4812 14.116 58.0149 14.1432 57.9013 13.8909C57.8242 13.7195 57.9804 13.2841 57.6498 13.6621C57.9219 13.729 57.8973 14.1541 57.616 14.2042C57.3534 14.251 57.2042 13.9745 57.331 13.7551L57.0579 13.6632C56.9808 13.9584 56.6165 13.9263 56.419 13.7546C56.4209 13.9998 56.1695 14.0988 55.9629 14.0049C55.8626 13.9593 55.8676 13.8249 55.7804 13.8004C55.8536 14.3889 55.0496 14.3122 55.2786 13.7551L55.0079 13.6642L54.8223 13.8912L55.0546 13.9554C55.2727 14.5541 54.3546 14.375 54.7765 13.8921C54.6507 13.9662 54.3708 13.764 54.3424 13.7648C54.2988 13.766 54.232 13.9036 54.1513 13.9283C53.6255 14.0895 53.6649 13.1382 54.2744 13.4805C54.3083 13.3005 54.1818 13.2258 54.0694 13.1152C53.6154 13.7165 53.3227 12.5949 54.0008 12.8865C53.977 12.7908 54.0788 12.6914 54.0852 12.6266C54.093 12.5471 53.6645 12.1562 54.0923 11.9503C54.0404 11.8393 53.6448 11.9105 53.7931 11.4677C53.8914 11.1741 54.278 11.4358 54.2755 11.2196C54.0807 11.0407 54.0929 11.1809 53.9571 11.2235C53.4966 11.3679 53.5162 10.5606 54 10.7851L54.138 10.4664C53.8223 10.3738 53.8729 10.0416 54.0471 9.82639C53.8186 9.83701 53.7106 9.56825 53.806 9.37888C53.8529 9.28566 53.9464 9.31029 53.9555 9.23236L53.6631 9.18511L53.5013 9.43803C53.7276 9.49609 53.8282 9.89607 53.6264 9.9784C53.4007 10.0704 53.2807 9.92996 53.1782 10.3038C53.5839 10.5276 53.2619 11.0622 52.8615 10.8762C52.7588 11.0715 52.9085 11.0829 52.9637 11.2077C53.0416 11.3838 53.01 11.5949 52.862 11.7217C53.1331 11.8185 53.2048 12.2347 52.9077 12.3202C52.7091 12.3774 52.673 12.2072 52.5425 12.5448C52.8052 12.6452 52.792 13.0837 52.5096 13.1512C52.37 13.1845 52.1743 13.1018 52.1386 13.3297C52.1247 13.4189 52.2934 13.4692 52.3144 13.5969C52.3796 13.9928 51.9105 14.1343 51.6758 13.8459C51.6326 14.4111 50.9063 14.224 51.1283 13.7091C50.9621 13.637 50.9165 13.6949 50.81 13.8231C51.102 14.0542 50.9202 14.442 50.5534 14.2613C50.4289 14.1622 50.5862 13.8555 50.2748 13.8549C50.1619 13.8547 49.8866 14.208 49.6455 13.8927C49.442 14.3353 48.8876 14.1867 49.0305 13.7091C48.8629 13.6348 48.8184 13.698 48.7111 13.8232C48.7015 13.8461 48.8853 13.8562 48.8977 14.0516C48.9267 14.5097 48.1758 14.2957 48.4828 13.892L48.1842 13.8078C48.02 14.0751 47.7384 14.0645 47.5257 13.8459C47.4239 14.3186 46.7577 14.1655 46.9091 13.6628C46.5301 13.7484 46.7983 13.8554 46.8334 13.9695C46.9696 14.4127 46.1429 14.4163 46.3854 13.892L46.1335 13.8131C45.9867 13.9512 45.8621 14.0309 45.6529 13.9625C45.5639 13.9335 45.5221 13.8291 45.4277 13.8456C45.4341 14.1881 44.9101 14.2406 44.842 13.9032C44.8079 13.7342 44.993 13.5268 44.6522 13.7322C44.6375 13.8069 44.7599 13.8528 44.781 13.9238C44.907 14.3457 44.1112 14.4188 44.2868 13.8467L44.0356 13.755C43.9035 14.0474 43.5997 14.0456 43.3755 13.8457C43.35 14.0714 43.1708 14.164 42.9627 14.0998C42.6695 14.0093 42.8293 13.615 42.7588 13.6168L42.6053 13.7379C43.0325 14.3399 42.0411 14.4936 42.2351 13.846L41.9833 13.755C41.8469 14.1639 41.4582 13.8781 41.3521 13.8981C41.2833 13.9111 40.9219 14.3999 40.7177 13.9249C40.6372 13.7376 40.8623 13.4682 40.5021 13.6865L40.6734 13.9675C40.6831 14.2618 40.2688 14.3748 40.1603 14.1192C40.0825 13.936 40.2375 13.8368 39.9222 13.7598L39.8692 13.7593C39.5851 14.1907 39.0216 13.8491 39.2187 13.3508L38.9736 13.1607C38.9326 13.1418 38.9741 13.3032 38.8771 13.338C38.3957 13.5113 38.4611 12.6687 38.9505 13.0234C38.941 12.9067 38.9431 12.8028 39.0402 12.7261C38.8652 12.6036 38.7716 12.5482 38.7644 12.3155C38.7621 12.2393 38.8139 12.1463 38.8038 12.092C38.7809 11.9692 38.382 11.7486 38.6775 11.4253C38.5408 11.4315 38.4881 11.3187 38.4038 11.2418C38.3783 11.3824 38.3183 11.4845 38.1809 11.5393C37.6912 11.5418 37.9275 10.9061 38.2682 11.081C38.3063 11.1005 38.346 11.1892 38.4038 11.2418C38.4256 11.1216 38.3862 10.9638 38.4497 10.8311C38.2275 10.7056 38.1921 10.9697 38.0051 11.0064C37.8404 11.0387 37.7194 10.8859 37.6817 11.1667C37.8804 11.309 37.9228 11.6551 37.6735 11.7665C37.4434 11.8693 37.2957 11.6593 37.1709 12.0862C37.5369 12.2653 37.2732 12.6842 36.9292 12.5244C36.8091 12.4045 36.8612 12.2526 36.8989 12.1102L36.671 12.0639C36.5532 12.2843 36.8154 12.3226 36.811 12.5446C36.8046 12.8656 36.4527 12.8897 36.2152 12.7949C36.2428 13.2164 35.6537 13.0472 35.6236 13.0701C35.6106 13.08 35.5779 13.3029 35.4395 13.3207C35.8776 13.4103 35.5822 13.954 35.2756 13.713C35.106 13.5797 35.4018 13.3066 35.0265 13.3197L34.8923 13.5038C35.1151 13.6046 35.1218 13.8048 34.9378 13.9609C34.6454 14.0561 34.4879 13.8438 34.6185 13.5722L34.3757 13.57L34.2966 13.7274C34.7952 14.1732 33.7962 14.4811 33.9803 13.8004L33.7802 13.7654L33.6598 13.9142C34.154 14.3484 33.177 14.6488 33.387 13.9834C33.1442 13.9252 33.0851 13.9493 32.9312 14.1431L33.0939 14.2077C33.2449 14.7471 32.5265 14.6235 32.7942 14.1661L32.4888 14.0828C32.2425 14.2874 32.0568 14.3425 31.7913 14.12C31.7862 14.6522 31.0578 14.4465 31.2439 13.9833L31.0908 13.9467L30.974 14.0577C31.1302 14.2356 31.1601 14.5557 30.8638 14.563C30.5449 14.571 30.6683 14.1863 30.6507 14.1665C30.6395 14.154 30.3902 14.1389 30.3541 14.0289C30.1558 14.421 29.5879 14.1909 29.7846 13.7549C29.4417 13.6107 29.3565 14.0444 28.9901 13.7959C28.9228 13.7503 28.9439 13.6599 28.8727 13.6635L28.7818 13.915C28.4204 14.0365 28.2353 13.7761 28.4618 13.4809C28.2757 13.5154 28.1788 13.4173 28.0294 13.3425C27.8008 13.7846 27.2844 13.3788 27.6409 13.0241C27.3698 13.0753 27.3332 12.9199 27.1848 12.7952C27.1685 12.8848 27.1722 13.0242 27.0632 13.0622C26.5735 13.2329 26.6393 12.337 27.1848 12.7952C27.2058 12.6803 27.2566 12.3832 27.0697 12.3962C26.9892 12.4018 26.8774 12.689 26.5742 12.5157C26.2917 12.3542 26.4751 12.0384 26.4554 12.0192C26.4447 12.0088 26.237 11.995 26.2043 11.8823C25.7235 12.4982 25.3616 11.4132 26.0899 11.6078L26.1347 11.4056L26.0224 11.3335C25.7992 11.6547 25.3672 11.5542 25.4085 11.1321C25.4172 11.0428 25.4425 10.9602 25.5425 10.9673V10.9227C25.2062 10.9046 25.0882 10.6275 25.2239 10.3286L25.0686 10.2882C25.0307 10.2957 24.9607 10.4688 24.825 10.499C24.681 10.531 24.4255 10.4446 24.4454 10.6659C24.4479 10.6943 24.792 10.8305 24.561 11.1497C24.3884 11.3882 24.1761 11.1967 24.0902 11.3143C23.9194 11.5483 24.0728 11.5126 24.1409 11.6652C24.2859 11.9903 23.8997 12.2025 23.6278 12.0185C23.6287 12.1422 23.5729 12.2711 23.4624 12.3331C23.2456 12.4549 23.0355 12.2661 22.9432 12.5657C23.4031 12.7886 22.8808 13.3596 22.5332 12.9779C22.5441 13.3572 22.2445 13.4597 21.9403 13.2976C21.9098 13.6224 21.6147 13.6441 21.3477 13.5923L21.1191 13.8232C21.5746 13.9246 21.2811 14.4615 20.9661 14.1539C20.9056 14.0328 20.9713 13.9498 21.0277 13.8463L20.7306 13.7552C20.6547 13.9057 20.5017 14.07 20.3205 14.0681C20.2248 14.0671 20.1094 13.9755 20.0515 13.9804C20.0121 13.9838 19.7159 14.459 19.3864 14.0743C19.3703 14.444 18.8627 14.4544 18.7777 14.1116C18.7541 14.0164 18.8519 13.8629 18.6797 13.846L18.5659 13.9601C19.1939 14.4355 18.0061 14.8182 18.2462 14.0747C17.9457 13.9268 17.9038 14.2241 17.6649 14.2474C17.504 14.263 17.4285 14.1443 17.2893 14.1204C17.1279 14.5502 16.5428 14.2666 16.7411 13.8462L16.5205 13.8056C16.4909 13.9517 16.3671 13.93 16.2847 14.0286C16.3657 14.0404 16.5309 13.995 16.5841 14.0713C16.6131 14.1128 16.6213 14.3487 16.5971 14.3873C16.5037 14.5366 15.9667 14.409 16.2847 14.0286C16.0905 14.0002 15.9883 13.9798 15.829 13.8458C15.7688 14.2682 15.1594 14.0715 15.3055 13.6603L15.0302 13.4805C14.8256 13.9363 14.242 13.6155 14.5059 13.2067L14.1878 13.0692C14.0107 13.492 13.4129 13.1232 13.7307 12.7499C13.5552 12.7567 13.4519 12.6385 13.3428 12.5212L13.2296 12.7279C12.6441 12.8666 12.8336 12.0476 13.3198 12.384L13.3444 12.153L13.2052 12.0764C12.8916 12.445 12.3883 12.151 12.6319 11.7204C12.1453 11.5751 12.4879 11.154 12.1114 10.9681C11.6467 11.517 11.3039 10.4198 12.0429 10.6481C12.0527 10.5891 12.0576 10.3497 11.9522 10.3961C11.5839 10.8522 11.1582 10.156 11.5426 9.98673C11.6605 9.93481 11.9328 10.0306 11.8603 9.8491C11.7905 9.6741 11.6705 9.88756 11.6009 9.90789C11.0054 10.0818 11.0485 9.12257 11.6324 9.36917C11.6522 9.23813 11.6909 9.17834 11.5644 9.09565C10.9619 9.73793 10.6612 8.55822 11.45 8.77487C11.4599 8.66792 11.4795 8.49586 11.3349 8.51417C11.2898 8.51985 11.2531 8.63074 11.1089 8.64237C10.6192 8.68165 10.7798 7.95293 11.2219 8.18158C11.3071 7.95146 11.2227 7.9141 11.1304 7.72446C10.8821 8.18076 10.3823 7.83453 10.7905 7.53921L11.085 7.67876C11.0547 7.4948 11.1085 7.38225 11.1764 7.22292C10.7231 7.04436 11.0214 6.52551 11.4457 6.62413C11.5328 6.55839 11.3987 6.35043 11.314 6.30858C11.0407 7.10159 10.3781 5.9075 11.2675 6.12589L11.3585 5.82746C11.0151 5.47308 11.186 5.12255 11.6718 5.16037C11.7998 4.97255 11.5853 4.92924 11.55 4.76762C11.5185 4.62257 11.5837 4.53045 11.5809 4.39757L11.4272 4.29969C11.1982 4.71368 10.6984 4.54107 10.8107 4.07323C10.6534 3.99118 10.5729 4.06233 10.4927 4.20647C10.6805 4.20234 10.7515 4.32221 10.7211 4.50178C10.6744 4.7776 10.2312 4.74399 10.2182 4.45353C10.2097 4.26351 10.4845 4.24428 9.97538 4.15821C9.84004 4.49949 9.52847 4.28 9.42534 4.30362C9.35936 4.31873 9.15146 4.76038 8.8513 4.52632L8.80448 4.69161L8.98719 4.89215C8.95954 4.64995 9.18176 4.48622 9.37606 4.66286C9.66418 4.92484 9.25158 5.24434 8.9881 4.98345L8.89647 5.3479C9.23707 5.46695 9.23232 5.76016 8.98783 5.9879C9.49589 6.08862 9.34503 6.7397 8.8513 6.53632C8.79837 6.72083 8.80576 6.80847 8.98692 6.90215C9.34312 6.20428 9.79313 7.33738 9.03383 7.08456L8.95059 7.39068C8.94822 7.49745 9.27394 7.64085 9.08229 7.93342C9.0299 8.01346 8.91181 8.00879 8.89675 8.08937C9.14836 8.03443 9.3652 8.19669 9.28799 8.45657C9.18915 8.78907 8.83414 8.48358 8.80229 8.7931L8.98664 8.91205C8.9944 8.79218 9.11487 8.71966 9.22822 8.73696C9.62019 8.88412 9.40435 9.34353 9.03355 9.18603L8.95424 9.48373C9.19344 9.68015 9.17811 9.9153 8.98774 10.1451C9.47974 10.209 9.27348 10.9062 8.80558 10.6938C8.78933 10.8133 8.82027 10.8991 8.91993 10.9674C9.00371 10.9978 9.0017 10.8 9.19372 10.8048C9.60632 10.8152 9.4342 11.4715 9.03364 11.2419L8.93928 11.5825C9.18204 11.7197 9.1552 11.9956 8.98765 12.2007C9.48357 12.3072 9.29128 12.9163 8.80494 12.7953C8.822 13.2178 8.94357 12.9326 9.06531 12.8953C9.55138 12.7464 9.50374 13.5401 8.98774 13.3431C9.04633 13.4933 8.85002 13.6455 8.84947 13.731C8.8492 13.7706 8.95589 13.7546 8.98162 13.8281C9.10136 14.1694 8.63638 14.3662 8.54073 14.0419C8.47119 13.8059 8.6299 13.8352 8.27936 13.7129C8.14255 13.9509 7.83691 14.0279 7.64198 13.801C7.6041 13.8021 7.51065 14.1466 7.1894 14.0287C6.87007 13.9115 7.03033 13.5762 7.00341 13.5715C6.89353 13.5521 6.81623 13.6021 6.75298 13.6861C6.86788 13.7524 6.92848 13.763 6.93916 13.914C6.97448 14.4152 6.23698 14.2411 6.47938 13.7548C6.2055 13.6637 6.19199 13.7931 5.97789 13.8921L6.24474 14.0612C6.35928 14.4861 5.56976 14.3981 5.93189 13.9376L5.5432 13.8043C4.95593 14.5612 4.64582 13.1352 5.4754 13.526C5.45349 13.0434 5.20106 13.3773 5.03962 13.3886C4.60283 13.4194 4.66845 12.6581 5.17843 12.7954C5.26157 12.7867 5.1495 12.5862 5.08817 12.5674C4.80607 12.9839 4.40005 12.4106 4.7003 12.2693C4.8831 12.1833 4.98586 12.3237 5.10998 11.9952C4.92399 11.893 4.80708 11.6597 4.95182 11.4703C5.00795 11.3967 5.10213 11.4072 5.11071 11.3337C4.81876 11.3547 4.62766 10.9495 4.86375 10.7883C5.02839 10.6758 5.48297 10.8191 5.08826 10.466C4.68433 11.0219 4.28578 10.0277 5.01945 10.1911L5.10377 9.93106C4.8977 9.68537 4.84358 9.4981 5.06544 9.23227C4.66717 9.25865 4.66854 8.69612 5.00676 8.6464C5.10012 8.63266 5.22716 8.74823 5.24824 8.57049L5.15616 8.36408C5.08315 8.37324 5.0931 8.46628 5.01963 8.52314C4.59945 8.84804 4.38736 7.88471 5.06517 8.13561L5.15963 7.84112C4.86631 7.70321 4.86266 7.40725 5.06553 7.17649C4.7369 7.20277 4.68834 6.66882 4.96104 6.59163C5.12549 6.54502 5.27498 6.6549 5.33923 6.40043L5.11171 6.21692L5.04756 6.44951C4.42669 6.64144 4.49423 5.83708 5.11098 6.07956C5.04217 5.96674 5.21256 5.77463 5.20252 5.76062C5.19412 5.74889 5.05422 5.73479 4.98604 5.58645C4.89533 5.38884 5.03231 5.27089 5.0147 5.19315C5.00101 5.1328 4.811 5.08619 4.76583 4.93922C4.69583 4.71148 4.91787 4.59619 4.58668 4.43576C4.36117 4.90186 3.76732 4.61341 4.01692 4.16169L3.81085 4.07012C3.6756 4.36058 3.39652 4.41204 3.15075 4.20665C3.11707 4.56524 2.62243 4.57531 2.5297 4.25353C2.48134 4.08559 2.66569 3.91197 2.35868 3.93029L2.23803 4.11434C2.67892 4.22212 2.41736 4.83364 2.03835 4.61204C1.85609 4.50545 1.8884 4.30564 2.00996 4.16141L1.71327 4.02405C1.48055 4.57046 0.82245 4.18843 1.1436 3.65887C0.785671 3.61143 0.729362 3.26896 0.961078 3.01924C0.440059 2.93005 0.68948 2.18182 1.18841 2.42522C1.26736 2.24647 1.22209 2.15087 1.0528 2.05948C1.03865 2.53126 0.411767 2.46679 0.505677 1.99245C0.569926 1.66792 0.980882 1.89355 1.00479 1.87615C1.0402 1.77414 1.05982 1.59677 1.18878 1.6019V1.55758C0.829934 1.53523 0.822176 0.996703 1.17117 0.963188C1.46485 0.934892 1.61069 1.315 1.37167 1.51088L1.64445 1.60281L1.72431 1.3965C1.06156 0.787187 2.34417 0.412202 2.05569 1.32773L2.32884 1.42013L2.46527 1.16877C2.27508 1.03992 2.17186 1.08635 2.19513 0.807241C2.23091 0.378138 2.96037 0.660727 2.60299 1.09972L2.96731 1.23744C2.97133 0.939196 3.379 0.857606 3.53779 1.09945C3.70289 0.539761 4.38115 0.796253 4.10883 1.26052L4.38097 1.42004C4.42825 1.09148 4.77441 1.09359 5.01936 1.23735C5.07055 0.890754 5.43597 0.89634 5.65801 1.10027C5.72071 0.543882 6.44744 0.810355 6.2055 1.32837C6.2703 1.31391 6.35846 1.37856 6.40792 1.36738C6.4217 1.36427 6.60751 1.18342 6.57073 1.14651C6.37023 1.13562 6.27312 1.01923 6.30634 0.813194C6.3705 0.414949 7.1644 0.685634 6.70744 1.14551L7.07131 1.23735C7.15819 0.97207 7.3681 0.903391 7.60894 1.0402C7.67876 1.07985 7.64015 1.15384 7.71033 1.14578C7.68104 0.876927 7.99069 0.677851 8.21209 0.849731C8.42538 1.01529 8.27196 1.29202 8.30454 1.32755C8.37682 1.40658 8.60188 1.31638 8.62287 1.1923C8.36505 1.18836 8.24358 0.83865 8.468 0.694242C8.78084 0.492877 9.05281 0.883978 8.8054 1.1456L9.10273 1.23186C9.27239 0.946155 9.49361 0.865572 9.76256 1.10027C9.88595 0.589668 10.589 0.826654 10.3557 1.32847L10.5572 1.37608L10.6751 1.19239C10.3254 1.16996 10.3424 0.634446 10.6981 0.642138C10.9896 0.648456 11.0712 0.93187 10.9033 1.14569C11.2713 1.27013 11.1381 1.17078 11.3638 1.03507C11.5268 0.936998 11.6432 1.00879 11.7937 1.09413C11.8611 1.08818 11.8942 0.760265 12.247 0.827112C12.5309 0.880865 12.4059 1.16474 12.4759 1.28378C12.5484 1.40713 12.7631 1.36473 12.8185 1.23809L12.542 1.12692C12.2723 0.479141 13.2586 0.60496 13.0139 1.09075C12.967 1.18397 12.8736 1.15924 12.8646 1.23717C13.2921 1.18232 13.4013 1.46005 13.2745 1.8311L13.4761 1.87863C13.605 1.59485 13.8474 1.58505 14.0953 1.74035C14.1197 1.4357 14.4547 1.33057 14.6881 1.51198C14.6725 1.06337 15.274 1.26025 15.3199 1.23195C15.3435 1.21748 15.3805 1.03141 15.5094 1.05421C15.4408 0.94762 15.3034 0.987454 15.254 0.827479C15.1322 0.432989 15.8439 0.455699 15.6868 0.889564C15.6579 0.969598 15.5473 0.931321 15.5555 1.0087L15.8934 1.04734L16.1478 0.82583C16.153 0.751932 16.0496 0.780045 15.9865 0.737372C15.6559 0.513755 16.1112 0.0830943 16.3242 0.493518L16.1938 0.780319C16.3644 0.747537 16.4677 0.841398 16.6036 0.918043C16.5882 0.747171 16.779 0.602121 16.9394 0.61137C17.0619 0.618421 17.1272 0.730871 17.2422 0.735175C17.2395 0.491869 17.4901 0.390133 17.6982 0.484727C17.7984 0.530238 17.7935 0.664665 17.8807 0.689206C17.8753 0.100401 18.6181 0.228418 18.3826 0.780411L18.6339 0.871982C18.8114 0.518791 19.0389 0.592964 19.34 0.735266C19.3573 0.39462 19.8847 0.428319 19.9248 0.768507C19.9456 0.944965 19.7794 0.939287 20.0938 1.04258C20.3283 0.773085 20.5379 0.766767 20.7995 1.00916C20.782 0.689664 21.2422 0.63527 21.3295 0.916303C21.3952 1.12783 21.1795 1.16565 21.5529 1.32801C21.6732 1.02344 22.153 1.07207 22.1625 1.3954C22.1701 1.65272 22.0442 1.54018 22.3818 1.73449C22.4669 1.74869 22.5258 1.59091 22.6112 1.56527C22.8597 1.49082 23.1244 1.83092 22.8989 2.03732C22.9725 2.12614 23.0875 2.09272 23.1764 2.16918C23.2489 2.23154 23.2337 2.31277 23.3083 2.37961C23.3202 2.295 23.3006 2.157 23.3844 2.10215C23.6315 1.94016 23.8244 2.22715 23.6761 2.45095C23.5411 2.50553 23.4127 2.4732 23.3083 2.37961L23.3082 2.3798ZM58.562 4.38988C58.4318 4.37029 58.3221 4.4017 58.1981 4.29849L58.0611 4.50407C58.5273 4.65965 58.3393 5.23371 57.8783 5.02905C57.8546 5.18729 57.7824 5.2903 57.947 5.39442C58.0315 5.42684 58.0568 5.19141 58.2272 5.17612C58.5818 5.14425 58.5758 5.88076 58.0611 5.62298C58.0411 5.69148 57.9719 5.8738 58.0838 5.89715C58.1705 5.91519 58.1745 5.79715 58.2293 5.75851C58.4743 5.58544 58.7564 5.82865 58.789 5.80567C58.9492 5.34378 59.5252 5.58141 59.3375 6.03414C59.4398 6.05657 59.613 6.00264 59.6118 5.8748C59.0373 5.45696 60.1001 5.098 59.8846 5.80558L60.1815 5.8847C60.3883 5.66621 60.614 5.65384 60.8418 5.85173C60.9084 5.35651 61.5948 5.53755 61.4006 6.01381L61.5044 6.08185C61.787 5.95035 61.5682 5.8792 61.535 5.77389C61.4196 5.40871 61.8804 5.31219 61.9955 5.5913C62.0474 5.71721 61.9362 5.93286 62.2721 5.89935C62.2978 5.89678 62.4096 5.62939 62.7257 5.72426C63.0351 5.81712 62.8889 6.19366 62.9501 6.29924C62.9633 6.32204 63.1649 6.41379 63.1913 6.49117L63.2661 6.31526C63.8051 6.16261 63.7269 6.88557 63.2599 6.67386L63.1234 7.01698C63.4122 7.18547 63.3908 7.45203 63.1683 7.67858C63.6741 7.70532 63.4981 8.38634 63.0358 8.22911C62.8644 8.5204 63.01 8.47287 63.0891 8.65052C63.2505 9.01323 62.7658 9.32119 62.5069 9.00472C62.3447 9.47457 61.6916 9.31386 61.8915 8.8213C61.7422 8.75912 61.717 8.82881 61.6185 8.9354C62.1213 9.2026 61.486 9.70698 61.322 9.32293C61.2817 9.22879 61.3172 9.09327 61.2924 9.05563C61.2853 9.04483 61.0672 8.97139 61.0465 8.97358C61.0026 8.97816 60.9398 9.07852 60.8765 9.10664C60.68 9.19381 60.5418 9.12532 60.3868 9.00399C60.3038 9.49115 59.6747 9.31936 59.7894 8.82597C59.6769 8.76434 59.5918 8.80015 59.5646 8.93521C59.8343 9.10774 59.718 9.46898 59.3627 9.41551C59.0616 9.37018 59.3549 8.90078 59.0011 8.9691C58.888 8.99098 58.6395 9.33364 58.4022 9.05133C58.2623 9.29619 58.1042 9.35699 57.8327 9.27824L57.9472 9.50598C58.0324 9.53702 58.0307 9.3547 58.185 9.33117C58.4092 9.29701 58.4986 9.53656 58.384 9.7165C58.2775 9.85075 57.973 9.65826 57.9798 10.0421C57.9815 10.1341 58.103 10.1876 58.1329 10.2809C58.1864 10.4478 58.0196 10.7959 58.3804 10.4884C58.4026 10.3836 58.263 10.4185 58.2193 10.3298C58.0172 9.91961 58.8544 9.78939 58.6076 10.4198C58.7 10.3726 58.8821 10.5082 58.9052 10.5062C58.9417 10.503 58.9931 10.3226 59.143 10.291C59.4385 10.2286 59.6495 10.513 59.5201 10.7852L59.747 10.7171C59.2309 10.1187 60.328 9.86805 60.1124 10.6024L60.3326 10.6425L60.5232 10.4205C60.2253 10.448 60.2056 10.0047 60.5005 10.0045C60.7418 10.0044 60.7635 10.269 60.6145 10.4195L60.9958 10.5151C61.2796 10.1129 61.6862 10.369 61.6411 10.8315C61.9517 10.7056 61.705 10.6373 61.6708 10.5243C61.5748 10.2065 61.9959 10.0122 62.1684 10.2566C62.3015 10.4451 62.0482 10.8194 62.5752 10.5106C62.5139 10.4066 62.37 10.4819 62.3465 10.3031C62.2799 9.79718 63.0763 10.0428 62.6667 10.4651C62.7797 10.4059 63.0005 10.5663 63.05 10.5541C63.1193 10.5372 63.2232 10.1886 63.569 10.3614C63.6624 10.408 63.6372 10.5021 63.7152 10.511C63.6729 10.2532 63.9554 10.1034 64.1728 10.2136C64.2522 10.2538 64.2285 10.3725 64.3081 10.374C64.2988 10.2336 64.3127 10.1061 64.4215 10.0081C64.602 9.84516 64.7416 9.98481 64.8099 9.94314C64.8218 9.93582 64.9383 9.76842 64.9383 9.75707C64.9381 9.71037 64.7534 9.60717 64.7275 9.51935C64.6316 9.19345 64.9376 9.01094 65.2178 9.13997C65.382 8.86947 65.2078 8.90738 65.1497 8.73229C65.0431 8.41078 65.3473 8.18048 65.6307 8.31885C65.7104 8.11043 65.6144 8.08049 65.5393 7.90769C65.4246 7.98754 65.5234 8.15063 65.3242 8.17334C64.8313 8.22957 65.0929 7.4361 65.4938 7.86163L65.631 7.45103C65.4026 7.46146 65.2948 7.19298 65.3902 7.00361C65.4371 6.91039 65.5306 6.93502 65.5396 6.85709C65.2798 6.87184 65.078 6.63155 65.2256 6.38165C65.2833 6.28385 65.3792 6.29924 65.4028 6.21756C65.1601 6.27131 64.8992 6.09339 64.947 5.83168C64.9596 5.763 65.0471 5.69304 65.0374 5.64936C65.025 5.5935 64.8104 5.53077 64.7737 5.40816C64.7346 5.27758 64.8271 5.00524 64.8087 4.98565C64.803 4.9796 64.7023 4.98015 64.649 4.94087C64.4772 4.81395 64.4762 4.60553 64.5822 4.43631L64.3341 4.34098C64.1771 4.62943 63.7994 4.60242 63.7233 4.26324C63.7018 4.16773 63.8113 4.03742 63.6475 4.02378L63.5429 4.18495C63.914 4.45957 63.4345 4.92301 63.2187 4.59033C63.1188 4.43631 63.2219 4.3126 63.2132 4.30005C63.2055 4.28906 62.9793 4.20711 62.9616 4.20747C62.8524 4.20949 62.7722 4.43539 62.5101 4.38924C62.4319 4.37551 62.3663 4.2832 62.2828 4.29456C62.1057 4.71734 61.536 4.53447 61.6975 4.09072L61.5945 4.02268L61.4359 4.13843C61.7314 4.26544 61.6529 4.69253 61.326 4.6635C60.9348 4.62879 61.3044 4.1865 60.9074 4.2104C60.7628 4.2191 60.5127 4.6026 60.2042 4.25262C60.1012 4.70599 59.4892 4.53759 59.6123 4.05537L59.4961 3.97818C59.308 4.19548 59.464 4.15729 59.5318 4.31113C59.7247 4.74829 58.8508 4.82888 59.0639 4.2528C58.8886 4.18366 58.68 4.24099 58.5618 4.38952C58.6598 4.40426 58.7975 4.35646 58.8601 4.481C58.9791 4.71771 58.656 4.9308 58.493 4.70928C58.43 4.58227 58.4833 4.48814 58.5618 4.38952L58.562 4.38988ZM16.1936 5.07511C16.108 5.05469 15.9731 5.10139 15.8763 5.03006C15.7002 5.30148 15.9222 5.28866 15.9586 5.47427C16.0092 5.73232 15.6944 5.94742 15.4655 5.80631C15.2708 6.12013 15.4977 6.0911 15.5462 6.24942C15.5945 6.40729 15.4919 6.62001 15.3399 6.66552C15.1987 6.70783 15.0983 6.58595 15.0079 6.69757L15.1674 6.9015C15.6733 6.41892 15.906 7.33738 15.2362 7.17649C15.0953 7.52099 15.1991 7.43408 15.2926 7.6447C15.3475 7.76832 15.3655 8.03919 15.1906 8.04514V8.08955C15.48 8.13149 15.6365 8.43414 15.4191 8.66123C15.4199 8.70803 15.6616 8.75225 15.7136 8.86736C15.7859 9.02724 15.6791 9.24152 15.6961 9.2711C15.7022 9.28172 15.7937 9.30461 15.8298 9.34353C15.9865 9.51248 16.0215 9.58949 15.985 9.82611C16.2331 10.0429 16.2414 9.66586 16.5923 9.81531C16.8474 9.924 16.6853 10.1744 16.7482 10.2755L16.9468 10.3617C17.1188 10.1366 17.4556 10.0947 17.5664 10.3961C17.6134 10.5244 17.5241 10.6101 17.6301 10.6931L17.789 10.5341C17.3102 10.0609 18.2806 9.82895 18.0635 10.4651L18.3605 10.5447C18.5664 10.29 18.7541 10.3606 19.0207 10.4656C19.0327 10.1535 19.3989 10.1259 19.6137 10.2828C19.6116 9.96896 19.8982 9.89772 20.1565 10.0044L20.298 9.73555C20.0702 9.73253 20.041 9.34637 20.2393 9.28676C20.5154 9.20361 20.7126 9.46093 20.5264 9.68857C21.046 9.79077 20.6763 9.52722 20.6591 9.34729C20.6268 9.01113 20.8614 8.88787 21.1611 8.95664C21.2771 8.75427 21.0402 8.69438 21.031 8.47443C21.0241 8.31244 21.1375 8.23167 21.1648 8.09074C20.7328 8.00778 20.9446 7.45716 21.3496 7.56448L21.4414 7.38482L21.2554 7.17686C21.1765 7.17045 21.2159 7.28189 21.169 7.34032C21.03 7.51357 20.7103 7.3557 20.8191 7.12769C20.8985 6.93529 21.0865 7.02366 21.2099 7.13089C21.2037 6.98932 21.1978 6.85096 21.3012 6.74208C20.9539 6.68201 21.136 6.16097 21.1151 6.13249C21.1046 6.11829 21.0193 6.10117 20.9805 6.06079C20.8139 5.88772 20.8235 5.76117 20.887 5.53865L20.6859 5.3957C20.4254 5.81739 19.9133 5.45349 20.2983 5.07557C20.0708 5.0752 19.9025 4.99883 19.8502 4.76578C19.8343 4.69491 19.8848 4.60361 19.8663 4.57C19.7473 4.35435 19.5084 4.66139 19.3635 4.66048C19.1116 4.65883 18.959 4.36012 19.0705 4.14493L18.9523 4.06984C18.7394 4.3082 18.9263 4.28897 18.9682 4.42239C19.1015 4.84582 18.3143 4.85488 18.5656 4.29895L18.2684 4.21947C18.0511 4.45572 17.8746 4.4864 17.6083 4.2984C17.5701 4.62284 17.2447 4.71185 17.0153 4.48145C16.9836 4.84692 16.7196 4.9123 16.4225 4.75544C16.441 4.92155 16.29 4.97933 16.1939 5.07529C16.8584 5.23353 16.1323 5.77728 16.0561 5.37171C16.0217 5.18848 16.091 5.17822 16.1939 5.07529L16.1936 5.07511ZM31.5634 4.25326L31.3418 4.21141L31.244 4.36736C31.2377 4.38301 31.4225 4.42633 31.4224 4.59555C31.321 5.02575 30.8062 4.833 30.9703 4.43585L30.7036 4.39455C30.5132 4.63859 30.6996 4.6157 30.7359 4.74234C30.8577 5.16833 30.0637 5.08354 30.3772 4.61872C30.1941 4.59006 30.127 4.56625 30.0136 4.73254C30.5264 5.27373 29.4956 5.53453 29.6935 4.8471L29.4679 4.8026C29.3723 4.99728 29.4876 4.90726 29.5517 5.00955C29.7485 5.32281 29.4418 5.67133 29.1015 5.48608C28.8767 5.85869 29.0801 5.74029 29.1372 5.92993C29.2289 6.23477 28.9645 6.42423 28.6908 6.3084L28.6057 6.52304C28.5793 6.60628 28.7352 6.58751 28.7721 6.75298C28.8516 7.11038 28.5878 7.21898 28.2795 7.17668L28.3488 7.35936C28.9579 6.91588 29.2189 7.82729 28.4615 7.79341L28.5992 8.04413C29.0673 7.50395 29.4016 8.48477 28.69 8.31866C28.6579 8.39174 28.719 8.66664 28.8263 8.61664C29.3395 8.17764 29.5281 9.11241 28.8724 8.9582C28.856 9.05563 28.8549 9.23255 28.9869 9.23246C29.0043 9.23246 29.0431 9.04712 29.26 9.0473C29.5671 9.04748 29.6329 9.38291 29.4651 9.59709C29.5704 9.59261 29.7345 9.66376 29.7873 9.75451C29.8794 9.91274 29.7657 10.0778 29.8993 10.1913C30.0283 10.2115 30.0588 10.0762 30.1733 10.0544C30.3504 10.0207 30.5386 10.0813 30.6094 10.2577C30.6458 10.3484 30.5955 10.6068 30.6736 10.6016C30.6923 10.6004 30.7892 10.5003 30.7817 10.4508C30.7753 10.409 30.6914 10.347 30.6705 10.2851C30.5085 9.80542 31.3249 9.81357 31.1063 10.328C31.2114 10.3061 31.3213 10.4203 31.4038 10.4182C31.5081 10.4156 31.5873 10.2446 31.8116 10.2821C31.9257 10.3013 31.9502 10.4187 32.0413 10.4202C32.0454 10.202 32.26 10.024 32.4742 10.1229C32.5738 10.1689 32.5699 10.3034 32.657 10.3281C32.5555 9.92391 33.1351 9.7415 33.2408 10.133C33.2766 10.2654 33.1825 10.3658 33.3645 10.4187C33.5147 10.2933 33.27 10.1644 33.2707 9.98572C33.2717 9.69801 33.6213 9.58528 33.8427 9.73454L33.9798 9.41551C33.2903 8.99501 34.5342 8.6605 34.1625 9.41422L34.4282 9.40708C34.5475 9.22696 34.3741 9.30544 34.3192 9.14372C34.2853 9.04354 34.2865 8.91846 34.3197 8.818C34.415 8.52809 34.7704 8.7018 34.823 8.64072L34.9848 8.34165C34.7165 8.2509 34.8899 7.85156 35.1064 7.94029C35.3383 8.03525 35.2323 8.29467 35.257 8.3183C35.264 8.32498 35.3899 8.31345 35.4495 8.33002C35.4928 8.34211 35.5316 8.39696 35.5633 8.40254C35.6386 8.41582 35.9416 8.01593 36.2143 8.40959C36.233 7.85623 37.017 8.07142 36.7165 8.54622L36.9175 8.59365L37.0373 8.38771C37.0389 8.34806 36.9305 8.36399 36.9048 8.29037C36.7444 7.83187 37.5516 7.8207 37.309 8.31784C37.439 8.32123 37.5735 8.42828 37.6739 8.29522C37.3598 8.14266 37.3447 7.87189 37.5829 7.63353C37.3255 7.67611 37.1758 7.39288 37.2858 7.17512C37.326 7.09554 37.4445 7.11935 37.446 7.03969C37.1194 7.05406 36.8924 6.76946 37.1269 6.49154C36.7192 6.28669 36.8476 6.52304 36.6851 6.57395C36.3749 6.67129 36.1152 6.43522 36.2603 6.12589C36.0773 6.08743 36.0821 6.16719 35.987 6.28578C36.2701 6.41718 36.1351 6.85242 35.8026 6.74657C35.5283 6.6593 35.6814 6.37396 35.6679 6.35482C35.6602 6.34402 35.4287 6.27607 35.4156 6.27745C35.3582 6.2834 35.3077 6.41059 35.225 6.43614C34.8824 6.5419 34.5878 6.2225 34.7552 5.8988C34.4719 5.73049 34.5059 5.88653 34.3584 5.93414C33.8547 6.09687 33.8581 5.21989 34.3903 5.44057C34.4747 4.98665 34.3771 5.23729 34.2414 5.31704C34.0649 5.42061 33.7934 5.39085 33.7268 5.1687C33.6932 5.05652 33.7443 4.75012 33.5458 4.76652C33.4705 4.77274 33.3974 5.05121 33.0788 4.90369C32.8438 4.7949 33.0259 4.4103 32.7635 4.39785C32.6633 4.39309 32.4471 4.66075 32.182 4.47733C32.1174 4.43265 32.1362 4.34016 32.0651 4.3441C32.0999 4.87805 31.3358 4.75296 31.5633 4.25298L31.5634 4.25326ZM68.641 10.0093L68.3743 10.015C68.2921 10.144 68.3415 10.2752 68.5037 10.283C68.4858 10.159 68.5859 10.1005 68.641 10.0093ZM75.6644 10.4204L75.3454 10.3741L75.3212 10.5595L75.46 10.6468L75.6644 10.4204ZM76.4851 12.933C76.2248 12.9108 76.1728 12.8364 76.0301 13.0935L76.0292 13.1604C76.2066 13.1344 76.1996 13.2749 76.3024 13.3434C76.3026 13.2554 76.2953 13.1617 76.3354 13.0793C76.381 12.9858 76.4766 13.0112 76.485 12.9329L76.4851 12.933ZM75.7556 13.207L75.5116 13.1573L75.3909 13.3429L75.664 13.4805C75.6467 13.3635 75.6926 13.2956 75.7556 13.2069L75.7556 13.207Z" fill="#5E604C"/>
<path d="M73.1889 13.3988C73.6715 13.2552 73.6717 14.0261 73.1889 13.8826C72.9638 13.8157 72.9623 13.4662 73.1889 13.3988Z" fill="#5E604C"/>
<path d="M4.6899 0.654655C4.92773 0.893107 4.55584 1.30664 4.31372 1.05427C4.06211 0.791829 4.46996 0.434242 4.6899 0.654655Z" fill="#5E604C"/>
<path d="M74.2841 13.857C74.5185 14.0917 74.1091 14.5087 73.8816 14.192C73.6919 13.928 74.0947 13.6671 74.2841 13.857Z" fill="#5E604C"/>
<path d="M76.0573 13.8537C76.5315 13.6893 76.5502 14.373 76.1577 14.3252C75.8889 14.2925 75.8796 13.9152 76.0573 13.8537Z" fill="#5E604C"/>
<path d="M0.378569 3.35052C0.589933 3.13734 0.97269 3.4941 0.731756 3.72678C0.481969 3.96798 0.175691 3.55509 0.378569 3.35052Z" fill="#5E604C"/>
<path d="M0.672345 3.94135C1.12839 3.79969 1.12875 4.52283 0.672345 4.38126C0.474395 4.3199 0.473209 4.00316 0.672345 3.94135Z" fill="#5E604C"/>
<path d="M76.973 12.1635C77.3186 12.1128 77.368 12.6524 77.0083 12.6548C76.7272 12.6566 76.6976 12.2039 76.973 12.1635Z" fill="#5E604C"/>
<path d="M76.9775 13.6743C77.201 13.8999 76.8268 14.2939 76.6202 14.009C76.4305 13.7474 76.7889 13.484 76.9775 13.6743Z" fill="#5E604C"/>
<path d="M71.727 11.1131C72.1639 10.9614 72.1838 11.6738 71.7751 11.5545C71.5759 11.4963 71.5519 11.1739 71.727 11.1131Z" fill="#5E604C"/>
<path d="M77.3847 12.8526C77.6827 13.1486 77.0065 13.4922 76.981 13.0469C76.9663 12.7888 77.2433 12.7122 77.3847 12.8526Z" fill="#5E604C"/>
<path d="M25.0755 10.9571C24.8415 11.1924 24.5057 10.7354 24.7668 10.5797C25.0339 10.4204 25.2633 10.7682 25.0755 10.9571Z" fill="#5E604C"/>
<path d="M0.720037 1.29459C0.907856 1.4835 0.67833 1.83129 0.411295 1.67196C0.150192 1.51628 0.486039 1.05925 0.720037 1.29459Z" fill="#5E604C"/>
<path d="M72.6843 1.19904C73.0021 1.10179 73.115 1.55928 72.8483 1.64096C72.5306 1.73821 72.4177 1.28072 72.6843 1.19904Z" fill="#5E604C"/>
<path d="M1.38394 4.40081C1.58363 4.17133 1.99924 4.53908 1.71888 4.75886C1.4815 4.94493 1.22807 4.58002 1.38394 4.40081Z" fill="#5E604C"/>
<path d="M76.9735 11.6189C77.0936 11.7391 77.0343 12.0078 76.822 12.016C76.3363 12.0348 76.6618 11.3069 76.9735 11.6189Z" fill="#5E604C"/>
<path d="M5.00526 0.467969C5.36383 0.343981 5.47462 0.813834 5.1584 0.899179C4.89802 0.969414 4.78157 0.545347 5.00526 0.467969Z" fill="#5E604C"/>
<path d="M9.43353 0.861131C9.30877 0.98402 9.0411 0.937959 9.0317 0.713609C9.01107 0.21949 9.71051 0.588248 9.43353 0.861131Z" fill="#5E604C"/>
<path d="M75.4692 14.0346C75.7817 13.9462 75.8641 14.409 75.6325 14.4776C75.305 14.5745 75.21 14.108 75.4692 14.0346Z" fill="#5E604C"/>
<path d="M52.6115 13.225C52.8836 13.2381 52.8836 13.6774 52.6115 13.6905C52.2909 13.7059 52.2909 13.2096 52.6115 13.225Z" fill="#5E604C"/>
<path d="M71.8898 12.1443C71.7376 11.9922 71.8833 11.6481 72.1507 11.7665C72.4921 11.9177 72.122 12.3759 71.8898 12.1443Z" fill="#5E604C"/>
<path d="M11.4404 5.06429C11.2306 5.25183 10.8672 4.84589 11.1322 4.68619C11.4097 4.51889 11.6258 4.89855 11.4404 5.06429Z" fill="#5E604C"/>
<path d="M13.4889 1.15541C13.9096 1.0284 13.9582 1.62838 13.5275 1.55778C13.3136 1.5227 13.3073 1.21017 13.4889 1.15541Z" fill="#5E604C"/>
<path d="M2.88588 0.815153C2.73365 0.663144 2.8794 0.319019 3.1468 0.43742C3.48821 0.588605 3.11805 1.04683 2.88588 0.815153Z" fill="#5E604C"/>
<path d="M11.5287 0.861037C11.3659 1.02165 11.0156 0.872941 11.1519 0.59786C11.3091 0.280474 11.7464 0.646302 11.5287 0.861037Z" fill="#5E604C"/>
<path d="M53.807 10.5457C53.5701 10.7837 53.2398 10.3181 53.5446 10.167C53.7887 10.046 53.981 10.3708 53.807 10.5457Z" fill="#5E604C"/>
<path d="M50.3415 4.30667C50.648 4.26272 50.6703 4.72195 50.4192 4.75684C50.1075 4.80015 50.0716 4.34541 50.3415 4.30667Z" fill="#5E604C"/>
<path d="M3.54743 4.39895C3.95693 4.27469 3.9969 4.87009 3.58594 4.80086C3.37184 4.76478 3.36618 4.45399 3.54743 4.39895Z" fill="#5E604C"/>
<path d="M53.2126 10.9756C53.5191 10.9317 53.5414 11.3909 53.2903 11.4258C52.9786 11.4691 52.9427 11.0144 53.2126 10.9756Z" fill="#5E604C"/>
<path d="M63.1084 13.9454C63.4544 13.8954 63.4392 14.4932 63.0733 14.375C62.8585 14.3056 62.8852 13.9775 63.1084 13.9454Z" fill="#5E604C"/>
<path d="M67.5571 13.2181C67.7611 13.0105 68.0807 13.3848 67.8465 13.5767C67.6364 13.7491 67.357 13.4216 67.5571 13.2181Z" fill="#5E604C"/>
<path d="M65.0494 14.0408C65.22 13.87 65.587 14.1051 65.3779 14.3472C65.1736 14.5837 64.8535 14.237 65.0494 14.0408Z" fill="#5E604C"/>
<path d="M35.359 1.27175C35.1885 1.10088 35.4233 0.733217 35.6649 0.942641C35.9011 1.1473 35.555 1.46799 35.359 1.27175Z" fill="#5E604C"/>
<path d="M76.7918 11.3224C76.5696 11.5416 76.2475 11.204 76.4603 11.0129C76.6835 10.8124 76.9756 11.1411 76.7918 11.3224Z" fill="#5E604C"/>
<path d="M29.2493 13.9493C29.4417 13.7566 29.7921 14.068 29.5808 14.2585C29.3702 14.4486 29.0428 14.1561 29.2493 13.9493Z" fill="#5E604C"/>
<path d="M7.34045 0.865903C7.09523 1.01965 6.81724 0.686332 7.04622 0.503006C7.33051 0.275359 7.50035 0.765633 7.34045 0.865903Z" fill="#5E604C"/>
<path d="M72.4137 12.4418C72.686 12.7123 72.0403 13.0258 72.0198 12.5899C72.0101 12.3841 72.2968 12.3257 72.4137 12.4418Z" fill="#5E604C"/>
<path d="M58.847 14.2918C58.6632 14.1096 58.9559 13.7825 59.1784 13.9826C59.389 14.1721 59.0417 14.4845 58.847 14.2918Z" fill="#5E604C"/>
<path d="M14.9947 0.792284C15.1767 0.972496 14.891 1.30133 14.6631 1.10125C14.4758 0.936875 14.7875 0.58698 14.9947 0.792284Z" fill="#5E604C"/>
<path d="M61.0553 13.9482C61.3541 13.924 61.364 14.3824 61.0947 14.3935C60.828 14.4045 60.8012 13.9687 61.0553 13.9482Z" fill="#5E604C"/>
<path d="M33.1915 0.286113C33.554 0.178791 33.5915 0.74104 33.2303 0.690675C33.0187 0.661189 33.0088 0.34014 33.1915 0.286113Z" fill="#5E604C"/>
<path d="M56.8595 13.9453C57.2219 13.838 57.2594 14.4002 56.8983 14.3499C56.6867 14.3204 56.6768 13.9993 56.8595 13.9453Z" fill="#5E604C"/>
<path d="M20.1486 0.37791C20.511 0.270588 20.5485 0.832837 20.1874 0.782472C19.9757 0.752986 19.9659 0.431937 20.1486 0.37791Z" fill="#5E604C"/>
<path d="M77.3639 1.066C77.5509 0.876535 77.8835 1.19475 77.6534 1.37853C77.4339 1.55389 77.1804 1.25189 77.3639 1.066Z" fill="#5E604C"/>
<path d="M18.0044 14.6114C17.8174 14.8009 17.4849 14.4827 17.7149 14.2989C17.9344 14.1236 18.188 14.4256 18.0044 14.6114Z" fill="#5E604C"/>
<path d="M68.0828 12.3453C68.2414 12.3237 68.3918 12.5333 68.2803 12.6848C68.044 13.006 67.6888 12.399 68.0828 12.3453Z" fill="#5E604C"/>
<path d="M23.2741 12.7837C23.1125 12.6219 23.3341 12.2884 23.5634 12.4712C23.7924 12.6537 23.4636 12.9734 23.2741 12.7837Z" fill="#5E604C"/>
<path d="M72.3634 13.0298C72.706 12.9148 72.7594 13.4537 72.4539 13.4247C72.2283 13.4034 72.1779 13.0921 72.3634 13.0298Z" fill="#5E604C"/>
<path d="M55.8835 0.47257C56.0287 0.343821 56.3607 0.558281 56.1953 0.76276C56.009 0.992879 55.6728 0.659468 55.8835 0.47257Z" fill="#5E604C"/>
<path d="M0.343103 2.71484C0.569617 2.71484 0.653305 3.11474 0.343103 3.11474C0.0329002 3.11474 0.116588 2.71484 0.343103 2.71484Z" fill="#5E604C"/>
<path d="M25.6438 2.75745C25.8215 2.58548 26.1086 2.80232 25.9754 3.02054C25.8351 3.25038 25.4591 2.93629 25.6438 2.75745Z" fill="#5E604C"/>
<path d="M18.9182 0.19861C19.1655 0.417649 18.6896 0.763606 18.5834 0.417099C18.52 0.210331 18.8018 0.0955003 18.9182 0.19861Z" fill="#5E604C"/>
<path d="M49.6991 6.63694C50.0305 6.53749 50.0433 7.00368 49.7739 7.0296C49.5413 7.05203 49.4967 6.69765 49.6991 6.63694Z" fill="#5E604C"/>
<path d="M72.2764 2.02071C72.5447 1.94599 72.6068 2.35971 72.3939 2.41905C72.1256 2.49377 72.0634 2.08005 72.2764 2.02071Z" fill="#5E604C"/>
<path d="M68.9482 4.48751C69.2165 4.41279 69.2787 4.82651 69.0658 4.88585C68.7975 4.96057 68.7353 4.54685 68.9482 4.48751Z" fill="#5E604C"/>
<path d="M4.63978 5.44631C4.92817 5.36143 4.98822 5.85665 4.67464 5.85024C4.4797 5.8463 4.42074 5.51078 4.63978 5.44631Z" fill="#5E604C"/>
<path d="M76.2642 10.3805C76.4839 10.2414 76.7543 10.5807 76.5315 10.717C76.2665 10.8793 76.1187 10.4726 76.2642 10.3805Z" fill="#5E604C"/>
<path d="M0.900751 0.467835C1.15811 0.38075 1.29847 0.704547 1.09833 0.804543C0.800909 0.953072 0.692489 0.538345 0.900751 0.467835Z" fill="#5E604C"/>
<path d="M39.7582 13.9931C40.0155 13.9707 40.0268 14.3748 39.794 14.3956C39.5448 14.4179 39.5033 14.0151 39.7582 13.9931Z" fill="#5E604C"/>
<path d="M11.9825 11.3395C12.3607 11.2124 12.3702 11.7002 12.0674 11.7029C11.8356 11.7049 11.8685 11.3778 11.9825 11.3395Z" fill="#5E604C"/>
<path d="M77.5679 13.5379C77.7881 13.7584 77.3535 13.9935 77.2351 13.754C77.1357 13.553 77.4264 13.3962 77.5679 13.5379Z" fill="#5E604C"/>
<path d="M51.7294 0.774136C51.6124 0.700696 51.6874 0.304375 51.9507 0.437153C52.19 0.557844 51.9721 0.92642 51.7294 0.774136Z" fill="#5E604C"/>
<path d="M7.9464 14.0361C8.01968 13.9189 8.4154 13.994 8.28279 14.2578C8.16233 14.4975 7.79435 14.2792 7.9464 14.0361Z" fill="#5E604C"/>
<path d="M41.6998 14.0861C41.8635 13.9215 42.1391 14.1707 41.9832 14.3452C41.7792 14.5736 41.5421 14.2447 41.6998 14.0861Z" fill="#5E604C"/>
<path d="M20.7032 14.1269C20.8552 14.37 20.4873 14.5884 20.3668 14.3486C20.2342 14.0848 20.6299 14.0097 20.7032 14.1269Z" fill="#5E604C"/>
<path d="M38.409 12.698C38.292 12.6245 38.3671 12.2282 38.6304 12.361C38.8696 12.4817 38.6518 12.8502 38.409 12.698Z" fill="#5E604C"/>
<path d="M4.6023 4.85368C4.7193 4.92712 4.64428 5.32344 4.38098 5.19066C4.14169 5.06997 4.35954 4.7014 4.6023 4.85368Z" fill="#5E604C"/>
<path d="M75.1477 6.63475C75.3945 6.56625 75.4851 6.91926 75.2655 6.98547C74.9465 7.08171 74.9626 6.68612 75.1477 6.63475Z" fill="#5E604C"/>
<path d="M73.6067 14.4333C73.351 14.5894 73.1683 14.2056 73.3856 14.0964C73.6508 13.963 73.7222 14.3628 73.6067 14.4333Z" fill="#5E604C"/>
<path d="M46.8277 3.83002C46.6539 3.9997 46.3503 3.75612 46.5415 3.56702C46.7257 3.38471 46.9866 3.6748 46.8277 3.83002Z" fill="#5E604C"/>
<path d="M74.8251 14.3075C75.0826 14.221 75.225 14.5447 75.0239 14.646C74.7675 14.7751 74.6508 14.366 74.8251 14.3075Z" fill="#5E604C"/>
<path d="M44.0458 14.0865C44.1773 14.2188 44.0293 14.4634 43.8744 14.4227C43.5645 14.3411 43.8179 13.8572 44.0458 14.0865Z" fill="#5E604C"/>
<path d="M39.0768 13.6294C39.1846 13.7369 39.1277 13.9146 38.9721 13.9382C38.5724 13.9989 38.8196 13.3728 39.0768 13.6294Z" fill="#5E604C"/>
<path d="M3.82818 0.591407C3.77561 0.674462 3.4571 0.658712 3.48184 0.446175C3.52108 0.1091 4.00468 0.312755 3.82818 0.591407Z" fill="#5E604C"/>
<path d="M35.9071 13.4692C35.7993 13.3617 35.8561 13.184 36.0117 13.1604C36.4115 13.0997 36.1642 13.7258 35.9071 13.4692Z" fill="#5E604C"/>
<path d="M50.7559 3.2416C50.4653 3.41998 50.2955 2.92055 50.6104 2.89344C50.8353 2.87412 50.8479 3.1851 50.7559 3.2416Z" fill="#5E604C"/>
<path d="M14.171 0.968277C14.2967 0.937052 14.4947 1.12486 14.3459 1.28548C14.1008 1.55003 13.9035 1.03485 14.171 0.968277Z" fill="#5E604C"/>
<path d="M26.7609 1.70139C27.0125 1.63106 27.0935 1.99378 26.8782 2.05394C26.6266 2.12427 26.5456 1.76155 26.7609 1.70139Z" fill="#5E604C"/>
<path d="M68.7648 3.89377C69.0164 3.82345 69.0974 4.18616 68.8822 4.24632C68.6305 4.31665 68.5495 3.95394 68.7648 3.89377Z" fill="#5E604C"/>
<path d="M75.1455 0.421522C75.3103 0.365572 75.5078 0.493131 75.3915 0.668857C75.1814 0.986243 74.8926 0.507508 75.1455 0.421522Z" fill="#5E604C"/>
<path d="M16.5698 0.19914C16.6771 0.0911773 16.8544 0.148135 16.878 0.303989C16.9386 0.704431 16.3135 0.456731 16.5698 0.19914Z" fill="#5E604C"/>
<path d="M41.8596 3.37301C41.6128 3.6154 41.3704 3.0569 41.7118 3.06056C41.8833 3.0624 41.9679 3.26669 41.8596 3.37301Z" fill="#5E604C"/>
<path d="M68.6752 11.8699C68.5691 11.9784 68.3652 11.8936 68.3633 11.7218C68.3596 11.3798 68.9172 11.6227 68.6752 11.8699Z" fill="#5E604C"/>
<path d="M10.0293 4.53359C10.1261 4.68853 9.90977 4.96846 9.72779 4.78972C9.52765 4.5933 9.92081 4.35979 10.0293 4.53359Z" fill="#5E604C"/>
<path d="M47.8999 14.1318C48.0632 13.9716 48.3153 14.1901 48.1662 14.3752C47.997 14.5851 47.745 14.2839 47.8999 14.1318Z" fill="#5E604C"/>
<path d="M40.6237 2.02091C40.9421 1.91304 40.9477 2.35277 40.6991 2.37264C40.5386 2.38546 40.4287 2.08703 40.6237 2.02091Z" fill="#5E604C"/>
<path d="M1.4735 0.289682C1.62536 0.134469 1.92607 0.386931 1.71653 0.55643C1.53181 0.705783 1.31351 0.453229 1.4735 0.289682Z" fill="#5E604C"/>
<path d="M5.87422 0.586825C5.71095 0.747075 5.45879 0.528494 5.60791 0.343428C5.77711 0.133546 6.02909 0.434725 5.87422 0.586825Z" fill="#5E604C"/>
<path d="M46.1 14.1314C46.26 14.295 46.0418 14.5475 45.857 14.3982C45.6474 14.2288 45.9482 13.9763 46.1 14.1314Z" fill="#5E604C"/>
<path d="M76.2322 9.75098C76.4805 9.7487 76.4588 10.244 76.1189 10.0774C75.9295 9.98458 76.0845 9.75236 76.2322 9.75098Z" fill="#5E604C"/>
<path d="M7.73909 0.329237C8.01488 0.236658 8.13635 0.606699 7.85116 0.668509C7.65868 0.710266 7.5854 0.380792 7.73909 0.329237Z" fill="#5E604C"/>
<path d="M40.2113 0.786192C40.3802 0.729418 40.5442 0.856519 40.4516 1.02364C40.2675 1.35577 39.9797 0.863937 40.2113 0.786192Z" fill="#5E604C"/>
<path d="M72.5949 13.6698C72.893 13.5688 72.9251 13.962 72.7051 14.008C72.5284 14.045 72.3974 13.7368 72.5949 13.6698Z" fill="#5E604C"/>
<path d="M19.9179 14.2641C20.0798 14.2499 20.1864 14.6027 19.954 14.6256C19.713 14.6493 19.6665 14.2862 19.9179 14.2641Z" fill="#5E604C"/>
<path d="M64.5203 14.2154C64.7496 14.1398 64.8793 14.5028 64.6305 14.5553C64.451 14.5931 64.3252 14.2797 64.5203 14.2154Z" fill="#5E604C"/>
<path d="M4.78555 7.85539C4.55439 7.99879 4.36529 7.68773 4.56388 7.56374C4.77807 7.42995 4.91643 7.77426 4.78555 7.85539Z" fill="#5E604C"/>
<path d="M21.778 13.6797C22.0102 13.6774 21.9826 14.0565 21.7337 14.032C21.5147 14.0104 21.5827 13.6816 21.778 13.6797Z" fill="#5E604C"/>
<path d="M11.9733 0.339852C12.2057 0.337746 12.1777 0.716669 11.929 0.692128C11.7097 0.670517 11.7783 0.341592 11.9733 0.339852Z" fill="#5E604C"/>
<path d="M9.84226 0.331179C10.0742 0.266072 10.1766 0.576957 9.95935 0.637943C9.72745 0.703051 9.62505 0.392166 9.84226 0.331179Z" fill="#5E604C"/>
<path d="M9.34002 11.521C9.57028 11.464 9.6076 11.8823 9.37671 11.8827C9.19272 11.8829 9.15539 11.5666 9.34002 11.521Z" fill="#5E604C"/>
<path d="M67.4033 14.3422C67.2348 14.4498 66.9579 14.1895 67.181 14.0501C67.3951 13.9164 67.5328 14.2596 67.4033 14.3422Z" fill="#5E604C"/>
<path d="M68.5335 3.30052C68.8232 3.20235 68.8519 3.55115 68.6534 3.60701C68.4195 3.67285 68.3606 3.35903 68.5335 3.30052Z" fill="#5E604C"/>
<path d="M4.77861 9.65439C4.93749 9.81336 4.6867 10.0653 4.52745 9.90594C4.3682 9.74661 4.61935 9.49506 4.77861 9.65439Z" fill="#5E604C"/>
<path d="M38.2496 11.7477C38.4426 11.6849 38.5814 11.9541 38.452 12.0436C38.2068 12.2134 38.0621 11.8087 38.2496 11.7477Z" fill="#5E604C"/>
<path d="M66.5717 14.2637C66.9007 14.1546 66.9069 14.6543 66.6199 14.5704C66.4887 14.5321 66.4359 14.3088 66.5717 14.2637Z" fill="#5E604C"/>
<path d="M46.7787 4.16702C47.1077 4.05796 47.1139 4.55757 46.8269 4.47369C46.6958 4.43541 46.6429 4.21207 46.7787 4.16702Z" fill="#5E604C"/>
<path d="M53.572 12.299C53.9014 12.1876 53.8859 12.6381 53.6123 12.6165C53.4556 12.6042 53.4533 12.3391 53.572 12.299Z" fill="#5E604C"/>
<path d="M48.9917 8.96423C49.1718 8.84921 49.4096 9.13528 49.2141 9.25625C48.9989 9.38939 48.8623 9.04691 48.9917 8.96423Z" fill="#5E604C"/>
<path d="M31.7755 0.100681C31.9927 0.0470202 32.0602 0.444898 31.8123 0.444532C31.6093 0.444166 31.6023 0.143445 31.7755 0.100681Z" fill="#5E604C"/>
<path d="M3.1442 4.67099C3.22022 4.71943 3.20954 4.93645 3.07319 4.97693C2.7358 5.07701 2.86356 4.49206 3.1442 4.67099Z" fill="#5E604C"/>
<path d="M75.5607 5.81162C75.7779 5.75796 75.8453 6.15584 75.5975 6.15547C75.3944 6.1551 75.3875 5.85438 75.5607 5.81162Z" fill="#5E604C"/>
<path d="M77.2432 0.466569C77.5418 0.366756 77.5544 0.728097 77.3647 0.775623C77.1897 0.819485 77.0819 0.520504 77.2432 0.466569Z" fill="#5E604C"/>
<path d="M71.8642 2.88719C72.0391 2.84333 72.147 3.14231 71.9856 3.19624C71.687 3.29606 71.6744 2.93472 71.8642 2.88719Z" fill="#5E604C"/>
<path d="M50.0634 14.1255C50.2383 14.0816 50.3462 14.3806 50.1848 14.4345C49.8862 14.5343 49.8736 14.173 50.0634 14.1255Z" fill="#5E604C"/>
<path d="M40.8057 2.65993C41.1043 2.56012 41.1169 2.92146 40.9272 2.96898C40.7522 3.01284 40.6444 2.71386 40.8057 2.65993Z" fill="#5E604C"/>
<path d="M0.125873 2.11082C0.300824 2.06696 0.408697 2.36594 0.247344 2.41988C-0.0512683 2.51969 -0.0638626 2.15835 0.125873 2.11082Z" fill="#5E604C"/>
<path d="M24.6698 3.1622C24.7786 3.38417 24.6299 3.53316 24.4083 3.42419L24.4023 3.15625L24.6698 3.1622Z" fill="#5E604C"/>
<path d="M9.26764 7.41176C9.33518 7.30472 9.66418 7.38502 9.55959 7.58795C9.44323 7.81376 9.14407 7.60773 9.26764 7.41176Z" fill="#5E604C"/>
<path d="M52.9141 12.7887C52.7874 12.7087 52.9169 12.4104 53.0894 12.4956C53.3134 12.6062 53.114 12.9149 52.9141 12.7887Z" fill="#5E604C"/>
<path d="M76.8578 14.3556C76.9377 14.2287 77.2356 14.3585 77.1505 14.5312C77.0401 14.7555 76.7319 14.5557 76.8578 14.3556Z" fill="#5E604C"/>
<path d="M68.3895 2.66992C68.5544 2.67075 68.6204 2.91863 68.4743 2.96726C68.1605 3.07165 68.1592 2.66873 68.3895 2.66992Z" fill="#5E604C"/>
<path d="M0.899345 4.62325C1.13699 4.54349 1.1589 4.88844 1.02438 4.93395C0.803063 5.00876 0.717823 4.68414 0.899345 4.62325Z" fill="#5E604C"/>
<path d="M75.8969 9.14577C76.0335 9.05108 76.3085 9.32048 76.0745 9.44008C75.8707 9.54419 75.7945 9.21673 75.8969 9.14577Z" fill="#5E604C"/>
<path d="M4.59723 11.7042C4.78697 11.6568 4.87385 11.9632 4.67043 12.014C4.48069 12.0613 4.39381 11.7549 4.59723 11.7042Z" fill="#5E604C"/>
<path d="M76.3355 14.5362C76.5252 14.4889 76.6121 14.7953 76.4087 14.846C76.219 14.8933 76.1321 14.5869 76.3355 14.5362Z" fill="#5E604C"/>
<path d="M74.4214 14.5436C74.5912 14.7134 74.2818 14.9066 74.1798 14.7625C74.08 14.6213 74.2732 14.3954 74.4214 14.5436Z" fill="#5E604C"/>
<path d="M62.6591 14.2631C62.7397 14.392 62.5982 14.6314 62.4333 14.512C62.2179 14.3561 62.5589 14.1028 62.6591 14.2631Z" fill="#5E604C"/>
<path d="M60.3527 14.4749C60.205 14.3218 60.4327 14.1324 60.5715 14.2316C60.7335 14.3474 60.4917 14.619 60.3527 14.4749Z" fill="#5E604C"/>
<path d="M24.3636 11.7397C24.2036 11.6392 24.4565 11.2978 24.6121 11.5135C24.7313 11.6788 24.4922 11.8204 24.3636 11.7397Z" fill="#5E604C"/>
<path d="M41.377 2.73414C41.2331 2.59477 41.5043 2.35266 41.6199 2.51492C41.7189 2.65402 41.5298 2.88212 41.377 2.73414Z" fill="#5E604C"/>
<path d="M9.53078 9.46668C9.69085 9.56714 9.43796 9.90861 9.28236 9.69286C9.16317 9.52758 9.40219 9.38601 9.53078 9.46668Z" fill="#5E604C"/>
<path d="M70.7797 9.55694C70.8538 9.66261 70.6839 9.92625 70.5214 9.76893C70.3615 9.61408 70.6725 9.40438 70.7797 9.55694Z" fill="#5E604C"/>
<path d="M9.57654 5.35381C9.65065 5.45949 9.48081 5.72312 9.31827 5.5658C9.15837 5.41095 9.4694 5.20125 9.57654 5.35381Z" fill="#5E604C"/>
<path d="M65.0325 0.637175C64.9497 0.769862 64.6594 0.588642 64.785 0.412459C64.9005 0.250377 65.1377 0.4685 65.0325 0.637175Z" fill="#5E604C"/>
<path d="M69.0843 11.0015C68.9594 11.1221 68.7636 10.986 68.8424 10.8309C68.9613 10.5965 69.2259 10.8647 69.0843 11.0015Z" fill="#5E604C"/>
<path d="M13.547 0.597656L13.5048 0.852133L13.2935 0.828691L13.293 0.639871L13.547 0.597656Z" fill="#5E604C"/>
<path d="M26.0733 12.2961C26.2515 12.2389 26.3899 12.4704 26.2275 12.5433C25.9719 12.6583 25.931 12.3417 26.0733 12.2961Z" fill="#5E604C"/>
<path d="M39.5806 0.633508C39.44 0.774528 39.1763 0.509245 39.4083 0.391301C39.5748 0.306689 39.6755 0.538365 39.5806 0.633508Z" fill="#5E604C"/>
<path d="M9.47581 13.8812C9.33116 14.0301 9.09679 13.7468 9.30542 13.6385C9.45929 13.5587 9.59682 13.7567 9.47581 13.8812Z" fill="#5E604C"/>
<path d="M77.7882 12.7079C77.9853 12.6448 78.0576 12.879 77.9456 12.9577C77.7475 13.0968 77.6129 12.7641 77.7882 12.7079Z" fill="#5E604C"/>
<path d="M0.303843 0.694258C0.50097 0.631165 0.573251 0.865313 0.46118 0.944065C0.263139 1.08316 0.128527 0.750391 0.303843 0.694258Z" fill="#5E604C"/>
<path d="M41.455 2.10109C41.4367 2.13003 41.2551 2.17847 41.2069 2.10796C41.1538 2.03022 41.1975 1.88672 41.2766 1.8522C41.3776 1.80825 41.52 1.99789 41.4549 2.10109H41.455Z" fill="#5E604C"/>
<path d="M43.5382 0.419844C43.7353 0.356751 43.8076 0.590899 43.6956 0.66965C43.4975 0.808748 43.3629 0.475977 43.5382 0.419844Z" fill="#5E604C"/>
<path d="M2.321 0.363113C2.13281 0.479501 1.95166 0.217515 2.14596 0.116603C2.33095 0.0205444 2.42349 0.299654 2.321 0.363113Z" fill="#5E604C"/>
<path d="M41.223 3.34626C41.3391 3.53471 41.0776 3.71621 40.9769 3.52162C40.881 3.33628 41.1597 3.24361 41.223 3.34626Z" fill="#5E604C"/>
<path d="M37.3351 0.373945C37.5322 0.310852 37.6045 0.545001 37.4924 0.623752C37.2944 0.762849 37.1598 0.430078 37.3351 0.373945Z" fill="#5E604C"/>
<path d="M56.4594 14.2157C56.5121 14.2888 56.4115 14.5303 56.2805 14.4654C56.0329 14.3429 56.3452 14.0571 56.4594 14.2157Z" fill="#5E604C"/>
<path d="M76.1636 5.2533C76.0867 5.3608 75.8091 5.23626 75.914 5.07318C76.0441 4.87089 76.2444 5.14021 76.1636 5.2533Z" fill="#5E604C"/>
<path d="M71.6003 3.75305C71.6797 3.80936 71.6362 4.15358 71.4189 4.00331C71.2656 3.89727 71.4634 3.65589 71.6003 3.75305Z" fill="#5E604C"/>
<path d="M49.8546 5.26188C49.9314 5.15437 50.209 5.27891 50.1042 5.442C49.974 5.64428 49.7738 5.37497 49.8546 5.26188Z" fill="#5E604C"/>
<path d="M32.2042 14.4444C32.317 14.3636 32.5859 14.5642 32.384 14.6945C32.2212 14.7995 32.0969 14.5213 32.2042 14.4444Z" fill="#5E604C"/>
<path d="M10.9911 5.80277C10.8783 5.88363 10.6094 5.683 10.8113 5.55269C10.9741 5.44766 11.0984 5.72585 10.9911 5.80277Z" fill="#5E604C"/>
<path d="M58.2901 14.4824C58.1828 14.4055 58.3072 14.1274 58.4699 14.2323C58.6719 14.3627 58.4029 14.5633 58.2901 14.4824Z" fill="#5E604C"/>
<path d="M17.2671 0.00485635C17.4196 -0.0386401 17.5623 0.22298 17.3975 0.274443C17.1615 0.348158 17.143 0.0402029 17.2671 0.00485635Z" fill="#5E604C"/>
<path d="M34.8412 0.602239C34.9649 0.775493 34.6211 0.933911 34.572 0.756537C34.5265 0.59235 34.7732 0.507097 34.8412 0.602239Z" fill="#5E604C"/>
<path d="M6.25327 0.365797C6.12951 0.192544 6.4733 0.0341256 6.52249 0.211499C6.56794 0.375687 6.32126 0.46094 6.25327 0.365797Z" fill="#5E604C"/>
<path d="M46.9811 4.80508C47.154 4.68109 47.3122 5.02549 47.1351 5.07475C46.9712 5.12036 46.8861 4.87321 46.9811 4.80508Z" fill="#5E604C"/>
<path d="M51.1957 0.6899C51.3549 0.644756 51.4911 0.899599 51.2778 0.957014C51.0882 1.00802 51.0832 0.721767 51.1957 0.6899Z" fill="#5E604C"/>
<path d="M41.2621 3.93966C41.4517 3.88866 41.4567 4.17491 41.3442 4.20678C41.185 4.25192 41.0488 3.99708 41.2621 3.93966Z" fill="#5E604C"/>
<path d="M4.26899 0.0959394C4.41921 0.0515272 4.54862 0.309209 4.35186 0.363053C4.16349 0.414608 4.1571 0.128997 4.26899 0.0959394Z" fill="#5E604C"/>
<path d="M14.0731 13.4356C14.2558 13.3807 14.2845 13.6725 14.1634 13.7088C13.9807 13.7637 13.9521 13.4719 14.0731 13.4356Z" fill="#5E604C"/>
<path d="M37.6528 11.9734C37.8363 11.9246 37.9276 12.2106 37.7371 12.244C37.616 12.2651 37.5138 12.0104 37.6528 11.9734Z" fill="#5E604C"/>
<path d="M8.42525 0.148737C8.63561 0.0920542 8.59637 0.391035 8.45728 0.412737C8.33344 0.432151 8.22976 0.201391 8.42525 0.148737Z" fill="#5E604C"/>
<path d="M62.7852 0.373986C62.9544 0.321698 63.0606 0.493303 62.9414 0.576816C62.7629 0.701903 62.6082 0.428562 62.7852 0.373986Z" fill="#5E604C"/>
<path d="M65.9766 14.4902C66.1458 14.4379 66.252 14.6095 66.1328 14.693C65.9543 14.8181 65.7996 14.5448 65.9766 14.4902Z" fill="#5E604C"/>
<path d="M77.5575 14.167C77.7402 14.1121 77.7688 14.4039 77.6478 14.4403C77.4651 14.4951 77.4365 14.2034 77.5575 14.167Z" fill="#5E604C"/>
<path d="M10.6059 6.99387C10.7894 6.94506 10.8807 7.23113 10.6902 7.26446C10.5691 7.28562 10.467 7.03096 10.6059 6.99387Z" fill="#5E604C"/>
<path d="M54.1408 14.4351C54.1075 14.4141 54.0634 14.2443 54.162 14.2139C54.4787 14.1163 54.367 14.5775 54.1408 14.4351Z" fill="#5E604C"/>
<path d="M41.4181 0.63946C41.2759 0.41282 41.7364 0.30092 41.639 0.618215C41.6087 0.717021 41.4391 0.672883 41.4181 0.63946Z" fill="#5E604C"/>
<path d="M45.5666 0.466035C45.7928 0.32355 45.9045 0.784795 45.5878 0.687272C45.4892 0.65687 45.5332 0.487096 45.5666 0.466035Z" fill="#5E604C"/>
<path d="M75.6681 14.7639C75.8944 14.6214 76.0061 15.0826 75.6894 14.9851C75.5907 14.9547 75.6348 14.7849 75.6681 14.7639Z" fill="#5E604C"/>
<path d="M29.9325 9.95212C29.7755 9.79544 29.9401 9.44912 30.1946 9.5732C30.4979 9.72108 30.172 10.1909 29.9325 9.95212Z" fill="#5E604C"/>
<path d="M34.6071 6.43338C34.3885 6.68099 34.043 6.20436 34.389 6.09805C34.5955 6.03459 34.7101 6.31681 34.6071 6.43338Z" fill="#5E604C"/>
<path d="M35.1336 6.5493C35.3355 6.34757 35.6246 6.73354 35.35 6.88271C35.1938 6.96751 34.9834 6.69938 35.1336 6.5493Z" fill="#5E604C"/>
<path d="M32.7373 4.67599C32.9794 4.91838 32.438 5.16708 32.3959 4.81655C32.3738 4.63286 32.6281 4.56674 32.7373 4.67599Z" fill="#5E604C"/>
<path d="M34.3101 8.48921C34.1551 8.33711 34.4072 8.03584 34.5764 8.24581C34.7255 8.43088 34.4734 8.64946 34.3101 8.48921Z" fill="#5E604C"/>
<path d="M33.3743 5.0826C33.6723 4.9979 33.6351 5.52004 33.3424 5.37261C33.2067 5.3042 33.2348 5.12225 33.3743 5.0826Z" fill="#5E604C"/>
<path d="M29.0392 6.49886C29.2245 6.46489 29.3253 6.75398 29.1149 6.80636C28.9172 6.85562 28.8469 6.53412 29.0392 6.49886Z" fill="#5E604C"/>
<path d="M31.4368 9.88254C31.5733 9.74061 31.8411 10.0057 31.6072 10.1248C31.4522 10.2038 31.3164 10.0077 31.4368 9.88254Z" fill="#5E604C"/>
<path d="M35.6046 7.82023C35.8018 7.75714 35.874 7.99129 35.762 8.07004C35.5639 8.20914 35.4293 7.87637 35.6046 7.82023Z" fill="#5E604C"/>
<path d="M29.4453 5.71871C29.6145 5.66642 29.7207 5.83803 29.6016 5.92154C29.423 6.04663 29.2684 5.77329 29.4453 5.71871Z" fill="#5E604C"/>
<path d="M20.6295 8.51326C20.8165 8.3238 21.1491 8.64201 20.919 8.8258C20.6995 9.00115 20.446 8.69915 20.6295 8.51326Z" fill="#5E604C"/>
<path d="M16.3639 9.28905C16.6221 9.55022 16.0815 9.85084 16.019 9.47265C15.9834 9.25737 16.2416 9.16525 16.3639 9.28905Z" fill="#5E604C"/>
<path d="M19.4429 5.06343C19.288 4.91133 19.54 4.61006 19.7092 4.82003C19.8584 5.00509 19.6062 5.22368 19.4429 5.06343Z" fill="#5E604C"/>
<path d="M20.5595 5.81102C20.7344 5.76715 20.8423 6.06614 20.6809 6.12007C20.3823 6.21988 20.3697 5.85854 20.5595 5.81102Z" fill="#5E604C"/>
<path d="M20.7359 6.44966C20.9523 6.37925 21.0863 6.69379 20.8582 6.75863C20.6083 6.82959 20.6098 6.49069 20.7359 6.44966Z" fill="#5E604C"/>
<path d="M15.8157 5.99343C16.0141 5.94297 16.1059 6.2795 15.8441 6.30083C15.6844 6.31384 15.6317 6.04022 15.8157 5.99343Z" fill="#5E604C"/>
<path d="M18.6042 10.2333C18.4987 10.3075 18.2355 10.1374 18.3925 9.97458C18.5471 9.81443 18.7565 10.126 18.6042 10.2333Z" fill="#5E604C"/>
<path d="M17.0007 9.74206C17.2732 9.66486 17.2714 10.0793 17.0007 10.0012C16.8485 9.95734 16.8489 9.785 17.0007 9.74206Z" fill="#5E604C"/>
<path d="M19.8386 9.55578C19.918 9.6121 19.8745 9.95632 19.6572 9.80605C19.5039 9.70001 19.7016 9.45863 19.8386 9.55578Z" fill="#5E604C"/>
<path d="M18.0206 4.84524C17.8773 4.74525 18.2002 4.33418 18.2728 4.75587C18.2419 4.82491 18.0713 4.88059 18.0206 4.84524Z" fill="#5E604C"/>
<path d="M15.5785 7.45064C15.7377 7.4055 15.8739 7.66034 15.6606 7.71776C15.4711 7.76876 15.466 7.48251 15.5785 7.45064Z" fill="#5E604C"/>
<path d="M63.3839 6.06901C63.1431 6.31012 62.8065 5.90217 63.0484 5.71032C63.3025 5.50877 63.5893 5.86334 63.3839 6.06901Z" fill="#5E604C"/>
<path d="M63.5679 8.42061C63.7758 8.62728 63.3989 8.94394 63.2098 8.71034C63.0296 8.48782 63.384 8.23783 63.5679 8.42061Z" fill="#5E604C"/>
<path d="M60.7638 9.54166C60.6197 9.4141 60.7484 9.09159 60.9803 9.2088C61.231 9.33544 60.9703 9.72453 60.7638 9.54166Z" fill="#5E604C"/>
<path d="M58.9656 9.54562C58.7229 9.6979 58.5049 9.32933 58.7443 9.20864C59.0077 9.07586 59.0827 9.47218 58.9656 9.54562Z" fill="#5E604C"/>
<path d="M60.5753 4.48825C60.6486 4.37104 61.0443 4.44613 60.9117 4.70995C60.7912 4.94968 60.4233 4.73138 60.5753 4.48825Z" fill="#5E604C"/>
<path d="M60.2797 5.26557C60.5184 5.22034 60.6008 5.72526 60.2369 5.61483C60.0273 5.55118 60.1397 5.29213 60.2797 5.26557Z" fill="#5E604C"/>
<path d="M64.8411 8.5999C64.9789 8.5891 65.1491 8.87846 64.9144 8.94962C64.5846 9.0497 64.6024 8.61858 64.8411 8.5999Z" fill="#5E604C"/>
<path d="M62.6766 4.78977C62.5166 4.62622 62.7349 4.37366 62.9197 4.52302C63.1292 4.69242 62.8285 4.94489 62.6766 4.78977Z" fill="#5E604C"/>
<path d="M62.3772 5.26499C62.5116 5.25419 62.6478 5.50024 62.4832 5.60097C62.1854 5.7831 62.0869 5.28825 62.3772 5.26499Z" fill="#5E604C"/>
<path d="M64.523 9.51818C64.6927 9.68804 64.3833 9.88126 64.2814 9.73712C64.1816 9.59592 64.3748 9.37001 64.523 9.51818Z" fill="#5E604C"/>
<path d="M63.4949 6.99995C63.6633 6.89455 63.8811 7.13209 63.7192 7.24784C63.5432 7.37365 63.3624 7.08282 63.4949 6.99995Z" fill="#5E604C"/>
<path d="M63.2972 9.92438C63.4134 10.1128 63.1518 10.2943 63.0511 10.0997C62.9552 9.9144 63.2339 9.82173 63.2972 9.92438Z" fill="#5E604C"/>
<path d="M64.128 4.97985C64.0472 4.86685 64.2475 4.59744 64.3776 4.79972C64.4825 4.96272 64.2047 5.08726 64.128 4.97985Z" fill="#5E604C"/>
<path d="M61.0924 9.88308C61.2142 9.87411 61.3379 10.093 61.1796 10.1421C60.9193 10.2229 60.9503 9.89361 61.0924 9.88308Z" fill="#5E604C"/>
<path d="M62.9168 9.27833C63.0996 9.22348 63.1282 9.51522 63.0072 9.55158C62.8245 9.60643 62.7958 9.31468 62.9168 9.27833Z" fill="#5E604C"/>
</svg>
