<svg width="71" height="31" viewBox="0 0 71 31" fill="none" xmlns="http://www.w3.org/2000/svg">
<g clip-path="url(#clip0_168_2812)">
<path d="M48.2588 11.0223C48.97 11.6318 49.1615 12.6169 49.219 13.5095C49.4679 17.4227 49.022 21.5916 49.219 25.532C49.1451 26.8001 48.412 27.6138 47.0689 27.3879C46.1198 27.2273 45.7724 26.4953 45.704 25.6245C45.4715 22.6638 45.9994 19.2813 45.704 16.3586C45.5918 15.2239 44.8286 14.1463 43.6935 13.8605C42.7607 13.6238 38.9503 13.6292 37.9245 13.768C36.1985 13.9993 35.4709 15.1912 35.3587 16.8131C35.211 18.9085 35.1946 22.3481 35.3587 24.4326C35.4927 26.1443 36.4091 27.2872 38.1734 27.4151C40.0171 27.5484 42.0741 27.2518 43.9041 27.4069C45.2034 27.5185 45.9365 28.2859 45.6602 29.6166C45.4605 30.5772 44.6919 30.833 43.8111 30.8983C40.9553 31.1133 37.8288 30.7323 34.9457 30.8929C33.2251 30.716 32.0762 29.8806 31.9395 28.1009V1.67747C31.9395 -0.415178 35.1618 -0.543077 35.3642 1.49242C35.624 4.13204 34.1196 9.92832 37.9874 10.2603C40.5532 10.4807 43.4391 10.0617 46.0213 10.2603C46.7051 10.312 47.7227 10.5705 48.2534 11.025L48.2588 11.0223Z" fill="#EDEDED"/>
<path d="M64.8515 26.5524C65.9949 27.8069 67.8139 27.2627 69.2965 27.4096C71.4985 27.63 71.731 30.6942 69.023 30.8983C67.6033 31.0044 63.3498 31.0615 62.1982 30.5173C61.2435 30.0628 60.7429 29.2301 60.6609 28.1933C60.3299 24.038 60.9344 19.4771 60.639 15.281C60.5405 14.8592 60.3709 14.3394 60.0126 14.07C59.4655 13.6618 58.8582 13.8197 58.2674 13.6047C57.0255 13.1529 56.8313 11.4032 57.8489 10.6276C58.5902 10.0616 59.8238 10.5705 60.4065 9.4983C61.1067 8.21387 60.2123 5.25586 60.8988 4.2109C61.7605 2.89926 63.905 3.37003 64.0801 4.98646C64.236 6.43961 63.7081 8.2819 64.9062 9.48469C66.2958 10.8807 68.3282 9.86023 69.9475 10.4399C71.0308 10.829 71.2633 12.2713 70.6204 13.1366C69.9092 14.0999 67.8823 13.6401 66.8046 13.7462C65.0676 13.9176 64.1923 15.0605 64.0774 16.7232C63.9297 18.8649 63.9078 22.3971 64.0774 24.5278C64.1293 25.1836 64.4056 26.068 64.8515 26.5578V26.5524Z" fill="#EDEDED"/>
<path d="M15.5584 10.3064C16.576 10.3336 17.2161 11.0629 17.2626 12.0452C16.9726 17.1803 17.651 22.7398 17.268 27.8231C17.1231 29.7552 16.1082 30.7457 14.1688 30.8899C11.3049 31.1022 8.19198 30.7294 5.3034 30.8954C2.86616 30.7702 2.72939 27.6027 5.3034 27.404C7.24279 27.2543 10.8563 27.8421 12.4318 26.9632C13.3373 26.4597 13.6819 25.7114 13.7585 24.7045C14.0731 20.5982 13.5069 16.1081 13.764 11.9609C13.9062 10.9595 14.4889 10.2764 15.5557 10.3064H15.5584Z" fill="#EDEDED"/>
<path d="M25.4664 10.282C26.3308 10.1894 28.6805 10.1514 29.4574 10.3908C30.6035 10.7446 30.9044 12.1624 30.2342 13.093C29.5039 14.1081 27.4769 13.6318 26.3636 13.7434C24.9002 13.8876 23.8443 14.8945 23.7267 16.3531C23.4039 20.4132 24.1425 25.0938 23.7185 29.094C23.4641 31.486 20.5153 31.4207 20.2227 29.1947L20.2281 15.2619C20.3321 14.8319 20.4989 14.3421 20.8709 14.0672C21.5439 13.5692 22.3727 13.904 23.0839 13.3298C23.9483 12.6331 23.4477 11.6562 24.0987 10.8507C24.4461 10.4208 24.9357 10.3364 25.4637 10.282H25.4664Z" fill="#EDEDED"/>
<path d="M53.9691 10.3065C54.9593 10.3201 55.5802 11.0031 55.676 11.9528C55.3641 17.5069 56.0918 23.5127 55.6815 29.0151C55.5775 30.3893 54.508 31.2901 53.1621 30.6832C52.3826 30.3322 52.2321 29.7009 52.1692 28.9171C51.7534 23.6025 52.481 17.7736 52.1637 12.4046C52.2376 11.2426 52.6205 10.2847 53.9691 10.3037V10.3065Z" fill="#EDEDED"/>
<path d="M1.17622 10.369C2.21294 10.1568 3.22777 10.5786 3.41925 11.6752V25.9863C3.19768 27.9891 0.169595 27.8395 0 25.8938V11.8603C0.0629142 11.2208 0.503313 10.5051 1.17622 10.369Z" fill="#EDEDED"/>
</g>
<defs>
<clipPath id="clip0_168_2812">
<rect width="71" height="31" fill="white"/>
</clipPath>
</defs>
</svg>
