<svg preserveAspectRatio="none" width="100%" height="100%" overflow="visible" style="display: block;" viewBox="0 0 197 87" fill="none" xmlns="http://www.w3.org/2000/svg">
<g id="Group 59">
<path id="Vector" d="M133.841 30.5788C135.816 32.2765 136.343 35.0165 136.5 37.4992C137.194 48.387 135.951 59.9931 136.5 70.9587C136.293 74.4911 134.26 76.7553 130.534 76.1221C127.905 75.6741 126.942 73.6358 126.751 71.2142C126.104 62.9757 127.567 53.5615 126.758 45.4267C126.445 42.2701 124.329 39.2728 121.185 38.473C118.598 37.8157 108.027 37.8306 105.188 38.2138C100.403 38.8599 98.3837 42.1775 98.0684 46.6893C97.6622 52.5229 97.6159 62.0926 98.0684 67.8947C98.4412 72.6601 100.982 75.837 105.878 76.1925C110.995 76.5628 116.699 75.7371 121.773 76.174C125.379 76.4832 127.406 78.6196 126.645 82.3242C126.094 85.0012 123.964 85.7103 121.519 85.8936C113.598 86.4897 104.932 85.4308 96.9297 85.8788C92.156 85.3882 88.9699 83.0592 88.5934 78.1068V4.5728C88.5897 -1.25156 97.5343 -1.60888 98.0906 4.05812C98.8139 11.4006 94.6374 27.5352 105.366 28.4571C112.482 29.0681 120.483 27.9017 127.65 28.4516C129.548 28.596 132.372 29.3143 133.841 30.5788Z" fill="#C2C59A"/>
<path id="Vector_2" d="M179.855 73.7983C183.03 77.2863 188.069 75.7719 192.184 76.1847C198.289 76.7975 198.933 85.3267 191.429 85.8914C187.492 86.1876 175.691 86.3487 172.501 84.8287C169.851 83.5661 168.464 81.2463 168.236 78.3601C167.32 66.7983 168.996 54.1054 168.178 42.4252C167.906 41.2478 167.437 39.8056 166.437 39.0558C164.922 37.9172 163.238 38.356 161.593 37.758C158.149 36.5046 157.611 31.6318 160.434 29.4695C162.487 27.8977 165.91 29.3139 167.528 26.3296C169.467 22.7527 166.993 14.5216 168.896 11.6113C171.283 7.96411 177.236 9.26931 177.72 13.7681C178.156 17.8152 176.691 22.9397 180.014 26.287C183.87 30.1711 189.502 27.3293 193.994 28.9437C197 30.0249 197.642 34.0367 195.863 36.4491C193.888 39.1261 188.271 37.8505 185.278 38.1486C180.463 38.6281 178.03 41.8106 177.711 46.4316C177.297 52.3929 177.242 62.2255 177.711 68.148C177.856 69.9697 178.618 72.4339 179.857 73.7965L179.855 73.7983Z" fill="#C2C59A"/>
<path id="Vector_3" d="M43.1551 28.5893C45.9759 28.6652 47.7526 30.6924 47.8843 33.4287C47.0831 47.7175 48.9636 63.1892 47.8991 77.3392C47.493 82.7192 44.6833 85.4759 39.3069 85.8776C31.3657 86.4719 22.7346 85.4333 14.7173 85.8906C7.95929 85.5425 7.58096 76.7282 14.7173 76.1728C20.0955 75.7544 30.1194 77.3928 34.4869 74.9491C36.9943 73.5457 37.9531 71.4667 38.1682 68.6619C39.038 57.2316 37.4746 44.7405 38.1849 33.1973C38.5818 30.4147 40.1934 28.5097 43.1551 28.5893Z" fill="#C2C59A"/>
<path id="Vector_4" d="M70.6271 28.5229C73.0269 28.2655 79.5439 28.16 81.6951 28.8265C84.8757 29.8114 85.7066 33.7548 83.8501 36.343C81.825 39.1682 76.2038 37.8445 73.1141 38.1499C69.0545 38.5517 66.1243 41.3528 65.8034 45.4128C64.9095 56.7135 66.9588 69.7341 65.7812 80.8718C65.0764 87.5274 56.8997 87.3442 56.0855 81.1551L56.1041 42.3803C56.3952 41.1825 56.8552 39.8199 57.8882 39.0534C59.7557 37.6686 62.0498 38.598 64.0249 37.0021C66.4247 35.0656 65.0356 32.3404 66.8364 30.1058C67.8026 28.9061 69.1602 28.6784 70.6253 28.521L70.6271 28.5229Z" fill="#C2C59A"/>
<path id="Vector_5" d="M149.681 28.5877C152.429 28.6284 154.147 30.5242 154.414 33.1717C153.551 48.6305 155.571 65.3464 154.429 80.6589C154.143 84.482 151.172 86.9869 147.442 85.304C145.276 84.3265 144.861 82.5695 144.69 80.3886C143.537 65.5945 145.558 49.3766 144.675 34.4324C144.883 31.2 145.937 28.5322 149.681 28.5877Z" fill="#C2C59A"/>
<path id="Vector_6" d="M3.26032 28.7605C6.13489 28.1699 8.95011 29.3399 9.48237 32.3984L9.4768 72.2266C8.87222 77.7992 0.465495 77.3826 0 71.973V32.9149C0.176183 31.1339 1.39834 29.1455 3.26032 28.7623V28.7605Z" fill="#C2C59A"/>
</g>
</svg>
