<svg width="20" height="20" viewBox="0 0 20 20" fill="none" xmlns="http://www.w3.org/2000/svg">
<path d="M10 19.9674C8.3015 19.9674 6.62313 19.5343 5.14726 18.7149C4.70733 18.4705 4.28137 18.19 3.88088 17.8803C1.41466 15.9729 0 13.0948 0 9.98369C0 9.30701 0.0685972 8.63033 0.203327 7.97252C0.432943 6.85169 0.85192 5.78623 1.44835 4.80648C2.17047 3.61962 3.1144 2.61239 4.25385 1.81186C5.94208 0.626646 7.92935 0 10 0C11.2019 0 12.3779 0.211206 13.4948 0.627056C14.4383 0.97852 15.3222 1.47024 16.122 2.0891C18.5866 3.99651 20 6.87384 20 9.98369C20 10.5525 19.9515 11.1238 19.8558 11.6815C19.3276 14.7578 17.3457 17.4469 14.5537 18.8749C13.1362 19.5999 11.604 19.9678 10.0004 19.9678L10 19.9674ZM10 1.44522C8.2288 1.44522 6.52988 1.98083 5.08647 2.9938C4.11132 3.67868 3.30335 4.54072 2.68556 5.55656C2.17581 6.39401 1.81803 7.30404 1.62169 8.26164C1.50626 8.82472 1.44794 9.4038 1.44794 9.98328C1.44794 12.6441 2.65763 15.106 4.7673 16.7374C5.10947 17.0023 5.47423 17.2422 5.85089 17.4514C7.11234 18.1518 8.54714 18.5217 10.0004 18.5217C11.3724 18.5217 12.6823 18.2076 13.8936 17.5879C16.2822 16.3662 17.9774 14.0671 18.4292 11.4371C18.511 10.9598 18.5525 10.4709 18.5525 9.98369C18.5525 7.32414 17.3436 4.86266 15.2352 3.23125C14.5512 2.70221 13.7954 2.28144 12.9891 1.98124C12.0345 1.62567 11.029 1.44563 10.0004 1.44563L10 1.44522Z" fill="white"/>
<path d="M14.3646 9.09099C14.3646 8.21265 13.492 8.21265 13.492 8.21265C12.6194 8.21265 12.6194 9.09099 12.6194 9.09099C12.6194 9.26543 12.66 9.39697 12.7153 9.50914L12.7005 9.50378C12.9394 9.98171 12.4408 9.99903 12.4408 9.99903H10.8734C10.0009 9.99903 10.0009 9.12069 10.0009 9.12069C10.0009 8.24234 9.12827 8.24234 9.12827 8.24234H7.38229C6.50971 8.24234 6.50971 9.12069 6.50971 9.12069C6.50971 9.26172 6.53757 9.37306 6.57526 9.47244L6.57362 9.47161C6.64039 9.74254 6.44048 9.91903 6.3057 10.0052C5.64491 10.1343 5.63672 10.8568 5.63672 10.8568C5.63672 11.7351 6.5093 11.7351 6.5093 11.7351C7.38188 11.7351 7.38188 10.8568 7.38188 10.8568C7.38188 10.6877 7.34337 10.5599 7.29135 10.4493C7.14387 10.1124 7.37819 10.0213 7.49945 9.99862H9.12786C10.0004 9.99862 10.0004 10.877 10.0004 10.877C10.0004 11.7553 10.873 11.7553 10.873 11.7553H12.619C13.4916 11.7553 13.4916 10.877 13.4916 10.877C13.4916 10.7289 13.4609 10.6139 13.4199 10.5116L13.431 10.5174C13.333 10.1211 13.8103 9.92151 13.8103 9.92151L13.805 9.91945C14.3605 9.73759 14.3642 9.09058 14.3642 9.09058L14.3646 9.09099Z" fill="white"/>
</svg>
