<svg width="31" height="31" viewBox="0 0 31 31" fill="none" xmlns="http://www.w3.org/2000/svg">
<path d="M7.86467 17.5498C7.64779 17.5498 7.45802 17.4758 7.29565 17.3267C7.13328 17.1782 7.05225 16.982 7.05225 16.738C7.05225 16.5217 7.13328 16.3319 7.29624 16.169L9.32656 14.1386C10.3016 13.1635 11.3304 12.6761 12.4133 12.6761C13.4962 12.6761 14.5656 13.1503 15.5407 14.0983L16.5562 15.1541C16.9077 15.5062 17.2398 15.7496 17.5507 15.8849C17.8616 16.0201 18.1937 16.0879 18.5458 16.0879C18.898 16.0879 19.2295 16.014 19.5404 15.8648C19.8515 15.7157 20.1833 15.4653 20.5355 15.1131L22.526 13.1232C22.7152 12.9334 22.9047 12.8385 23.0944 12.8385C23.3107 12.8385 23.5073 12.9131 23.6832 13.0622C23.8591 13.2113 23.9475 13.4208 23.9475 13.6913C23.9475 13.8811 23.8527 14.0706 23.6629 14.2597L21.6729 16.2907C21.1581 16.8055 20.6436 17.1709 20.1294 17.3871C19.6146 17.604 19.0868 17.7122 18.5455 17.7122C18.0042 17.7122 17.4758 17.604 16.961 17.3871C16.4462 17.1709 15.9456 16.8187 15.4588 16.3313L14.403 15.2755C13.7529 14.626 13.0896 14.301 12.413 14.301C11.7364 14.301 11.1129 14.6399 10.4637 15.3165L8.43281 17.3064C8.27044 17.4688 8.08067 17.5498 7.86438 17.5498H7.86467Z" fill="#878787"/>
</svg>
