<svg width="14" height="14" viewBox="0 0 14 14" fill="none" xmlns="http://www.w3.org/2000/svg">
<path d="M13.6183 3.66331C13.4593 3.0683 12.9906 2.5996 12.3955 2.44055C11.3171 2.15149 6.99214 2.15149 6.99214 2.15149C6.99214 2.15149 2.6672 2.15149 1.58873 2.44055C0.993711 2.5996 0.525011 3.0683 0.365961 3.66331C0.0769043 4.74178 0.0769043 6.99215 0.0769043 6.99215C0.0769043 6.99215 0.0769043 9.24252 0.365961 10.321C0.525011 10.916 0.993711 11.3847 1.58873 11.5438C2.6672 11.8328 6.99214 11.8328 6.99214 11.8328C6.99214 11.8328 11.3171 11.8328 12.3955 11.5438C12.9906 11.3847 13.4593 10.916 13.6183 10.321C13.9074 9.24252 13.9074 6.99215 13.9074 6.99215C13.9074 6.99215 13.9074 4.74178 13.6183 3.66331ZM5.60909 9.06672V4.91758L9.20225 6.99215L5.60909 9.06672Z" fill="#878787"/>
</svg>
