<svg width="32" height="31" viewBox="0 0 32 31" fill="none" xmlns="http://www.w3.org/2000/svg">
<path d="M15.9998 8.70239C12.1245 8.70239 8.98291 11.7458 8.98291 15.5C8.98291 19.2542 12.1245 22.2976 15.9998 22.2976C19.8751 22.2976 23.0167 19.2542 23.0167 15.5C23.0167 11.7458 19.8751 8.70239 15.9998 8.70239ZM20.3593 18.3012L19.6177 19.7513C19.4155 20.1432 19.1998 20.3262 18.93 20.3262C18.8086 20.3262 18.6739 20.287 18.3636 20.1565C17.8915 19.9735 17.7701 19.9605 16.8533 19.9343H12.4165C12.0524 19.9343 11.8906 19.9081 11.7558 19.8167C11.5806 19.6991 11.4726 19.477 11.4726 19.2418C11.4726 18.9804 11.6074 18.7323 11.9986 18.1966L15.3698 13.7287C15.6935 13.2846 15.8015 13.1146 15.8015 12.984C15.8015 12.8665 15.653 12.8143 15.2755 12.8143C14.5607 12.8143 13.8325 13.1149 13.1447 13.6765C12.7268 14.0163 12.6054 14.0814 12.3761 14.0814C12.0524 14.0814 11.7421 13.8071 11.7421 13.5065C11.7421 13.376 11.796 13.2192 11.904 12.9578L12.5783 11.4556C12.7402 11.0899 12.9558 10.9331 13.3066 10.9331C13.4234 10.9331 13.6347 10.9897 13.9405 11.1028C14.2237 11.1942 14.5339 11.2204 15.1675 11.2204H19.2266C19.8334 11.2204 20.0491 11.2466 20.1975 11.338C20.3727 11.4426 20.4807 11.6515 20.4807 11.8737C20.4807 12.0959 20.3727 12.3048 20.0357 12.7489L16.3675 17.5695C16.1114 17.896 15.963 18.1574 15.963 18.2358C15.963 18.3663 16.1653 18.4317 16.5428 18.4317C17.6889 18.4317 18.6194 18.1052 19.2938 17.4519C19.685 17.073 19.7522 17.0338 19.9411 17.0338C20.3052 17.0338 20.6155 17.3081 20.6155 17.6217C20.6155 17.7522 20.5479 17.9222 20.3593 18.3009V18.3012Z" fill="#878787"/>
</svg>
