<svg width="51" height="50" viewBox="0 0 51 50" fill="none" xmlns="http://www.w3.org/2000/svg">
<path d="M26.1271 49.7851C21.1892 49.7238 17.156 48.7828 13.3815 46.7882C9.57937 44.7797 6.4784 41.9884 4.09244 38.4163C2.29111 35.7199 1.09023 32.7665 0.462133 29.5759C-0.0770796 26.8458 -0.140284 24.1059 0.250794 21.368C0.770255 17.7405 2.05607 14.3838 4.09836 11.3316C6.49816 7.74759 9.61097 4.94641 13.4289 2.94387C17.5333 0.793063 21.9161 -0.175589 26.5399 0.0260487C31.7305 0.251408 36.459 1.86451 40.6621 4.94838C44.7665 7.95911 47.7232 11.8416 49.4535 16.6414C50.8459 20.5002 51.2607 24.4697 50.6188 28.5143C49.5581 35.2118 46.2537 40.5908 40.8557 44.675C38.0609 46.7882 34.9421 48.2353 31.5291 49.0319C30.9188 49.1743 30.3084 49.3304 29.6882 49.4075C28.278 49.5815 26.8638 49.708 26.1271 49.7851ZM27.8138 34.8698C27.1522 34.7967 26.4826 34.7651 25.8328 34.6386C25.3726 34.5496 25.26 34.2412 25.4437 33.8122C25.5405 33.5829 25.6491 33.3497 25.7933 33.148C26.7334 31.8314 27.6736 30.5168 28.6316 29.2141C32.0347 24.5824 35.4497 19.9625 38.841 15.3248C39.4059 14.5519 39.9333 13.7374 40.3757 12.8894C40.8893 11.9049 40.5357 10.5903 39.6034 10.0941C39.1116 9.83316 38.4855 9.72245 37.9186 9.7185C32.9393 9.68292 27.958 9.68687 22.9787 9.68094C21.0628 9.67896 19.1825 9.5821 17.3555 8.84671C15.8603 8.24378 14.6634 8.83683 13.978 10.2779C13.7627 10.7306 13.5553 11.1873 13.3618 11.6499C12.629 13.3994 11.8784 15.141 11.1852 16.9043C10.5906 18.4146 11.9969 19.6225 13.1326 19.666C13.9266 19.6976 14.5192 19.2943 15.0841 18.8317C16.358 17.786 17.6458 16.764 19.1726 16.0997C20.7369 15.4197 22.3585 15.0935 24.065 15.3228C24.7307 15.4118 24.9341 15.7617 24.6023 16.3409C24.1598 17.1139 23.6858 17.8749 23.1624 18.5945C19.3405 23.8509 15.4989 29.0935 11.6789 34.3519C11.0824 35.1723 10.484 36.0065 10.2272 37.0187C9.89737 38.3155 10.4939 39.5668 11.675 39.9325C12.1194 40.0689 12.6092 40.0927 13.0793 40.0986C14.7108 40.1184 16.3442 40.1045 17.9757 40.1065C21.8114 40.1124 25.6471 40.1144 29.4848 40.1342C30.7588 40.1401 32.0189 40.2627 33.2099 40.7786C33.6188 40.9565 34.0296 41.1345 34.4503 41.2768C35.5702 41.6544 36.3741 41.4191 37.0417 40.4406C37.4644 39.8218 37.814 39.1497 38.1438 38.4736C39.0721 36.5699 39.9787 34.6544 40.8833 32.7388C41.1381 32.1972 41.0789 31.6535 40.8004 31.1297C40.1486 29.904 38.5902 29.5897 37.5374 30.4793C37.2609 30.7125 37.0061 30.9735 36.7474 31.2246C35.6907 32.2525 34.5214 33.1144 33.1546 33.6976C31.4501 34.4251 29.6724 34.7631 27.8178 34.8698H27.8138Z" fill="#44420C"/>
</svg>
