<svg id="ebb37654-ecab-40e2-a7d6-9db568cd802b" data-name="Layer 1" xmlns="http://www.w3.org/2000/svg" viewBox="0 0 600 600"><defs><style>.a84a7f86-6ea9-4a97-a723-fbbdb56f332c{fill:#383838;}.d9106c10-1864-4d3b-8779-a7b43fb7b187{fill:#adadad;}.\30 01a3fc0-faa0-45c5-86d5-6fec725349b3{fill:#606060;}.\31 66c1085-d3ce-41e4-a955-4f371514bb5b,.\32 07f20af-8b9d-490b-b541-785cb9dd0ca6,.\33 dd65e66-ad98-4c3c-96a5-7a10a1f99849,.\34 94c49c0-f9e5-49ef-8202-24774fd4959b,.f03e51dc-5d90-4eb5-97c8-7e0a8c7517de{fill:none;stroke:#000;stroke-miterlimit:10;stroke-width:1.07px;}.\31 66c1085-d3ce-41e4-a955-4f371514bb5b{stroke-dasharray:4.29 12.87;}.f03e51dc-5d90-4eb5-97c8-7e0a8c7517de{stroke-dasharray:4.29 12.86;}.\33 dd65e66-ad98-4c3c-96a5-7a10a1f99849{stroke-dasharray:4.28 12.83;}.\32 07f20af-8b9d-490b-b541-785cb9dd0ca6{stroke-dasharray:4.27 12.82;}</style></defs><title>Artboard 12 copy 2</title><path class="a84a7f86-6ea9-4a97-a723-fbbdb56f332c" d="M460.74,412.2a8.67,8.67,0,1,1,12.23-.83,8.7,8.7,0,0,1-12.23.83m-5.26,6a16.68,16.68,0,1,0-1.59-23.55,16.64,16.64,0,0,0,1.59,23.55Z"/><path class="d9106c10-1864-4d3b-8779-a7b43fb7b187" d="M460.8,400.73a7.45,7.45,0,1,1,.71,10.53A7.44,7.44,0,0,1,460.8,400.73Z"/><path class="001a3fc0-faa0-45c5-86d5-6fec725349b3" d="M455.29,418.45a17,17,0,1,1,23.91-1.62,17,17,0,0,1-23.91,1.62m-1.18,1.36a18.76,18.76,0,1,0-1.79-26.49,18.72,18.72,0,0,0,1.79,26.49Z"/><path class="a84a7f86-6ea9-4a97-a723-fbbdb56f332c" d="M393.67,437.36a8.67,8.67,0,1,1,11.61,3.91,8.7,8.7,0,0,1-11.61-3.91m-7.17,3.56A16.68,16.68,0,1,0,394,418.56a16.64,16.64,0,0,0-7.54,22.37Z"/><path class="d9106c10-1864-4d3b-8779-a7b43fb7b187" d="M398.12,426.79a7.45,7.45,0,1,1-3.37,10A7.44,7.44,0,0,1,398.12,426.79Z"/><path class="001a3fc0-faa0-45c5-86d5-6fec725349b3" d="M386.25,441A17,17,0,1,1,409,448.7,17,17,0,0,1,386.25,441m-1.61.8a18.76,18.76,0,1,0,8.48-25.16,18.72,18.72,0,0,0-8.48,25.16Z"/><path class="a84a7f86-6ea9-4a97-a723-fbbdb56f332c" d="M322.08,434.94a8.67,8.67,0,1,1,9.23,8.06,8.7,8.7,0,0,1-9.23-8.06m-8,.55a16.68,16.68,0,1,0,15.53-17.78,16.64,16.64,0,0,0-15.53,17.78Z"/><path class="d9106c10-1864-4d3b-8779-a7b43fb7b187" d="M330.23,426.87a7.45,7.45,0,1,1-6.94,7.95A7.44,7.44,0,0,1,330.23,426.87Z"/><path class="001a3fc0-faa0-45c5-86d5-6fec725349b3" d="M313.81,435.51a17,17,0,1,1,18.05,15.76,17,17,0,0,1-18.05-15.76m-1.8.12a18.76,18.76,0,1,0,17.47-20,18.72,18.72,0,0,0-17.47,20Z"/><path class="a84a7f86-6ea9-4a97-a723-fbbdb56f332c" d="M256.86,405.3a8.67,8.67,0,1,1,5.44,11,8.7,8.7,0,0,1-5.44-11m-7.59-2.55a16.68,16.68,0,1,0,21.15-10.48,16.64,16.64,0,0,0-21.15,10.48Z"/><path class="d9106c10-1864-4d3b-8779-a7b43fb7b187" d="M267.48,401a7.45,7.45,0,1,1-9.45,4.69A7.44,7.44,0,0,1,267.48,401Z"/><path class="001a3fc0-faa0-45c5-86d5-6fec725349b3" d="M249,402.66a17,17,0,1,1,10.65,21.47A17,17,0,0,1,249,402.66m-1.71-.57a18.76,18.76,0,1,0,23.79-11.79,18.72,18.72,0,0,0-23.79,11.79Z"/><path class="a84a7f86-6ea9-4a97-a723-fbbdb56f332c" d="M208,353a8.67,8.67,0,1,1,.83,12.23A8.7,8.7,0,0,1,208,353m-6-5.26a16.68,16.68,0,1,0,23.55-1.59,16.64,16.64,0,0,0-23.55,1.59Z"/><path class="d9106c10-1864-4d3b-8779-a7b43fb7b187" d="M219.42,353a7.45,7.45,0,1,1-10.53.71A7.44,7.44,0,0,1,219.42,353Z"/><path class="001a3fc0-faa0-45c5-86d5-6fec725349b3" d="M201.7,347.52a17,17,0,1,1,1.62,23.91,17,17,0,0,1-1.62-23.91m-1.36-1.18a18.76,18.76,0,1,0,26.49-1.79,18.72,18.72,0,0,0-26.49,1.79Z"/><path class="a84a7f86-6ea9-4a97-a723-fbbdb56f332c" d="M182.79,285.9a8.67,8.67,0,1,1-3.91,11.61,8.7,8.7,0,0,1,3.91-11.61m-3.56-7.17a16.68,16.68,0,1,0,22.37,7.54,16.64,16.64,0,0,0-22.37-7.54Z"/><path class="d9106c10-1864-4d3b-8779-a7b43fb7b187" d="M193.36,290.34a7.45,7.45,0,1,1-10-3.37A7.44,7.44,0,0,1,193.36,290.34Z"/><path class="001a3fc0-faa0-45c5-86d5-6fec725349b3" d="M179.1,278.48a17,17,0,1,1-7.65,22.71,17,17,0,0,1,7.65-22.71m-.8-1.61a18.76,18.76,0,1,0,25.16,8.48,18.72,18.72,0,0,0-25.16-8.48Z"/><path class="a84a7f86-6ea9-4a97-a723-fbbdb56f332c" d="M185.21,214.31a8.67,8.67,0,1,1-8.06,9.23,8.7,8.7,0,0,1,8.06-9.23m-.55-8a16.68,16.68,0,1,0,17.78,15.53,16.64,16.64,0,0,0-17.78-15.53Z"/><path class="d9106c10-1864-4d3b-8779-a7b43fb7b187" d="M193.28,222.46a7.45,7.45,0,1,1-7.95-6.94A7.44,7.44,0,0,1,193.28,222.46Z"/><path class="001a3fc0-faa0-45c5-86d5-6fec725349b3" d="M184.65,206a17,17,0,1,1-15.76,18.05A17,17,0,0,1,184.65,206m-.12-1.8a18.76,18.76,0,1,0,20,17.47,18.72,18.72,0,0,0-20-17.47Z"/><path class="a84a7f86-6ea9-4a97-a723-fbbdb56f332c" d="M214.85,149.09a8.67,8.67,0,1,1-11,5.44,8.7,8.7,0,0,1,11-5.44m2.55-7.59a16.68,16.68,0,1,0,10.48,21.15A16.64,16.64,0,0,0,217.4,141.5Z"/><path class="d9106c10-1864-4d3b-8779-a7b43fb7b187" d="M219.18,159.71a7.45,7.45,0,1,1-4.69-9.45A7.44,7.44,0,0,1,219.18,159.71Z"/><path class="001a3fc0-faa0-45c5-86d5-6fec725349b3" d="M217.49,141.23A17,17,0,1,1,196,151.88a17,17,0,0,1,21.47-10.65m.57-1.71a18.76,18.76,0,1,0,11.79,23.79,18.72,18.72,0,0,0-11.79-23.79Z"/><path class="a84a7f86-6ea9-4a97-a723-fbbdb56f332c" d="M267.19,100.18A8.67,8.67,0,1,1,255,101a8.7,8.7,0,0,1,12.23-.83m5.26-6A16.68,16.68,0,1,0,274,117.69a16.64,16.64,0,0,0-1.59-23.55Z"/><path class="d9106c10-1864-4d3b-8779-a7b43fb7b187" d="M267.12,111.65a7.45,7.45,0,1,1-.71-10.53A7.44,7.44,0,0,1,267.12,111.65Z"/><path class="001a3fc0-faa0-45c5-86d5-6fec725349b3" d="M272.63,93.93a17,17,0,1,1-23.91,1.62,17,17,0,0,1,23.91-1.62m1.18-1.36a18.76,18.76,0,1,0,1.79,26.49,18.72,18.72,0,0,0-1.79-26.49Z"/><path class="a84a7f86-6ea9-4a97-a723-fbbdb56f332c" d="M425,359.8a8.67,8.67,0,1,1,12.23-.83,8.7,8.7,0,0,1-12.23.83m-5.26,6a16.68,16.68,0,1,0-1.59-23.55,16.64,16.64,0,0,0,1.59,23.55Z"/><path class="d9106c10-1864-4d3b-8779-a7b43fb7b187" d="M425,348.33a7.45,7.45,0,1,1,.71,10.53A7.44,7.44,0,0,1,425,348.33Z"/><path class="001a3fc0-faa0-45c5-86d5-6fec725349b3" d="M419.52,366a17,17,0,1,1,23.91-1.62A17,17,0,0,1,419.52,366m-1.18,1.36a18.76,18.76,0,1,0-1.79-26.49,18.72,18.72,0,0,0,1.79,26.49Z"/><path class="a84a7f86-6ea9-4a97-a723-fbbdb56f332c" d="M333.84,372.58a8.67,8.67,0,1,1,9.23,8.06,8.7,8.7,0,0,1-9.23-8.06m-8,.55a16.68,16.68,0,1,0,15.53-17.78,16.64,16.64,0,0,0-15.53,17.78Z"/><path class="d9106c10-1864-4d3b-8779-a7b43fb7b187" d="M342,364.52a7.45,7.45,0,1,1-6.94,7.95A7.44,7.44,0,0,1,342,364.52Z"/><path class="001a3fc0-faa0-45c5-86d5-6fec725349b3" d="M325.57,373.15a17,17,0,1,1,18.05,15.76,17,17,0,0,1-18.05-15.76m-1.8.12a18.76,18.76,0,1,0,17.47-20,18.72,18.72,0,0,0-17.47,20Z"/><path class="a84a7f86-6ea9-4a97-a723-fbbdb56f332c" d="M260.36,317.19a8.67,8.67,0,1,1,.83,12.23,8.7,8.7,0,0,1-.83-12.23m-6-5.26a16.68,16.68,0,1,0,23.55-1.59,16.64,16.64,0,0,0-23.55,1.59Z"/><path class="d9106c10-1864-4d3b-8779-a7b43fb7b187" d="M271.83,317.25a7.45,7.45,0,1,1-10.53.71A7.44,7.44,0,0,1,271.83,317.25Z"/><path class="001a3fc0-faa0-45c5-86d5-6fec725349b3" d="M254.11,311.74a17,17,0,1,1,1.62,23.91,17,17,0,0,1-1.62-23.91m-1.36-1.18a18.76,18.76,0,1,0,26.49-1.79,18.72,18.72,0,0,0-26.49,1.79Z"/><path class="a84a7f86-6ea9-4a97-a723-fbbdb56f332c" d="M247.57,226.06a8.67,8.67,0,1,1-8.06,9.23,8.7,8.7,0,0,1,8.06-9.23m-.55-8A16.68,16.68,0,1,0,264.8,233.6,16.64,16.64,0,0,0,247,218.08Z"/><path class="d9106c10-1864-4d3b-8779-a7b43fb7b187" d="M255.64,234.22a7.45,7.45,0,1,1-7.95-6.94A7.44,7.44,0,0,1,255.64,234.22Z"/><path class="001a3fc0-faa0-45c5-86d5-6fec725349b3" d="M247,217.79a17,17,0,1,1-15.76,18.05A17,17,0,0,1,247,217.79m-.12-1.8a18.76,18.76,0,1,0,20,17.47,18.72,18.72,0,0,0-20-17.47Z"/><path class="a84a7f86-6ea9-4a97-a723-fbbdb56f332c" d="M303,152.59a8.67,8.67,0,1,1-12.23.83,8.7,8.7,0,0,1,12.23-.83m5.26-6a16.68,16.68,0,1,0,1.59,23.55,16.64,16.64,0,0,0-1.59-23.55Z"/><path class="d9106c10-1864-4d3b-8779-a7b43fb7b187" d="M302.9,164.05a7.45,7.45,0,1,1-.71-10.53A7.44,7.44,0,0,1,302.9,164.05Z"/><path class="001a3fc0-faa0-45c5-86d5-6fec725349b3" d="M308.41,146.34A17,17,0,1,1,284.5,148a17,17,0,0,1,23.91-1.62M309.6,145a18.76,18.76,0,1,0,1.79,26.49A18.72,18.72,0,0,0,309.6,145Z"/><path class="494c49c0-f9e5-49ef-8202-24774fd4959b" d="M269.7,94l1.74-1.26"/><path class="166c1085-d3ce-41e4-a955-4f371514bb5b" d="M282.37,86c141-76.23,344.83,239.42,139.78,340.59"/><path class="494c49c0-f9e5-49ef-8202-24774fd4959b" d="M416.32,429.33l-2,.88"/><path class="494c49c0-f9e5-49ef-8202-24774fd4959b" d="M260,405.87l-1.78,1.21"/><path class="f03e51dc-5d90-4eb5-97c8-7e0a8c7517de" d="M247.35,414C112.21,494.59,24.78,354,189,178.76"/><path class="494c49c0-f9e5-49ef-8202-24774fd4959b" d="M193.43,174.09l1.49-1.55"/><path class="494c49c0-f9e5-49ef-8202-24774fd4959b" d="M456.06,420.45l-1.59,1.45"/><path class="3dd65e66-ad98-4c3c-96a5-7a10a1f99849" d="M444.88,430.41c-65.47,56.61-125.75,77.52-170.46,40C236,438.16,202.65,358.86,246,257.12"/><path class="494c49c0-f9e5-49ef-8202-24774fd4959b" d="M248.61,251.24l.89-2"/><path class="494c49c0-f9e5-49ef-8202-24774fd4959b" d="M306.28,158.29,308,157"/><path class="207f20af-8b9d-490b-b541-785cb9dd0ca6" d="M318.65,149.86C449.33,68,494.52,273.55,367.13,362.41"/><path class="494c49c0-f9e5-49ef-8202-24774fd4959b" d="M361.81,366,360,367.14"/></svg>