<svg id="e0591502-adff-400e-8614-2a67767379c1" data-name="Layer 1" xmlns="http://www.w3.org/2000/svg" viewBox="0 0 600 600"><defs><style>.\30 85eec85-6645-4021-87a7-624479b1c8ec{fill:#4fe89c;}.d8caffc7-b9dc-4ef8-9f38-62a3220a58c2{fill:#ffc440;}.\33 7fb3038-5c21-4aa1-afa6-78c9d23c0b6a{fill:#ee3124;}.\37 96eb8b6-ee0d-4613-830e-bf475f672bfe{fill:#5e6367;}.cae260b1-80fa-491d-86e6-e0f45402c63d{fill:#1e1b1d;}.\38 a66811c-7ba5-4b66-97c4-06e23a7247b6{fill:#d2ccdb;}.\38 3b833bc-81b2-4fb4-90a0-fdb4f2d2dbd5{fill:#3973c6;}.f56d449a-af3c-4f38-baaf-47dcd50902c0{fill:#1846b7;}.\30 8fb48ff-8483-49ec-accb-61e1f52459eb{fill:#96daea;}.\35 374a8e5-5581-476b-9ec4-ca42ce8b6a5f{fill:#797384;}</style></defs><title>Artboard 12 copy 3</title><path class="085eec85-6645-4021-87a7-624479b1c8ec" d="M299.74,240a60,60,0,1,1-60,60,60.05,60.05,0,0,1,60-60m0-55.37A115.36,115.36,0,1,0,415.1,300,115.36,115.36,0,0,0,299.74,184.64Z"/><path class="d8caffc7-b9dc-4ef8-9f38-62a3220a58c2" d="M299.74,182.68A117.32,117.32,0,1,1,182.43,300,117.45,117.45,0,0,1,299.74,182.68m0-12.46A129.78,129.78,0,1,0,429.52,300,129.78,129.78,0,0,0,299.74,170.22Z"/><path class="37fb3038-5c21-4aa1-afa6-78c9d23c0b6a" d="M297,300h0a7.71,7.71,0,0,1,7.69-7.69h52.47a57.68,57.68,0,1,0,0,15.38H304.7A7.71,7.71,0,0,1,297,300Z"/><path class="796eb8b6-ee0d-4613-830e-bf475f672bfe" d="M357.17,292.31H304.7A7.71,7.71,0,0,0,297,300h0a7.71,7.71,0,0,0,7.69,7.69h52.47a58.06,58.06,0,0,0,0-15.38Z"/><circle class="cae260b1-80fa-491d-86e6-e0f45402c63d" cx="304.7" cy="300" r="7.69"/><path class="8a66811c-7ba5-4b66-97c4-06e23a7247b6" d="M174.29,257.55,157.89,252a150.8,150.8,0,0,1,43-64.62l11.43,13a133.5,133.5,0,0,0-38.07,57.17Z"/><path class="83b833bc-81b2-4fb4-90a0-fdb4f2d2dbd5" d="M153,329.49a149,149,0,0,1,.08-59.55A150.69,150.69,0,0,1,157.89,252l16.39,5.54A133.35,133.35,0,0,0,170,273.41a131.83,131.83,0,0,0-.06,52.68Z"/><path class="f56d449a-af3c-4f38-baaf-47dcd50902c0" d="M399.08,412.61l-11.43-13a132.5,132.5,0,0,0,42.43-125.71l17-3.4a150.16,150.16,0,0,1-48,142.1Z"/><path class="f56d449a-af3c-4f38-baaf-47dcd50902c0" d="M299.84,450a148.71,148.71,0,0,1-29.91-3A150.64,150.64,0,0,1,252,442.11l5.54-16.39A133.29,133.29,0,0,0,273.41,430,133.13,133.13,0,0,0,374.66,409.7a133.36,133.36,0,0,0,13-10.07l11.43,13A150.73,150.73,0,0,1,384.41,424a149,149,0,0,1-54.92,23A150.59,150.59,0,0,1,299.84,450Z"/><path class="08fb48ff-8483-49ec-accb-61e1f52459eb" d="M430.07,273.91a132.86,132.86,0,0,0-87.62-99.63L348,157.89a149.8,149.8,0,0,1,99,112.62Z"/><path class="5374a8e5-5581-476b-9ec4-ca42ce8b6a5f" d="M252,442.11a149.8,149.8,0,0,1-99-112.62l17-3.4a132.86,132.86,0,0,0,87.62,99.63Z"/><path class="08fb48ff-8483-49ec-accb-61e1f52459eb" d="M212.36,200.38l-11.43-13A150.66,150.66,0,0,1,215.59,176a150.43,150.43,0,0,1,114.47-23A150.69,150.69,0,0,1,348,157.89l-5.54,16.39A133.32,133.32,0,0,0,326.59,170,133.13,133.13,0,0,0,225.34,190.3,133.32,133.32,0,0,0,212.36,200.38Z"/></svg>