<svg id="1a8178d2-a5be-4f25-acbf-2e15957c154f" data-name="Layer 1" xmlns="http://www.w3.org/2000/svg" viewBox="0 0 600 600"><defs><style>.ae5acc0e-7ae6-4e5e-aa54-043c59fe0b43{fill:#fff;}</style></defs><title>Artboard 12 copy 4</title><path d="M298.84,224.42v74.42H224.42a74.42,74.42,0,1,1,0-148.84h74.42Z"/><path class="ae5acc0e-7ae6-4e5e-aa54-043c59fe0b43" d="M233.72,224.42a9.3,9.3,0,1,1-9.3-9.3A9.3,9.3,0,0,1,233.72,224.42Z"/><path class="ae5acc0e-7ae6-4e5e-aa54-043c59fe0b43" d="M186,224.42a38.37,38.37,0,0,0,38.37,38.37v-2.33a36,36,0,0,1-36-36Z"/><path d="M301.16,224.42V150h74.42a74.42,74.42,0,1,1,0,148.84H301.16Z"/><path class="ae5acc0e-7ae6-4e5e-aa54-043c59fe0b43" d="M412.79,224.42a37.21,37.21,0,1,1-37.21-37.21A37.21,37.21,0,0,1,412.79,224.42Zm-37.21,27.91a27.91,27.91,0,1,0-27.91-27.91A27.91,27.91,0,0,0,375.58,252.33Z"/><path d="M150,375.58A74.42,74.42,0,1,1,224.42,450,74.42,74.42,0,0,1,150,375.58Z"/><path class="ae5acc0e-7ae6-4e5e-aa54-043c59fe0b43" d="M233.72,375.58a9.3,9.3,0,1,1-9.3-9.3A9.3,9.3,0,0,1,233.72,375.58Z"/><path class="ae5acc0e-7ae6-4e5e-aa54-043c59fe0b43" d="M150,374.42H298.84v2.33H150Z"/><path class="ae5acc0e-7ae6-4e5e-aa54-043c59fe0b43" d="M168.6,375.58a55.81,55.81,0,1,1,55.81,55.81A55.81,55.81,0,0,1,168.6,375.58Zm55.81,46.51a46.51,46.51,0,1,0-46.51-46.51A46.51,46.51,0,0,0,224.42,422.09Z"/><path d="M301.16,375.58A74.42,74.42,0,1,1,375.58,450,74.42,74.42,0,0,1,301.16,375.58Z"/><path class="ae5acc0e-7ae6-4e5e-aa54-043c59fe0b43" d="M375.58,411.63a36,36,0,1,0-36-36A36,36,0,0,0,375.58,411.63Zm0,2.33a38.37,38.37,0,1,0-38.37-38.37A38.37,38.37,0,0,0,375.58,414Z"/><path class="ae5acc0e-7ae6-4e5e-aa54-043c59fe0b43" d="M329.07,375.58a9.3,9.3,0,1,1-9.3-9.3A9.3,9.3,0,0,1,329.07,375.58Z"/></svg>