<svg xmlns="http://www.w3.org/2000/svg" viewBox="0 0 316 533"><defs><linearGradient id="a" x1="6405" y1="2263" x2="6405" y2="2147" gradientTransform="translate(-6248 -1730)" gradientUnits="userSpaceOnUse"><stop offset="0" stop-color="#fff" stop-opacity="0"/><stop offset=".413" stop-color="#fff" stop-opacity=".8"/><stop offset=".659" stop-color="#fff"/></linearGradient></defs><g style="isolation:isolate"><path d="M261.818 83.088h-7.615v-1.2h7.615zm0 3.2h-7.615v-1.2h7.615zM261.818 195.729h-7.615v-1.2h7.615zm0 3.2h-7.615v-1.2h7.615zM261.818 319.088h-7.615v-1.2h7.615zm0 3.2h-7.615v-1.2h7.615z"/><circle cx="204.551" cy="85" r="8" fill="#b7edb9"/><path d="M160.774 84.48h-3.28v3.376h-1.2V84.48H153v-1.2h3.295v-3.36h1.2v3.36h3.28zM208.347 58.602l-.678.343-1.874-3.703-.706-1.593-.008.005.723 6.235-.606.307-4.597-4.275-.008.004.866 1.513 1.875 3.702-.68.343-2.98-5.89 1.098-.554 3.104 2.923 1.192 1.247.017-.01-.285-1.693-.53-4.237 1.097-.556zM212.859 53.853l-3.363 1.702a1.803 1.803 0 0 0 .983.825 1.552 1.552 0 0 0 1.193-.134 1.967 1.967 0 0 0 .73-.582.988.988 0 0 0 .194-.715l.755.01a2.068 2.068 0 0 1-.348 1.084 2.598 2.598 0 0 1-1.014.828 2.313 2.313 0 0 1-1.896.186 2.684 2.684 0 0 1-1.437-1.413 2.764 2.764 0 0 1-.315-1.982 2.215 2.215 0 0 1 1.245-1.404 2.29 2.29 0 0 1 1.22-.27 1.993 1.993 0 0 1 1.067.402 2.67 2.67 0 0 1 .77.945 4.02 4.02 0 0 1 .216.518zm-3.73-.14a1.785 1.785 0 0 0 .054 1.204l2.704-1.368a1.83 1.83 0 0 0-.905-.77 1.336 1.336 0 0 0-1.08.104 1.47 1.47 0 0 0-.774.83zM215.517 54.765a1.79 1.79 0 0 1-1.14-.37l.377-.695a1.213 1.213 0 0 0 .826.322 2.099 2.099 0 0 0 .981-.25 1.603 1.603 0 0 0 .708-.594.62.62 0 0 0 .037-.613.526.526 0 0 0-.469-.284 3.268 3.268 0 0 0-1.047.189 5.208 5.208 0 0 1-1.159.234 1.382 1.382 0 0 1-.757-.144 1.245 1.245 0 0 1-.488-.543 1.284 1.284 0 0 1-.125-.778 1.67 1.67 0 0 1 .37-.798 2.843 2.843 0 0 1 2.115-.97 1.637 1.637 0 0 1 1.029.494l-.426.664a1.26 1.26 0 0 0-.744-.397 1.471 1.471 0 0 0-.822.181 1.496 1.496 0 0 0-.64.57.618.618 0 0 0-.074.61.563.563 0 0 0 .493.321 3.247 3.247 0 0 0 1.081-.2 3.328 3.328 0 0 1 1.542-.208 1.153 1.153 0 0 1 .817.662 1.234 1.234 0 0 1 .119.798 1.675 1.675 0 0 1-.414.798 2.982 2.982 0 0 1-.9.669 2.915 2.915 0 0 1-1.29.332zM220.22 52.385a1.79 1.79 0 0 1-1.14-.37l.377-.695a1.212 1.212 0 0 0 .824.323 2.1 2.1 0 0 0 .982-.25 1.597 1.597 0 0 0 .708-.595.623.623 0 0 0 .038-.612.528.528 0 0 0-.47-.285 3.264 3.264 0 0 0-1.047.189 5.204 5.204 0 0 1-1.16.234 1.378 1.378 0 0 1-.756-.144 1.245 1.245 0 0 1-.488-.543 1.263 1.263 0 0 1-.124-.778 1.658 1.658 0 0 1 .37-.797 2.486 2.486 0 0 1 .835-.654 2.459 2.459 0 0 1 1.28-.316 1.637 1.637 0 0 1 1.028.493l-.427.664a1.254 1.254 0 0 0-.744-.396 1.471 1.471 0 0 0-.821.18 1.493 1.493 0 0 0-.642.571.618.618 0 0 0-.072.609.563.563 0 0 0 .493.321 3.247 3.247 0 0 0 1.081-.199 3.326 3.326 0 0 1 1.542-.209 1.153 1.153 0 0 1 .818.662 1.234 1.234 0 0 1 .117.798 1.666 1.666 0 0 1-.414.798 2.958 2.958 0 0 1-.9.669 2.908 2.908 0 0 1-1.289.332zM228.378 47.757l.24.585a1.786 1.786 0 0 1-.49.36 1.003 1.003 0 0 1-.626.126.834.834 0 0 1-.511-.38 1.493 1.493 0 0 1-.357.791 2.293 2.293 0 0 1-.745.596 2.04 2.04 0 0 1-1.245.244 1.151 1.151 0 0 1-.877-.672 1.242 1.242 0 0 1 .001-1.104 3.033 3.033 0 0 1 1.034-1.167l1.088-.798-.127-.25a1.06 1.06 0 0 0-.639-.573 1.184 1.184 0 0 0-.902.12 1.46 1.46 0 0 0-.847 1.493l-.72-.116a1.686 1.686 0 0 1 .262-1.131 2.415 2.415 0 0 1 .989-.87 2.229 2.229 0 0 1 1.47-.262 1.526 1.526 0 0 1 1.055.889l1.111 2.195a.369.369 0 0 0 .203.2.392.392 0 0 0 .298-.05 1.63 1.63 0 0 0 .335-.226zm-1.937.679a.905.905 0 0 0 .054-.903l-.312-.615-.904.693a2.654 2.654 0 0 0-.737.76.672.672 0 0 0-.035.661.539.539 0 0 0 .429.316 1.166 1.166 0 0 0 .673-.156 1.934 1.934 0 0 0 .832-.756zM233.034 45.749a1.052 1.052 0 0 1 .749.595 1.225 1.225 0 0 1 .088.903 2.112 2.112 0 0 1-.547.904 3.782 3.782 0 0 1-1.023.736 3.26 3.26 0 0 1-1.698.45 1.092 1.092 0 0 1-.95-.589.867.867 0 0 1-.06-.642 1.3 1.3 0 0 1 .407-.621 1.394 1.394 0 0 1-.612-.116.829.829 0 0 1-.409-.398.936.936 0 0 1-.1-.639 1.186 1.186 0 0 1 .327-.574 1.444 1.444 0 0 1-.747-.267 1.698 1.698 0 0 1-.524-.626 1.523 1.523 0 0 1-.163-.898 1.71 1.71 0 0 1 .38-.864 2.704 2.704 0 0 1 1.85-.953 1.308 1.308 0 0 1 .796-1.547l.477.543q-.873.443-.813 1.029a1.617 1.617 0 0 1 .663.28 1.605 1.605 0 0 1 .631 1.457 1.712 1.712 0 0 1-.38.865 2.51 2.51 0 0 1-.85.67 2.917 2.917 0 0 1-.726.268.796.796 0 0 0-.285.39.607.607 0 0 0 .07.425.476.476 0 0 0 .341.276.76.76 0 0 0 .491-.092l1.48-.75a1.737 1.737 0 0 1 1.137-.215zm-4.385-2.085a.978.978 0 0 0 .678 1.338 1.45 1.45 0 0 0 1.552-.786.978.978 0 0 0-.677-1.338 1.449 1.449 0 0 0-1.553.786zm4.39 3.824a.699.699 0 0 0 .125-.73.495.495 0 0 0-.4-.29 1.441 1.441 0 0 0-.75.212l-1.196.604a1.285 1.285 0 0 0-.559.468.516.516 0 0 0-.017.52.658.658 0 0 0 .643.34 2.78 2.78 0 0 0 1.195-.363 2.477 2.477 0 0 0 .959-.76zM237.394 41.434l-3.363 1.702a1.81 1.81 0 0 0 .983.825 1.556 1.556 0 0 0 1.194-.133 1.976 1.976 0 0 0 .73-.583.991.991 0 0 0 .194-.714l.755.01a2.075 2.075 0 0 1-.347 1.084 2.604 2.604 0 0 1-1.016.827 2.311 2.311 0 0 1-1.896.187 2.686 2.686 0 0 1-1.437-1.413 2.77 2.77 0 0 1-.315-1.982 2.217 2.217 0 0 1 1.247-1.404 2.276 2.276 0 0 1 1.218-.27 1.99 1.99 0 0 1 1.067.402 2.66 2.66 0 0 1 .77.945 4.013 4.013 0 0 1 .216.517zm-3.73-.14a1.779 1.779 0 0 0 .055 1.205l2.703-1.37a1.825 1.825 0 0 0-.904-.768 1.338 1.338 0 0 0-1.08.104 1.469 1.469 0 0 0-.773.829z"/><circle cx="204.551" cy="197.64" r="8" fill="#6fdc74"/><path d="M160.774 197.12h-3.28v3.376h-1.2v-3.376H153v-1.2h3.295v-3.36h1.2v3.36h3.28zM200.727 172.902l.962 1.9 2.658-1.345.339.669-2.66 1.346 1.343 2.65-.714.361-2.98-5.89 4.121-2.085.34.669zM205.167 170.347a.656.656 0 1 1 .461-.05.587.587 0 0 1-.461.05zm3.51 5.088l-.714.361-2.257-4.461.713-.361zM210.41 173.056a.882.882 0 0 0 .34.417.519.519 0 0 0 .444-.063 1.891 1.891 0 0 0 .312-.192 2.272 2.272 0 0 0 .277-.263l.231.746a1.88 1.88 0 0 1-.597.46 1.149 1.149 0 0 1-.957.113 1.473 1.473 0 0 1-.718-.768l-2.737-5.406.713-.361zM215.865 169.33l-3.364 1.703a1.812 1.812 0 0 0 .984.825 1.557 1.557 0 0 0 1.194-.133 1.976 1.976 0 0 0 .73-.583.992.992 0 0 0 .194-.714l.756.01a2.079 2.079 0 0 1-.349 1.084 2.608 2.608 0 0 1-1.015.827 2.307 2.307 0 0 1-1.895.186 2.683 2.683 0 0 1-1.438-1.413 2.775 2.775 0 0 1-.315-1.981 2.215 2.215 0 0 1 1.246-1.404 2.28 2.28 0 0 1 1.219-.27 2.001 2.001 0 0 1 1.066.401 2.674 2.674 0 0 1 .77.945 3.875 3.875 0 0 1 .217.518zm-3.73-.14a1.78 1.78 0 0 0 .055 1.206l2.704-1.37a1.83 1.83 0 0 0-.905-.768 1.336 1.336 0 0 0-1.08.104 1.473 1.473 0 0 0-.774.828z"/><circle cx="204.551" cy="321" r="8" fill="#ffe19f"/><path d="M160.774 320.48h-3.28v3.376h-1.2v-3.376H153v-1.2h3.295v-3.36h1.2v3.36h3.28zM206.403 298.745l.339.67-4.087 2.068-2.98-5.89.713-.36 2.642 5.22zM209.198 293.229a3.149 3.149 0 0 1 1.724 3.409 2.628 2.628 0 0 1-3.167 1.602 3.151 3.151 0 0 1-1.724-3.408 2.627 2.627 0 0 1 3.167-1.603zm-2.415 1.793a2.491 2.491 0 0 0 1.264 2.498 1.641 1.641 0 0 0 2.123-1.074 2.495 2.495 0 0 0-1.264-2.498 1.642 1.642 0 0 0-2.123 1.074zM216.483 294.126a1.052 1.052 0 0 1 .749.595 1.222 1.222 0 0 1 .087.904 2.102 2.102 0 0 1-.546.903 3.783 3.783 0 0 1-1.023.737 3.27 3.27 0 0 1-1.699.45 1.093 1.093 0 0 1-.949-.59.866.866 0 0 1-.06-.641 1.298 1.298 0 0 1 .408-.622 1.412 1.412 0 0 1-.614-.115.838.838 0 0 1-.409-.399.94.94 0 0 1-.1-.638 1.186 1.186 0 0 1 .328-.574 1.448 1.448 0 0 1-.746-.268 1.69 1.69 0 0 1-.525-.626 1.522 1.522 0 0 1-.163-.897 1.707 1.707 0 0 1 .38-.865 2.704 2.704 0 0 1 1.85-.953 1.308 1.308 0 0 1 .797-1.547l.476.543q-.873.443-.812 1.029a1.617 1.617 0 0 1 .663.28 1.606 1.606 0 0 1 .63 1.457 1.705 1.705 0 0 1-.38.865 2.498 2.498 0 0 1-.849.67 2.928 2.928 0 0 1-.727.268.795.795 0 0 0-.285.39.6.6 0 0 0 .07.425.477.477 0 0 0 .34.277.766.766 0 0 0 .493-.093l1.48-.75a1.733 1.733 0 0 1 1.136-.215zm-4.385-2.085a.978.978 0 0 0 .677 1.338 1.448 1.448 0 0 0 1.553-.786.977.977 0 0 0-.677-1.338 1.45 1.45 0 0 0-1.553.786zm4.39 3.824a.701.701 0 0 0 .125-.73.497.497 0 0 0-.4-.29 1.446 1.446 0 0 0-.75.212l-1.196.605a1.284 1.284 0 0 0-.559.467.516.516 0 0 0-.017.52.656.656 0 0 0 .642.34 2.773 2.773 0 0 0 1.196-.363 2.472 2.472 0 0 0 .959-.76zM215.249 288.244a.656.656 0 1 1 .462-.05.588.588 0 0 1-.462.05zm3.51 5.088l-.713.361-2.257-4.461.712-.361zM221.753 286.65a1.788 1.788 0 0 1 1.128 1.009l1.446 2.855-.714.362-1.319-2.605a1.6 1.6 0 0 0-.81-.858 1.18 1.18 0 0 0-.955.092 1.648 1.648 0 0 0-.591.495 1.359 1.359 0 0 0-.255.768 1.991 1.991 0 0 0 .248.99l1.201 2.373-.713.361-2.257-4.461.623-.316.397.673a1.554 1.554 0 0 1 .316-.905 2.22 2.22 0 0 1 .785-.639 2.024 2.024 0 0 1 1.47-.195zM261.818 461.088h-7.615v-1.2h7.615zm0 3.2h-7.615v-1.2h7.615z"/><circle cx="204.551" cy="463" r="8" fill="#ffc440"/><path d="M160.774 462.48h-3.28v3.376h-1.2v-3.376H153v-1.2h3.295v-3.36h1.2v3.36h3.28z"/><g><path d="M203.436 438.3a2.065 2.065 0 0 1 1.323 2.615 2.328 2.328 0 0 1-1.19 1.214l-1.365.69 1.165 2.303-.714.361-2.98-5.89 2.078-1.051a2.327 2.327 0 0 1 1.683-.241zm.558 2.42a1.408 1.408 0 0 0-.854-1.686 1.712 1.712 0 0 0-1.155.232l-1.258.636 1.138 2.249 1.258-.637a1.712 1.712 0 0 0 .87-.794zM205.167 437.347a.656.656 0 1 1 .461-.05.587.587 0 0 1-.461.05zm3.51 5.088l-.714.361-2.257-4.461.713-.361zM211.672 435.752a1.785 1.785 0 0 1 1.127 1.01l1.446 2.855-.714.362-1.319-2.606a1.598 1.598 0 0 0-.81-.857 1.178 1.178 0 0 0-.955.092 1.651 1.651 0 0 0-.591.495 1.37 1.37 0 0 0-.255.768 1.99 1.99 0 0 0 .248.99l1.201 2.373-.713.36-2.257-4.46.624-.317.396.674a1.562 1.562 0 0 1 .316-.905 2.21 2.21 0 0 1 .786-.639 2.024 2.024 0 0 1 1.47-.195zM219.195 436.753a1.057 1.057 0 0 1 .75.595 1.216 1.216 0 0 1 .086.904 2.097 2.097 0 0 1-.545.903 3.803 3.803 0 0 1-1.023.737 3.275 3.275 0 0 1-1.7.45 1.093 1.093 0 0 1-.948-.59.865.865 0 0 1-.062-.64 1.306 1.306 0 0 1 .409-.623 1.411 1.411 0 0 1-.614-.115.834.834 0 0 1-.408-.398.942.942 0 0 1-.1-.64 1.186 1.186 0 0 1 .327-.573 1.452 1.452 0 0 1-.746-.267 1.687 1.687 0 0 1-.524-.626 1.532 1.532 0 0 1-.164-.898 1.72 1.72 0 0 1 .381-.865 2.704 2.704 0 0 1 1.849-.953 1.308 1.308 0 0 1 .797-1.547l.477.543c-.584.296-.854.638-.813 1.029a1.624 1.624 0 0 1 .663.28 1.608 1.608 0 0 1 .63 1.457 1.714 1.714 0 0 1-.38.866 2.523 2.523 0 0 1-.848.67 2.96 2.96 0 0 1-.729.268.8.8 0 0 0-.284.39.604.604 0 0 0 .07.424.479.479 0 0 0 .341.277.766.766 0 0 0 .492-.093l1.481-.75a1.729 1.729 0 0 1 1.135-.215zm-4.385-2.085a.98.98 0 0 0 .678 1.338 1.451 1.451 0 0 0 1.553-.785.979.979 0 0 0-.678-1.34 1.452 1.452 0 0 0-1.553.787zm4.39 3.824a.703.703 0 0 0 .126-.73.5.5 0 0 0-.4-.29 1.446 1.446 0 0 0-.75.212l-1.196.605a1.284 1.284 0 0 0-.56.467.52.52 0 0 0-.017.52.656.656 0 0 0 .643.34 2.77 2.77 0 0 0 1.196-.363 2.468 2.468 0 0 0 .959-.76z"/></g><g><path d="M116.55 193.5a29.947 29.947 0 0 1-11.44 23.572" fill="none" stroke="#b7edb9" stroke-miterlimit="10" stroke-width="10"/><circle cx="86.551" cy="193.5" r="22.039" fill="#a59493"/><path d="M86.55 216.985a23.485 23.485 0 1 1 23.486-23.485 23.511 23.511 0 0 1-23.485 23.485zm0-45.547a22.062 22.062 0 1 0 22.062 22.062 22.086 22.086 0 0 0-22.061-22.062z" fill="#e0e0e0"/><path d="M106.238 180.69a23.502 23.502 0 0 0-30.361-8.114l-.69-1.35a25.018 25.018 0 0 1 32.32 8.637z" fill="#c7c7c7"/><path d="M70.894 175.995l-1.01-1.129a24.999 24.999 0 0 1 5.303-3.64l.689 1.35a23.545 23.545 0 0 0-4.982 3.42z" fill="#6d6d6d"/><path d="M63.95 187.094l-1.458-.411a24.958 24.958 0 0 1 7.392-11.817l1.01 1.13a23.446 23.446 0 0 0-6.944 11.098z" fill="#d8c7c7"/><path d="M76.702 216.485a25.036 25.036 0 0 1-14.21-29.802l1.458.411a23.523 23.523 0 0 0 13.35 28z" fill="#847f7f"/><path d="M86.55 218.5a24.85 24.85 0 0 1-9.848-2.014l.597-1.394a23.51 23.51 0 0 0 27.37-6.647l1.167.964a24.934 24.934 0 0 1-19.285 9.091z" fill="#b7b0ae"/><path d="M105.836 209.41l-1.168-.965a23.494 23.494 0 0 0 1.57-27.754l1.27-.828a25.01 25.01 0 0 1-1.672 29.546z" fill="#969696"/><circle cx="86.551" cy="193.5" r="25" fill="#ee3124" style="mix-blend-mode:overlay"/><g fill="#626262"><path d="M108.389 190.562a21.594 21.594 0 0 1 0 5.877M108.389 190.562H86.55a2.938 2.938 0 0 0 0 5.877h21.838a21.594 21.594 0 0 0 0-5.877z"/></g><circle cx="86.551" cy="193.5" r="2.938" fill="#1c1c1c"/></g><g data-name="urbit"><circle cx="86.551" cy="85" r="22.039" fill="#a59493"/><path d="M86.55 108.485A23.485 23.485 0 1 1 110.037 85a23.511 23.511 0 0 1-23.485 23.485zm0-45.547A22.062 22.062 0 1 0 108.613 85a22.086 22.086 0 0 0-22.061-22.062z" fill="#e0e0e0"/><path d="M106.238 72.19a23.502 23.502 0 0 0-30.361-8.114l-.69-1.35a25.018 25.018 0 0 1 32.32 8.637z" fill="#c7c7c7"/><path d="M70.894 67.495l-1.01-1.129a24.999 24.999 0 0 1 5.303-3.64l.689 1.35a23.545 23.545 0 0 0-4.982 3.42z" fill="#6d6d6d"/><path d="M63.95 78.594l-1.458-.411a24.958 24.958 0 0 1 7.392-11.817l1.01 1.13a23.446 23.446 0 0 0-6.944 11.098z" fill="#d8c7c7"/><path d="M76.702 107.985a25.036 25.036 0 0 1-14.21-29.802l1.458.411a23.523 23.523 0 0 0 13.35 28z" fill="#847f7f"/><path d="M86.55 110a24.85 24.85 0 0 1-9.848-2.014l.597-1.394a23.51 23.51 0 0 0 27.37-6.647l1.167.964A24.934 24.934 0 0 1 86.551 110z" fill="#b7b0ae"/><path d="M105.836 100.91l-1.168-.965a23.494 23.494 0 0 0 1.57-27.754l1.27-.828a25.01 25.01 0 0 1-1.672 29.546z" fill="#969696"/><circle data-name="overlay" cx="86.551" cy="85" r="25" fill="#ee3124" style="mix-blend-mode:overlay"/><g><path d="M108.389 82.062a21.594 21.594 0 0 1 0 5.877" fill="#444"/><path d="M108.389 82.062H86.55a2.938 2.938 0 0 0 0 5.877h21.838a21.594 21.594 0 0 0 0-5.877z" fill="#626262"/></g><circle cx="86.551" cy="85" r="2.938" fill="#1c1c1c"/></g><g><path d="M116.55 326a29.947 29.947 0 0 1-11.44 23.572" fill="none" stroke="#b7edb9" stroke-miterlimit="10" stroke-width="10"/><path d="M58.52 336.714a30.038 30.038 0 0 1 7.035-32.143M75.837 354.03a30.093 30.093 0 0 1-17.316-17.316M105.11 349.572a30.047 30.047 0 0 1-29.273 4.458" fill="none" stroke="#6fdc74" stroke-miterlimit="10" stroke-width="10"/><g data-name="urbit"><circle cx="86.551" cy="326" r="22.039" fill="#a59493"/><path d="M86.55 349.485A23.485 23.485 0 1 1 110.037 326a23.511 23.511 0 0 1-23.485 23.485zm0-45.547A22.062 22.062 0 1 0 108.613 326a22.086 22.086 0 0 0-22.061-22.062z" fill="#e0e0e0"/><path d="M106.238 313.19a23.502 23.502 0 0 0-30.361-8.114l-.69-1.35a25.018 25.018 0 0 1 32.32 8.637z" fill="#c7c7c7"/><path d="M70.894 308.495l-1.01-1.129a24.999 24.999 0 0 1 5.303-3.64l.689 1.35a23.545 23.545 0 0 0-4.982 3.42z" fill="#6d6d6d"/><path d="M63.95 319.594l-1.458-.411a24.958 24.958 0 0 1 7.392-11.817l1.01 1.13a23.446 23.446 0 0 0-6.944 11.098z" fill="#d8c7c7"/><path d="M76.702 348.985a25.036 25.036 0 0 1-14.21-29.802l1.458.411a23.523 23.523 0 0 0 13.35 28z" fill="#847f7f"/><path d="M86.55 351a24.85 24.85 0 0 1-9.848-2.014l.597-1.394a23.51 23.51 0 0 0 27.37-6.647l1.167.964A24.934 24.934 0 0 1 86.551 351z" fill="#b7b0ae"/><path d="M105.836 341.91l-1.168-.965a23.494 23.494 0 0 0 1.57-27.754l1.27-.828a25.01 25.01 0 0 1-1.672 29.546z" fill="#969696"/><circle data-name="overlay" cx="86.551" cy="326" r="25" fill="#ee3124" style="mix-blend-mode:overlay"/><g fill="#626262"><path d="M108.389 323.062a21.594 21.594 0 0 1 0 5.877M108.389 323.062H86.55a2.938 2.938 0 1 0 0 5.877h21.838a21.594 21.594 0 0 0 0-5.877z"/></g><circle cx="86.551" cy="326" r="2.938" fill="#1c1c1c"/></g></g><g><path d="M116.55 460a29.947 29.947 0 0 1-11.44 23.572" fill="none" stroke="#b7edb9" stroke-miterlimit="10" stroke-width="10"/><path d="M101.551 434.014A30.147 30.147 0 0 1 112.537 445M86.55 430a29.862 29.862 0 0 1 15.001 4.013M65.555 438.571A29.903 29.903 0 0 1 86.551 430" fill="none" stroke="#ffe19f" stroke-miterlimit="10" stroke-width="10"/><path d="M58.52 470.714a30.038 30.038 0 0 1 7.035-32.143M75.837 488.03a30.093 30.093 0 0 1-17.316-17.316M105.11 483.572a30.047 30.047 0 0 1-29.273 4.458" fill="none" stroke="#6fdc74" stroke-miterlimit="10" stroke-width="10"/><g data-name="urbit"><circle cx="86.551" cy="460" r="22.039" fill="#a59493"/><path d="M86.55 483.485A23.485 23.485 0 1 1 110.037 460a23.511 23.511 0 0 1-23.485 23.485zm0-45.547A22.062 22.062 0 1 0 108.613 460a22.086 22.086 0 0 0-22.061-22.062z" fill="#e0e0e0"/><path d="M106.238 447.19a23.502 23.502 0 0 0-30.361-8.114l-.69-1.35a25.018 25.018 0 0 1 32.32 8.637z" fill="#c7c7c7"/><path d="M70.894 442.495l-1.01-1.129a24.999 24.999 0 0 1 5.303-3.64l.689 1.35a23.545 23.545 0 0 0-4.982 3.42z" fill="#6d6d6d"/><path d="M63.95 453.594l-1.458-.411a24.958 24.958 0 0 1 7.392-11.817l1.01 1.13a23.446 23.446 0 0 0-6.944 11.098z" fill="#d8c7c7"/><path d="M76.702 482.985a25.036 25.036 0 0 1-14.21-29.802l1.458.411a23.523 23.523 0 0 0 13.35 28z" fill="#847f7f"/><path d="M86.55 485a24.85 24.85 0 0 1-9.848-2.014l.597-1.394a23.51 23.51 0 0 0 27.37-6.647l1.167.964A24.934 24.934 0 0 1 86.551 485z" fill="#b7b0ae"/><path d="M105.836 475.91l-1.168-.965a23.494 23.494 0 0 0 1.57-27.754l1.27-.828a25.01 25.01 0 0 1-1.672 29.546z" fill="#969696"/><g fill="#444"><path d="M108.389 457.062a21.594 21.594 0 0 1 0 5.877M108.389 457.062H86.55a2.938 2.938 0 1 0 0 5.877h21.838a21.594 21.594 0 0 0 0-5.877z"/></g><circle cx="86.551" cy="460" r="2.938" fill="#1c1c1c"/><circle data-name="overlay" cx="86.551" cy="460" r="25" fill="#dc3826" style="mix-blend-mode:overlay"/></g></g><path transform="rotate(180 157 475)" fill="url(#a)" d="M0 417h314v116H0z"/></g></svg>