<svg id="2ce78a00-4719-4a88-9fc9-4ea0bb78a32d" data-name="Layer 1" xmlns="http://www.w3.org/2000/svg" viewBox="0 0 449 448"><defs><style>.d37ec2d3-7abc-4cb5-b0dd-959961c88de7{fill:#7f7f7f;}.ee91d65e-7c5d-447a-8714-6393406eefbb{fill:#202020;}.d4ac54c1-58e4-4e5d-bcbf-dfa72837e220{fill:#462bf5;}.\38 9d4b283-abe4-4ec7-8bd0-d3357886db23{fill:#6483f9;}.a89af3b1-0383-4b8d-8447-3bc93b973b47{fill:#eb8a3c;}.de89e1ae-ceaf-42d1-b610-82620e4ee3be{fill:#34a77c;}.\32 efd0765-11fb-44e9-9dc7-defc0af44157{fill:#ea553b;}</style></defs><title>Artboard 7</title><path class="d37ec2d3-7abc-4cb5-b0dd-959961c88de7" d="M224.92,96H225V0a226.27,226.27,0,0,0-46.48,4.89l19.95,93.85A128.51,128.51,0,0,1,224.92,96Z"/><path class="ee91d65e-7c5d-447a-8714-6393406eefbb" d="M198.47,98.74,178.52,4.89c-40.46,8.6-72.37,24.86-103.11,52.54l64.12,71.22A127.61,127.61,0,0,1,198.47,98.74Z"/><path class="d4ac54c1-58e4-4e5d-bcbf-dfa72837e220" d="M96.92,224a127.67,127.67,0,0,1,42.61-95.35L75.41,57.43C19.53,107.74-6.06,176.18,3.1,250.81l94.72-11.63A129.27,129.27,0,0,1,96.92,224Z"/><path class="89d4b283-abe4-4ec7-8bd0-d3357886db23" d="M97.82,239.18,3.1,250.81C13.68,337,67,404,148.54,433.65l32.53-89.37A128.13,128.13,0,0,1,97.82,239.18Z"/><path class="a89af3b1-0383-4b8d-8447-3bc93b973b47" d="M224.92,352a127.75,127.75,0,0,1-43.86-7.71l-32.53,89.37C221.05,460,294,449.79,356.41,404.43l-56-77.07A127.41,127.41,0,0,1,224.92,352Z"/><path class="de89e1ae-ceaf-42d1-b610-82620e4ee3be" d="M300.41,327.36l56,77.07c53-38.54,84.08-92.29,90.93-157.5l-95.06-10A127.87,127.87,0,0,1,300.41,327.36Z"/><path class="2efd0765-11fb-44e9-9dc7-defc0af44157" d="M225,0V96A128,128,0,0,1,352.92,224a129.46,129.46,0,0,1-.65,13l95.06,10a202,202,0,0,0,1.22-23.37C448.56,100.1,348.47,0,225,0Z"/></svg>