<svg xmlns="http://www.w3.org/2000/svg" viewBox="0 0 600 600">
  <title>3-iot</title>
  <g id="network-diagram">
    <g>
      <rect x="327.3" y="294" width="55" height="43.69" fill="#6fdc74"/>
      <polygon points="140 379.6 60.8 379.5 60.8 317.1 100.5 289.8 140 317.1 140 379.6" fill="#6fdc74"/>
      <g>
        <path d="M301.3,148h0a1.7,1.7,0,0,1,1.7-1.7h11.7a12.8,12.8,0,1,0,0,3.4H303A1.8,1.8,0,0,1,301.3,148Z" fill="#6fdc74"/>
        <g>
          <path d="M267,148a34.4,34.4,0,0,1,4.7-17.5,35.7,35.7,0,0,1,12.8-12.8,34.9,34.9,0,0,1,35,0,35.7,35.7,0,0,1,12.8,12.8,35.1,35.1,0,0,1,4.7,17.6" fill="none" stroke="#6fdc74" stroke-miterlimit="10" stroke-width="9.12"/>
          <path d="M302,182.9a34.4,34.4,0,0,1-17.5-4.7,33.5,33.5,0,0,1-12.8-12.8,34.4,34.4,0,0,1-4.7-17.5" fill="none" stroke="#9ae69e" stroke-miterlimit="10" stroke-width="9.12"/>
          <path d="M319.5,178.3a36,36,0,0,1-17.5,4.6" fill="none" stroke="#c5f1c7" stroke-miterlimit="10" stroke-width="9.12"/>
          <path d="M336.9,148a35,35,0,0,1-4.7,17.5,35.7,35.7,0,0,1-12.8,12.8" fill="none" stroke="#e2f8e3" stroke-miterlimit="10" stroke-width="9.12"/>
        </g>
      </g>
      <path d="M227.3,388.9c-.1,20.5-29.4,37-65.6,37s-65.5-16.7-65.4-37.1" fill="none" stroke="#000" stroke-linecap="round" stroke-miterlimit="10" stroke-dasharray="0.5 6"/>
      <path d="M357.7,389c0,36.1-58.5,65.3-130.7,65.2S96.2,424.9,96.2,388.9" fill="none" stroke="#000" stroke-linecap="round" stroke-miterlimit="10" stroke-dasharray="0.5 6"/>
      <path d="M488.7,389.1c0,54.1-87.9,97.9-196.3,97.9S96.2,443,96.2,388.9" fill="none" stroke="#000" stroke-linecap="round" stroke-miterlimit="10" stroke-dasharray="0.5 6"/>
      <path d="M488.7,389.1c0,36.1-58.5,65.3-130.7,65.2S227.2,425,227.2,389" fill="none" stroke="#000" stroke-linecap="round" stroke-miterlimit="10" stroke-dasharray="0.5 6"/>
      <path d="M358.3,389c-.1,20.5-29.4,37-65.6,37s-65.5-16.6-65.4-37.1" fill="none" stroke="#000" stroke-linecap="round" stroke-miterlimit="10" stroke-dasharray="0.5 6"/>
      <path d="M489.3,389.1c-.1,20.5-29.4,37-65.6,37s-65.5-16.6-65.4-37.1" fill="none" stroke="#000" stroke-linecap="round" stroke-miterlimit="10" stroke-dasharray="0.5 6"/>
      <g>
        <g>
          <path d="M364.6,284v-.3" fill="none" stroke="#000" stroke-linecap="round" stroke-miterlimit="10"/>
          <path d="M363.9,277.7c-7.2-34.8-63.5-22.5-68.5-84.9" fill="none" stroke="#000" stroke-linecap="round" stroke-miterlimit="10" stroke-dasharray="0.5 6.05"/>
          <path d="M295.2,189.8v-.3" fill="none" stroke="#000" stroke-linecap="round" stroke-miterlimit="10"/>
        </g>
        <g>
          <path d="M477.3,284.1v-.3" fill="none" stroke="#000" stroke-linecap="round" stroke-miterlimit="10"/>
          <path d="M475.8,278.1c-15.5-35.2-141.6-22.7-152.7-85.4" fill="none" stroke="#000" stroke-linecap="round" stroke-miterlimit="10" stroke-dasharray="0.49 5.94"/>
          <path d="M322.7,189.8c0-.1,0-.2-.1-.2" fill="none" stroke="#000" stroke-linecap="round" stroke-miterlimit="10"/>
        </g>
        <g>
          <path d="M240.1,283.9v-.3" fill="none" stroke="#000" stroke-linecap="round" stroke-miterlimit="10"/>
          <path d="M240.8,277.6c7.2-34.8,63.5-22.4,68.6-84.8" fill="none" stroke="#000" stroke-linecap="round" stroke-miterlimit="10" stroke-dasharray="0.5 6.05"/>
          <path d="M309.6,189.8v-.3" fill="none" stroke="#000" stroke-linecap="round" stroke-miterlimit="10"/>
        </g>
        <g>
          <path d="M127.3,283.8a.4.4,0,0,0,.1-.3" fill="none" stroke="#000" stroke-linecap="round" stroke-miterlimit="10"/>
          <path d="M128.9,277.8c15.5-35.2,141.7-22.4,152.9-85.1" fill="none" stroke="#000" stroke-linecap="round" stroke-miterlimit="10" stroke-dasharray="0.49 5.94"/>
          <path d="M282.2,189.8v-.3" fill="none" stroke="#000" stroke-linecap="round" stroke-miterlimit="10"/>
        </g>
      </g>
      <path d="M99.9,339.9h0a1.4,1.4,0,0,1,1.4-1.4h9.1a10,10,0,0,0-9.9-8.7,10.1,10.1,0,1,0,9.9,11.4h-9.1A1.3,1.3,0,0,1,99.9,339.9Z" fill="#fff"/>
      <g>
        <rect x="188" y="322.8" width="79.2" height="33.55" fill="#6fdc74"/>
        <g>
          <circle cx="202" cy="355.9" r="8.9" fill="#6fdc74"/>
          <circle cx="253.2" cy="355.9" r="8.9" fill="#6fdc74"/>
        </g>
      </g>
      <path d="M226.9,339.9h0a1.4,1.4,0,0,1,1.4-1.4h9.1a10,10,0,0,0-9.9-8.7,10.1,10.1,0,1,0,9.9,11.4h-9.1A1.3,1.3,0,0,1,226.9,339.9Z" fill="#fff"/>
      <rect x="315.2" y="313.3" width="79.2" height="53.71" fill="#6fdc74"/>
      <path d="M353.9,339.9h0a1.4,1.4,0,0,1,1.4-1.4h9.1a10.1,10.1,0,1,0,0,2.7h-9.1A1.3,1.3,0,0,1,353.9,339.9Z" fill="#fff"/>
      <g>
        <rect x="451.3" y="309.2" width="77.8" height="54.76" fill="#6fdc74"/>
        <rect x="439.4" y="364" width="99.8" height="6.47" fill="#6fdc74"/>
      </g>
      <path d="M489.8,339.9h0a1.3,1.3,0,0,1,1.3-1.4h9.2a10,10,0,0,0-20,1.4,10,10,0,0,0,10,10,10.1,10.1,0,0,0,10-8.7h-9.2A1.3,1.3,0,0,1,489.8,339.9Z" fill="#fff"/>
    </g>
  </g>
</svg>
