<svg id="90fa932d-15f9-4a7e-9d76-c74740af9deb" data-name="Layer 1" xmlns="http://www.w3.org/2000/svg" viewBox="0 0 433 268"><defs><style>.\33 e25e228-bee7-4759-ad6e-a1b42c0b6168{fill:#4330fc;}.\32 49541f4-6bb3-4610-afc6-0554e5ede7bb,.\38 e90d773-4862-4feb-9eb3-0fa6c4a405f9,.b250adeb-2609-492f-b41d-3d52903c6ee9,.b2624f4b-fccb-4cbb-ae8d-b692d5cd4984,.e1433d49-2f89-47d1-a5a4-960229e9985a{fill:none;stroke-miterlimit:10;}.\32 49541f4-6bb3-4610-afc6-0554e5ede7bb,.b250adeb-2609-492f-b41d-3d52903c6ee9{stroke:#fff;}.e6aa79a1-4220-4634-8d19-ef1f0e75a31d{fill:#e6e6e6;}.b2624f4b-fccb-4cbb-ae8d-b692d5cd4984{stroke:#5e6367;stroke-width:2px;}.\31 25838ce-92a1-472b-8000-1cca0f85f968{fill:#f2f2f2;}.\32 10be99e-a5ab-4b62-a017-22ec024e9673{fill:#666;}.\38 e90d773-4862-4feb-9eb3-0fa6c4a405f9{stroke:#4d4d4d;}.\32 49541f4-6bb3-4610-afc6-0554e5ede7bb,.e1433d49-2f89-47d1-a5a4-960229e9985a{stroke-width:3px;}.\32 49541f4-6bb3-4610-afc6-0554e5ede7bb{stroke-dasharray:3 3;}.\36 99fbd22-ae27-44d9-a105-74567b8f391c{fill:#fff;}.\31 40ec0b5-822c-48a9-9c10-cd0e988d1d4e{fill:#fe6a32;}.e1433d49-2f89-47d1-a5a4-960229e9985a{stroke:#b3b3b3;}</style></defs><title>Artboard 1 copy 5</title><rect class="3e25e228-bee7-4759-ad6e-a1b42c0b6168" x="161.38" y="211.05" width="44.14" height="44.14" transform="translate(366.9 466.23) rotate(180)"/><rect class="3e25e228-bee7-4759-ad6e-a1b42c0b6168" x="10.48" y="211.05" width="44.14" height="44.14" transform="translate(65.1 466.23) rotate(180)"/><rect class="3e25e228-bee7-4759-ad6e-a1b42c0b6168" x="57.24" y="211.05" width="11.03" height="44.14" transform="translate(125.52 466.23) rotate(180)"/><rect class="3e25e228-bee7-4759-ad6e-a1b42c0b6168" x="70.62" y="211.05" width="88.28" height="44.14" transform="translate(229.52 466.23) rotate(180)"/><rect class="3e25e228-bee7-4759-ad6e-a1b42c0b6168" x="10.5" y="8" width="195" height="60" transform="translate(216 76) rotate(180)"/><line class="b250adeb-2609-492f-b41d-3d52903c6ee9" x1="185.3" y1="223.96" x2="186.26" y2="219.47"/><line class="b250adeb-2609-492f-b41d-3d52903c6ee9" x1="180.64" y1="219.47" x2="181.59" y2="223.96"/><line class="b250adeb-2609-492f-b41d-3d52903c6ee9" x1="181.59" y1="223.96" x2="180.64" y2="219.47"/><line class="b250adeb-2609-492f-b41d-3d52903c6ee9" x1="175.47" y1="221.72" x2="178.18" y2="225.44"/><line class="b250adeb-2609-492f-b41d-3d52903c6ee9" x1="171.62" y1="225.87" x2="175.61" y2="228.17"/><line class="b250adeb-2609-492f-b41d-3d52903c6ee9" x1="178.18" y1="225.44" x2="175.47" y2="221.72"/><line class="b250adeb-2609-492f-b41d-3d52903c6ee9" x1="175.61" y1="228.17" x2="171.62" y2="225.87"/><line class="b250adeb-2609-492f-b41d-3d52903c6ee9" x1="169.77" y1="231.26" x2="174.34" y2="231.74"/><line class="b250adeb-2609-492f-b41d-3d52903c6ee9" x1="192.27" y1="235.56" x2="196.65" y2="236.98"/><line class="b250adeb-2609-492f-b41d-3d52903c6ee9" x1="197.13" y1="231.26" x2="192.56" y2="231.74"/><line class="b250adeb-2609-492f-b41d-3d52903c6ee9" x1="191.29" y1="228.17" x2="195.27" y2="225.87"/><line class="b250adeb-2609-492f-b41d-3d52903c6ee9" x1="191.42" y1="221.72" x2="188.72" y2="225.44"/><line class="b250adeb-2609-492f-b41d-3d52903c6ee9" x1="186.26" y1="219.47" x2="185.3" y2="223.96"/><line class="b250adeb-2609-492f-b41d-3d52903c6ee9" x1="188.72" y1="225.44" x2="191.42" y2="221.72"/><line class="b250adeb-2609-492f-b41d-3d52903c6ee9" x1="192.56" y1="231.74" x2="197.13" y2="231.26"/><line class="b250adeb-2609-492f-b41d-3d52903c6ee9" x1="195.27" y1="225.87" x2="191.29" y2="228.17"/><line class="b250adeb-2609-492f-b41d-3d52903c6ee9" x1="187.29" y1="241.33" x2="189.16" y2="245.53"/><line class="b250adeb-2609-492f-b41d-3d52903c6ee9" x1="193.83" y1="242.04" x2="190.42" y2="238.97"/><line class="b250adeb-2609-492f-b41d-3d52903c6ee9" x1="189.16" y1="245.53" x2="187.29" y2="241.33"/><line class="b250adeb-2609-492f-b41d-3d52903c6ee9" x1="183.45" y1="242.17" x2="183.45" y2="246.76"/><line class="b250adeb-2609-492f-b41d-3d52903c6ee9" x1="196.65" y1="236.98" x2="192.27" y2="235.56"/><line class="b250adeb-2609-492f-b41d-3d52903c6ee9" x1="190.42" y1="238.97" x2="193.83" y2="242.04"/><line class="b250adeb-2609-492f-b41d-3d52903c6ee9" x1="183.45" y1="246.76" x2="183.45" y2="242.17"/><line class="b250adeb-2609-492f-b41d-3d52903c6ee9" x1="179.61" y1="241.33" x2="177.74" y2="245.53"/><line class="b250adeb-2609-492f-b41d-3d52903c6ee9" x1="174.63" y1="235.56" x2="170.25" y2="236.98"/><line class="b250adeb-2609-492f-b41d-3d52903c6ee9" x1="173.06" y1="242.04" x2="176.48" y2="238.97"/><line class="b250adeb-2609-492f-b41d-3d52903c6ee9" x1="177.74" y1="245.53" x2="179.61" y2="241.33"/><line class="b250adeb-2609-492f-b41d-3d52903c6ee9" x1="176.48" y1="238.97" x2="173.06" y2="242.04"/><circle class="e6aa79a1-4220-4634-8d19-ef1f0e75a31d" cx="183.45" cy="233.12" r="11.03"/><line class="b2624f4b-fccb-4cbb-ae8d-b692d5cd4984" x1="192.06" y1="226.22" x2="185.36" y2="231.59"/><circle class="125838ce-92a1-472b-8000-1cca0f85f968" cx="95.1" cy="233.12" r="13.79"/><path class="210be99e-a5ab-4b62-a017-22ec024e9673" d="M99.16,233.95l6.75,1.43a11,11,0,0,0-5.19-11.77l-3.45,6"/><path class="210be99e-a5ab-4b62-a017-22ec024e9673" d="M93.94,229.15l-2.13-6.56a11,11,0,0,0-7.74,10.53H91"/><path class="210be99e-a5ab-4b62-a017-22ec024e9673" d="M92.41,236.25l-4.62,5.13a11,11,0,0,0,7.31,2.77,11.18,11.18,0,0,0,1.28-.08,11,11,0,0,0,4.33-1.46l-3.45-6"/><circle class="125838ce-92a1-472b-8000-1cca0f85f968" cx="134.41" cy="233.12" r="13.79" transform="translate(-134.21 217.28) rotate(-56.66)"/><path class="210be99e-a5ab-4b62-a017-22ec024e9673" d="M137.34,236l4.85,4.91a11,11,0,0,0,2.13-12.68l-6.17,3.1"/><path class="210be99e-a5ab-4b62-a017-22ec024e9673" d="M135.62,229.16l1.83-6.66a11,11,0,0,0-12.25,4.55l5.76,3.79"/><path class="210be99e-a5ab-4b62-a017-22ec024e9673" d="M130.44,234.25,123.76,236a11,11,0,0,0,4.58,6.34,11.18,11.18,0,0,0,1.11.64,11,11,0,0,0,4.42,1.16l.4-6.89"/><circle class="e6aa79a1-4220-4634-8d19-ef1f0e75a31d" cx="32.55" cy="233.43" r="13.79"/><path class="8e90d773-4862-4feb-9eb3-0fa6c4a405f9" d="M18.76,234.27h3.48c2.1.46,2.86,2.52,4.08,4,.38.53.84,1.15,1.45,1.07a2.18,2.18,0,0,0,.94-.28,2.83,2.83,0,0,0,.72-.61,8.52,8.52,0,0,0,.8-1.15c1.2-2,1.51-4.37,2.27-6.59.53-1.38,1.3-3.36,2.9-3.29.84,0,1.38,1.07,1.91,1.91,1.07,1.76,1.76,4,3.81,4.85.62,0,1.19,0,1.72,0h3.48"/><path class="249541f4-6bb3-4610-afc6-0554e5ede7bb" d="M338.5,95.5c-38.14-6.84-78.29,48.94-116.57,51.42"/><polygon class="699fbd22-ae27-44d9-a105-74567b8f391c" points="228.77 136.1 230.58 137.67 222.84 146.62 232.32 153.69 230.88 155.62 219.33 147 228.77 136.1"/><path class="699fbd22-ae27-44d9-a105-74567b8f391c" d="M352.52,101.92l-1.95,3.63-3.7-2,1.95-3.63v-8.8l3.68,2-.17,3-.27,2.3,1.77-1.5,2.39-1.8L359.85,97Z"/><path class="699fbd22-ae27-44d9-a105-74567b8f391c" d="M364,103.74a5.2,5.2,0,0,1-3.26,6.09,6.23,6.23,0,0,1-6.54-3.5,5.2,5.2,0,0,1,3.26-6.09,6.23,6.23,0,0,1,6.54,3.5Zm-4.56-.48a1,1,0,0,0-.49.37,9.61,9.61,0,0,0-1.1,2.06,1,1,0,0,0,0,.61,1,1,0,0,0,1,.51,1,1,0,0,0,.49-.37,9.56,9.56,0,0,0,1.1-2.06,1,1,0,0,0,0-.61,1,1,0,0,0-1-.51Z"/><path class="699fbd22-ae27-44d9-a105-74567b8f391c" d="M375.23,108.55,371,116.49l-3.28-1.76.82-1.72a3.2,3.2,0,0,1-1.76.83,3.27,3.27,0,0,1-1.9-.43,2.94,2.94,0,0,1-1.57-1.69,3.23,3.23,0,0,1,.46-2.42l2.87-5.36,3.65,2-2.39,4.46a1.6,1.6,0,0,0-.26.8.57.57,0,0,0,.34.45q.73.39,1.4-.86l2.22-4.14Z"/><path class="699fbd22-ae27-44d9-a105-74567b8f391c" d="M383,112.74l-1.9,2.82a1.3,1.3,0,0,0-.31-.4,2.61,2.61,0,0,0-.55-.39,2,2,0,0,0-1.34-.27,1.41,1.41,0,0,0-1,.79l-2,3.81-3.65-2,4.25-7.93,3.29,1.76-1,2q1.72-1.84,3.48-.89A1.63,1.63,0,0,1,383,112.74Z"/><path class="699fbd22-ae27-44d9-a105-74567b8f391c" d="M397.73,116.52l-6,11.11-3.28-1.76.73-1.63a3.39,3.39,0,0,1-1.66.74,2.87,2.87,0,0,1-1.77-.36,3,3,0,0,1-1.68-2.27,5.67,5.67,0,0,1,.83-3.43,5.83,5.83,0,0,1,2.45-2.65,3,3,0,0,1,2.83.11,2.6,2.6,0,0,1,1.15,1.13,3,3,0,0,1,.29,1.56l2.41-4.5Zm-8.32,6.29a2.83,2.83,0,0,0,.81-1l.07-.13a2.87,2.87,0,0,0,.41-1.23.71.71,0,0,0-.39-.68.77.77,0,0,0-.8,0,2.86,2.86,0,0,0-.86,1.11,2.92,2.92,0,0,0-.45,1.34.77.77,0,0,0,.44.67A.71.71,0,0,0,389.41,122.82Z"/><path class="699fbd22-ae27-44d9-a105-74567b8f391c" d="M402.95,131l-1.28,1.7a2.58,2.58,0,0,1-1.34-.31,3.91,3.91,0,0,1-1.44-1.21,2,2,0,0,1-.34-1.46,2.88,2.88,0,0,1-1.59.4,4.39,4.39,0,0,1-1.94-.58,3.3,3.3,0,0,1-1.58-1.47,1.92,1.92,0,0,1,.15-1.73,2.24,2.24,0,0,1,1.57-1.21,6.5,6.5,0,0,1,2.89.32l1.76.49.17-.32a1,1,0,0,0,.12-.67.76.76,0,0,0-.42-.49.94.94,0,0,0-.72-.11,1.22,1.22,0,0,0-.64.63l-2.77-2.07a3.21,3.21,0,0,1,2.28-1.51,5.49,5.49,0,0,1,3.32.81,5.61,5.61,0,0,1,2.68,2.48,3.37,3.37,0,0,1-.31,3l-1.19,2.22q-.35.65.19.94A1.08,1.08,0,0,0,402.95,131Zm-4.74-2.55a.91.91,0,0,0,.5-.48l.41-.76-.61-.12a1.21,1.21,0,0,0-.69,0,.85.85,0,0,0-.47.41.59.59,0,0,0-.06.5.65.65,0,0,0,.32.36A.74.74,0,0,0,398.21,128.47Z"/><path class="699fbd22-ae27-44d9-a105-74567b8f391c" d="M408.61,136.16a4.11,4.11,0,0,1-1.28-.18,6.71,6.71,0,0,1-1.37-.54,4.66,4.66,0,0,1-2.2-2,2.93,2.93,0,0,1,.32-2.62l1.5-2.81-1.22-.65,1.32-2.46,1.22.66.9-1.68,4.19.94-1.45,2.7,2,1.07L411.23,131l-2-1.07-1.2,2.24a1.2,1.2,0,0,0-.18.89,1.12,1.12,0,0,0,.6.62,2.52,2.52,0,0,0,1.11.33Z"/><path class="699fbd22-ae27-44d9-a105-74567b8f391c" d="M419.24,139.75l-1.28,1.7a2.6,2.6,0,0,1-1.34-.31,3.93,3.93,0,0,1-1.44-1.21,2,2,0,0,1-.34-1.46,2.88,2.88,0,0,1-1.59.4,4.36,4.36,0,0,1-1.94-.58,3.3,3.3,0,0,1-1.58-1.47,1.92,1.92,0,0,1,.15-1.73,2.23,2.23,0,0,1,1.57-1.21,6.49,6.49,0,0,1,2.89.31l1.76.49.17-.32a1,1,0,0,0,.12-.67.76.76,0,0,0-.42-.49.94.94,0,0,0-.72-.11,1.21,1.21,0,0,0-.64.63l-2.77-2.07a3.22,3.22,0,0,1,2.28-1.51,5.5,5.5,0,0,1,3.32.81,5.6,5.6,0,0,1,2.68,2.48,3.36,3.36,0,0,1-.31,3l-1.19,2.22q-.35.65.19.94A1.08,1.08,0,0,0,419.24,139.75Zm-4.74-2.55a.91.91,0,0,0,.5-.48l.41-.76-.61-.12a1.21,1.21,0,0,0-.69,0,.85.85,0,0,0-.47.41.6.6,0,0,0-.06.5.64.64,0,0,0,.32.36A.74.74,0,0,0,414.5,137.2Z"/><rect class="3e25e228-bee7-4759-ad6e-a1b42c0b6168" x="10.5" y="68" width="195.03" height="140" transform="translate(216.03 276) rotate(180)"/><circle class="125838ce-92a1-472b-8000-1cca0f85f968" cx="190.52" cy="190.5" r="5"/><circle class="125838ce-92a1-472b-8000-1cca0f85f968" cx="175.52" cy="190.5" r="5"/><circle class="125838ce-92a1-472b-8000-1cca0f85f968" cx="160.52" cy="190.5" r="5"/><circle class="125838ce-92a1-472b-8000-1cca0f85f968" cx="145.52" cy="190.5" r="5"/><circle class="125838ce-92a1-472b-8000-1cca0f85f968" cx="130.52" cy="190.5" r="5"/><circle class="125838ce-92a1-472b-8000-1cca0f85f968" cx="115.52" cy="190.5" r="5"/><circle class="125838ce-92a1-472b-8000-1cca0f85f968" cx="100.52" cy="190.5" r="5"/><circle class="125838ce-92a1-472b-8000-1cca0f85f968" cx="85.52" cy="190.5" r="5"/><circle class="125838ce-92a1-472b-8000-1cca0f85f968" cx="70.52" cy="190.5" r="5"/><circle class="125838ce-92a1-472b-8000-1cca0f85f968" cx="55.52" cy="190.5" r="5"/><circle class="125838ce-92a1-472b-8000-1cca0f85f968" cx="40.52" cy="190.5" r="5"/><circle class="125838ce-92a1-472b-8000-1cca0f85f968" cx="25.52" cy="190.5" r="5"/><circle class="125838ce-92a1-472b-8000-1cca0f85f968" cx="190.52" cy="175.5" r="5"/><circle class="125838ce-92a1-472b-8000-1cca0f85f968" cx="175.52" cy="175.5" r="5"/><circle class="125838ce-92a1-472b-8000-1cca0f85f968" cx="160.52" cy="175.5" r="5"/><circle class="125838ce-92a1-472b-8000-1cca0f85f968" cx="145.52" cy="175.5" r="5"/><circle class="125838ce-92a1-472b-8000-1cca0f85f968" cx="130.52" cy="175.5" r="5"/><circle class="125838ce-92a1-472b-8000-1cca0f85f968" cx="115.52" cy="175.5" r="5"/><circle class="125838ce-92a1-472b-8000-1cca0f85f968" cx="100.52" cy="175.5" r="5"/><circle class="125838ce-92a1-472b-8000-1cca0f85f968" cx="85.52" cy="175.5" r="5"/><circle class="125838ce-92a1-472b-8000-1cca0f85f968" cx="70.52" cy="175.5" r="5"/><circle class="125838ce-92a1-472b-8000-1cca0f85f968" cx="55.52" cy="175.5" r="5"/><circle class="125838ce-92a1-472b-8000-1cca0f85f968" cx="40.52" cy="175.5" r="5"/><circle class="125838ce-92a1-472b-8000-1cca0f85f968" cx="25.52" cy="175.5" r="5"/><circle class="125838ce-92a1-472b-8000-1cca0f85f968" cx="190.52" cy="160.5" r="5"/><circle class="125838ce-92a1-472b-8000-1cca0f85f968" cx="175.52" cy="160.5" r="5"/><circle class="125838ce-92a1-472b-8000-1cca0f85f968" cx="160.52" cy="160.5" r="5"/><circle class="125838ce-92a1-472b-8000-1cca0f85f968" cx="145.52" cy="160.5" r="5"/><circle class="125838ce-92a1-472b-8000-1cca0f85f968" cx="130.52" cy="160.5" r="5"/><circle class="125838ce-92a1-472b-8000-1cca0f85f968" cx="115.52" cy="160.5" r="5"/><circle class="125838ce-92a1-472b-8000-1cca0f85f968" cx="100.52" cy="160.5" r="5"/><circle class="125838ce-92a1-472b-8000-1cca0f85f968" cx="85.52" cy="160.5" r="5"/><circle class="125838ce-92a1-472b-8000-1cca0f85f968" cx="70.52" cy="160.5" r="5"/><circle class="125838ce-92a1-472b-8000-1cca0f85f968" cx="55.52" cy="160.5" r="5"/><circle class="125838ce-92a1-472b-8000-1cca0f85f968" cx="40.52" cy="160.5" r="5"/><circle class="125838ce-92a1-472b-8000-1cca0f85f968" cx="25.52" cy="160.5" r="5"/><circle class="140ec0b5-822c-48a9-9c10-cd0e988d1d4e" cx="190.52" cy="145.5" r="5"/><circle class="125838ce-92a1-472b-8000-1cca0f85f968" cx="175.52" cy="145.5" r="5"/><circle class="125838ce-92a1-472b-8000-1cca0f85f968" cx="160.52" cy="145.5" r="5"/><circle class="125838ce-92a1-472b-8000-1cca0f85f968" cx="145.52" cy="145.5" r="5"/><circle class="125838ce-92a1-472b-8000-1cca0f85f968" cx="130.52" cy="145.5" r="5"/><circle class="125838ce-92a1-472b-8000-1cca0f85f968" cx="115.52" cy="145.5" r="5"/><circle class="125838ce-92a1-472b-8000-1cca0f85f968" cx="100.52" cy="145.5" r="5"/><circle class="125838ce-92a1-472b-8000-1cca0f85f968" cx="85.52" cy="145.5" r="5"/><circle class="125838ce-92a1-472b-8000-1cca0f85f968" cx="70.52" cy="145.5" r="5"/><circle class="125838ce-92a1-472b-8000-1cca0f85f968" cx="55.52" cy="145.5" r="5"/><circle class="125838ce-92a1-472b-8000-1cca0f85f968" cx="40.52" cy="145.5" r="5"/><circle class="125838ce-92a1-472b-8000-1cca0f85f968" cx="25.52" cy="145.5" r="5"/><circle class="125838ce-92a1-472b-8000-1cca0f85f968" cx="190.52" cy="130.5" r="5"/><circle class="125838ce-92a1-472b-8000-1cca0f85f968" cx="175.52" cy="130.5" r="5"/><circle class="125838ce-92a1-472b-8000-1cca0f85f968" cx="160.52" cy="130.5" r="5"/><circle class="125838ce-92a1-472b-8000-1cca0f85f968" cx="145.52" cy="130.5" r="5"/><circle class="125838ce-92a1-472b-8000-1cca0f85f968" cx="130.52" cy="130.5" r="5"/><circle class="125838ce-92a1-472b-8000-1cca0f85f968" cx="115.52" cy="130.5" r="5"/><circle class="125838ce-92a1-472b-8000-1cca0f85f968" cx="100.52" cy="130.5" r="5"/><circle class="125838ce-92a1-472b-8000-1cca0f85f968" cx="85.52" cy="130.5" r="5"/><circle class="125838ce-92a1-472b-8000-1cca0f85f968" cx="70.52" cy="130.5" r="5"/><circle class="125838ce-92a1-472b-8000-1cca0f85f968" cx="55.52" cy="130.5" r="5"/><circle class="125838ce-92a1-472b-8000-1cca0f85f968" cx="40.52" cy="130.5" r="5"/><circle class="125838ce-92a1-472b-8000-1cca0f85f968" cx="25.52" cy="130.5" r="5"/><circle class="125838ce-92a1-472b-8000-1cca0f85f968" cx="190.52" cy="115.5" r="5"/><circle class="125838ce-92a1-472b-8000-1cca0f85f968" cx="175.52" cy="115.5" r="5"/><circle class="125838ce-92a1-472b-8000-1cca0f85f968" cx="160.52" cy="115.5" r="5"/><circle class="125838ce-92a1-472b-8000-1cca0f85f968" cx="145.52" cy="115.5" r="5"/><circle class="125838ce-92a1-472b-8000-1cca0f85f968" cx="130.52" cy="115.5" r="5"/><circle class="125838ce-92a1-472b-8000-1cca0f85f968" cx="115.52" cy="115.5" r="5"/><circle class="125838ce-92a1-472b-8000-1cca0f85f968" cx="100.52" cy="115.5" r="5"/><circle class="125838ce-92a1-472b-8000-1cca0f85f968" cx="85.52" cy="115.5" r="5"/><circle class="125838ce-92a1-472b-8000-1cca0f85f968" cx="70.52" cy="115.5" r="5"/><circle class="125838ce-92a1-472b-8000-1cca0f85f968" cx="55.52" cy="115.5" r="5"/><circle class="125838ce-92a1-472b-8000-1cca0f85f968" cx="40.52" cy="115.5" r="5"/><circle class="125838ce-92a1-472b-8000-1cca0f85f968" cx="25.52" cy="115.5" r="5"/><circle class="125838ce-92a1-472b-8000-1cca0f85f968" cx="190.52" cy="100.5" r="5"/><circle class="125838ce-92a1-472b-8000-1cca0f85f968" cx="175.52" cy="100.5" r="5"/><circle class="125838ce-92a1-472b-8000-1cca0f85f968" cx="160.52" cy="100.5" r="5"/><circle class="125838ce-92a1-472b-8000-1cca0f85f968" cx="145.52" cy="100.5" r="5"/><circle class="125838ce-92a1-472b-8000-1cca0f85f968" cx="130.52" cy="100.5" r="5"/><circle class="125838ce-92a1-472b-8000-1cca0f85f968" cx="115.52" cy="100.5" r="5"/><circle class="125838ce-92a1-472b-8000-1cca0f85f968" cx="100.52" cy="100.5" r="5"/><circle class="125838ce-92a1-472b-8000-1cca0f85f968" cx="85.52" cy="100.5" r="5"/><circle class="125838ce-92a1-472b-8000-1cca0f85f968" cx="70.52" cy="100.5" r="5"/><circle class="125838ce-92a1-472b-8000-1cca0f85f968" cx="55.52" cy="100.5" r="5"/><circle class="125838ce-92a1-472b-8000-1cca0f85f968" cx="40.52" cy="100.5" r="5"/><circle class="125838ce-92a1-472b-8000-1cca0f85f968" cx="25.52" cy="100.5" r="5"/><circle class="125838ce-92a1-472b-8000-1cca0f85f968" cx="190.52" cy="85.5" r="5"/><circle class="125838ce-92a1-472b-8000-1cca0f85f968" cx="175.52" cy="85.5" r="5"/><circle class="125838ce-92a1-472b-8000-1cca0f85f968" cx="160.52" cy="85.5" r="5"/><circle class="125838ce-92a1-472b-8000-1cca0f85f968" cx="145.52" cy="85.5" r="5"/><circle class="125838ce-92a1-472b-8000-1cca0f85f968" cx="130.52" cy="85.5" r="5"/><circle class="125838ce-92a1-472b-8000-1cca0f85f968" cx="115.52" cy="85.5" r="5"/><circle class="125838ce-92a1-472b-8000-1cca0f85f968" cx="100.52" cy="85.5" r="5"/><circle class="125838ce-92a1-472b-8000-1cca0f85f968" cx="85.52" cy="85.5" r="5"/><circle class="125838ce-92a1-472b-8000-1cca0f85f968" cx="70.52" cy="85.5" r="5"/><circle class="125838ce-92a1-472b-8000-1cca0f85f968" cx="55.52" cy="85.5" r="5"/><circle class="125838ce-92a1-472b-8000-1cca0f85f968" cx="40.52" cy="85.5" r="5"/><circle class="125838ce-92a1-472b-8000-1cca0f85f968" cx="25.52" cy="85.5" r="5"/><path class="699fbd22-ae27-44d9-a105-74567b8f391c" d="M48.94,49.67H42.85V42.8l.09-6.66h-.09L39,49.67H33.43L29.65,36.14h-.12l.09,6.66v6.87H23.5V29.87h9.78l2.28,8.79.87,3.69h.06l.87-3.69,2.28-8.79h9.3Z"/><path class="699fbd22-ae27-44d9-a105-74567b8f391c" d="M68.74,44.54v5.13H51.94V29.87H68.38V35H58.93v2.46h7.62V42.2H58.93v2.34Z"/><path class="699fbd22-ae27-44d9-a105-74567b8f391c" d="M80.35,38.51h9.18V49.67H84.91l-.24-2.25Q83.14,50,79.3,50a9.52,9.52,0,0,1-4.7-1.16,8.23,8.23,0,0,1-3.3-3.43,11.67,11.67,0,0,1-1.21-5.55q0-4.86,2.71-7.56a10.23,10.23,0,0,1,7.54-2.7,11.69,11.69,0,0,1,5.87,1.26A8.21,8.21,0,0,1,89.59,35l-6.51,2.34q-.39-2.52-2.49-2.52A2.87,2.87,0,0,0,78,36a6.81,6.81,0,0,0-.81,3.76,6.83,6.83,0,0,0,.87,3.95,3.16,3.16,0,0,0,2.73,1.19,3.64,3.64,0,0,0,2.08-.53,1.75,1.75,0,0,0,.77-1.54v0H80.35Z"/><path class="699fbd22-ae27-44d9-a105-74567b8f391c" d="M103.81,45.89H98.47l-.93,3.78h-7L97,29.87h8.4l6.45,19.8h-7.14Zm-1-4.35-1.59-6.6h-.09l-.78,3.36-.81,3.24Z"/><path class="699fbd22-ae27-44d9-a105-74567b8f391c" d="M121.72,50a11.34,11.34,0,0,1-5.39-1.2,8.2,8.2,0,0,1-3.48-3.49,11.62,11.62,0,0,1-1.21-5.51,11.62,11.62,0,0,1,1.21-5.5,8.22,8.22,0,0,1,3.48-3.5,12.66,12.66,0,0,1,11.33.29,6.48,6.48,0,0,1,3.06,4.52l-6,2.34a4.38,4.38,0,0,0-.87-2.46,2.66,2.66,0,0,0-2-.63,2.61,2.61,0,0,0-2.34,1.2,7,7,0,0,0-.78,3.75,7.27,7.27,0,0,0,.75,3.75,2.53,2.53,0,0,0,2.31,1.2,2.8,2.8,0,0,0,2-.63,3.49,3.49,0,0,0,.81-2.07l6.18,1.59Q129.34,50,121.72,50Z"/><path class="699fbd22-ae27-44d9-a105-74567b8f391c" d="M149.42,32.25q2.66,2.69,2.65,7.51t-2.65,7.52A9.93,9.93,0,0,1,142,50a11.34,11.34,0,0,1-5.39-1.2,8.2,8.2,0,0,1-3.48-3.49,11.62,11.62,0,0,1-1.21-5.51,11.62,11.62,0,0,1,1.21-5.5,8.22,8.22,0,0,1,3.48-3.5,11.37,11.37,0,0,1,5.39-1.2A9.93,9.93,0,0,1,149.42,32.25ZM139.79,36a7.64,7.64,0,0,0-.71,3.76,7.65,7.65,0,0,0,.71,3.77A2.41,2.41,0,0,0,142,44.72a2.37,2.37,0,0,0,2.22-1.18,7.79,7.79,0,0,0,.69-3.77,7.79,7.79,0,0,0-.69-3.76A2.37,2.37,0,0,0,142,34.82,2.41,2.41,0,0,0,139.79,36Z"/><path class="699fbd22-ae27-44d9-a105-74567b8f391c" d="M163.21,43.1h-1.92v6.57h-6.84V29.87h10.74q4,0,6,1.67a6.05,6.05,0,0,1,2,5q0,4.35-3.57,5.85l4.68,7.32h-7.59Zm-1.92-4.59h2.49a3.27,3.27,0,0,0,1.88-.41,2.09,2.09,0,0,0,0-2.83,3.19,3.19,0,0,0-1.87-.42h-2.49Z"/><path class="699fbd22-ae27-44d9-a105-74567b8f391c" d="M194.41,36.8a5.89,5.89,0,0,1-2.1,4.89q-2.1,1.68-6.21,1.68h-3.51v6.3h-7V29.87h10.5Q194.41,29.87,194.41,36.8Zm-7.58,1.32a2,2,0,0,0,0-2.82,3.1,3.1,0,0,0-1.87-.45h-2.37v3.72H185A3.1,3.1,0,0,0,186.83,38.12Z"/><line class="e1433d49-2f89-47d1-a5a4-960229e9985a" x1="62.76" y1="217.12" x2="62.76" y2="249.12"/></svg>