<svg xmlns="http://www.w3.org/2000/svg" viewBox="0 0 200 200">
  <title>moons</title>
  <g id="Layer_2" data-name="Layer 2">
    <g id="Layer_1-2" data-name="Layer 1">
      <g id="moons">
        <path d="M195,193a2,2,0,1,1-2,2,2,2,0,0,1,2-2m0-3a5,5,0,1,0,5,5,5,5,0,0,0-5-5Z" fill="#777"/>
        <path d="M167.9,193a2,2,0,1,1-2,2,2,2,0,0,1,2-2m0-3a5,5,0,1,0,0,10,5,5,0,0,0,0-10Z" fill="#777"/>
        <path d="M140.7,193a2,2,0,1,1-2,2,2,2,0,0,1,2-2m0-3a5,5,0,0,0,0,10,5,5,0,0,0,0-10Z" fill="#777"/>
        <path d="M113.6,193a2,2,0,1,1-2,2,2,2,0,0,1,2-2m0-3a5,5,0,0,0,0,10,5,5,0,1,0,0-10Z" fill="#777"/>
        <path d="M86.4,193a2,2,0,1,1-2,2,2,2,0,0,1,2-2m0-3a5,5,0,1,0,0,10,5,5,0,0,0,0-10Z" fill="#777"/>
        <path d="M59.3,193a2,2,0,1,1-2,2,2,2,0,0,1,2-2m0-3a5,5,0,0,0,0,10,5,5,0,1,0,0-10Z" fill="#777"/>
        <path d="M32.1,193a2,2,0,1,1-2,2,2,2,0,0,1,2-2m0-3a5,5,0,1,0,0,10,5,5,0,0,0,0-10Z" fill="#777"/>
        <path d="M5,193a2,2,0,1,1-2,2,2,2,0,0,1,2-2m0-3a5,5,0,0,0,0,10,5,5,0,0,0,0-10Z" fill="#777"/>
        <path d="M195,165.9a2,2,0,1,1-2,2,2,2,0,0,1,2-2m0-3a5,5,0,0,0-5,5,5,5,0,0,0,10,0,5,5,0,0,0-5-5Z" fill="#777"/>
        <path d="M167.9,165.9a2,2,0,1,1-2,2,2,2,0,0,1,2-2m0-3a5,5,0,0,0-5,5,5,5,0,0,0,5,5,5.1,5.1,0,0,0,5-5,5,5,0,0,0-5-5Z" fill="#777"/>
        <path d="M140.7,165.9a2,2,0,1,1-2,2,2,2,0,0,1,2-2m0-3a5,5,0,0,0-5,5,5.1,5.1,0,0,0,5,5,5,5,0,0,0,5-5,5,5,0,0,0-5-5Z" fill="#777"/>
        <path d="M113.6,165.9a2,2,0,1,1-2,2,2,2,0,0,1,2-2m0-3a5,5,0,0,0-5,5,5,5,0,0,0,5,5,5.1,5.1,0,0,0,5-5,5,5,0,0,0-5-5Z" fill="#777"/>
        <path d="M86.4,165.9a2,2,0,1,1-2,2,2,2,0,0,1,2-2m0-3a5,5,0,0,0-5,5,5.1,5.1,0,0,0,5,5,5,5,0,0,0,5-5,5,5,0,0,0-5-5Z" fill="#777"/>
        <path d="M59.3,165.9a2,2,0,1,1-2,2,2,2,0,0,1,2-2m0-3a5,5,0,0,0-5,5,5,5,0,0,0,5,5,5.1,5.1,0,0,0,5-5,5,5,0,0,0-5-5Z" fill="#777"/>
        <path d="M32.1,165.9a2,2,0,1,1-2,2,2,2,0,0,1,2-2m0-3a5,5,0,0,0-5,5,5.1,5.1,0,0,0,5,5,5,5,0,0,0,5-5,5,5,0,0,0-5-5Z" fill="#777"/>
        <path d="M5,165.9a2,2,0,1,1-2,2,2,2,0,0,1,2-2m0-3a5,5,0,0,0-5,5,5,5,0,0,0,10,0,5,5,0,0,0-5-5Z" fill="#777"/>
        <path d="M195,138.7a2,2,0,1,1-2,2,2,2,0,0,1,2-2m0-3a5,5,0,0,0-5,5,5,5,0,0,0,10,0,5,5,0,0,0-5-5Z" fill="#777"/>
        <path d="M167.9,138.7a2,2,0,1,1-2,2,2,2,0,0,1,2-2m0-3a5,5,0,0,0-5,5,5,5,0,0,0,5,5,5,5,0,0,0,5-5,5.1,5.1,0,0,0-5-5Z" fill="#777"/>
        <path d="M140.7,138.7a2,2,0,1,1-2,2,2,2,0,0,1,2-2m0-3a5.1,5.1,0,0,0-5,5,5,5,0,0,0,5,5,5,5,0,0,0,5-5,5,5,0,0,0-5-5Z" fill="#777"/>
        <path d="M113.6,138.7a2,2,0,1,1-2,2,2,2,0,0,1,2-2m0-3a5,5,0,0,0-5,5,5,5,0,0,0,5,5,5,5,0,0,0,5-5,5.1,5.1,0,0,0-5-5Z" fill="#777"/>
        <path d="M86.4,138.7a2,2,0,1,1-2,2,2,2,0,0,1,2-2m0-3a5.1,5.1,0,0,0-5,5,5,5,0,0,0,5,5,5,5,0,0,0,5-5,5,5,0,0,0-5-5Z" fill="#777"/>
        <path d="M59.3,138.7a2,2,0,1,1-2,2,2,2,0,0,1,2-2m0-3a5,5,0,0,0-5,5,5,5,0,0,0,5,5,5,5,0,0,0,5-5,5.1,5.1,0,0,0-5-5Z" fill="#777"/>
        <path d="M32.1,138.7a2,2,0,1,1-2,2,2,2,0,0,1,2-2m0-3a5.1,5.1,0,0,0-5,5,5,5,0,0,0,5,5,5,5,0,0,0,5-5,5,5,0,0,0-5-5Z" fill="#777"/>
        <path d="M5,138.7a2,2,0,1,1-2,2,2,2,0,0,1,2-2m0-3a5,5,0,0,0-5,5,5,5,0,0,0,5,5,5,5,0,0,0,5-5,5,5,0,0,0-5-5Z" fill="#777"/>
        <path d="M195,111.6a2,2,0,1,1-2,2,2,2,0,0,1,2-2m0-3a5,5,0,0,0-5,5,5,5,0,1,0,10,0,5,5,0,0,0-5-5Z" fill="#777"/>
        <path d="M167.9,111.6a2,2,0,1,1-2,2,2,2,0,0,1,2-2m0-3a5,5,0,0,0-5,5,5,5,0,0,0,5,5,5.1,5.1,0,0,0,5-5,5,5,0,0,0-5-5Z" fill="#777"/>
        <path d="M140.7,111.6a2,2,0,1,1-2,2,2,2,0,0,1,2-2m0-3a5,5,0,0,0-5,5,5.1,5.1,0,0,0,5,5,5,5,0,0,0,5-5,5,5,0,0,0-5-5Z" fill="#777"/>
        <path d="M113.6,111.6a2,2,0,1,1-2,2,2,2,0,0,1,2-2m0-3a5,5,0,0,0-5,5,5,5,0,0,0,5,5,5.1,5.1,0,0,0,5-5,5,5,0,0,0-5-5Z" fill="#777"/>
        <path d="M86.4,111.6a2,2,0,1,1-2,2,2,2,0,0,1,2-2m0-3a5,5,0,0,0-5,5,5.1,5.1,0,0,0,5,5,5,5,0,0,0,5-5,5,5,0,0,0-5-5Z" fill="#777"/>
        <path d="M59.3,111.6a2,2,0,1,1-2,2,2,2,0,0,1,2-2m0-3a5,5,0,0,0-5,5,5,5,0,0,0,5,5,5.1,5.1,0,0,0,5-5,5,5,0,0,0-5-5Z" fill="#777"/>
        <path d="M32.1,111.6a2,2,0,1,1-2,2,2,2,0,0,1,2-2m0-3a5,5,0,0,0-5,5,5.1,5.1,0,0,0,5,5,5,5,0,0,0,5-5,5,5,0,0,0-5-5Z" fill="#777"/>
        <path d="M5,111.6a2,2,0,1,1-2,2,2,2,0,0,1,2-2m0-3a5,5,0,0,0-5,5,5,5,0,0,0,10,0,5,5,0,0,0-5-5Z" fill="#777"/>
        <path d="M195,84.4a2,2,0,1,1-2,2,2,2,0,0,1,2-2m0-3a5,5,0,0,0-5,5,5,5,0,0,0,10,0,5,5,0,0,0-5-5Z" fill="#777"/>
        <path d="M167.9,84.4a2,2,0,1,1-2,2,2,2,0,0,1,2-2m0-3a5,5,0,0,0-5,5,5,5,0,0,0,5,5,5,5,0,0,0,5-5,5.1,5.1,0,0,0-5-5Z" fill="#777"/>
        <path d="M140.7,84.4a2,2,0,1,1-2,2,2,2,0,0,1,2-2m0-3a5.1,5.1,0,0,0-5,5,5,5,0,0,0,5,5,5,5,0,0,0,5-5,5,5,0,0,0-5-5Z" fill="#777"/>
        <path d="M113.6,84.4a2,2,0,1,1-2,2,2,2,0,0,1,2-2m0-3a5,5,0,0,0-5,5,5,5,0,0,0,5,5,5,5,0,0,0,5-5,5.1,5.1,0,0,0-5-5Z" fill="#777"/>
        <path d="M86.4,84.4a2,2,0,1,1-2,2,2,2,0,0,1,2-2m0-3a5.1,5.1,0,0,0-5,5,5,5,0,0,0,5,5,5,5,0,0,0,5-5,5,5,0,0,0-5-5Z" fill="#777"/>
        <path d="M59.3,84.4a2,2,0,1,1-2,2,2,2,0,0,1,2-2m0-3a5,5,0,0,0-5,5,5,5,0,0,0,5,5,5,5,0,0,0,5-5,5.1,5.1,0,0,0-5-5Z" fill="#777"/>
        <path d="M32.1,84.4a2,2,0,1,1-2,2,2,2,0,0,1,2-2m0-3a5.1,5.1,0,0,0-5,5,5,5,0,0,0,5,5,5,5,0,0,0,5-5,5,5,0,0,0-5-5Z" fill="#777"/>
        <path d="M5,84.4a2,2,0,1,1-2,2,2,2,0,0,1,2-2m0-3a5,5,0,0,0-5,5,5,5,0,0,0,5,5,5,5,0,0,0,5-5,5,5,0,0,0-5-5Z" fill="#777"/>
        <path d="M195,57.3a2,2,0,1,1-2,2,2,2,0,0,1,2-2m0-3a5,5,0,0,0-5,5,5,5,0,1,0,10,0,5,5,0,0,0-5-5Z" fill="#777"/>
        <path d="M167.9,57.3a2,2,0,1,1-2,2,2,2,0,0,1,2-2m0-3a5,5,0,0,0-5,5,5,5,0,0,0,5,5,5.1,5.1,0,0,0,5-5,5,5,0,0,0-5-5Z" fill="#777"/>
        <path d="M140.7,57.3a2,2,0,1,1-2,2,2,2,0,0,1,2-2m0-3a5,5,0,0,0-5,5,5.1,5.1,0,0,0,5,5,5,5,0,0,0,5-5,5,5,0,0,0-5-5Z" fill="#777"/>
        <path d="M113.6,57.3a2,2,0,1,1-2,2,2,2,0,0,1,2-2m0-3a5,5,0,0,0-5,5,5,5,0,0,0,5,5,5.1,5.1,0,0,0,5-5,5,5,0,0,0-5-5Z" fill="#777"/>
        <path d="M86.4,57.3a2,2,0,1,1-2,2,2,2,0,0,1,2-2m0-3a5,5,0,0,0-5,5,5.1,5.1,0,0,0,5,5,5,5,0,0,0,5-5,5,5,0,0,0-5-5Z" fill="#777"/>
        <path d="M59.3,57.3a2,2,0,1,1-2,2,2,2,0,0,1,2-2m0-3a5,5,0,0,0-5,5,5,5,0,0,0,5,5,5.1,5.1,0,0,0,5-5,5,5,0,0,0-5-5Z" fill="#777"/>
        <path d="M32.1,57.3a2,2,0,1,1-2,2,2,2,0,0,1,2-2m0-3a5,5,0,0,0-5,5,5.1,5.1,0,0,0,5,5,5,5,0,0,0,5-5,5,5,0,0,0-5-5Z" fill="#777"/>
        <path d="M5,57.3a2,2,0,1,1-2,2,2,2,0,0,1,2-2m0-3a5,5,0,0,0-5,5,5,5,0,0,0,10,0,5,5,0,0,0-5-5Z" fill="#777"/>
        <path d="M195,30.1a2,2,0,1,1-2,2,2,2,0,0,1,2-2m0-3a5,5,0,0,0-5,5,5,5,0,0,0,10,0,5,5,0,0,0-5-5Z" fill="#777"/>
        <path d="M167.9,30.1a2,2,0,1,1-2,2,2,2,0,0,1,2-2m0-3a5,5,0,0,0-5,5,5,5,0,0,0,5,5,5,5,0,0,0,5-5,5.1,5.1,0,0,0-5-5Z" fill="#777"/>
        <path d="M140.7,30.1a2,2,0,1,1-2,2,2,2,0,0,1,2-2m0-3a5.1,5.1,0,0,0-5,5,5,5,0,0,0,5,5,5,5,0,0,0,5-5,5,5,0,0,0-5-5Z" fill="#777"/>
        <path d="M113.6,30.1a2,2,0,1,1-2,2,2,2,0,0,1,2-2m0-3a5,5,0,0,0-5,5,5,5,0,0,0,5,5,5,5,0,0,0,5-5,5.1,5.1,0,0,0-5-5Z" fill="#777"/>
        <path d="M86.4,30.1a2,2,0,1,1-2,2,2,2,0,0,1,2-2m0-3a5.1,5.1,0,0,0-5,5,5,5,0,0,0,5,5,5,5,0,0,0,5-5,5,5,0,0,0-5-5Z" fill="#777"/>
        <path d="M59.3,30.1a2,2,0,1,1-2,2,2,2,0,0,1,2-2m0-3a5,5,0,0,0-5,5,5,5,0,0,0,5,5,5,5,0,0,0,5-5,5.1,5.1,0,0,0-5-5Z" fill="#777"/>
        <path d="M32.1,30.1a2,2,0,1,1-2,2,2,2,0,0,1,2-2m0-3a5.1,5.1,0,0,0-5,5,5,5,0,0,0,5,5,5,5,0,0,0,5-5,5,5,0,0,0-5-5Z" fill="#777"/>
        <path d="M5,30.1a2,2,0,1,1-2,2,2,2,0,0,1,2-2m0-3a5,5,0,0,0-5,5,5,5,0,0,0,5,5,5,5,0,0,0,5-5,5,5,0,0,0-5-5Z" fill="#777"/>
        <path d="M195,3a2,2,0,1,1-2,2,2,2,0,0,1,2-2m0-3a5,5,0,0,0-5,5,5,5,0,0,0,10,0,5,5,0,0,0-5-5Z" fill="#777"/>
        <path d="M167.9,3a2,2,0,1,1-2,2,2,2,0,0,1,2-2m0-3a5,5,0,0,0-5,5,5,5,0,0,0,5,5,5,5,0,0,0,0-10Z" fill="#777"/>
        <path d="M140.7,3a2,2,0,1,1-2,2,2,2,0,0,1,2-2m0-3a5,5,0,0,0,0,10,5,5,0,0,0,5-5,5,5,0,0,0-5-5Z" fill="#777"/>
        <path d="M113.6,3a2,2,0,1,1-2,2,2,2,0,0,1,2-2m0-3a5,5,0,0,0-5,5,5,5,0,0,0,5,5,5,5,0,0,0,0-10Z" fill="#777"/>
        <path d="M86.4,3a2,2,0,1,1-2,2,2,2,0,0,1,2-2m0-3a5,5,0,0,0,0,10,5,5,0,0,0,5-5,5,5,0,0,0-5-5Z" fill="#777"/>
        <path d="M59.3,3a2,2,0,1,1-2,2,2,2,0,0,1,2-2m0-3a5,5,0,0,0-5,5,5,5,0,0,0,5,5,5,5,0,0,0,0-10Z" fill="#777"/>
        <path d="M32.1,3a2,2,0,1,1-2,2,2,2,0,0,1,2-2m0-3a5,5,0,0,0,0,10,5,5,0,0,0,5-5,5,5,0,0,0-5-5Z" fill="#777"/>
        <path d="M5,3A2,2,0,1,1,3,5,2,2,0,0,1,5,3M5,0A5,5,0,0,0,0,5a5,5,0,0,0,5,5,5,5,0,0,0,5-5A5,5,0,0,0,5,0Z" fill="#777"/>
      </g>
    </g>
  </g>
</svg>
