<svg xmlns="http://www.w3.org/2000/svg" viewBox="0 0 488 600"><path d="M218.06 398.23a2.56 2.56 0 0 1 3.4 1.24 2.99 2.99 0 0 1-.09 2.14l-.6 1.66 2.8 1.02-.43 1.2-7.44-2.7 1.04-2.87a2.97 2.97 0 0 1 1.32-1.69zm2.32 1.9a1.27 1.27 0 0 0-.82-.73q-1.3-.47-1.86 1.09l-.54 1.46 2.58.94.54-1.46a1.91 1.91 0 0 0 .1-1.3zm6.36-7.13l.79.38a1.78 1.78 0 0 1-.12.75 1.43 1.43 0 0 1-.48.7 1.03 1.03 0 0 1-.79.14 1.77 1.77 0 0 1 .35 1 3.02 3.02 0 0 1-.2 1.21 2.28 2.28 0 0 1-.86 1.2 1.37 1.37 0 0 1-1.28.1 1.5 1.5 0 0 1-.92-.96 3.75 3.75 0 0 1-.05-1.88l.26-1.53-.3-.1a1.16 1.16 0 0 0-.92 0 1.23 1.23 0 0 0-.6.74 1.48 1.48 0 0 0 .48 1.82l-.84.76a2 2 0 0 1-.77-1.22 3.01 3.01 0 0 1 .17-1.69 2.9 2.9 0 0 1 1.14-1.55 1.9 1.9 0 0 1 1.72-.1l2.55.93a.47.47 0 0 0 .35.02.45.45 0 0 0 .22-.28 1.72 1.72 0 0 0 .1-.44zm-1.17 2.41a.94.94 0 0 0-.6-.74l-.68-.25-.2 1.32a2.4 2.4 0 0 0 0 .98.67.67 0 0 0 .43.48.6.6 0 0 0 .56-.04 1.1 1.1 0 0 0 .4-.57 2.08 2.08 0 0 0 .1-1.18zm3.91-5.27a3.51 3.51 0 0 1 1.06 1.35 2 2 0 0 1-.06 1.38 2.57 2.57 0 0 1-.38.72 1.61 1.61 0 0 1-.55.45l-.8-.69a1.21 1.21 0 0 0 .74-.78.97.97 0 0 0 .04-.63 1.57 1.57 0 0 0-.5-.64l-.51-.47-1.61.07-4.92.2.5-1.35 3.99.05 1.18.06-1.02-.8-3.02-2.43.46-1.25zm-2.03-13.64a1.88 1.88 0 0 1 .98-.5 2.38 2.38 0 0 1 1.26.15l3.66 1.33-.44 1.2-3.46-1.26a1.42 1.42 0 0 0-1.1-.04 1.21 1.21 0 0 0-.62.73 1.46 1.46 0 0 0 .07 1.2 1.86 1.86 0 0 0 1.08.88l3.07 1.12-.44 1.2-3.46-1.25a1.43 1.43 0 0 0-1.1-.05 1.22 1.22 0 0 0-.62.73 1.52 1.52 0 0 0-.07.77 1.49 1.49 0 0 0 .38.77 2.2 2.2 0 0 0 .91.57l3 1.1-.44 1.2-5.63-2.05.39-1.07.95.28a2.02 2.02 0 0 1-.5-1.05 2.32 2.32 0 0 1 .12-1.16 2.42 2.42 0 0 1 .7-1.03 1.89 1.89 0 0 1 1.12-.45 1.99 1.99 0 0 1-.55-1.11 2.55 2.55 0 0 1 .13-1.25 2.5 2.5 0 0 1 .6-.96zm6.01-6.7l-1.5 4.12a1.93 1.93 0 0 0 1.32-.11 1.68 1.68 0 0 0 .8-.97 2.04 2.04 0 0 0 .14-1 1.1 1.1 0 0 0-.4-.7l.8-.85a2.59 2.59 0 0 1 .42 2.9 2.93 2.93 0 0 1-1.54 1.8 3.16 3.16 0 0 1-2.43-.04 3.24 3.24 0 0 1-1.9-1.5 2.81 2.81 0 0 1-.02-2.32 2.64 2.64 0 0 1 1.45-1.65 3.05 3.05 0 0 1 2.26.04 4.41 4.41 0 0 1 .6.27zm-3.36 2.88a1.92 1.92 0 0 0 .94.9l1.1-3.04a2 2 0 0 0-1.27.07 1.43 1.43 0 0 0-.77.87 1.55 1.55 0 0 0 0 1.2zm2.75-10.04a2.13 2.13 0 0 1 1.77-.02l3.66 1.33-.44 1.2-3.27-1.19q-1.49-.54-1.93.67a1.6 1.6 0 0 0 .04 1.24 1.9 1.9 0 0 0 1.17.94l2.99 1.08-.44 1.21-5.64-2.05.4-1.08.96.3a1.94 1.94 0 0 1-.52-1.08 2.55 2.55 0 0 1 .15-1.22 2.32 2.32 0 0 1 1.1-1.33zm7.03-4.24a2.14 2.14 0 0 1 .11.79 2.8 2.8 0 0 1-.17.89 2 2 0 0 1-.85 1.1 1.61 1.61 0 0 1-1.39.04l-3.2-1.17-.39 1.07-.94-.34.39-1.07-1.32-.48.1-1.33 1.66.6.71-1.97.95.34-.72 1.98 3 1.09a.82.82 0 0 0 .68 0 .92.92 0 0 0 .42-.53 1.4 1.4 0 0 0-.03-1.05zm34.3 151.21l-.58 1.6 2.97 1.09-.43 1.2-7.44-2.72 1.1-3.03a3.04 3.04 0 0 1 1.29-1.69 2.17 2.17 0 0 1 1.9-.1 2.17 2.17 0 0 1 1.51 2.34l3.85-.88-.5 1.38zm-1.59 1.24l.63-1.74a1.8 1.8 0 0 0 .1-1.2 1.44 1.44 0 0 0-1.83-.67 1.8 1.8 0 0 0-.7.99l-.63 1.73zm5.64-10.46l-1.5 4.12a1.93 1.93 0 0 0 1.32-.1 1.68 1.68 0 0 0 .8-.98 2.03 2.03 0 0 0 .13-.99 1.1 1.1 0 0 0-.38-.7l.78-.86a2.59 2.59 0 0 1 .42 2.9 2.93 2.93 0 0 1-1.53 1.8 3.16 3.16 0 0 1-2.43-.04 3.24 3.24 0 0 1-1.9-1.5 2.81 2.81 0 0 1-.03-2.31 2.64 2.64 0 0 1 1.46-1.66 3.05 3.05 0 0 1 2.26.05 4.45 4.45 0 0 1 .6.27zm-3.36 2.88a1.92 1.92 0 0 0 .94.9l1.1-3.04a2 2 0 0 0-1.28.07 1.43 1.43 0 0 0-.76.88 1.55 1.55 0 0 0 0 1.2zm3.92-10.02l.04 1.29a1.36 1.36 0 0 0-1.55.93 1.51 1.51 0 0 0 .09 1.36 2.43 2.43 0 0 0 1.31.95 2.37 2.37 0 0 0 1.6.11 1.73 1.73 0 0 0 1-2.01 1.45 1.45 0 0 0-.64-.76l.77-.97a2.47 2.47 0 0 1 .92 1.33 2.87 2.87 0 0 1-.14 1.75 2.93 2.93 0 0 1-1.54 1.8 3.7 3.7 0 0 1-4.3-1.56 2.9 2.9 0 0 1-.03-2.35 2.52 2.52 0 0 1 2.47-1.87zm4.15-5.79l-1.5 4.12a1.93 1.93 0 0 0 1.32-.1 1.68 1.68 0 0 0 .8-.98 2.04 2.04 0 0 0 .13-.99 1.1 1.1 0 0 0-.38-.7l.78-.86a2.59 2.59 0 0 1 .43 2.9 2.93 2.93 0 0 1-1.54 1.8 3.16 3.16 0 0 1-2.43-.04 3.23 3.23 0 0 1-1.9-1.5 2.81 2.81 0 0 1-.03-2.32 2.64 2.64 0 0 1 1.46-1.65 3.06 3.06 0 0 1 2.26.04 4.4 4.4 0 0 1 .6.28zm-3.36 2.88a1.93 1.93 0 0 0 .94.9l1.1-3.04a1.99 1.99 0 0 0-1.27.07 1.43 1.43 0 0 0-.77.87 1.56 1.56 0 0 0 0 1.2zm-.48-6.06a.77.77 0 0 1-.64.01.75.75 0 0 1-.47-.41.93.93 0 0 1 .03-.67.9.9 0 0 1 .4-.52.76.76 0 0 1 .63-.01.78.78 0 0 1 .48.41.89.89 0 0 1-.01.66.9.9 0 0 1-.42.53zm7.22 1.28l-.44 1.2-5.64-2.05.44-1.2zM283.8 477a3.4 3.4 0 0 1 2.39.12 3.44 3.44 0 0 1 1.91 1.45 2.42 2.42 0 0 1 .12 2.11 2.27 2.27 0 0 1-.67 1 2.06 2.06 0 0 1-1.02.45l3.28 1.2-.44 1.2-8-2.91.38-1.06 1.07.33a2.1 2.1 0 0 1-.57-1.06 2.3 2.3 0 0 1 .1-1.29 2.43 2.43 0 0 1 1.45-1.54zm3.25 2.26a2.38 2.38 0 0 0-1.3-.93 2.41 2.41 0 0 0-1.58-.12 1.47 1.47 0 0 0-.94.96 1.5 1.5 0 0 0 .1 1.32 2.24 2.24 0 0 0 1.23.93l.13.04a2.21 2.21 0 0 0 1.54.08 1.5 1.5 0 0 0 .91-.95 1.47 1.47 0 0 0-.1-1.33zm3.47-6.39a2.16 2.16 0 0 1 .11.8 2.83 2.83 0 0 1-.17.88 2 2 0 0 1-.85 1.1 1.61 1.61 0 0 1-1.38.04l-3.2-1.17-.4 1.07-.94-.34.39-1.07-1.32-.48.1-1.33 1.66.6.72-1.97.94.34-.72 1.98 3 1.09a.82.82 0 0 0 .69 0 .92.92 0 0 0 .41-.53 1.4 1.4 0 0 0-.02-1.05z"/><path d="M107 531.6a1.72 1.72 0 0 1 1.71-1.71h11.68a12.84 12.84 0 1 0 0 3.42h-11.68a1.72 1.72 0 0 1-1.71-1.71z" fill="#696969"/><path d="M72.67 531.63a35 35 0 1 1 70 0" fill="none" stroke="#696969" stroke-miterlimit="10" stroke-width="9.12"/><path d="M107.67 566.55a34.99 34.99 0 0 1-35-35" fill="none" stroke="#cfcfcf" stroke-miterlimit="10" stroke-width="9.12"/><path d="M125.17 561.86a34.84 34.84 0 0 1-17.5 4.69" fill="none" stroke="#4d4d4d" stroke-miterlimit="10" stroke-width="9.12"/><path d="M142.6 531.55a34.99 34.99 0 0 1-17.5 30.31" fill="none" stroke="#a6a6a6" stroke-miterlimit="10" stroke-width="9.12"/><path d="M17.61 186.98v-2.42h-1.57v-1.04l1.63-.06.18-1.84H19v1.84h2.69v1.1H19v2.42c0 .97.36 1.41 1.37 1.41a3.55 3.55 0 0 0 1.28-.24l.27 1.01a5.57 5.57 0 0 1-1.89.34c-1.8 0-2.4-1.01-2.4-2.52zm5.98 1.25h2.12v-5.02h-1.69v-.86a5.76 5.76 0 0 0 2.06-.63h1.01v6.5h1.87v1.13H23.6z"/><path d="M107 186.68a1.72 1.72 0 0 1 1.71-1.71h11.68a12.84 12.84 0 1 0 0 3.42h-11.68a1.72 1.72 0 0 1-1.71-1.7z" fill="#6fdc74"/><path d="M72.67 186.71a35 35 0 1 1 70 0" fill="none" stroke="#6fdc74" stroke-miterlimit="10" stroke-width="9.12"/><path d="M107.67 221.63a34.99 34.99 0 0 1-35-35" fill="none" stroke="#9ae69e" stroke-miterlimit="10" stroke-width="9.12"/><path d="M125.17 216.94a34.84 34.84 0 0 1-17.5 4.69" fill="none" stroke="#c5f1c7" stroke-miterlimit="10" stroke-width="9.12"/><path d="M142.6 186.63a34.99 34.99 0 0 1-17.5 30.31" fill="none" stroke="#e2f8e3" stroke-miterlimit="10" stroke-width="9.12"/><path d="M425 186.68a1.72 1.72 0 0 1 1.71-1.71h11.68a12.84 12.84 0 1 0 0 3.42h-11.68a1.72 1.72 0 0 1-1.71-1.7z" fill="#696969"/><path d="M390.67 186.71a35 35 0 1 1 70 0" fill="none" stroke="#696969" stroke-miterlimit="10" stroke-width="9.12"/><path d="M425.67 221.63a34.99 34.99 0 0 1-35-35" fill="none" stroke="#cfcfcf" stroke-miterlimit="10" stroke-width="9.12"/><path d="M443.17 216.94a34.84 34.84 0 0 1-17.5 4.69" fill="none" stroke="#4d4d4d" stroke-miterlimit="10" stroke-width="9.12"/><path d="M460.6 186.63a34.99 34.99 0 0 1-17.5 30.31" fill="none" stroke="#a6a6a6" stroke-miterlimit="10" stroke-width="9.12"/><path fill="none" stroke="#000" stroke-miterlimit="10" stroke-dasharray="3 6" d="M167.17 186.77h195.91"/><path d="M359.77 190.86l-.68-.73 3.61-3.36-3.61-3.35.68-.74 4.4 4.09-4.4 4.09z"/><circle cx="217.17" cy="186.77" r="6" fill="#4339fc"/><path d="M215.7 165.78l1.06-2.93a3.19 3.19 0 0 1 1.24-1.75 1.97 1.97 0 0 1 1.75-.09 1.79 1.79 0 0 1 .93.74 1.63 1.63 0 0 1 .2 1.19h.02a1.91 1.91 0 0 1 .99-.9 1.75 1.75 0 0 1 1.26 0 1.93 1.93 0 0 1 1.26 1.26 3.46 3.46 0 0 1-.19 2.22l-1.08 2.98zm4.23-1.67q.52-1.42-.57-1.82-1.1-.4-1.61 1.02l-.6 1.66 2.18.8zm3.3.99a1.79 1.79 0 0 0 .1-1.17 1.2 1.2 0 0 0-1.65-.6 1.78 1.78 0 0 0-.67.95l-.68 1.85 2.23.82zm-4.21-6.38a.77.77 0 0 1-.64 0 .74.74 0 0 1-.47-.4.92.92 0 0 1 .02-.67.9.9 0 0 1 .41-.53.76.76 0 0 1 .63 0 .78.78 0 0 1 .48.4.88.88 0 0 1-.02.67.9.9 0 0 1-.41.53zm7.21 1.27l-.44 1.21-5.63-2.05.44-1.21zm-5.58-10.08l8.17 2.98-.38 1.06-1.04-.3a2.09 2.09 0 0 1 .54 1.05 2.27 2.27 0 0 1-.1 1.25 2.45 2.45 0 0 1-1.45 1.55 3.37 3.37 0 0 1-2.39-.1 3.42 3.42 0 0 1-1.91-1.47 2.43 2.43 0 0 1-.12-2.11 2.27 2.27 0 0 1 .67-1 2.02 2.02 0 0 1 1-.45l-3.43-1.25zm6.22 4.1a2.25 2.25 0 0 0-1.24-.91l-.13-.05a2.23 2.23 0 0 0-1.54-.09 1.62 1.62 0 0 0-.81 2.28 2.9 2.9 0 0 0 2.88 1.05 1.61 1.61 0 0 0 .84-2.27z"/><path d="M107 304.6a1.72 1.72 0 0 1 1.71-1.71h11.68a12.84 12.84 0 1 0 0 3.42h-11.68a1.72 1.72 0 0 1-1.71-1.71z" fill="#6fdc74"/><path d="M72.67 304.63a35 35 0 1 1 70 0" fill="none" stroke="#6fdc74" stroke-miterlimit="10" stroke-width="9.12"/><path d="M107.67 339.55a34.99 34.99 0 0 1-35-35" fill="none" stroke="#9ae69e" stroke-miterlimit="10" stroke-width="9.12"/><path d="M125.17 334.86a34.84 34.84 0 0 1-17.5 4.69" fill="none" stroke="#c5f1c7" stroke-miterlimit="10" stroke-width="9.12"/><path d="M142.6 304.55a34.99 34.99 0 0 1-17.5 30.31" fill="none" stroke="#e2f8e3" stroke-miterlimit="10" stroke-width="9.12"/><path d="M425 304.6a1.72 1.72 0 0 1 1.71-1.71h11.68a12.84 12.84 0 1 0 0 3.42h-11.68a1.72 1.72 0 0 1-1.71-1.71z" fill="#696969"/><path d="M390.67 304.63a35 35 0 1 1 70 0" fill="none" stroke="#696969" stroke-miterlimit="10" stroke-width="9.12"/><path d="M425.67 339.55a34.99 34.99 0 0 1-35-35" fill="none" stroke="#cfcfcf" stroke-miterlimit="10" stroke-width="9.12"/><path d="M443.17 334.86a34.84 34.84 0 0 1-17.5 4.69" fill="none" stroke="#4d4d4d" stroke-miterlimit="10" stroke-width="9.12"/><path d="M460.6 304.55a34.99 34.99 0 0 1-17.5 30.31" fill="none" stroke="#a6a6a6" stroke-miterlimit="10" stroke-width="9.12"/><path fill="none" stroke="#000" stroke-miterlimit="10" stroke-dasharray="3 6" d="M168.25 304.69h195.92"/><path d="M171.56 308.78l.69-.73-3.62-3.36 3.62-3.36-.69-.73-4.39 4.09 4.39 4.09z"/><circle cx="298.67" cy="305.19" r="4.5" fill="#fcfcfc"/><path d="M298.67 302.19a3 3 0 1 1-3 3 3 3 0 0 1 3-3m0-3a6 6 0 1 0 6 6 6 6 0 0 0-6-6z" fill="#4339fc"/><path d="M304.72 281.58l-1.14 3.13 1.69 1.42-.45 1.24-6.42-5.51.52-1.45 8.47-.1-.47 1.28zm-1.11 0l-2.7-.01-1.2-.05-.01.03.93.7 2.1 1.76zm1.78-8.75l.04 1.3a1.36 1.36 0 0 0-1.55.92 1.51 1.51 0 0 0 .09 1.36 2.43 2.43 0 0 0 1.31.96 2.38 2.38 0 0 0 1.61.1 1.73 1.73 0 0 0 .99-2 1.46 1.46 0 0 0-.64-.76l.77-.97a2.46 2.46 0 0 1 .92 1.33 2.87 2.87 0 0 1-.14 1.75 2.93 2.93 0 0 1-1.54 1.8 3.7 3.7 0 0 1-4.3-1.57 2.9 2.9 0 0 1-.03-2.35 2.52 2.52 0 0 1 2.47-1.87zm2.32-6.38l.05 1.3a1.36 1.36 0 0 0-1.56.92 1.51 1.51 0 0 0 .1 1.36 2.43 2.43 0 0 0 1.3.95 2.38 2.38 0 0 0 1.61.12 1.74 1.74 0 0 0 1-2.02 1.45 1.45 0 0 0-.65-.76l.78-.97a2.47 2.47 0 0 1 .91 1.33 2.87 2.87 0 0 1-.13 1.76 2.93 2.93 0 0 1-1.54 1.8 3.7 3.7 0 0 1-4.3-1.57 2.9 2.9 0 0 1-.03-2.35 2.52 2.52 0 0 1 2.46-1.87zm4.16-5.79l-1.5 4.13a1.93 1.93 0 0 0 1.32-.12 1.68 1.68 0 0 0 .8-.96 2.06 2.06 0 0 0 .13-1 1.1 1.1 0 0 0-.39-.7l.79-.86a2.59 2.59 0 0 1 .42 2.9 2.93 2.93 0 0 1-1.53 1.8 3.17 3.17 0 0 1-2.43-.03 3.24 3.24 0 0 1-1.9-1.51 2.81 2.81 0 0 1-.03-2.31 2.64 2.64 0 0 1 1.46-1.66 3.06 3.06 0 0 1 2.26.05 4.35 4.35 0 0 1 .6.27zm-3.37 2.89a1.93 1.93 0 0 0 .95.89l1.1-3.04a2 2 0 0 0-1.28.08 1.44 1.44 0 0 0-.76.87 1.56 1.56 0 0 0 0 1.2zm3.1-10.25a3.39 3.39 0 0 1 2.39.11 3.44 3.44 0 0 1 1.91 1.45 2.42 2.42 0 0 1 .12 2.11 2.28 2.28 0 0 1-.67 1 2.06 2.06 0 0 1-1.02.46l3.28 1.2-.44 1.2-8-2.92.38-1.06 1.07.33a2.1 2.1 0 0 1-.57-1.06 2.28 2.28 0 0 1 .1-1.28 2.43 2.43 0 0 1 1.45-1.55zm3.25 2.26a2.9 2.9 0 0 0-2.88-1.05 1.47 1.47 0 0 0-.94.95 1.49 1.49 0 0 0 .1 1.32 2.24 2.24 0 0 0 1.23.93l.13.05a2.2 2.2 0 0 0 1.54.08 1.5 1.5 0 0 0 .91-.95 1.47 1.47 0 0 0-.1-1.33zm3.47-6.4a2.16 2.16 0 0 1 .11.8 2.86 2.86 0 0 1-.17.88 2 2 0 0 1-.85 1.1 1.61 1.61 0 0 1-1.38.04l-3.2-1.17-.4 1.08-.94-.35.39-1.07-1.32-.48.1-1.33 1.66.6.72-1.97.94.35-.72 1.97 3 1.1a.82.82 0 0 0 .69 0 .92.92 0 0 0 .41-.54 1.4 1.4 0 0 0-.02-1.04zm.23-6.85l-1.5 4.13a1.93 1.93 0 0 0 1.32-.11 1.68 1.68 0 0 0 .8-.97 2.06 2.06 0 0 0 .14-.99 1.1 1.1 0 0 0-.4-.7l.8-.86a2.59 2.59 0 0 1 .42 2.9 2.93 2.93 0 0 1-1.54 1.8 3.16 3.16 0 0 1-2.43-.04 3.23 3.23 0 0 1-1.9-1.5 2.81 2.81 0 0 1-.03-2.32 2.64 2.64 0 0 1 1.46-1.65 3.05 3.05 0 0 1 2.26.04 4.35 4.35 0 0 1 .6.27zm-3.36 2.9a1.93 1.93 0 0 0 .94.88l1.1-3.03a2 2 0 0 0-1.27.07 1.43 1.43 0 0 0-.77.87 1.55 1.55 0 0 0 0 1.2zm.03-11.79l8.17 2.98-.39 1.06-1.04-.3a2.08 2.08 0 0 1 .55 1.05 2.27 2.27 0 0 1-.1 1.25 2.45 2.45 0 0 1-1.45 1.55 3.37 3.37 0 0 1-2.4-.1 3.42 3.42 0 0 1-1.9-1.47 2.43 2.43 0 0 1-.12-2.11 2.28 2.28 0 0 1 .67-1 2.03 2.03 0 0 1 1-.45l-3.43-1.25zm6.21 4.1a2.25 2.25 0 0 0-1.23-.91l-.14-.05a2.23 2.23 0 0 0-1.53-.09 1.62 1.62 0 0 0-.82 2.28 2.39 2.39 0 0 0 1.3.93 2.41 2.41 0 0 0 1.59.12 1.61 1.61 0 0 0 .83-2.27zm-1.36-5.89l2.04.92-.34.95-2.16-.6-2.97-1.1.46-1.26zm3.2 1.18a.81.81 0 0 1 .66-.02.8.8 0 0 1 .49.44.92.92 0 0 1-.01.7.9.9 0 0 1-.44.52.8.8 0 0 1-.66.02.82.82 0 0 1-.5-.44.89.89 0 0 1 0-.69.9.9 0 0 1 .45-.53z"/><path d="M107 77.68a1.72 1.72 0 0 1 1.71-1.71h11.68a12.84 12.84 0 1 0 0 3.42h-11.68a1.72 1.72 0 0 1-1.71-1.7z" fill="#6fdc74"/><path d="M72.67 77.71a35 35 0 1 1 70 0" fill="none" stroke="#6fdc74" stroke-miterlimit="10" stroke-width="9.12"/><path d="M107.67 112.63a34.99 34.99 0 0 1-35-35" fill="none" stroke="#9ae69e" stroke-miterlimit="10" stroke-width="9.12"/><path d="M125.17 107.94a34.84 34.84 0 0 1-17.5 4.69" fill="none" stroke="#c5f1c7" stroke-miterlimit="10" stroke-width="9.12"/><path d="M142.6 77.63a34.99 34.99 0 0 1-17.5 30.31" fill="none" stroke="#e2f8e3" stroke-miterlimit="10" stroke-width="9.12"/><path d="M425 77.68a1.72 1.72 0 0 1 1.71-1.71h11.68a12.84 12.84 0 1 0 0 3.42h-11.68a1.72 1.72 0 0 1-1.71-1.7z" fill="#696969"/><path d="M390.67 77.71a35 35 0 1 1 70 0" fill="none" stroke="#696969" stroke-miterlimit="10" stroke-width="9.12"/><path d="M425.67 112.63a34.99 34.99 0 0 1-35-35" fill="none" stroke="#cfcfcf" stroke-miterlimit="10" stroke-width="9.12"/><path d="M443.17 107.94a34.84 34.84 0 0 1-17.5 4.69" fill="none" stroke="#4d4d4d" stroke-miterlimit="10" stroke-width="9.12"/><path d="M460.6 77.63a34.99 34.99 0 0 1-17.5 30.31" fill="none" stroke="#a6a6a6" stroke-miterlimit="10" stroke-width="9.12"/><path fill="none" stroke="#000" stroke-miterlimit="10" stroke-dasharray="3 6" d="M168.25 77.77h195.92"/><path d="M171.56 81.86l.69-.73-3.62-3.36 3.62-3.35-.69-.74-4.39 4.09 4.39 4.09z"/><circle cx="285.67" cy="78" r="6" fill="#4339fc"/><path d="M292.08 58.52l-.44 1.2-7.44-2.7.44-1.22zm1.7-5.83a2.16 2.16 0 0 1 .11.79 2.83 2.83 0 0 1-.17.88 2.01 2.01 0 0 1-.84 1.1 1.62 1.62 0 0 1-1.4.04l-3.2-1.16-.38 1.07-.95-.35.39-1.07-1.32-.48.1-1.33 1.66.6.72-1.97.94.35-.71 1.97 3 1.1a.82.82 0 0 0 .68 0 .93.93 0 0 0 .42-.54 1.4 1.4 0 0 0-.03-1.04zm.23-6.85l-1.5 4.12a1.93 1.93 0 0 0 1.32-.1 1.67 1.67 0 0 0 .8-.98 2.03 2.03 0 0 0 .14-.99 1.1 1.1 0 0 0-.39-.7l.78-.86a2.59 2.59 0 0 1 .43 2.9 2.93 2.93 0 0 1-1.54 1.8 3.16 3.16 0 0 1-2.43-.03 3.24 3.24 0 0 1-1.9-1.51 2.82 2.82 0 0 1-.02-2.31 2.64 2.64 0 0 1 1.45-1.66 3.05 3.05 0 0 1 2.26.05 4.45 4.45 0 0 1 .6.27zm-3.36 2.88a1.93 1.93 0 0 0 .94.9l1.1-3.04a2 2 0 0 0-1.27.07 1.43 1.43 0 0 0-.77.88 1.55 1.55 0 0 0 0 1.2zm3.64-13.42a1.88 1.88 0 0 1 .98-.5 2.38 2.38 0 0 1 1.26.14l3.65 1.33-.44 1.2-3.46-1.25a1.42 1.42 0 0 0-1.1-.05 1.21 1.21 0 0 0-.62.73 1.46 1.46 0 0 0 .07 1.21 1.85 1.85 0 0 0 1.09.88l3.07 1.11-.44 1.21-3.47-1.26a1.43 1.43 0 0 0-1.1-.04 1.22 1.22 0 0 0-.62.73 1.52 1.52 0 0 0-.06.76 1.48 1.48 0 0 0 .38.77 2.2 2.2 0 0 0 .91.58l3 1.09-.44 1.2-5.64-2.05.4-1.07.95.28a2.02 2.02 0 0 1-.5-1.05 2.32 2.32 0 0 1 .12-1.15 2.42 2.42 0 0 1 .7-1.04 1.88 1.88 0 0 1 1.11-.45 1.99 1.99 0 0 1-.54-1.11 2.54 2.54 0 0 1 .13-1.25 2.48 2.48 0 0 1 .6-.95zm.91-7.26a1.77 1.77 0 0 1 1.7-.2 1.99 1.99 0 0 1 1.27 1.13 2.86 2.86 0 0 1 .05 1.77l1.13.45-.42 1.15-1.7-.6a3.99 3.99 0 0 0 .11-1.74 1.1 1.1 0 0 0-.74-.8 1 1 0 0 0-.9.07 1.75 1.75 0 0 0-.66.94 1.68 1.68 0 0 0-.03 1.23 1.64 1.64 0 0 0 .86.86l-.94.92a2.4 2.4 0 0 1-1.08-1.4 3.28 3.28 0 0 1 .15-2.08 3.38 3.38 0 0 1 1.2-1.7zm5.25 3.51a.92.92 0 0 1 1.17.43.9.9 0 0 1 0 .69.92.92 0 0 1-.45.54.91.91 0 0 1-1.16-.43.9.9 0 0 1 0-.7.9.9 0 0 1 .44-.53zM17.61 77.98v-2.42h-1.57v-1.04l1.63-.06.18-1.84H19v1.84h2.69v1.1H19v2.42c0 .97.36 1.41 1.37 1.41a3.55 3.55 0 0 0 1.28-.24l.27 1.01a5.57 5.57 0 0 1-1.89.34c-1.8 0-2.4-1.01-2.4-2.52zm5.69-1.48c0-2.58 1.1-3.92 2.83-3.92s2.83 1.34 2.83 3.92c0 2.57-1.09 4-2.83 4s-2.83-1.43-2.83-4zm4.41 0c0-2.08-.67-2.84-1.58-2.84s-1.58.76-1.58 2.84c0 2.09.67 2.92 1.58 2.92s1.58-.83 1.58-2.92zm-2.4-.05a.83.83 0 1 1 .82.86.8.8 0 0 1-.83-.86zm-7.7 228.35v-2.43h-1.57v-1.03l1.63-.06.18-1.85H19v1.85h2.69v1.09H19v2.42c0 .97.36 1.42 1.37 1.42a3.55 3.55 0 0 0 1.28-.24l.27 1a5.57 5.57 0 0 1-1.89.34c-1.8 0-2.4-1-2.4-2.52zm5.7 1.56c2.39-2.05 3.84-3.37 3.84-4.55 0-.8-.5-1.32-1.46-1.32a2.46 2.46 0 0 0-1.68.85l-.76-.77a3.43 3.43 0 0 1 2.62-1.17 2.33 2.33 0 0 1 2.6 2.33c0 1.36-1.38 2.75-3.15 4.35.44-.04.97-.09 1.39-.09h2.16v1.18H23.3zm-5.7 116.35v-2.42h-1.57v-1.03l1.63-.06.18-1.85H19v1.85h2.69v1.09H19v2.42c0 .97.36 1.42 1.37 1.42a3.55 3.55 0 0 0 1.28-.24l.27 1a5.57 5.57 0 0 1-1.89.34c-1.8 0-2.4-1-2.4-2.52zm5.52 1.44l.65-.89a2.99 2.99 0 0 0 2.03.84c.93 0 1.63-.43 1.63-1.15 0-.8-.65-1.3-2.53-1.3v-1c1.64 0 2.26-.52 2.26-1.23 0-.63-.52-1.02-1.34-1.02a2.66 2.66 0 0 0-1.74.72l-.72-.85a3.9 3.9 0 0 1 2.52-.96c1.56 0 2.68.72 2.68 2.02 0 .85-.62 1.42-1.55 1.75v.05a2.06 2.06 0 0 1 1.8 1.9c0 1.38-1.33 2.2-2.9 2.2a3.72 3.72 0 0 1-2.79-1.08z"/><path fill="none" stroke="#000" stroke-linecap="round" stroke-miterlimit="10" stroke-dasharray=".5 6" d="M167.17 422.5h195.91"/><path d="M359.77 426.59l-.68-.73 3.61-3.36-3.61-3.35.68-.73 4.4 4.08-4.4 4.09z"/><circle cx="217.17" cy="422.5" r="4.5" fill="#fcfcfc"/><path d="M217.17 419.5a3 3 0 1 1-3 3 3 3 0 0 1 3-3m0-3a6 6 0 1 0 6 6 6 6 0 0 0-6-6zM107 422.52a1.72 1.72 0 0 1 1.71-1.72h11.68a12.84 12.84 0 1 0 0 3.43h-11.68a1.72 1.72 0 0 1-1.71-1.71z" fill="#6fdc74"/><path d="M72.67 422.55a35 35 0 1 1 70 0" fill="none" stroke="#6fdc74" stroke-miterlimit="10" stroke-width="9.12"/><path d="M107.67 457.46a34.99 34.99 0 0 1-35-35" fill="none" stroke="#9ae69e" stroke-miterlimit="10" stroke-width="9.12"/><path d="M125.17 452.78a34.84 34.84 0 0 1-17.5 4.68" fill="none" stroke="#c5f1c7" stroke-miterlimit="10" stroke-width="9.12"/><path d="M142.6 422.46a34.99 34.99 0 0 1-17.5 30.32" fill="none" stroke="#e2f8e3" stroke-miterlimit="10" stroke-width="9.12"/><circle cx="426.17" cy="422.5" r="34.5"/><path d="M426.76 408.49h-2.13l-.37 1.51h-2.79l2.57-7.92h3.36l2.58 7.92h-2.86zm-.4-1.74l-.64-2.64h-.04l-.3 1.34-.33 1.3zm-20.56 9.73h4.53a3.91 3.91 0 0 1 2.23.53 1.81 1.81 0 0 1 .73 1.58 1.73 1.73 0 0 1-.44 1.22 2.14 2.14 0 0 1-1.34.6v.02a2.42 2.42 0 0 1 1.5.6 1.74 1.74 0 0 1 .49 1.28 1.82 1.82 0 0 1-.7 1.57 3.61 3.61 0 0 1-2.16.52h-4.85zm3.9 3.07q.74 0 .74-.57 0-.58-.74-.58h-1.23v1.15zm.2 3.03q.74 0 .74-.6 0-.56-.74-.56h-1.43v1.16zm10.73-.23v2.05h-6.39v-7.92h2.8v5.87zm7.37-4.92a4.78 4.78 0 0 1 0 6.02 3.97 3.97 0 0 1-2.96 1.07 4.54 4.54 0 0 1-2.15-.48 3.29 3.29 0 0 1-1.4-1.4 5.23 5.23 0 0 1 0-4.4 3.28 3.28 0 0 1 1.4-1.4 4.54 4.54 0 0 1 2.15-.48 3.97 3.97 0 0 1 2.96 1.07zm-3.85 1.5a4.16 4.16 0 0 0 0 3.02.96.96 0 0 0 .9.47.95.95 0 0 0 .88-.47 4.24 4.24 0 0 0 0-3.02.95.95 0 0 0-.89-.47.96.96 0 0 0-.9.47zm9.65 5.59a4.54 4.54 0 0 1-2.16-.48 3.29 3.29 0 0 1-1.4-1.4 5.23 5.23 0 0 1 0-4.4 3.28 3.28 0 0 1 1.4-1.4 5.06 5.06 0 0 1 4.53.11 2.6 2.6 0 0 1 1.22 1.81l-2.4.94a1.76 1.76 0 0 0-.35-.99 1.06 1.06 0 0 0-.78-.25 1.04 1.04 0 0 0-.93.48 2.82 2.82 0 0 0-.31 1.5 2.9 2.9 0 0 0 .3 1.5 1.01 1.01 0 0 0 .92.48 1.12 1.12 0 0 0 .82-.25 1.4 1.4 0 0 0 .32-.83l2.47.64q-.61 2.54-3.66 2.54zm7.78-3.08l-.65.88v2.08h-2.8v-7.92h2.8v2.95l2.07-2.95h2.97l-2.42 3.14 2.64 4.78h-3.14zm-30.68 17.48a4.54 4.54 0 0 1-2.16-.48 3.29 3.29 0 0 1-1.39-1.4 5.23 5.23 0 0 1 0-4.4 3.28 3.28 0 0 1 1.4-1.4 5.06 5.06 0 0 1 4.52.11 2.6 2.6 0 0 1 1.23 1.81l-2.4.94a1.76 1.76 0 0 0-.35-.99 1.06 1.06 0 0 0-.78-.25 1.04 1.04 0 0 0-.94.48 2.82 2.82 0 0 0-.31 1.5 2.9 2.9 0 0 0 .3 1.5 1.01 1.01 0 0 0 .92.48 1.12 1.12 0 0 0 .82-.25 1.4 1.4 0 0 0 .32-.83l2.48.64q-.62 2.54-3.66 2.54zm12.1-8.04v7.92h-2.8v-2.95h-2.16v2.95h-2.8v-7.92h2.8v2.92h2.17v-2.92zm5.78 6.41h-2.14l-.37 1.51h-2.79l2.57-7.92h3.36l2.58 7.92h-2.85zm-.41-1.74l-.64-2.64h-.03l-.32 1.34-.32 1.3zm6.9 3.25h-2.8v-7.92h2.8zm8.95 0h-3.02l-1.9-3.6-.43-.97h-.03l.05 1.63v2.94h-2.42v-7.92h3.02l1.9 3.61.43.96h.02l-.05-1.63v-2.94h2.43z" fill="#fff"/><path d="M17.61 531.71v-2.42h-1.57v-1.03l1.63-.06.18-1.85H19v1.85h2.69v1.09H19v2.42c0 .97.36 1.42 1.37 1.42a3.55 3.55 0 0 0 1.28-.24l.27 1a5.57 5.57 0 0 1-1.89.34c-1.8 0-2.4-1-2.4-2.52zm9.17.41h-3.8v-.94l3.5-4.74h1.6v4.61h1.07v1.07h-1.08v1.96h-1.3zm0-1.07v-1.82c.01-.46.05-1.06.07-1.51h-.06c-.25.4-.54.8-.8 1.2l-1.61 2.13z"/><path fill="none" stroke="#000" stroke-linecap="round" stroke-miterlimit="10" stroke-dasharray=".5 6" d="M168.25 531.5h195.92"/><path d="M171.56 535.59l.69-.73-3.62-3.36 3.62-3.35-.69-.73-4.39 4.08 4.39 4.09z"/><circle cx="269.67" cy="532" r="4.5" fill="#fcfcfc"/><path d="M269.67 529a3 3 0 1 1-3 3 3 3 0 0 1 3-3m0-3a6 6 0 1 0 6 6 6 6 0 0 0-6-6z" fill="#6fdc74"/><circle cx="426.17" cy="531.5" r="34.5"/><path d="M426.76 517.49h-2.13l-.37 1.51h-2.79l2.57-7.92h3.36l2.58 7.92h-2.86zm-.4-1.74l-.64-2.64h-.04l-.3 1.34-.33 1.3zm-20.56 9.73h4.53a3.91 3.91 0 0 1 2.23.53 1.81 1.81 0 0 1 .73 1.58 1.73 1.73 0 0 1-.44 1.22 2.14 2.14 0 0 1-1.34.6v.02a2.42 2.42 0 0 1 1.5.6 1.74 1.74 0 0 1 .49 1.28 1.82 1.82 0 0 1-.7 1.57 3.61 3.61 0 0 1-2.16.52h-4.85zm3.9 3.07q.74 0 .74-.57 0-.58-.74-.58h-1.23v1.15zm.2 3.03q.74 0 .74-.6 0-.56-.74-.56h-1.43v1.16zm10.73-.23v2.05h-6.39v-7.92h2.8v5.87zm7.37-4.92a4.78 4.78 0 0 1 0 6.02 3.97 3.97 0 0 1-2.96 1.07 4.54 4.54 0 0 1-2.15-.48 3.29 3.29 0 0 1-1.4-1.4 5.23 5.23 0 0 1 0-4.4 3.28 3.28 0 0 1 1.4-1.4 4.54 4.54 0 0 1 2.15-.48 3.97 3.97 0 0 1 2.96 1.07zm-3.85 1.5a4.16 4.16 0 0 0 0 3.02.96.96 0 0 0 .9.47.95.95 0 0 0 .88-.47 4.24 4.24 0 0 0 0-3.02.95.95 0 0 0-.89-.47.96.96 0 0 0-.9.47zm9.65 5.59a4.54 4.54 0 0 1-2.16-.48 3.29 3.29 0 0 1-1.4-1.4 5.23 5.23 0 0 1 0-4.4 3.28 3.28 0 0 1 1.4-1.4 5.06 5.06 0 0 1 4.53.11 2.6 2.6 0 0 1 1.22 1.81l-2.4.94a1.76 1.76 0 0 0-.35-.99 1.06 1.06 0 0 0-.78-.25 1.04 1.04 0 0 0-.93.48 2.82 2.82 0 0 0-.31 1.5 2.9 2.9 0 0 0 .3 1.5 1.01 1.01 0 0 0 .92.48 1.12 1.12 0 0 0 .82-.25 1.4 1.4 0 0 0 .32-.83l2.47.64q-.61 2.54-3.66 2.54zm7.78-3.08l-.65.88v2.08h-2.8v-7.92h2.8v2.95l2.07-2.95h2.97l-2.42 3.14 2.64 4.78h-3.14zm-30.68 17.48a4.54 4.54 0 0 1-2.16-.48 3.29 3.29 0 0 1-1.39-1.4 5.23 5.23 0 0 1 0-4.4 3.28 3.28 0 0 1 1.4-1.4 5.06 5.06 0 0 1 4.52.11 2.6 2.6 0 0 1 1.23 1.81l-2.4.94a1.76 1.76 0 0 0-.35-.99 1.06 1.06 0 0 0-.78-.25 1.04 1.04 0 0 0-.94.48 2.82 2.82 0 0 0-.31 1.5 2.9 2.9 0 0 0 .3 1.5 1.01 1.01 0 0 0 .92.48 1.12 1.12 0 0 0 .82-.25 1.4 1.4 0 0 0 .32-.83l2.48.64q-.62 2.54-3.66 2.54zm12.1-8.04v7.92h-2.8v-2.95h-2.16v2.95h-2.8v-7.92h2.8v2.92h2.17v-2.92zm5.78 6.41h-2.14l-.37 1.51h-2.79l2.57-7.92h3.36l2.58 7.92h-2.85zm-.41-1.74l-.64-2.64h-.03l-.32 1.34-.32 1.3zm6.9 3.25h-2.8v-7.92h2.8zm8.95 0h-3.02l-1.9-3.6-.43-.97h-.03l.05 1.63v2.94h-2.42v-7.92h3.02l1.9 3.61.43.96h.02l-.05-1.63v-2.94h2.43z" fill="#fff"/></svg>