<svg xmlns="http://www.w3.org/2000/svg" viewBox="0 0 207 207"><title>personal-blockchain</title><g id="network-diagram"><circle cx="51.96256" cy="106.56011" r="27.74266" fill="#ee3124"/><path d="M79.45236,102.86109a27.18241,27.18241,0,0,1,0,7.398" fill="#444"/><path d="M79.45236,102.86109H51.96256a3.699,3.699,0,1,0,0,7.398h27.4898a27.18241,27.18241,0,0,0,0-7.398Z" fill="#5e6367"/><circle cx="51.96256" cy="106.56011" r="3.69902" fill="#1c1c1c"/><path d="M14,99.50606A37.88175,37.88175,0,0,1,24.26383,80.11737" fill="none" stroke="#6fdc74" stroke-miterlimit="10" stroke-width="9.44117"/><path d="M53.52856,143.44122a37.75874,37.75874,0,0,1-39.00317-35.46069" fill="none" stroke="#000" stroke-miterlimit="10" stroke-width="0.89916" stroke-dasharray="2.69748 5.39496"/><polygon points="50.491 139.78 49.888 140.448 53.183 143.415 49.983 146.484 50.607 147.133 54.503 143.394 50.491 139.78"/><line x1="177.84497" y1="106.56012" x2="110.48389" y2="106.56012" fill="none" stroke="#000" stroke-miterlimit="10" stroke-width="0.89916" stroke-dasharray="2.69748 5.39496"/><polygon points="113.463 102.883 114.077 103.541 110.829 106.559 114.077 109.578 113.463 110.237 109.509 106.559 113.463 102.883"/><circle cx="197.70475" cy="106.56011" r="3.69902" fill="#6fdc74"/></g></svg>