<svg id="Layer_1" data-name="Layer 1" xmlns="http://www.w3.org/2000/svg" xmlns:xlink="http://www.w3.org/1999/xlink" viewBox="0 0 488 600">
  <defs>
    <linearGradient id="linear-gradient" x1="435.14" y1="95.55" x2="421.04" y2="109.65" gradientUnits="userSpaceOnUse">
      <stop offset="0" stop-color="#15a6ff"/>
      <stop offset="1" stop-color="#00ffd0"/>
    </linearGradient>
    <linearGradient id="linear-gradient-2" x1="440.68" y1="101.09" x2="426.58" y2="115.19" xlink:href="#linear-gradient"/>
  </defs>
  <title>1-single-interface-green</title>
  <g>
    <g>
      <path d="M333.5,445.5v-.3" fill="none" stroke="#000" stroke-linecap="round" stroke-miterlimit="10"/>
      <path d="M333,439.2c-7-49-81.1-29.1-83.4-94.4" fill="none" stroke="#000" stroke-linecap="round" stroke-miterlimit="10" stroke-dasharray="0.5 6.03"/>
      <path d="M249.5,341.8v-.3" fill="none" stroke="#000" stroke-linecap="round" stroke-miterlimit="10"/>
    </g>
    <g>
      <path d="M187.6,459.5v-.3" fill="none" stroke="#000" stroke-linecap="round" stroke-miterlimit="10"/>
      <path d="M187.9,453.4c4.4-49,45.6-23,49.5-108.7" fill="none" stroke="#000" stroke-linecap="round" stroke-miterlimit="10" stroke-dasharray="0.49 5.86"/>
      <path d="M237.5,341.8v-.3" fill="none" stroke="#000" stroke-linecap="round" stroke-miterlimit="10"/>
    </g>
    <rect x="38.3" y="52" width="71" height="71" fill="none" stroke="#000" stroke-miterlimit="10"/>
    <g>
      <circle cx="54" cy="75.5" r="2.5"/>
      <circle cx="54" cy="83.5" r="2.5"/>
      <circle cx="54" cy="91.5" r="2.5"/>
      <circle cx="54" cy="99.5" r="2.5"/>
      <rect x="60.5" y="75" width="35.5" height="1"/>
      <rect x="60.5" y="83" width="35.5" height="1"/>
      <rect x="60.5" y="91" width="35.5" height="1"/>
      <rect x="60.5" y="99" width="35.5" height="1"/>
    </g>
    <circle cx="181.3" cy="89" r="34.5" fill="none" stroke="#000" stroke-miterlimit="10"/>
    <line x1="37.8" y1="56.5" x2="109.8" y2="56.5" fill="none" stroke="#000" stroke-miterlimit="10"/>
    <rect x="254.3" y="52" width="71" height="71" fill="none" stroke="#000" stroke-miterlimit="10"/>
    <line x1="253.8" y1="56.5" x2="324.8" y2="56.5" fill="#fff" stroke="#000" stroke-miterlimit="10"/>
    <g>
      <path d="M171.1,77.4h11.3q8.4,0,8.4,6.3a5,5,0,0,1-1.2,3.4,6.2,6.2,0,0,1-3.5,1.8h0a6,6,0,0,1,3.9,1.8,5.2,5.2,0,0,1,1.4,3.6,5.7,5.7,0,0,1-2.2,4.7,10.8,10.8,0,0,1-6.3,1.6H171.1Zm10.2,9.5c2.2,0,3.3-.8,3.3-2.5s-1.1-2.6-3.3-2.6H177v5.1Zm.6,9.4a4.4,4.4,0,0,0,2.5-.6,2.6,2.6,0,0,0,.8-2,2.2,2.2,0,0,0-.8-1.8,3.7,3.7,0,0,0-2.5-.7H177v5.1Z"/>
      <rect x="180.3" y="73" width="2" height="5"/>
      <rect x="177.3" y="73" width="2" height="5"/>
      <rect x="180.3" y="100" width="2" height="5"/>
      <rect x="177.3" y="100" width="2" height="5"/>
    </g>
    <g>
      <circle cx="272.3" cy="64.5" r="2.5"/>
      <rect x="278.8" y="63.5" width="14.5" height="1"/>
      <rect x="269.8" y="72" width="40" height="13"/>
    </g>
    <g>
      <circle cx="272.3" cy="90.5" r="2.5"/>
      <rect x="278.8" y="89.5" width="14.5" height="1"/>
      <rect x="269.8" y="98" width="40" height="13"/>
    </g>
    <g>
      <circle cx="272.3" cy="116.5" r="2.5"/>
      <rect x="278.8" y="115.5" width="14.5" height="1"/>
    </g>
    <polygon points="438.7 51.7 379.3 51.7 379.3 113.2 424.6 113.2 438.7 99.1 438.7 51.7" fill="none" stroke="#000" stroke-miterlimit="10"/>
    <polygon points="424.6 113.2 438.7 99.1 424.6 99.1 424.6 113.2" stroke="#fff" stroke-miterlimit="10" fill="url(#linear-gradient)"/>
    <polygon points="444.2 57.3 384.8 57.3 384.8 118.7 430.1 118.7 444.2 104.6 444.2 57.3" fill="#fff" stroke="#000" stroke-miterlimit="10"/>
    <polygon points="430.1 118.7 444.2 104.6 430.1 104.6 430.1 118.7" fill="url(#linear-gradient-2)"/>
    <polygon points="450.3 63.3 390.8 63.3 390.8 124.8 436.2 124.8 450.3 110.7 450.3 63.3" fill="#fff" stroke="#000" stroke-miterlimit="10"/>
    <g>
      <g>
        <path d="M187.6,142.6v.2" fill="none" stroke="#000" stroke-linecap="round" stroke-miterlimit="10"/>
        <path d="M188,148.7c5.2,49.5,58.2,30.7,62.4,116.6" fill="none" stroke="#000" stroke-linecap="round" stroke-miterlimit="10" stroke-dasharray="0.49 5.9"/>
        <path d="M250.5,268.2v.3" fill="none" stroke="#000" stroke-linecap="round" stroke-miterlimit="10"/>
      </g>
      <g>
        <path d="M85.5,142.6v.2" fill="none" stroke="#000" stroke-linecap="round" stroke-miterlimit="10"/>
        <path d="M86.4,148.8c11.7,49.4,129.6,30.7,139,116.5" fill="none" stroke="#000" stroke-linecap="round" stroke-miterlimit="10" stroke-dasharray="0.5 6.01"/>
        <path d="M225.7,268.3v.2" fill="none" stroke="#000" stroke-linecap="round" stroke-miterlimit="10"/>
      </g>
      <g>
        <path d="M300.4,142.6v.2" fill="none" stroke="#000" stroke-linecap="round" stroke-miterlimit="10"/>
        <path d="M300,148.7c-5.2,49.5-58.2,30.7-62.4,116.6" fill="none" stroke="#000" stroke-linecap="round" stroke-miterlimit="10" stroke-dasharray="0.49 5.9"/>
        <path d="M237.5,268.2v.3" fill="none" stroke="#000" stroke-linecap="round" stroke-miterlimit="10"/>
      </g>
      <g>
        <path d="M402.5,142.6v.2" fill="none" stroke="#000" stroke-linecap="round" stroke-miterlimit="10"/>
        <path d="M401.6,148.8c-11.7,49.4-129.6,30.7-139,116.5" fill="none" stroke="#000" stroke-linecap="round" stroke-miterlimit="10" stroke-dasharray="0.5 6.01"/>
        <path d="M262.3,268.3v.2" fill="none" stroke="#000" stroke-linecap="round" stroke-miterlimit="10"/>
      </g>
    </g>
    <g>
      <rect x="305.4" y="442.5" width="56.8" height="97.5" fill="#0ed894"/>
      <g>
        <polyline points="311.9 515 317.9 521 311.9 527" fill="#fff"/>
        <circle cx="317.6" cy="460" r="6" fill="#fff"/>
        <rect x="311.9" y="471" width="43.8" height="9" fill="#fff"/>
        <rect x="311.9" y="486" width="15.8" height="9" fill="#fff"/>
      </g>
    </g>
    <rect x="125.9" y="413.5" width="155.5" height="155.5" fill="#0ed894"/>
    <polyline points="139.4 532 151.4 544 139.4 556" fill="#fff"/>
    <circle cx="148.4" cy="445" r="9" fill="#fff"/>
    <rect x="139.4" y="466" width="121" height="11" fill="#fff"/>
    <rect x="139.4" y="488" width="76" height="11" fill="#fff"/>
    <polyline points="436.2 124.8 436.2 110.4 449.8 110.4" fill="none" stroke="#000" stroke-miterlimit="10"/>
    <g>
      <path d="M242.8,300.6h0a1.8,1.8,0,0,1,1.8-1.7h11.6a12.8,12.8,0,1,0,0,3.4H244.6A1.8,1.8,0,0,1,242.8,300.6Z" fill="#8de294"/>
      <g>
        <path d="M208.5,300.6a35,35,0,0,1,4.7-17.5A35.7,35.7,0,0,1,226,270.3a35,35,0,0,1,52.5,30.3" fill="none" stroke="#8de294" stroke-miterlimit="10" stroke-width="9.12"/>
        <path d="M243.5,335.5a35.7,35.7,0,0,1-17.5-4.6A35.2,35.2,0,0,1,213.2,318a34.4,34.4,0,0,1-4.7-17.5" fill="none" stroke="#32e242" stroke-miterlimit="10" stroke-width="9.12"/>
        <path d="M261,330.9a35.4,35.4,0,0,1-17.5,4.6" fill="none" stroke="#cef8d2" stroke-miterlimit="10" stroke-width="9.12"/>
        <path d="M278.5,300.5A35.4,35.4,0,0,1,261,330.9" fill="none" stroke="#deeedf" stroke-miterlimit="10" stroke-width="9.12"/>
      </g>
    </g>
  </g>
</svg>
