<svg xmlns="http://www.w3.org/2000/svg" xmlns:xlink="http://www.w3.org/1999/xlink" viewBox="0 0 488 600">
  <defs>
    <linearGradient id="linear-gradient" x1="435.14" y1="85.18" x2="421.04" y2="99.28" gradientUnits="userSpaceOnUse">
      <stop offset="0" stop-color="#15a6ff"/>
      <stop offset="1" stop-color="#00ffd0"/>
    </linearGradient>
    <linearGradient id="linear-gradient-2" x1="440.68" y1="90.72" x2="426.58" y2="104.82" xlink:href="#linear-gradient"/>
  </defs>
  <title>3-single-interface</title>
  <g id="network-diagram">
    <g>
      <g>
        <path d="M333.5,435.1v-.2" fill="none" stroke="#000" stroke-linecap="round" stroke-miterlimit="10"/>
        <path d="M333,428.9c-7-49.1-81.1-29.2-83.4-94.5" fill="none" stroke="#000" stroke-linecap="round" stroke-miterlimit="10" stroke-dasharray="0.5 6.03"/>
        <path d="M249.5,331.4v-.3" fill="none" stroke="#000" stroke-linecap="round" stroke-miterlimit="10"/>
      </g>
      <g>
        <path d="M187.6,449.1v-.2" fill="none" stroke="#000" stroke-linecap="round" stroke-miterlimit="10"/>
        <path d="M187.9,443c4.4-48.9,45.6-23,49.5-108.7" fill="none" stroke="#000" stroke-linecap="round" stroke-miterlimit="10" stroke-dasharray="0.49 5.86"/>
        <path d="M237.5,331.4v-.3" fill="none" stroke="#000" stroke-linecap="round" stroke-miterlimit="10"/>
      </g>
      <rect x="38.3" y="41.6" width="71" height="71" fill="none" stroke="#000" stroke-miterlimit="10"/>
      <g>
        <circle cx="54" cy="65.1" r="2.5"/>
        <circle cx="54" cy="73.1" r="2.5"/>
        <circle cx="54" cy="81.1" r="2.5"/>
        <circle cx="54" cy="89.1" r="2.5"/>
        <rect x="60.5" y="64.6" width="35.5" height="1"/>
        <rect x="60.5" y="72.6" width="35.5" height="1"/>
        <rect x="60.5" y="80.6" width="35.5" height="1"/>
        <rect x="60.5" y="88.6" width="35.5" height="1"/>
      </g>
      <circle cx="181.3" cy="78.6" r="34.5" fill="none" stroke="#000" stroke-miterlimit="10"/>
      <line x1="37.8" y1="46.1" x2="109.8" y2="46.1" fill="none" stroke="#000" stroke-miterlimit="10"/>
      <rect x="254.3" y="41.6" width="71" height="71" fill="none" stroke="#000" stroke-miterlimit="10"/>
      <line x1="253.8" y1="46.1" x2="324.8" y2="46.1" fill="#fff" stroke="#000" stroke-miterlimit="10"/>
      <g>
        <path d="M171.1,67h11.3c5.6.1,8.4,2.1,8.4,6.3a4.9,4.9,0,0,1-1.2,3.4,5.2,5.2,0,0,1-3.5,1.8h0a7.1,7.1,0,0,1,3.9,1.8,5.3,5.3,0,0,1,1.4,3.7,5.6,5.6,0,0,1-2.2,4.6c-1.4,1.1-3.5,1.6-6.3,1.6H171.1Zm10.2,9.5c2.2,0,3.3-.8,3.3-2.5s-1.1-2.5-3.3-2.5H177v5Zm.6,9.5a4.4,4.4,0,0,0,2.5-.7,2.4,2.4,0,0,0,.8-1.9,2.3,2.3,0,0,0-.8-1.9,4.4,4.4,0,0,0-2.5-.7H177V86Z"/>
        <rect x="180.3" y="62.6" width="2" height="5"/>
        <rect x="177.3" y="62.6" width="2" height="5"/>
        <rect x="180.3" y="89.6" width="2" height="5"/>
        <rect x="177.3" y="89.6" width="2" height="5"/>
      </g>
      <g>
        <circle cx="272.3" cy="54.1" r="2.5"/>
        <rect x="278.8" y="53.1" width="14.5" height="1"/>
        <rect x="269.8" y="61.6" width="40" height="13"/>
      </g>
      <g>
        <circle cx="272.3" cy="80.1" r="2.5"/>
        <rect x="278.8" y="79.1" width="14.5" height="1"/>
        <rect x="269.8" y="87.6" width="40" height="13"/>
      </g>
      <g>
        <circle cx="272.3" cy="106.1" r="2.5"/>
        <rect x="278.8" y="105.1" width="14.5" height="1"/>
      </g>
      <polygon points="438.7 41.4 379.3 41.4 379.3 102.8 424.6 102.8 438.7 88.7 438.7 41.4" fill="none" stroke="#000" stroke-miterlimit="10"/>
      <polygon points="424.6 102.8 438.7 88.7 424.6 88.7 424.6 102.8" stroke="#fff" stroke-miterlimit="10" fill="url(#linear-gradient)"/>
      <polygon points="444.2 46.9 384.8 46.9 384.8 108.3 430.1 108.3 444.2 94.2 444.2 46.9" fill="#fff" stroke="#000" stroke-miterlimit="10"/>
      <polygon points="430.1 108.3 444.2 94.2 430.1 94.2 430.1 108.3" fill="url(#linear-gradient-2)"/>
      <polygon points="450.3 53 390.8 53 390.8 114.4 436.2 114.4 450.3 100.3 450.3 53" fill="#fff" stroke="#000" stroke-miterlimit="10"/>
      <g>
        <g>
          <path d="M187.6,132.2v.3" fill="none" stroke="#000" stroke-linecap="round" stroke-miterlimit="10"/>
          <path d="M188,138.3c5.2,49.5,58.2,30.8,62.4,116.6" fill="none" stroke="#000" stroke-linecap="round" stroke-miterlimit="10" stroke-dasharray="0.49 5.9"/>
          <path d="M250.5,257.9v.2" fill="none" stroke="#000" stroke-linecap="round" stroke-miterlimit="10"/>
        </g>
        <g>
          <path d="M85.5,132.2v.2" fill="none" stroke="#000" stroke-linecap="round" stroke-miterlimit="10"/>
          <path d="M86.4,138.4c11.7,49.4,129.6,30.7,139,116.5" fill="none" stroke="#000" stroke-linecap="round" stroke-miterlimit="10" stroke-dasharray="0.5 6.01"/>
          <path d="M225.7,257.9v.2" fill="none" stroke="#000" stroke-linecap="round" stroke-miterlimit="10"/>
        </g>
        <g>
          <path d="M300.4,132.2v.3" fill="none" stroke="#000" stroke-linecap="round" stroke-miterlimit="10"/>
          <path d="M300,138.3c-5.2,49.5-58.2,30.8-62.4,116.6" fill="none" stroke="#000" stroke-linecap="round" stroke-miterlimit="10" stroke-dasharray="0.49 5.9"/>
          <path d="M237.5,257.9v.2" fill="none" stroke="#000" stroke-linecap="round" stroke-miterlimit="10"/>
        </g>
        <g>
          <path d="M402.5,132.2v.2" fill="none" stroke="#000" stroke-linecap="round" stroke-miterlimit="10"/>
          <path d="M401.6,138.4c-11.7,49.4-129.6,30.7-139,116.5" fill="none" stroke="#000" stroke-linecap="round" stroke-miterlimit="10" stroke-dasharray="0.5 6.01"/>
          <path d="M262.3,257.9v.2" fill="none" stroke="#000" stroke-linecap="round" stroke-miterlimit="10"/>
        </g>
      </g>
      <g>
        <rect x="305.4" y="432.1" width="56.8" height="97.5" fill="#6fdc74"/>
        <g>
          <polyline points="311.9 504.6 317.9 510.6 311.9 516.6" fill="#fff"/>
          <circle cx="317.6" cy="449.6" r="6" fill="#fff"/>
          <rect x="311.9" y="460.6" width="43.8" height="9" fill="#fff"/>
          <rect x="311.9" y="475.6" width="15.8" height="9" fill="#fff"/>
        </g>
      </g>
      <rect x="125.9" y="403.1" width="155.5" height="155.5" fill="#6fdc74"/>
      <polyline points="139.4 521.6 151.4 533.6 139.4 545.6" fill="#fff"/>
      <circle cx="148.4" cy="434.6" r="9" fill="#fff"/>
      <rect x="139.4" y="455.6" width="121" height="11" fill="#fff"/>
      <rect x="139.4" y="477.6" width="76" height="11" fill="#fff"/>
      <polyline points="436.2 114.4 436.2 100 449.8 100" fill="none" stroke="#000" stroke-miterlimit="10"/>
      <g>
        <path d="M242.8,290.2h0a1.8,1.8,0,0,1,1.8-1.7h11.6a12.9,12.9,0,1,0,0,3.4H244.6A1.7,1.7,0,0,1,242.8,290.2Z" fill="#6fdc74"/>
        <g>
          <path d="M208.5,290.3a34.4,34.4,0,0,1,4.7-17.5A35.2,35.2,0,0,1,226,259.9a35.6,35.6,0,0,1,35,0,35.4,35.4,0,0,1,17.5,30.4" fill="none" stroke="#6fdc74" stroke-miterlimit="10" stroke-width="9.12"/>
          <path d="M243.5,325.2a34.7,34.7,0,0,1-17.5-4.7,35.7,35.7,0,0,1-12.8-12.8,34.7,34.7,0,0,1-4.7-17.5" fill="none" stroke="#9ae69e" stroke-miterlimit="10" stroke-width="9.12"/>
          <path d="M261,320.5a34.4,34.4,0,0,1-17.5,4.7" fill="none" stroke="#c5f1c7" stroke-miterlimit="10" stroke-width="9.12"/>
          <path d="M278.5,290.2A35,35,0,0,1,261,320.5" fill="none" stroke="#e2f8e3" stroke-miterlimit="10" stroke-width="9.12"/>
        </g>
      </g>
    </g>
  </g>
</svg>
