<svg xmlns="http://www.w3.org/2000/svg" viewBox="0 0 200 200">
  <g data-name="Layer 2">
    <g data-name="Layer 1">
      <path d="M180 174a6 6 0 1 1-6 6 6 6 0 0 1 6-6m0-14a20 20 0 1 0 20 20 20 20 0 0 0-20-20zm-53 14a6 6 0 1 1-6 6 6 6 0 0 1 6-6m0-14a20 20 0 1 0 20 20 20 20 0 0 0-20-20zm-54 14a6 6 0 1 1-6 6 6 6 0 0 1 6-6m0-14a20 20 0 1 0 20 20 20 20 0 0 0-20-20zm-53 14a6 6 0 1 1-6 6 6 6 0 0 1 6-6m0-14a20 20 0 1 0 20 20 20 20 0 0 0-20-20zm107-39a6 6 0 1 1-6 6 6 6 0 0 1 6-6m0-14a20 20 0 1 0 20 20 20 20 0 0 0-20-20zm-54 14a6 6 0 1 1-6 6 6 6 0 0 1 6-6m0-14a20 20 0 1 0 20 20 20 20 0 0 0-20-20zm-53 14a6 6 0 1 1-6 6 6 6 0 0 1 6-6m0-14a20 20 0 1 0 20 20 20 20 0 0 0-20-20zm160-40a6 6 0 1 1-6 6 6 6 0 0 1 6-6m0-14a20 20 0 1 0 20 20 20 20 0 0 0-20-20zm-53 14a6 6 0 1 1-6 6 6 6 0 0 1 6-6m0-14a20 20 0 1 0 20 20 20 20 0 0 0-20-20zM73 67a6 6 0 1 1-6 6 6 6 0 0 1 6-6m0-14a20 20 0 1 0 20 20 20 20 0 0 0-20-20zM20 67a6 6 0 1 1-6 6 6 6 0 0 1 6-6m0-14a20 20 0 1 0 20 20 20 20 0 0 0-20-20zm160-39a6 6 0 1 1-6 6 6 6 0 0 1 6-6m0-14a20 20 0 1 0 20 20 20 20 0 0 0-20-20zm-53 14a6 6 0 1 1-6 6 6 6 0 0 1 6-6m0-14a20 20 0 1 0 20 20 20 20 0 0 0-20-20zM73 14a6 6 0 1 1-6 6 6 6 0 0 1 6-6m0-14a20 20 0 1 0 20 20A20 20 0 0 0 73 0zM20 14a6 6 0 1 1-6 6 6 6 0 0 1 6-6m0-14a20 20 0 1 0 20 20A20 20 0 0 0 20 0z" fill="#4330fc"/>
      <path d="M180 121a6 6 0 1 1-6 6 6 6 0 0 1 6-6m0-14a20 20 0 1 0 20 20 20 20 0 0 0-20-20z" fill="#6fdc74"/>
    </g>
  </g>
</svg>
