<svg id="0c0fbaa5-116b-43a8-85fb-49d233cf21fa" data-name="Layer 1" xmlns="http://www.w3.org/2000/svg" viewBox="0 0 600 600"><defs><style>.\38 de226da-cddd-46ad-8864-2ade5b97d330{fill:#fff;}.\31 92cd10c-eedb-4b40-96d7-1f15ff2e381d{fill:#4330fc;}.f0899d32-f3a0-492a-b5b4-3f7ec865a409{fill:#6fdc74;}</style></defs><title>Artboard 2</title><rect class="8de226da-cddd-46ad-8864-2ade5b97d330" x="150" width="150" height="150"/><path class="192cd10c-eedb-4b40-96d7-1f15ff2e381d" d="M180.47,53.91H225V98.44H180.47Z"/><path class="8de226da-cddd-46ad-8864-2ade5b97d330" d="M219.24,94A2.71,2.71,0,1,1,222,91.26,2.71,2.71,0,0,1,219.24,94Z"/><path class="8de226da-cddd-46ad-8864-2ade5b97d330" d="M186.72,61.45a2.71,2.71,0,1,1,2.71-2.71A2.71,2.71,0,0,1,186.72,61.45Z"/><path class="192cd10c-eedb-4b40-96d7-1f15ff2e381d" d="M225,53.91h44.53V98.44H225Z"/><path class="8de226da-cddd-46ad-8864-2ade5b97d330" d="M236.2,53.91a10.84,10.84,0,0,0,21.64,0Z"/><rect class="8de226da-cddd-46ad-8864-2ade5b97d330" x="450" width="150" height="150"/><path class="192cd10c-eedb-4b40-96d7-1f15ff2e381d" d="M480.47,53.91H525V98.44H480.47Z"/><path class="8de226da-cddd-46ad-8864-2ade5b97d330" d="M519.24,94A2.71,2.71,0,1,1,522,91.26,2.71,2.71,0,0,1,519.24,94Z"/><path class="8de226da-cddd-46ad-8864-2ade5b97d330" d="M486.72,61.45a2.71,2.71,0,1,1,2.71-2.71A2.71,2.71,0,0,1,486.72,61.45Z"/><path class="192cd10c-eedb-4b40-96d7-1f15ff2e381d" d="M525.34,75A21.68,21.68,0,1,1,547,96.68,21.68,21.68,0,0,1,525.34,75Z"/><path class="8de226da-cddd-46ad-8864-2ade5b97d330" d="M562.69,75a16.6,16.6,0,0,0-16.6-16.6v.68A15.92,15.92,0,0,1,562,75Z"/><path class="8de226da-cddd-46ad-8864-2ade5b97d330" d="M557.27,75a11.18,11.18,0,0,0-11.18-11.18v.68A10.5,10.5,0,0,1,556.59,75Z"/><path class="8de226da-cddd-46ad-8864-2ade5b97d330" d="M551.85,75a5.76,5.76,0,0,0-5.76-5.76v.68A5.08,5.08,0,0,1,551.17,75Z"/><rect class="8de226da-cddd-46ad-8864-2ade5b97d330" y="150" width="150" height="150"/><path class="192cd10c-eedb-4b40-96d7-1f15ff2e381d" d="M30.47,203.91H75v44.53H30.47Z"/><path class="8de226da-cddd-46ad-8864-2ade5b97d330" d="M69.24,244A2.71,2.71,0,1,1,72,241.26,2.71,2.71,0,0,1,69.24,244Z"/><path class="8de226da-cddd-46ad-8864-2ade5b97d330" d="M36.72,211.45a2.71,2.71,0,1,1,2.71-2.71A2.71,2.71,0,0,1,36.72,211.45Z"/><path class="192cd10c-eedb-4b40-96d7-1f15ff2e381d" d="M97.27,203.91h22.27v21c0,10.26-6.88,19.5-16.88,21.78C88,250,75,239.27,75,225.59V203.91Z"/><path class="8de226da-cddd-46ad-8864-2ade5b97d330" d="M84.38,248.44V203.91h2.34v44.53Z"/><rect class="8de226da-cddd-46ad-8864-2ade5b97d330" x="150" y="150" width="150" height="150"/><path class="192cd10c-eedb-4b40-96d7-1f15ff2e381d" d="M180.47,203.91H225v44.53H180.47Z"/><path class="8de226da-cddd-46ad-8864-2ade5b97d330" d="M219.24,244a2.71,2.71,0,1,1,2.71-2.71A2.71,2.71,0,0,1,219.24,244Z"/><path class="8de226da-cddd-46ad-8864-2ade5b97d330" d="M186.72,211.45a2.71,2.71,0,1,1,2.71-2.71A2.71,2.71,0,0,1,186.72,211.45Z"/><path class="192cd10c-eedb-4b40-96d7-1f15ff2e381d" d="M225,203.91h44.53v44.53H225Z"/><path class="8de226da-cddd-46ad-8864-2ade5b97d330" d="M225.58,203.08l43.33,43.33-.48.48L225.1,203.56Z"/><path class="8de226da-cddd-46ad-8864-2ade5b97d330" d="M241.63,219a38.16,38.16,0,0,0-11.21,27.07h.68a37.48,37.48,0,0,1,11-26.59Z"/><path class="8de226da-cddd-46ad-8864-2ade5b97d330" d="M245.46,222.86a32.76,32.76,0,0,0-9.62,23.23h.68a32.08,32.08,0,0,1,9.43-22.76Z"/><path class="8de226da-cddd-46ad-8864-2ade5b97d330" d="M249.3,226.69a27.35,27.35,0,0,0-8,19.4h.68a26.68,26.68,0,0,1,7.84-18.92Z"/><path class="8de226da-cddd-46ad-8864-2ade5b97d330" d="M253.13,230.52a22,22,0,0,0-6.45,15.57h.68A21.27,21.27,0,0,1,253.61,231Z"/><path class="8de226da-cddd-46ad-8864-2ade5b97d330" d="M257,234.36a16.55,16.55,0,0,0-4.86,11.74h.68a15.87,15.87,0,0,1,4.66-11.26Z"/><path class="8de226da-cddd-46ad-8864-2ade5b97d330" d="M260.79,238.19a11.14,11.14,0,0,0-3.27,7.9h.68a10.47,10.47,0,0,1,3.08-7.43Z"/><path class="8de226da-cddd-46ad-8864-2ade5b97d330" d="M264.63,242a5.74,5.74,0,0,0-1.69,4.07h.68a5.07,5.07,0,0,1,1.49-3.59Z"/><rect class="8de226da-cddd-46ad-8864-2ade5b97d330" x="300" y="150" width="150" height="150"/><path class="192cd10c-eedb-4b40-96d7-1f15ff2e381d" d="M330.47,203.91H375v44.53H330.47Z"/><path class="8de226da-cddd-46ad-8864-2ade5b97d330" d="M369.24,244a2.71,2.71,0,1,1,2.71-2.71A2.71,2.71,0,0,1,369.24,244Z"/><path class="8de226da-cddd-46ad-8864-2ade5b97d330" d="M336.72,211.45a2.71,2.71,0,1,1,2.71-2.71A2.71,2.71,0,0,1,336.72,211.45Z"/><path class="192cd10c-eedb-4b40-96d7-1f15ff2e381d" d="M375.34,225A21.68,21.68,0,1,1,397,246.68,21.68,21.68,0,0,1,375.34,225Z"/><path class="8de226da-cddd-46ad-8864-2ade5b97d330" d="M410.57,225a2.71,2.71,0,1,1,2.71,2.71A2.71,2.71,0,0,1,410.57,225Z"/><rect class="8de226da-cddd-46ad-8864-2ade5b97d330" x="450" y="150" width="150" height="150"/><path class="192cd10c-eedb-4b40-96d7-1f15ff2e381d" d="M480.47,203.91H525v44.53H480.47Z"/><path class="8de226da-cddd-46ad-8864-2ade5b97d330" d="M519.24,244a2.71,2.71,0,1,1,2.71-2.71A2.71,2.71,0,0,1,519.24,244Z"/><path class="8de226da-cddd-46ad-8864-2ade5b97d330" d="M486.72,211.45a2.71,2.71,0,1,1,2.71-2.71A2.71,2.71,0,0,1,486.72,211.45Z"/><path class="192cd10c-eedb-4b40-96d7-1f15ff2e381d" d="M525,247.27V203.91h43.36A43.36,43.36,0,0,1,525,247.27Z"/><path class="8de226da-cddd-46ad-8864-2ade5b97d330" d="M546.34,203.91H547a22,22,0,0,1-22,22v-.68A21.34,21.34,0,0,0,546.34,203.91Z"/><rect class="8de226da-cddd-46ad-8864-2ade5b97d330" y="300" width="150" height="150"/><path class="192cd10c-eedb-4b40-96d7-1f15ff2e381d" d="M30.47,353.91H75v44.53H30.47Z"/><path class="8de226da-cddd-46ad-8864-2ade5b97d330" d="M69.24,394A2.71,2.71,0,1,1,72,391.26,2.71,2.71,0,0,1,69.24,394Z"/><path class="8de226da-cddd-46ad-8864-2ade5b97d330" d="M36.72,361.45a2.71,2.71,0,1,1,2.71-2.71A2.71,2.71,0,0,1,36.72,361.45Z"/><path class="192cd10c-eedb-4b40-96d7-1f15ff2e381d" d="M75.34,375A21.68,21.68,0,1,1,97,396.68,21.68,21.68,0,0,1,75.34,375Z"/><rect class="8de226da-cddd-46ad-8864-2ade5b97d330" x="150" y="300" width="150" height="150"/><path class="192cd10c-eedb-4b40-96d7-1f15ff2e381d" d="M180.47,353.91H225v44.53H180.47Z"/><path class="8de226da-cddd-46ad-8864-2ade5b97d330" d="M219.24,394a2.71,2.71,0,1,1,2.71-2.71A2.71,2.71,0,0,1,219.24,394Z"/><path class="8de226da-cddd-46ad-8864-2ade5b97d330" d="M186.72,361.45a2.71,2.71,0,1,1,2.71-2.71A2.71,2.71,0,0,1,186.72,361.45Z"/><path class="192cd10c-eedb-4b40-96d7-1f15ff2e381d" d="M225.34,375A21.68,21.68,0,1,1,247,396.68,21.68,21.68,0,0,1,225.34,375Z"/><path class="8de226da-cddd-46ad-8864-2ade5b97d330" d="M247,385.5a10.5,10.5,0,1,0-10.5-10.5A10.5,10.5,0,0,0,247,385.5Zm0,.68A11.18,11.18,0,1,0,235.84,375,11.18,11.18,0,0,0,247,386.18Z"/><path class="8de226da-cddd-46ad-8864-2ade5b97d330" d="M233.47,375a2.71,2.71,0,1,1-2.71-2.71A2.71,2.71,0,0,1,233.47,375Z"/><rect class="8de226da-cddd-46ad-8864-2ade5b97d330" x="300" y="300" width="150" height="150"/><path class="192cd10c-eedb-4b40-96d7-1f15ff2e381d" d="M330.47,353.91H375v44.53H330.47Z"/><path class="8de226da-cddd-46ad-8864-2ade5b97d330" d="M369.24,394a2.71,2.71,0,1,1,2.71-2.71A2.71,2.71,0,0,1,369.24,394Z"/><path class="8de226da-cddd-46ad-8864-2ade5b97d330" d="M336.72,361.45a2.71,2.71,0,1,1,2.71-2.71A2.71,2.71,0,0,1,336.72,361.45Z"/><path class="192cd10c-eedb-4b40-96d7-1f15ff2e381d" d="M375,353.91h44.53v44.53H375Z"/><path class="8de226da-cddd-46ad-8864-2ade5b97d330" d="M416,358.74a2.71,2.71,0,1,1-2.71-2.71A2.71,2.71,0,0,1,416,358.74Z"/><path class="8de226da-cddd-46ad-8864-2ade5b97d330" d="M383.47,391.26a2.71,2.71,0,1,1-2.71-2.71A2.71,2.71,0,0,1,383.47,391.26Z"/><rect class="8de226da-cddd-46ad-8864-2ade5b97d330" x="450" y="300" width="150" height="150"/><path class="f0899d32-f3a0-492a-b5b4-3f7ec865a409" d="M480.47,353.91H525v44.53H480.47Z"/><path class="8de226da-cddd-46ad-8864-2ade5b97d330" d="M519.24,394a2.71,2.71,0,1,1,2.71-2.71A2.71,2.71,0,0,1,519.24,394Z"/><path class="8de226da-cddd-46ad-8864-2ade5b97d330" d="M486.72,361.45a2.71,2.71,0,1,1,2.71-2.71A2.71,2.71,0,0,1,486.72,361.45Z"/><path class="f0899d32-f3a0-492a-b5b4-3f7ec865a409" d="M525.34,375A21.68,21.68,0,1,1,547,396.68,21.68,21.68,0,0,1,525.34,375Z"/><path class="8de226da-cddd-46ad-8864-2ade5b97d330" d="M525.58,353.08l43.33,43.33-.48.48L525.1,353.56Z"/><path class="8de226da-cddd-46ad-8864-2ade5b97d330" d="M562.82,391.28l-10.39-10.39.48-.48L563.3,390.8Z"/><path class="8de226da-cddd-46ad-8864-2ade5b97d330" d="M562.69,375a16.6,16.6,0,0,0-16.6-16.6v.68A15.92,15.92,0,0,1,562,375Z"/><rect class="8de226da-cddd-46ad-8864-2ade5b97d330" y="450" width="150" height="150"/><path class="192cd10c-eedb-4b40-96d7-1f15ff2e381d" d="M30.47,503.91H75v44.53H30.47Z"/><path class="8de226da-cddd-46ad-8864-2ade5b97d330" d="M69.24,544A2.71,2.71,0,1,1,72,541.26,2.71,2.71,0,0,1,69.24,544Z"/><path class="8de226da-cddd-46ad-8864-2ade5b97d330" d="M36.72,511.45a2.71,2.71,0,1,1,2.71-2.71A2.71,2.71,0,0,1,36.72,511.45Z"/><path class="192cd10c-eedb-4b40-96d7-1f15ff2e381d" d="M75,503.91h44.53v44.53H75Z"/><path class="8de226da-cddd-46ad-8864-2ade5b97d330" d="M117.19,514.18a10.84,10.84,0,0,0,0,21.64Z"/><rect class="8de226da-cddd-46ad-8864-2ade5b97d330" x="150" y="450" width="150" height="150"/><path class="192cd10c-eedb-4b40-96d7-1f15ff2e381d" d="M180.47,503.91H225v44.53H180.47Z"/><path class="8de226da-cddd-46ad-8864-2ade5b97d330" d="M219.24,544a2.71,2.71,0,1,1,2.71-2.71A2.71,2.71,0,0,1,219.24,544Z"/><path class="8de226da-cddd-46ad-8864-2ade5b97d330" d="M186.72,511.45a2.71,2.71,0,1,1,2.71-2.71A2.71,2.71,0,0,1,186.72,511.45Z"/><path class="192cd10c-eedb-4b40-96d7-1f15ff2e381d" d="M268.7,503.32a43.36,43.36,0,0,1-43.36,43.36A43.36,43.36,0,0,1,268.7,503.32Z"/><path class="8de226da-cddd-46ad-8864-2ade5b97d330" d="M230.74,540.8l10.39-10.39.48.48-10.39,10.39Z"/><rect class="8de226da-cddd-46ad-8864-2ade5b97d330" x="300" y="450" width="150" height="150"/><path class="192cd10c-eedb-4b40-96d7-1f15ff2e381d" d="M330.47,503.91H375v44.53H330.47Z"/><path class="8de226da-cddd-46ad-8864-2ade5b97d330" d="M369.24,544a2.71,2.71,0,1,1,2.71-2.71A2.71,2.71,0,0,1,369.24,544Z"/><path class="8de226da-cddd-46ad-8864-2ade5b97d330" d="M336.72,511.45a2.71,2.71,0,1,1,2.71-2.71A2.71,2.71,0,0,1,336.72,511.45Z"/><path class="192cd10c-eedb-4b40-96d7-1f15ff2e381d" d="M419.53,523.83v22.27H397.36c-9.59,0-18.41-6-21.26-15.16a22.34,22.34,0,0,1,21.16-29.38h22.27Z"/><path class="8de226da-cddd-46ad-8864-2ade5b97d330" d="M375.58,503.08l43.33,43.33-.48.48L375.1,503.56Z"/><path class="8de226da-cddd-46ad-8864-2ade5b97d330" d="M402.41,531a38.16,38.16,0,0,0,11.21-27.07h-.68a37.48,37.48,0,0,1-11,26.59Z"/><path class="8de226da-cddd-46ad-8864-2ade5b97d330" d="M398.57,527.14a32.76,32.76,0,0,0,9.62-23.23h-.68a32.08,32.08,0,0,1-9.43,22.76Z"/><path class="8de226da-cddd-46ad-8864-2ade5b97d330" d="M394.74,523.31a27.35,27.35,0,0,0,8-19.4h-.68a26.68,26.68,0,0,1-7.84,18.92Z"/><path class="8de226da-cddd-46ad-8864-2ade5b97d330" d="M390.91,519.48a22,22,0,0,0,6.45-15.57h-.68A21.27,21.27,0,0,1,390.43,519Z"/><path class="8de226da-cddd-46ad-8864-2ade5b97d330" d="M387.08,515.64a16.55,16.55,0,0,0,4.86-11.74h-.68a15.87,15.87,0,0,1-4.66,11.26Z"/><path class="8de226da-cddd-46ad-8864-2ade5b97d330" d="M383.24,511.81a11.14,11.14,0,0,0,3.27-7.9h-.68a10.47,10.47,0,0,1-3.08,7.43Z"/><path class="8de226da-cddd-46ad-8864-2ade5b97d330" d="M379.41,508a5.74,5.74,0,0,0,1.69-4.07h-.68a5.07,5.07,0,0,1-1.49,3.59Z"/><rect class="8de226da-cddd-46ad-8864-2ade5b97d330" x="450" y="450" width="150" height="150"/><path class="192cd10c-eedb-4b40-96d7-1f15ff2e381d" d="M480.47,503.91H525v44.53H480.47Z"/><path class="8de226da-cddd-46ad-8864-2ade5b97d330" d="M519.24,544a2.71,2.71,0,1,1,2.71-2.71A2.71,2.71,0,0,1,519.24,544Z"/><path class="8de226da-cddd-46ad-8864-2ade5b97d330" d="M486.72,511.45a2.71,2.71,0,1,1,2.71-2.71A2.71,2.71,0,0,1,486.72,511.45Z"/><path class="192cd10c-eedb-4b40-96d7-1f15ff2e381d" d="M526.17,503.91h43.36v43.36A43.36,43.36,0,0,1,526.17,503.91Z"/><rect class="8de226da-cddd-46ad-8864-2ade5b97d330" width="150" height="150"/><path class="192cd10c-eedb-4b40-96d7-1f15ff2e381d" d="M31.3,53.32H74.66V96.68H31.3Z"/><path class="8de226da-cddd-46ad-8864-2ade5b97d330" d="M69.24,94A2.71,2.71,0,1,1,72,91.26,2.71,2.71,0,0,1,69.24,94Z"/><path class="8de226da-cddd-46ad-8864-2ade5b97d330" d="M36.72,61.45a2.71,2.71,0,1,1,2.71-2.71A2.71,2.71,0,0,1,36.72,61.45Z"/><path class="192cd10c-eedb-4b40-96d7-1f15ff2e381d" d="M118.7,96.68H75.34V53.32A43.36,43.36,0,0,1,118.7,96.68Z"/><path class="8de226da-cddd-46ad-8864-2ade5b97d330" d="M75.34,74.66H118.7v.68H75.34Z"/><path class="8de226da-cddd-46ad-8864-2ade5b97d330" d="M80.42,53.32h.68V96.68h-.68Z"/><path class="8de226da-cddd-46ad-8864-2ade5b97d330" d="M85.84,53.32h.68V96.68h-.68Z"/><path class="8de226da-cddd-46ad-8864-2ade5b97d330" d="M91.26,53.32h.68V96.68h-.68Z"/><path class="8de226da-cddd-46ad-8864-2ade5b97d330" d="M96.68,53.32h.68V96.68h-.68Z"/><path class="8de226da-cddd-46ad-8864-2ade5b97d330" d="M102.1,53.32h.68V96.68h-.68Z"/><path class="8de226da-cddd-46ad-8864-2ade5b97d330" d="M107.52,53.32h.68V96.68h-.68Z"/><path class="8de226da-cddd-46ad-8864-2ade5b97d330" d="M112.94,53.32h.68V96.68h-.68Z"/><rect class="8de226da-cddd-46ad-8864-2ade5b97d330" x="300" width="150" height="150"/><path class="192cd10c-eedb-4b40-96d7-1f15ff2e381d" d="M331.3,53.32h43.36V96.68H331.3Z"/><path class="8de226da-cddd-46ad-8864-2ade5b97d330" d="M369.24,94A2.71,2.71,0,1,1,372,91.26,2.71,2.71,0,0,1,369.24,94Z"/><path class="8de226da-cddd-46ad-8864-2ade5b97d330" d="M336.72,61.45a2.71,2.71,0,1,1,2.71-2.71A2.71,2.71,0,0,1,336.72,61.45Z"/><path class="192cd10c-eedb-4b40-96d7-1f15ff2e381d" d="M418.7,53.32V96.68H375.34A43.36,43.36,0,0,1,418.7,53.32Z"/><path class="8de226da-cddd-46ad-8864-2ade5b97d330" d="M380.42,53.32h.68V96.68h-.68Z"/><path class="8de226da-cddd-46ad-8864-2ade5b97d330" d="M385.84,53.32h.68V96.68h-.68Z"/><path class="8de226da-cddd-46ad-8864-2ade5b97d330" d="M391.26,53.32h.68V96.68h-.68Z"/><path class="8de226da-cddd-46ad-8864-2ade5b97d330" d="M396.68,53.32h.68V96.68h-.68Z"/><path class="8de226da-cddd-46ad-8864-2ade5b97d330" d="M402.1,53.32h.68V96.68h-.68Z"/><path class="8de226da-cddd-46ad-8864-2ade5b97d330" d="M407.52,53.32h.68V96.68h-.68Z"/><path class="8de226da-cddd-46ad-8864-2ade5b97d330" d="M412.94,53.32h.68V96.68h-.68Z"/></svg>