<?xml version="1.0" encoding="UTF-8"?>
<svg width="100px" height="100px" viewBox="0 0 100 100" version="1.1" xmlns="http://www.w3.org/2000/svg" xmlns:xlink="http://www.w3.org/1999/xlink">
    <!-- Generator: Sketch 48.2 (47327) - http://www.bohemiancoding.com/sketch -->
    <title>sticker-2</title>
    <desc>Created with Sketch.</desc>
    <defs></defs>
    <g id="History-+-Story-1-(Grid)" stroke="none" stroke-width="1" fill="none" fill-rule="evenodd" transform="translate(-730.000000, -1270.000000)">
        <polygon id="Star-Copy" fill="#FCC440" points="780.384604 1362.32414 773.644355 1369.53895 769.100586 1360.77319 760.66375 1365.90196 758.653451 1356.23536 749.145751 1358.89771 749.818017 1349.0472 739.944594 1349.04568 743.249567 1339.74183 733.742688 1337.07654 739.435253 1329.00937 731 1323.878 738.657964 1317.64582 731.919942 1310.42893 740.97535 1306.49395 736.434286 1297.72678 746.21554 1296.38084 744.208224 1286.71362 753.989892 1288.05654 754.665199 1278.20624 763.72182 1282.13842 767.029664 1272.83559 774.689551 1279.06541 780.384604 1271 786.079657 1279.06541 793.739544 1272.83559 797.047388 1282.13842 806.10401 1278.20624 806.779316 1288.05654 816.560984 1286.71362 814.553669 1296.38084 824.334922 1297.72678 819.793858 1306.49395 828.849266 1310.42893 822.111244 1317.64582 829.769208 1323.878 821.333956 1329.00937 827.02652 1337.07654 817.519641 1339.74183 820.824614 1349.04568 810.951191 1349.0472 811.623457 1358.89771 802.115757 1356.23536 800.105458 1365.90196 791.668622 1360.77319 787.124853 1369.53895"></polygon>
        <path d="M750.61916,1307.09288 C751.371164,1308.03155 751.74716,1309.39687 751.74716,1311.18888 C751.74716,1313.02356 751.360497,1314.37821 750.58716,1315.25288 C749.813823,1316.12755 748.707167,1316.56488 747.26716,1316.56488 C746.296488,1316.56488 745.488496,1316.37822 744.84316,1316.00488 C744.197823,1315.63155 743.715161,1315.05022 743.39516,1314.26088 L745.85916,1313.28488 C745.95516,1313.67955 746.112492,1313.97822 746.33116,1314.18088 C746.549828,1314.38355 746.877824,1314.48488 747.31516,1314.48488 C748.6165,1314.48488 749.26716,1313.48756 749.26716,1311.49288 L749.26716,1311.23688 L749.21916,1311.23688 C749.080493,1311.68489 748.776496,1312.02888 748.30716,1312.26888 C747.837824,1312.50888 747.299163,1312.62888 746.69116,1312.62888 C746.061823,1312.62888 745.485829,1312.49022 744.96316,1312.21288 C744.440491,1311.93555 744.027161,1311.54089 743.72316,1311.02888 C743.419158,1310.51688 743.26716,1309.93022 743.26716,1309.26888 C743.26716,1308.14888 743.627156,1307.27155 744.34716,1306.63688 C745.067163,1306.00221 746.07782,1305.68488 747.37916,1305.68488 C748.787167,1305.68488 749.867156,1306.15421 750.61916,1307.09288 Z M746.18716,1308.21288 C745.925825,1308.45822 745.79516,1308.80488 745.79516,1309.25288 C745.79516,1309.70089 745.925825,1310.04755 746.18716,1310.29288 C746.448495,1310.53822 746.819157,1310.66088 747.29916,1310.66088 C747.768496,1310.66088 748.136492,1310.53555 748.40316,1310.28488 C748.669828,1310.03422 748.80316,1309.69022 748.80316,1309.25288 C748.80316,1308.81555 748.669828,1308.47155 748.40316,1308.22088 C748.136492,1307.97022 747.768496,1307.84488 747.29916,1307.84488 C746.819157,1307.84488 746.448495,1307.96755 746.18716,1308.21288 Z M770.40316,1308.98088 C770.915162,1309.47155 771.165827,1310.17021 771.15516,1311.07688 L771.12316,1316.40488 L768.43516,1316.40488 L768.43516,1311.70088 C768.43516,1310.78355 768.072497,1310.32488 767.34716,1310.32488 C766.920491,1310.32488 766.579161,1310.47955 766.32316,1310.78888 C766.067159,1311.09822 765.93916,1311.54621 765.93916,1312.13288 L765.93916,1316.40488 L763.21916,1316.40488 L763.21916,1311.70088 C763.21916,1310.78355 762.856497,1310.32488 762.13116,1310.32488 C761.725825,1310.32488 761.389828,1310.47955 761.12316,1310.78888 C760.856492,1311.09822 760.72316,1311.56221 760.72316,1312.18088 L760.72316,1316.40488 L758.00316,1316.40488 L758.00316,1308.40488 L760.43516,1308.40488 L760.51516,1309.94088 C760.771161,1309.38621 761.128491,1308.96488 761.58716,1308.67688 C762.045829,1308.38888 762.58449,1308.24488 763.20316,1308.24488 C763.811163,1308.24488 764.339158,1308.38355 764.78716,1308.66088 C765.235162,1308.93822 765.555159,1309.33821 765.74716,1309.86088 C766.003161,1309.33821 766.363158,1308.93822 766.82716,1308.66088 C767.291162,1308.38355 767.821824,1308.24488 768.41916,1308.24488 C769.229831,1308.24488 769.891157,1308.49021 770.40316,1308.98088 Z M780.01116,1309.34088 C780.752497,1310.07155 781.12316,1311.09288 781.12316,1312.40488 C781.12316,1313.71689 780.752497,1314.73821 780.01116,1315.46888 C779.269823,1316.19955 778.2325,1316.56488 776.89916,1316.56488 C775.56582,1316.56488 774.528497,1316.19955 773.78716,1315.46888 C773.045823,1314.73821 772.67516,1313.71689 772.67516,1312.40488 C772.67516,1311.09288 773.045823,1310.07155 773.78716,1309.34088 C774.528497,1308.61021 775.56582,1308.24488 776.89916,1308.24488 C778.2325,1308.24488 779.269823,1308.61021 780.01116,1309.34088 Z M775.76316,1310.70888 C775.517825,1311.06088 775.39516,1311.62621 775.39516,1312.40488 C775.39516,1313.18355 775.517825,1313.74888 775.76316,1314.10088 C776.008494,1314.45288 776.387157,1314.62888 776.89916,1314.62888 C777.411162,1314.62888 777.789825,1314.45288 778.03516,1314.10088 C778.280494,1313.74888 778.40316,1313.18355 778.40316,1312.40488 C778.40316,1311.62621 778.280494,1311.06088 778.03516,1310.70888 C777.789825,1310.35688 777.411162,1310.18088 776.89916,1310.18088 C776.387157,1310.18088 776.008494,1310.35688 775.76316,1310.70888 Z M789.95516,1308.98088 C790.456496,1309.47155 790.70716,1310.17021 790.70716,1311.07688 L790.70716,1316.40488 L787.98716,1316.40488 L787.98716,1311.82888 C787.98716,1311.28488 787.888494,1310.89822 787.69116,1310.66888 C787.493826,1310.43955 787.213828,1310.32488 786.85116,1310.32488 C786.424491,1310.32488 786.077828,1310.47688 785.81116,1310.78088 C785.544492,1311.08488 785.41116,1311.55155 785.41116,1312.18088 L785.41116,1316.40488 L782.69116,1316.40488 L782.69116,1308.40488 L785.12316,1308.40488 L785.20316,1309.95688 C785.448494,1309.39155 785.805824,1308.96488 786.27516,1308.67688 C786.744496,1308.38888 787.299157,1308.24488 787.93916,1308.24488 C788.781831,1308.24488 789.453824,1308.49021 789.95516,1308.98088 Z M798.37116,1315.95688 C798.104492,1316.13822 797.765829,1316.28488 797.35516,1316.39688 C796.944491,1316.50888 796.531162,1316.56488 796.11516,1316.56488 C795.165822,1316.56488 794.440496,1316.36222 793.93916,1315.95688 C793.437824,1315.55155 793.181827,1314.90089 793.17116,1314.00488 L793.17116,1310.34088 L791.79516,1310.34088 L791.79516,1308.40488 L793.17116,1308.40488 L793.17116,1306.61288 L795.89116,1305.86088 L795.89116,1308.40488 L798.29116,1308.40488 L798.29116,1310.34088 L795.89116,1310.34088 L795.89116,1313.55688 C795.89116,1314.27155 796.243156,1314.62888 796.94716,1314.62888 C797.384495,1314.62888 797.768492,1314.51155 798.09916,1314.27688 L798.37116,1315.95688 Z M806.97916,1308.98088 C807.480496,1309.47155 807.73116,1310.17021 807.73116,1311.07688 L807.73116,1316.40488 L805.01116,1316.40488 L805.01116,1311.82888 C805.01116,1310.81554 804.632497,1310.30888 803.87516,1310.30888 C803.448491,1310.30888 803.101828,1310.46355 802.83516,1310.77288 C802.568492,1311.08222 802.43516,1311.55688 802.43516,1312.19688 L802.43516,1316.40488 L799.71516,1316.40488 L799.71516,1305.01288 L802.43516,1305.01288 L802.43516,1309.84488 C802.669828,1309.32221 803.003158,1308.92488 803.43516,1308.65288 C803.867162,1308.38088 804.37649,1308.24488 804.96316,1308.24488 C805.805831,1308.24488 806.477824,1308.49021 806.97916,1308.98088 Z M809.04316,1315.15688 L810.45116,1313.62088 C810.909829,1314.37822 811.699154,1314.75688 812.81916,1314.75688 C813.192495,1314.75688 813.485825,1314.70622 813.69916,1314.60488 C813.912494,1314.50355 814.01916,1314.36755 814.01916,1314.19688 C814.01916,1314.04755 813.909828,1313.91688 813.69116,1313.80488 C813.472492,1313.69288 813.096496,1313.58355 812.56316,1313.47688 C811.368487,1313.24222 810.517829,1312.92222 810.01116,1312.51688 C809.504491,1312.11155 809.25116,1311.57289 809.25116,1310.90088 C809.25116,1310.44221 809.395158,1310.01022 809.68316,1309.60488 C809.971161,1309.19955 810.405824,1308.87155 810.98716,1308.62088 C811.568496,1308.37022 812.275156,1308.24488 813.10716,1308.24488 C814.024498,1308.24488 814.773824,1308.37022 815.35516,1308.62088 C815.936496,1308.87155 816.408491,1309.24755 816.77116,1309.74888 L815.36316,1311.12488 C815.107159,1310.75155 814.803162,1310.47955 814.45116,1310.30888 C814.099158,1310.13822 813.677829,1310.05288 813.18716,1310.05288 C812.803158,1310.05288 812.504494,1310.11155 812.29116,1310.22888 C812.077825,1310.34622 811.97116,1310.49022 811.97116,1310.66088 C811.97116,1310.82088 812.080492,1310.95688 812.29916,1311.06888 C812.517828,1311.18088 812.899157,1311.29022 813.44316,1311.39688 C814.616499,1311.59955 815.461824,1311.90088 815.97916,1312.30088 C816.496496,1312.70089 816.75516,1313.24755 816.75516,1313.94088 C816.75516,1314.71955 816.42983,1315.35155 815.77916,1315.83688 C815.12849,1316.32222 814.184499,1316.56488 812.94716,1316.56488 C811.112484,1316.56488 809.811164,1316.09555 809.04316,1315.15688 Z M762.45916,1337.63688 C762.45916,1337.99955 762.512493,1338.25555 762.61916,1338.40488 C762.725827,1338.55422 762.917825,1338.62888 763.19516,1338.62888 C763.451161,1338.62888 763.723158,1338.58088 764.01116,1338.48488 L763.83516,1340.16488 C763.643159,1340.28222 763.392495,1340.37822 763.08316,1340.45288 C762.773825,1340.52755 762.469828,1340.56488 762.17116,1340.56488 C761.317822,1340.56488 760.699162,1340.36489 760.31516,1339.96488 C759.931158,1339.56488 759.73916,1338.92222 759.73916,1338.03688 L759.73916,1329.01288 L762.45916,1329.01288 L762.45916,1337.63688 Z M773.25916,1338.78888 L773.05116,1340.30888 C772.741825,1340.47955 772.379162,1340.56488 771.96316,1340.56488 C770.811154,1340.56488 770.123161,1340.15422 769.89916,1339.33288 C769.419157,1340.15422 768.469834,1340.56488 767.05116,1340.56488 C766.251156,1340.56488 765.637829,1340.39422 765.21116,1340.05288 C764.784491,1339.71155 764.57116,1339.21555 764.57116,1338.56488 C764.57116,1337.88221 764.813824,1337.33022 765.29916,1336.90888 C765.784496,1336.48755 766.581821,1336.16488 767.69116,1335.94088 L769.49916,1335.58888 L769.49916,1335.30088 C769.49916,1334.93821 769.397828,1334.65022 769.19516,1334.43688 C768.992492,1334.22355 768.715162,1334.11688 768.36316,1334.11688 C767.957825,1334.11688 767.627161,1334.21288 767.37116,1334.40488 C767.115159,1334.59688 766.949827,1334.91155 766.87516,1335.34888 L764.66716,1334.70888 C764.805827,1333.93021 765.189823,1333.32489 765.81916,1332.89288 C766.448496,1332.46088 767.296488,1332.24488 768.36316,1332.24488 C769.611166,1332.24488 770.56049,1332.50088 771.21116,1333.01288 C771.86183,1333.52489 772.18716,1334.29288 772.18716,1335.31688 L772.18716,1338.22888 C772.18716,1338.64489 772.379158,1338.85288 772.76316,1338.85288 C772.965828,1338.85288 773.131159,1338.83155 773.25916,1338.78888 Z M769.05116,1338.49288 C769.349828,1338.28488 769.49916,1338.01022 769.49916,1337.66888 L769.49916,1336.98088 L768.20316,1337.28488 C767.861825,1337.37022 767.619161,1337.47422 767.47516,1337.59688 C767.331159,1337.71955 767.25916,1337.89288 767.25916,1338.11688 C767.25916,1338.34088 767.328493,1338.51155 767.46716,1338.62888 C767.605827,1338.74622 767.797825,1338.80488 768.04316,1338.80488 C768.416495,1338.80488 768.752492,1338.70088 769.05116,1338.49288 Z M779.81916,1339.95688 C779.552492,1340.13822 779.213829,1340.28488 778.80316,1340.39688 C778.392491,1340.50888 777.979162,1340.56488 777.56316,1340.56488 C776.613822,1340.56488 775.888496,1340.36222 775.38716,1339.95688 C774.885824,1339.55155 774.629827,1338.90089 774.61916,1338.00488 L774.61916,1334.34088 L773.24316,1334.34088 L773.24316,1332.40488 L774.61916,1332.40488 L774.61916,1330.61288 L777.33916,1329.86088 L777.33916,1332.40488 L779.73916,1332.40488 L779.73916,1334.34088 L777.33916,1334.34088 L777.33916,1337.55688 C777.33916,1338.27155 777.691156,1338.62888 778.39516,1338.62888 C778.832495,1338.62888 779.216492,1338.51155 779.54716,1338.27688 L779.81916,1339.95688 Z M788.68316,1337.18888 L783.22716,1337.18888 C783.312494,1337.69022 783.496492,1338.05822 783.77916,1338.29288 C784.061828,1338.52755 784.437824,1338.64488 784.90716,1338.64488 C785.301829,1338.64488 785.624492,1338.57022 785.87516,1338.42088 C786.125828,1338.27155 786.293826,1338.05288 786.37916,1337.76488 L788.58716,1338.46888 C788.363159,1339.15155 787.928496,1339.67155 787.28316,1340.02888 C786.637823,1340.38622 785.845831,1340.56488 784.90716,1340.56488 C783.50982,1340.56488 782.440497,1340.20222 781.69916,1339.47688 C780.957823,1338.75155 780.58716,1337.72756 780.58716,1336.40488 C780.58716,1335.08221 780.949823,1334.05822 781.67516,1333.33288 C782.400497,1332.60755 783.42982,1332.24488 784.76316,1332.24488 C786.053833,1332.24488 787.043156,1332.59955 787.73116,1333.30888 C788.419163,1334.01822 788.76316,1335.01288 788.76316,1336.29288 C788.76316,1336.65555 788.736493,1336.95422 788.68316,1337.18888 Z M783.71516,1334.53288 C783.464492,1334.78888 783.301827,1335.18355 783.22716,1335.71688 L786.23516,1335.71688 C786.085826,1334.67154 785.589831,1334.14888 784.74716,1334.14888 C784.309824,1334.14888 783.965828,1334.27688 783.71516,1334.53288 Z M796.09116,1332.42088 L795.80316,1334.72488 C795.696493,1334.66088 795.552494,1334.60488 795.37116,1334.55688 C795.189826,1334.50888 794.997828,1334.48488 794.79516,1334.48488 C794.283157,1334.48488 793.856495,1334.64755 793.51516,1334.97288 C793.173825,1335.29822 793.00316,1335.76488 793.00316,1336.37288 L793.00316,1340.40488 L790.28316,1340.40488 L790.28316,1332.40488 L792.68316,1332.40488 L792.79516,1334.11688 C793.221829,1332.86888 794.032487,1332.24488 795.22716,1332.24488 C795.589828,1332.24488 795.877825,1332.30355 796.09116,1332.42088 Z M800.01116,1333.25288 L799.70716,1336.96488 L797.48316,1336.96488 L797.17916,1333.25288 L797.17916,1329.84488 L800.01116,1329.84488 L800.01116,1333.25288 Z M799.72316,1338.21288 C800.000495,1338.44755 800.13916,1338.77821 800.13916,1339.20488 C800.13916,1339.62089 800.000495,1339.94622 799.72316,1340.18088 C799.445825,1340.41555 799.067162,1340.53288 798.58716,1340.53288 C798.107157,1340.53288 797.731161,1340.41555 797.45916,1340.18088 C797.187159,1339.94622 797.05116,1339.62089 797.05116,1339.20488 C797.05116,1338.77821 797.187159,1338.44755 797.45916,1338.21288 C797.731161,1337.97822 798.107157,1337.86088 798.58716,1337.86088 C799.067162,1337.86088 799.445825,1337.97822 799.72316,1338.21288 Z" id="9-months-later!" fill="#FFFFFF" transform="translate(780.019160, 1322.788883) rotate(-15.000000) translate(-780.019160, -1322.788883) "></path>
    </g>
</svg>