<svg xmlns="http://www.w3.org/2000/svg" xmlns:xlink="http://www.w3.org/1999/xlink" viewBox="0 0 600 600"><defs><style>.\31 6a0aa05-53ac-424a-b678-90507119e6a1,.\31 88e814a-0e04-44a7-bb4f-f1a069ff11c9,.\31 b7fcb79-b3e0-46f0-a96d-d0c07a7432d8,.\31 c99717c-c870-479b-b217-9d0ecdc8fdca,.\32 81a8c70-b733-4ac9-b6c4-c5cda8084bdc,.\32 928eee5-96df-479d-915c-d6f864b1ad4f,.\32 f311582-b3fe-4910-8834-e7e77eecdda0,.\33 9910a66-811b-4228-99b9-b80f3fa2c937,.\34 ba5a90d-0e05-4610-994a-67bb376232ba,.\36 9c7976e-6e1e-45cd-9b44-9f043443dfd8,.\37 0da3148-a5a4-4f03-aff5-51eb1bba2f76,.b23012fd-f4f0-44bf-853b-e89fc87f5ffb,.bd5dfaef-8505-41f4-be7b-5d1d1cb24c48,.c8852972-f1f2-43ea-ae96-e6e9e712cdbe,.d4a07535-bd5a-4cae-938f-6d5eee37d12c,.d88906e4-3bd6-468e-a3c4-5743a711db25,.d9f78bdd-b0e5-43ab-b818-0e3d3f8e88bd,.df0d3c85-4471-45a8-94f1-0fbb9841e469,.e2316efb-e9f5-47a2-9baf-a20e04c70180,.f487e93a-38eb-406f-8072-c64c33b973e7{fill:none;}.\37 0da3148-a5a4-4f03-aff5-51eb1bba2f76,.df0d3c85-4471-45a8-94f1-0fbb9841e469{stroke:#231f20;}.df0d3c85-4471-45a8-94f1-0fbb9841e469{stroke-width:1.44px;}.\37 0da3148-a5a4-4f03-aff5-51eb1bba2f76{stroke-width:0.3px;}.e803ae6d-70ba-4e9b-b00d-5a5d026a7f42{fill:#767676;}.\33 8942ba9-c91c-4099-b02f-d2e260cf9681{fill:#6a6a6a;}.e00a67f7-6c12-4f84-b9f9-6d759193003e{fill:#d0d0d0;}.\39 9afcd64-8a52-40fe-973b-7e0568a43d22{fill:url(#b9d27e6a-88d6-4f56-b048-94d7ab4f06ca);}.ca9fb623-35b6-4ab5-8f88-73eb9e59eb43{fill:#4fe89c;}.\30 af9c46f-5658-494d-ad36-d8d5af786a2b{opacity:0.4;}.\31 6a0aa05-53ac-424a-b678-90507119e6a1,.\31 b7fcb79-b3e0-46f0-a96d-d0c07a7432d8,.\31 c99717c-c870-479b-b217-9d0ecdc8fdca,.\32 81a8c70-b733-4ac9-b6c4-c5cda8084bdc,.\32 928eee5-96df-479d-915c-d6f864b1ad4f,.\32 f311582-b3fe-4910-8834-e7e77eecdda0,.\33 9910a66-811b-4228-99b9-b80f3fa2c937,.\36 9c7976e-6e1e-45cd-9b44-9f043443dfd8,.c8852972-f1f2-43ea-ae96-e6e9e712cdbe,.d4a07535-bd5a-4cae-938f-6d5eee37d12c,.d88906e4-3bd6-468e-a3c4-5743a711db25,.f487e93a-38eb-406f-8072-c64c33b973e7{stroke:#000;}.\31 6a0aa05-53ac-424a-b678-90507119e6a1,.\31 b7fcb79-b3e0-46f0-a96d-d0c07a7432d8,.\31 c99717c-c870-479b-b217-9d0ecdc8fdca,.\32 81a8c70-b733-4ac9-b6c4-c5cda8084bdc,.\32 928eee5-96df-479d-915c-d6f864b1ad4f,.\32 f311582-b3fe-4910-8834-e7e77eecdda0,.\36 9c7976e-6e1e-45cd-9b44-9f043443dfd8,.c8852972-f1f2-43ea-ae96-e6e9e712cdbe,.d4a07535-bd5a-4cae-938f-6d5eee37d12c,.d88906e4-3bd6-468e-a3c4-5743a711db25,.f487e93a-38eb-406f-8072-c64c33b973e7{stroke-linecap:round;stroke-width:0.25px;}.\31 6a0aa05-53ac-424a-b678-90507119e6a1,.\31 8945205-a9db-4de9-94d0-c65d106162bf,.\31 b7fcb79-b3e0-46f0-a96d-d0c07a7432d8,.\31 c99717c-c870-479b-b217-9d0ecdc8fdca,.\32 81a8c70-b733-4ac9-b6c4-c5cda8084bdc,.\32 928eee5-96df-479d-915c-d6f864b1ad4f,.\32 f311582-b3fe-4910-8834-e7e77eecdda0,.\33 9910a66-811b-4228-99b9-b80f3fa2c937,.\34 ba5a90d-0e05-4610-994a-67bb376232ba,.\36 9c7976e-6e1e-45cd-9b44-9f043443dfd8,.b23012fd-f4f0-44bf-853b-e89fc87f5ffb,.bd5dfaef-8505-41f4-be7b-5d1d1cb24c48,.c8852972-f1f2-43ea-ae96-e6e9e712cdbe,.d4a07535-bd5a-4cae-938f-6d5eee37d12c,.d88906e4-3bd6-468e-a3c4-5743a711db25,.d9f78bdd-b0e5-43ab-b818-0e3d3f8e88bd,.e2316efb-e9f5-47a2-9baf-a20e04c70180,.f487e93a-38eb-406f-8072-c64c33b973e7{stroke-miterlimit:10;}.d4a07535-bd5a-4cae-938f-6d5eee37d12c{stroke-dasharray:1 3;}.f487e93a-38eb-406f-8072-c64c33b973e7{stroke-dasharray:1.01 3.03;}.\31 6a0aa05-53ac-424a-b678-90507119e6a1{stroke-dasharray:1.01 3.03;}.c8852972-f1f2-43ea-ae96-e6e9e712cdbe{stroke-dasharray:0.99 2.98;}.\32 81a8c70-b733-4ac9-b6c4-c5cda8084bdc{stroke-dasharray:1 2.99;}.d88906e4-3bd6-468e-a3c4-5743a711db25{stroke-dasharray:1.01 3.02;}.\31 b7fcb79-b3e0-46f0-a96d-d0c07a7432d8{stroke-dasharray:1 3;}.\31 c99717c-c870-479b-b217-9d0ecdc8fdca{stroke-dasharray:1 3.01;}.\32 f311582-b3fe-4910-8834-e7e77eecdda0{stroke-dasharray:1 3;}.\36 9c7976e-6e1e-45cd-9b44-9f043443dfd8{stroke-dasharray:1 3;}.\31 f679cd1-d1d5-4a08-a6c2-24e4804f4a6b{fill:url(#72494d8b-4b3d-4ef2-b147-91438738f231);}.\30 68fe71c-2ad0-40d4-9658-b5e07d72c2ca{fill:url(#8f04d77f-82ed-40fa-b4b6-b09df6ef68b4);}.\31 8945205-a9db-4de9-94d0-c65d106162bf,.e6f1de3f-d736-4196-89d1-63ceb37d776f{fill:#fff;}.\31 8945205-a9db-4de9-94d0-c65d106162bf{stroke:#fff;}.\34 ba5a90d-0e05-4610-994a-67bb376232ba,.b23012fd-f4f0-44bf-853b-e89fc87f5ffb,.bd5dfaef-8505-41f4-be7b-5d1d1cb24c48,.d9f78bdd-b0e5-43ab-b818-0e3d3f8e88bd,.e2316efb-e9f5-47a2-9baf-a20e04c70180{stroke:#454545;}.bd5dfaef-8505-41f4-be7b-5d1d1cb24c48{stroke-dasharray:3.4 3.4;}.b23012fd-f4f0-44bf-853b-e89fc87f5ffb{stroke-dasharray:2.99 2.99;}.e2316efb-e9f5-47a2-9baf-a20e04c70180{stroke-dasharray:3.4 3.4;}.\34 ba5a90d-0e05-4610-994a-67bb376232ba{stroke-dasharray:3.01 3.01;}.a8bb34d5-b398-45ed-b142-c6a503fb09a6{fill:#454545;}</style><pattern id="b9d27e6a-88d6-4f56-b048-94d7ab4f06ca" data-name="Grid 1 pica Lines" width="72" height="72" patternTransform="translate(10.56 5.97) rotate(-45) scale(0.3)" patternUnits="userSpaceOnUse" viewBox="0 0 72 72"><rect class="188e814a-0e04-44a7-bb4f-f1a069ff11c9" width="72" height="72"/><line class="70da3148-a5a4-4f03-aff5-51eb1bba2f76" x1="6" y1="71.75" x2="6" y2="144.25"/><line class="70da3148-a5a4-4f03-aff5-51eb1bba2f76" x1="30" y1="71.75" x2="30" y2="144.25"/><line class="70da3148-a5a4-4f03-aff5-51eb1bba2f76" x1="54" y1="71.75" x2="54" y2="144.25"/><line class="70da3148-a5a4-4f03-aff5-51eb1bba2f76" x1="18" y1="71.75" x2="18" y2="144.25"/><line class="70da3148-a5a4-4f03-aff5-51eb1bba2f76" x1="42" y1="71.75" x2="42" y2="144.25"/><line class="70da3148-a5a4-4f03-aff5-51eb1bba2f76" x1="66" y1="71.75" x2="66" y2="144.25"/><line class="70da3148-a5a4-4f03-aff5-51eb1bba2f76" x1="71.75" y1="66" x2="144.25" y2="66"/><line class="70da3148-a5a4-4f03-aff5-51eb1bba2f76" x1="71.75" y1="42" x2="144.25" y2="42"/><line class="70da3148-a5a4-4f03-aff5-51eb1bba2f76" x1="71.75" y1="18" x2="144.25" y2="18"/><line class="70da3148-a5a4-4f03-aff5-51eb1bba2f76" x1="71.75" y1="54" x2="144.25" y2="54"/><line class="70da3148-a5a4-4f03-aff5-51eb1bba2f76" x1="71.75" y1="30" x2="144.25" y2="30"/><line class="70da3148-a5a4-4f03-aff5-51eb1bba2f76" x1="71.75" y1="6" x2="144.25" y2="6"/><line class="70da3148-a5a4-4f03-aff5-51eb1bba2f76" x1="6" y1="-0.25" x2="6" y2="72.25"/><line class="70da3148-a5a4-4f03-aff5-51eb1bba2f76" x1="30" y1="-0.25" x2="30" y2="72.25"/><line class="70da3148-a5a4-4f03-aff5-51eb1bba2f76" x1="54" y1="-0.25" x2="54" y2="72.25"/><line class="70da3148-a5a4-4f03-aff5-51eb1bba2f76" x1="-0.25" y1="66" x2="72.25" y2="66"/><line class="70da3148-a5a4-4f03-aff5-51eb1bba2f76" x1="-0.25" y1="42" x2="72.25" y2="42"/><line class="70da3148-a5a4-4f03-aff5-51eb1bba2f76" x1="-0.25" y1="18" x2="72.25" y2="18"/><line class="70da3148-a5a4-4f03-aff5-51eb1bba2f76" x1="-0.25" y1="54" x2="72.25" y2="54"/><line class="70da3148-a5a4-4f03-aff5-51eb1bba2f76" x1="-0.25" y1="30" x2="72.25" y2="30"/><line class="70da3148-a5a4-4f03-aff5-51eb1bba2f76" x1="-0.25" y1="6" x2="72.25" y2="6"/><line class="70da3148-a5a4-4f03-aff5-51eb1bba2f76" x1="18" y1="-0.25" x2="18" y2="72.25"/><line class="70da3148-a5a4-4f03-aff5-51eb1bba2f76" x1="42" y1="-0.25" x2="42" y2="72.25"/><line class="70da3148-a5a4-4f03-aff5-51eb1bba2f76" x1="66" y1="-0.25" x2="66" y2="72.25"/><line class="70da3148-a5a4-4f03-aff5-51eb1bba2f76" x1="-72.25" y1="66" x2="0.25" y2="66"/><line class="70da3148-a5a4-4f03-aff5-51eb1bba2f76" x1="-72.25" y1="42" x2="0.25" y2="42"/><line class="70da3148-a5a4-4f03-aff5-51eb1bba2f76" x1="-72.25" y1="18" x2="0.25" y2="18"/><line class="70da3148-a5a4-4f03-aff5-51eb1bba2f76" x1="-72.25" y1="54" x2="0.25" y2="54"/><line class="70da3148-a5a4-4f03-aff5-51eb1bba2f76" x1="-72.25" y1="30" x2="0.25" y2="30"/><line class="70da3148-a5a4-4f03-aff5-51eb1bba2f76" x1="-72.25" y1="6" x2="0.25" y2="6"/><line class="70da3148-a5a4-4f03-aff5-51eb1bba2f76" x1="6" y1="-72.25" x2="6" y2="0.25"/><line class="70da3148-a5a4-4f03-aff5-51eb1bba2f76" x1="30" y1="-72.25" x2="30" y2="0.25"/><line class="70da3148-a5a4-4f03-aff5-51eb1bba2f76" x1="54" y1="-72.25" x2="54" y2="0.25"/><line class="70da3148-a5a4-4f03-aff5-51eb1bba2f76" x1="18" y1="-72.25" x2="18" y2="0.25"/><line class="70da3148-a5a4-4f03-aff5-51eb1bba2f76" x1="42" y1="-72.25" x2="42" y2="0.25"/><line class="70da3148-a5a4-4f03-aff5-51eb1bba2f76" x1="66" y1="-72.25" x2="66" y2="0.25"/></pattern><pattern id="72494d8b-4b3d-4ef2-b147-91438738f231" data-name="10 lpi 20%" width="72" height="72" patternTransform="translate(16.89 -11.13) rotate(45) scale(0.3)" patternUnits="userSpaceOnUse" viewBox="0 0 72 72"><rect class="188e814a-0e04-44a7-bb4f-f1a069ff11c9" width="72" height="72"/><line class="df0d3c85-4471-45a8-94f1-0fbb9841e469" x1="71.75" y1="68.4" x2="144.25" y2="68.4"/><line class="df0d3c85-4471-45a8-94f1-0fbb9841e469" x1="71.75" y1="54" x2="144.25" y2="54"/><line class="df0d3c85-4471-45a8-94f1-0fbb9841e469" x1="71.75" y1="39.6" x2="144.25" y2="39.6"/><line class="df0d3c85-4471-45a8-94f1-0fbb9841e469" x1="71.75" y1="25.2" x2="144.25" y2="25.2"/><line class="df0d3c85-4471-45a8-94f1-0fbb9841e469" x1="71.75" y1="10.8" x2="144.25" y2="10.8"/><line class="df0d3c85-4471-45a8-94f1-0fbb9841e469" x1="71.75" y1="61.2" x2="144.25" y2="61.2"/><line class="df0d3c85-4471-45a8-94f1-0fbb9841e469" x1="71.75" y1="46.8" x2="144.25" y2="46.8"/><line class="df0d3c85-4471-45a8-94f1-0fbb9841e469" x1="71.75" y1="32.4" x2="144.25" y2="32.4"/><line class="df0d3c85-4471-45a8-94f1-0fbb9841e469" x1="71.75" y1="18" x2="144.25" y2="18"/><line class="df0d3c85-4471-45a8-94f1-0fbb9841e469" x1="71.75" y1="3.6" x2="144.25" y2="3.6"/><line class="df0d3c85-4471-45a8-94f1-0fbb9841e469" x1="-0.25" y1="68.4" x2="72.25" y2="68.4"/><line class="df0d3c85-4471-45a8-94f1-0fbb9841e469" x1="-0.25" y1="54" x2="72.25" y2="54"/><line class="df0d3c85-4471-45a8-94f1-0fbb9841e469" x1="-0.25" y1="39.6" x2="72.25" y2="39.6"/><line class="df0d3c85-4471-45a8-94f1-0fbb9841e469" x1="-0.25" y1="25.2" x2="72.25" y2="25.2"/><line class="df0d3c85-4471-45a8-94f1-0fbb9841e469" x1="-0.25" y1="10.8" x2="72.25" y2="10.8"/><line class="df0d3c85-4471-45a8-94f1-0fbb9841e469" x1="-0.25" y1="61.2" x2="72.25" y2="61.2"/><line class="df0d3c85-4471-45a8-94f1-0fbb9841e469" x1="-0.25" y1="46.8" x2="72.25" y2="46.8"/><line class="df0d3c85-4471-45a8-94f1-0fbb9841e469" x1="-0.25" y1="32.4" x2="72.25" y2="32.4"/><line class="df0d3c85-4471-45a8-94f1-0fbb9841e469" x1="-0.25" y1="18" x2="72.25" y2="18"/><line class="df0d3c85-4471-45a8-94f1-0fbb9841e469" x1="-0.25" y1="3.6" x2="72.25" y2="3.6"/><line class="df0d3c85-4471-45a8-94f1-0fbb9841e469" x1="-72.25" y1="68.4" x2="0.25" y2="68.4"/><line class="df0d3c85-4471-45a8-94f1-0fbb9841e469" x1="-72.25" y1="54" x2="0.25" y2="54"/><line class="df0d3c85-4471-45a8-94f1-0fbb9841e469" x1="-72.25" y1="39.6" x2="0.25" y2="39.6"/><line class="df0d3c85-4471-45a8-94f1-0fbb9841e469" x1="-72.25" y1="25.2" x2="0.25" y2="25.2"/><line class="df0d3c85-4471-45a8-94f1-0fbb9841e469" x1="-72.25" y1="10.8" x2="0.25" y2="10.8"/><line class="df0d3c85-4471-45a8-94f1-0fbb9841e469" x1="-72.25" y1="61.2" x2="0.25" y2="61.2"/><line class="df0d3c85-4471-45a8-94f1-0fbb9841e469" x1="-72.25" y1="46.8" x2="0.25" y2="46.8"/><line class="df0d3c85-4471-45a8-94f1-0fbb9841e469" x1="-72.25" y1="32.4" x2="0.25" y2="32.4"/><line class="df0d3c85-4471-45a8-94f1-0fbb9841e469" x1="-72.25" y1="18" x2="0.25" y2="18"/><line class="df0d3c85-4471-45a8-94f1-0fbb9841e469" x1="-72.25" y1="3.6" x2="0.25" y2="3.6"/></pattern><pattern id="8f04d77f-82ed-40fa-b4b6-b09df6ef68b4" data-name="Grid 1 pica Lines" width="72" height="72" patternTransform="translate(9.64 2.54) scale(0.3)" patternUnits="userSpaceOnUse" viewBox="0 0 72 72"><rect class="188e814a-0e04-44a7-bb4f-f1a069ff11c9" width="72" height="72"/><line class="70da3148-a5a4-4f03-aff5-51eb1bba2f76" x1="6" y1="71.75" x2="6" y2="144.25"/><line class="70da3148-a5a4-4f03-aff5-51eb1bba2f76" x1="30" y1="71.75" x2="30" y2="144.25"/><line class="70da3148-a5a4-4f03-aff5-51eb1bba2f76" x1="54" y1="71.75" x2="54" y2="144.25"/><line class="70da3148-a5a4-4f03-aff5-51eb1bba2f76" x1="18" y1="71.75" x2="18" y2="144.25"/><line class="70da3148-a5a4-4f03-aff5-51eb1bba2f76" x1="42" y1="71.75" x2="42" y2="144.25"/><line class="70da3148-a5a4-4f03-aff5-51eb1bba2f76" x1="66" y1="71.75" x2="66" y2="144.25"/><line class="70da3148-a5a4-4f03-aff5-51eb1bba2f76" x1="71.75" y1="66" x2="144.25" y2="66"/><line class="70da3148-a5a4-4f03-aff5-51eb1bba2f76" x1="71.75" y1="42" x2="144.25" y2="42"/><line class="70da3148-a5a4-4f03-aff5-51eb1bba2f76" x1="71.75" y1="18" x2="144.25" y2="18"/><line class="70da3148-a5a4-4f03-aff5-51eb1bba2f76" x1="71.75" y1="54" x2="144.25" y2="54"/><line class="70da3148-a5a4-4f03-aff5-51eb1bba2f76" x1="71.75" y1="30" x2="144.25" y2="30"/><line class="70da3148-a5a4-4f03-aff5-51eb1bba2f76" x1="71.75" y1="6" x2="144.25" y2="6"/><line class="70da3148-a5a4-4f03-aff5-51eb1bba2f76" x1="6" y1="-0.25" x2="6" y2="72.25"/><line class="70da3148-a5a4-4f03-aff5-51eb1bba2f76" x1="30" y1="-0.25" x2="30" y2="72.25"/><line class="70da3148-a5a4-4f03-aff5-51eb1bba2f76" x1="54" y1="-0.25" x2="54" y2="72.25"/><line class="70da3148-a5a4-4f03-aff5-51eb1bba2f76" x1="-0.25" y1="66" x2="72.25" y2="66"/><line class="70da3148-a5a4-4f03-aff5-51eb1bba2f76" x1="-0.25" y1="42" x2="72.25" y2="42"/><line class="70da3148-a5a4-4f03-aff5-51eb1bba2f76" x1="-0.25" y1="18" x2="72.25" y2="18"/><line class="70da3148-a5a4-4f03-aff5-51eb1bba2f76" x1="-0.25" y1="54" x2="72.25" y2="54"/><line class="70da3148-a5a4-4f03-aff5-51eb1bba2f76" x1="-0.25" y1="30" x2="72.25" y2="30"/><line class="70da3148-a5a4-4f03-aff5-51eb1bba2f76" x1="-0.25" y1="6" x2="72.25" y2="6"/><line class="70da3148-a5a4-4f03-aff5-51eb1bba2f76" x1="18" y1="-0.25" x2="18" y2="72.25"/><line class="70da3148-a5a4-4f03-aff5-51eb1bba2f76" x1="42" y1="-0.25" x2="42" y2="72.25"/><line class="70da3148-a5a4-4f03-aff5-51eb1bba2f76" x1="66" y1="-0.25" x2="66" y2="72.25"/><line class="70da3148-a5a4-4f03-aff5-51eb1bba2f76" x1="-72.25" y1="66" x2="0.25" y2="66"/><line class="70da3148-a5a4-4f03-aff5-51eb1bba2f76" x1="-72.25" y1="42" x2="0.25" y2="42"/><line class="70da3148-a5a4-4f03-aff5-51eb1bba2f76" x1="-72.25" y1="18" x2="0.25" y2="18"/><line class="70da3148-a5a4-4f03-aff5-51eb1bba2f76" x1="-72.25" y1="54" x2="0.25" y2="54"/><line class="70da3148-a5a4-4f03-aff5-51eb1bba2f76" x1="-72.25" y1="30" x2="0.25" y2="30"/><line class="70da3148-a5a4-4f03-aff5-51eb1bba2f76" x1="-72.25" y1="6" x2="0.25" y2="6"/><line class="70da3148-a5a4-4f03-aff5-51eb1bba2f76" x1="6" y1="-72.25" x2="6" y2="0.25"/><line class="70da3148-a5a4-4f03-aff5-51eb1bba2f76" x1="30" y1="-72.25" x2="30" y2="0.25"/><line class="70da3148-a5a4-4f03-aff5-51eb1bba2f76" x1="54" y1="-72.25" x2="54" y2="0.25"/><line class="70da3148-a5a4-4f03-aff5-51eb1bba2f76" x1="18" y1="-72.25" x2="18" y2="0.25"/><line class="70da3148-a5a4-4f03-aff5-51eb1bba2f76" x1="42" y1="-72.25" x2="42" y2="0.25"/><line class="70da3148-a5a4-4f03-aff5-51eb1bba2f76" x1="66" y1="-72.25" x2="66" y2="0.25"/></pattern></defs><title>Artboard 9</title><g id="551e1025-a265-44db-b29f-cf3f8bed8048" data-name="Layer 3"><path class="e803ae6d-70ba-4e9b-b00d-5a5d026a7f42" d="M147.43,452.57A215.53,215.53,0,0,1,84.15,299.8c0-.17,0-.33,0-.5H57.4c0,.17,0,.33,0,.5A243,243,0,0,0,207.51,524.27l10.24-24.73A216.35,216.35,0,0,1,147.43,452.57Z"/><path class="38942ba9-c91c-4099-b02f-d2e260cf9681" d="M100.81,216.51,76.08,206.26a242,242,0,0,0-18.68,93H84.16A215.35,215.35,0,0,1,100.81,216.51Z"/><path class="e00a67f7-6c12-4f84-b9f9-6d759193003e" d="M147.94,146.55,129,127.62a243.17,243.17,0,0,0-52.94,78.64l24.73,10.24A216.37,216.37,0,0,1,147.94,146.55Z"/><path class="99afcd64-8a52-40fe-973b-7e0568a43d22" d="M471.89,128.24A242.16,242.16,0,0,0,300.76,57h-.5A242.19,242.19,0,0,0,129,127.45l18.91,18.94A215.49,215.49,0,0,1,300.24,83.74h.5A216.22,216.22,0,0,1,499.66,217l24.74-10.22A243.16,243.16,0,0,0,471.89,128.24Z"/><path class="ca9fb623-35b6-4ab5-8f88-73eb9e59eb43" d="M300,88.58C183.24,88.58,88.58,183.24,88.58,300S183.24,511.42,300,511.42,511.42,416.76,511.42,300,416.76,88.58,300,88.58ZM300,456A156,156,0,1,1,456,300,156,156,0,0,1,300,456Z"/><g class="0af9c46f-5658-494d-ad36-d8d5af786a2b"><circle class="d4a07535-bd5a-4cae-938f-6d5eee37d12c" cx="300" cy="300" r="150"/></g><circle class="f487e93a-38eb-406f-8072-c64c33b973e7" cx="300" cy="300" r="8.36" transform="translate(-3.06 596.91) rotate(-89.41)"/><circle class="16a0aa05-53ac-424a-b678-90507119e6a1" cx="300" cy="300" r="21.88"/><circle class="c8852972-f1f2-43ea-ae96-e6e9e712cdbe" cx="300" cy="300" r="35.4"/><circle class="281a8c70-b733-4ac9-b6c4-c5cda8084bdc" cx="300" cy="300" r="92.7"/><polyline class="2928eee5-96df-479d-915c-d6f864b1ad4f" points="392.69 392.19 392.69 392.69 392.19 392.69"/><line class="d88906e4-3bd6-468e-a3c4-5743a711db25" x1="389.17" y1="392.69" x2="209.32" y2="392.69"/><polyline class="2928eee5-96df-479d-915c-d6f864b1ad4f" points="207.81 392.69 207.31 392.69 207.31 392.19"/><line class="d88906e4-3bd6-468e-a3c4-5743a711db25" x1="207.31" y1="389.17" x2="207.31" y2="209.32"/><polyline class="2928eee5-96df-479d-915c-d6f864b1ad4f" points="207.31 207.81 207.31 207.31 207.81 207.31"/><line class="d88906e4-3bd6-468e-a3c4-5743a711db25" x1="210.83" y1="207.31" x2="390.68" y2="207.31"/><polyline class="2928eee5-96df-479d-915c-d6f864b1ad4f" points="392.19 207.31 392.69 207.31 392.69 207.81"/><line class="d88906e4-3bd6-468e-a3c4-5743a711db25" x1="392.69" y1="210.83" x2="392.69" y2="390.68"/><polyline class="2928eee5-96df-479d-915c-d6f864b1ad4f" points="449.99 449.49 449.99 449.99 449.49 449.99"/><line class="1b7fcb79-b3e0-46f0-a96d-d0c07a7432d8" x1="446.49" y1="449.99" x2="152.01" y2="449.99"/><polyline class="2928eee5-96df-479d-915c-d6f864b1ad4f" points="150.51 449.99 150.01 449.99 150.01 449.49"/><line class="1b7fcb79-b3e0-46f0-a96d-d0c07a7432d8" x1="150.01" y1="446.49" x2="150.01" y2="152.01"/><polyline class="2928eee5-96df-479d-915c-d6f864b1ad4f" points="150.01 150.51 150.01 150.01 150.51 150.01"/><line class="1b7fcb79-b3e0-46f0-a96d-d0c07a7432d8" x1="153.51" y1="150.01" x2="447.99" y2="150.01"/><polyline class="2928eee5-96df-479d-915c-d6f864b1ad4f" points="449.49 150.01 449.99 150.01 449.99 150.51"/><line class="1b7fcb79-b3e0-46f0-a96d-d0c07a7432d8" x1="449.99" y1="153.51" x2="449.99" y2="447.99"/><polyline class="2928eee5-96df-479d-915c-d6f864b1ad4f" points="542.7 542.2 542.7 542.7 542.2 542.7"/><line class="1c99717c-c870-479b-b217-9d0ecdc8fdca" x1="539.19" y1="542.7" x2="59.3" y2="542.7"/><polyline class="2928eee5-96df-479d-915c-d6f864b1ad4f" points="57.8 542.7 57.3 542.7 57.3 542.2"/><line class="1c99717c-c870-479b-b217-9d0ecdc8fdca" x1="57.3" y1="539.19" x2="57.3" y2="59.3"/><polyline class="2928eee5-96df-479d-915c-d6f864b1ad4f" points="57.3 57.8 57.3 57.3 57.8 57.3"/><line class="1c99717c-c870-479b-b217-9d0ecdc8fdca" x1="60.81" y1="57.3" x2="540.7" y2="57.3"/><polyline class="2928eee5-96df-479d-915c-d6f864b1ad4f" points="542.2 57.3 542.7 57.3 542.7 57.8"/><line class="1c99717c-c870-479b-b217-9d0ecdc8fdca" x1="542.7" y1="60.81" x2="542.7" y2="540.7"/><line class="2f311582-b3fe-4910-8834-e7e77eecdda0" x1="2.98" y1="1.98" x2="599.09" y2="598.09"/><line class="2f311582-b3fe-4910-8834-e7e77eecdda0" x1="598.02" y1="1.98" x2="1.91" y2="598.09"/><line class="2928eee5-96df-479d-915c-d6f864b1ad4f" x1="0.85" y1="599.15" x2="0.5" y2="599.5"/><line class="2928eee5-96df-479d-915c-d6f864b1ad4f" x1="300.5" y1="-0.5" x2="300.5"/><line class="69c7976e-6e1e-45cd-9b44-9f043443dfd8" x1="300.5" y1="3" x2="300.5" y2="597.5"/><line class="2928eee5-96df-479d-915c-d6f864b1ad4f" x1="300.5" y1="599" x2="300.5" y2="599.5"/><path class="1f679cd1-d1d5-4a08-a6c2-24e4804f4a6b" d="M300.43,286a14,14,0,0,1,0,28H449.34c.43-4.61.66-9.28.66-14s-.23-9.39-.66-14Z"/><line class="2928eee5-96df-479d-915c-d6f864b1ad4f" x1="0.5" y1="299.5" x2="1" y2="299.5"/><line class="69c7976e-6e1e-45cd-9b44-9f043443dfd8" x1="4" y1="299.5" x2="598.5" y2="299.5"/><line class="2928eee5-96df-479d-915c-d6f864b1ad4f" x1="600" y1="299.5" x2="600.5" y2="299.5"/><path class="39910a66-811b-4228-99b9-b80f3fa2c937" d="M189,426.1a168,168,0,0,1-15.8-236.29"/><polygon points="174.22 194.99 173.22 195.04 172.96 190.12 168.07 190.73 167.94 189.74 173.9 188.99 174.22 194.99"/><path class="188e814a-0e04-44a7-bb4f-f1a069ff11c9" d="M147.43,452.57a216.35,216.35,0,0,0,70.32,47"/><path class="188e814a-0e04-44a7-bb4f-f1a069ff11c9" d="M100.46,382.25a216.35,216.35,0,0,0,47,70.32"/><path class="188e814a-0e04-44a7-bb4f-f1a069ff11c9" d="M84.16,299.3c0,.17,0,.33,0,.5a215.37,215.37,0,0,0,16.3,82.44"/><path class="188e814a-0e04-44a7-bb4f-f1a069ff11c9" d="M100.81,216.51a215.35,215.35,0,0,0-16.65,82.8"/><path class="188e814a-0e04-44a7-bb4f-f1a069ff11c9" d="M217.75,499.54a215.38,215.38,0,0,0,82.44,16.3h.5"/><path class="188e814a-0e04-44a7-bb4f-f1a069ff11c9" d="M453.45,452.06a216.32,216.32,0,0,0,46.62-70.17"/><path class="188e814a-0e04-44a7-bb4f-f1a069ff11c9" d="M300.7,515.84a215.35,215.35,0,0,0,82.8-16.65"/><path class="188e814a-0e04-44a7-bb4f-f1a069ff11c9" d="M300.5,84.14H300a215.21,215.21,0,0,0-82,16.14"/><path class="188e814a-0e04-44a7-bb4f-f1a069ff11c9" d="M499.73,216.86A216.36,216.36,0,0,0,453,147"/><path class="188e814a-0e04-44a7-bb4f-f1a069ff11c9" d="M453,147a216.36,216.36,0,0,0-69.82-46.77"/><path class="188e814a-0e04-44a7-bb4f-f1a069ff11c9" d="M516.23,299.3a215.35,215.35,0,0,0-16.5-82.44"/><path class="188e814a-0e04-44a7-bb4f-f1a069ff11c9" d="M500.08,381.89a215.38,215.38,0,0,0,16.16-82.09c0-.17,0-.33,0-.5"/><path class="188e814a-0e04-44a7-bb4f-f1a069ff11c9" d="M218.11,99.92a216.32,216.32,0,0,0-70.17,46.62"/><path class="188e814a-0e04-44a7-bb4f-f1a069ff11c9" d="M147.94,146.55a216.37,216.37,0,0,0-47.13,70"/><path class="188e814a-0e04-44a7-bb4f-f1a069ff11c9" d="M382.88,100.63A215.18,215.18,0,0,0,300.5,84.14"/><path class="188e814a-0e04-44a7-bb4f-f1a069ff11c9" d="M383.49,499.19a216.37,216.37,0,0,0,70-47.13"/><path class="068fe71c-2ad0-40d4-9658-b5e07d72c2ca" d="M449.34,314H300.43a14,14,0,0,0,0-28H449.34q.16,1.72.28,3.46a150,150,0,1,0,0,21.08Q449.5,312.28,449.34,314Z"/><circle class="18945205-a9db-4de9-94d0-c65d106162bf" cx="300" cy="300" r="13.52" transform="translate(-124.26 300) rotate(-45)"/><circle class="e6f1de3f-d736-4196-89d1-63ceb37d776f" cx="300" cy="300" r="13.52"/><circle cx="300" cy="300" r="13.52" transform="translate(-124.26 300) rotate(-45)"/><path class="d9f78bdd-b0e5-43ab-b818-0e3d3f8e88bd" d="M525,208l-.57-1.39-1.39.57"/><line class="bd5dfaef-8505-41f4-be7b-5d1d1cb24c48" x1="519.94" y1="208.49" x2="502.68" y2="215.64"/><path class="d9f78bdd-b0e5-43ab-b818-0e3d3f8e88bd" d="M501.12,216.29l-1.39.57.57,1.39"/><path class="b23012fd-f4f0-44bf-853b-e89fc87f5ffb" d="M501.41,221a215.44,215.44,0,0,1,14.82,78.28c0,.17,0,.33,0,.5a215.87,215.87,0,0,1-215.54,216h-.5a215.43,215.43,0,0,1-79.66-15.18"/><path class="d9f78bdd-b0e5-43ab-b818-0e3d3f8e88bd" d="M219.14,500.11l-1.39-.57-.57,1.39"/><line class="e2316efb-e9f5-47a2-9baf-a20e04c70180" x1="215.88" y1="504.07" x2="208.73" y2="521.32"/><path class="d9f78bdd-b0e5-43ab-b818-0e3d3f8e88bd" d="M208.08,522.89l-.57,1.39,1.39.57"/><path class="4ba5a90d-0e05-4610-994a-67bb376232ba" d="M211.69,526a242.13,242.13,0,0,0,88.5,16.65h.5A242.64,242.64,0,0,0,543,299.8c0-.17,0-.33,0-.5a242.08,242.08,0,0,0-17.4-89.9"/><line class="d9f78bdd-b0e5-43ab-b818-0e3d3f8e88bd" x1="451" y1="150.5" x2="578" y2="150.5"/><line class="d9f78bdd-b0e5-43ab-b818-0e3d3f8e88bd" x1="450.5" y1="299.5" x2="577.5" y2="299.5"/><line class="d9f78bdd-b0e5-43ab-b818-0e3d3f8e88bd" x1="561" y1="150.5" x2="561" y2="299.5"/><line class="d9f78bdd-b0e5-43ab-b818-0e3d3f8e88bd" x1="557.75" y1="146.5" x2="564.25" y2="153"/><line class="d9f78bdd-b0e5-43ab-b818-0e3d3f8e88bd" x1="557.75" y1="296.5" x2="564.25" y2="303"/><path class="d9f78bdd-b0e5-43ab-b818-0e3d3f8e88bd" d="M308.79,525.8A218.38,218.38,0,0,0,526.23,307.29c0-.15,0-.3,0-.45"/><polygon class="a8bb34d5-b398-45ed-b142-c6a503fb09a6" points="312.2 529.79 312.86 529.04 309.17 525.77 312.69 522.33 312 521.61 307.7 525.81 312.2 529.79"/></g></svg>