<svg xmlns="http://www.w3.org/2000/svg" viewBox="0 0 207 297"><title>their-code</title><g id="network-diagram"><path d="M8.4209,269.231v3.95215h-2.208V269.231l-3.74414-6.60791H4.82031L6.5166,265.7749l.79981,1.66406.8164-1.66406,1.69531-3.15185H12.165Z" fill="#6fdc74"/><path d="M18.63672,266.127a4.86383,4.86383,0,0,1,0,6.11231,4.02616,4.02616,0,0,1-3.01563,1.104,4.02465,4.02465,0,0,1-3.01562-1.104,4.86383,4.86383,0,0,1,0-6.11231,4.02465,4.02465,0,0,1,3.01562-1.104A4.02616,4.02616,0,0,1,18.63672,266.127Zm-4.43164,1.16016a3.92522,3.92522,0,0,0,0,3.792,1.67979,1.67979,0,0,0,1.416.63184,1.681,1.681,0,0,0,1.416-.63184,3.92522,3.92522,0,0,0,0-3.792,1.681,1.681,0,0,0-1.416-.63184A1.67979,1.67979,0,0,0,14.20508,267.28711Z" fill="#6fdc74"/><path d="M29.2041,265.18311v8H27.252l-.08007-1.376a2.846,2.846,0,0,1-2.79981,1.53613,2.92284,2.92284,0,0,1-2.05566-.69629,2.80336,2.80336,0,0,1-.76075-2.168v-5.29589h2.19239V269.919a1.92759,1.92759,0,0,0,.35254,1.312,1.33911,1.33911,0,0,0,1.04.38427,1.7999,1.7999,0,0,0,1.35157-.53613,2.2251,2.2251,0,0,0,.51953-1.60791v-4.28808Z" fill="#6fdc74"/><path d="M36.90039,265.19922l-.27148,1.91992a2.01735,2.01735,0,0,0-2.36036.32813,2.15067,2.15067,0,0,0-.56835,1.59179v4.144H31.50879v-8h1.90332l.14453,1.56787a2.451,2.451,0,0,1,2.47949-1.728A1.74341,1.74341,0,0,1,36.90039,265.19922Z" fill="#6fdc74"/><path d="M50.61328,261.6792v11.50391H48.66113l-.09668-1.47217a2.77013,2.77013,0,0,1-1.04785,1.19238,2.91683,2.91683,0,0,1-1.5918.43994,3.08985,3.08985,0,0,1-2.51171-1.09619,4.62666,4.62666,0,0,1-.91211-3.04785,4.68886,4.68886,0,0,1,.91211-3.07227,3.08125,3.08125,0,0,1,2.51171-1.104,2.83319,2.83319,0,0,1,1.4961.39209,2.67186,2.67186,0,0,1,1,1.064v-4.7998Zm-2.68848,9.35986a2.797,2.797,0,0,0,.4961-1.77588V269.103a2.805,2.805,0,0,0-.4961-1.76807,1.78962,1.78962,0,0,0-2.73632.0083,3.65969,3.65969,0,0,0,0,3.67969,1.79683,1.79683,0,0,0,2.73632.01611Z" fill="#6fdc74"/><path d="M60.78809,271.791l-.16016,1.32812a2.29689,2.29689,0,0,1-1.04.22412q-1.53516,0-1.83984-1.20019a2.183,2.183,0,0,1-1.08789.896,4.55316,4.55316,0,0,1-1.74414.3042,2.83659,2.83659,0,0,1-1.82422-.52832,1.83625,1.83625,0,0,1-.65528-1.52q0-1.9519,3.12012-2.52783l1.91992-.36816v-.38379a1.40768,1.40768,0,0,0-.36035-1.01612,1.31974,1.31974,0,0,0-1-.376,2.07592,2.07592,0,0,0-1.20019.31982,1.68627,1.68627,0,0,0-.63965,1.04l-1.74414-.73584a2.65106,2.65106,0,0,1,1.15234-1.63184,4.16743,4.16743,0,0,1,2.33594-.59228,4.26718,4.26718,0,0,1,2.67187.74414,2.61363,2.61363,0,0,1,.96,2.2002v3.27978a.63666.63666,0,0,0,.14356.46387.61279.61279,0,0,0,.44824.144A1.88449,1.88449,0,0,0,60.78809,271.791Zm-3.89551-.27979a1.04926,1.04926,0,0,0,.584-.936v-.832l-1.71191.38379a2.0133,2.0133,0,0,0-.8086.34424.73265.73265,0,0,0-.26367.6001.71666.71666,0,0,0,.24024.584,1.01852,1.01852,0,0,0,.67187.19971A2.492,2.492,0,0,0,56.89258,271.51123Z" fill="#6fdc74"/><path d="M67.28418,272.687a2.87676,2.87676,0,0,1-.96777.48,4.22752,4.22752,0,0,1-1.22364.17627q-2.67333,0-2.67187-2.416v-4.11231H60.96484v-1.63183H62.4209v-1.83985l2.1914-.6084v2.44825h2.5918v1.63183H64.6123v3.76026a.97609.97609,0,0,0,1.1045,1.104,1.84409,1.84409,0,0,0,1.23144-.44824Z" fill="#6fdc74"/><path d="M76.5957,271.791l-.16015,1.32812a2.29689,2.29689,0,0,1-1.04.22412q-1.53516,0-1.83985-1.20019a2.18288,2.18288,0,0,1-1.08789.896,4.55309,4.55309,0,0,1-1.74414.3042,2.83659,2.83659,0,0,1-1.82422-.52832,1.83624,1.83624,0,0,1-.65527-1.52q0-1.9519,3.12012-2.52783l1.91992-.36816v-.38379a1.40772,1.40772,0,0,0-.36035-1.01612,1.31976,1.31976,0,0,0-1-.376,2.07594,2.07594,0,0,0-1.2002.31982,1.68631,1.68631,0,0,0-.63965,1.04l-1.74414-.73584a2.65111,2.65111,0,0,1,1.15235-1.63184,4.1674,4.1674,0,0,1,2.33593-.59228,4.26719,4.26719,0,0,1,2.67188.74414,2.61363,2.61363,0,0,1,.96,2.2002v3.27978a.63662.63662,0,0,0,.14356.46387.61279.61279,0,0,0,.44824.144A1.88437,1.88437,0,0,0,76.5957,271.791Zm-3.8955-.27979a1.04926,1.04926,0,0,0,.584-.936v-.832l-1.71191.38379a2.01317,2.01317,0,0,0-.8086.34424.73265.73265,0,0,0-.26367.6001.71668.71668,0,0,0,.24023.584,1.01853,1.01853,0,0,0,.67188.19971A2.492,2.492,0,0,0,72.7002,271.51123Z" fill="#6fdc74"/><path d="M80.30762,271.25488a2.15813,2.15813,0,0,1,.39941,1.352,3.22831,3.22831,0,0,1-.51953,1.78418,3.39892,3.39892,0,0,1-1.52832,1.25586l-1.00781-.76806a3.79082,3.79082,0,0,0,1.18359-.70362,2.11618,2.11618,0,0,0,.64063-.97607l-.06446-.04834a.62749.62749,0,0,1-.46386.16016,1.15073,1.15073,0,0,1-1.168-1.23194,1.28318,1.28318,0,0,1,.38379-.98389,1.4126,1.4126,0,0,1,1.00781-.36035A1.35212,1.35212,0,0,1,80.30762,271.25488Z" fill="#6fdc74"/><path d="M92.78711,272.687a2.87676,2.87676,0,0,1-.96777.48,4.22752,4.22752,0,0,1-1.22364.17627q-2.67333,0-2.67187-2.416v-4.11231H86.46777v-1.63183h1.45606v-1.83985l2.1914-.6084v2.44825H92.707v1.63183h-2.5918v3.76026a.97609.97609,0,0,0,1.1045,1.104,1.84409,1.84409,0,0,0,1.23144-.44824Z" fill="#4330fc"/><path d="M101.14648,265.7749a2.83686,2.83686,0,0,1,.792,2.16016v5.248H99.74707V268.5752q0-1.82447-1.4248-1.82422a1.76308,1.76308,0,0,0-1.30372.54394,2.28617,2.28617,0,0,0-.53613,1.66406v4.22413H94.291V261.6792h2.1914V266.543a2.67949,2.67949,0,0,1,1.04785-1.13574,2.99583,2.99583,0,0,1,1.52832-.38428A2.90708,2.90708,0,0,1,101.14648,265.7749Z" fill="#4330fc"/><path d="M111.60254,270.01514h-5.66309a1.865,1.865,0,0,0,2,1.6958,2.26526,2.26526,0,0,0,1.13575-.25586,1.37168,1.37168,0,0,0,.624-.73584l1.792.65576a2.83433,2.83433,0,0,1-1.28809,1.46387,4.59658,4.59658,0,0,1-2.26367.50439,3.79514,3.79514,0,0,1-4.16015-4.16015,4.23415,4.23415,0,0,1,1.05566-3.064,3.94037,3.94037,0,0,1,2.97559-1.09619,3.71536,3.71536,0,0,1,2.85644,1.07226,4.3174,4.3174,0,0,1,1,3.05567A5.63968,5.63968,0,0,1,111.60254,270.01514Zm-5.0791-2.91211a2.31717,2.31717,0,0,0-.60059,1.376h3.72852a2.31724,2.31724,0,0,0-.6084-1.36767,1.704,1.704,0,0,0-1.248-.47217A1.7352,1.7352,0,0,0,106.52344,267.103Z" fill="#4330fc"/><path d="M113.251,262.86328q0-1.18432,1.35937-1.18408,1.35938,0,1.36035,1.18408,0,1.16822-1.36035,1.168Q113.251,264.03125,113.251,262.86328Zm2.44726,10.31983h-2.1914v-8h2.1914Z" fill="#4330fc"/><path d="M123.41113,265.19922l-.27148,1.91992a2.01734,2.01734,0,0,0-2.36035.32813,2.15064,2.15064,0,0,0-.56836,1.59179v4.144h-2.19141v-8h1.90332l.14453,1.56787a2.451,2.451,0,0,1,2.4795-1.728A1.74339,1.74339,0,0,1,123.41113,265.19922Z" fill="#4330fc"/><path d="M135.50684,265.66309A3.18959,3.18959,0,0,1,136.707,267.375l-2.04883.73633q-.2871-1.45607-1.55175-1.45606a1.72587,1.72587,0,0,0-1.44825.648,3.04355,3.04355,0,0,0-.5039,1.896,2.935,2.935,0,0,0,.51269,1.87988,1.729,1.729,0,0,0,1.42383.63184,1.53855,1.53855,0,0,0,1.66406-1.42383l1.9834.64014a2.87541,2.87541,0,0,1-1.1914,1.75976,4.086,4.086,0,0,1-6.584-3.5039,4.17534,4.17534,0,0,1,1.08008-3.064,4.02075,4.02075,0,0,1,3-1.09619A4.13141,4.13141,0,0,1,135.50684,265.66309Z" fill="#4330fc"/><path d="M145.17773,266.127a4.86383,4.86383,0,0,1,0,6.11231,4.67066,4.67066,0,0,1-6.03125,0,4.86387,4.86387,0,0,1,0-6.11231,4.67066,4.67066,0,0,1,6.03125,0Zm-4.43164,1.16016a3.92522,3.92522,0,0,0,0,3.792,1.90263,1.90263,0,0,0,2.832,0,3.92515,3.92515,0,0,0,0-3.792,1.90263,1.90263,0,0,0-2.832,0Z" fill="#4330fc"/><path d="M155.89062,261.6792v11.50391h-1.95214l-.09668-1.47217a2.77026,2.77026,0,0,1-1.04785,1.19238,2.91685,2.91685,0,0,1-1.5918.43994,3.08985,3.08985,0,0,1-2.51172-1.09619,4.62666,4.62666,0,0,1-.91211-3.04785,4.68886,4.68886,0,0,1,.91211-3.07227,3.08126,3.08126,0,0,1,2.51172-1.104,2.83316,2.83316,0,0,1,1.49609.39209,2.67179,2.67179,0,0,1,1,1.064v-4.7998Zm-2.68847,9.35986a2.797,2.797,0,0,0,.49609-1.77588V269.103a2.805,2.805,0,0,0-.49609-1.76807,1.78963,1.78963,0,0,0-2.73633.0083,3.65975,3.65975,0,0,0,0,3.67969,1.79685,1.79685,0,0,0,2.73633.01611Z" fill="#4330fc"/><path d="M165.61816,270.01514h-5.66308a1.865,1.865,0,0,0,2,1.6958,2.26522,2.26522,0,0,0,1.13574-.25586,1.37164,1.37164,0,0,0,.624-.73584l1.792.65576a2.83433,2.83433,0,0,1-1.28809,1.46387,4.59661,4.59661,0,0,1-2.26367.50439,3.79514,3.79514,0,0,1-4.16016-4.16015,4.23411,4.23411,0,0,1,1.05567-3.064,3.94036,3.94036,0,0,1,2.97558-1.09619,3.71538,3.71538,0,0,1,2.85645,1.07226,4.31744,4.31744,0,0,1,1,3.05567A5.63966,5.63966,0,0,1,165.61816,270.01514Zm-5.0791-2.91211a2.31717,2.31717,0,0,0-.60058,1.376H163.667a2.31718,2.31718,0,0,0-.6084-1.36767,1.704,1.704,0,0,0-1.248-.47217A1.73523,1.73523,0,0,0,160.53906,267.103Z" fill="#4330fc"/><path d="M10.15625,284.127a4.86383,4.86383,0,0,1,0,6.11231,4.02616,4.02616,0,0,1-3.01563,1.104,4.02465,4.02465,0,0,1-3.01562-1.104,4.86383,4.86383,0,0,1,0-6.11231,4.02465,4.02465,0,0,1,3.01562-1.104A4.02616,4.02616,0,0,1,10.15625,284.127Zm-4.43164,1.16016a3.92522,3.92522,0,0,0,0,3.792,1.67979,1.67979,0,0,0,1.416.63184,1.681,1.681,0,0,0,1.416-.63184,3.92522,3.92522,0,0,0,0-3.792,1.681,1.681,0,0,0-1.416-.63184A1.67979,1.67979,0,0,0,5.72461,285.28711Z" fill="#4d4d4d"/><path d="M19.98047,283.7749a2.83686,2.83686,0,0,1,.792,2.16016v5.248H18.58105V286.5752q0-1.82447-1.4248-1.82422a1.763,1.763,0,0,0-1.30371.54394,2.28617,2.28617,0,0,0-.53613,1.66406v4.22413H13.125v-8h1.96777l.08008,1.42382a2.66673,2.66673,0,0,1,1.08789-1.18359,3.24378,3.24378,0,0,1,1.63184-.40039A2.9071,2.9071,0,0,1,19.98047,283.7749Z" fill="#4d4d4d"/><path d="M35.78027,289.791l-.16015,1.32812a2.29689,2.29689,0,0,1-1.04.22412q-1.53516,0-1.83985-1.20019a2.18288,2.18288,0,0,1-1.08789.896,4.55309,4.55309,0,0,1-1.74414.3042,2.83659,2.83659,0,0,1-1.82422-.52832,1.83624,1.83624,0,0,1-.65527-1.52q0-1.9519,3.12012-2.52783l1.91992-.36816v-.38379a1.40772,1.40772,0,0,0-.36035-1.01612,1.31976,1.31976,0,0,0-1-.376,2.07594,2.07594,0,0,0-1.2002.31982,1.68631,1.68631,0,0,0-.63965,1.04l-1.74414-.73584a2.65111,2.65111,0,0,1,1.15235-1.63184,4.16741,4.16741,0,0,1,2.33594-.59228,4.26718,4.26718,0,0,1,2.67187.74414,2.61363,2.61363,0,0,1,.96,2.2002v3.27978a.63662.63662,0,0,0,.14356.46387.61279.61279,0,0,0,.44824.144A1.88437,1.88437,0,0,0,35.78027,289.791Zm-3.8955-.27979a1.04926,1.04926,0,0,0,.584-.936v-.832l-1.71191.38379a2.01317,2.01317,0,0,0-.8086.34424.73265.73265,0,0,0-.26367.6001.71668.71668,0,0,0,.24023.584,1.01853,1.01853,0,0,0,.67188.19971A2.492,2.492,0,0,0,31.88477,289.51123Z" fill="#4d4d4d"/><path d="M47.9082,283.66309a3.18956,3.18956,0,0,1,1.2002,1.71191l-2.04883.73633q-.28711-1.45607-1.55176-1.45606a1.72587,1.72587,0,0,0-1.44824.648,3.04348,3.04348,0,0,0-.50391,1.896,2.935,2.935,0,0,0,.5127,1.87988,1.729,1.729,0,0,0,1.42383.63184,1.53855,1.53855,0,0,0,1.66406-1.42383l1.9834.64014a2.87539,2.87539,0,0,1-1.19141,1.75976,4.086,4.086,0,0,1-6.584-3.5039,4.1753,4.1753,0,0,1,1.08008-3.064,4.02072,4.02072,0,0,1,3-1.09619A4.13135,4.13135,0,0,1,47.9082,283.66309Z" fill="#4d4d4d"/><path d="M53.044,288.63916a1.3874,1.3874,0,0,0,.16894.7998.72415.72415,0,0,0,.61523.22413,2.42892,2.42892,0,0,0,.47266-.04,3.5259,3.5259,0,0,0,.47168-.13575l-.19238,1.52a2.08229,2.08229,0,0,1-.67188.24756,3.93683,3.93683,0,0,1-.81543.08838,2.24722,2.24722,0,0,1-1.7041-.56836,2.58292,2.58292,0,0,1-.53613-1.81592V279.6792H53.044Z" fill="#4d4d4d"/><path d="M62.68359,284.127a4.86383,4.86383,0,0,1,0,6.11231,4.67066,4.67066,0,0,1-6.03125,0,4.86387,4.86387,0,0,1,0-6.11231,4.67066,4.67066,0,0,1,6.03125,0ZM58.252,285.28711a3.92522,3.92522,0,0,0,0,3.792,1.90263,1.90263,0,0,0,2.832,0,3.92515,3.92515,0,0,0,0-3.792,1.90263,1.90263,0,0,0-2.832,0Z" fill="#4d4d4d"/><path d="M73.25195,283.18311v8H71.2998l-.08007-1.376a2.846,2.846,0,0,1-2.79981,1.53613,2.92284,2.92284,0,0,1-2.05566-.69629,2.80336,2.80336,0,0,1-.76074-2.168v-5.29589H67.7959V287.919a1.92764,1.92764,0,0,0,.35254,1.312,1.33912,1.33912,0,0,0,1.04.38427A1.79989,1.79989,0,0,0,70.54,289.0791a2.2251,2.2251,0,0,0,.51953-1.60791v-4.28808Z" fill="#4d4d4d"/><path d="M83.2998,279.6792v11.50391H81.34766l-.09668-1.47217a2.77022,2.77022,0,0,1-1.04786,1.19238,2.9168,2.9168,0,0,1-1.59179.43994,3.08985,3.08985,0,0,1-2.51172-1.09619,4.62666,4.62666,0,0,1-.91211-3.04785,4.68886,4.68886,0,0,1,.91211-3.07227,3.08126,3.08126,0,0,1,2.51172-1.104,2.83316,2.83316,0,0,1,1.49609.39209,2.67179,2.67179,0,0,1,1,1.064v-4.7998Zm-2.68847,9.35986a2.797,2.797,0,0,0,.49609-1.77588V287.103a2.805,2.805,0,0,0-.49609-1.76807,1.78963,1.78963,0,0,0-2.73633.0083,3.65975,3.65975,0,0,0,0,3.67969,1.79685,1.79685,0,0,0,2.73633.01611Z" fill="#4d4d4d"/><path d="M89.90723,289.80713l1.28027-1.312a1.8964,1.8964,0,0,0,.91992.96777,3.48228,3.48228,0,0,0,1.47949.28027,2.48425,2.48425,0,0,0,1.08789-.19189.58523.58523,0,0,0,.38477-.52832q0-.27173-.36035-.46387a4.97678,4.97678,0,0,0-1.24024-.36816,6.2206,6.2206,0,0,1-2.584-.96778,1.97613,1.97613,0,0,1-.74414-1.624,2.15957,2.15957,0,0,1,.416-1.26416,2.87613,2.87613,0,0,1,1.23242-.95166,4.80859,4.80859,0,0,1,1.95215-.36035,4.96489,4.96489,0,0,1,2.17578.4082,3.44747,3.44747,0,0,1,1.3916,1.28809l-1.35938,1.15185a2.39469,2.39469,0,0,0-.87207-.94384,2.55023,2.55023,0,0,0-1.30371-.3042,2.11155,2.11155,0,0,0-1.04883.22412.64161.64161,0,0,0-.3916.54394.64977.64977,0,0,0,.38379.56006,4.80006,4.80006,0,0,0,1.36035.416,6.1567,6.1567,0,0,1,2.47168.91992,1.88747,1.88747,0,0,1,.72852,1.57617,2.10961,2.10961,0,0,1-.95215,1.79981,4.58558,4.58558,0,0,1-2.69629.68017Q90.94727,291.34326,89.90723,289.80713Z" fill="#4d4d4d"/><path d="M106.38672,288.01514h-5.66309a1.865,1.865,0,0,0,2,1.6958,2.26526,2.26526,0,0,0,1.13575-.25586,1.37168,1.37168,0,0,0,.624-.73584l1.792.65576a2.83433,2.83433,0,0,1-1.28809,1.46387,4.59658,4.59658,0,0,1-2.26367.50439,3.79514,3.79514,0,0,1-4.16015-4.16015,4.23415,4.23415,0,0,1,1.05566-3.064,3.94037,3.94037,0,0,1,2.97559-1.09619,3.71536,3.71536,0,0,1,2.85644,1.07226,4.3174,4.3174,0,0,1,1,3.05567A5.63968,5.63968,0,0,1,106.38672,288.01514Zm-5.0791-2.91211a2.31717,2.31717,0,0,0-.60059,1.376h3.72852a2.31724,2.31724,0,0,0-.6084-1.36767,1.704,1.704,0,0,0-1.24805-.47217A1.7352,1.7352,0,0,0,101.30762,285.103Z" fill="#4d4d4d"/><path d="M113.68262,283.19922l-.27149,1.91992a2.01734,2.01734,0,0,0-2.36035.32813,2.15068,2.15068,0,0,0-.56836,1.59179v4.144H108.291v-8h1.90332l.14453,1.56787a2.451,2.451,0,0,1,2.47949-1.728A1.74346,1.74346,0,0,1,113.68262,283.19922Z" fill="#4d4d4d"/><path d="M122.5625,283.18311l-3.04,8h-2.52832l-3.03906-8h2.35156l1.96777,6.46386,2.01661-6.46386Z" fill="#4d4d4d"/><path d="M131.07422,288.01514h-5.66309a1.865,1.865,0,0,0,2,1.6958,2.26526,2.26526,0,0,0,1.13575-.25586,1.37168,1.37168,0,0,0,.624-.73584l1.792.65576a2.83433,2.83433,0,0,1-1.28809,1.46387,4.59658,4.59658,0,0,1-2.26367.50439,3.79514,3.79514,0,0,1-4.16015-4.16015,4.23415,4.23415,0,0,1,1.05566-3.064,3.94037,3.94037,0,0,1,2.97559-1.09619,3.71536,3.71536,0,0,1,2.85644,1.07226,4.3174,4.3174,0,0,1,1,3.05567A5.63968,5.63968,0,0,1,131.07422,288.01514Zm-5.0791-2.91211a2.31717,2.31717,0,0,0-.60059,1.376h3.72852a2.31724,2.31724,0,0,0-.6084-1.36767,1.704,1.704,0,0,0-1.248-.47217A1.7352,1.7352,0,0,0,125.99512,285.103Z" fill="#4d4d4d"/><path d="M138.37012,283.19922l-.27149,1.91992a2.01734,2.01734,0,0,0-2.36035.32813,2.15068,2.15068,0,0,0-.56836,1.59179v4.144h-2.1914v-8h1.90332l.14453,1.56787a2.451,2.451,0,0,1,2.47949-1.728A1.74346,1.74346,0,0,1,138.37012,283.19922Z" fill="#4d4d4d"/><polygon points="0.822 0.393 0.822 60.226 0.822 200.789 195.857 200.789 195.857 60.226 195.857 0.393 0.822 0.393" fill="#4330fc"/><circle cx="65.83943" cy="67.09085" r="15" fill="#6fdc74"/><rect x="115.83943" y="82.09085" width="30" height="30" fill="#6fdc74"/><polyline points="51.626 149.091 72.839 119.091 94.053 149.091" fill="#6fdc74"/><rect x="151.71874" y="202.94735" width="44.13793" height="44.13793" transform="translate(347.57542 450.03263) rotate(180)" fill="#4d4d4d"/><rect x="0.82219" y="202.94735" width="44.13793" height="44.13793" transform="translate(45.78231 450.03263) rotate(180)" fill="#4d4d4d"/><rect x="47.58081" y="202.94735" width="11.03448" height="44.13793" transform="translate(106.1961 450.03263) rotate(180)" fill="#4d4d4d"/><rect x="60.96012" y="202.94735" width="88.27586" height="44.13793" transform="translate(210.1961 450.03263) rotate(180)" fill="#4d4d4d"/><line x1="175.64363" y1="215.86458" x2="176.59965" y2="211.367" fill="none" stroke="#fff" stroke-miterlimit="10"/><line x1="170.97577" y1="211.367" x2="171.93179" y2="215.86458" fill="none" stroke="#fff" stroke-miterlimit="10"/><line x1="171.93179" y1="215.86458" x2="170.97577" y2="211.367" fill="none" stroke="#fff" stroke-miterlimit="10"/><line x1="165.81402" y1="213.62129" x2="168.51607" y2="217.34031" fill="none" stroke="#fff" stroke-miterlimit="10"/><line x1="161.96322" y1="217.76932" x2="165.94625" y2="220.06896" fill="none" stroke="#fff" stroke-miterlimit="10"/><line x1="168.51607" y1="217.34031" x2="165.81402" y2="213.62129" fill="none" stroke="#fff" stroke-miterlimit="10"/><line x1="165.94625" y1="220.06896" x2="161.96322" y2="217.76932" fill="none" stroke="#fff" stroke-miterlimit="10"/><line x1="160.1045" y1="223.15804" x2="164.67705" y2="223.63858" fill="none" stroke="#fff" stroke-miterlimit="10"/><line x1="182.61056" y1="227.46288" x2="186.98612" y2="228.88451" fill="none" stroke="#fff" stroke-miterlimit="10"/><line x1="187.47092" y1="223.15793" x2="182.89825" y2="223.63858" fill="none" stroke="#fff" stroke-miterlimit="10"/><line x1="181.62917" y1="220.06885" x2="185.61208" y2="217.76932" fill="none" stroke="#fff" stroke-miterlimit="10"/><line x1="181.7614" y1="213.62129" x2="179.05935" y2="217.34031" fill="none" stroke="#fff" stroke-miterlimit="10"/><line x1="176.59965" y1="211.367" x2="175.64363" y2="215.86458" fill="none" stroke="#fff" stroke-miterlimit="10"/><line x1="179.05935" y1="217.34031" x2="181.7614" y2="213.62129" fill="none" stroke="#fff" stroke-miterlimit="10"/><line x1="182.89825" y1="223.63858" x2="187.47092" y2="223.15793" fill="none" stroke="#fff" stroke-miterlimit="10"/><line x1="185.61208" y1="217.76932" x2="181.62917" y2="220.06885" fill="none" stroke="#fff" stroke-miterlimit="10"/><line x1="177.63009" y1="233.22629" x2="179.50004" y2="237.4264" fill="none" stroke="#fff" stroke-miterlimit="10"/><line x1="184.1716" y1="233.9458" x2="180.75509" y2="230.86963" fill="none" stroke="#fff" stroke-miterlimit="10"/><line x1="179.50004" y1="237.4264" x2="177.63009" y2="233.22629" fill="none" stroke="#fff" stroke-miterlimit="10"/><line x1="173.78771" y1="234.06793" x2="173.78771" y2="238.66563" fill="none" stroke="#fff" stroke-miterlimit="10"/><line x1="186.98612" y1="228.88451" x2="182.61056" y2="227.46288" fill="none" stroke="#fff" stroke-miterlimit="10"/><line x1="180.75509" y1="230.86963" x2="184.1716" y2="233.9458" fill="none" stroke="#fff" stroke-miterlimit="10"/><line x1="173.78771" y1="238.66563" x2="173.78771" y2="234.06793" fill="none" stroke="#fff" stroke-miterlimit="10"/><line x1="169.94533" y1="233.22629" x2="168.07527" y2="237.4264" fill="none" stroke="#fff" stroke-miterlimit="10"/><line x1="164.96475" y1="227.46288" x2="160.5893" y2="228.88451" fill="none" stroke="#fff" stroke-miterlimit="10"/><line x1="163.40382" y1="233.9458" x2="166.82021" y2="230.86963" fill="none" stroke="#fff" stroke-miterlimit="10"/><line x1="168.07527" y1="237.4264" x2="169.94533" y2="233.22629" fill="none" stroke="#fff" stroke-miterlimit="10"/><line x1="166.82021" y1="230.86963" x2="163.40382" y2="233.9458" fill="none" stroke="#fff" stroke-miterlimit="10"/><circle cx="173.78771" cy="225.01631" r="11.03448" fill="#e6e6e6"/><line x1="182.39734" y1="218.11811" x2="175.69521" y2="223.48798" fill="none" stroke="#5e6367" stroke-miterlimit="10" stroke-width="2"/><circle cx="85.44249" cy="225.01631" r="13.7931" fill="#f2f2f2"/><path d="M89.4961,225.85117l6.74637,1.434a11.045,11.045,0,0,0-5.18872-11.76939l-3.45043,5.97656" fill="#666"/><path d="M84.27911,221.047l-2.13282-6.56412a11.04241,11.04241,0,0,0-7.73828,10.5334h6.89655" fill="#666"/><path d="M82.74624,228.151l-4.61557,5.12608a10.97893,10.97893,0,0,0,7.31182,2.77371,11.18131,11.18131,0,0,0,1.278-.076,10.958,10.958,0,0,0,4.33324-1.458l-3.45043-5.97656" fill="#666"/><circle cx="124.75207" cy="225.01631" r="13.7931" fill="#f2f2f2"/><path d="M127.67969,227.94168l4.84791,4.90587a11.045,11.045,0,0,0,2.13383-12.68417l-6.16734,3.09655" fill="#666"/><path d="M125.96171,221.06088l1.82592-6.656a11.04239,11.04239,0,0,0-12.254,4.54678l5.76152,3.79042" fill="#666"/><path d="M120.77669,226.15321l-6.67329,1.74567a10.979,10.979,0,0,0,4.584,6.33587,11.18276,11.18276,0,0,0,1.10944.639,10.95794,10.95794,0,0,0,4.4214,1.16357l.40222-6.88934" fill="#666"/><circle cx="22.89116" cy="225.33143" r="13.7931" fill="#e6e6e6"/><path d="M9.09805,226.16983h2.04343c.42571,0,.90818,0,1.438.00088,2.097.45761,2.86115,2.52085,4.0838,4.04917.38209.53491.84058,1.14624,1.45191,1.06982a2.17606,2.17606,0,0,0,.9368-.28019,2.82637,2.82637,0,0,0,.72454-.61133,8.52461,8.52461,0,0,0,.80473-1.15415c1.2019-2.00438,1.50757-4.37328,2.27173-6.58934.53491-1.37549,1.29907-3.36231,2.90381-3.2859.84058,0,1.37549,1.06983,1.9104,1.91041,1.06983,1.75757,1.75757,3.97363,3.81314,4.84662.61572.0436,1.1928.044,1.72257.044h3.48139" fill="none" stroke="#4d4d4d" stroke-miterlimit="10"/><line x1="53.09805" y1="209.01631" x2="53.09805" y2="241.01631" fill="none" stroke="#b3b3b3" stroke-miterlimit="10" stroke-width="3"/></g></svg>