<svg id="c5bcd52f-c9a2-4da1-bbb3-29b4ee5ad8e7" data-name="Layer 1" xmlns="http://www.w3.org/2000/svg" viewBox="0 0 912 300"><defs><style>.\33 53ff68b-e879-43f1-9c20-de732ba55ffa{fill:#ee3124;}.\32 15d39d9-b626-4993-b210-65efbc779548{fill:#ffc440;}.\30 e9a45ef-eec6-4b74-a842-136e8b0dc3b9{fill:#4330fc;}.\37 b42c80d-bbe9-4acf-9156-03d228cf7985{fill:#d2ccdb;}.\31 cfabdda-cfa7-4828-8d46-ddd0ed756dd4,.\34 a85c8e5-cc5c-47c2-84eb-c7ff19b813c5{fill:#4fe89c;}.bcc64966-da3c-4635-a485-9c91281f47e0{fill:#1846b7;}.\31 3e7bc41-eabf-4177-9c5c-e3408978d2b6{fill:none;stroke:#fff;stroke-miterlimit:10;stroke-width:3px;}.\34 79ee419-3777-4fbb-8145-6b5475ab1ef5{fill:#fff;}.\34 a85c8e5-cc5c-47c2-84eb-c7ff19b813c5{fill-rule:evenodd;}.\39 97e5bff-c711-4e4c-a400-ab37509ed90f{fill:#b3b3b3;}.\34 cb2a40d-8335-4f55-81c6-93ead9daa87e{fill:#5e6367;}.\31 1d25878-3d21-4513-81f9-78a3e1c82547{fill:#1e1b1d;}.\32 b6d39e5-0131-4380-a658-0135cb8a68cc{fill:#3973c6;}.\33 2975440-3a4e-4d04-9ac3-342fb8247d2c{fill:#96daea;}.\31 8955064-9f3c-41de-8328-6c8bfb13816f{fill:#797384;}</style></defs><title>What Urbit Is Export</title><rect class="353ff68b-e879-43f1-9c20-de732ba55ffa" x="76.72" y="174.09" width="9.86" height="11.84"/><rect class="215d39d9-b626-4993-b210-65efbc779548" x="27.37" y="114.88" width="9.86" height="11.84"/><rect class="215d39d9-b626-4993-b210-65efbc779548" x="37.24" y="114.88" width="9.86" height="11.84"/><rect class="215d39d9-b626-4993-b210-65efbc779548" x="47.11" y="114.88" width="9.86" height="11.84"/><rect class="215d39d9-b626-4993-b210-65efbc779548" x="56.98" y="114.88" width="9.86" height="11.84"/><rect class="215d39d9-b626-4993-b210-65efbc779548" x="66.85" y="114.88" width="9.86" height="11.84"/><rect class="0e9a45ef-eec6-4b74-a842-136e8b0dc3b9" x="76.72" y="114.88" width="9.86" height="11.84"/><rect class="0e9a45ef-eec6-4b74-a842-136e8b0dc3b9" x="27.37" y="126.72" width="9.86" height="11.84"/><rect class="0e9a45ef-eec6-4b74-a842-136e8b0dc3b9" x="37.24" y="126.72" width="9.86" height="11.84"/><rect class="7b42c80d-bbe9-4acf-9156-03d228cf7985" x="47.11" y="126.72" width="9.86" height="11.84"/><rect class="7b42c80d-bbe9-4acf-9156-03d228cf7985" x="56.98" y="126.72" width="9.86" height="11.84"/><rect class="7b42c80d-bbe9-4acf-9156-03d228cf7985" x="66.85" y="126.72" width="9.86" height="11.84"/><rect class="7b42c80d-bbe9-4acf-9156-03d228cf7985" x="76.72" y="126.72" width="9.86" height="11.84"/><rect class="7b42c80d-bbe9-4acf-9156-03d228cf7985" x="27.37" y="138.57" width="9.86" height="11.84"/><rect class="7b42c80d-bbe9-4acf-9156-03d228cf7985" x="37.24" y="138.57" width="9.86" height="11.84"/><rect class="7b42c80d-bbe9-4acf-9156-03d228cf7985" x="47.11" y="138.57" width="9.86" height="11.84"/><rect class="7b42c80d-bbe9-4acf-9156-03d228cf7985" x="56.98" y="138.57" width="9.86" height="11.84"/><rect class="1cfabdda-cfa7-4828-8d46-ddd0ed756dd4" x="66.85" y="138.57" width="9.86" height="11.84"/><rect class="1cfabdda-cfa7-4828-8d46-ddd0ed756dd4" x="76.72" y="138.57" width="9.86" height="11.84"/><rect class="1cfabdda-cfa7-4828-8d46-ddd0ed756dd4" x="27.37" y="150.41" width="9.86" height="11.84"/><rect class="1cfabdda-cfa7-4828-8d46-ddd0ed756dd4" x="37.24" y="150.41" width="9.86" height="11.84"/><rect class="1cfabdda-cfa7-4828-8d46-ddd0ed756dd4" x="47.11" y="150.41" width="9.86" height="11.84"/><rect class="1cfabdda-cfa7-4828-8d46-ddd0ed756dd4" x="56.98" y="150.41" width="9.86" height="11.84"/><rect class="1cfabdda-cfa7-4828-8d46-ddd0ed756dd4" x="66.85" y="150.41" width="9.86" height="11.84"/><rect class="1cfabdda-cfa7-4828-8d46-ddd0ed756dd4" x="76.72" y="150.41" width="9.86" height="11.84"/><rect class="1cfabdda-cfa7-4828-8d46-ddd0ed756dd4" x="27.37" y="162.25" width="9.86" height="11.84"/><rect class="1cfabdda-cfa7-4828-8d46-ddd0ed756dd4" x="37.24" y="162.25" width="9.86" height="11.84"/><rect class="bcc64966-da3c-4635-a485-9c91281f47e0" x="47.11" y="162.25" width="9.86" height="11.84"/><rect class="bcc64966-da3c-4635-a485-9c91281f47e0" x="56.98" y="162.25" width="9.86" height="11.84"/><rect class="bcc64966-da3c-4635-a485-9c91281f47e0" x="66.85" y="162.25" width="9.86" height="11.84"/><rect class="bcc64966-da3c-4635-a485-9c91281f47e0" x="76.72" y="162.25" width="9.86" height="11.84"/><rect class="bcc64966-da3c-4635-a485-9c91281f47e0" x="27.37" y="174.09" width="9.86" height="11.84"/><rect class="353ff68b-e879-43f1-9c20-de732ba55ffa" x="37.24" y="174.09" width="9.86" height="11.84"/><rect class="353ff68b-e879-43f1-9c20-de732ba55ffa" x="47.11" y="174.09" width="9.86" height="11.84"/><rect class="353ff68b-e879-43f1-9c20-de732ba55ffa" x="56.98" y="174.09" width="9.86" height="11.84"/><rect class="353ff68b-e879-43f1-9c20-de732ba55ffa" x="66.85" y="174.09" width="9.86" height="11.84"/><polygon class="13e7bc41-eabf-4177-9c5c-e3408978d2b6" points="74.66 189.97 74.66 173.35 88.5 173.35 74.66 189.97"/><polygon class="479ee419-3777-4fbb-8145-6b5475ab1ef5" points="87.98 173.89 87.98 190.5 74.13 190.5 87.98 173.89"/><path d="M35,270.94a4.38,4.38,0,0,1,1.76,1.88,7.15,7.15,0,0,1,0,5.81A4.38,4.38,0,0,1,35,280.5a5.88,5.88,0,0,1-5.4,0,4.37,4.37,0,0,1-1.77-1.88,7.15,7.15,0,0,1,0-5.81,4.37,4.37,0,0,1,1.77-1.88,5.89,5.89,0,0,1,5.4,0ZM30.26,273a5.36,5.36,0,0,0,0,5.39,2.75,2.75,0,0,0,4.13,0,5.36,5.36,0,0,0,0-5.39,2.74,2.74,0,0,0-4.13,0Z"/><path d="M46.21,273.59a2.84,2.84,0,0,1,.79,2.16V281H44.81v-4.61q0-1.82-1.42-1.82a1.76,1.76,0,0,0-1.3.54,2.28,2.28,0,0,0-.54,1.66V281H39.36v-8h2l.06,1.42a2.76,2.76,0,0,1,1.1-1.18,3.25,3.25,0,0,1,1.63-.4A2.91,2.91,0,0,1,46.21,273.59Z"/><path d="M56.67,277.83H51a1.87,1.87,0,0,0,2,1.7,2.28,2.28,0,0,0,1.14-.26,1.37,1.37,0,0,0,.62-.74l1.79.66a2.84,2.84,0,0,1-1.29,1.46,4.61,4.61,0,0,1-2.26.5A3.8,3.8,0,0,1,48.84,277a4.24,4.24,0,0,1,1.06-3.06,3.94,3.94,0,0,1,3-1.1,3.72,3.72,0,0,1,2.86,1.07,4.32,4.32,0,0,1,1,3.06A5.64,5.64,0,0,1,56.67,277.83Zm-5.08-2.91a2.32,2.32,0,0,0-.6,1.38h3.73a2.32,2.32,0,0,0-.61-1.37,1.71,1.71,0,0,0-1.25-.47A1.73,1.73,0,0,0,51.59,274.92Z"/><path d="M65.95,273h2.53v1.63H66V281H63.85v-6.37H62.46V273h1.39v-1a2.49,2.49,0,0,1,.82-2,3.29,3.29,0,0,1,2.21-.7,3.9,3.9,0,0,1,1,.11,2,2,0,0,1,.7.3l-.3,1.46a1.63,1.63,0,0,0-.91-.24q-1.38,0-1.38,1.23Zm3.58-2.32q0-1.18,1.36-1.18t1.36,1.18q0,1.17-1.36,1.17T69.53,270.68ZM72,281H69.79v-8H72Z"/><path d="M76.46,278.46a1.39,1.39,0,0,0,.17.8.73.73,0,0,0,.62.22,2.46,2.46,0,0,0,.47,0,3.62,3.62,0,0,0,.47-.14L78,280.82a2.1,2.1,0,0,1-.67.25,3.94,3.94,0,0,1-.82.09,2.25,2.25,0,0,1-1.7-.57,2.58,2.58,0,0,1-.54-1.82V269.5h2.19Z"/><path d="M86.81,277.83H81.15a1.87,1.87,0,0,0,2,1.7,2.28,2.28,0,0,0,1.14-.26,1.37,1.37,0,0,0,.62-.74l1.79.66a2.84,2.84,0,0,1-1.29,1.46,4.61,4.61,0,0,1-2.26.5A3.8,3.8,0,0,1,79,277,4.24,4.24,0,0,1,80,273.94a3.94,3.94,0,0,1,3-1.1,3.72,3.72,0,0,1,2.86,1.07,4.32,4.32,0,0,1,1,3.06A5.64,5.64,0,0,1,86.81,277.83Zm-5.08-2.91a2.32,2.32,0,0,0-.6,1.38h3.73a2.32,2.32,0,0,0-.61-1.37,1.71,1.71,0,0,0-1.25-.47A1.73,1.73,0,0,0,81.73,274.92Z"/><path d="M201.86,277v4h-2.21v-4l-3.74-6.61h2.35l1.7,3.15.8,1.66.82-1.66,1.7-3.15h2.34Z"/><path d="M212.08,273.94a4.86,4.86,0,0,1,0,6.11,4.67,4.67,0,0,1-6,0,4.86,4.86,0,0,1,0-6.11,4.67,4.67,0,0,1,6,0Zm-4.43,1.16a3.93,3.93,0,0,0,0,3.79,1.9,1.9,0,0,0,2.83,0,3.93,3.93,0,0,0,0-3.79,1.9,1.9,0,0,0-2.83,0Z"/><path d="M222.64,273v8h-2l-.08-1.38a2.85,2.85,0,0,1-2.8,1.54,2.93,2.93,0,0,1-2.06-.7,2.8,2.8,0,0,1-.76-2.17V273h2.19v4.74a1.93,1.93,0,0,0,.35,1.31,1.34,1.34,0,0,0,1,.38,1.8,1.8,0,0,0,1.35-.54,2.23,2.23,0,0,0,.52-1.61V273Z"/><path d="M230.34,273l-.27,1.92a2,2,0,0,0-2.36.33,2.15,2.15,0,0,0-.57,1.59V281h-2.19v-8h1.9l.14,1.57a2.45,2.45,0,0,1,2.48-1.73A1.74,1.74,0,0,1,230.34,273Z"/><path d="M243.52,273.94a4.63,4.63,0,0,1,.91,3,4.69,4.69,0,0,1-.91,3.07,3.08,3.08,0,0,1-2.51,1.1,2.82,2.82,0,0,1-1.5-.39,2.77,2.77,0,0,1-1-1.08v4.67h-2.19V273h1.94l.08,1.58a2.93,2.93,0,0,1,1-1.27,2.86,2.86,0,0,1,1.64-.47A3.09,3.09,0,0,1,243.52,273.94Zm-1.78,4.9a3.66,3.66,0,0,0,0-3.68,1.82,1.82,0,0,0-2.69-.09,2.53,2.53,0,0,0-.56,1.58v.7a2.54,2.54,0,0,0,.56,1.57,1.81,1.81,0,0,0,2.69-.08Z"/><path d="M254.18,279.61l-.16,1.33a2.29,2.29,0,0,1-1,.22q-1.54,0-1.84-1.2a2.18,2.18,0,0,1-1.09.9,4.56,4.56,0,0,1-1.74.3,2.83,2.83,0,0,1-1.82-.53,1.84,1.84,0,0,1-.66-1.52q0-2,3.12-2.53l1.92-.37v-.38a1.4,1.4,0,0,0-.36-1,1.32,1.32,0,0,0-1-.38,2.07,2.07,0,0,0-1.2.32,1.68,1.68,0,0,0-.64,1l-1.74-.74a2.65,2.65,0,0,1,1.15-1.63,4.17,4.17,0,0,1,2.34-.59,4.27,4.27,0,0,1,2.67.74,2.61,2.61,0,0,1,1,2.2v3.28a.64.64,0,0,0,.14.46.61.61,0,0,0,.45.14A1.93,1.93,0,0,0,254.18,279.61Zm-3.9-.28a1,1,0,0,0,.58-.94v-.83l-1.71.38a2,2,0,0,0-.81.34.73.73,0,0,0-.26.6.72.72,0,0,0,.24.58,1,1,0,0,0,.67.2A2.49,2.49,0,0,0,250.28,279.33Z"/><path d="M254.9,279.62l1.28-1.31a1.9,1.9,0,0,0,.92,1,3.49,3.49,0,0,0,1.48.28,2.49,2.49,0,0,0,1.09-.19.58.58,0,0,0,.38-.53c0-.18-.12-.34-.36-.46a5,5,0,0,0-1.24-.37,6.21,6.21,0,0,1-2.58-1,2,2,0,0,1-.74-1.62,2.16,2.16,0,0,1,.42-1.26,2.88,2.88,0,0,1,1.23-1,4.81,4.81,0,0,1,2-.36,5,5,0,0,1,2.18.41,3.44,3.44,0,0,1,1.39,1.29l-1.36,1.15a2.38,2.38,0,0,0-.87-.94,2.55,2.55,0,0,0-1.3-.3,2.11,2.11,0,0,0-1,.22.64.64,0,0,0-.39.54.65.65,0,0,0,.38.56,4.76,4.76,0,0,0,1.36.42,6.17,6.17,0,0,1,2.47.92,1.89,1.89,0,0,1,.73,1.58,2.11,2.11,0,0,1-1,1.8,4.59,4.59,0,0,1-2.7.68Q255.94,281.16,254.9,279.62Z"/><path d="M263.4,279.62l1.28-1.31a1.9,1.9,0,0,0,.92,1,3.49,3.49,0,0,0,1.48.28,2.49,2.49,0,0,0,1.09-.19.58.58,0,0,0,.38-.53c0-.18-.12-.34-.36-.46a5,5,0,0,0-1.24-.37,6.21,6.21,0,0,1-2.58-1,2,2,0,0,1-.74-1.62,2.16,2.16,0,0,1,.42-1.26,2.88,2.88,0,0,1,1.23-1,4.81,4.81,0,0,1,2-.36,5,5,0,0,1,2.18.41,3.44,3.44,0,0,1,1.39,1.29l-1.36,1.15a2.38,2.38,0,0,0-.87-.94,2.55,2.55,0,0,0-1.3-.3,2.11,2.11,0,0,0-1,.22.64.64,0,0,0-.39.54.65.65,0,0,0,.38.56,4.76,4.76,0,0,0,1.36.42,6.17,6.17,0,0,1,2.47.92,1.89,1.89,0,0,1,.73,1.58,2.11,2.11,0,0,1-1,1.8,4.59,4.59,0,0,1-2.7.68Q264.44,281.16,263.4,279.62Z"/><path d="M278.6,273.48a3.18,3.18,0,0,1,1.2,1.71l-2,.74q-.29-1.46-1.55-1.46a1.73,1.73,0,0,0-1.45.65,3,3,0,0,0-.5,1.9,2.94,2.94,0,0,0,.51,1.88,1.73,1.73,0,0,0,1.42.63,1.54,1.54,0,0,0,1.66-1.42l2,.64a2.88,2.88,0,0,1-1.19,1.76,4.09,4.09,0,0,1-6.58-3.5,4.19,4.19,0,0,1,1.08-3.06,4,4,0,0,1,3-1.1A4.13,4.13,0,0,1,278.6,273.48Z"/><path d="M288.27,273.94a4.86,4.86,0,0,1,0,6.11,4.67,4.67,0,0,1-6,0,4.86,4.86,0,0,1,0-6.11,4.67,4.67,0,0,1,6,0Zm-4.43,1.16a3.93,3.93,0,0,0,0,3.79,1.9,1.9,0,0,0,2.83,0,3.93,3.93,0,0,0,0-3.79,1.9,1.9,0,0,0-2.83,0Z"/><path d="M299,269.5V281h-2l-.1-1.49a2.82,2.82,0,0,1-1,1.2,2.87,2.87,0,0,1-1.59.45,3.09,3.09,0,0,1-2.51-1.1,4.63,4.63,0,0,1-.91-3,4.69,4.69,0,0,1,.91-3.07,3.08,3.08,0,0,1,2.51-1.1,2.82,2.82,0,0,1,1.5.39,2.65,2.65,0,0,1,1,1.08V269.5Zm-2.69,9.36a2.8,2.8,0,0,0,.5-1.78v-.16a2.8,2.8,0,0,0-.5-1.77,1.79,1.79,0,0,0-2.74,0,3.66,3.66,0,0,0,0,3.68,1.8,1.8,0,0,0,2.74,0Z"/><path d="M308.71,277.83H303a1.87,1.87,0,0,0,2,1.7,2.28,2.28,0,0,0,1.14-.26,1.37,1.37,0,0,0,.62-.74l1.79.66a2.84,2.84,0,0,1-1.29,1.46,4.6,4.6,0,0,1-2.26.5,3.79,3.79,0,0,1-4.16-4.16,4.23,4.23,0,0,1,1.06-3.06,3.94,3.94,0,0,1,3-1.1,3.72,3.72,0,0,1,2.86,1.07,4.32,4.32,0,0,1,1,3.06A5.64,5.64,0,0,1,308.71,277.83Zm-5.08-2.91a2.32,2.32,0,0,0-.6,1.38h3.73a2.32,2.32,0,0,0-.61-1.37,1.7,1.7,0,0,0-1.25-.47A1.73,1.73,0,0,0,303.63,274.92Z"/><path class="4a85c8e5-cc5c-47c2-84eb-c7ff19b813c5" d="M279.06,117l-35,35a19.66,19.66,0,1,0,7.55,7.29L267.93,143l9.27,9.27,13-13L280.91,130l5.56-5.56Zm-37.87,58.73a9.18,9.18,0,1,1,0-13A9.19,9.19,0,0,1,241.19,175.78Z"/><path d="M145.14,149.83h-2.2v2.45h-1.62v-2.45h-2.21v-1.46h2.21v-2.44h1.62v2.44h2.2Z"/><path d="M366.1,149.83h-2.2v2.45h-1.62v-2.45h-2.21v-1.46h2.21v-2.44h1.62v2.44h2.2Z"/><path d="M555.17,148.61h-5.69v-1.4h5.69Zm0,2.59h-5.69v-1.4h5.69Z"/><path d="M424.43,278.42h-4.06l-.86,2.58h-2.26l3.86-10.56h2.64L427.6,281h-2.29Zm-.54-1.63-1-3-.48-1.6h0l-.45,1.57-1,3Z"/><path d="M440.59,273.94a4.63,4.63,0,0,1,.91,3,4.69,4.69,0,0,1-.91,3.07,3.08,3.08,0,0,1-2.51,1.1,2.82,2.82,0,0,1-1.5-.39,2.77,2.77,0,0,1-1-1.08v4.67h-2.19V273h1.94l.08,1.58a2.93,2.93,0,0,1,1-1.27,2.86,2.86,0,0,1,1.64-.47A3.09,3.09,0,0,1,440.59,273.94Zm-1.78,4.9a3.66,3.66,0,0,0,0-3.68,1.81,1.81,0,0,0-2.69-.09,2.52,2.52,0,0,0-.56,1.58v.7a2.53,2.53,0,0,0,.56,1.57,1.81,1.81,0,0,0,2.69-.08Z"/><path d="M448.83,273l-.27,1.92a2,2,0,0,0-2.36.33,2.15,2.15,0,0,0-.57,1.59V281h-2.19v-8h1.9l.14,1.57a2.45,2.45,0,0,1,2.48-1.73A1.75,1.75,0,0,1,448.83,273Z"/><path d="M456.73,273.94a4.86,4.86,0,0,1,0,6.11,4.67,4.67,0,0,1-6,0,4.86,4.86,0,0,1,0-6.11,4.67,4.67,0,0,1,6,0Zm-4.43,1.16a3.93,3.93,0,0,0,0,3.79,1.9,1.9,0,0,0,2.83,0,3.93,3.93,0,0,0,0-3.79,1.9,1.9,0,0,0-2.83,0Z"/><path d="M466.52,280.07a2,2,0,0,1,.71,1.65,2.23,2.23,0,0,1-1.18,2,6,6,0,0,1-3.12.72,6.43,6.43,0,0,1-3-.53,1.6,1.6,0,0,1-1-1.44,1.35,1.35,0,0,1,.37-.94,2.13,2.13,0,0,1,1.09-.58,2.08,2.08,0,0,1-.86-.63,1.63,1.63,0,0,1,0-2,2,2,0,0,1,.93-.62,2.39,2.39,0,0,1-1.25-2.18,2.34,2.34,0,0,1,1-2,4.41,4.41,0,0,1,2.68-.73,6,6,0,0,1,1.62.21,2.69,2.69,0,0,1,.81-1.48,2.14,2.14,0,0,1,1.62-.47l.29,1.57-.34,0a2.08,2.08,0,0,0-1,.21,1.19,1.19,0,0,0-.55.56,2.38,2.38,0,0,1,1.22,2.14,2.33,2.33,0,0,1-1,2,4.45,4.45,0,0,1-2.7.73,6.74,6.74,0,0,1-1.44-.14.71.71,0,0,0-.62.72.56.56,0,0,0,.24.49,1.15,1.15,0,0,0,.67.17h2.7A3.14,3.14,0,0,1,466.52,280.07Zm-1.69,2.58q.61-.28.61-.71a.55.55,0,0,0-.28-.5,1.88,1.88,0,0,0-.92-.17h-2.18q-1.33,0-1.33.72,0,.45.59.7a4.84,4.84,0,0,0,1.78.25A4.26,4.26,0,0,0,464.83,282.66Zm-2.94-8.07a1.23,1.23,0,0,0-.41,1,1.25,1.25,0,0,0,.41,1,1.5,1.5,0,0,0,1,.37,1.53,1.53,0,0,0,1.06-.37,1.25,1.25,0,0,0,.41-1,1.23,1.23,0,0,0-.41-1,1.53,1.53,0,0,0-1.06-.37A1.51,1.51,0,0,0,461.9,274.58Z"/><path d="M474,273l-.27,1.92a2,2,0,0,0-2.36.33,2.15,2.15,0,0,0-.57,1.59V281h-2.19v-8h1.9l.14,1.57a2.45,2.45,0,0,1,2.48-1.73A1.74,1.74,0,0,1,474,273Z"/><path d="M483.06,279.61l-.16,1.33a2.3,2.3,0,0,1-1,.22q-1.54,0-1.84-1.2a2.18,2.18,0,0,1-1.09.9,4.56,4.56,0,0,1-1.74.3,2.83,2.83,0,0,1-1.82-.53,1.84,1.84,0,0,1-.66-1.52q0-2,3.12-2.53l1.92-.37v-.38a1.4,1.4,0,0,0-.36-1,1.32,1.32,0,0,0-1-.38,2.07,2.07,0,0,0-1.2.32,1.69,1.69,0,0,0-.64,1l-1.74-.74a2.66,2.66,0,0,1,1.15-1.63,4.17,4.17,0,0,1,2.34-.59,4.27,4.27,0,0,1,2.67.74,2.61,2.61,0,0,1,1,2.2v3.28a.63.63,0,0,0,.14.46.61.61,0,0,0,.45.14A1.92,1.92,0,0,0,483.06,279.61Zm-3.9-.28a1,1,0,0,0,.58-.94v-.83l-1.71.38a2,2,0,0,0-.81.34.73.73,0,0,0-.26.6.72.72,0,0,0,.24.58,1,1,0,0,0,.67.2A2.49,2.49,0,0,0,479.16,279.33Z"/><path d="M496.44,273.59a2.81,2.81,0,0,1,.81,2.16V281h-2.19v-4.82a1.74,1.74,0,0,0-.37-1.22,1.32,1.32,0,0,0-1-.39,1.61,1.61,0,0,0-1.26.56,2.29,2.29,0,0,0-.5,1.57V281h-2.19v-4.82a1.74,1.74,0,0,0-.37-1.22,1.34,1.34,0,0,0-1-.39,1.64,1.64,0,0,0-1.24.55,2.31,2.31,0,0,0-.52,1.64V281h-2.19v-8h2l.06,1.42a2.78,2.78,0,0,1,1.1-1.18,3.25,3.25,0,0,1,3.15,0,2.42,2.42,0,0,1,1,1.2,2.71,2.71,0,0,1,1.12-1.2,3.19,3.19,0,0,1,1.6-.42A2.88,2.88,0,0,1,496.44,273.59Z"/><rect x="416.71" y="121.58" width="82" height="66.92"/><rect class="997e5bff-c711-4e4c-a400-ab37509ed90f" x="416.71" y="117.5" width="82" height="4.08"/><path class="479ee419-3777-4fbb-8145-6b5475ab1ef5" d="M422.95,155.68a3.15,3.15,0,0,0,1.86.68c.79,0,1.21-.36,1.21-.87,0-1.24-3.17-1-3.17-2.76,0-.84.65-1.41,1.62-1.51V149.9h.6v1.31a2.43,2.43,0,0,1,1.59.76l-.44.48a2.11,2.11,0,0,0-1.47-.57c-.67,0-1.1.32-1.1.83,0,1.1,3.18.89,3.18,2.72,0,.86-.71,1.48-1.76,1.59v1.46h-.6V157a3.52,3.52,0,0,1-1.91-.78Z"/><path class="479ee419-3777-4fbb-8145-6b5475ab1ef5" d="M432,150.28h.74l-3.28,8.7h-.74Z"/><path class="479ee419-3777-4fbb-8145-6b5475ab1ef5" d="M435.4,156.84h0l-.07.54h-.66v-7.12h.82v1.94l0,.94h0a2.39,2.39,0,0,1,1.63-.74c1.31,0,2,1,2,2.47a2.35,2.35,0,0,1-2.2,2.63A2.44,2.44,0,0,1,435.4,156.84Zm2.86-2c0-1.07-.4-1.79-1.37-1.79a2.12,2.12,0,0,0-1.43.73v2.42a2.09,2.09,0,0,0,1.32.57C437.63,156.81,438.25,156.08,438.25,154.88Z"/><path class="479ee419-3777-4fbb-8145-6b5475ab1ef5" d="M442.87,153.19h-2.26v-.67h3.08v4.86h-.82Zm-.34-2.33a.66.66,0,1,1,.66.64A.63.63,0,0,1,442.53,150.86Z"/><path class="479ee419-3777-4fbb-8145-6b5475ab1ef5" d="M446.64,152.52h.68l.07.83h0a2.49,2.49,0,0,1,1.83-1c1.15,0,1.68.68,1.68,2v3h-.82v-2.91c0-.92-.32-1.36-1.12-1.36-.58,0-1,.29-1.54.88v3.39h-.82Z"/><path class="479ee419-3777-4fbb-8145-6b5475ab1ef5" d="M456,150.28h.74l-3.28,8.7h-.74Z"/><path class="479ee419-3777-4fbb-8145-6b5475ab1ef5" d="M458.48,155.54v-3h.83v2.91c0,.92.31,1.36,1.12,1.36a1.94,1.94,0,0,0,1.51-.9v-3.37h.82v4.86h-.67l-.07-.85h0a2.36,2.36,0,0,1-1.81,1C459,157.5,458.48,156.82,458.48,155.54Z"/><path class="479ee419-3777-4fbb-8145-6b5475ab1ef5" d="M465.17,152.52h.68l.07,1.15h0a2.58,2.58,0,0,1,2.17-1.27,2,2,0,0,1,1,.2l-.19.71a2.25,2.25,0,0,0-.9-.17,2.3,2.3,0,0,0-2,1.39v2.85h-.82Z"/><path class="479ee419-3777-4fbb-8145-6b5475ab1ef5" d="M471.4,156.84h0l-.07.54h-.66v-7.12h.82v1.94l0,.94h0a2.39,2.39,0,0,1,1.63-.74c1.31,0,2,1,2,2.47a2.35,2.35,0,0,1-2.2,2.63A2.44,2.44,0,0,1,471.4,156.84Zm2.86-2c0-1.07-.4-1.79-1.37-1.79a2.12,2.12,0,0,0-1.43.73v2.42a2.1,2.1,0,0,0,1.32.57C473.63,156.81,474.25,156.08,474.25,154.88Z"/><path class="479ee419-3777-4fbb-8145-6b5475ab1ef5" d="M478.87,153.19h-2.26v-.67h3.08v4.86h-.82Zm-.34-2.33a.66.66,0,1,1,.66.64A.63.63,0,0,1,478.53,150.86Z"/><path class="479ee419-3777-4fbb-8145-6b5475ab1ef5" d="M483.77,155.49v-2.3H482.4v-.62l1.4,0,.11-1.56h.68v1.56H487v.67h-2.39v2.31c0,.87.29,1.33,1.23,1.33a3.21,3.21,0,0,0,1.17-.22l.18.6a4.23,4.23,0,0,1-1.52.29C484.23,157.5,483.77,156.69,483.77,155.49Z"/><path class="1cfabdda-cfa7-4828-8d46-ddd0ed756dd4" d="M740.71,92.77a57.29,57.29,0,1,1-57.29,57.29,57.36,57.36,0,0,1,57.29-57.29m0-52.88A110.18,110.18,0,1,0,850.89,150.07,110.18,110.18,0,0,0,740.71,39.89Z"/><path class="215d39d9-b626-4993-b210-65efbc779548" d="M740.71,37.46a112.6,112.6,0,1,1-79.62,33,111.86,111.86,0,0,1,79.62-33m0-11.9a124.5,124.5,0,1,0,124.5,124.5,124.5,124.5,0,0,0-124.5-124.5Z"/><path class="353ff68b-e879-43f1-9c20-de732ba55ffa" d="M738.1,150.07h0a7.37,7.37,0,0,1,7.35-7.35h50.11a55.09,55.09,0,1,0,0,14.69H745.44A7.37,7.37,0,0,1,738.1,150.07Z"/><path class="4cb2a40d-8335-4f55-81c6-93ead9daa87e" d="M795.55,142.72H745.44a7.37,7.37,0,0,0-7.35,7.35h0a7.37,7.37,0,0,0,7.35,7.35h50.11a55.46,55.46,0,0,0,0-14.69Z"/><circle class="11d25878-3d21-4513-81f9-78a3e1c82547" cx="745.44" cy="150.07" r="7.35"/><path class="7b42c80d-bbe9-4acf-9156-03d228cf7985" d="M620.89,109.52l-15.66-5.29a144,144,0,0,1,41.1-61.72l10.92,12.4a127.51,127.51,0,0,0-36.36,54.61Z"/><path class="2b6d39e5-0131-4380-a658-0135cb8a68cc" d="M600.52,178.23a142.34,142.34,0,0,1,.08-56.88,144.18,144.18,0,0,1,4.63-17.12l15.66,5.29a127.63,127.63,0,0,0-4.1,15.15,125.91,125.91,0,0,0-.06,50.31Z"/><path class="bcc64966-da3c-4635-a485-9c91281f47e0" d="M835.58,257.62l-10.92-12.4a126.55,126.55,0,0,0,40.52-120.06l16.2-3.25a143.42,143.42,0,0,1-45.8,135.72Z"/><path class="bcc64966-da3c-4635-a485-9c91281f47e0" d="M740.8,293.33a142,142,0,0,1-28.56-2.91,143.87,143.87,0,0,1-17.12-4.63l5.29-15.66a127.19,127.19,0,0,0,15.15,4.1,127.14,127.14,0,0,0,96.71-19.4,127.19,127.19,0,0,0,12.4-9.62l10.92,12.4a143.87,143.87,0,0,1-14,10.88,142.34,142.34,0,0,1-52.45,22A143.82,143.82,0,0,1,740.8,293.33Z"/><path class="32975440-3a4e-4d04-9ac3-342fb8247d2c" d="M865.18,125.15A126.89,126.89,0,0,0,781.5,30l5.29-15.66a143.08,143.08,0,0,1,94.6,107.56Z"/><path class="18955064-9f3c-41de-8328-6c8bfb13816f" d="M695.12,285.79a143.08,143.08,0,0,1-94.6-107.56l16.2-3.25a126.89,126.89,0,0,0,83.69,95.15Z"/><path class="32975440-3a4e-4d04-9ac3-342fb8247d2c" d="M657.25,54.92l-10.92-12.4a143.93,143.93,0,0,1,14-10.88A143.68,143.68,0,0,1,769.67,9.71a143.87,143.87,0,0,1,17.12,4.63L781.5,30a127.19,127.19,0,0,0-15.15-4.1,127.15,127.15,0,0,0-96.71,19.4A127.48,127.48,0,0,0,657.25,54.92Z"/></svg>