<svg width="76" height="31" viewBox="0 0 76 31" fill="none" xmlns="http://www.w3.org/2000/svg">
  <rect width="75.9146" height="31" rx="15.5" fill="#F6F6F6"/>
  <path d="M23.9715 14.9821C23.9715 19.3923 20.398 22.9642 15.9858 22.9642C11.5736 22.9642 8 19.3923 8 14.9821C8 10.5719 11.5811 7 15.9858 7C20.3904 7 23.9715 10.5719 23.9715 14.9821Z" fill="black"/>
  <path d="M45.9442 14.9821C45.9442 19.3923 42.3706 22.9642 37.9584 22.9642C33.5462 22.9642 29.9727 19.3923 29.9727 14.9821C29.9727 10.5719 33.5538 7 37.9584 7C42.3631 7 45.9442 10.5719 45.9442 14.9821Z" fill="black"/>
  <path d="M67.913 14.9821C67.913 19.3923 64.3394 22.9642 59.9272 22.9642C55.515 22.9642 51.9414 19.3923 51.9414 14.9821C51.9414 10.5719 55.5225 7 59.9272 7C64.3318 7 67.913 10.5719 67.913 14.9821Z" fill="black"/>
</svg>
