<svg id="e109900a-adff-44e5-9d5d-87694a0b4445" data-name="Layer 1" xmlns="http://www.w3.org/2000/svg" viewBox="0 0 600 600"><defs><style>.\34 ebc80fa-b17c-463e-9d5c-0d98141a6254{fill:#fff;}.c21dcac6-a4dd-44eb-a7ee-20d8130fb6d9{fill:#ea322d;}.bc83ae67-2aff-45dd-b16d-a7c92111aade{fill:#4330fc;}</style></defs><title>Artboard 1</title><rect class="4ebc80fa-b17c-463e-9d5c-0d98141a6254" y="0.16" width="200" height="200"/><path class="c21dcac6-a4dd-44eb-a7ee-20d8130fb6d9" d="M42.19,100.16V42.35H100A57.81,57.81,0,1,1,100,158H42.19Z"/><path class="4ebc80fa-b17c-463e-9d5c-0d98141a6254" d="M42.19,99.26H157.81v1.81H42.19Z"/><path class="4ebc80fa-b17c-463e-9d5c-0d98141a6254" d="M100,57.71a42.46,42.46,0,1,0,42.46,42.46A42.46,42.46,0,0,0,100,57.71ZM55.74,100.16A44.26,44.26,0,1,1,100,144.42,44.26,44.26,0,0,1,55.74,100.16Z"/><path class="4ebc80fa-b17c-463e-9d5c-0d98141a6254" d="M55.74,42.35h1.81V158H55.74Z"/><rect class="4ebc80fa-b17c-463e-9d5c-0d98141a6254" x="200" y="0.16" width="200" height="200" transform="translate(198.87 399.84) rotate(-89.82)"/><path class="c21dcac6-a4dd-44eb-a7ee-20d8130fb6d9" d="M242.19,100a57.81,57.81,0,1,1,57.63,58A57.81,57.81,0,0,1,242.19,100Z"/><path class="4ebc80fa-b17c-463e-9d5c-0d98141a6254" d="M314.45,100.21A14.45,14.45,0,1,1,300,85.71,14.45,14.45,0,0,1,314.45,100.21Z"/><rect class="4ebc80fa-b17c-463e-9d5c-0d98141a6254" x="200" y="400.16" width="200" height="200"/><path class="c21dcac6-a4dd-44eb-a7ee-20d8130fb6d9" d="M357.81,558H242.19V442.35A115.63,115.63,0,0,1,357.81,558Z"/><path class="4ebc80fa-b17c-463e-9d5c-0d98141a6254" d="M242.83,441.71,358.38,557.26l-1.28,1.28L241.55,443Z"/><path class="4ebc80fa-b17c-463e-9d5c-0d98141a6254" d="M293.1,494.16A71.13,71.13,0,0,1,244,514.61v41.54a113.45,113.45,0,0,0,78.68-33.32Z"/><rect class="4ebc80fa-b17c-463e-9d5c-0d98141a6254" x="400" y="0.16" width="200" height="200"/><path class="c21dcac6-a4dd-44eb-a7ee-20d8130fb6d9" d="M442.19,100.16A57.81,57.81,0,1,1,500,158,57.81,57.81,0,0,1,442.19,100.16Z"/><path class="4ebc80fa-b17c-463e-9d5c-0d98141a6254" d="M456.59,142.29l27.71-27.71,1.28,1.28-27.71,27.71Z"/><rect class="4ebc80fa-b17c-463e-9d5c-0d98141a6254" x="400" y="200.16" width="200" height="200"/><path class="c21dcac6-a4dd-44eb-a7ee-20d8130fb6d9" d="M442.19,300.16V242.35H500A57.81,57.81,0,0,1,500,358H442.19Z"/><path class="4ebc80fa-b17c-463e-9d5c-0d98141a6254" d="M528.91,300.16A28.91,28.91,0,1,1,500,271.25,28.91,28.91,0,0,1,528.91,300.16ZM500,321.84a21.68,21.68,0,1,0-21.68-21.68A21.68,21.68,0,0,0,500,321.84Z"/><rect class="4ebc80fa-b17c-463e-9d5c-0d98141a6254" y="400.16" width="200" height="200"/><path class="c21dcac6-a4dd-44eb-a7ee-20d8130fb6d9" d="M100,558H42.19V500.16a57.81,57.81,0,0,1,115.63,0V558Z"/><path class="4ebc80fa-b17c-463e-9d5c-0d98141a6254" d="M42.83,441.71,158.38,557.26l-1.28,1.28L41.55,443Z"/><path class="4ebc80fa-b17c-463e-9d5c-0d98141a6254" d="M56.59,542.29,84.3,514.59l1.28,1.28L57.87,543.57Z"/><path class="4ebc80fa-b17c-463e-9d5c-0d98141a6254" d="M63.87,543.52a7.23,7.23,0,1,1-7.23-7.23A7.23,7.23,0,0,1,63.87,543.52Z"/><rect class="4ebc80fa-b17c-463e-9d5c-0d98141a6254" x="200" y="200.48" width="200" height="200"/><path class="c21dcac6-a4dd-44eb-a7ee-20d8130fb6d9" d="M357.81,242.67V358.3H242.19A115.63,115.63,0,0,1,357.81,242.67Z"/><path class="4ebc80fa-b17c-463e-9d5c-0d98141a6254" d="M357.81,330.29a28,28,0,0,0-28,28H328a29.81,29.81,0,0,1,29.81-29.81Z"/><rect class="4ebc80fa-b17c-463e-9d5c-0d98141a6254" y="200.48" width="200" height="200"/><path class="bc83ae67-2aff-45dd-b16d-a7c92111aade" d="M42.19,242.67H157.81V358.3H42.19Z"/><path class="4ebc80fa-b17c-463e-9d5c-0d98141a6254" d="M143.36,351.07a7.23,7.23,0,1,1,7.23-7.23A7.23,7.23,0,0,1,143.36,351.07Z"/><path class="4ebc80fa-b17c-463e-9d5c-0d98141a6254" d="M56.64,264.35a7.23,7.23,0,1,1,7.23-7.23A7.23,7.23,0,0,1,56.64,264.35Z"/></svg>