<svg xmlns="http://www.w3.org/2000/svg" viewBox="0 0 200 200">
  <title>galaxies</title>
  <g id="Layer_2" data-name="Layer 2">
    <g id="Layer_1-2" data-name="Layer 1">
      <g id="galaxies">
        <g id="galaxy-dots">
          <path d="M170,90a10,10,0,1,1-10,10,10,10,0,0,1,10-10m0-20a30,30,0,1,0,30,30,30,30,0,0,0-30-30Z" fill="#ee3124"/>
          <path d="M100,90a10,10,0,1,1-10,10,10,10,0,0,1,10-10m0-20a30,30,0,1,0,30,30,30,30,0,0,0-30-30Z" fill="#ee3124"/>
          <path d="M170,20a10,10,0,1,1-10,10,10,10,0,0,1,10-10m0-20a30,30,0,1,0,30,30A30,30,0,0,0,170,0Z" fill="#ee3124"/>
          <path d="M100,20A10,10,0,1,1,90,30a10,10,0,0,1,10-10m0-20a30,30,0,1,0,30,30A30,30,0,0,0,100,0Z" fill="#ee3124"/>
          <path d="M30,20A10,10,0,1,1,20,30,10,10,0,0,1,30,20M30,0A30,30,0,1,0,60,30,30,30,0,0,0,30,0Z" fill="#ee3124"/>
          <path d="M30,160a10,10,0,1,1-10,10,10,10,0,0,1,10-10m0-20a30,30,0,1,0,30,30,30,30,0,0,0-30-30Z" fill="#ee3124"/>
          <path d="M100,160a10,10,0,1,1-10,10,10,10,0,0,1,10-10m0-20a30,30,0,1,0,30,30,30,30,0,0,0-30-30Z" fill="#ee3124"/>
        </g>
        <path id="star-dot" d="M30,90a10,10,0,1,1-10,10A10,10,0,0,1,30,90m0-20a30,30,0,1,0,30,30A30,30,0,0,0,30,70Z" fill="#4330fc"/>
      </g>
    </g>
  </g>
</svg>
