<svg xmlns="http://www.w3.org/2000/svg" viewBox="0 0 900 270"><defs><style>.\31 5a418e0-14f2-4f6b-9a10-7eb0515d70cb{fill:#4330fc;}.\38 b7d14a0-94c2-4350-9afd-cfa845c62217{fill:#4fe89c;}.be80ab26-9d09-4584-9e6e-e0a64d6bf546{fill:#4d4d4d;}.\35 d29d869-a473-4216-b245-3b85870acb41,.\36 2114587-7e98-4400-9ecf-ddd164f0ec5a,.aad59c72-f3de-458c-9bf6-6cfdd50d5254,.df02e7c9-f2ff-4734-af54-e81c8a4f33b1{fill:none;stroke-miterlimit:10;}.df02e7c9-f2ff-4734-af54-e81c8a4f33b1{stroke:#fff;}.\30 84d83e4-283a-4878-b7b8-283abb05439f{fill:#e6e6e6;}.\35 d29d869-a473-4216-b245-3b85870acb41{stroke:#5e6367;stroke-width:2px;}.\34 022f969-7f24-49d6-9f7a-f03a4c80005a{fill:#f2f2f2;}.\35 2fc917c-11bc-45fc-b41e-b7830e3fe90f{fill:#666;}.aad59c72-f3de-458c-9bf6-6cfdd50d5254{stroke:#4d4d4d;}.\36 2114587-7e98-4400-9ecf-ddd164f0ec5a{stroke:#b3b3b3;stroke-width:3px;}.\37 19d3e7e-c3ad-40f4-b2c5-50c6669b30e9{fill:#ffc440;}.\35 c03f346-2ef0-497d-ad08-0c5bd71a46f2{fill:#fff;}.\32 9f50520-564c-4216-937f-149cc5550731{fill:#ee3124;}.\37 233acde-698a-43ea-8433-e982a7c8dda7{fill:#5e6367;}.bfa2bd26-2d21-4eb9-a6b6-ecdeb9392c41{fill:#1e1b1d;}</style></defs><title>Artboard 1 copy 6</title><g id="06e8b0a4-3bcb-4469-851e-67f76f841236" data-name="Layer 1"><path d="M445.72,113.6h-3.23L438.73,103h2.9l1.94,6.38.58,2.08.56-2,2-6.42h2.8Z"/><path d="M457.34,103.33a5.63,5.63,0,0,1,2,1.46l-1.55,1.79a3.41,3.41,0,0,0-1.24-1.18,3.61,3.61,0,0,0-1.7-.38,2.37,2.37,0,0,0-1.28.29.88.88,0,0,0-.45.77.73.73,0,0,0,.47.65,6.13,6.13,0,0,0,1.61.46,7,7,0,0,1,3.13,1.17,2.64,2.64,0,0,1,.94,2.16,2.75,2.75,0,0,1-.58,1.74,3.58,3.58,0,0,1-1.59,1.12,6.46,6.46,0,0,1-2.3.38,8.07,8.07,0,0,1-2.91-.44,5,5,0,0,1-1.94-1.35l1.41-1.92a3.56,3.56,0,0,0,1.41,1.22,4.59,4.59,0,0,0,1.89.35,2.75,2.75,0,0,0,1.32-.25.78.78,0,0,0,.44-.71q0-.37-.47-.6a6.73,6.73,0,0,0-1.58-.44,11.71,11.71,0,0,1-2.25-.65,3.3,3.3,0,0,1-1.38-1,2.61,2.61,0,0,1-.49-1.63,3.07,3.07,0,0,1,.54-1.78,3.5,3.5,0,0,1,1.57-1.22,6.19,6.19,0,0,1,2.44-.44A6.63,6.63,0,0,1,457.34,103.33Z"/><polygon class="15a418e0-14f2-4f6b-9a10-7eb0515d70cb" points="183.6 9.49 183.6 69.33 183.6 209.89 378.63 209.89 378.63 69.33 378.63 9.49 183.6 9.49"/><circle class="8b7d14a0-94c2-4350-9afd-cfa845c62217" cx="248.61" cy="76.19" r="15"/><rect class="8b7d14a0-94c2-4350-9afd-cfa845c62217" x="298.61" y="91.19" width="30" height="30"/><polyline class="8b7d14a0-94c2-4350-9afd-cfa845c62217" points="234.4 158.19 255.61 128.19 276.83 158.19"/><path class="15a418e0-14f2-4f6b-9a10-7eb0515d70cb" d="M50.19,123.88H46.57V133H44.86v-9.09H41.25v-1.47h8.94Z"/><path class="15a418e0-14f2-4f6b-9a10-7eb0515d70cb" d="M58.21,125.58a2.84,2.84,0,0,1,.84,2.21V133H57.34v-4.64q0-2.11-1.71-2.11a2.12,2.12,0,0,0-1.54.62,2.55,2.55,0,0,0-.64,1.9V133H51.74v-11.6h1.71v4.88a2.59,2.59,0,0,1,1.06-1.09,3.22,3.22,0,0,1,1.53-.35A3.09,3.09,0,0,1,58.21,125.58Z"/><path class="15a418e0-14f2-4f6b-9a10-7eb0515d70cb" d="M68.73,129.61H62.88a2.56,2.56,0,0,0,.75,1.61,2.24,2.24,0,0,0,1.57.55,2.73,2.73,0,0,0,1.3-.28,1.47,1.47,0,0,0,.71-.81l1.42.59a3.45,3.45,0,0,1-3.44,1.86,3.91,3.91,0,0,1-3-1.1A4.22,4.22,0,0,1,61.18,129a4.32,4.32,0,0,1,1-3.06,3.75,3.75,0,0,1,2.88-1.1,3.51,3.51,0,0,1,2.74,1.07,4.07,4.07,0,0,1,1,2.85A5.74,5.74,0,0,1,68.73,129.61Zm-5.14-2.9a2.62,2.62,0,0,0-.71,1.58H67.2a2.63,2.63,0,0,0-.68-1.57,1.92,1.92,0,0,0-1.43-.56A2.07,2.07,0,0,0,63.59,126.71Z"/><path class="15a418e0-14f2-4f6b-9a10-7eb0515d70cb" d="M71,123.35a1,1,0,0,1-.3-.79,1,1,0,0,1,.3-.78,1.23,1.23,0,0,1,.85-.27,1.2,1.2,0,0,1,.84.27,1,1,0,0,1,.3.78,1,1,0,0,1-.3.79,1.18,1.18,0,0,1-.84.28A1.21,1.21,0,0,1,71,123.35Zm1.7,9.62H70.94v-8h1.71Z"/><path class="15a418e0-14f2-4f6b-9a10-7eb0515d70cb" d="M80.33,125l-.27,1.57a2.07,2.07,0,0,0-1-.21,1.86,1.86,0,0,0-1,.27,2.07,2.07,0,0,0-.75.82,2.71,2.71,0,0,0-.3,1.31V133H75.33v-8h1.46l.14,1.44a2.5,2.5,0,0,1,2.53-1.6A2,2,0,0,1,80.33,125Z"/><path class="15a418e0-14f2-4f6b-9a10-7eb0515d70cb" d="M93.8,127l-1.6.64a1.81,1.81,0,0,0-1.87-1.52,2,2,0,0,0-1.66.74,3.24,3.24,0,0,0-.59,2.08,3.18,3.18,0,0,0,.59,2.06,2.31,2.31,0,0,0,3,.32,1.94,1.94,0,0,0,.66-1.15l1.57.53a3.27,3.27,0,0,1-1.25,1.75,3.82,3.82,0,0,1-2.26.63,3.91,3.91,0,0,1-3-1.1,4.94,4.94,0,0,1,0-6.11,3.86,3.86,0,0,1,2.93-1.1A3.35,3.35,0,0,1,93.8,127Z"/><path class="15a418e0-14f2-4f6b-9a10-7eb0515d70cb" d="M102.32,125.91a5,5,0,0,1,0,6.11,4.43,4.43,0,0,1-5.86,0,5,5,0,0,1,0-6.11,4.44,4.44,0,0,1,5.86,0Zm-4.6,1a4,4,0,0,0,0,4.18,2.29,2.29,0,0,0,3.35,0,4,4,0,0,0,0-4.16,2.28,2.28,0,0,0-3.35,0Z"/><path class="15a418e0-14f2-4f6b-9a10-7eb0515d70cb" d="M113,121.37V133h-1.5l-.1-1.42a2.73,2.73,0,0,1-1.06,1.15,3.07,3.07,0,0,1-1.62.43,3.26,3.26,0,0,1-2.6-1.1,4.5,4.5,0,0,1-1-3,4.56,4.56,0,0,1,1-3.06,3.25,3.25,0,0,1,2.6-1.11,3,3,0,0,1,1.55.39,2.63,2.63,0,0,1,1,1.06v-4.9Zm-2.3,9.66a3,3,0,0,0,.59-2v-.19a3,3,0,0,0-.59-2,2.16,2.16,0,0,0-3.22,0,3.18,3.18,0,0,0-.58,2,3.21,3.21,0,0,0,.58,2,2.15,2.15,0,0,0,3.22,0Z"/><path class="15a418e0-14f2-4f6b-9a10-7eb0515d70cb" d="M122.72,129.61h-5.86a2.56,2.56,0,0,0,.75,1.61,2.24,2.24,0,0,0,1.57.55,2.73,2.73,0,0,0,1.3-.28,1.47,1.47,0,0,0,.71-.81l1.42.59a3.45,3.45,0,0,1-3.44,1.86,3.91,3.91,0,0,1-3-1.1,4.22,4.22,0,0,1-1.06-3.06,4.32,4.32,0,0,1,1-3.06,3.75,3.75,0,0,1,2.88-1.1,3.51,3.51,0,0,1,2.74,1.07,4.07,4.07,0,0,1,1,2.85A5.74,5.74,0,0,1,122.72,129.61Zm-5.14-2.9a2.62,2.62,0,0,0-.71,1.58h4.32a2.63,2.63,0,0,0-.68-1.57,1.92,1.92,0,0,0-1.43-.56A2.07,2.07,0,0,0,117.57,126.71Z"/><path class="8b7d14a0-94c2-4350-9afd-cfa845c62217" d="M46.4,90.23v4H44.69v-4l-3.76-6.51h1.9l1.89,3.39.83,1.58.83-1.58,1.87-3.39h1.92Z"/><path class="8b7d14a0-94c2-4350-9afd-cfa845c62217" d="M56.77,87.23a5,5,0,0,1,0,6.11,4.43,4.43,0,0,1-5.86,0,5,5,0,0,1,0-6.11,4.44,4.44,0,0,1,5.86,0Zm-4.6,1a4,4,0,0,0,0,4.18,2.29,2.29,0,0,0,3.35,0,4,4,0,0,0,0-4.16,2.28,2.28,0,0,0-3.35,0Z"/><path class="8b7d14a0-94c2-4350-9afd-cfa845c62217" d="M67.26,86.28v8H65.74L65.68,93a3.48,3.48,0,0,1-4.94.74,2.8,2.8,0,0,1-.79-2.18V86.28h1.71V91.1a2.15,2.15,0,0,0,.42,1.5,1.62,1.62,0,0,0,1.23.44,2.21,2.21,0,0,0,1.61-.62,2.43,2.43,0,0,0,.63-1.82V86.28Z"/><path class="8b7d14a0-94c2-4350-9afd-cfa845c62217" d="M74.92,86.28l-.27,1.57a2.07,2.07,0,0,0-1-.21,1.86,1.86,0,0,0-1,.27,2.07,2.07,0,0,0-.75.82,2.71,2.71,0,0,0-.3,1.31v4.24H69.92v-8h1.46l.14,1.44A2.5,2.5,0,0,1,74,86.12,2,2,0,0,1,74.92,86.28Z"/><path class="8b7d14a0-94c2-4350-9afd-cfa845c62217" d="M88.81,82.68v11.6h-1.5l-.1-1.42A2.73,2.73,0,0,1,86.15,94a3.07,3.07,0,0,1-1.62.43,3.26,3.26,0,0,1-2.6-1.1,4.5,4.5,0,0,1-1-3,4.56,4.56,0,0,1,1-3.06,3.25,3.25,0,0,1,2.6-1.11,3,3,0,0,1,1.55.39,2.63,2.63,0,0,1,1,1.06v-4.9Zm-2.3,9.66a3,3,0,0,0,.59-2v-.19a3,3,0,0,0-.59-2,2.16,2.16,0,0,0-3.22,0,3.18,3.18,0,0,0-.58,2,3.21,3.21,0,0,0,.58,2,2.15,2.15,0,0,0,3.22,0Z"/><path class="8b7d14a0-94c2-4350-9afd-cfa845c62217" d="M99,93.1l-.11,1.15a2.42,2.42,0,0,1-1,.19,2,2,0,0,1-1.1-.27,1.36,1.36,0,0,1-.54-.91,2.39,2.39,0,0,1-1.09.87,4,4,0,0,1-1.62.31,3.05,3.05,0,0,1-1.89-.54,1.83,1.83,0,0,1-.72-1.55,2,2,0,0,1,.78-1.59A5,5,0,0,1,94,89.83l2-.35V89a1.55,1.55,0,0,0-.43-1.16,1.64,1.64,0,0,0-1.2-.42,2,2,0,0,0-2.06,1.44l-1.33-.7a2.66,2.66,0,0,1,1.18-1.52,4,4,0,0,1,2.18-.56,3.87,3.87,0,0,1,2.46.72A2.53,2.53,0,0,1,97.79,89v3.62a.63.63,0,0,0,.14.45.6.6,0,0,0,.46.14A2.32,2.32,0,0,0,99,93.1Zm-3.55-.37a1.26,1.26,0,0,0,.66-1.1v-1L94.33,91a3.2,3.2,0,0,0-1.23.45.9.9,0,0,0-.4.77.79.79,0,0,0,.31.68,1.47,1.47,0,0,0,.89.23A2.78,2.78,0,0,0,95.42,92.73Z"/><path class="8b7d14a0-94c2-4350-9afd-cfa845c62217" d="M105.45,93.75a2.83,2.83,0,0,1-.94.5,3.74,3.74,0,0,1-1.19.18,2.68,2.68,0,0,1-1.77-.55,2.15,2.15,0,0,1-.68-1.72V87.63H99.36V86.28h1.52V84.41l1.71-.48v2.35h2.8v1.34h-2.8v4.26a1.09,1.09,0,0,0,.31.86,1.24,1.24,0,0,0,.86.28,1.86,1.86,0,0,0,1.3-.51Z"/><path class="8b7d14a0-94c2-4350-9afd-cfa845c62217" d="M114.6,93.1l-.11,1.15a2.42,2.42,0,0,1-1,.19,2,2,0,0,1-1.1-.27,1.36,1.36,0,0,1-.54-.91,2.39,2.39,0,0,1-1.09.87,4,4,0,0,1-1.62.31,3.05,3.05,0,0,1-1.89-.54,1.83,1.83,0,0,1-.72-1.55,2,2,0,0,1,.78-1.59,5,5,0,0,1,2.34-.92l2-.35V89a1.55,1.55,0,0,0-.43-1.16,1.64,1.64,0,0,0-1.2-.42A2,2,0,0,0,108,88.91l-1.33-.7a2.66,2.66,0,0,1,1.18-1.52,4,4,0,0,1,2.18-.56,3.87,3.87,0,0,1,2.46.72,2.53,2.53,0,0,1,.91,2.11v3.62a.63.63,0,0,0,.14.45.6.6,0,0,0,.46.14A2.32,2.32,0,0,0,114.6,93.1Zm-3.55-.37a1.26,1.26,0,0,0,.66-1.1v-1L110,91a3.2,3.2,0,0,0-1.23.45.9.9,0,0,0-.4.77.79.79,0,0,0,.31.68,1.47,1.47,0,0,0,.89.23A2.78,2.78,0,0,0,111.05,92.73Z"/><rect class="be80ab26-9d09-4584-9e6e-e0a64d6bf546" x="334.49" y="212.05" width="44.14" height="44.14" transform="translate(713.12 468.23) rotate(180)"/><rect class="be80ab26-9d09-4584-9e6e-e0a64d6bf546" x="183.6" y="212.05" width="44.14" height="44.14" transform="translate(411.33 468.23) rotate(180)"/><rect class="be80ab26-9d09-4584-9e6e-e0a64d6bf546" x="230.35" y="212.05" width="11.03" height="44.14" transform="translate(471.74 468.23) rotate(180)"/><rect class="be80ab26-9d09-4584-9e6e-e0a64d6bf546" x="243.73" y="212.05" width="88.28" height="44.14" transform="translate(575.74 468.23) rotate(180)"/><line class="df02e7c9-f2ff-4734-af54-e81c8a4f33b1" x1="358.42" y1="224.96" x2="359.37" y2="220.47"/><line class="df02e7c9-f2ff-4734-af54-e81c8a4f33b1" x1="353.75" y1="220.47" x2="354.71" y2="224.96"/><line class="df02e7c9-f2ff-4734-af54-e81c8a4f33b1" x1="354.71" y1="224.96" x2="353.75" y2="220.47"/><line class="df02e7c9-f2ff-4734-af54-e81c8a4f33b1" x1="348.59" y1="222.72" x2="351.29" y2="226.44"/><line class="df02e7c9-f2ff-4734-af54-e81c8a4f33b1" x1="344.74" y1="226.87" x2="348.72" y2="229.17"/><line class="df02e7c9-f2ff-4734-af54-e81c8a4f33b1" x1="351.29" y1="226.44" x2="348.59" y2="222.72"/><line class="df02e7c9-f2ff-4734-af54-e81c8a4f33b1" x1="348.72" y1="229.17" x2="344.74" y2="226.87"/><line class="df02e7c9-f2ff-4734-af54-e81c8a4f33b1" x1="342.88" y1="232.26" x2="347.45" y2="232.74"/><line class="df02e7c9-f2ff-4734-af54-e81c8a4f33b1" x1="365.38" y1="236.56" x2="369.76" y2="237.98"/><line class="df02e7c9-f2ff-4734-af54-e81c8a4f33b1" x1="370.25" y1="232.26" x2="365.67" y2="232.74"/><line class="df02e7c9-f2ff-4734-af54-e81c8a4f33b1" x1="364.4" y1="229.17" x2="368.39" y2="226.87"/><line class="df02e7c9-f2ff-4734-af54-e81c8a4f33b1" x1="364.54" y1="222.72" x2="361.83" y2="226.44"/><line class="df02e7c9-f2ff-4734-af54-e81c8a4f33b1" x1="359.37" y1="220.47" x2="358.42" y2="224.96"/><line class="df02e7c9-f2ff-4734-af54-e81c8a4f33b1" x1="361.83" y1="226.44" x2="364.54" y2="222.72"/><line class="df02e7c9-f2ff-4734-af54-e81c8a4f33b1" x1="365.67" y1="232.74" x2="370.25" y2="232.26"/><line class="df02e7c9-f2ff-4734-af54-e81c8a4f33b1" x1="368.39" y1="226.87" x2="364.4" y2="229.17"/><line class="df02e7c9-f2ff-4734-af54-e81c8a4f33b1" x1="360.4" y1="242.33" x2="362.27" y2="246.53"/><line class="df02e7c9-f2ff-4734-af54-e81c8a4f33b1" x1="366.95" y1="243.04" x2="363.53" y2="239.97"/><line class="df02e7c9-f2ff-4734-af54-e81c8a4f33b1" x1="362.27" y1="246.53" x2="360.4" y2="242.33"/><line class="df02e7c9-f2ff-4734-af54-e81c8a4f33b1" x1="356.56" y1="243.17" x2="356.56" y2="247.76"/><line class="df02e7c9-f2ff-4734-af54-e81c8a4f33b1" x1="369.76" y1="237.98" x2="365.38" y2="236.56"/><line class="df02e7c9-f2ff-4734-af54-e81c8a4f33b1" x1="363.53" y1="239.97" x2="366.95" y2="243.04"/><line class="df02e7c9-f2ff-4734-af54-e81c8a4f33b1" x1="356.56" y1="247.76" x2="356.56" y2="243.17"/><line class="df02e7c9-f2ff-4734-af54-e81c8a4f33b1" x1="352.72" y1="242.33" x2="350.85" y2="246.53"/><line class="df02e7c9-f2ff-4734-af54-e81c8a4f33b1" x1="347.74" y1="236.56" x2="343.36" y2="237.98"/><line class="df02e7c9-f2ff-4734-af54-e81c8a4f33b1" x1="346.18" y1="243.04" x2="349.59" y2="239.97"/><line class="df02e7c9-f2ff-4734-af54-e81c8a4f33b1" x1="350.85" y1="246.53" x2="352.72" y2="242.33"/><line class="df02e7c9-f2ff-4734-af54-e81c8a4f33b1" x1="349.59" y1="239.97" x2="346.18" y2="243.04"/><circle class="084d83e4-283a-4878-b7b8-283abb05439f" cx="356.56" cy="234.12" r="11.03"/><line class="5d29d869-a473-4216-b245-3b85870acb41" x1="365.17" y1="227.22" x2="358.47" y2="232.59"/><circle class="4022f969-7f24-49d6-9f7a-f03a4c80005a" cx="268.22" cy="234.12" r="13.79"/><path class="52fc917c-11bc-45fc-b41e-b7830e3fe90f" d="M272.27,234.95l6.75,1.43a11,11,0,0,0-5.19-11.77l-3.45,6"/><path class="52fc917c-11bc-45fc-b41e-b7830e3fe90f" d="M267.05,230.15l-2.13-6.56a11,11,0,0,0-7.74,10.53h6.9"/><path class="52fc917c-11bc-45fc-b41e-b7830e3fe90f" d="M265.52,237.25l-4.62,5.13a11,11,0,0,0,7.31,2.77,11.18,11.18,0,0,0,1.28-.08,11,11,0,0,0,4.33-1.46l-3.45-6"/><circle class="4022f969-7f24-49d6-9f7a-f03a4c80005a" cx="307.53" cy="234.12" r="13.79" transform="translate(-57.08 362.36) rotate(-56.66)"/><path class="52fc917c-11bc-45fc-b41e-b7830e3fe90f" d="M310.45,237l4.85,4.91a11,11,0,0,0,2.13-12.68l-6.17,3.1"/><path class="52fc917c-11bc-45fc-b41e-b7830e3fe90f" d="M308.74,230.16l1.83-6.66a11,11,0,0,0-12.25,4.55l5.76,3.79"/><path class="52fc917c-11bc-45fc-b41e-b7830e3fe90f" d="M303.55,235.25,296.88,237a11,11,0,0,0,4.58,6.34,11.18,11.18,0,0,0,1.11.64,11,11,0,0,0,4.42,1.16l.4-6.89"/><circle class="084d83e4-283a-4878-b7b8-283abb05439f" cx="205.67" cy="234.43" r="13.79"/><path class="aad59c72-f3de-458c-9bf6-6cfdd50d5254" d="M191.87,235.27h3.48c2.1.46,2.86,2.52,4.08,4,.38.53.84,1.15,1.45,1.07a2.18,2.18,0,0,0,.94-.28,2.83,2.83,0,0,0,.72-.61,8.52,8.52,0,0,0,.8-1.15c1.2-2,1.51-4.37,2.27-6.59.53-1.38,1.3-3.36,2.9-3.29.84,0,1.38,1.07,1.91,1.91,1.07,1.76,1.76,4,3.81,4.85.62,0,1.19,0,1.72,0h3.48"/><line class="62114587-7e98-4400-9ecf-ddd164f0ec5a" x1="235.87" y1="218.12" x2="235.87" y2="250.12"/><polygon class="719d3e7e-c3ad-40f4-b2c5-50c6669b30e9" points="519.78 110 519.78 139.82 519.78 209.89 714.82 209.89 714.82 139.82 714.82 110 519.78 110"/><circle class="5c03f346-2ef0-497d-ad08-0c5bd71a46f2" cx="617.08" cy="109.69" r="70"/><path class="29f50520-564c-4216-937f-149cc5550731" d="M614,109.69h0a8,8,0,0,1,8-8h54.58a60,60,0,1,0,0,16H622A8,8,0,0,1,614,109.69Z"/><path class="7233acde-698a-43ea-8433-e982a7c8dda7" d="M676.54,101.69H622a8,8,0,0,0-8,8h0a8,8,0,0,0,8,8h54.58a60.4,60.4,0,0,0,0-16Z"/><circle class="bfa2bd26-2d21-4eb9-a6b6-ecdeb9392c41" cx="621.96" cy="109.69" r="8"/><path class="29f50520-564c-4216-937f-149cc5550731" d="M759.58,109.58v4h-1.71v-4l-3.76-6.51H756l1.89,3.39.83,1.58.83-1.58,1.87-3.39h1.92Z"/><path class="29f50520-564c-4216-937f-149cc5550731" d="M770,106.57a5,5,0,0,1,0,6.11,4.44,4.44,0,0,1-5.86,0,5,5,0,0,1,0-6.11,4.44,4.44,0,0,1,5.86,0Zm-4.6,1a4,4,0,0,0,0,4.18,2.29,2.29,0,0,0,3.35,0,4,4,0,0,0,0-4.16,2.29,2.29,0,0,0-3.35,0Z"/><path class="29f50520-564c-4216-937f-149cc5550731" d="M780.45,105.63v8h-1.52l-.06-1.3a3.48,3.48,0,0,1-4.94.74,2.79,2.79,0,0,1-.79-2.18v-5.26h1.71v4.82a2.15,2.15,0,0,0,.42,1.5,1.62,1.62,0,0,0,1.23.44,2.21,2.21,0,0,0,1.61-.62,2.43,2.43,0,0,0,.63-1.82v-4.32Z"/><path class="29f50520-564c-4216-937f-149cc5550731" d="M788.11,105.63l-.27,1.57a2.07,2.07,0,0,0-1-.21,1.86,1.86,0,0,0-1,.27,2.08,2.08,0,0,0-.75.82,2.71,2.71,0,0,0-.3,1.31v4.24H783.1v-8h1.46l.14,1.44a2.5,2.5,0,0,1,2.53-1.6A2,2,0,0,1,788.11,105.63Z"/><path class="719d3e7e-c3ad-40f4-b2c5-50c6669b30e9" d="M801.84,105.63v8h-1.52l-.06-1.3a3.48,3.48,0,0,1-4.94.74,2.79,2.79,0,0,1-.79-2.18v-5.26h1.71v4.82a2.15,2.15,0,0,0,.42,1.5,1.62,1.62,0,0,0,1.23.44,2.21,2.21,0,0,0,1.61-.62,2.43,2.43,0,0,0,.63-1.82v-4.32Z"/><path class="719d3e7e-c3ad-40f4-b2c5-50c6669b30e9" d="M809.5,105.63l-.27,1.57a2.07,2.07,0,0,0-1-.21,1.86,1.86,0,0,0-1,.27,2.08,2.08,0,0,0-.75.82,2.71,2.71,0,0,0-.3,1.31v4.24H804.5v-8H806l.14,1.44a2.5,2.5,0,0,1,2.53-1.6A2,2,0,0,1,809.5,105.63Z"/><path class="719d3e7e-c3ad-40f4-b2c5-50c6669b30e9" d="M818,106.58a4.58,4.58,0,0,1,.94,3.06,4.52,4.52,0,0,1-.94,3,3.24,3.24,0,0,1-2.59,1.1,3,3,0,0,1-1.66-.45,2.78,2.78,0,0,1-1.06-1.2l-.08,1.49h-1.5V102h1.71v4.88a2.66,2.66,0,0,1,1-1.06,3.08,3.08,0,0,1,1.54-.38A3.22,3.22,0,0,1,818,106.58Zm-1.35,5.1a3.21,3.21,0,0,0,.58-2,3.18,3.18,0,0,0-.58-2,2.18,2.18,0,0,0-3.18-.07,2.87,2.87,0,0,0-.65,1.81v.61a2.89,2.89,0,0,0,.65,1.82,2,2,0,0,0,1.56.66A2,2,0,0,0,816.66,111.67Z"/><path class="719d3e7e-c3ad-40f4-b2c5-50c6669b30e9" d="M821.2,104a1,1,0,0,1-.3-.79,1,1,0,0,1,.3-.78,1.23,1.23,0,0,1,.85-.27,1.2,1.2,0,0,1,.84.27,1,1,0,0,1,.3.78,1,1,0,0,1-.3.79,1.17,1.17,0,0,1-.84.28A1.2,1.2,0,0,1,821.2,104Zm1.7,9.62h-1.71v-8h1.71Z"/><path class="719d3e7e-c3ad-40f4-b2c5-50c6669b30e9" d="M830.75,113.1a2.85,2.85,0,0,1-.94.5,3.75,3.75,0,0,1-1.19.18,2.68,2.68,0,0,1-1.77-.55,2.15,2.15,0,0,1-.68-1.72V107h-1.52v-1.34h1.52v-1.87l1.71-.48v2.35h2.8V107h-2.8v4.26a1.09,1.09,0,0,0,.31.86,1.24,1.24,0,0,0,.86.28,1.86,1.86,0,0,0,1.3-.51Z"/><rect class="be80ab26-9d09-4584-9e6e-e0a64d6bf546" x="670.68" y="212.05" width="44.14" height="44.14" transform="translate(1385.5 468.23) rotate(180)"/><rect class="be80ab26-9d09-4584-9e6e-e0a64d6bf546" x="519.78" y="212.05" width="44.14" height="44.14" transform="translate(1083.7 468.23) rotate(180)"/><rect class="be80ab26-9d09-4584-9e6e-e0a64d6bf546" x="566.54" y="212.05" width="11.03" height="44.14" transform="translate(1144.12 468.23) rotate(180)"/><rect class="be80ab26-9d09-4584-9e6e-e0a64d6bf546" x="579.92" y="212.05" width="88.28" height="44.14" transform="translate(1248.12 468.23) rotate(180)"/><line class="df02e7c9-f2ff-4734-af54-e81c8a4f33b1" x1="694.6" y1="224.96" x2="695.56" y2="220.47"/><line class="df02e7c9-f2ff-4734-af54-e81c8a4f33b1" x1="689.94" y1="220.47" x2="690.89" y2="224.96"/><line class="df02e7c9-f2ff-4734-af54-e81c8a4f33b1" x1="690.89" y1="224.96" x2="689.94" y2="220.47"/><line class="df02e7c9-f2ff-4734-af54-e81c8a4f33b1" x1="684.78" y1="222.72" x2="687.48" y2="226.44"/><line class="df02e7c9-f2ff-4734-af54-e81c8a4f33b1" x1="680.92" y1="226.87" x2="684.91" y2="229.17"/><line class="df02e7c9-f2ff-4734-af54-e81c8a4f33b1" x1="687.48" y1="226.44" x2="684.78" y2="222.72"/><line class="df02e7c9-f2ff-4734-af54-e81c8a4f33b1" x1="684.91" y1="229.17" x2="680.92" y2="226.87"/><line class="df02e7c9-f2ff-4734-af54-e81c8a4f33b1" x1="679.07" y1="232.26" x2="683.64" y2="232.74"/><line class="df02e7c9-f2ff-4734-af54-e81c8a4f33b1" x1="701.57" y1="236.56" x2="705.95" y2="237.98"/><line class="df02e7c9-f2ff-4734-af54-e81c8a4f33b1" x1="706.43" y1="232.26" x2="701.86" y2="232.74"/><line class="df02e7c9-f2ff-4734-af54-e81c8a4f33b1" x1="700.59" y1="229.17" x2="704.57" y2="226.87"/><line class="df02e7c9-f2ff-4734-af54-e81c8a4f33b1" x1="700.72" y1="222.72" x2="698.02" y2="226.44"/><line class="df02e7c9-f2ff-4734-af54-e81c8a4f33b1" x1="695.56" y1="220.47" x2="694.6" y2="224.96"/><line class="df02e7c9-f2ff-4734-af54-e81c8a4f33b1" x1="698.02" y1="226.44" x2="700.72" y2="222.72"/><line class="df02e7c9-f2ff-4734-af54-e81c8a4f33b1" x1="701.86" y1="232.74" x2="706.43" y2="232.26"/><line class="df02e7c9-f2ff-4734-af54-e81c8a4f33b1" x1="704.57" y1="226.87" x2="700.59" y2="229.17"/><line class="df02e7c9-f2ff-4734-af54-e81c8a4f33b1" x1="696.59" y1="242.33" x2="698.46" y2="246.53"/><line class="df02e7c9-f2ff-4734-af54-e81c8a4f33b1" x1="703.13" y1="243.04" x2="699.72" y2="239.97"/><line class="df02e7c9-f2ff-4734-af54-e81c8a4f33b1" x1="698.46" y1="246.53" x2="696.59" y2="242.33"/><line class="df02e7c9-f2ff-4734-af54-e81c8a4f33b1" x1="692.75" y1="243.17" x2="692.75" y2="247.76"/><line class="df02e7c9-f2ff-4734-af54-e81c8a4f33b1" x1="705.95" y1="237.98" x2="701.57" y2="236.56"/><line class="df02e7c9-f2ff-4734-af54-e81c8a4f33b1" x1="699.72" y1="239.97" x2="703.13" y2="243.04"/><line class="df02e7c9-f2ff-4734-af54-e81c8a4f33b1" x1="692.75" y1="247.76" x2="692.75" y2="243.17"/><line class="df02e7c9-f2ff-4734-af54-e81c8a4f33b1" x1="688.91" y1="242.33" x2="687.04" y2="246.53"/><line class="df02e7c9-f2ff-4734-af54-e81c8a4f33b1" x1="683.93" y1="236.56" x2="679.55" y2="237.98"/><line class="df02e7c9-f2ff-4734-af54-e81c8a4f33b1" x1="682.36" y1="243.04" x2="685.78" y2="239.97"/><line class="df02e7c9-f2ff-4734-af54-e81c8a4f33b1" x1="687.04" y1="246.53" x2="688.91" y2="242.33"/><line class="df02e7c9-f2ff-4734-af54-e81c8a4f33b1" x1="685.78" y1="239.97" x2="682.36" y2="243.04"/><circle class="084d83e4-283a-4878-b7b8-283abb05439f" cx="692.75" cy="234.12" r="11.03"/><line class="5d29d869-a473-4216-b245-3b85870acb41" x1="701.36" y1="227.22" x2="694.66" y2="232.59"/><circle class="4022f969-7f24-49d6-9f7a-f03a4c80005a" cx="604.4" cy="234.12" r="13.79"/><path class="52fc917c-11bc-45fc-b41e-b7830e3fe90f" d="M608.46,234.95l6.75,1.43A11,11,0,0,0,610,224.61l-3.45,6"/><path class="52fc917c-11bc-45fc-b41e-b7830e3fe90f" d="M603.24,230.15l-2.13-6.56a11,11,0,0,0-7.74,10.53h6.9"/><path class="52fc917c-11bc-45fc-b41e-b7830e3fe90f" d="M601.71,237.25l-4.62,5.13a11,11,0,0,0,7.31,2.77,11.18,11.18,0,0,0,1.28-.08,11,11,0,0,0,4.33-1.46l-3.45-6"/><circle class="4022f969-7f24-49d6-9f7a-f03a4c80005a" cx="643.71" cy="234.12" r="13.79" transform="translate(94.34 643.21) rotate(-56.66)"/><path class="52fc917c-11bc-45fc-b41e-b7830e3fe90f" d="M646.64,237l4.85,4.91a11,11,0,0,0,2.13-12.68l-6.17,3.1"/><path class="52fc917c-11bc-45fc-b41e-b7830e3fe90f" d="M644.92,230.16l1.83-6.66a11,11,0,0,0-12.25,4.55l5.76,3.79"/><path class="52fc917c-11bc-45fc-b41e-b7830e3fe90f" d="M639.74,235.25,633.06,237a11,11,0,0,0,4.58,6.34,11.18,11.18,0,0,0,1.11.64,11,11,0,0,0,4.42,1.16l.4-6.89"/><circle class="084d83e4-283a-4878-b7b8-283abb05439f" cx="541.85" cy="234.43" r="13.79"/><path class="aad59c72-f3de-458c-9bf6-6cfdd50d5254" d="M528.06,235.27h3.48c2.1.46,2.86,2.52,4.08,4,.38.53.84,1.15,1.45,1.07a2.18,2.18,0,0,0,.94-.28,2.83,2.83,0,0,0,.72-.61,8.52,8.52,0,0,0,.8-1.15c1.2-2,1.51-4.37,2.27-6.59.53-1.38,1.3-3.36,2.9-3.29.84,0,1.38,1.07,1.91,1.91,1.07,1.76,1.76,4,3.81,4.85.62,0,1.19,0,1.72,0h3.48"/><line class="62114587-7e98-4400-9ecf-ddd164f0ec5a" x1="572.06" y1="218.12" x2="572.06" y2="250.12"/></g></svg>