<svg xmlns="http://www.w3.org/2000/svg" xmlns:xlink="http://www.w3.org/1999/xlink" viewBox="0 0 316 533">
  <defs>
    <linearGradient id="linear-gradient" x1="6405" y1="2263" x2="6405" y2="2147" gradientTransform="translate(-6248 -1730)" gradientUnits="userSpaceOnUse">
      <stop offset="0" stop-color="#fff" stop-opacity="0"/>
      <stop offset="0.41" stop-color="#fff" stop-opacity="0.8"/>
      <stop offset="0.66" stop-color="#fff"/>
    </linearGradient>
  </defs>
  <title>Artboard 6</title>
  <g style="isolation: isolate">
    <g id="network-diagram">
      <text transform="translate(253.2 88.9)" font-size="16" font-family="WorkSans-Regular, Work Sans">=</text>
      <text transform="translate(253.2 201.6)" font-size="16" font-family="WorkSans-Regular, Work Sans">=</text>
      <text transform="translate(253.2 324.9)" font-size="16" font-family="WorkSans-Regular, Work Sans">=</text>
      <circle cx="204.6" cy="85" r="8" fill="#b7edb9"/>
      <text transform="translate(152.1 88.9)" font-size="16" font-family="WorkSans-Regular, Work Sans">+</text>
      <text transform="translate(201.7 62) rotate(-26.8)" font-size="10" font-family="WorkSans-Regular, Work Sans" letter-spacing="-0.01em">M<tspan x="8.5" y="0" letter-spacing="0em">essage</tspan></text>
      <circle cx="204.6" cy="197.6" r="8" fill="#6fdc74"/>
      <text transform="translate(152.1 201.6)" font-size="16" font-family="WorkSans-Regular, Work Sans">+</text>
      <text transform="translate(201.7 179) rotate(-26.8)" font-size="10" font-family="WorkSans-Regular, Work Sans">File</text>
      <circle cx="204.6" cy="321" r="8" fill="#ffe19f"/>
      <text transform="translate(152.1 324.9)" font-size="16" font-family="WorkSans-Regular, Work Sans">+</text>
      <text transform="translate(201.7 302) rotate(-26.8)" font-size="10" font-family="WorkSans-Regular, Work Sans" letter-spacing="-0.01em">L<tspan x="5.8" y="0" letter-spacing="0em">ogin</tspan></text>
      <text transform="translate(253.2 466.9)" font-size="16" font-family="WorkSans-Regular, Work Sans">=</text>
      <circle cx="204.6" cy="463" r="8" fill="#ffc440"/>
      <text transform="translate(152.1 466.9)" font-size="16" font-family="WorkSans-Regular, Work Sans">+</text>
      <text transform="translate(201.7 446) rotate(-26.8)" font-size="10" font-family="WorkSans-Regular, Work Sans">Ping</text>
      <g>
        <path d="M116.6,193.5a29.9,29.9,0,0,1-11.5,23.6" fill="none" stroke="#b7edb9" stroke-miterlimit="10" stroke-width="10"/>
        <g id="urbit">
          <g>
            <circle cx="86.6" cy="193.5" r="22" fill="#a59493"/>
            <path d="M86.6,217A23.5,23.5,0,1,1,110,193.5,23.5,23.5,0,0,1,86.6,217Zm0-45.6a22.1,22.1,0,1,0,22,22.1A22.1,22.1,0,0,0,86.6,171.4Z" fill="#e0e0e0"/>
            <g>
              <path d="M106.2,180.7a23.3,23.3,0,0,0-30.3-8.1l-.7-1.4a25,25,0,0,1,32.3,8.7Z" fill="#c7c7c7"/>
              <path d="M70.9,176l-1-1.1a24,24,0,0,1,5.3-3.7l.7,1.4A21,21,0,0,0,70.9,176Z" fill="#6d6d6d"/>
              <path d="M63.9,187.1l-1.4-.4a24.1,24.1,0,0,1,7.4-11.8l1,1.1A24.5,24.5,0,0,0,63.9,187.1Z" fill="#d8c7c7"/>
              <path d="M76.7,216.5a25,25,0,0,1-15.1-23,25.9,25.9,0,0,1,.9-6.8l1.4.4a27.4,27.4,0,0,0-.8,6.4,23.5,23.5,0,0,0,14.2,21.6Z" fill="#847f7f"/>
              <path d="M86.6,218.5a25.4,25.4,0,0,1-9.9-2l.6-1.4a24.1,24.1,0,0,0,9.3,1.9,23.3,23.3,0,0,0,18.1-8.6l1.1,1A24.7,24.7,0,0,1,86.6,218.5Z" fill="#b7b0ae"/>
              <path d="M105.8,209.4l-1.1-1a23.6,23.6,0,0,0,5.3-14.9,23.1,23.1,0,0,0-3.8-12.8l1.3-.8a24.2,24.2,0,0,1,4.1,13.6A25.1,25.1,0,0,1,105.8,209.4Z" fill="#969696"/>
            </g>
            <circle id="overlay" cx="86.6" cy="193.5" r="25" fill="#ee3124" style="mix-blend-mode: overlay"/>
            <g>
              <path d="M108.4,190.6a21.1,21.1,0,0,1,0,5.8" fill="#626262"/>
              <path d="M108.4,190.6H86.6a2.9,2.9,0,1,0,0,5.8h21.8a21.1,21.1,0,0,0,0-5.8Z" fill="#626262"/>
            </g>
            <circle cx="86.6" cy="193.5" r="2.9" fill="#1c1c1c"/>
          </g>
        </g>
      </g>
      <g id="urbit-2" data-name="urbit">
        <g>
          <circle cx="86.6" cy="85" r="22" fill="#a59493"/>
          <path d="M86.6,108.5A23.5,23.5,0,1,1,110,85,23.5,23.5,0,0,1,86.6,108.5Zm0-45.6a22.1,22.1,0,1,0,22,22.1A22.1,22.1,0,0,0,86.6,62.9Z" fill="#e0e0e0"/>
          <g>
            <path d="M106.2,72.2a23.3,23.3,0,0,0-30.3-8.1l-.7-1.4a25,25,0,0,1,32.3,8.7Z" fill="#c7c7c7"/>
            <path d="M70.9,67.5l-1-1.1a24,24,0,0,1,5.3-3.7l.7,1.4A21,21,0,0,0,70.9,67.5Z" fill="#6d6d6d"/>
            <path d="M63.9,78.6l-1.4-.4a24.1,24.1,0,0,1,7.4-11.8l1,1.1A24.5,24.5,0,0,0,63.9,78.6Z" fill="#d8c7c7"/>
            <path d="M76.7,108A25,25,0,0,1,61.6,85a25.9,25.9,0,0,1,.9-6.8l1.4.4a27.4,27.4,0,0,0-.8,6.4,23.5,23.5,0,0,0,14.2,21.6Z" fill="#847f7f"/>
            <path d="M86.6,110a25.4,25.4,0,0,1-9.9-2l.6-1.4a24.1,24.1,0,0,0,9.3,1.9,23.3,23.3,0,0,0,18.1-8.6l1.1,1A24.7,24.7,0,0,1,86.6,110Z" fill="#b7b0ae"/>
            <path d="M105.8,100.9l-1.1-1A23.6,23.6,0,0,0,110,85a23.1,23.1,0,0,0-3.8-12.8l1.3-.8A24.2,24.2,0,0,1,111.6,85,25.1,25.1,0,0,1,105.8,100.9Z" fill="#969696"/>
          </g>
          <circle id="overlay-2" data-name="overlay" cx="86.6" cy="85" r="25" fill="#ee3124" style="mix-blend-mode: overlay"/>
          <g>
            <path d="M108.4,82.1a21.1,21.1,0,0,1,0,5.8" fill="#444"/>
            <path d="M108.4,82.1H86.6a2.9,2.9,0,1,0,0,5.8h21.8a21.1,21.1,0,0,0,0-5.8Z" fill="#626262"/>
          </g>
          <circle cx="86.6" cy="85" r="2.9" fill="#1c1c1c"/>
        </g>
      </g>
      <g>
        <path d="M116.6,326a29.9,29.9,0,0,1-11.5,23.6" fill="none" stroke="#b7edb9" stroke-miterlimit="10" stroke-width="10"/>
        <path d="M58.5,336.7A29,29,0,0,1,56.6,326a29.6,29.6,0,0,1,9-21.4" fill="none" stroke="#6fdc74" stroke-miterlimit="10" stroke-width="10"/>
        <path d="M75.8,354a30.1,30.1,0,0,1-17.3-17.3" fill="none" stroke="#6fdc74" stroke-miterlimit="10" stroke-width="10"/>
        <path d="M105.1,349.6A30,30,0,0,1,75.8,354" fill="none" stroke="#6fdc74" stroke-miterlimit="10" stroke-width="10"/>
        <g id="urbit-3" data-name="urbit">
          <g>
            <circle cx="86.6" cy="326" r="22" fill="#a59493"/>
            <path d="M86.6,349.5A23.5,23.5,0,1,1,110,326,23.5,23.5,0,0,1,86.6,349.5Zm0-45.6a22.1,22.1,0,1,0,22,22.1A22.1,22.1,0,0,0,86.6,303.9Z" fill="#e0e0e0"/>
            <g>
              <path d="M106.2,313.2a23.3,23.3,0,0,0-30.3-8.1l-.7-1.4a25,25,0,0,1,32.3,8.7Z" fill="#c7c7c7"/>
              <path d="M70.9,308.5l-1-1.1a24,24,0,0,1,5.3-3.7l.7,1.4A21,21,0,0,0,70.9,308.5Z" fill="#6d6d6d"/>
              <path d="M63.9,319.6l-1.4-.4a24.1,24.1,0,0,1,7.4-11.8l1,1.1A24.5,24.5,0,0,0,63.9,319.6Z" fill="#d8c7c7"/>
              <path d="M76.7,349a25,25,0,0,1-15.1-23,25.9,25.9,0,0,1,.9-6.8l1.4.4a27.4,27.4,0,0,0-.8,6.4,23.5,23.5,0,0,0,14.2,21.6Z" fill="#847f7f"/>
              <path d="M86.6,351a25.4,25.4,0,0,1-9.9-2l.6-1.4a24.1,24.1,0,0,0,9.3,1.9,23.3,23.3,0,0,0,18.1-8.6l1.1,1A24.7,24.7,0,0,1,86.6,351Z" fill="#b7b0ae"/>
              <path d="M105.8,341.9l-1.1-1A23.6,23.6,0,0,0,110,326a23.1,23.1,0,0,0-3.8-12.8l1.3-.8a24.2,24.2,0,0,1,4.1,13.6A25.1,25.1,0,0,1,105.8,341.9Z" fill="#969696"/>
            </g>
            <circle id="overlay-3" data-name="overlay" cx="86.6" cy="326" r="25" fill="#ee3124" style="mix-blend-mode: overlay"/>
            <g>
              <path d="M108.4,323.1a21.1,21.1,0,0,1,0,5.8" fill="#626262"/>
              <path d="M108.4,323.1H86.6a2.9,2.9,0,1,0,0,5.8h21.8a21.1,21.1,0,0,0,0-5.8Z" fill="#626262"/>
            </g>
            <circle cx="86.6" cy="326" r="2.9" fill="#1c1c1c"/>
          </g>
        </g>
      </g>
      <g>
        <path d="M116.6,460a29.9,29.9,0,0,1-11.5,23.6" fill="none" stroke="#b7edb9" stroke-miterlimit="10" stroke-width="10"/>
        <path d="M101.6,434a29.5,29.5,0,0,1,10.9,11" fill="none" stroke="#ffe19f" stroke-miterlimit="10" stroke-width="10"/>
        <path d="M86.6,430a30.8,30.8,0,0,1,15,4" fill="none" stroke="#ffe19f" stroke-miterlimit="10" stroke-width="10"/>
        <path d="M65.6,438.6a29.9,29.9,0,0,1,21-8.6" fill="none" stroke="#ffe19f" stroke-miterlimit="10" stroke-width="10"/>
        <path d="M58.5,470.7A29,29,0,0,1,56.6,460a29.6,29.6,0,0,1,9-21.4" fill="none" stroke="#6fdc74" stroke-miterlimit="10" stroke-width="10"/>
        <path d="M75.8,488a30.1,30.1,0,0,1-17.3-17.3" fill="none" stroke="#6fdc74" stroke-miterlimit="10" stroke-width="10"/>
        <path d="M105.1,483.6A30,30,0,0,1,75.8,488" fill="none" stroke="#6fdc74" stroke-miterlimit="10" stroke-width="10"/>
        <g id="urbit-4" data-name="urbit">
          <g>
            <circle cx="86.6" cy="460" r="22" fill="#a59493"/>
            <path d="M86.6,483.5A23.5,23.5,0,1,1,110,460,23.5,23.5,0,0,1,86.6,483.5Zm0-45.6a22.1,22.1,0,1,0,22,22.1A22.1,22.1,0,0,0,86.6,437.9Z" fill="#e0e0e0"/>
            <g>
              <path d="M106.2,447.2a23.3,23.3,0,0,0-30.3-8.1l-.7-1.4a25,25,0,0,1,32.3,8.7Z" fill="#c7c7c7"/>
              <path d="M70.9,442.5l-1-1.1a24,24,0,0,1,5.3-3.7l.7,1.4A21,21,0,0,0,70.9,442.5Z" fill="#6d6d6d"/>
              <path d="M63.9,453.6l-1.4-.4a24.1,24.1,0,0,1,7.4-11.8l1,1.1A24.5,24.5,0,0,0,63.9,453.6Z" fill="#d8c7c7"/>
              <path d="M76.7,483a25,25,0,0,1-15.1-23,25.9,25.9,0,0,1,.9-6.8l1.4.4a27.4,27.4,0,0,0-.8,6.4,23.5,23.5,0,0,0,14.2,21.6Z" fill="#847f7f"/>
              <path d="M86.6,485a25.4,25.4,0,0,1-9.9-2l.6-1.4a24.1,24.1,0,0,0,9.3,1.9,23.3,23.3,0,0,0,18.1-8.6l1.1,1A24.7,24.7,0,0,1,86.6,485Z" fill="#b7b0ae"/>
              <path d="M105.8,475.9l-1.1-1A23.6,23.6,0,0,0,110,460a23.1,23.1,0,0,0-3.8-12.8l1.3-.8a24.2,24.2,0,0,1,4.1,13.6A25.1,25.1,0,0,1,105.8,475.9Z" fill="#969696"/>
            </g>
            <g>
              <path d="M108.4,457.1a21.1,21.1,0,0,1,0,5.8" fill="#444"/>
              <path d="M108.4,457.1H86.6a2.9,2.9,0,1,0,0,5.8h21.8a21.1,21.1,0,0,0,0-5.8Z" fill="#444"/>
            </g>
            <circle cx="86.6" cy="460" r="2.9" fill="#1c1c1c"/>
          </g>
          <circle id="overlay-4" data-name="overlay" cx="86.6" cy="460" r="25" fill="#dc3826" style="mix-blend-mode: overlay"/>
        </g>
      </g>
      <rect id="fade" y="417" width="314" height="116" transform="translate(314 950) rotate(180)" fill="url(#linear-gradient)"/>
    </g>
  </g>
</svg>
