<svg xmlns="http://www.w3.org/2000/svg" viewBox="0 0 156 156"><title>program</title><g id="network-diagram"><rect x="12" y="29.9222" width="132" height="107.72414"/><rect x="12" y="23.35366" width="132" height="6.56854" fill="#b3b3b3"/><path d="M22.04557,84.81494a5.08334,5.08334,0,0,0,2.99414,1.09473c1.27149,0,1.94825-.57959,1.94825-1.40039,0-1.9961-5.10352-1.64209-5.10352-4.44287,0-1.35254,1.04688-2.27,2.6084-2.43116v-2.125h.96582v2.10889a3.90677,3.90677,0,0,1,2.55957,1.22363l-.709.77246a3.40167,3.40167,0,0,0-2.36621-.91748c-1.07813,0-1.77051.51514-1.77051,1.33643,0,1.77051,5.11914,1.43262,5.11914,4.37842,0,1.38428-1.14258,2.38232-2.833,2.55957v2.35058h-.96582V86.98828a5.66739,5.66739,0,0,1-3.0752-1.25537Z" fill="#fff"/><path d="M36.58171,76.12207h1.1914L32.49284,90.12744H31.30143Z" fill="#fff"/><path d="M42.08659,86.68262h-.04883l-.1123.86914H40.863V76.08984h1.32031v3.12305l-.04883,1.51318h.04883a3.84674,3.84674,0,0,1,2.624-1.19091c2.1084,0,3.252,1.56152,3.252,3.97607,0,2.67236-1.67481,4.23389-3.542,4.23389A3.93514,3.93514,0,0,1,42.08659,86.68262Zm4.60352-3.15528c0-1.72265-.64356-2.88183-2.20508-2.88183a3.41316,3.41316,0,0,0-2.30176,1.17529v3.896a3.37574,3.37574,0,0,0,2.125.91748C45.67643,86.63428,46.69011,85.459,46.69011,83.52734Z" fill="#fff"/><path d="M54.112,80.80664H50.47429V79.728h4.958v7.82373H54.112Zm-.54687-3.751a1.063,1.063,0,1,1,1.0625,1.03028A1.01542,1.01542,0,0,1,53.56511,77.05566Z" fill="#fff"/><path d="M60.18034,79.728h1.09473l.1123,1.33642h.06445a4.01648,4.01648,0,0,1,2.94629-1.52929c1.85157,0,2.7041,1.09423,2.7041,3.15478v4.86182H65.78288V82.86719c0-1.481-.51563-2.18946-1.80371-2.18946-.9336,0-1.56153.4668-2.47852,1.417v5.457H60.18034Z" fill="#fff"/><path d="M75.2155,76.12207h1.1914L71.12663,90.12744H69.93522Z" fill="#fff"/><path d="M79.23893,84.58984V79.728h1.33594V84.4126c0,1.481.5,2.18945,1.80371,2.18945a3.1276,3.1276,0,0,0,2.43067-1.44873V79.728h1.32031v7.82373h-1.0791l-.11231-1.36817H84.8737a3.8092,3.8092,0,0,1-2.91406,1.56153C80.09245,87.74512,79.23893,86.65039,79.23893,84.58984Z" fill="#fff"/><path d="M90.00846,79.728h1.09473l.11231,1.85156h.04882a4.158,4.158,0,0,1,3.49317-2.04443,3.285,3.285,0,0,1,1.54492.32177L95.99675,81a3.62739,3.62739,0,0,0-1.44922-.27393c-1.17481,0-2.28516.61182-3.21973,2.2378v4.58789H90.00846Z" fill="#fff"/><path d="M100.03776,86.68262h-.04883l-.1123.86914h-1.0625V76.08984h1.32031v3.12305l-.04883,1.51318h.04883a3.84675,3.84675,0,0,1,2.624-1.19091c2.1084,0,3.252,1.56152,3.252,3.97607,0,2.67236-1.67481,4.23389-3.542,4.23389A3.93517,3.93517,0,0,1,100.03776,86.68262Zm4.60352-3.15528c0-1.72265-.64356-2.88183-2.20508-2.88183a3.41318,3.41318,0,0,0-2.30176,1.17529v3.896a3.37576,3.37576,0,0,0,2.125.91748C103.62761,86.63428,104.64128,85.459,104.64128,83.52734Z" fill="#fff"/><path d="M112.06218,80.80664h-3.6377V79.728h4.958v7.82373h-1.32031Zm-.54688-3.751a1.063,1.063,0,1,1,1.0625,1.03028A1.01542,1.01542,0,0,1,111.5153,77.05566Z" fill="#fff"/><path d="M119.94987,84.50928V80.80664h-2.20605v-.99805l2.2539-.08056.17774-2.51123h1.09472V79.728h3.84668v1.07861h-3.84668v3.71875c0,1.40039.4668,2.14111,1.9795,2.14111a5.165,5.165,0,0,0,1.88378-.35449l.28907.96631a6.828,6.828,0,0,1-2.44629.4668C120.69011,87.74512,119.94987,86.44092,119.94987,84.50928Z" fill="#fff"/></g></svg>