<svg xmlns="http://www.w3.org/2000/svg" viewBox="0 0 207 207"><title>server</title><g id="network-diagram"><rect x="127.2995" y="151.42379" width="25.19077" height="25.19077" transform="translate(279.78976 328.03835) rotate(180)" fill="#4d4d4d"/><rect x="41.17856" y="151.42379" width="25.19077" height="25.19077" transform="translate(107.54788 328.03835) rotate(180)" fill="#4d4d4d"/><rect x="67.86503" y="151.42379" width="6.29769" height="25.19077" transform="translate(142.02775 328.03835) rotate(180)" fill="#4d4d4d"/><rect x="75.50098" y="151.42379" width="50.38154" height="25.19077" transform="translate(201.3835 328.03835) rotate(180)" fill="#4d4d4d"/><line x1="140.95411" y1="158.79602" x2="141.49973" y2="156.22913" fill="none" stroke="#fff" stroke-miterlimit="10" stroke-width="0.57073"/><line x1="138.29003" y1="156.22913" x2="138.83566" y2="158.79602" fill="none" stroke="#fff" stroke-miterlimit="10" stroke-width="0.57073"/><line x1="138.83566" y1="158.79602" x2="138.29003" y2="156.22913" fill="none" stroke="#fff" stroke-miterlimit="10" stroke-width="0.57073"/><line x1="135.34407" y1="157.51571" x2="136.88621" y2="159.63826" fill="none" stroke="#fff" stroke-miterlimit="10" stroke-width="0.57073"/><line x1="133.14631" y1="159.88311" x2="135.41954" y2="161.19558" fill="none" stroke="#fff" stroke-miterlimit="10" stroke-width="0.57073"/><line x1="136.88621" y1="159.63826" x2="135.34407" y2="157.51571" fill="none" stroke="#fff" stroke-miterlimit="10" stroke-width="0.57073"/><line x1="135.41954" y1="161.19558" x2="133.14631" y2="159.88311" fill="none" stroke="#fff" stroke-miterlimit="10" stroke-width="0.57073"/><line x1="132.08548" y1="162.95861" x2="134.69517" y2="163.23286" fill="none" stroke="#fff" stroke-miterlimit="10" stroke-width="0.57073"/><line x1="144.93033" y1="165.4155" x2="147.42759" y2="166.22687" fill="none" stroke="#fff" stroke-miterlimit="10" stroke-width="0.57073"/><line x1="147.70428" y1="162.95854" x2="145.09453" y2="163.23286" fill="none" stroke="#fff" stroke-miterlimit="10" stroke-width="0.57073"/><line x1="144.37022" y1="161.19552" x2="146.64339" y2="159.88311" fill="none" stroke="#fff" stroke-miterlimit="10" stroke-width="0.57073"/><line x1="144.44569" y1="157.51571" x2="142.90356" y2="159.63826" fill="none" stroke="#fff" stroke-miterlimit="10" stroke-width="0.57073"/><line x1="141.49973" y1="156.22913" x2="140.95411" y2="158.79602" fill="none" stroke="#fff" stroke-miterlimit="10" stroke-width="0.57073"/><line x1="142.90356" y1="159.63826" x2="144.44569" y2="157.51571" fill="none" stroke="#fff" stroke-miterlimit="10" stroke-width="0.57073"/><line x1="145.09453" y1="163.23286" x2="147.70428" y2="162.95854" fill="none" stroke="#fff" stroke-miterlimit="10" stroke-width="0.57073"/><line x1="146.64339" y1="159.88311" x2="144.37022" y2="161.19552" fill="none" stroke="#fff" stroke-miterlimit="10" stroke-width="0.57073"/><line x1="142.08784" y1="168.70484" x2="143.15507" y2="171.10197" fill="none" stroke="#fff" stroke-miterlimit="10" stroke-width="0.57073"/><line x1="145.82126" y1="169.11549" x2="143.87136" y2="167.35983" fill="none" stroke="#fff" stroke-miterlimit="10" stroke-width="0.57073"/><line x1="143.15507" y1="171.10197" x2="142.08784" y2="168.70484" fill="none" stroke="#fff" stroke-miterlimit="10" stroke-width="0.57073"/><line x1="139.89488" y1="169.18519" x2="139.89488" y2="171.80923" fill="none" stroke="#fff" stroke-miterlimit="10" stroke-width="0.57073"/><line x1="147.42759" y1="166.22687" x2="144.93033" y2="165.4155" fill="none" stroke="#fff" stroke-miterlimit="10" stroke-width="0.57073"/><line x1="143.87136" y1="167.35983" x2="145.82126" y2="169.11549" fill="none" stroke="#fff" stroke-miterlimit="10" stroke-width="0.57073"/><line x1="139.89488" y1="171.80923" x2="139.89488" y2="169.18519" fill="none" stroke="#fff" stroke-miterlimit="10" stroke-width="0.57073"/><line x1="137.70193" y1="168.70484" x2="136.63463" y2="171.10197" fill="none" stroke="#fff" stroke-miterlimit="10" stroke-width="0.57073"/><line x1="134.85937" y1="165.4155" x2="132.36217" y2="166.22687" fill="none" stroke="#fff" stroke-miterlimit="10" stroke-width="0.57073"/><line x1="133.9685" y1="169.11549" x2="135.91834" y2="167.35983" fill="none" stroke="#fff" stroke-miterlimit="10" stroke-width="0.57073"/><line x1="136.63463" y1="171.10197" x2="137.70193" y2="168.70484" fill="none" stroke="#fff" stroke-miterlimit="10" stroke-width="0.57073"/><line x1="135.91834" y1="167.35983" x2="133.9685" y2="169.11549" fill="none" stroke="#fff" stroke-miterlimit="10" stroke-width="0.57073"/><circle cx="139.89488" cy="164.01918" r="6.29769" fill="#e6e6e6"/><line x1="144.80864" y1="160.08217" x2="140.98355" y2="163.14691" fill="none" stroke="#5e6367" stroke-miterlimit="10" stroke-width="1.14146"/><circle cx="89.47376" cy="164.01918" r="7.87212" fill="#f2f2f2"/><path d="M91.78727,164.49566l3.85034.81842a6.30371,6.30371,0,0,0-2.96134-6.71713l-1.96926,3.411" fill="#666"/><path d="M88.80978,161.75379l-1.21725-3.74633a6.30223,6.30223,0,0,0-4.41646,6.01172h3.93606" fill="#666"/><path d="M87.93493,165.80824l-2.63423,2.9256a6.266,6.266,0,0,0,4.17306,1.583,6.3815,6.3815,0,0,0,.7294-.04336,6.254,6.254,0,0,0,2.47311-.83211l-1.96926-3.411" fill="#666"/><circle cx="111.90885" cy="164.01918" r="7.87212" fill="#f2f2f2"/><path d="M113.57973,165.68877l2.76684,2.79991a6.3037,6.3037,0,0,0,1.21784-7.23921l-3.51988,1.76729" fill="#666"/><path d="M112.59923,161.7617l1.0421-3.79878a6.30217,6.30217,0,0,0-6.9937,2.595l3.28826,2.1633" fill="#666"/><path d="M109.64,164.668l-3.80863.9963a6.26591,6.26591,0,0,0,2.61621,3.61606,6.3799,6.3799,0,0,0,.63319.36466,6.25384,6.25384,0,0,0,2.52342.66409l.22956-3.93194" fill="#666"/><circle cx="53.77394" cy="164.19902" r="7.87212" fill="#e6e6e6"/><path d="M45.90183,164.67752h1.16624c.243,0,.51832,0,.82068.0005,1.19681.26118,1.63294,1.43872,2.33075,2.311.21806.30529.47974.65419.82864.61058a1.242,1.242,0,0,0,.53466-.15992,1.61326,1.61326,0,0,0,.41352-.3489,4.86523,4.86523,0,0,0,.45928-.65871,19.19214,19.19214,0,0,0,1.29654-3.76072c.30529-.785.74141-1.919,1.65728-1.87535.47974,0,.785.61058,1.09032,1.09032.61058,1.00309,1.0031,2.26786,2.17627,2.7661.35141.02489.68076.02512.98312.02512h1.98693" fill="none" stroke="#4d4d4d" stroke-miterlimit="10" stroke-width="0.57073"/><line x1="71.01387" y1="154.88752" x2="71.01387" y2="173.15083" fill="none" stroke="#b3b3b3" stroke-miterlimit="10" stroke-width="1.71219"/><polygon points="41.17 35.54 41.17 72.803 41.179 72.803 58.304 72.803 60.016 72.803 77.141 72.803 78.853 72.803 95.978 72.803 97.691 72.803 114.816 72.803 116.528 72.803 133.653 72.803 152.49 72.803 152.49 53.455 152.49 35.82 152.49 35.54 41.17 35.54" fill="#4330fc"/><polygon points="133.653 74.515 116.528 74.515 114.816 74.515 97.691 74.515 95.978 74.515 78.853 74.515 77.141 74.515 60.016 74.515 58.304 74.515 41.179 74.515 41.17 74.515 41.17 92.15 41.179 92.15 58.304 92.15 60.016 92.15 77.141 92.15 78.853 92.15 95.978 92.15 97.691 92.15 114.816 92.15 116.528 92.15 133.653 92.15 152.49 92.15 152.49 74.515 133.653 74.515" fill="#4330fc"/><polygon points="41.179 113.21 41.179 130.845 41.179 132.557 41.179 141.124 41.179 150.192 58.304 150.192 58.304 141.124 58.304 132.557 58.304 130.845 58.304 113.21 58.304 93.862 41.179 93.862 41.179 113.21" fill="#4330fc"/><polygon points="95.978 111.497 95.978 93.862 95.959 93.862 78.853 93.862 60.016 93.862 60.016 113.21 60.016 130.845 60.016 132.557 60.016 150.192 60.016 150.256 95.959 150.256 95.959 150.192 95.978 150.192 95.978 132.557 95.959 132.557 95.959 130.845 95.978 130.845 95.978 113.21 95.959 113.21 95.959 111.497 95.978 111.497" fill="#4330fc"/><polygon points="97.672 93.754 97.672 150.192 97.691 150.192 114.816 150.192 116.528 150.192 133.653 150.192 152.49 150.192 152.49 130.845 152.49 113.21 152.49 111.497 152.49 93.862 152.49 93.754 97.672 93.754" fill="#4330fc"/><path d="M37.36792,112.306c-18.62671.24768-33.62451,11.6496-33.62451,25.67865s14.9978,25.43085,33.62427,25.67865" fill="none" stroke="#000" stroke-miterlimit="10" stroke-width="0.57073" stroke-dasharray="1.71219 3.42437"/><polygon points="35.391 110.064 35.017 110.497 37.15 112.333 35.162 114.326 35.567 114.729 37.987 112.301 35.391 110.064"/><polygon points="35.391 165.905 35.017 165.473 37.15 163.636 35.162 161.643 35.567 161.24 37.987 163.668 35.391 165.905"/><path d="M37.36938,48.10443c-18.62744.53131-33.626,25.04572-33.626,55.2088,0,30.16211,14.99756,54.67584,33.624,55.2088" fill="none" stroke="#000" stroke-miterlimit="10" stroke-width="0.57073" stroke-dasharray="1.71219 3.42437"/><polygon points="35.356 45.898 34.99 46.336 37.15 48.14 35.194 50.163 35.605 50.56 37.987 48.095 35.356 45.898"/><polygon points="35.356 160.728 34.99 160.29 37.15 158.487 35.194 156.464 35.605 156.067 37.987 158.531 35.356 160.728"/><path d="M37.36768,53.5235c-11.0608.23651-19.927,6.78662-19.927,14.83233s8.86621,14.59577,19.927,14.83234" fill="none" stroke="#000" stroke-miterlimit="10" stroke-width="0.57073" stroke-dasharray="1.71219 3.42437"/><polygon points="35.394 51.276 35.02 51.708 37.15 53.547 35.159 55.537 35.564 55.94 37.987 53.516 35.394 51.276"/><polygon points="35.394 85.436 35.02 85.004 37.15 83.165 35.159 81.175 35.564 80.771 37.987 83.195 35.394 85.436"/><path d="M121.31006,69.45276c-.1272-12.4289-3.9751-60.732-19.40137-60.45154C93.865,9.14746,87.314,17.871,87.07642,28.92529" fill="none" stroke="#000" stroke-miterlimit="10" stroke-width="0.57073" stroke-dasharray="1.71219 3.42437"/><polygon points="123.565 67.485 123.135 67.11 121.287 69.232 119.305 67.233 118.9 67.636 121.314 70.069 123.565 67.485"/><polygon points="84.829 26.954 85.26 26.58 87.1 28.71 89.09 26.72 89.493 27.124 87.069 29.548 84.829 26.954"/><path d="M156.17993,52.9483c18.40186.12451,23.39136,5.79425,23.39136,13.696,0,7.90234-5.5061,13.57171-23.92236,13.69543" fill="none" stroke="#000" stroke-miterlimit="10" stroke-width="0.57073" stroke-dasharray="1.71219 3.42437"/><polygon points="157.971 55.38 158.377 54.978 156.394 52.981 158.531 51.149 158.159 50.716 155.557 52.947 157.971 55.38"/><polygon points="157.444 77.909 157.85 78.311 155.867 80.308 158.004 82.139 157.632 82.573 155.03 80.341 157.444 77.909"/><path d="M156.17969,86.05194c18.4021.21076,23.3916,9.76892,23.3916,15.97748,0,22.02325-59.14917,21.6972-78.71826,21.68787" fill="none" stroke="#000" stroke-miterlimit="10" stroke-width="0.57073" stroke-dasharray="1.71219 3.42437"/><polygon points="157.99 88.463 158.392 88.058 156.395 86.076 158.517 84.228 158.142 83.798 155.557 86.049 157.99 88.463"/><polygon points="102.72 121.351 103.115 121.764 101.078 123.706 103.163 125.596 102.78 126.019 100.24 123.717 102.72 121.351"/><path d="M156.179,127.14661c18.34545.34155,20.79833,15.822,22.25073,24.53619.5708,3.42438,3.18554,28.30231-11.98535,40.52173-19.42334,15.64484-56.83472,9.18573-57.63062-9.65943" fill="none" stroke="#000" stroke-miterlimit="10" stroke-width="0.57073" stroke-dasharray="1.71219 3.42437"/><polygon points="157.939 129.605 158.35 129.208 156.394 127.186 158.554 125.382 158.188 124.944 155.557 127.141 157.939 129.605"/><polygon points="111.329 184.246 110.943 184.668 108.869 182.767 107.124 184.975 106.676 184.621 108.802 181.931 111.329 184.246"/><path d="M156.22,47.24231c29.897.27051,48.46338,20.11322,48.46338,40.51892,0,24.37341-18.56641,44.80627-48.46338,45.08466" fill="none" stroke="#000" stroke-miterlimit="10" stroke-width="0.57073" stroke-dasharray="1.71219 3.42437"/><polygon points="158.012 49.676 158.418 49.274 156.438 47.275 158.577 45.445 158.205 45.012 155.601 47.24 158.012 49.676"/><polygon points="158.009 130.409 158.416 130.811 156.438 132.812 158.579 134.639 158.208 135.073 155.601 132.848 158.009 130.409"/></g></svg>