<svg xmlns="http://www.w3.org/2000/svg" viewBox="0 0 207 297"><title>standard-code</title><g id="network-diagram"><path d="M9.39941,283.627a4.86383,4.86383,0,0,1,0,6.11231,4.02612,4.02612,0,0,1-3.01562,1.104,4.02466,4.02466,0,0,1-3.01563-1.104,4.86387,4.86387,0,0,1,0-6.11231,4.02466,4.02466,0,0,1,3.01563-1.104A4.02612,4.02612,0,0,1,9.39941,283.627Zm-4.43164,1.16016a3.92522,3.92522,0,0,0,0,3.792,1.67982,1.67982,0,0,0,1.416.63184,1.681,1.681,0,0,0,1.416-.63184,3.92515,3.92515,0,0,0,0-3.792,1.681,1.681,0,0,0-1.416-.63184A1.67982,1.67982,0,0,0,4.96777,284.78711Z" fill="#4d4d4d"/><path d="M19.22363,283.2749a2.83686,2.83686,0,0,1,.792,2.16016v5.248h-2.1914V286.0752q0-1.82447-1.42481-1.82422a1.76306,1.76306,0,0,0-1.30371.54394,2.28617,2.28617,0,0,0-.53613,1.66406v4.22413H12.36816v-8h1.96778l.08008,1.42382a2.66668,2.66668,0,0,1,1.08789-1.18359,3.24375,3.24375,0,0,1,1.63183-.40039A2.90708,2.90708,0,0,1,19.22363,283.2749Z" fill="#4d4d4d"/><path d="M35.02344,289.291l-.16016,1.32812a2.29689,2.29689,0,0,1-1.04.22412q-1.53516,0-1.83984-1.20019a2.183,2.183,0,0,1-1.08789.896,4.55316,4.55316,0,0,1-1.74414.3042,2.83659,2.83659,0,0,1-1.82422-.52832,1.83624,1.83624,0,0,1-.65527-1.52q0-1.9519,3.12011-2.52783l1.91992-.36816v-.38379a1.40768,1.40768,0,0,0-.36035-1.01612,1.31974,1.31974,0,0,0-1-.376,2.07592,2.07592,0,0,0-1.20019.31982,1.68631,1.68631,0,0,0-.63965,1.04l-1.74414-.73584a2.65114,2.65114,0,0,1,1.15234-1.63184,4.16743,4.16743,0,0,1,2.33594-.59228,4.26716,4.26716,0,0,1,2.67187.74414,2.61364,2.61364,0,0,1,.96,2.2002v3.27978a.63666.63666,0,0,0,.14355.46387.61279.61279,0,0,0,.44824.144A1.88444,1.88444,0,0,0,35.02344,289.291Zm-3.89551-.27979a1.04926,1.04926,0,0,0,.584-.936v-.832L30,287.627a2.01318,2.01318,0,0,0-.80859.34424.73263.73263,0,0,0-.26368.6001.71666.71666,0,0,0,.24024.584,1.01852,1.01852,0,0,0,.67187.19971A2.492,2.492,0,0,0,31.12793,289.01123Z" fill="#4d4d4d"/><path d="M47.15137,283.16309a3.18954,3.18954,0,0,1,1.20019,1.71191l-2.04883.73633q-.2871-1.45607-1.55175-1.45606a1.72587,1.72587,0,0,0-1.44825.648,3.04355,3.04355,0,0,0-.5039,1.896,2.935,2.935,0,0,0,.51269,1.87988,1.729,1.729,0,0,0,1.42383.63184,1.53854,1.53854,0,0,0,1.66406-1.42383l1.9834.64014a2.87541,2.87541,0,0,1-1.1914,1.75976,4.086,4.086,0,0,1-6.584-3.5039,4.17534,4.17534,0,0,1,1.08008-3.064,4.02075,4.02075,0,0,1,3-1.09619A4.13141,4.13141,0,0,1,47.15137,283.16309Z" fill="#4d4d4d"/><path d="M52.28711,288.13916a1.3874,1.3874,0,0,0,.16894.7998.72416.72416,0,0,0,.61524.22413,2.429,2.429,0,0,0,.47266-.04,3.52581,3.52581,0,0,0,.47167-.13575l-.19238,1.52a2.08231,2.08231,0,0,1-.67187.24756,3.937,3.937,0,0,1-.81543.08838,2.2472,2.2472,0,0,1-1.7041-.56836,2.58288,2.58288,0,0,1-.53614-1.81592V279.1792h2.19141Z" fill="#4d4d4d"/><path d="M61.92676,283.627a4.86383,4.86383,0,0,1,0,6.11231,4.67066,4.67066,0,0,1-6.03125,0,4.86383,4.86383,0,0,1,0-6.11231,4.67066,4.67066,0,0,1,6.03125,0Zm-4.43164,1.16016a3.92522,3.92522,0,0,0,0,3.792,1.90263,1.90263,0,0,0,2.832,0,3.92522,3.92522,0,0,0,0-3.792,1.90263,1.90263,0,0,0-2.832,0Z" fill="#4d4d4d"/><path d="M72.49512,282.68311v8H70.543l-.08008-1.376a2.846,2.846,0,0,1-2.7998,1.53613,2.92287,2.92287,0,0,1-2.05567-.69629,2.80339,2.80339,0,0,1-.76074-2.168v-5.29589h2.19238V287.419a1.92764,1.92764,0,0,0,.35254,1.312,1.33915,1.33915,0,0,0,1.04.38427,1.79989,1.79989,0,0,0,1.35156-.53613,2.2251,2.2251,0,0,0,.51953-1.60791v-4.28808Z" fill="#4d4d4d"/><path d="M82.543,279.1792v11.50391H80.59082l-.09668-1.47217a2.77013,2.77013,0,0,1-1.04785,1.19238,2.91683,2.91683,0,0,1-1.5918.43994,3.08988,3.08988,0,0,1-2.51172-1.09619,4.62671,4.62671,0,0,1-.91211-3.04785,4.68891,4.68891,0,0,1,.91211-3.07227,3.08128,3.08128,0,0,1,2.51172-1.104,2.83319,2.83319,0,0,1,1.4961.39209,2.67186,2.67186,0,0,1,1,1.064v-4.7998Zm-2.68848,9.35986a2.797,2.797,0,0,0,.4961-1.77588V286.603a2.805,2.805,0,0,0-.4961-1.76807,1.78963,1.78963,0,0,0-2.73633.0083,3.65975,3.65975,0,0,0,0,3.67969,1.79685,1.79685,0,0,0,2.73633.01611Z" fill="#4d4d4d"/><path d="M89.15039,289.30713l1.28027-1.312a1.89642,1.89642,0,0,0,.91993.96777,3.48222,3.48222,0,0,0,1.47949.28027,2.48431,2.48431,0,0,0,1.08789-.19189.58523.58523,0,0,0,.38476-.52832q0-.27173-.36035-.46387a4.97667,4.97667,0,0,0-1.24023-.36816,6.22071,6.22071,0,0,1-2.584-.96778,1.97613,1.97613,0,0,1-.74414-1.624,2.15964,2.15964,0,0,1,.416-1.26416,2.87619,2.87619,0,0,1,1.23242-.95166,4.80866,4.80866,0,0,1,1.95215-.36035,4.96486,4.96486,0,0,1,2.17578.4082,3.44734,3.44734,0,0,1,1.3916,1.28809l-1.35937,1.15185a2.39469,2.39469,0,0,0-.87207-.94384,2.55023,2.55023,0,0,0-1.30371-.3042,2.11155,2.11155,0,0,0-1.04883.22412.64161.64161,0,0,0-.3916.54394.64977.64977,0,0,0,.38379.56006,4.8,4.8,0,0,0,1.36035.416,6.1567,6.1567,0,0,1,2.47168.91992,1.88746,1.88746,0,0,1,.72851,1.57617,2.10961,2.10961,0,0,1-.95215,1.79981,4.58556,4.58556,0,0,1-2.69629.68017Q90.19043,290.84326,89.15039,289.30713Z" fill="#4d4d4d"/><path d="M105.62988,287.51514H99.9668a1.865,1.865,0,0,0,2,1.6958,2.26525,2.26525,0,0,0,1.13574-.25586,1.37164,1.37164,0,0,0,.624-.73584l1.792.65576a2.83427,2.83427,0,0,1-1.28808,1.46387,4.59661,4.59661,0,0,1-2.26367.50439,3.79514,3.79514,0,0,1-4.16016-4.16015,4.23415,4.23415,0,0,1,1.05566-3.064,3.94039,3.94039,0,0,1,2.97559-1.09619,3.71538,3.71538,0,0,1,2.85645,1.07226,4.31744,4.31744,0,0,1,1,3.05567A5.63966,5.63966,0,0,1,105.62988,287.51514Zm-5.0791-2.91211a2.31717,2.31717,0,0,0-.60058,1.376h3.72851a2.31724,2.31724,0,0,0-.6084-1.36767,1.704,1.704,0,0,0-1.248-.47217A1.73521,1.73521,0,0,0,100.55078,284.603Z" fill="#4d4d4d"/><path d="M112.92578,282.69922l-.27148,1.91992a2.01734,2.01734,0,0,0-2.36035.32813,2.15064,2.15064,0,0,0-.56836,1.59179v4.144h-2.19141v-8h1.90332l.14453,1.56787a2.451,2.451,0,0,1,2.47949-1.728A1.74341,1.74341,0,0,1,112.92578,282.69922Z" fill="#4d4d4d"/><path d="M121.80566,282.68311l-3.04,8H116.2373l-3.03906-8h2.35156l1.96778,6.46386,2.0166-6.46386Z" fill="#4d4d4d"/><path d="M130.31738,287.51514H124.6543a1.865,1.865,0,0,0,2,1.6958,2.26525,2.26525,0,0,0,1.13574-.25586,1.37164,1.37164,0,0,0,.624-.73584l1.792.65576a2.83427,2.83427,0,0,1-1.28808,1.46387,4.59661,4.59661,0,0,1-2.26367.50439,3.79514,3.79514,0,0,1-4.16016-4.16015,4.23415,4.23415,0,0,1,1.05566-3.064,3.94039,3.94039,0,0,1,2.97559-1.09619,3.71538,3.71538,0,0,1,2.85645,1.07226,4.31744,4.31744,0,0,1,1,3.05567A5.63966,5.63966,0,0,1,130.31738,287.51514Zm-5.0791-2.91211a2.31717,2.31717,0,0,0-.60058,1.376h3.72851a2.31724,2.31724,0,0,0-.6084-1.36767,1.704,1.704,0,0,0-1.248-.47217A1.73521,1.73521,0,0,0,125.23828,284.603Z" fill="#4d4d4d"/><path d="M137.61328,282.69922l-.27148,1.91992a2.01734,2.01734,0,0,0-2.36035.32813,2.15064,2.15064,0,0,0-.56836,1.59179v4.144h-2.19141v-8H134.125l.14453,1.56787a2.451,2.451,0,0,1,2.47949-1.728A1.74341,1.74341,0,0,1,137.61328,282.69922Z" fill="#4d4d4d"/><path d="M8.53418,268.73145v3.95214h-2.208v-3.95214L2.582,262.12354H4.93359l1.69629,3.15185.79981,1.66406.8164-1.66406,1.69532-3.15185h2.33691Z" fill="#ee3124"/><path d="M18.75,265.62744a4.86383,4.86383,0,0,1,0,6.11231,4.02615,4.02615,0,0,1-3.01562,1.104,4.02466,4.02466,0,0,1-3.01563-1.104,4.86383,4.86383,0,0,1,0-6.11231,4.02466,4.02466,0,0,1,3.01563-1.104A4.02615,4.02615,0,0,1,18.75,265.62744Zm-4.43164,1.16016a3.92522,3.92522,0,0,0,0,3.792,1.6798,1.6798,0,0,0,1.416.63184,1.681,1.681,0,0,0,1.416-.63184,3.92522,3.92522,0,0,0,0-3.792,1.681,1.681,0,0,0-1.416-.63184A1.6798,1.6798,0,0,0,14.31836,266.7876Z" fill="#ee3124"/><path d="M29.31738,264.68359v8H27.36523l-.08007-1.376a2.846,2.846,0,0,1-2.79981,1.53613,2.92284,2.92284,0,0,1-2.05566-.69629,2.80337,2.80337,0,0,1-.76074-2.168v-5.2959h2.19238v4.73584a1.92767,1.92767,0,0,0,.35254,1.312,1.33912,1.33912,0,0,0,1.04.38427,1.79989,1.79989,0,0,0,1.35156-.53613,2.22512,2.22512,0,0,0,.51953-1.60791v-4.28809Z" fill="#ee3124"/><path d="M37.01367,264.69971l-.27148,1.91992a2.01731,2.01731,0,0,0-2.36035.32812,2.15066,2.15066,0,0,0-.56836,1.5918v4.144H31.62207v-8h1.90332l.14453,1.56787a2.451,2.451,0,0,1,2.47949-1.728A1.74341,1.74341,0,0,1,37.01367,264.69971Z" fill="#ee3124"/><path d="M50.582,264.68359v8H48.62988l-.08008-1.376a2.846,2.846,0,0,1-2.7998,1.53613,2.92284,2.92284,0,0,1-2.05566-.69629,2.80338,2.80338,0,0,1-.76075-2.168v-5.2959H45.126v4.73584a1.92762,1.92762,0,0,0,.35254,1.312,1.33911,1.33911,0,0,0,1.04.38427,1.7999,1.7999,0,0,0,1.35157-.53613,2.22512,2.22512,0,0,0,.51953-1.60791v-4.28809Z" fill="#ee3124"/><path d="M58.27734,264.69971l-.27148,1.91992a2.01731,2.01731,0,0,0-2.36035.32812,2.15066,2.15066,0,0,0-.56836,1.5918v4.144H52.88574v-8h1.90332l.14453,1.56787a2.451,2.451,0,0,1,2.4795-1.728A1.74339,1.74339,0,0,1,58.27734,264.69971Z" fill="#ee3124"/><path d="M66.85352,265.62744a4.69435,4.69435,0,0,1,.9121,3.07227,4.63207,4.63207,0,0,1-.9121,3.04785,3.09118,3.09118,0,0,1-2.51172,1.09619,2.85345,2.85345,0,0,1-1.64063-.47217,2.91915,2.91915,0,0,1-1.04785-1.272l-.08008,1.584H59.6377v-11.5039h2.1914v4.832a2.69731,2.69731,0,0,1,1-1.08789,2.824,2.824,0,0,1,1.5127-.40039A3.08258,3.08258,0,0,1,66.85352,265.62744Zm-1.77637,4.896a3.65975,3.65975,0,0,0,0-3.67969,1.6592,1.6592,0,0,0-1.3916-.64014,1.63651,1.63651,0,0,0-1.36035.63184,2.79894,2.79894,0,0,0-.4961,1.76807v.16015a2.762,2.762,0,0,0,.50391,1.77588,1.80525,1.80525,0,0,0,2.74414-.01611Z" fill="#ee3124"/><path d="M69.44531,262.36377q0-1.18432,1.35938-1.18408,1.35938,0,1.36035,1.18408,0,1.16822-1.36035,1.168Q69.44531,263.53174,69.44531,262.36377Zm2.44727,10.31982H69.70117v-8h2.19141Z" fill="#ee3124"/><path d="M79.70117,272.1875a2.87667,2.87667,0,0,1-.96777.48,4.22746,4.22746,0,0,1-1.22363.17627q-2.67334,0-2.67188-2.416v-4.1123H73.38184v-1.63184h1.45605v-1.83984l2.19141-.6084v2.44824h2.59179v1.63184H77.0293v3.76025a.97609.97609,0,0,0,1.10449,1.104,1.84414,1.84414,0,0,0,1.23144-.44824Z" fill="#ee3124"/><path d="M83.34961,270.75537a2.15813,2.15813,0,0,1,.39941,1.352,3.22831,3.22831,0,0,1-.51953,1.78418,3.39887,3.39887,0,0,1-1.52832,1.25586l-1.00781-.76807a3.79049,3.79049,0,0,0,1.18359-.70361,2.116,2.116,0,0,0,.64063-.97607l-.06446-.04834a.62747.62747,0,0,1-.46386.16015,1.15072,1.15072,0,0,1-1.168-1.23193,1.28316,1.28316,0,0,1,.38379-.98389,1.41262,1.41262,0,0,1,1.00781-.36035A1.35212,1.35212,0,0,1,83.34961,270.75537Z" fill="#ee3124"/><path d="M89.9248,271.30762l1.28028-1.312a1.8964,1.8964,0,0,0,.91992.96777,3.48222,3.48222,0,0,0,1.47949.28027,2.48428,2.48428,0,0,0,1.08789-.19189.58523.58523,0,0,0,.38477-.52832q0-.27173-.36035-.46387a4.97678,4.97678,0,0,0-1.24024-.36816,6.2206,6.2206,0,0,1-2.584-.96778,1.9761,1.9761,0,0,1-.74414-1.624,2.15962,2.15962,0,0,1,.416-1.26416,2.87623,2.87623,0,0,1,1.23243-.95166,4.80841,4.80841,0,0,1,1.95214-.36035,4.96483,4.96483,0,0,1,2.17578.4082,3.44743,3.44743,0,0,1,1.39161,1.28809L95.957,267.37158a2.39479,2.39479,0,0,0-.87207-.94385,2.55033,2.55033,0,0,0-1.30371-.30419,2.11155,2.11155,0,0,0-1.04883.22412.64161.64161,0,0,0-.3916.54394.64977.64977,0,0,0,.38379.56006,4.80039,4.80039,0,0,0,1.36035.416,6.1567,6.1567,0,0,1,2.47168.91992,1.88746,1.88746,0,0,1,.72852,1.57617,2.1096,2.1096,0,0,1-.95215,1.7998,4.58553,4.58553,0,0,1-2.69629.68018Q90.96485,272.84375,89.9248,271.30762Z" fill="#40c800"/><path d="M104.5166,272.1875a2.87667,2.87667,0,0,1-.96777.48,4.22746,4.22746,0,0,1-1.22363.17627q-2.67334,0-2.67188-2.416v-4.1123h-1.456v-1.63184h1.456v-1.83984l2.19141-.6084v2.44824h2.59179v1.63184h-2.59179v3.76025a.97609.97609,0,0,0,1.10449,1.104,1.84414,1.84414,0,0,0,1.23144-.44824Z" fill="#40c800"/><path d="M113.82812,271.2915l-.16015,1.32813a2.29689,2.29689,0,0,1-1.04.22412q-1.53516,0-1.83984-1.2002a2.183,2.183,0,0,1-1.08789.896,4.55318,4.55318,0,0,1-1.74415.3042,2.83656,2.83656,0,0,1-1.82421-.52832,1.83625,1.83625,0,0,1-.65528-1.52q0-1.9519,3.12012-2.52783l1.91992-.36817v-.38379a1.40771,1.40771,0,0,0-.36035-1.01611,1.31971,1.31971,0,0,0-1-.376,2.076,2.076,0,0,0-1.2002.31982,1.68626,1.68626,0,0,0-.63964,1.04l-1.74414-.73584a2.651,2.651,0,0,1,1.15234-1.63184,4.16743,4.16743,0,0,1,2.33594-.59228,4.26712,4.26712,0,0,1,2.67187.74414,2.61362,2.61362,0,0,1,.96,2.20019v3.27979a.63662.63662,0,0,0,.14356.46387.61279.61279,0,0,0,.44824.144A1.884,1.884,0,0,0,113.82812,271.2915Zm-3.8955-.27978a1.04927,1.04927,0,0,0,.584-.936v-.832l-1.71191.38379a2.0133,2.0133,0,0,0-.8086.34424.73265.73265,0,0,0-.26367.6001.71666.71666,0,0,0,.24024.584,1.01852,1.01852,0,0,0,.67187.19971A2.492,2.492,0,0,0,109.93262,271.01172Z" fill="#40c800"/><path d="M122.01172,265.27539a2.83686,2.83686,0,0,1,.792,2.16016v5.248H120.6123v-4.60791q0-1.82445-1.4248-1.82422a1.76306,1.76306,0,0,0-1.30371.54395,2.28617,2.28617,0,0,0-.53613,1.66406v4.22412h-2.19141v-8H117.124l.08008,1.42383a2.66673,2.66673,0,0,1,1.08789-1.18359,3.24378,3.24378,0,0,1,1.63184-.40039A2.907,2.907,0,0,1,122.01172,265.27539Z" fill="#40c800"/><path d="M132.80469,261.17969v11.5039h-1.95215l-.09668-1.47216a2.7702,2.7702,0,0,1-1.04785,1.19238,2.91683,2.91683,0,0,1-1.5918.43994,3.08985,3.08985,0,0,1-2.51172-1.09619,4.62666,4.62666,0,0,1-.91211-3.04785,4.68886,4.68886,0,0,1,.91211-3.07227,3.08126,3.08126,0,0,1,2.51172-1.104,2.83316,2.83316,0,0,1,1.49609.39209,2.67172,2.67172,0,0,1,1,1.064v-4.7998Zm-2.68848,9.35986a2.797,2.797,0,0,0,.49609-1.77588v-.16015a2.805,2.805,0,0,0-.49609-1.76807,1.78963,1.78963,0,0,0-2.73633.0083,3.65975,3.65975,0,0,0,0,3.67969,1.79686,1.79686,0,0,0,2.73633.01611Z" fill="#40c800"/><path d="M142.97949,271.2915l-.16015,1.32813a2.29689,2.29689,0,0,1-1.04.22412q-1.53516,0-1.83985-1.2002a2.18294,2.18294,0,0,1-1.08789.896,4.55309,4.55309,0,0,1-1.74414.3042,2.83659,2.83659,0,0,1-1.82422-.52832,1.83624,1.83624,0,0,1-.65527-1.52q0-1.9519,3.12012-2.52783l1.91992-.36817v-.38379a1.40771,1.40771,0,0,0-.36035-1.01611,1.31972,1.31972,0,0,0-1-.376,2.07594,2.07594,0,0,0-1.2002.31982,1.68631,1.68631,0,0,0-.63965,1.04l-1.74414-.73584a2.65109,2.65109,0,0,1,1.15235-1.63184,4.1674,4.1674,0,0,1,2.33593-.59228,4.26713,4.26713,0,0,1,2.67188.74414,2.61362,2.61362,0,0,1,.96,2.20019v3.27979a.63666.63666,0,0,0,.14355.46387.61282.61282,0,0,0,.44825.144A1.884,1.884,0,0,0,142.97949,271.2915Zm-3.89551-.27978a1.04926,1.04926,0,0,0,.584-.936v-.832l-1.71192.38379a2.01318,2.01318,0,0,0-.80859.34424.73265.73265,0,0,0-.26367.6001.71668.71668,0,0,0,.24023.584,1.01853,1.01853,0,0,0,.67188.19971A2.492,2.492,0,0,0,139.084,271.01172Z" fill="#40c800"/><path d="M149.7002,264.69971l-.27149,1.91992a2.01731,2.01731,0,0,0-2.36035.32812,2.15066,2.15066,0,0,0-.56836,1.5918v4.144h-2.19141v-8h1.90332l.14454,1.56787a2.451,2.451,0,0,1,2.47949-1.728A1.74346,1.74346,0,0,1,149.7002,264.69971Z" fill="#40c800"/><path d="M158.64453,261.17969v11.5039h-1.95215l-.09668-1.47216a2.77013,2.77013,0,0,1-1.04785,1.19238,2.91683,2.91683,0,0,1-1.5918.43994,3.08985,3.08985,0,0,1-2.51171-1.09619,4.62666,4.62666,0,0,1-.91211-3.04785,4.68886,4.68886,0,0,1,.91211-3.07227,3.08125,3.08125,0,0,1,2.51171-1.104,2.83319,2.83319,0,0,1,1.4961.39209,2.67186,2.67186,0,0,1,1,1.064v-4.7998Zm-2.68848,9.35986a2.797,2.797,0,0,0,.4961-1.77588v-.16015a2.805,2.805,0,0,0-.4961-1.76807,1.78962,1.78962,0,0,0-2.73632.0083,3.65969,3.65969,0,0,0,0,3.67969,1.79685,1.79685,0,0,0,2.73632.01611Z" fill="#40c800"/><path d="M171.98828,265.16357a3.18962,3.18962,0,0,1,1.2002,1.71192l-2.04883.73633q-.28711-1.45607-1.55176-1.45606a1.72585,1.72585,0,0,0-1.44824.648,3.04348,3.04348,0,0,0-.50391,1.896,2.935,2.935,0,0,0,.5127,1.87988,1.729,1.729,0,0,0,1.42383.63184,1.53856,1.53856,0,0,0,1.66406-1.42383l1.9834.64013a2.87545,2.87545,0,0,1-1.19141,1.75977,4.086,4.086,0,0,1-6.584-3.50391,4.17533,4.17533,0,0,1,1.08007-3.064,4.02075,4.02075,0,0,1,3-1.09619A4.13137,4.13137,0,0,1,171.98828,265.16357Z" fill="#40c800"/><path d="M181.65918,265.62744a4.86383,4.86383,0,0,1,0,6.11231,4.67066,4.67066,0,0,1-6.03125,0,4.86383,4.86383,0,0,1,0-6.11231,4.67066,4.67066,0,0,1,6.03125,0Zm-4.43164,1.16016a3.92522,3.92522,0,0,0,0,3.792,1.90263,1.90263,0,0,0,2.832,0,3.92522,3.92522,0,0,0,0-3.792,1.90263,1.90263,0,0,0-2.832,0Z" fill="#40c800"/><path d="M192.37207,261.17969v11.5039h-1.95215l-.09668-1.47216a2.77013,2.77013,0,0,1-1.04785,1.19238,2.91683,2.91683,0,0,1-1.5918.43994,3.08985,3.08985,0,0,1-2.51171-1.09619,4.62666,4.62666,0,0,1-.91211-3.04785,4.68886,4.68886,0,0,1,.91211-3.07227,3.08125,3.08125,0,0,1,2.51171-1.104,2.83319,2.83319,0,0,1,1.4961.39209,2.67186,2.67186,0,0,1,1,1.064v-4.7998Zm-2.68848,9.35986a2.797,2.797,0,0,0,.4961-1.77588v-.16015a2.805,2.805,0,0,0-.4961-1.76807,1.78962,1.78962,0,0,0-2.73632.0083,3.65969,3.65969,0,0,0,0,3.67969,1.79685,1.79685,0,0,0,2.73632.01611Z" fill="#40c800"/><path d="M202.09863,269.51562h-5.66308a1.865,1.865,0,0,0,2,1.69581,2.26535,2.26535,0,0,0,1.13574-.25586,1.37164,1.37164,0,0,0,.624-.73584l1.792.65576a2.8343,2.8343,0,0,1-1.28808,1.46387,4.59661,4.59661,0,0,1-2.26367.50439,3.79514,3.79514,0,0,1-4.16016-4.16016,4.23414,4.23414,0,0,1,1.05566-3.064,3.94039,3.94039,0,0,1,2.97559-1.09619,3.71538,3.71538,0,0,1,2.85645,1.07226,4.31744,4.31744,0,0,1,1,3.05567A5.63944,5.63944,0,0,1,202.09863,269.51562Zm-5.0791-2.9121a2.31717,2.31717,0,0,0-.60058,1.376h3.72851a2.31715,2.31715,0,0,0-.6084-1.36767,1.704,1.704,0,0,0-1.248-.47217A1.73517,1.73517,0,0,0,197.01953,266.60352Z" fill="#40c800"/><path d="M168.53794,100.40116a69.99272,69.99272,0,0,1-139.98413,0H1.253v99.888H196.28745v-99.888Z" fill="#fcc440"/><rect x="152.14949" y="202.44735" width="44.13793" height="44.13793" transform="translate(348.4369 449.03263) rotate(180)" fill="#4d4d4d"/><rect x="1.25293" y="202.44735" width="44.13793" height="44.13793" transform="translate(46.6438 449.03263) rotate(180)" fill="#4d4d4d"/><rect x="48.01155" y="202.44735" width="11.03448" height="44.13793" transform="translate(107.05759 449.03263) rotate(180)" fill="#4d4d4d"/><rect x="61.39086" y="202.44735" width="88.27586" height="44.13793" transform="translate(211.05759 449.03263) rotate(180)" fill="#4d4d4d"/><line x1="176.07437" y1="215.36458" x2="177.03039" y2="210.867" fill="none" stroke="#fff" stroke-miterlimit="10"/><line x1="171.40651" y1="210.867" x2="172.36253" y2="215.36458" fill="none" stroke="#fff" stroke-miterlimit="10"/><line x1="172.36253" y1="215.36458" x2="171.40651" y2="210.867" fill="none" stroke="#fff" stroke-miterlimit="10"/><line x1="166.24476" y1="213.12129" x2="168.94681" y2="216.84031" fill="none" stroke="#fff" stroke-miterlimit="10"/><line x1="162.39396" y1="217.26932" x2="166.37699" y2="219.56896" fill="none" stroke="#fff" stroke-miterlimit="10"/><line x1="168.94681" y1="216.84031" x2="166.24476" y2="213.12129" fill="none" stroke="#fff" stroke-miterlimit="10"/><line x1="166.37699" y1="219.56896" x2="162.39396" y2="217.26932" fill="none" stroke="#fff" stroke-miterlimit="10"/><line x1="160.53524" y1="222.65804" x2="165.1078" y2="223.13858" fill="none" stroke="#fff" stroke-miterlimit="10"/><line x1="183.0413" y1="226.96288" x2="187.41686" y2="228.38451" fill="none" stroke="#fff" stroke-miterlimit="10"/><line x1="187.90166" y1="222.65793" x2="183.32899" y2="223.13858" fill="none" stroke="#fff" stroke-miterlimit="10"/><line x1="182.05991" y1="219.56885" x2="186.04283" y2="217.26932" fill="none" stroke="#fff" stroke-miterlimit="10"/><line x1="182.19214" y1="213.12129" x2="179.49009" y2="216.84031" fill="none" stroke="#fff" stroke-miterlimit="10"/><line x1="177.03039" y1="210.867" x2="176.07437" y2="215.36458" fill="none" stroke="#fff" stroke-miterlimit="10"/><line x1="179.49009" y1="216.84031" x2="182.19214" y2="213.12129" fill="none" stroke="#fff" stroke-miterlimit="10"/><line x1="183.32899" y1="223.13858" x2="187.90166" y2="222.65793" fill="none" stroke="#fff" stroke-miterlimit="10"/><line x1="186.04283" y1="217.26932" x2="182.05991" y2="219.56885" fill="none" stroke="#fff" stroke-miterlimit="10"/><line x1="178.06083" y1="232.72629" x2="179.93078" y2="236.9264" fill="none" stroke="#fff" stroke-miterlimit="10"/><line x1="184.60234" y1="233.4458" x2="181.18583" y2="230.36963" fill="none" stroke="#fff" stroke-miterlimit="10"/><line x1="179.93078" y1="236.9264" x2="178.06083" y2="232.72629" fill="none" stroke="#fff" stroke-miterlimit="10"/><line x1="174.21845" y1="233.56793" x2="174.21845" y2="238.16563" fill="none" stroke="#fff" stroke-miterlimit="10"/><line x1="187.41686" y1="228.38451" x2="183.0413" y2="226.96288" fill="none" stroke="#fff" stroke-miterlimit="10"/><line x1="181.18583" y1="230.36963" x2="184.60234" y2="233.4458" fill="none" stroke="#fff" stroke-miterlimit="10"/><line x1="174.21845" y1="238.16563" x2="174.21845" y2="233.56793" fill="none" stroke="#fff" stroke-miterlimit="10"/><line x1="170.37607" y1="232.72629" x2="168.50601" y2="236.9264" fill="none" stroke="#fff" stroke-miterlimit="10"/><line x1="165.39549" y1="226.96288" x2="161.02004" y2="228.38451" fill="none" stroke="#fff" stroke-miterlimit="10"/><line x1="163.83456" y1="233.4458" x2="167.25096" y2="230.36963" fill="none" stroke="#fff" stroke-miterlimit="10"/><line x1="168.50601" y1="236.9264" x2="170.37607" y2="232.72629" fill="none" stroke="#fff" stroke-miterlimit="10"/><line x1="167.25096" y1="230.36963" x2="163.83456" y2="233.4458" fill="none" stroke="#fff" stroke-miterlimit="10"/><circle cx="174.21845" cy="224.51631" r="11.03448" fill="#e6e6e6"/><line x1="182.82808" y1="217.61811" x2="176.12596" y2="222.98798" fill="none" stroke="#5e6367" stroke-miterlimit="10" stroke-width="2"/><circle cx="85.87324" cy="224.51631" r="13.7931" fill="#f2f2f2"/><path d="M89.92685,225.35117l6.74636,1.434a11.045,11.045,0,0,0-5.18871-11.76939l-3.45043,5.97656" fill="#666"/><path d="M84.70985,220.547,82.577,213.98291a11.0424,11.0424,0,0,0-7.73829,10.5334h6.89656" fill="#666"/><path d="M83.177,227.651l-4.61557,5.12608a10.979,10.979,0,0,0,7.31183,2.77371,11.18127,11.18127,0,0,0,1.278-.076,10.95806,10.95806,0,0,0,4.33325-1.458l-3.45043-5.97656" fill="#666"/><circle cx="125.18281" cy="224.51631" r="13.7931" fill="#f2f2f2"/><path d="M128.11043,227.44168l4.84791,4.90587a11.045,11.045,0,0,0,2.13383-12.68417l-6.16734,3.09655" fill="#666"/><path d="M126.39246,220.56088l1.82591-6.656a11.04239,11.04239,0,0,0-12.254,4.54678l5.76153,3.79042" fill="#666"/><path d="M121.20744,225.65321l-6.67329,1.74567a10.97891,10.97891,0,0,0,4.584,6.33587,11.18148,11.18148,0,0,0,1.10943.639,10.958,10.958,0,0,0,4.4214,1.16357l.40223-6.88934" fill="#666"/><circle cx="23.3219" cy="224.83143" r="13.7931" fill="#e6e6e6"/><path d="M9.5288,225.66983h2.04342c.42571,0,.90819,0,1.438.00088,2.097.45761,2.86115,2.52085,4.08381,4.04917.38208.53491.84057,1.14624,1.4519,1.06982a2.17615,2.17615,0,0,0,.93681-.28019,2.82654,2.82654,0,0,0,.72454-.61133A8.52641,8.52641,0,0,0,21.012,228.744c1.2019-2.00438,1.50756-4.37328,2.27172-6.58934.53491-1.37549,1.29907-3.36231,2.90381-3.2859.84058,0,1.37549,1.06983,1.9104,1.91041,1.06983,1.75757,1.75757,3.97363,3.81314,4.84662.61572.0436,1.1928.044,1.72257.044H37.115" fill="none" stroke="#4d4d4d" stroke-miterlimit="10"/><line x1="53.5288" y1="208.51631" x2="53.5288" y2="240.51631" fill="none" stroke="#b3b3b3" stroke-miterlimit="10" stroke-width="3"/><g id="nock"><circle id="circle" cx="99.24399" cy="102.50003" r="60" fill="#ee3124"/><g id="beam"><path d="M158.69711,94.5a58.78719,58.78719,0,0,1,0,16" fill="#444"/><path d="M158.69711,94.5H99.244a8,8,0,0,0,0,16h59.45312a58.78719,58.78719,0,0,0,0-16Z" fill="#5e6367"/></g><circle id="event" cx="99.24399" cy="102.50003" r="8" fill="#1c1c1c"/></g></g></svg>