<svg xmlns="http://www.w3.org/2000/svg" viewBox="0 0 156 156"><title>urbit-complete</title><g id="network-diagram"><g id="urbit" opacity="0.99"><g id="arvo"><g id="outer-ring"><path d="M13.88555,56.35106,5.52561,53.525a76.90974,76.90974,0,0,1,21.94512-32.9562l5.8313,6.62357A68.0854,68.0854,0,0,0,13.88555,56.35106Z" fill="#abc0d9"/><path d="M3.01234,93.03968A76.00807,76.00807,0,0,1,3.0527,62.66762a76.85106,76.85106,0,0,1,2.47284-9.14251l8.36008,2.82581a68.00724,68.00724,0,0,0-2.188,8.089,67.23152,67.23152,0,0,0-.03289,26.86443Z" fill="#3973c6"/><path d="M152.98763,62.96018l-8.65238,1.73537a67.7598,67.7598,0,0,1-21.6372,64.112l-.00005,0a68.00774,68.00774,0,0,1-6.61961,5.13815,67.89486,67.89486,0,0,1-51.63846,10.35677,67.97114,67.97114,0,0,1-8.08851-2.188l-2.82653,8.35979a76.832,76.832,0,0,0,9.14269,2.47315A75.84185,75.84185,0,0,0,77.91979,154.5a76.8006,76.8006,0,0,0,15.11994-1.51249,76.0061,76.0061,0,0,0,28.00755-11.749,76.87679,76.87679,0,0,0,7.48189-5.80727l-2.97742-3.38211,2.97751,3.38207a76.39879,76.39879,0,0,0,24.45837-72.471Z" fill="#1846b7"/><path d="M53.525,150.47431A76.39848,76.39848,0,0,1,3.01241,93.03975l8.65237-1.73535a67.75986,67.75986,0,0,0,44.68647,50.81Z" fill="#797384"/><path d="M141.23847,34.95268A76.80521,76.80521,0,0,0,102.475,5.52569h0a76.865,76.865,0,0,0-9.14278-2.47305,76.71827,76.71827,0,0,0-58.37966,11.7088,76.82586,76.82586,0,0,0-7.48184,5.80741l5.83145,6.6234a67.98659,67.98659,0,0,1,6.61924-5.13791A67.89377,67.89377,0,0,1,91.55983,11.69757a67.9117,67.9117,0,0,1,42.38579,28.22391,67.23058,67.23058,0,0,1,10.38963,24.77407l8.65238-1.73537A76.0069,76.0069,0,0,0,141.23847,34.95268Z" fill="#96daea"/></g><circle id="inner-ring" cx="78" cy="78.00001" r="62.73" fill="none" stroke="#ffc440" stroke-miterlimit="10" stroke-width="7.6712"/></g><circle id="hoon" cx="78" cy="78.00001" r="43.605" fill="none" stroke="#6fdc74" stroke-miterlimit="10" stroke-width="27.54"/><g id="nock"><circle id="circle" cx="78" cy="78.00001" r="28.64039" fill="#ee3124"/><g id="beam"><path d="M106.37934,74.18129a28.06123,28.06123,0,0,1,0,7.63744" fill="#444"/><path d="M106.37934,74.18129H78a3.81872,3.81872,0,0,0,0,7.63744h28.37934a28.06123,28.06123,0,0,0,0-7.63744Z" fill="#5e6367"/></g><circle id="event" cx="78" cy="78.00001" r="3.81872" fill="#1c1c1c"/></g></g></g></svg>