<svg width="61" height="61" viewBox="0 0 61 61" fill="none" xmlns="http://www.w3.org/2000/svg">
<circle cx="30.5" cy="30.5" r="30" fill="#E6E6E6" stroke="black"/>
<mask id="path-2-inside-1" fill="white">
<path d="M61 30.5C61 37.5563 58.5533 44.3944 54.0768 49.849C49.6003 55.3036 43.371 59.0373 36.4503 60.414C29.5295 61.7906 22.3455 60.7249 16.1224 57.3986C9.89927 54.0723 5.02202 48.6911 2.32168 42.1718C-0.378668 35.6526 -0.735027 28.3988 1.31332 21.6463C3.36166 14.8938 7.68798 9.06047 13.5551 5.14018C19.4222 1.21989 26.4672 -0.544775 33.4895 0.146865C40.5119 0.838506 47.0772 3.94366 52.0668 8.93324L30.5 30.5H61Z"/>
</mask>
<path d="M61 30.5C61 37.5563 58.5533 44.3944 54.0768 49.849C49.6003 55.3036 43.371 59.0373 36.4503 60.414C29.5295 61.7906 22.3455 60.7249 16.1224 57.3986C9.89927 54.0723 5.02202 48.6911 2.32168 42.1718C-0.378668 35.6526 -0.735027 28.3988 1.31332 21.6463C3.36166 14.8938 7.68798 9.06047 13.5551 5.14018C19.4222 1.21989 26.4672 -0.544775 33.4895 0.146865C40.5119 0.838506 47.0772 3.94366 52.0668 8.93324L30.5 30.5H61Z" fill="#E6E6E6" stroke="black" stroke-width="2" mask="url(#path-2-inside-1)"/>
<mask id="path-3-inside-2" fill="white">
<path d="M61 30.5C61 36.5323 59.2112 42.4292 55.8598 47.4449C52.5084 52.4606 47.745 56.3699 42.1718 58.6783C36.5987 60.9868 30.4662 61.5908 24.5497 60.414C18.6333 59.2371 13.1987 56.3323 8.93324 52.0668C4.66774 47.8013 1.7629 42.3667 0.586049 36.4503C-0.5908 30.5338 0.0132015 24.4013 2.32167 18.8282C4.63015 13.255 8.53941 8.49156 13.5551 5.14018C18.5708 1.78879 24.4677 -7.19348e-08 30.5 0V30.5H61Z"/>
</mask>
<path d="M61 30.5C61 36.5323 59.2112 42.4292 55.8598 47.4449C52.5084 52.4606 47.745 56.3699 42.1718 58.6783C36.5987 60.9868 30.4662 61.5908 24.5497 60.414C18.6333 59.2371 13.1987 56.3323 8.93324 52.0668C4.66774 47.8013 1.7629 42.3667 0.586049 36.4503C-0.5908 30.5338 0.0132015 24.4013 2.32167 18.8282C4.63015 13.255 8.53941 8.49156 13.5551 5.14018C18.5708 1.78879 24.4677 -7.19348e-08 30.5 0V30.5H61Z" fill="#E6E6E6" stroke="black" stroke-width="2" mask="url(#path-3-inside-2)"/>
<mask id="path-4-inside-3" fill="white">
<path d="M61 30.5C61 35.8539 59.5907 41.1134 56.9138 45.75C54.2368 50.3866 50.3866 54.2368 45.75 56.9138C41.1134 59.5907 35.8539 61 30.5 61C25.1461 61 19.8866 59.5907 15.25 56.9138C10.6134 54.2368 6.76316 50.3866 4.08622 45.75C1.40929 41.1134 -4.6805e-07 35.8539 0 30.5C4.6805e-07 25.1461 1.40929 19.8866 4.08623 15.25C6.76316 10.6134 10.6134 6.76316 15.25 4.08622L30.5 30.5H61Z"/>
</mask>
<path d="M61 30.5C61 35.8539 59.5907 41.1134 56.9138 45.75C54.2368 50.3866 50.3866 54.2368 45.75 56.9138C41.1134 59.5907 35.8539 61 30.5 61C25.1461 61 19.8866 59.5907 15.25 56.9138C10.6134 54.2368 6.76316 50.3866 4.08622 45.75C1.40929 41.1134 -4.6805e-07 35.8539 0 30.5C4.6805e-07 25.1461 1.40929 19.8866 4.08623 15.25C6.76316 10.6134 10.6134 6.76316 15.25 4.08622L30.5 30.5H61Z" fill="#E6E6E6" stroke="black" stroke-width="2" mask="url(#path-4-inside-3)"/>
<mask id="path-5-inside-4" fill="white">
<path d="M61 30.5C61 35.8539 59.5907 41.1134 56.9138 45.75C54.2368 50.3866 50.3866 54.2368 45.75 56.9138C41.1134 59.5907 35.8539 61 30.5 61C25.1461 61 19.8866 59.5907 15.25 56.9138L30.5 30.5H61Z"/>
</mask>
<path d="M61 30.5C61 35.8539 59.5907 41.1134 56.9138 45.75C54.2368 50.3866 50.3866 54.2368 45.75 56.9138C41.1134 59.5907 35.8539 61 30.5 61C25.1461 61 19.8866 59.5907 15.25 56.9138L30.5 30.5H61Z" fill="#E6E6E6" stroke="black" stroke-width="2" mask="url(#path-5-inside-4)"/>
<circle cx="30.5" cy="30.5" r="27" fill="#E6E6E6" stroke="black"/>
<circle cx="30.5" cy="30.5" r="23" fill="white" stroke="black"/>
</svg>
