<svg width="248" height="248" viewBox="0 0 248 248" fill="none" xmlns="http://www.w3.org/2000/svg">
<rect x="0.5" y="0.5" width="247" height="247" fill="white" stroke="black"/>
<circle cx="124.5" cy="123.5" r="30" fill="white" stroke="black"/>
<mask id="path-3-inside-1" fill="white">
<path d="M155 123.5C155 130.556 152.553 137.394 148.077 142.849C143.6 148.304 137.371 152.037 130.45 153.414C123.53 154.791 116.346 153.725 110.122 150.399C103.899 147.072 99.022 141.691 96.3217 135.172C93.6213 128.653 93.265 121.399 95.3133 114.646C97.3617 107.894 101.688 102.06 107.555 98.1402C113.422 94.2199 120.467 92.4552 127.49 93.1469C134.512 93.8385 141.077 96.9437 146.067 101.933L124.5 123.5H155Z"/>
</mask>
<path d="M155 123.5C155 130.556 152.553 137.394 148.077 142.849C143.6 148.304 137.371 152.037 130.45 153.414C123.53 154.791 116.346 153.725 110.122 150.399C103.899 147.072 99.022 141.691 96.3217 135.172C93.6213 128.653 93.265 121.399 95.3133 114.646C97.3617 107.894 101.688 102.06 107.555 98.1402C113.422 94.2199 120.467 92.4552 127.49 93.1469C134.512 93.8385 141.077 96.9437 146.067 101.933L124.5 123.5H155Z" fill="white" stroke="black" stroke-width="2" mask="url(#path-3-inside-1)"/>
<mask id="path-4-inside-2" fill="white">
<path d="M155 123.5C155 129.532 153.211 135.429 149.86 140.445C146.508 145.461 141.745 149.37 136.172 151.678C130.599 153.987 124.466 154.591 118.55 153.414C112.633 152.237 107.199 149.332 102.933 145.067C98.6677 140.801 95.7629 135.367 94.586 129.45C93.4092 123.534 94.0132 117.401 96.3217 111.828C98.6301 106.255 102.539 101.492 107.555 98.1402C112.571 94.7888 118.468 93 124.5 93L124.5 123.5H155Z"/>
</mask>
<path d="M155 123.5C155 129.532 153.211 135.429 149.86 140.445C146.508 145.461 141.745 149.37 136.172 151.678C130.599 153.987 124.466 154.591 118.55 153.414C112.633 152.237 107.199 149.332 102.933 145.067C98.6677 140.801 95.7629 135.367 94.586 129.45C93.4092 123.534 94.0132 117.401 96.3217 111.828C98.6301 106.255 102.539 101.492 107.555 98.1402C112.571 94.7888 118.468 93 124.5 93L124.5 123.5H155Z" fill="white" stroke="black" stroke-width="2" mask="url(#path-4-inside-2)"/>
<mask id="path-5-inside-3" fill="white">
<path d="M155 123.5C155 128.854 153.591 134.113 150.914 138.75C148.237 143.387 144.387 147.237 139.75 149.914C135.113 152.591 129.854 154 124.5 154C119.146 154 113.887 152.591 109.25 149.914C104.613 147.237 100.763 143.387 98.0862 138.75C95.4093 134.113 94 128.854 94 123.5C94 118.146 95.4093 112.887 98.0862 108.25C100.763 103.613 104.613 99.7632 109.25 97.0862L124.5 123.5H155Z"/>
</mask>
<path d="M155 123.5C155 128.854 153.591 134.113 150.914 138.75C148.237 143.387 144.387 147.237 139.75 149.914C135.113 152.591 129.854 154 124.5 154C119.146 154 113.887 152.591 109.25 149.914C104.613 147.237 100.763 143.387 98.0862 138.75C95.4093 134.113 94 128.854 94 123.5C94 118.146 95.4093 112.887 98.0862 108.25C100.763 103.613 104.613 99.7632 109.25 97.0862L124.5 123.5H155Z" fill="white" stroke="black" stroke-width="2" mask="url(#path-5-inside-3)"/>
<mask id="path-6-inside-4" fill="white">
<path d="M155 123.5C155 128.854 153.591 134.113 150.914 138.75C148.237 143.387 144.387 147.237 139.75 149.914C135.113 152.591 129.854 154 124.5 154C119.146 154 113.887 152.591 109.25 149.914L124.5 123.5H155Z"/>
</mask>
<path d="M155 123.5C155 128.854 153.591 134.113 150.914 138.75C148.237 143.387 144.387 147.237 139.75 149.914C135.113 152.591 129.854 154 124.5 154C119.146 154 113.887 152.591 109.25 149.914L124.5 123.5H155Z" fill="white" stroke="black" stroke-width="2" mask="url(#path-6-inside-4)"/>
<circle cx="124.5" cy="123.5" r="27" fill="white" stroke="black"/>
<circle cx="124.5" cy="123.5" r="23" fill="white" stroke="black"/>
<circle cx="124.5" cy="123.5" r="15" fill="white" stroke="black"/>
<rect x="127" y="126.707" width="1" height="10.6258" transform="rotate(-45 127 126.707)" fill="black"/>
<circle cx="124.5" cy="123.5" r="4" fill="black" stroke="white"/>
</svg>
