<svg width="248" height="248" viewBox="0 0 248 248" fill="none" xmlns="http://www.w3.org/2000/svg">
<path d="M0.5 0.5H247.5V247.5H0.5V0.5Z" fill="white" stroke="black"/>
<path d="M124.228 89.0416C122.138 111.712 133.879 132.261 153 142" stroke="black" stroke-width="0.5" stroke-dasharray="2 2"/>
<path d="M179.73 70C179.73 99.8234 155.553 124 125.73 124C95.9067 124 71.7301 99.8234 71.7301 70" stroke="black" stroke-width="0.5" stroke-dasharray="2 2"/>
<path d="M123.646 84.8294C127.054 114.457 105.799 141.238 76.1706 144.646" stroke="black" stroke-width="0.5" stroke-dasharray="2 2"/>
<path d="M153 142C140.813 138.462 128.038 145.465 124.5 157.652C122.788 163.548 123.546 169.576 126.164 174.628" stroke="black" stroke-width="0.5" stroke-dasharray="2 2"/>
<circle cx="124.5" cy="57.5" r="30" fill="white" stroke="black"/>
<mask id="path-7-inside-1" fill="white">
<path d="M155 57.5C155 64.5563 152.553 71.3944 148.077 76.849C143.6 82.3036 137.371 86.0373 130.45 87.414C123.53 88.7906 116.346 87.7249 110.122 84.3986C103.899 81.0723 99.022 75.6911 96.3217 69.1718C93.6213 62.6526 93.265 55.3988 95.3133 48.6463C97.3617 41.8938 101.688 36.0605 107.555 32.1402C113.422 28.2199 120.467 26.4552 127.49 27.1469C134.512 27.8385 141.077 30.9437 146.067 35.9332L124.5 57.5H155Z"/>
</mask>
<path d="M155 57.5C155 64.5563 152.553 71.3944 148.077 76.849C143.6 82.3036 137.371 86.0373 130.45 87.414C123.53 88.7906 116.346 87.7249 110.122 84.3986C103.899 81.0723 99.022 75.6911 96.3217 69.1718C93.6213 62.6526 93.265 55.3988 95.3133 48.6463C97.3617 41.8938 101.688 36.0605 107.555 32.1402C113.422 28.2199 120.467 26.4552 127.49 27.1469C134.512 27.8385 141.077 30.9437 146.067 35.9332L124.5 57.5H155Z" fill="white" stroke="black" stroke-width="2" mask="url(#path-7-inside-1)"/>
<mask id="path-8-inside-2" fill="white">
<path d="M155 57.5C155 63.5323 153.211 69.4292 149.86 74.4449C146.508 79.4606 141.745 83.3699 136.172 85.6783C130.599 87.9868 124.466 88.5908 118.55 87.414C112.633 86.2371 107.199 83.3323 102.933 79.0668C98.6677 74.8013 95.7629 69.3667 94.586 63.4503C93.4092 57.5338 94.0132 51.4013 96.3217 45.8282C98.6301 40.255 102.539 35.4916 107.555 32.1402C112.571 28.7888 118.468 27 124.5 27V57.5H155Z"/>
</mask>
<path d="M155 57.5C155 63.5323 153.211 69.4292 149.86 74.4449C146.508 79.4606 141.745 83.3699 136.172 85.6783C130.599 87.9868 124.466 88.5908 118.55 87.414C112.633 86.2371 107.199 83.3323 102.933 79.0668C98.6677 74.8013 95.7629 69.3667 94.586 63.4503C93.4092 57.5338 94.0132 51.4013 96.3217 45.8282C98.6301 40.255 102.539 35.4916 107.555 32.1402C112.571 28.7888 118.468 27 124.5 27V57.5H155Z" fill="white" stroke="black" stroke-width="2" mask="url(#path-8-inside-2)"/>
<mask id="path-9-inside-3" fill="white">
<path d="M155 57.5C155 62.8539 153.591 68.1134 150.914 72.75C148.237 77.3866 144.387 81.2368 139.75 83.9138C135.113 86.5907 129.854 88 124.5 88C119.146 88 113.887 86.5907 109.25 83.9138C104.613 81.2368 100.763 77.3866 98.0862 72.75C95.4093 68.1134 94 62.8539 94 57.5C94 52.1461 95.4093 46.8866 98.0862 42.25C100.763 37.6134 104.613 33.7632 109.25 31.0862L124.5 57.5H155Z"/>
</mask>
<path d="M155 57.5C155 62.8539 153.591 68.1134 150.914 72.75C148.237 77.3866 144.387 81.2368 139.75 83.9138C135.113 86.5907 129.854 88 124.5 88C119.146 88 113.887 86.5907 109.25 83.9138C104.613 81.2368 100.763 77.3866 98.0862 72.75C95.4093 68.1134 94 62.8539 94 57.5C94 52.1461 95.4093 46.8866 98.0862 42.25C100.763 37.6134 104.613 33.7632 109.25 31.0862L124.5 57.5H155Z" fill="white" stroke="black" stroke-width="2" mask="url(#path-9-inside-3)"/>
<mask id="path-10-inside-4" fill="white">
<path d="M155 57.5C155 62.8539 153.591 68.1134 150.914 72.75C148.237 77.3866 144.387 81.2368 139.75 83.9138C135.113 86.5907 129.854 88 124.5 88C119.146 88 113.887 86.5907 109.25 83.9138L124.5 57.5H155Z"/>
</mask>
<path d="M155 57.5C155 62.8539 153.591 68.1134 150.914 72.75C148.237 77.3866 144.387 81.2368 139.75 83.9138C135.113 86.5907 129.854 88 124.5 88C119.146 88 113.887 86.5907 109.25 83.9138L124.5 57.5H155Z" fill="white" stroke="black" stroke-width="2" mask="url(#path-10-inside-4)"/>
<circle cx="124.5" cy="57.5" r="27" fill="white" stroke="black"/>
<circle cx="124.5" cy="57.5" r="23" fill="white" stroke="black"/>
<circle cx="124.5" cy="57.4999" r="15" transform="rotate(150 124.5 57.4999)" fill="white" stroke="black"/>
<circle cx="124.5" cy="57.5" r="4" transform="rotate(150 124.5 57.5)" fill="white" stroke="black"/>
<rect x="120.731" y="55.9725" width="1" height="10.6258" transform="rotate(105 120.731 55.9725)" fill="black"/>
<circle cx="182.5" cy="90.5" r="30" fill="white" stroke="black"/>
<mask id="path-17-inside-5" fill="white">
<path d="M213 90.5C213 97.5563 210.553 104.394 206.077 109.849C201.6 115.304 195.371 119.037 188.45 120.414C181.53 121.791 174.346 120.725 168.122 117.399C161.899 114.072 157.022 108.691 154.322 102.172C151.621 95.6526 151.265 88.3988 153.313 81.6463C155.362 74.8938 159.688 69.0605 165.555 65.1402C171.422 61.2199 178.467 59.4552 185.49 60.1469C192.512 60.8385 199.077 63.9437 204.067 68.9332L182.5 90.5H213Z"/>
</mask>
<path d="M213 90.5C213 97.5563 210.553 104.394 206.077 109.849C201.6 115.304 195.371 119.037 188.45 120.414C181.53 121.791 174.346 120.725 168.122 117.399C161.899 114.072 157.022 108.691 154.322 102.172C151.621 95.6526 151.265 88.3988 153.313 81.6463C155.362 74.8938 159.688 69.0605 165.555 65.1402C171.422 61.2199 178.467 59.4552 185.49 60.1469C192.512 60.8385 199.077 63.9437 204.067 68.9332L182.5 90.5H213Z" fill="white" stroke="black" stroke-width="2" mask="url(#path-17-inside-5)"/>
<mask id="path-18-inside-6" fill="white">
<path d="M213 90.5C213 96.5323 211.211 102.429 207.86 107.445C204.508 112.461 199.745 116.37 194.172 118.678C188.599 120.987 182.466 121.591 176.55 120.414C170.633 119.237 165.199 116.332 160.933 112.067C156.668 107.801 153.763 102.367 152.586 96.4503C151.409 90.5338 152.013 84.4013 154.322 78.8282C156.63 73.255 160.539 68.4916 165.555 65.1402C170.571 61.7888 176.468 60 182.5 60V90.5H213Z"/>
</mask>
<path d="M213 90.5C213 96.5323 211.211 102.429 207.86 107.445C204.508 112.461 199.745 116.37 194.172 118.678C188.599 120.987 182.466 121.591 176.55 120.414C170.633 119.237 165.199 116.332 160.933 112.067C156.668 107.801 153.763 102.367 152.586 96.4503C151.409 90.5338 152.013 84.4013 154.322 78.8282C156.63 73.255 160.539 68.4916 165.555 65.1402C170.571 61.7888 176.468 60 182.5 60V90.5H213Z" fill="white" stroke="black" stroke-width="2" mask="url(#path-18-inside-6)"/>
<mask id="path-19-inside-7" fill="white">
<path d="M213 90.5C213 95.8539 211.591 101.113 208.914 105.75C206.237 110.387 202.387 114.237 197.75 116.914C193.113 119.591 187.854 121 182.5 121C177.146 121 171.887 119.591 167.25 116.914C162.613 114.237 158.763 110.387 156.086 105.75C153.409 101.113 152 95.8539 152 90.5C152 85.1461 153.409 79.8866 156.086 75.25C158.763 70.6134 162.613 66.7632 167.25 64.0862L182.5 90.5H213Z"/>
</mask>
<path d="M213 90.5C213 95.8539 211.591 101.113 208.914 105.75C206.237 110.387 202.387 114.237 197.75 116.914C193.113 119.591 187.854 121 182.5 121C177.146 121 171.887 119.591 167.25 116.914C162.613 114.237 158.763 110.387 156.086 105.75C153.409 101.113 152 95.8539 152 90.5C152 85.1461 153.409 79.8866 156.086 75.25C158.763 70.6134 162.613 66.7632 167.25 64.0862L182.5 90.5H213Z" fill="white" stroke="black" stroke-width="2" mask="url(#path-19-inside-7)"/>
<mask id="path-20-inside-8" fill="white">
<path d="M213 90.5C213 95.8539 211.591 101.113 208.914 105.75C206.237 110.387 202.387 114.237 197.75 116.914C193.113 119.591 187.854 121 182.5 121C177.146 121 171.887 119.591 167.25 116.914L182.5 90.5H213Z"/>
</mask>
<path d="M213 90.5C213 95.8539 211.591 101.113 208.914 105.75C206.237 110.387 202.387 114.237 197.75 116.914C193.113 119.591 187.854 121 182.5 121C177.146 121 171.887 119.591 167.25 116.914L182.5 90.5H213Z" fill="white" stroke="black" stroke-width="2" mask="url(#path-20-inside-8)"/>
<circle cx="182.5" cy="90.5" r="27" fill="white" stroke="black"/>
<circle cx="182.5" cy="90.5" r="23" fill="white" stroke="black"/>
<circle cx="182.5" cy="90.4999" r="15" transform="rotate(150 182.5 90.4999)" fill="white" stroke="black"/>
<circle cx="182.5" cy="90.5" r="4" transform="rotate(150 182.5 90.5)" fill="white" stroke="black"/>
<rect x="178.731" y="88.9725" width="1" height="10.6258" transform="rotate(105 178.731 88.9725)" fill="black"/>
<circle cx="66.5" cy="90.5" r="30" fill="white" stroke="black"/>
<mask id="path-27-inside-9" fill="white">
<path d="M97 90.5C97 97.5563 94.5533 104.394 90.0768 109.849C85.6003 115.304 79.371 119.037 72.4503 120.414C65.5295 121.791 58.3455 120.725 52.1224 117.399C45.8993 114.072 41.022 108.691 38.3217 102.172C35.6213 95.6526 35.265 88.3988 37.3133 81.6463C39.3617 74.8938 43.688 69.0605 49.5551 65.1402C55.4222 61.2199 62.4672 59.4552 69.4895 60.1469C76.5119 60.8385 83.0772 63.9437 88.0668 68.9332L66.5 90.5H97Z"/>
</mask>
<path d="M97 90.5C97 97.5563 94.5533 104.394 90.0768 109.849C85.6003 115.304 79.371 119.037 72.4503 120.414C65.5295 121.791 58.3455 120.725 52.1224 117.399C45.8993 114.072 41.022 108.691 38.3217 102.172C35.6213 95.6526 35.265 88.3988 37.3133 81.6463C39.3617 74.8938 43.688 69.0605 49.5551 65.1402C55.4222 61.2199 62.4672 59.4552 69.4895 60.1469C76.5119 60.8385 83.0772 63.9437 88.0668 68.9332L66.5 90.5H97Z" fill="white" stroke="black" stroke-width="2" mask="url(#path-27-inside-9)"/>
<mask id="path-28-inside-10" fill="white">
<path d="M97 90.5C97 96.5323 95.2112 102.429 91.8598 107.445C88.5084 112.461 83.745 116.37 78.1718 118.678C72.5987 120.987 66.4662 121.591 60.5497 120.414C54.6333 119.237 49.1987 116.332 44.9332 112.067C40.6677 107.801 37.7629 102.367 36.586 96.4503C35.4092 90.5338 36.0132 84.4013 38.3217 78.8282C40.6301 73.255 44.5394 68.4916 49.5551 65.1402C54.5708 61.7888 60.4677 60 66.5 60V90.5H97Z"/>
</mask>
<path d="M97 90.5C97 96.5323 95.2112 102.429 91.8598 107.445C88.5084 112.461 83.745 116.37 78.1718 118.678C72.5987 120.987 66.4662 121.591 60.5497 120.414C54.6333 119.237 49.1987 116.332 44.9332 112.067C40.6677 107.801 37.7629 102.367 36.586 96.4503C35.4092 90.5338 36.0132 84.4013 38.3217 78.8282C40.6301 73.255 44.5394 68.4916 49.5551 65.1402C54.5708 61.7888 60.4677 60 66.5 60V90.5H97Z" fill="white" stroke="black" stroke-width="2" mask="url(#path-28-inside-10)"/>
<mask id="path-29-inside-11" fill="white">
<path d="M97 90.5C97 95.8539 95.5907 101.113 92.9138 105.75C90.2368 110.387 86.3866 114.237 81.75 116.914C77.1134 119.591 71.8539 121 66.5 121C61.1461 121 55.8866 119.591 51.25 116.914C46.6134 114.237 42.7632 110.387 40.0862 105.75C37.4093 101.113 36 95.8539 36 90.5C36 85.1461 37.4093 79.8866 40.0862 75.25C42.7632 70.6134 46.6134 66.7632 51.25 64.0862L66.5 90.5H97Z"/>
</mask>
<path d="M97 90.5C97 95.8539 95.5907 101.113 92.9138 105.75C90.2368 110.387 86.3866 114.237 81.75 116.914C77.1134 119.591 71.8539 121 66.5 121C61.1461 121 55.8866 119.591 51.25 116.914C46.6134 114.237 42.7632 110.387 40.0862 105.75C37.4093 101.113 36 95.8539 36 90.5C36 85.1461 37.4093 79.8866 40.0862 75.25C42.7632 70.6134 46.6134 66.7632 51.25 64.0862L66.5 90.5H97Z" fill="white" stroke="black" stroke-width="2" mask="url(#path-29-inside-11)"/>
<mask id="path-30-inside-12" fill="white">
<path d="M97 90.5C97 95.8539 95.5907 101.113 92.9138 105.75C90.2368 110.387 86.3866 114.237 81.75 116.914C77.1134 119.591 71.8539 121 66.5 121C61.1461 121 55.8866 119.591 51.25 116.914L66.5 90.5H97Z"/>
</mask>
<path d="M97 90.5C97 95.8539 95.5907 101.113 92.9138 105.75C90.2368 110.387 86.3866 114.237 81.75 116.914C77.1134 119.591 71.8539 121 66.5 121C61.1461 121 55.8866 119.591 51.25 116.914L66.5 90.5H97Z" fill="white" stroke="black" stroke-width="2" mask="url(#path-30-inside-12)"/>
<circle cx="66.5" cy="90.5" r="27" fill="white" stroke="black"/>
<circle cx="66.5" cy="90.5" r="23" fill="white" stroke="black"/>
<circle cx="66.4999" cy="90.4999" r="15" transform="rotate(150 66.4999 90.4999)" fill="white" stroke="black"/>
<circle cx="66.5" cy="90.5" r="4" transform="rotate(150 66.5 90.5)" fill="white" stroke="black"/>
<rect x="62.7313" y="88.9725" width="1" height="10.6258" transform="rotate(105 62.7313 88.9725)" fill="black"/>
<circle cx="66.5" cy="156.5" r="30" fill="white" stroke="black"/>
<mask id="path-37-inside-13" fill="white">
<path d="M97 156.5C97 163.556 94.5533 170.394 90.0768 175.849C85.6003 181.304 79.371 185.037 72.4503 186.414C65.5295 187.791 58.3455 186.725 52.1224 183.399C45.8993 180.072 41.022 174.691 38.3217 168.172C35.6213 161.653 35.265 154.399 37.3133 147.646C39.3617 140.894 43.688 135.06 49.5551 131.14C55.4222 127.22 62.4672 125.455 69.4895 126.147C76.5119 126.839 83.0772 129.944 88.0668 134.933L66.5 156.5H97Z"/>
</mask>
<path d="M97 156.5C97 163.556 94.5533 170.394 90.0768 175.849C85.6003 181.304 79.371 185.037 72.4503 186.414C65.5295 187.791 58.3455 186.725 52.1224 183.399C45.8993 180.072 41.022 174.691 38.3217 168.172C35.6213 161.653 35.265 154.399 37.3133 147.646C39.3617 140.894 43.688 135.06 49.5551 131.14C55.4222 127.22 62.4672 125.455 69.4895 126.147C76.5119 126.839 83.0772 129.944 88.0668 134.933L66.5 156.5H97Z" fill="white" stroke="black" stroke-width="2" mask="url(#path-37-inside-13)"/>
<mask id="path-38-inside-14" fill="white">
<path d="M97 156.5C97 162.532 95.2112 168.429 91.8598 173.445C88.5084 178.461 83.745 182.37 78.1718 184.678C72.5987 186.987 66.4662 187.591 60.5497 186.414C54.6333 185.237 49.1987 182.332 44.9332 178.067C40.6677 173.801 37.7629 168.367 36.586 162.45C35.4092 156.534 36.0132 150.401 38.3217 144.828C40.6301 139.255 44.5394 134.492 49.5551 131.14C54.5708 127.789 60.4677 126 66.5 126V156.5H97Z"/>
</mask>
<path d="M97 156.5C97 162.532 95.2112 168.429 91.8598 173.445C88.5084 178.461 83.745 182.37 78.1718 184.678C72.5987 186.987 66.4662 187.591 60.5497 186.414C54.6333 185.237 49.1987 182.332 44.9332 178.067C40.6677 173.801 37.7629 168.367 36.586 162.45C35.4092 156.534 36.0132 150.401 38.3217 144.828C40.6301 139.255 44.5394 134.492 49.5551 131.14C54.5708 127.789 60.4677 126 66.5 126V156.5H97Z" fill="white" stroke="black" stroke-width="2" mask="url(#path-38-inside-14)"/>
<mask id="path-39-inside-15" fill="white">
<path d="M97 156.5C97 161.854 95.5907 167.113 92.9138 171.75C90.2368 176.387 86.3866 180.237 81.75 182.914C77.1134 185.591 71.8539 187 66.5 187C61.1461 187 55.8866 185.591 51.25 182.914C46.6134 180.237 42.7632 176.387 40.0862 171.75C37.4093 167.113 36 161.854 36 156.5C36 151.146 37.4093 145.887 40.0862 141.25C42.7632 136.613 46.6134 132.763 51.25 130.086L66.5 156.5H97Z"/>
</mask>
<path d="M97 156.5C97 161.854 95.5907 167.113 92.9138 171.75C90.2368 176.387 86.3866 180.237 81.75 182.914C77.1134 185.591 71.8539 187 66.5 187C61.1461 187 55.8866 185.591 51.25 182.914C46.6134 180.237 42.7632 176.387 40.0862 171.75C37.4093 167.113 36 161.854 36 156.5C36 151.146 37.4093 145.887 40.0862 141.25C42.7632 136.613 46.6134 132.763 51.25 130.086L66.5 156.5H97Z" fill="white" stroke="black" stroke-width="2" mask="url(#path-39-inside-15)"/>
<mask id="path-40-inside-16" fill="white">
<path d="M97 156.5C97 161.854 95.5907 167.113 92.9138 171.75C90.2368 176.387 86.3866 180.237 81.75 182.914C77.1134 185.591 71.8539 187 66.5 187C61.1461 187 55.8866 185.591 51.25 182.914L66.5 156.5H97Z"/>
</mask>
<path d="M97 156.5C97 161.854 95.5907 167.113 92.9138 171.75C90.2368 176.387 86.3866 180.237 81.75 182.914C77.1134 185.591 71.8539 187 66.5 187C61.1461 187 55.8866 185.591 51.25 182.914L66.5 156.5H97Z" fill="white" stroke="black" stroke-width="2" mask="url(#path-40-inside-16)"/>
<circle cx="66.5" cy="156.5" r="27" fill="white" stroke="black"/>
<circle cx="66.5" cy="156.5" r="23" fill="white" stroke="black"/>
<circle cx="66.4999" cy="156.5" r="15" transform="rotate(150 66.4999 156.5)" fill="white" stroke="black"/>
<circle cx="66.5" cy="156.5" r="4" transform="rotate(150 66.5 156.5)" fill="white" stroke="black"/>
<rect x="62.7313" y="154.973" width="1" height="10.6258" transform="rotate(105 62.7313 154.973)" fill="black"/>
<circle cx="182.5" cy="156.5" r="30" fill="white" stroke="black"/>
<mask id="path-47-inside-17" fill="white">
<path d="M213 156.5C213 163.556 210.553 170.394 206.077 175.849C201.6 181.304 195.371 185.037 188.45 186.414C181.53 187.791 174.346 186.725 168.122 183.399C161.899 180.072 157.022 174.691 154.322 168.172C151.621 161.653 151.265 154.399 153.313 147.646C155.362 140.894 159.688 135.06 165.555 131.14C171.422 127.22 178.467 125.455 185.49 126.147C192.512 126.839 199.077 129.944 204.067 134.933L182.5 156.5H213Z"/>
</mask>
<path d="M213 156.5C213 163.556 210.553 170.394 206.077 175.849C201.6 181.304 195.371 185.037 188.45 186.414C181.53 187.791 174.346 186.725 168.122 183.399C161.899 180.072 157.022 174.691 154.322 168.172C151.621 161.653 151.265 154.399 153.313 147.646C155.362 140.894 159.688 135.06 165.555 131.14C171.422 127.22 178.467 125.455 185.49 126.147C192.512 126.839 199.077 129.944 204.067 134.933L182.5 156.5H213Z" fill="white" stroke="black" stroke-width="2" mask="url(#path-47-inside-17)"/>
<mask id="path-48-inside-18" fill="white">
<path d="M213 156.5C213 162.532 211.211 168.429 207.86 173.445C204.508 178.461 199.745 182.37 194.172 184.678C188.599 186.987 182.466 187.591 176.55 186.414C170.633 185.237 165.199 182.332 160.933 178.067C156.668 173.801 153.763 168.367 152.586 162.45C151.409 156.534 152.013 150.401 154.322 144.828C156.63 139.255 160.539 134.492 165.555 131.14C170.571 127.789 176.468 126 182.5 126V156.5H213Z"/>
</mask>
<path d="M213 156.5C213 162.532 211.211 168.429 207.86 173.445C204.508 178.461 199.745 182.37 194.172 184.678C188.599 186.987 182.466 187.591 176.55 186.414C170.633 185.237 165.199 182.332 160.933 178.067C156.668 173.801 153.763 168.367 152.586 162.45C151.409 156.534 152.013 150.401 154.322 144.828C156.63 139.255 160.539 134.492 165.555 131.14C170.571 127.789 176.468 126 182.5 126V156.5H213Z" fill="white" stroke="black" stroke-width="2" mask="url(#path-48-inside-18)"/>
<mask id="path-49-inside-19" fill="white">
<path d="M213 156.5C213 161.854 211.591 167.113 208.914 171.75C206.237 176.387 202.387 180.237 197.75 182.914C193.113 185.591 187.854 187 182.5 187C177.146 187 171.887 185.591 167.25 182.914C162.613 180.237 158.763 176.387 156.086 171.75C153.409 167.113 152 161.854 152 156.5C152 151.146 153.409 145.887 156.086 141.25C158.763 136.613 162.613 132.763 167.25 130.086L182.5 156.5H213Z"/>
</mask>
<path d="M213 156.5C213 161.854 211.591 167.113 208.914 171.75C206.237 176.387 202.387 180.237 197.75 182.914C193.113 185.591 187.854 187 182.5 187C177.146 187 171.887 185.591 167.25 182.914C162.613 180.237 158.763 176.387 156.086 171.75C153.409 167.113 152 161.854 152 156.5C152 151.146 153.409 145.887 156.086 141.25C158.763 136.613 162.613 132.763 167.25 130.086L182.5 156.5H213Z" fill="white" stroke="black" stroke-width="2" mask="url(#path-49-inside-19)"/>
<mask id="path-50-inside-20" fill="white">
<path d="M213 156.5C213 161.854 211.591 167.113 208.914 171.75C206.237 176.387 202.387 180.237 197.75 182.914C193.113 185.591 187.854 187 182.5 187C177.146 187 171.887 185.591 167.25 182.914L182.5 156.5H213Z"/>
</mask>
<path d="M213 156.5C213 161.854 211.591 167.113 208.914 171.75C206.237 176.387 202.387 180.237 197.75 182.914C193.113 185.591 187.854 187 182.5 187C177.146 187 171.887 185.591 167.25 182.914L182.5 156.5H213Z" fill="white" stroke="black" stroke-width="2" mask="url(#path-50-inside-20)"/>
<circle cx="182.5" cy="156.5" r="27" fill="white" stroke="black"/>
<circle cx="182.5" cy="156.5" r="23" fill="white" stroke="black"/>
<circle cx="182.5" cy="156.5" r="15" transform="rotate(150 182.5 156.5)" fill="white" stroke="black"/>
<circle cx="182.5" cy="156.5" r="4" transform="rotate(150 182.5 156.5)" fill="white" stroke="black"/>
<rect x="178.731" y="154.973" width="1" height="10.6258" transform="rotate(105 178.731 154.973)" fill="black"/>
<circle cx="124.5" cy="190.5" r="30" fill="white" stroke="black"/>
<mask id="path-57-inside-21" fill="white">
<path d="M155 190.5C155 197.556 152.553 204.394 148.077 209.849C143.6 215.304 137.371 219.037 130.45 220.414C123.53 221.791 116.346 220.725 110.122 217.399C103.899 214.072 99.022 208.691 96.3217 202.172C93.6213 195.653 93.265 188.399 95.3133 181.646C97.3617 174.894 101.688 169.06 107.555 165.14C113.422 161.22 120.467 159.455 127.49 160.147C134.512 160.839 141.077 163.944 146.067 168.933L124.5 190.5H155Z"/>
</mask>
<path d="M155 190.5C155 197.556 152.553 204.394 148.077 209.849C143.6 215.304 137.371 219.037 130.45 220.414C123.53 221.791 116.346 220.725 110.122 217.399C103.899 214.072 99.022 208.691 96.3217 202.172C93.6213 195.653 93.265 188.399 95.3133 181.646C97.3617 174.894 101.688 169.06 107.555 165.14C113.422 161.22 120.467 159.455 127.49 160.147C134.512 160.839 141.077 163.944 146.067 168.933L124.5 190.5H155Z" fill="white" stroke="black" stroke-width="2" mask="url(#path-57-inside-21)"/>
<mask id="path-58-inside-22" fill="white">
<path d="M155 190.5C155 196.532 153.211 202.429 149.86 207.445C146.508 212.461 141.745 216.37 136.172 218.678C130.599 220.987 124.466 221.591 118.55 220.414C112.633 219.237 107.199 216.332 102.933 212.067C98.6677 207.801 95.7629 202.367 94.586 196.45C93.4092 190.534 94.0132 184.401 96.3217 178.828C98.6301 173.255 102.539 168.492 107.555 165.14C112.571 161.789 118.468 160 124.5 160V190.5H155Z"/>
</mask>
<path d="M155 190.5C155 196.532 153.211 202.429 149.86 207.445C146.508 212.461 141.745 216.37 136.172 218.678C130.599 220.987 124.466 221.591 118.55 220.414C112.633 219.237 107.199 216.332 102.933 212.067C98.6677 207.801 95.7629 202.367 94.586 196.45C93.4092 190.534 94.0132 184.401 96.3217 178.828C98.6301 173.255 102.539 168.492 107.555 165.14C112.571 161.789 118.468 160 124.5 160V190.5H155Z" fill="white" stroke="black" stroke-width="2" mask="url(#path-58-inside-22)"/>
<mask id="path-59-inside-23" fill="white">
<path d="M155 190.5C155 195.854 153.591 201.113 150.914 205.75C148.237 210.387 144.387 214.237 139.75 216.914C135.113 219.591 129.854 221 124.5 221C119.146 221 113.887 219.591 109.25 216.914C104.613 214.237 100.763 210.387 98.0862 205.75C95.4093 201.113 94 195.854 94 190.5C94 185.146 95.4093 179.887 98.0862 175.25C100.763 170.613 104.613 166.763 109.25 164.086L124.5 190.5H155Z"/>
</mask>
<path d="M155 190.5C155 195.854 153.591 201.113 150.914 205.75C148.237 210.387 144.387 214.237 139.75 216.914C135.113 219.591 129.854 221 124.5 221C119.146 221 113.887 219.591 109.25 216.914C104.613 214.237 100.763 210.387 98.0862 205.75C95.4093 201.113 94 195.854 94 190.5C94 185.146 95.4093 179.887 98.0862 175.25C100.763 170.613 104.613 166.763 109.25 164.086L124.5 190.5H155Z" fill="white" stroke="black" stroke-width="2" mask="url(#path-59-inside-23)"/>
<mask id="path-60-inside-24" fill="white">
<path d="M155 190.5C155 195.854 153.591 201.113 150.914 205.75C148.237 210.387 144.387 214.237 139.75 216.914C135.113 219.591 129.854 221 124.5 221C119.146 221 113.887 219.591 109.25 216.914L124.5 190.5H155Z"/>
</mask>
<path d="M155 190.5C155 195.854 153.591 201.113 150.914 205.75C148.237 210.387 144.387 214.237 139.75 216.914C135.113 219.591 129.854 221 124.5 221C119.146 221 113.887 219.591 109.25 216.914L124.5 190.5H155Z" fill="white" stroke="black" stroke-width="2" mask="url(#path-60-inside-24)"/>
<circle cx="124.5" cy="190.5" r="27" fill="white" stroke="black"/>
<circle cx="124.5" cy="190.5" r="23" fill="white" stroke="black"/>
<circle cx="124.5" cy="190.5" r="15" transform="rotate(150 124.5 190.5)" fill="white" stroke="black"/>
<circle cx="124.5" cy="190.5" r="4" transform="rotate(150 124.5 190.5)" fill="white" stroke="black"/>
<rect x="120.731" y="188.973" width="1" height="10.6258" transform="rotate(105 120.731 188.973)" fill="black"/>
<path d="M209.946 159.209L209.523 158.942C209.303 159.29 208.781 159.238 208.634 158.854L208.4 158.247C207.907 156.965 206.093 156.965 205.6 158.247L205.366 158.854C205.219 159.238 204.697 159.29 204.477 158.942L204.129 158.392C203.396 157.231 201.617 157.584 201.383 158.938L201.272 159.579C201.202 159.985 200.701 160.137 200.417 159.839L199.969 159.367L199.606 159.711L199.969 159.367C199.023 158.371 197.347 159.065 197.382 160.438L197.399 161.089C197.409 161.5 196.946 161.748 196.61 161.51L196.079 161.135C194.956 160.343 193.448 161.351 193.751 162.691L193.894 163.326C193.984 163.727 193.579 164.06 193.203 163.893L192.608 163.628C191.353 163.07 190.07 164.353 190.628 165.608L190.893 166.203C191.06 166.579 190.727 166.984 190.326 166.894L189.691 166.751C188.351 166.448 187.343 167.956 188.135 169.079L188.51 169.61C188.748 169.946 188.5 170.409 188.089 170.399L187.438 170.382C186.065 170.347 185.371 172.023 186.367 172.969L186.711 172.606L186.367 172.969L186.839 173.417C187.137 173.701 186.985 174.202 186.579 174.272L185.938 174.383C184.584 174.617 184.231 176.396 185.392 177.129L185.942 177.477L186.209 177.054L185.942 177.477C186.29 177.697 186.238 178.219 185.854 178.366L185.247 178.6C183.965 179.093 183.965 180.907 185.247 181.4L185.854 181.634C186.238 181.781 186.29 182.303 185.942 182.523L185.392 182.871C184.231 183.604 184.584 185.383 185.938 185.617L186.579 185.728C186.985 185.798 187.137 186.299 186.839 186.583L186.367 187.031C185.371 187.977 186.065 189.653 187.438 189.618L188.089 189.601C188.5 189.591 188.748 190.054 188.51 190.39L188.135 190.921C187.343 192.044 188.351 193.552 189.691 193.249L190.326 193.106C190.727 193.016 191.06 193.421 190.893 193.797L190.628 194.392C190.07 195.647 191.353 196.93 192.608 196.372L193.203 196.107C193.579 195.94 193.984 196.273 193.894 196.674L193.751 197.309C193.448 198.649 194.956 199.657 196.079 198.865L196.61 198.49C196.946 198.252 197.409 198.5 197.399 198.911L197.382 199.562C197.347 200.935 199.023 201.629 199.969 200.633L200.417 200.161C200.701 199.863 201.202 200.015 201.272 200.421L201.383 201.062C201.617 202.416 203.396 202.769 204.129 201.608L204.477 201.058C204.697 200.71 205.219 200.762 205.366 201.146L205.6 201.753C206.093 203.035 207.907 203.035 208.4 201.753L208.634 201.146C208.781 200.762 209.303 200.71 209.523 201.058L209.871 201.608C210.604 202.769 212.383 202.416 212.617 201.062L212.728 200.421C212.798 200.015 213.299 199.863 213.583 200.161L214.031 200.633C214.977 201.629 216.653 200.935 216.618 199.562L216.601 198.911C216.591 198.5 217.054 198.252 217.39 198.49L217.921 198.865C219.044 199.657 220.552 198.649 220.249 197.309L220.106 196.674C220.016 196.273 220.421 195.94 220.797 196.107L221.392 196.372C222.647 196.93 223.93 195.647 223.372 194.392L223.107 193.797C222.94 193.421 223.273 193.016 223.674 193.106L224.309 193.249C225.649 193.552 226.657 192.044 225.865 190.921L225.49 190.39C225.252 190.054 225.5 189.591 225.911 189.601L226.562 189.618C227.935 189.653 228.629 187.977 227.633 187.031L227.161 186.583C226.863 186.299 227.015 185.798 227.421 185.728L228.062 185.617C229.416 185.383 229.769 183.604 228.608 182.871L228.058 182.523C227.71 182.303 227.762 181.781 228.146 181.634L228.753 181.4C230.035 180.907 230.035 179.093 228.753 178.6L228.146 178.366C227.762 178.219 227.71 177.697 228.058 177.477L228.608 177.129C229.769 176.396 229.416 174.617 228.062 174.383L227.421 174.272C227.015 174.202 226.863 173.701 227.161 173.417L227.633 172.969C228.629 172.023 227.935 170.347 226.562 170.382L225.911 170.399C225.5 170.409 225.252 169.946 225.49 169.61L225.865 169.079C226.657 167.956 225.649 166.448 224.309 166.751L223.674 166.894C223.273 166.984 222.94 166.579 223.107 166.203L223.372 165.608C223.93 164.353 222.647 163.07 221.392 163.628L220.797 163.893C220.421 164.06 220.016 163.727 220.106 163.326L220.249 162.691C220.552 161.351 219.044 160.343 217.921 161.135L217.39 161.51C217.054 161.748 216.591 161.5 216.601 161.089L216.618 160.438C216.653 159.065 214.977 158.371 214.031 159.367L213.583 159.839C213.299 160.137 212.798 159.985 212.728 159.579L212.617 158.938C212.383 157.584 210.604 157.231 209.871 158.392L209.523 158.942L209.946 159.209Z" fill="white" stroke="black"/>
<path d="M193.673 170.727L196.312 175.145V178H197.406V175.145L200.044 170.727H198.798L196.898 174.033H196.82L194.92 170.727H193.673ZM202.404 178.11C203.942 178.11 204.947 176.984 204.947 175.298C204.947 173.6 203.942 172.474 202.404 172.474C200.866 172.474 199.861 173.6 199.861 175.298C199.861 176.984 200.866 178.11 202.404 178.11ZM202.407 177.219C201.403 177.219 200.934 176.342 200.934 175.294C200.934 174.25 201.403 173.362 202.407 173.362C203.405 173.362 203.874 174.25 203.874 175.294C203.874 176.342 203.405 177.219 202.407 177.219ZM209.587 175.738C209.591 176.665 208.902 177.105 208.305 177.105C207.648 177.105 207.194 176.629 207.194 175.887V172.545H206.132V176.015C206.132 177.368 206.874 178.071 207.922 178.071C208.742 178.071 209.299 177.638 209.551 177.055H209.608V178H210.652V172.545H209.587V175.738ZM212.079 178H213.141V174.669C213.141 173.955 213.691 173.44 214.444 173.44C214.664 173.44 214.913 173.479 214.998 173.504V172.489C214.892 172.474 214.682 172.464 214.547 172.464C213.908 172.464 213.361 172.826 213.162 173.412H213.105V172.545H212.079V178ZM220.004 173.877C219.784 173.028 219.12 172.474 217.941 172.474C216.709 172.474 215.835 173.124 215.835 174.09C215.835 174.864 216.304 175.379 217.327 175.607L218.25 175.809C218.776 175.926 219.021 176.161 219.021 176.501C219.021 176.924 218.57 177.254 217.874 177.254C217.238 177.254 216.83 176.981 216.702 176.445L215.675 176.601C215.853 177.567 216.656 178.11 217.881 178.11C219.198 178.11 220.111 177.411 220.111 176.423C220.111 175.653 219.621 175.177 218.619 174.946L217.753 174.747C217.153 174.605 216.893 174.403 216.897 174.033C216.893 173.614 217.348 173.316 217.952 173.316C218.612 173.316 218.918 173.682 219.042 174.048L220.004 173.877ZM194.484 190H195.581V186.829H198.67V185.888H195.581V183.672H198.994V182.727H194.484V190ZM202.155 190.11C203.693 190.11 204.698 188.984 204.698 187.298C204.698 185.6 203.693 184.474 202.155 184.474C200.617 184.474 199.612 185.6 199.612 187.298C199.612 188.984 200.617 190.11 202.155 190.11ZM202.158 189.219C201.153 189.219 200.685 188.342 200.685 187.294C200.685 186.25 201.153 185.362 202.158 185.362C203.156 185.362 203.625 186.25 203.625 187.294C203.625 188.342 203.156 189.219 202.158 189.219ZM205.883 190H206.945V186.669C206.945 185.955 207.495 185.44 208.248 185.44C208.468 185.44 208.717 185.479 208.802 185.504V184.489C208.695 184.474 208.486 184.464 208.351 184.464C207.712 184.464 207.165 184.826 206.966 185.412H206.909V184.545H205.883V190ZM211.876 190.11C213.066 190.11 213.907 189.524 214.149 188.636L213.144 188.455C212.952 188.97 212.491 189.233 211.887 189.233C210.978 189.233 210.367 188.643 210.339 187.592H214.216V187.216C214.216 185.245 213.037 184.474 211.802 184.474C210.282 184.474 209.28 185.632 209.28 187.308C209.28 189.002 210.267 190.11 211.876 190.11ZM210.342 186.797C210.385 186.023 210.946 185.352 211.809 185.352C212.633 185.352 213.172 185.962 213.176 186.797H210.342ZM220.031 184.545H218.891L217.514 188.743H217.457L216.075 184.545H214.935L216.917 190H218.053L220.031 184.545Z" fill="black"/>
<path d="M44.9457 45.2091L44.523 44.942C44.3033 45.2896 43.7813 45.2382 43.6337 44.8544L43.4 44.2469C42.9069 42.9649 41.0931 42.9649 40.6 44.2469L40.3663 44.8544C40.2187 45.2382 39.6967 45.2896 39.477 44.942L39.1293 44.3917C38.3955 43.2306 36.6166 43.5844 36.3831 44.938L36.2724 45.5794C36.2025 45.9846 35.7005 46.1369 35.4172 45.8388L34.9689 45.367L34.6064 45.7114L34.9689 45.367C34.0227 44.3713 32.347 45.0654 32.382 46.4385L32.3986 47.0892C32.4091 47.5003 31.9465 47.7475 31.6105 47.5104L31.0787 47.1351C29.9564 46.3432 28.4483 47.3509 28.7506 48.6907L28.8938 49.3257C28.9842 49.7268 28.5788 50.0596 28.203 49.8926L27.6082 49.6283C26.353 49.0705 25.0705 50.353 25.6283 51.6082L25.8926 52.203C26.0596 52.5788 25.7268 52.9842 25.3257 52.8938L24.6907 52.7506C23.3509 52.4483 22.3432 53.9564 23.1351 55.0787L23.5104 55.6105C23.7475 55.9465 23.5003 56.4091 23.0892 56.3986L22.4385 56.382C21.0654 56.347 20.3713 58.0227 21.367 58.9689L21.7114 58.6064L21.367 58.9689L21.8388 59.4172C22.1369 59.7005 21.9846 60.2025 21.5794 60.2724L20.938 60.3831C19.5844 60.6166 19.2306 62.3955 20.3917 63.1293L20.942 63.477L21.2091 63.0543L20.942 63.477C21.2896 63.6967 21.2382 64.2187 20.8544 64.3663L20.2469 64.6C18.9649 65.0931 18.9649 66.9069 20.2469 67.4L20.8544 67.6337C21.2382 67.7813 21.2896 68.3033 20.942 68.523L20.3917 68.8707C19.2306 69.6045 19.5844 71.3834 20.938 71.6169L21.5794 71.7276C21.9846 71.7975 22.1369 72.2995 21.8388 72.5828L21.367 73.0311C20.3713 73.9773 21.0654 75.653 22.4385 75.618L23.0892 75.6014C23.5003 75.5909 23.7475 76.0535 23.5104 76.3895L23.1351 76.9213C22.3432 78.0436 23.3509 79.5517 24.6907 79.2494L25.3257 79.1062C25.7268 79.0158 26.0596 79.4212 25.8926 79.797L25.6283 80.3918C25.0705 81.647 26.353 82.9295 27.6082 82.3717L28.203 82.1074C28.5788 81.9404 28.9842 82.2732 28.8938 82.6743L28.7506 83.3093C28.4483 84.6491 29.9564 85.6568 31.0787 84.8649L31.6105 84.4896C31.9465 84.2525 32.4091 84.4997 32.3986 84.9108L32.382 85.5615C32.347 86.9346 34.0227 87.6287 34.9689 86.633L35.4172 86.1612C35.7005 85.8631 36.2025 86.0154 36.2724 86.4206L36.3831 87.062C36.6166 88.4156 38.3955 88.7694 39.1293 87.6083L39.477 87.058C39.6967 86.7104 40.2187 86.7618 40.3663 87.1456L40.6 87.7531C41.0931 89.0351 42.9069 89.0351 43.4 87.7531L43.6337 87.1456C43.7813 86.7618 44.3033 86.7104 44.523 87.058L44.8707 87.6083C45.6045 88.7694 47.3834 88.4156 47.6169 87.062L47.7276 86.4206C47.7975 86.0154 48.2995 85.8631 48.5828 86.1612L49.0311 86.633C49.9773 87.6287 51.653 86.9346 51.618 85.5615L51.6014 84.9108C51.5909 84.4997 52.0535 84.2525 52.3895 84.4896L52.9213 84.8649C54.0436 85.6568 55.5517 84.6492 55.2494 83.3093L55.1062 82.6743C55.0158 82.2732 55.4212 81.9404 55.797 82.1074L56.3918 82.3717C57.647 82.9295 58.9295 81.647 58.3717 80.3918L58.1074 79.797C57.9404 79.4212 58.2732 79.0158 58.6743 79.1062L59.3093 79.2494C60.6491 79.5517 61.6568 78.0436 60.8649 76.9213L60.4896 76.3895C60.2525 76.0535 60.4997 75.5909 60.9108 75.6014L61.5615 75.618C62.9346 75.653 63.6287 73.9773 62.633 73.0311L62.1612 72.5828C61.8631 72.2995 62.0154 71.7975 62.4206 71.7276L63.062 71.6169C64.4156 71.3834 64.7694 69.6045 63.6083 68.8707L63.058 68.523C62.7104 68.3033 62.7618 67.7813 63.1456 67.6337L63.7531 67.4C65.0351 66.9069 65.0351 65.0931 63.7531 64.6L63.1456 64.3663C62.7618 64.2187 62.7104 63.6967 63.058 63.477L63.6083 63.1293C64.7694 62.3955 64.4156 60.6166 63.062 60.3831L62.4206 60.2724C62.0154 60.2025 61.8631 59.7005 62.1612 59.4172L62.633 58.9689C63.6287 58.0227 62.9346 56.347 61.5615 56.382L60.9108 56.3986C60.4997 56.4091 60.2525 55.9465 60.4896 55.6105L60.8649 55.0787C61.6568 53.9564 60.6491 52.4483 59.3093 52.7506L58.6743 52.8938C58.2732 52.9842 57.9404 52.5788 58.1074 52.203L58.3717 51.6082C58.9295 50.353 57.647 49.0705 56.3918 49.6283L55.797 49.8926C55.4212 50.0596 55.0158 49.7268 55.1062 49.3257L55.2494 48.6907C55.5517 47.3509 54.0436 46.3432 52.9213 47.1351L52.3895 47.5104C52.0535 47.7475 51.5909 47.5003 51.6014 47.0892L51.618 46.4385C51.653 45.0654 49.9773 44.3713 49.0311 45.367L48.5828 45.8388C48.2995 46.1369 47.7975 45.9846 47.7276 45.5794L47.6169 44.938C47.3834 43.5844 45.6045 43.2306 44.8707 44.3917L44.523 44.942L44.9457 45.2091Z" fill="#E6E6E6" stroke="black"/>
<path d="M27.8964 57.6719H30.162V64H31.2558V57.6719H33.5249V56.7273H27.8964V57.6719ZM35.7453 60.7614C35.7453 59.8913 36.2957 59.3942 37.0521 59.3942C37.7836 59.3942 38.2204 59.8594 38.2204 60.6584V64H39.2822V60.5305C39.2822 59.1705 38.5365 58.4744 37.4143 58.4744C36.5656 58.4744 36.0542 58.8438 35.7986 59.4332H35.7311V56.7273H34.6835V64H35.7453V60.7614ZM43.05 64.1101C44.2396 64.1101 45.0812 63.5241 45.3227 62.6364L44.3177 62.4553C44.126 62.9702 43.6643 63.233 43.0606 63.233C42.1515 63.233 41.5407 62.6435 41.5123 61.5923H45.3902V61.2159C45.3902 59.245 44.2112 58.4744 42.9754 58.4744C41.4555 58.4744 40.4541 59.6321 40.4541 61.3082C40.4541 63.0021 41.4413 64.1101 43.05 64.1101ZM41.5159 60.7969C41.5585 60.0227 42.1196 59.3516 42.9825 59.3516C43.8064 59.3516 44.3461 59.9624 44.3497 60.7969H41.5159ZM46.5683 64H47.6301V58.5455H46.5683V64ZM47.1045 57.7038C47.4703 57.7038 47.7757 57.4197 47.7757 57.0717C47.7757 56.7237 47.4703 56.4361 47.1045 56.4361C46.7352 56.4361 46.4333 56.7237 46.4333 57.0717C46.4333 57.4197 46.7352 57.7038 47.1045 57.7038ZM49.0585 64H50.1203V60.669C50.1203 59.9553 50.6707 59.4403 51.4236 59.4403C51.6437 59.4403 51.8923 59.4794 51.9775 59.5043V58.4886C51.871 58.4744 51.6615 58.4638 51.5265 58.4638C50.8873 58.4638 50.3405 58.826 50.1416 59.4119H50.0848V58.5455H49.0585V64ZM56.9838 59.8771C56.7636 59.0284 56.0995 58.4744 54.9205 58.4744C53.6883 58.4744 52.8147 59.1243 52.8147 60.0902C52.8147 60.8643 53.2835 61.3793 54.3062 61.6065L55.2295 61.8089C55.7551 61.9261 56.0001 62.1605 56.0001 62.5014C56.0001 62.924 55.5491 63.2543 54.8531 63.2543C54.2174 63.2543 53.809 62.9808 53.6812 62.4446L52.6549 62.6009C52.8325 63.5668 53.635 64.1101 54.8602 64.1101C56.1776 64.1101 57.0903 63.4105 57.0903 62.4233C57.0903 61.6527 56.6002 61.1768 55.5988 60.946L54.7323 60.7472C54.1322 60.6051 53.873 60.4027 53.8765 60.0334C53.873 59.6143 54.3275 59.3161 54.9312 59.3161C55.5917 59.3161 55.8971 59.6818 56.0214 60.0476L56.9838 59.8771ZM29.9836 76H31.0809V72.8288H34.1704V71.8878H31.0809V69.6719H34.4935V68.7273H29.9836V76ZM37.6549 76.1101C39.1926 76.1101 40.1975 74.9844 40.1975 73.2976C40.1975 71.6001 39.1926 70.4744 37.6549 70.4744C36.1173 70.4744 35.1123 71.6001 35.1123 73.2976C35.1123 74.9844 36.1173 76.1101 37.6549 76.1101ZM37.6585 75.2188C36.6535 75.2188 36.1847 74.3416 36.1847 73.294C36.1847 72.25 36.6535 71.3622 37.6585 71.3622C38.6563 71.3622 39.1251 72.25 39.1251 73.294C39.1251 74.3416 38.6563 75.2188 37.6585 75.2188ZM41.3827 76H42.4445V72.669C42.4445 71.9553 42.9949 71.4403 43.7478 71.4403C43.968 71.4403 44.2165 71.4794 44.3018 71.5043V70.4886C44.1952 70.4744 43.9857 70.4638 43.8508 70.4638C43.2116 70.4638 42.6647 70.826 42.4658 71.4119H42.409V70.5455H41.3827V76ZM47.3762 76.1101C48.5658 76.1101 49.4074 75.5241 49.6489 74.6364L48.6439 74.4553C48.4521 74.9702 47.9905 75.233 47.3868 75.233C46.4777 75.233 45.8669 74.6435 45.8385 73.5923H49.7164V73.2159C49.7164 71.245 48.5374 70.4744 47.3016 70.4744C45.7817 70.4744 44.7803 71.6321 44.7803 73.3082C44.7803 75.0021 45.7675 76.1101 47.3762 76.1101ZM45.8421 72.7969C45.8847 72.0227 46.4458 71.3516 47.3087 71.3516C48.1325 71.3516 48.6723 71.9624 48.6759 72.7969H45.8421ZM55.5313 70.5455H54.3914L53.0136 74.7429H52.9568L51.5754 70.5455H50.4355L52.417 76H53.5534L55.5313 70.5455Z" fill="black"/>
</svg>
