<svg width="248" height="248" viewBox="0 0 248 248" fill="none" xmlns="http://www.w3.org/2000/svg">
<rect x="0.5" y="0.5" width="247" height="247" fill="white" stroke="black"/>
<path d="M154 123.5C154 140.345 140.345 154 123.5 154C106.655 154 93 140.345 93 123.5C93 106.655 106.655 93 123.5 93C140.345 93 154 106.655 154 123.5Z" fill="white"/>
<path d="M154 123.5C154 130.556 151.553 137.394 147.077 142.849C142.6 148.304 136.371 152.037 129.45 153.414C122.53 154.791 115.346 153.725 109.122 150.399C102.899 147.072 98.022 141.691 95.3217 135.172C92.6213 128.653 92.265 121.399 94.3133 114.646C96.3617 107.894 100.688 102.061 106.555 98.1402C112.422 94.2199 119.467 92.4553 126.49 93.1469C133.512 93.8386 140.077 96.9437 145.067 101.933L123.5 123.5H154Z" fill="white"/>
<path d="M154 123.5C154 129.532 152.211 135.429 148.86 140.445C145.508 145.461 140.745 149.37 135.172 151.678C129.599 153.987 123.466 154.591 117.55 153.414C111.633 152.237 106.199 149.332 101.933 145.067C97.6678 140.801 94.7629 135.367 93.5861 129.45C92.4092 123.534 93.0132 117.401 95.3217 111.828C97.6302 106.255 101.539 101.492 106.555 98.1402C111.571 94.7888 117.468 93 123.5 93V123.5H154Z" fill="white"/>
<path d="M154 123.5C154 128.854 152.591 134.113 149.914 138.75C147.237 143.387 143.387 147.237 138.75 149.914C134.113 152.591 128.854 154 123.5 154C118.146 154 112.887 152.591 108.25 149.914C103.613 147.237 99.7632 143.387 97.0862 138.75C94.4093 134.113 93 128.854 93 123.5C93 118.146 94.4093 112.887 97.0862 108.25C99.7632 103.613 103.613 99.7632 108.25 97.0863L123.5 123.5H154Z" fill="white"/>
<path d="M154 123.5C154 128.854 152.591 134.113 149.914 138.75C147.237 143.387 143.387 147.237 138.75 149.914C134.113 152.591 128.854 154 123.5 154C118.146 154 112.887 152.591 108.25 149.914L123.5 123.5H154Z" fill="white"/>
<path d="M154 123.5C154 140.345 140.345 154 123.5 154M154 123.5C154 106.655 140.345 93 123.5 93M154 123.5C154 130.556 151.553 137.394 147.077 142.849C142.6 148.304 136.371 152.037 129.45 153.414C122.53 154.791 115.346 153.725 109.122 150.399C102.899 147.072 98.022 141.691 95.3217 135.172C92.6213 128.653 92.265 121.399 94.3133 114.646C96.3617 107.894 100.688 102.061 106.555 98.1402M154 123.5H123.5M154 123.5C154 129.532 152.211 135.429 148.86 140.445C145.508 145.461 140.745 149.37 135.172 151.678C129.599 153.987 123.466 154.591 117.55 153.414C111.633 152.237 106.199 149.332 101.933 145.067C97.6678 140.801 94.7629 135.367 93.5861 129.45C92.4092 123.534 93.0132 117.401 95.3217 111.828C97.6302 106.255 101.539 101.492 106.555 98.1402M154 123.5C154 128.854 152.591 134.113 149.914 138.75C147.237 143.387 143.387 147.237 138.75 149.914C134.113 152.591 128.854 154 123.5 154M123.5 154C106.655 154 93 140.345 93 123.5M123.5 154C118.146 154 112.887 152.591 108.25 149.914M93 123.5C93 106.655 106.655 93 123.5 93M93 123.5C93 128.854 94.4093 134.113 97.0862 138.75C99.7632 143.387 103.613 147.237 108.25 149.914M93 123.5C93 118.146 94.4093 112.887 97.0862 108.25C99.7632 103.613 103.613 99.7632 108.25 97.0863L123.5 123.5M123.5 93C117.468 93 111.571 94.7888 106.555 98.1402M123.5 93V123.5M106.555 98.1402C112.422 94.2199 119.467 92.4553 126.49 93.1469C133.512 93.8386 140.077 96.9437 145.067 101.933L123.5 123.5M123.5 123.5L108.25 149.914" stroke="black"/>
<circle cx="123.5" cy="123.5" r="27" fill="white" stroke="black"/>
<circle cx="123.5" cy="123.5" r="23" fill="white" stroke="black"/>
<circle cx="123.5" cy="123.5" r="15" fill="white" stroke="black"/>
<rect x="123" y="123" width="1" height="16" fill="black"/>
<circle cx="123.5" cy="123.5" r="4" fill="black" stroke="white"/>
</svg>
