<svg width="248" height="248" viewBox="0 0 248 248" fill="none" xmlns="http://www.w3.org/2000/svg">
<rect x="0.5" y="0.5" width="247" height="247" fill="white" stroke="black"/>
<path d="M73 124L247 124" stroke="black"/>
<path d="M73 124C168.075 124 131.608 220 247 220" stroke="black"/>
<path d="M73 124C168.075 124 131.608 28 247 28" stroke="black"/>
<path d="M73 124C168.075 124 168.075 172 247 172" stroke="black"/>
<path d="M73 124C168.075 124 168.075 76 247 76" stroke="black"/>
<rect x="226.5" y="69.5" width="15" height="15" rx="7.5" fill="white" stroke="black"/>
<rect x="166.5" y="190.5" width="9" height="9" rx="4.5" fill="black" stroke="black"/>
<rect x="147.5" y="136.5" width="7" height="7" rx="3.5" fill="black" stroke="black"/>
<rect x="125.5" y="114.5" width="5" height="5" rx="2.5" fill="black" stroke="black"/>
<rect x="204.5" y="118.5" width="11" height="11" fill="black" stroke="black"/>
<rect x="184.5" y="34.5" width="11" height="11" fill="white" stroke="black"/>
<path d="M12 123.5C12 106.655 25.6553 93 42.5 93C59.3447 93 73 106.655 73 123.5C73 140.345 59.3447 154 42.5 154C25.6553 154 12 140.345 12 123.5Z" fill="white"/>
<path d="M12 123.5C12 116.444 14.4467 109.606 18.9232 104.151C23.3997 98.6964 29.629 94.9627 36.5497 93.5861C43.4705 92.2095 50.6545 93.2751 56.8776 96.6014C63.1007 99.9278 67.978 105.309 70.6783 111.828C73.3787 118.347 73.735 125.601 71.6867 132.354C69.6383 139.106 65.312 144.939 59.4449 148.86C53.5778 152.78 46.5328 154.545 39.5105 153.853C32.4881 153.161 25.9228 150.056 20.9332 145.067L42.5 123.5L12 123.5Z" fill="white"/>
<path d="M12 123.5C12 117.468 13.7888 111.571 17.1402 106.555C20.4916 101.539 25.255 97.6302 30.8282 95.3217C36.4013 93.0132 42.5338 92.4092 48.4503 93.5861C54.3667 94.7629 59.8012 97.6678 64.0667 101.933C68.3322 106.199 71.2371 111.633 72.4139 117.55C73.5908 123.466 72.9868 129.599 70.6783 135.172C68.3698 140.745 64.4606 145.508 59.4449 148.86C54.4292 152.211 48.5323 154 42.5 154L42.5 123.5L12 123.5Z" fill="white"/>
<path d="M12 123.5C12 118.146 13.4093 112.887 16.0862 108.25C18.7632 103.613 22.6134 99.7632 27.25 97.0863C31.8866 94.4093 37.1461 93 42.5 93C47.8539 93 53.1134 94.4093 57.75 97.0863C62.3866 99.7632 66.2368 103.613 68.9138 108.25C71.5907 112.887 73 118.146 73 123.5C73 128.854 71.5907 134.113 68.9138 138.75C66.2368 143.387 62.3866 147.237 57.75 149.914L42.5 123.5L12 123.5Z" fill="white"/>
<path d="M12 123.5C12 118.146 13.4093 112.887 16.0862 108.25C18.7632 103.613 22.6134 99.7632 27.25 97.0863C31.8866 94.4093 37.1461 93 42.5 93C47.8539 93 53.1134 94.4093 57.75 97.0863L42.5 123.5L12 123.5Z" fill="white"/>
<path d="M12 123.5C12 106.655 25.6553 93 42.5 93M12 123.5C12 140.345 25.6553 154 42.5 154M12 123.5C12 116.444 14.4467 109.606 18.9232 104.151C23.3997 98.6964 29.629 94.9627 36.5497 93.5861C43.4705 92.2095 50.6545 93.2751 56.8776 96.6014C63.1007 99.9278 67.978 105.309 70.6783 111.828C73.3787 118.347 73.735 125.601 71.6867 132.354C69.6383 139.106 65.312 144.939 59.4449 148.86M12 123.5L42.5 123.5M12 123.5C12 117.468 13.7888 111.571 17.1402 106.555C20.4916 101.539 25.255 97.6302 30.8282 95.3217C36.4013 93.0132 42.5338 92.4092 48.4503 93.5861C54.3667 94.7629 59.8012 97.6678 64.0667 101.933C68.3322 106.199 71.2371 111.633 72.4139 117.55C73.5908 123.466 72.9868 129.599 70.6783 135.172C68.3698 140.745 64.4606 145.508 59.4449 148.86M12 123.5C12 118.146 13.4093 112.887 16.0862 108.25C18.7632 103.613 22.6134 99.7632 27.25 97.0863C31.8866 94.4093 37.1461 93 42.5 93M42.5 93C59.3447 93 73 106.655 73 123.5M42.5 93C47.8539 93 53.1134 94.4093 57.75 97.0863M73 123.5C73 140.345 59.3447 154 42.5 154M73 123.5C73 118.146 71.5907 112.887 68.9138 108.25C66.2368 103.613 62.3866 99.7632 57.75 97.0863M73 123.5C73 128.854 71.5907 134.113 68.9138 138.75C66.2368 143.387 62.3866 147.237 57.75 149.914L42.5 123.5M42.5 154C48.5323 154 54.4292 152.211 59.4449 148.86M42.5 154L42.5 123.5M59.4449 148.86C53.5778 152.78 46.5328 154.545 39.5105 153.853C32.4881 153.161 25.9228 150.056 20.9332 145.067L42.5 123.5M42.5 123.5L57.75 97.0863" stroke="black"/>
<circle cx="42.5" cy="123.5" r="27" fill="white" stroke="black"/>
<circle cx="42.5" cy="123.5" r="23" fill="white" stroke="black"/>
<circle cx="42.5" cy="123.5" r="15" transform="rotate(-90 42.5 123.5)" fill="white" stroke="black"/>
<rect x="42" y="124" width="1" height="16" transform="rotate(-90 42 124)" fill="black"/>
<circle cx="42.5" cy="123.5" r="4" transform="rotate(-90 42.5 123.5)" fill="black" stroke="white"/>
</svg>
