<svg width="248" height="248" viewBox="0 0 248 248" fill="none" xmlns="http://www.w3.org/2000/svg">
<path d="M0.5 0.5H247.5V247.5H0.5V0.5Z" fill="white" stroke="black"/>
<mask id="mask0" mask-type="alpha" maskUnits="userSpaceOnUse" x="0" y="0" width="248" height="248">
<path d="M0.5 0.5H247.5V247.5H0.5V0.5Z" fill="white" stroke="black"/>
</mask>
<g mask="url(#mask0)">
<circle cx="123.5" cy="158.5" r="30" fill="white" stroke="black"/>
<mask id="path-4-inside-1" fill="white">
<path d="M154 158.5C154 165.556 151.553 172.394 147.077 177.849C142.6 183.304 136.371 187.037 129.45 188.414C122.53 189.791 115.346 188.725 109.122 185.399C102.899 182.072 98.022 176.691 95.3217 170.172C92.6213 163.653 92.265 156.399 94.3133 149.646C96.3617 142.894 100.688 137.06 106.555 133.14C112.422 129.22 119.467 127.455 126.49 128.147C133.512 128.839 140.077 131.944 145.067 136.933L123.5 158.5H154Z"/>
</mask>
<path d="M154 158.5C154 165.556 151.553 172.394 147.077 177.849C142.6 183.304 136.371 187.037 129.45 188.414C122.53 189.791 115.346 188.725 109.122 185.399C102.899 182.072 98.022 176.691 95.3217 170.172C92.6213 163.653 92.265 156.399 94.3133 149.646C96.3617 142.894 100.688 137.06 106.555 133.14C112.422 129.22 119.467 127.455 126.49 128.147C133.512 128.839 140.077 131.944 145.067 136.933L123.5 158.5H154Z" fill="white" stroke="black" stroke-width="2" mask="url(#path-4-inside-1)"/>
<mask id="path-5-inside-2" fill="white">
<path d="M154 158.5C154 164.532 152.211 170.429 148.86 175.445C145.508 180.461 140.745 184.37 135.172 186.678C129.599 188.987 123.466 189.591 117.55 188.414C111.633 187.237 106.199 184.332 101.933 180.067C97.6677 175.801 94.7629 170.367 93.586 164.45C92.4092 158.534 93.0132 152.401 95.3217 146.828C97.6301 141.255 101.539 136.492 106.555 133.14C111.571 129.789 117.468 128 123.5 128L123.5 158.5H154Z"/>
</mask>
<path d="M154 158.5C154 164.532 152.211 170.429 148.86 175.445C145.508 180.461 140.745 184.37 135.172 186.678C129.599 188.987 123.466 189.591 117.55 188.414C111.633 187.237 106.199 184.332 101.933 180.067C97.6677 175.801 94.7629 170.367 93.586 164.45C92.4092 158.534 93.0132 152.401 95.3217 146.828C97.6301 141.255 101.539 136.492 106.555 133.14C111.571 129.789 117.468 128 123.5 128L123.5 158.5H154Z" fill="white" stroke="black" stroke-width="2" mask="url(#path-5-inside-2)"/>
<mask id="path-6-inside-3" fill="white">
<path d="M154 158.5C154 163.854 152.591 169.113 149.914 173.75C147.237 178.387 143.387 182.237 138.75 184.914C134.113 187.591 128.854 189 123.5 189C118.146 189 112.887 187.591 108.25 184.914C103.613 182.237 99.7632 178.387 97.0862 173.75C94.4093 169.113 93 163.854 93 158.5C93 153.146 94.4093 147.887 97.0862 143.25C99.7632 138.613 103.613 134.763 108.25 132.086L123.5 158.5H154Z"/>
</mask>
<path d="M154 158.5C154 163.854 152.591 169.113 149.914 173.75C147.237 178.387 143.387 182.237 138.75 184.914C134.113 187.591 128.854 189 123.5 189C118.146 189 112.887 187.591 108.25 184.914C103.613 182.237 99.7632 178.387 97.0862 173.75C94.4093 169.113 93 163.854 93 158.5C93 153.146 94.4093 147.887 97.0862 143.25C99.7632 138.613 103.613 134.763 108.25 132.086L123.5 158.5H154Z" fill="white" stroke="black" stroke-width="2" mask="url(#path-6-inside-3)"/>
<mask id="path-7-inside-4" fill="white">
<path d="M154 158.5C154 163.854 152.591 169.113 149.914 173.75C147.237 178.387 143.387 182.237 138.75 184.914C134.113 187.591 128.854 189 123.5 189C118.146 189 112.887 187.591 108.25 184.914L123.5 158.5H154Z"/>
</mask>
<path d="M154 158.5C154 163.854 152.591 169.113 149.914 173.75C147.237 178.387 143.387 182.237 138.75 184.914C134.113 187.591 128.854 189 123.5 189C118.146 189 112.887 187.591 108.25 184.914L123.5 158.5H154Z" fill="white" stroke="black" stroke-width="2" mask="url(#path-7-inside-4)"/>
<circle cx="123.5" cy="158.5" r="27" fill="white" stroke="black"/>
<circle cx="123.5" cy="158.5" r="23" fill="white" stroke="black"/>
<circle cx="123.5" cy="158.5" r="15" transform="rotate(-45 123.5 158.5)" fill="white" stroke="black"/>
<rect x="127.536" y="159" width="1" height="10.6258" transform="rotate(-90 127.536 159)" fill="black"/>
<circle cx="123.5" cy="158.5" r="4" transform="rotate(-45 123.5 158.5)" fill="white" stroke="black"/>
<circle cx="123.5" cy="127.5" r="30" fill="white" stroke="black"/>
<mask id="path-14-inside-5" fill="white">
<path d="M154 127.5C154 134.556 151.553 141.394 147.077 146.849C142.6 152.304 136.371 156.037 129.45 157.414C122.53 158.791 115.346 157.725 109.122 154.399C102.899 151.072 98.022 145.691 95.3217 139.172C92.6213 132.653 92.265 125.399 94.3133 118.646C96.3617 111.894 100.688 106.06 106.555 102.14C112.422 98.2199 119.467 96.4552 126.49 97.1469C133.512 97.8385 140.077 100.944 145.067 105.933L123.5 127.5L154 127.5Z"/>
</mask>
<path d="M154 127.5C154 134.556 151.553 141.394 147.077 146.849C142.6 152.304 136.371 156.037 129.45 157.414C122.53 158.791 115.346 157.725 109.122 154.399C102.899 151.072 98.022 145.691 95.3217 139.172C92.6213 132.653 92.265 125.399 94.3133 118.646C96.3617 111.894 100.688 106.06 106.555 102.14C112.422 98.2199 119.467 96.4552 126.49 97.1469C133.512 97.8385 140.077 100.944 145.067 105.933L123.5 127.5L154 127.5Z" fill="white" stroke="black" stroke-width="2" mask="url(#path-14-inside-5)"/>
<mask id="path-15-inside-6" fill="white">
<path d="M154 127.5C154 133.532 152.211 139.429 148.86 144.445C145.508 149.461 140.745 153.37 135.172 155.678C129.599 157.987 123.466 158.591 117.55 157.414C111.633 156.237 106.199 153.332 101.933 149.067C97.6677 144.801 94.7629 139.367 93.586 133.45C92.4092 127.534 93.0132 121.401 95.3217 115.828C97.6301 110.255 101.539 105.492 106.555 102.14C111.571 98.7888 117.468 97 123.5 97L123.5 127.5H154Z"/>
</mask>
<path d="M154 127.5C154 133.532 152.211 139.429 148.86 144.445C145.508 149.461 140.745 153.37 135.172 155.678C129.599 157.987 123.466 158.591 117.55 157.414C111.633 156.237 106.199 153.332 101.933 149.067C97.6677 144.801 94.7629 139.367 93.586 133.45C92.4092 127.534 93.0132 121.401 95.3217 115.828C97.6301 110.255 101.539 105.492 106.555 102.14C111.571 98.7888 117.468 97 123.5 97L123.5 127.5H154Z" fill="white" stroke="black" stroke-width="2" mask="url(#path-15-inside-6)"/>
<mask id="path-16-inside-7" fill="white">
<path d="M154 127.5C154 132.854 152.591 138.113 149.914 142.75C147.237 147.387 143.387 151.237 138.75 153.914C134.113 156.591 128.854 158 123.5 158C118.146 158 112.887 156.591 108.25 153.914C103.613 151.237 99.7632 147.387 97.0862 142.75C94.4093 138.113 93 132.854 93 127.5C93 122.146 94.4093 116.887 97.0862 112.25C99.7632 107.613 103.613 103.763 108.25 101.086L123.5 127.5L154 127.5Z"/>
</mask>
<path d="M154 127.5C154 132.854 152.591 138.113 149.914 142.75C147.237 147.387 143.387 151.237 138.75 153.914C134.113 156.591 128.854 158 123.5 158C118.146 158 112.887 156.591 108.25 153.914C103.613 151.237 99.7632 147.387 97.0862 142.75C94.4093 138.113 93 132.854 93 127.5C93 122.146 94.4093 116.887 97.0862 112.25C99.7632 107.613 103.613 103.763 108.25 101.086L123.5 127.5L154 127.5Z" fill="white" stroke="black" stroke-width="2" mask="url(#path-16-inside-7)"/>
<mask id="path-17-inside-8" fill="white">
<path d="M154 127.5C154 132.854 152.591 138.113 149.914 142.75C147.237 147.387 143.387 151.237 138.75 153.914C134.113 156.591 128.854 158 123.5 158C118.146 158 112.887 156.591 108.25 153.914L123.5 127.5L154 127.5Z"/>
</mask>
<path d="M154 127.5C154 132.854 152.591 138.113 149.914 142.75C147.237 147.387 143.387 151.237 138.75 153.914C134.113 156.591 128.854 158 123.5 158C118.146 158 112.887 156.591 108.25 153.914L123.5 127.5L154 127.5Z" fill="white" stroke="black" stroke-width="2" mask="url(#path-17-inside-8)"/>
<circle cx="123.5" cy="127.5" r="27" fill="white" stroke="black"/>
<circle cx="123.5" cy="127.5" r="23" fill="white" stroke="black"/>
<circle cx="123.5" cy="127.5" r="15" fill="white" stroke="black"/>
<rect x="126" y="130.707" width="1" height="10.6258" transform="rotate(-45 126 130.707)" fill="black"/>
<circle cx="123.5" cy="127.5" r="4" fill="white" stroke="black"/>
<circle cx="123.5" cy="97.5" r="30" fill="white" stroke="black"/>
<mask id="path-24-inside-9" fill="white">
<path d="M154 97.5C154 104.556 151.553 111.394 147.077 116.849C142.6 122.304 136.371 126.037 129.45 127.414C122.53 128.791 115.346 127.725 109.122 124.399C102.899 121.072 98.022 115.691 95.3217 109.172C92.6213 102.653 92.265 95.3988 94.3133 88.6463C96.3617 81.8938 100.688 76.0605 106.555 72.1402C112.422 68.2199 119.467 66.4552 126.49 67.1469C133.512 67.8385 140.077 70.9437 145.067 75.9332L123.5 97.5L154 97.5Z"/>
</mask>
<path d="M154 97.5C154 104.556 151.553 111.394 147.077 116.849C142.6 122.304 136.371 126.037 129.45 127.414C122.53 128.791 115.346 127.725 109.122 124.399C102.899 121.072 98.022 115.691 95.3217 109.172C92.6213 102.653 92.265 95.3988 94.3133 88.6463C96.3617 81.8938 100.688 76.0605 106.555 72.1402C112.422 68.2199 119.467 66.4552 126.49 67.1469C133.512 67.8385 140.077 70.9437 145.067 75.9332L123.5 97.5L154 97.5Z" fill="white" stroke="black" stroke-width="2" mask="url(#path-24-inside-9)"/>
<mask id="path-25-inside-10" fill="white">
<path d="M154 97.5C154 103.532 152.211 109.429 148.86 114.445C145.508 119.461 140.745 123.37 135.172 125.678C129.599 127.987 123.466 128.591 117.55 127.414C111.633 126.237 106.199 123.332 101.933 119.067C97.6677 114.801 94.7629 109.367 93.586 103.45C92.4092 97.5338 93.0132 91.4013 95.3217 85.8282C97.6301 80.255 101.539 75.4916 106.555 72.1402C111.571 68.7888 117.468 67 123.5 67L123.5 97.5H154Z"/>
</mask>
<path d="M154 97.5C154 103.532 152.211 109.429 148.86 114.445C145.508 119.461 140.745 123.37 135.172 125.678C129.599 127.987 123.466 128.591 117.55 127.414C111.633 126.237 106.199 123.332 101.933 119.067C97.6677 114.801 94.7629 109.367 93.586 103.45C92.4092 97.5338 93.0132 91.4013 95.3217 85.8282C97.6301 80.255 101.539 75.4916 106.555 72.1402C111.571 68.7888 117.468 67 123.5 67L123.5 97.5H154Z" fill="white" stroke="black" stroke-width="2" mask="url(#path-25-inside-10)"/>
<mask id="path-26-inside-11" fill="white">
<path d="M154 97.5C154 102.854 152.591 108.113 149.914 112.75C147.237 117.387 143.387 121.237 138.75 123.914C134.113 126.591 128.854 128 123.5 128C118.146 128 112.887 126.591 108.25 123.914C103.613 121.237 99.7632 117.387 97.0862 112.75C94.4093 108.113 93 102.854 93 97.5C93 92.1461 94.4093 86.8866 97.0862 82.25C99.7632 77.6134 103.613 73.7632 108.25 71.0862L123.5 97.5L154 97.5Z"/>
</mask>
<path d="M154 97.5C154 102.854 152.591 108.113 149.914 112.75C147.237 117.387 143.387 121.237 138.75 123.914C134.113 126.591 128.854 128 123.5 128C118.146 128 112.887 126.591 108.25 123.914C103.613 121.237 99.7632 117.387 97.0862 112.75C94.4093 108.113 93 102.854 93 97.5C93 92.1461 94.4093 86.8866 97.0862 82.25C99.7632 77.6134 103.613 73.7632 108.25 71.0862L123.5 97.5L154 97.5Z" fill="white" stroke="black" stroke-width="2" mask="url(#path-26-inside-11)"/>
<mask id="path-27-inside-12" fill="white">
<path d="M154 97.5C154 102.854 152.591 108.113 149.914 112.75C147.237 117.387 143.387 121.237 138.75 123.914C134.113 126.591 128.854 128 123.5 128C118.146 128 112.887 126.591 108.25 123.914L123.5 97.5L154 97.5Z"/>
</mask>
<path d="M154 97.5C154 102.854 152.591 108.113 149.914 112.75C147.237 117.387 143.387 121.237 138.75 123.914C134.113 126.591 128.854 128 123.5 128C118.146 128 112.887 126.591 108.25 123.914L123.5 97.5L154 97.5Z" fill="white" stroke="black" stroke-width="2" mask="url(#path-27-inside-12)"/>
<circle cx="123.5" cy="97.5" r="27" fill="white" stroke="black"/>
<circle cx="123.5" cy="97.5" r="23" fill="white" stroke="black"/>
<circle cx="123.5" cy="97.5" r="15" transform="rotate(112.486 123.5 97.5)" fill="white" stroke="black"/>
<rect x="119.581" y="98.5834" width="1" height="10.6258" transform="rotate(67.4855 119.581 98.5834)" fill="black"/>
<circle cx="123.5" cy="97.5" r="4" transform="rotate(112.486 123.5 97.5)" fill="white" stroke="black"/>
<circle cx="123.5" cy="66.5" r="30" fill="white" stroke="black"/>
<mask id="path-34-inside-13" fill="white">
<path d="M154 66.5C154 73.5563 151.553 80.3944 147.077 85.849C142.6 91.3036 136.371 95.0373 129.45 96.414C122.53 97.7906 115.346 96.7249 109.122 93.3986C102.899 90.0723 98.022 84.6911 95.3217 78.1718C92.6213 71.6526 92.265 64.3988 94.3133 57.6463C96.3617 50.8938 100.688 45.0605 106.555 41.1402C112.422 37.2199 119.467 35.4552 126.49 36.1469C133.512 36.8385 140.077 39.9437 145.067 44.9332L123.5 66.5L154 66.5Z"/>
</mask>
<path d="M154 66.5C154 73.5563 151.553 80.3944 147.077 85.849C142.6 91.3036 136.371 95.0373 129.45 96.414C122.53 97.7906 115.346 96.7249 109.122 93.3986C102.899 90.0723 98.022 84.6911 95.3217 78.1718C92.6213 71.6526 92.265 64.3988 94.3133 57.6463C96.3617 50.8938 100.688 45.0605 106.555 41.1402C112.422 37.2199 119.467 35.4552 126.49 36.1469C133.512 36.8385 140.077 39.9437 145.067 44.9332L123.5 66.5L154 66.5Z" fill="white" stroke="black" stroke-width="2" mask="url(#path-34-inside-13)"/>
<mask id="path-35-inside-14" fill="white">
<path d="M154 66.5C154 72.5323 152.211 78.4292 148.86 83.4449C145.508 88.4606 140.745 92.3699 135.172 94.6783C129.599 96.9868 123.466 97.5908 117.55 96.414C111.633 95.2371 106.199 92.3323 101.933 88.0668C97.6677 83.8013 94.7629 78.3667 93.586 72.4503C92.4092 66.5338 93.0132 60.4013 95.3217 54.8282C97.6301 49.255 101.539 44.4916 106.555 41.1402C111.571 37.7888 117.468 36 123.5 36L123.5 66.5H154Z"/>
</mask>
<path d="M154 66.5C154 72.5323 152.211 78.4292 148.86 83.4449C145.508 88.4606 140.745 92.3699 135.172 94.6783C129.599 96.9868 123.466 97.5908 117.55 96.414C111.633 95.2371 106.199 92.3323 101.933 88.0668C97.6677 83.8013 94.7629 78.3667 93.586 72.4503C92.4092 66.5338 93.0132 60.4013 95.3217 54.8282C97.6301 49.255 101.539 44.4916 106.555 41.1402C111.571 37.7888 117.468 36 123.5 36L123.5 66.5H154Z" fill="white" stroke="black" stroke-width="2" mask="url(#path-35-inside-14)"/>
<mask id="path-36-inside-15" fill="white">
<path d="M154 66.5C154 71.8539 152.591 77.1134 149.914 81.75C147.237 86.3866 143.387 90.2368 138.75 92.9138C134.113 95.5907 128.854 97 123.5 97C118.146 97 112.887 95.5907 108.25 92.9138C103.613 90.2368 99.7632 86.3866 97.0862 81.75C94.4093 77.1134 93 71.8539 93 66.5C93 61.1461 94.4093 55.8866 97.0862 51.25C99.7632 46.6134 103.613 42.7632 108.25 40.0862L123.5 66.5L154 66.5Z"/>
</mask>
<path d="M154 66.5C154 71.8539 152.591 77.1134 149.914 81.75C147.237 86.3866 143.387 90.2368 138.75 92.9138C134.113 95.5907 128.854 97 123.5 97C118.146 97 112.887 95.5907 108.25 92.9138C103.613 90.2368 99.7632 86.3866 97.0862 81.75C94.4093 77.1134 93 71.8539 93 66.5C93 61.1461 94.4093 55.8866 97.0862 51.25C99.7632 46.6134 103.613 42.7632 108.25 40.0862L123.5 66.5L154 66.5Z" fill="white" stroke="black" stroke-width="2" mask="url(#path-36-inside-15)"/>
<mask id="path-37-inside-16" fill="white">
<path d="M154 66.5C154 71.8539 152.591 77.1134 149.914 81.75C147.237 86.3866 143.387 90.2368 138.75 92.9138C134.113 95.5907 128.854 97 123.5 97C118.146 97 112.887 95.5907 108.25 92.9138L123.5 66.5L154 66.5Z"/>
</mask>
<path d="M154 66.5C154 71.8539 152.591 77.1134 149.914 81.75C147.237 86.3866 143.387 90.2368 138.75 92.9138C134.113 95.5907 128.854 97 123.5 97C118.146 97 112.887 95.5907 108.25 92.9138L123.5 66.5L154 66.5Z" fill="white" stroke="black" stroke-width="2" mask="url(#path-37-inside-16)"/>
<circle cx="123.5" cy="66.5" r="27" fill="white" stroke="black"/>
<circle cx="123.5" cy="66.5" r="23" fill="white" stroke="black"/>
<circle cx="123.5" cy="66.5" r="15" transform="rotate(23.7852 123.5 66.5)" fill="white" stroke="black"/>
<rect x="124.494" y="70.4429" width="1" height="10.6258" transform="rotate(-21.2148 124.494 70.4429)" fill="black"/>
<circle cx="123.5" cy="66.5" r="4" transform="rotate(23.7852 123.5 66.5)" fill="white" stroke="black"/>
<circle cx="123.5" cy="35.5" r="30" fill="white" stroke="black"/>
<mask id="path-44-inside-17" fill="white">
<path d="M154 35.5C154 42.5563 151.553 49.3944 147.077 54.849C142.6 60.3036 136.371 64.0373 129.45 65.414C122.53 66.7906 115.346 65.7249 109.122 62.3986C102.899 59.0723 98.022 53.6911 95.3217 47.1718C92.6213 40.6526 92.265 33.3988 94.3133 26.6463C96.3617 19.8938 100.688 14.0605 106.555 10.1402C112.422 6.21989 119.467 4.45522 126.49 5.14687C133.512 5.83851 140.077 8.94366 145.067 13.9332L123.5 35.5L154 35.5Z"/>
</mask>
<path d="M154 35.5C154 42.5563 151.553 49.3944 147.077 54.849C142.6 60.3036 136.371 64.0373 129.45 65.414C122.53 66.7906 115.346 65.7249 109.122 62.3986C102.899 59.0723 98.022 53.6911 95.3217 47.1718C92.6213 40.6526 92.265 33.3988 94.3133 26.6463C96.3617 19.8938 100.688 14.0605 106.555 10.1402C112.422 6.21989 119.467 4.45522 126.49 5.14687C133.512 5.83851 140.077 8.94366 145.067 13.9332L123.5 35.5L154 35.5Z" fill="white" stroke="black" stroke-width="2" mask="url(#path-44-inside-17)"/>
<mask id="path-45-inside-18" fill="white">
<path d="M154 35.5C154 41.5323 152.211 47.4292 148.86 52.4449C145.508 57.4606 140.745 61.3699 135.172 63.6783C129.599 65.9868 123.466 66.5908 117.55 65.414C111.633 64.2371 106.199 61.3323 101.933 57.0668C97.6677 52.8013 94.7629 47.3667 93.586 41.4503C92.4092 35.5338 93.0132 29.4013 95.3217 23.8282C97.6301 18.255 101.539 13.4916 106.555 10.1402C111.571 6.78879 117.468 5 123.5 5L123.5 35.5L154 35.5Z"/>
</mask>
<path d="M154 35.5C154 41.5323 152.211 47.4292 148.86 52.4449C145.508 57.4606 140.745 61.3699 135.172 63.6783C129.599 65.9868 123.466 66.5908 117.55 65.414C111.633 64.2371 106.199 61.3323 101.933 57.0668C97.6677 52.8013 94.7629 47.3667 93.586 41.4503C92.4092 35.5338 93.0132 29.4013 95.3217 23.8282C97.6301 18.255 101.539 13.4916 106.555 10.1402C111.571 6.78879 117.468 5 123.5 5L123.5 35.5L154 35.5Z" fill="white" stroke="black" stroke-width="2" mask="url(#path-45-inside-18)"/>
<mask id="path-46-inside-19" fill="white">
<path d="M154 35.5C154 40.8539 152.591 46.1134 149.914 50.75C147.237 55.3866 143.387 59.2368 138.75 61.9138C134.113 64.5907 128.854 66 123.5 66C118.146 66 112.887 64.5907 108.25 61.9138C103.613 59.2368 99.7632 55.3866 97.0862 50.75C94.4093 46.1134 93 40.8539 93 35.5C93 30.1461 94.4093 24.8866 97.0862 20.25C99.7632 15.6134 103.613 11.7632 108.25 9.08622L123.5 35.5L154 35.5Z"/>
</mask>
<path d="M154 35.5C154 40.8539 152.591 46.1134 149.914 50.75C147.237 55.3866 143.387 59.2368 138.75 61.9138C134.113 64.5907 128.854 66 123.5 66C118.146 66 112.887 64.5907 108.25 61.9138C103.613 59.2368 99.7632 55.3866 97.0862 50.75C94.4093 46.1134 93 40.8539 93 35.5C93 30.1461 94.4093 24.8866 97.0862 20.25C99.7632 15.6134 103.613 11.7632 108.25 9.08622L123.5 35.5L154 35.5Z" fill="white" stroke="black" stroke-width="2" mask="url(#path-46-inside-19)"/>
<mask id="path-47-inside-20" fill="white">
<path d="M154 35.5C154 40.8539 152.591 46.1134 149.914 50.75C147.237 55.3866 143.387 59.2368 138.75 61.9138C134.113 64.5907 128.854 66 123.5 66C118.146 66 112.887 64.5907 108.25 61.9138L123.5 35.5L154 35.5Z"/>
</mask>
<path d="M154 35.5C154 40.8539 152.591 46.1134 149.914 50.75C147.237 55.3866 143.387 59.2368 138.75 61.9138C134.113 64.5907 128.854 66 123.5 66C118.146 66 112.887 64.5907 108.25 61.9138L123.5 35.5L154 35.5Z" fill="white" stroke="black" stroke-width="2" mask="url(#path-47-inside-20)"/>
<circle cx="123.5" cy="35.5" r="27" fill="white" stroke="black"/>
<circle cx="123.5" cy="35.5" r="23" fill="white" stroke="black"/>
<circle cx="123.5" cy="35.5" r="15" transform="rotate(61.9829 123.5 35.5)" fill="white" stroke="black"/>
<rect x="121.843" y="39.2135" width="1" height="10.6258" transform="rotate(16.9829 121.843 39.2135)" fill="black"/>
<circle cx="123.5" cy="35.5" r="4" transform="rotate(61.9829 123.5 35.5)" fill="white" stroke="black"/>
<circle cx="123.5" cy="5.5" r="30" fill="white" stroke="black"/>
<mask id="path-54-inside-21" fill="white">
<path d="M154 5.5C154 12.5563 151.553 19.3944 147.077 24.849C142.6 30.3036 136.371 34.0373 129.45 35.414C122.53 36.7906 115.346 35.7249 109.122 32.3986C102.899 29.0723 98.022 23.6911 95.3217 17.1718C92.6213 10.6526 92.265 3.39881 94.3133 -3.35368C96.3617 -10.1062 100.688 -15.9395 106.555 -19.8598C112.422 -23.7801 119.467 -25.5448 126.49 -24.8531C133.512 -24.1615 140.077 -21.0563 145.067 -16.0668L123.5 5.5L154 5.5Z"/>
</mask>
<path d="M154 5.5C154 12.5563 151.553 19.3944 147.077 24.849C142.6 30.3036 136.371 34.0373 129.45 35.414C122.53 36.7906 115.346 35.7249 109.122 32.3986C102.899 29.0723 98.022 23.6911 95.3217 17.1718C92.6213 10.6526 92.265 3.39881 94.3133 -3.35368C96.3617 -10.1062 100.688 -15.9395 106.555 -19.8598C112.422 -23.7801 119.467 -25.5448 126.49 -24.8531C133.512 -24.1615 140.077 -21.0563 145.067 -16.0668L123.5 5.5L154 5.5Z" fill="white" stroke="black" stroke-width="2" mask="url(#path-54-inside-21)"/>
<mask id="path-55-inside-22" fill="white">
<path d="M154 5.5C154 11.5323 152.211 17.4292 148.86 22.4449C145.508 27.4606 140.745 31.3699 135.172 33.6783C129.599 35.9868 123.466 36.5908 117.55 35.414C111.633 34.2371 106.199 31.3323 101.933 27.0668C97.6677 22.8013 94.7629 17.3667 93.586 11.4503C92.4092 5.53383 93.0132 -0.598699 95.3217 -6.17184C97.6301 -11.745 101.539 -16.5084 106.555 -19.8598C111.571 -23.2112 117.468 -25 123.5 -25L123.5 5.5L154 5.5Z"/>
</mask>
<path d="M154 5.5C154 11.5323 152.211 17.4292 148.86 22.4449C145.508 27.4606 140.745 31.3699 135.172 33.6783C129.599 35.9868 123.466 36.5908 117.55 35.414C111.633 34.2371 106.199 31.3323 101.933 27.0668C97.6677 22.8013 94.7629 17.3667 93.586 11.4503C92.4092 5.53383 93.0132 -0.598699 95.3217 -6.17184C97.6301 -11.745 101.539 -16.5084 106.555 -19.8598C111.571 -23.2112 117.468 -25 123.5 -25L123.5 5.5L154 5.5Z" fill="white" stroke="black" stroke-width="2" mask="url(#path-55-inside-22)"/>
<mask id="path-56-inside-23" fill="white">
<path d="M154 5.5C154 10.8539 152.591 16.1134 149.914 20.75C147.237 25.3866 143.387 29.2368 138.75 31.9138C134.113 34.5907 128.854 36 123.5 36C118.146 36 112.887 34.5907 108.25 31.9138C103.613 29.2368 99.7632 25.3866 97.0862 20.75C94.4093 16.1134 93 10.8539 93 5.5C93 0.146129 94.4093 -5.11342 97.0862 -9.75C99.7632 -14.3866 103.613 -18.2368 108.25 -20.9138L123.5 5.5L154 5.5Z"/>
</mask>
<path d="M154 5.5C154 10.8539 152.591 16.1134 149.914 20.75C147.237 25.3866 143.387 29.2368 138.75 31.9138C134.113 34.5907 128.854 36 123.5 36C118.146 36 112.887 34.5907 108.25 31.9138C103.613 29.2368 99.7632 25.3866 97.0862 20.75C94.4093 16.1134 93 10.8539 93 5.5C93 0.146129 94.4093 -5.11342 97.0862 -9.75C99.7632 -14.3866 103.613 -18.2368 108.25 -20.9138L123.5 5.5L154 5.5Z" fill="white" stroke="black" stroke-width="2" mask="url(#path-56-inside-23)"/>
<mask id="path-57-inside-24" fill="white">
<path d="M154 5.5C154 10.8539 152.591 16.1134 149.914 20.75C147.237 25.3866 143.387 29.2368 138.75 31.9138C134.113 34.5907 128.854 36 123.5 36C118.146 36 112.887 34.5907 108.25 31.9138L123.5 5.5L154 5.5Z"/>
</mask>
<path d="M154 5.5C154 10.8539 152.591 16.1134 149.914 20.75C147.237 25.3866 143.387 29.2368 138.75 31.9138C134.113 34.5907 128.854 36 123.5 36C118.146 36 112.887 34.5907 108.25 31.9138L123.5 5.5L154 5.5Z" fill="white" stroke="black" stroke-width="2" mask="url(#path-57-inside-24)"/>
<circle cx="123.5" cy="5.5" r="27" fill="white" stroke="black"/>
<circle cx="123.5" cy="5.5" r="23" fill="white" stroke="black"/>
<circle cx="123.5" cy="5.50002" r="15" transform="rotate(45 123.5 5.50002)" fill="white" stroke="black"/>
<rect x="123" y="9.53552" width="1" height="10.6258" fill="black"/>
<circle cx="123.5" cy="5.50001" r="4" transform="rotate(45 123.5 5.50001)" fill="white" stroke="black"/>
<rect x="93.5" y="163.5" width="60" height="60" fill="white" stroke="black"/>
<path d="M97.799 206H102.192V205.055H98.8963V198.727H97.799V206ZM103.358 206H104.42V200.545H103.358V206ZM103.895 199.704C104.26 199.704 104.566 199.42 104.566 199.072C104.566 198.724 104.26 198.436 103.895 198.436C103.525 198.436 103.223 198.724 103.223 199.072C103.223 199.42 103.525 199.704 103.895 199.704ZM108.444 200.545H107.269V200.055C107.269 199.572 107.468 199.31 107.986 199.31C108.206 199.31 108.363 199.359 108.462 199.391L108.711 198.532C108.562 198.475 108.253 198.386 107.823 198.386C106.96 198.386 106.204 198.891 106.204 199.913V200.545H105.362V201.398H106.204V206H107.269V201.398H108.444V200.545ZM111.676 206.11C112.866 206.11 113.707 205.524 113.949 204.636L112.944 204.455C112.752 204.97 112.29 205.233 111.687 205.233C110.778 205.233 110.167 204.643 110.138 203.592H114.016V203.216C114.016 201.245 112.837 200.474 111.601 200.474C110.081 200.474 109.08 201.632 109.08 203.308C109.08 205.002 110.067 206.11 111.676 206.11ZM110.142 202.797C110.184 202.023 110.746 201.352 111.608 201.352C112.432 201.352 112.972 201.962 112.976 202.797H110.142ZM117.74 200.545H116.622V199.239H115.56V200.545H114.761V201.398H115.56V204.619C115.556 205.609 116.313 206.089 117.151 206.071C117.488 206.067 117.716 206.004 117.84 205.957L117.648 205.08C117.577 205.094 117.446 205.126 117.275 205.126C116.931 205.126 116.622 205.013 116.622 204.398V201.398H117.74V200.545ZM118.915 206H119.977V200.545H118.915V206ZM119.451 199.704C119.817 199.704 120.122 199.42 120.122 199.072C120.122 198.724 119.817 198.436 119.451 198.436C119.082 198.436 118.78 198.724 118.78 199.072C118.78 199.42 119.082 199.704 119.451 199.704ZM121.405 206H122.467V202.637C122.467 201.902 122.982 201.391 123.586 201.391C124.175 201.391 124.583 201.781 124.583 202.374V206H125.642V202.523C125.642 201.866 126.043 201.391 126.735 201.391C127.297 201.391 127.758 201.703 127.758 202.442V206H128.82V202.342C128.82 201.096 128.124 200.474 127.137 200.474C126.352 200.474 125.762 200.851 125.5 201.433H125.443C125.205 200.837 124.704 200.474 123.976 200.474C123.255 200.474 122.719 200.833 122.492 201.433H122.424V200.545H121.405V206ZM132.594 206.11C133.784 206.11 134.625 205.524 134.867 204.636L133.862 204.455C133.67 204.97 133.208 205.233 132.605 205.233C131.695 205.233 131.085 204.643 131.056 203.592H134.934V203.216C134.934 201.245 133.755 200.474 132.519 200.474C130.999 200.474 129.998 201.632 129.998 203.308C129.998 205.002 130.985 206.11 132.594 206.11ZM131.06 202.797C131.102 202.023 131.664 201.352 132.526 201.352C133.35 201.352 133.89 201.962 133.894 202.797H131.06ZM98.4134 218L99.081 216.075H101.922L102.586 218H103.751L101.134 210.727H99.8658L97.2486 218H98.4134ZM99.4006 215.152L100.473 212.048H100.53L101.602 215.152H99.4006ZM104.716 218H105.778V214.669C105.778 213.955 106.328 213.44 107.081 213.44C107.301 213.44 107.55 213.479 107.635 213.504V212.489C107.528 212.474 107.319 212.464 107.184 212.464C106.545 212.464 105.998 212.826 105.799 213.412H105.742V212.545H104.716V218ZM110.656 218.11C111.945 218.11 112.779 217.336 112.897 216.274H111.863C111.728 216.864 111.27 217.212 110.663 217.212C109.765 217.212 109.186 216.462 109.186 215.273C109.186 214.104 109.775 213.369 110.663 213.369C111.338 213.369 111.75 213.795 111.863 214.307H112.897C112.783 213.206 111.885 212.474 110.645 212.474C109.108 212.474 108.113 213.632 108.113 215.298C108.113 216.942 109.072 218.11 110.656 218.11ZM115.094 214.761C115.094 213.891 115.644 213.394 116.401 213.394C117.132 213.394 117.569 213.859 117.569 214.658V218H118.631V214.531C118.631 213.17 117.885 212.474 116.763 212.474C115.914 212.474 115.403 212.844 115.147 213.433H115.08V210.727H114.032V218H115.094V214.761ZM120.048 218H121.11V212.545H120.048V218ZM120.584 211.704C120.95 211.704 121.255 211.42 121.255 211.072C121.255 210.724 120.95 210.436 120.584 210.436C120.215 210.436 119.913 210.724 119.913 211.072C119.913 211.42 120.215 211.704 120.584 211.704ZM127.204 212.545H126.064L124.686 216.743H124.63L123.248 212.545H122.108L124.09 218H125.226L127.204 212.545ZM130.358 218.11C131.547 218.11 132.389 217.524 132.63 216.636L131.625 216.455C131.434 216.97 130.972 217.233 130.368 217.233C129.459 217.233 128.848 216.643 128.82 215.592H132.698V215.216C132.698 213.245 131.519 212.474 130.283 212.474C128.763 212.474 127.762 213.632 127.762 215.308C127.762 217.002 128.749 218.11 130.358 218.11ZM128.824 214.797C128.866 214.023 129.427 213.352 130.29 213.352C131.114 213.352 131.654 213.962 131.657 214.797H128.824Z" fill="black"/>
<path d="M0.5 0.5H247.5V247.5H0.5V0.5Z" stroke="black"/>
</g>
</svg>
