<svg width="248" height="248" viewBox="0 0 248 248" fill="none" xmlns="http://www.w3.org/2000/svg">
<path d="M0.5 0.5H247.5V247.5H0.5V0.5Z" fill="white" stroke="black"/>
<mask id="mask0" mask-type="alpha" maskUnits="userSpaceOnUse" x="0" y="0" width="248" height="248">
<path d="M0.5 0.5H247.5V247.5H0.5V0.5Z" fill="white" stroke="black"/>
</mask>
<g mask="url(#mask0)">
<path d="M93 158.5C93 141.655 106.655 128 123.5 128C140.345 128 154 141.655 154 158.5C154 175.345 140.345 189 123.5 189C106.655 189 93 175.345 93 158.5Z" fill="white"/>
<path d="M93 158.5C93 151.444 95.4467 144.606 99.9232 139.151C104.4 133.696 110.629 129.963 117.55 128.586C124.47 127.209 131.654 128.275 137.878 131.601C144.101 134.928 148.978 140.309 151.678 146.828C154.379 153.347 154.735 160.601 152.687 167.354C150.638 174.106 146.312 179.939 140.445 183.86C134.578 187.78 127.533 189.545 120.51 188.853C113.488 188.161 106.923 185.056 101.933 180.067L123.5 158.5L93 158.5Z" fill="white"/>
<path d="M93 158.5C93 152.468 94.7888 146.571 98.1402 141.555C101.492 136.539 106.255 132.63 111.828 130.322C117.401 128.013 123.534 127.409 129.45 128.586C135.367 129.763 140.801 132.668 145.067 136.933C149.332 141.199 152.237 146.633 153.414 152.55C154.591 158.466 153.987 164.599 151.678 170.172C149.37 175.745 145.461 180.508 140.445 183.86C135.429 187.211 129.532 189 123.5 189L123.5 158.5L93 158.5Z" fill="white"/>
<path d="M93 158.5C93 153.146 94.4093 147.887 97.0862 143.25C99.7632 138.613 103.613 134.763 108.25 132.086C112.887 129.409 118.146 128 123.5 128C128.854 128 134.113 129.409 138.75 132.086C143.387 134.763 147.237 138.613 149.914 143.25C152.591 147.887 154 153.146 154 158.5C154 163.854 152.591 169.113 149.914 173.75C147.237 178.387 143.387 182.237 138.75 184.914L123.5 158.5L93 158.5Z" fill="white"/>
<path d="M93 158.5C93 153.146 94.4093 147.887 97.0862 143.25C99.7632 138.613 103.613 134.763 108.25 132.086C112.887 129.409 118.146 128 123.5 128C128.854 128 134.113 129.409 138.75 132.086L123.5 158.5L93 158.5Z" fill="white"/>
<path d="M93 158.5C93 141.655 106.655 128 123.5 128M93 158.5C93 175.345 106.655 189 123.5 189M93 158.5C93 151.444 95.4467 144.606 99.9232 139.151C104.4 133.696 110.629 129.963 117.55 128.586C124.47 127.209 131.654 128.275 137.878 131.601C144.101 134.928 148.978 140.309 151.678 146.828C154.379 153.347 154.735 160.601 152.687 167.354C150.638 174.106 146.312 179.939 140.445 183.86M93 158.5L123.5 158.5M93 158.5C93 152.468 94.7888 146.571 98.1402 141.555C101.492 136.539 106.255 132.63 111.828 130.322C117.401 128.013 123.534 127.409 129.45 128.586C135.367 129.763 140.801 132.668 145.067 136.933C149.332 141.199 152.237 146.633 153.414 152.55C154.591 158.466 153.987 164.599 151.678 170.172C149.37 175.745 145.461 180.508 140.445 183.86M93 158.5C93 153.146 94.4093 147.887 97.0862 143.25C99.7632 138.613 103.613 134.763 108.25 132.086C112.887 129.409 118.146 128 123.5 128M123.5 128C140.345 128 154 141.655 154 158.5M123.5 128C128.854 128 134.113 129.409 138.75 132.086M154 158.5C154 175.345 140.345 189 123.5 189M154 158.5C154 153.146 152.591 147.887 149.914 143.25C147.237 138.613 143.387 134.763 138.75 132.086M154 158.5C154 163.854 152.591 169.113 149.914 173.75C147.237 178.387 143.387 182.237 138.75 184.914L123.5 158.5M123.5 189C129.532 189 135.429 187.211 140.445 183.86M123.5 189L123.5 158.5M140.445 183.86C134.578 187.78 127.533 189.545 120.51 188.853C113.488 188.161 106.923 185.056 101.933 180.067L123.5 158.5M123.5 158.5L138.75 132.086" stroke="black"/>
<circle cx="123.5" cy="158.5" r="27" fill="white" stroke="black"/>
<circle cx="123.5" cy="158.5" r="23" fill="white" stroke="black"/>
<circle cx="123.5" cy="158.5" r="15" transform="rotate(-90 123.5 158.5)" fill="white" stroke="black"/>
<rect x="123" y="159" width="1" height="16" transform="rotate(-90 123 159)" fill="black"/>
<circle cx="123.5" cy="158.5" r="4" transform="rotate(-90 123.5 158.5)" fill="white" stroke="black"/>
<path d="M93 127.5C93 110.655 106.655 97 123.5 97C140.345 97 154 110.655 154 127.5C154 144.345 140.345 158 123.5 158C106.655 158 93 144.345 93 127.5Z" fill="white"/>
<path d="M93 127.5C93 120.444 95.4467 113.606 99.9232 108.151C104.4 102.696 110.629 98.9627 117.55 97.5861C124.47 96.2095 131.654 97.2751 137.878 100.601C144.101 103.928 148.978 109.309 151.678 115.828C154.379 122.347 154.735 129.601 152.687 136.354C150.638 143.106 146.312 148.939 140.445 152.86C134.578 156.78 127.533 158.545 120.51 157.853C113.488 157.161 106.923 154.056 101.933 149.067L123.5 127.5L93 127.5Z" fill="white"/>
<path d="M93 127.5C93 121.468 94.7888 115.571 98.1402 110.555C101.492 105.539 106.255 101.63 111.828 99.3217C117.401 97.0132 123.534 96.4092 129.45 97.5861C135.367 98.7629 140.801 101.668 145.067 105.933C149.332 110.199 152.237 115.633 153.414 121.55C154.591 127.466 153.987 133.599 151.678 139.172C149.37 144.745 145.461 149.508 140.445 152.86C135.429 156.211 129.532 158 123.5 158L123.5 127.5L93 127.5Z" fill="white"/>
<path d="M93 127.5C93 122.146 94.4093 116.887 97.0862 112.25C99.7632 107.613 103.613 103.763 108.25 101.086C112.887 98.4093 118.146 97 123.5 97C128.854 97 134.113 98.4093 138.75 101.086C143.387 103.763 147.237 107.613 149.914 112.25C152.591 116.887 154 122.146 154 127.5C154 132.854 152.591 138.113 149.914 142.75C147.237 147.387 143.387 151.237 138.75 153.914L123.5 127.5L93 127.5Z" fill="white"/>
<path d="M93 127.5C93 122.146 94.4093 116.887 97.0862 112.25C99.7632 107.613 103.613 103.763 108.25 101.086C112.887 98.4093 118.146 97 123.5 97C128.854 97 134.113 98.4093 138.75 101.086L123.5 127.5L93 127.5Z" fill="white"/>
<path d="M93 127.5C93 110.655 106.655 97 123.5 97M93 127.5C93 144.345 106.655 158 123.5 158M93 127.5C93 120.444 95.4467 113.606 99.9232 108.151C104.4 102.696 110.629 98.9627 117.55 97.5861C124.47 96.2095 131.654 97.2751 137.878 100.601C144.101 103.928 148.978 109.309 151.678 115.828C154.379 122.347 154.735 129.601 152.687 136.354C150.638 143.106 146.312 148.939 140.445 152.86M93 127.5L123.5 127.5M93 127.5C93 121.468 94.7888 115.571 98.1402 110.555C101.492 105.539 106.255 101.63 111.828 99.3217C117.401 97.0132 123.534 96.4092 129.45 97.5861C135.367 98.7629 140.801 101.668 145.067 105.933C149.332 110.199 152.237 115.633 153.414 121.55C154.591 127.466 153.987 133.599 151.678 139.172C149.37 144.745 145.461 149.508 140.445 152.86M93 127.5C93 122.146 94.4093 116.887 97.0862 112.25C99.7632 107.613 103.613 103.763 108.25 101.086C112.887 98.4093 118.146 97 123.5 97M123.5 97C140.345 97 154 110.655 154 127.5M123.5 97C128.854 97 134.113 98.4093 138.75 101.086M154 127.5C154 144.345 140.345 158 123.5 158M154 127.5C154 122.146 152.591 116.887 149.914 112.25C147.237 107.613 143.387 103.763 138.75 101.086M154 127.5C154 132.854 152.591 138.113 149.914 142.75C147.237 147.387 143.387 151.237 138.75 153.914L123.5 127.5M123.5 158C129.532 158 135.429 156.211 140.445 152.86M123.5 158L123.5 127.5M140.445 152.86C134.578 156.78 127.533 158.545 120.51 157.853C113.488 157.161 106.923 154.056 101.933 149.067L123.5 127.5M123.5 127.5L138.75 101.086" stroke="black"/>
<circle cx="123.5" cy="127.5" r="27" fill="white" stroke="black"/>
<circle cx="123.5" cy="127.5" r="23" fill="white" stroke="black"/>
<circle cx="123.5" cy="127.5" r="15" transform="rotate(-49.5588 123.5 127.5)" fill="white" stroke="black"/>
<rect x="122.795" y="127.556" width="1" height="16" transform="rotate(-49.5588 122.795 127.556)" fill="black"/>
<circle cx="123.5" cy="127.5" r="4" transform="rotate(-49.5588 123.5 127.5)" fill="white" stroke="black"/>
<path d="M93 97.5C93 80.6553 106.655 67 123.5 67C140.345 67 154 80.6553 154 97.5C154 114.345 140.345 128 123.5 128C106.655 128 93 114.345 93 97.5Z" fill="white"/>
<path d="M93 97.5C93 90.4437 95.4467 83.6056 99.9232 78.151C104.4 72.6964 110.629 68.9627 117.55 67.5861C124.47 66.2095 131.654 67.2751 137.878 70.6014C144.101 73.9278 148.978 79.309 151.678 85.8282C154.379 92.3474 154.735 99.6012 152.687 106.354C150.638 113.106 146.312 118.939 140.445 122.86C134.578 126.78 127.533 128.545 120.51 127.853C113.488 127.161 106.923 124.056 101.933 119.067L123.5 97.5L93 97.5Z" fill="white"/>
<path d="M93 97.5C93 91.4677 94.7888 85.5708 98.1402 80.5551C101.492 75.5394 106.255 71.6302 111.828 69.3217C117.401 67.0132 123.534 66.4092 129.45 67.5861C135.367 68.7629 140.801 71.6678 145.067 75.9333C149.332 80.1988 152.237 85.6333 153.414 91.5498C154.591 97.4662 153.987 103.599 151.678 109.172C149.37 114.745 145.461 119.508 140.445 122.86C135.429 126.211 129.532 128 123.5 128L123.5 97.5L93 97.5Z" fill="white"/>
<path d="M93 97.5C93 92.1461 94.4093 86.8866 97.0862 82.25C99.7632 77.6134 103.613 73.7632 108.25 71.0863C112.887 68.4093 118.146 67 123.5 67C128.854 67 134.113 68.4093 138.75 71.0863C143.387 73.7632 147.237 77.6134 149.914 82.25C152.591 86.8866 154 92.1461 154 97.5C154 102.854 152.591 108.113 149.914 112.75C147.237 117.387 143.387 121.237 138.75 123.914L123.5 97.5L93 97.5Z" fill="white"/>
<path d="M93 97.5C93 92.1461 94.4093 86.8866 97.0862 82.25C99.7632 77.6134 103.613 73.7632 108.25 71.0863C112.887 68.4093 118.146 67 123.5 67C128.854 67 134.113 68.4093 138.75 71.0863L123.5 97.5L93 97.5Z" fill="white"/>
<path d="M93 97.5C93 80.6553 106.655 67 123.5 67M93 97.5C93 114.345 106.655 128 123.5 128M93 97.5C93 90.4437 95.4467 83.6056 99.9232 78.151C104.4 72.6964 110.629 68.9627 117.55 67.5861C124.47 66.2095 131.654 67.2751 137.878 70.6014C144.101 73.9278 148.978 79.309 151.678 85.8282C154.379 92.3474 154.735 99.6012 152.687 106.354C150.638 113.106 146.312 118.939 140.445 122.86M93 97.5L123.5 97.5M93 97.5C93 91.4677 94.7888 85.5708 98.1402 80.5551C101.492 75.5394 106.255 71.6302 111.828 69.3217C117.401 67.0132 123.534 66.4092 129.45 67.5861C135.367 68.7629 140.801 71.6678 145.067 75.9333C149.332 80.1988 152.237 85.6333 153.414 91.5498C154.591 97.4662 153.987 103.599 151.678 109.172C149.37 114.745 145.461 119.508 140.445 122.86M93 97.5C93 92.1461 94.4093 86.8866 97.0862 82.25C99.7632 77.6134 103.613 73.7632 108.25 71.0863C112.887 68.4093 118.146 67 123.5 67M123.5 67C140.345 67 154 80.6553 154 97.5M123.5 67C128.854 67 134.113 68.4093 138.75 71.0863M154 97.5C154 114.345 140.345 128 123.5 128M154 97.5C154 92.1461 152.591 86.8866 149.914 82.25C147.237 77.6134 143.387 73.7632 138.75 71.0863M154 97.5C154 102.854 152.591 108.113 149.914 112.75C147.237 117.387 143.387 121.237 138.75 123.914L123.5 97.5M123.5 128C129.532 128 135.429 126.211 140.445 122.86M123.5 128L123.5 97.5M140.445 122.86C134.578 126.78 127.533 128.545 120.51 127.853C113.488 127.161 106.923 124.056 101.933 119.067L123.5 97.5M123.5 97.5L138.75 71.0863" stroke="black"/>
<circle cx="123.5" cy="97.5" r="27" fill="white" stroke="black"/>
<circle cx="123.5" cy="97.5" r="23" fill="white" stroke="black"/>
<circle cx="123.5" cy="97.5" r="15" transform="rotate(60 123.5 97.5)" fill="white" stroke="black"/>
<rect x="123.683" y="96.817" width="1" height="16" transform="rotate(60 123.683 96.817)" fill="black"/>
<circle cx="123.5" cy="97.5" r="4" transform="rotate(60 123.5 97.5)" fill="white" stroke="black"/>
<path d="M93 66.5C93 49.6553 106.655 36 123.5 36C140.345 36 154 49.6553 154 66.5C154 83.3447 140.345 97 123.5 96.9999C106.655 96.9999 93 83.3447 93 66.5Z" fill="white"/>
<path d="M93 66.5C93 59.4437 95.4467 52.6056 99.9232 47.151C104.4 41.6964 110.629 37.9627 117.55 36.5861C124.47 35.2095 131.654 36.2751 137.878 39.6014C144.101 42.9278 148.978 48.309 151.678 54.8282C154.379 61.3474 154.735 68.6012 152.687 75.3537C150.638 82.1061 146.312 87.9395 140.445 91.8598C134.578 95.7801 127.533 97.5447 120.51 96.8531C113.488 96.1614 106.923 93.0563 101.933 88.0667L123.5 66.5L93 66.5Z" fill="white"/>
<path d="M93 66.5C93 60.4677 94.7888 54.5708 98.1402 49.5551C101.492 44.5394 106.255 40.6302 111.828 38.3217C117.401 36.0132 123.534 35.4092 129.45 36.5861C135.367 37.7629 140.801 40.6678 145.067 44.9333C149.332 49.1988 152.237 54.6333 153.414 60.5498C154.591 66.4662 153.987 72.5987 151.678 78.1718C149.37 83.745 145.461 88.5084 140.445 91.8598C135.429 95.2112 129.532 97 123.5 96.9999L123.5 66.5L93 66.5Z" fill="white"/>
<path d="M93 66.5C93 61.1461 94.4093 55.8866 97.0862 51.25C99.7632 46.6134 103.613 42.7632 108.25 40.0863C112.887 37.4093 118.146 36 123.5 36C128.854 36 134.113 37.4093 138.75 40.0863C143.387 42.7632 147.237 46.6134 149.914 51.25C152.591 55.8866 154 61.1461 154 66.5C154 71.8539 152.591 77.1134 149.914 81.75C147.237 86.3866 143.387 90.2368 138.75 92.9137L123.5 66.5L93 66.5Z" fill="white"/>
<path d="M93 66.5C93 61.1461 94.4093 55.8866 97.0862 51.25C99.7632 46.6134 103.613 42.7632 108.25 40.0863C112.887 37.4093 118.146 36 123.5 36C128.854 36 134.113 37.4093 138.75 40.0863L123.5 66.5L93 66.5Z" fill="white"/>
<path d="M93 66.5C93 49.6553 106.655 36 123.5 36M93 66.5C93 83.3447 106.655 96.9999 123.5 96.9999M93 66.5C93 59.4437 95.4467 52.6056 99.9232 47.151C104.4 41.6964 110.629 37.9627 117.55 36.5861C124.47 35.2095 131.654 36.2751 137.878 39.6014C144.101 42.9278 148.978 48.309 151.678 54.8282C154.379 61.3474 154.735 68.6012 152.687 75.3537C150.638 82.1061 146.312 87.9395 140.445 91.8598M93 66.5L123.5 66.5M93 66.5C93 60.4677 94.7888 54.5708 98.1402 49.5551C101.492 44.5394 106.255 40.6302 111.828 38.3217C117.401 36.0132 123.534 35.4092 129.45 36.5861C135.367 37.7629 140.801 40.6678 145.067 44.9333C149.332 49.1988 152.237 54.6333 153.414 60.5498C154.591 66.4662 153.987 72.5987 151.678 78.1718C149.37 83.745 145.461 88.5084 140.445 91.8598M93 66.5C93 61.1461 94.4093 55.8866 97.0862 51.25C99.7632 46.6134 103.613 42.7632 108.25 40.0863C112.887 37.4093 118.146 36 123.5 36M123.5 36C140.345 36 154 49.6553 154 66.5M123.5 36C128.854 36 134.113 37.4093 138.75 40.0863M154 66.5C154 83.3447 140.345 97 123.5 96.9999M154 66.5C154 61.1461 152.591 55.8866 149.914 51.25C147.237 46.6134 143.387 42.7632 138.75 40.0863M154 66.5C154 71.8539 152.591 77.1134 149.914 81.75C147.237 86.3866 143.387 90.2368 138.75 92.9137L123.5 66.5M123.5 96.9999C129.532 97 135.429 95.2112 140.445 91.8598M123.5 96.9999L123.5 66.5M140.445 91.8598C134.578 95.7801 127.533 97.5447 120.51 96.8531C113.488 96.1614 106.923 93.0563 101.933 88.0667L123.5 66.5M123.5 66.5L138.75 40.0863" stroke="black"/>
<circle cx="123.5" cy="66.5" r="27" fill="white" stroke="black"/>
<circle cx="123.5" cy="66.5" r="23" fill="white" stroke="black"/>
<circle cx="123.5" cy="66.5" r="15" transform="rotate(-21.7595 123.5 66.5)" fill="white" stroke="black"/>
<rect x="122.85" y="66.2209" width="1" height="16" transform="rotate(-21.7595 122.85 66.2209)" fill="black"/>
<circle cx="123.5" cy="66.5" r="4" transform="rotate(-21.7595 123.5 66.5)" fill="white" stroke="black"/>
<path d="M93 35.5C93 18.6553 106.655 5.00004 123.5 5.00004C140.345 5.00004 154 18.6553 154 35.5C154 52.3447 140.345 66 123.5 65.9999C106.655 65.9999 93 52.3447 93 35.5Z" fill="white"/>
<path d="M93 35.5C93 28.4437 95.4467 21.6056 99.9232 16.151C104.4 10.6964 110.629 6.96271 117.55 5.58609C124.47 4.20947 131.654 5.27511 137.878 8.60144C144.101 11.9278 148.978 17.309 151.678 23.8282C154.379 30.3474 154.735 37.6012 152.687 44.3537C150.638 51.1061 146.312 56.9395 140.445 60.8598C134.578 64.7801 127.533 66.5447 120.51 65.8531C113.488 65.1614 106.923 62.0563 101.933 57.0667L123.5 35.5L93 35.5Z" fill="white"/>
<path d="M93 35.5C93 29.4677 94.7888 23.5708 98.1402 18.5551C101.492 13.5394 106.255 9.63018 111.828 7.32171C117.401 5.01324 123.534 4.40925 129.45 5.58609C135.367 6.76294 140.801 9.66778 145.067 13.9333C149.332 18.1988 152.237 23.6333 153.414 29.5498C154.591 35.4662 153.987 41.5987 151.678 47.1718C149.37 52.745 145.461 57.5084 140.445 60.8598C135.429 64.2112 129.532 66 123.5 65.9999L123.5 35.5L93 35.5Z" fill="white"/>
<path d="M93 35.5C93 30.1461 94.4093 24.8866 97.0862 20.25C99.7632 15.6134 103.613 11.7632 108.25 9.08626C112.887 6.40933 118.146 5.00004 123.5 5.00004C128.854 5.00004 134.113 6.40933 138.75 9.08626C143.387 11.7632 147.237 15.6134 149.914 20.25C152.591 24.8866 154 30.1461 154 35.5C154 40.8539 152.591 46.1134 149.914 50.75C147.237 55.3866 143.387 59.2368 138.75 61.9137L123.5 35.5L93 35.5Z" fill="white"/>
<path d="M93 35.5C93 30.1461 94.4093 24.8866 97.0862 20.25C99.7632 15.6134 103.613 11.7632 108.25 9.08626C112.887 6.40933 118.146 5.00004 123.5 5.00004C128.854 5.00004 134.113 6.40933 138.75 9.08626L123.5 35.5L93 35.5Z" fill="white"/>
<path d="M93 35.5C93 18.6553 106.655 5.00004 123.5 5.00004M93 35.5C93 52.3447 106.655 65.9999 123.5 65.9999M93 35.5C93 28.4437 95.4467 21.6056 99.9232 16.151C104.4 10.6964 110.629 6.96271 117.55 5.58609C124.47 4.20947 131.654 5.27511 137.878 8.60144C144.101 11.9278 148.978 17.309 151.678 23.8282C154.379 30.3474 154.735 37.6012 152.687 44.3537C150.638 51.1061 146.312 56.9395 140.445 60.8598M93 35.5L123.5 35.5M93 35.5C93 29.4677 94.7888 23.5708 98.1402 18.5551C101.492 13.5394 106.255 9.63018 111.828 7.32171C117.401 5.01324 123.534 4.40925 129.45 5.58609C135.367 6.76294 140.801 9.66778 145.067 13.9333C149.332 18.1988 152.237 23.6333 153.414 29.5498C154.591 35.4662 153.987 41.5987 151.678 47.1718C149.37 52.745 145.461 57.5084 140.445 60.8598M93 35.5C93 30.1461 94.4093 24.8866 97.0862 20.25C99.7632 15.6134 103.613 11.7632 108.25 9.08626C112.887 6.40933 118.146 5.00004 123.5 5.00004M123.5 5.00004C140.345 5.00004 154 18.6553 154 35.5M123.5 5.00004C128.854 5.00004 134.113 6.40933 138.75 9.08626M154 35.5C154 52.3447 140.345 66 123.5 65.9999M154 35.5C154 30.1461 152.591 24.8866 149.914 20.25C147.237 15.6134 143.387 11.7632 138.75 9.08626M154 35.5C154 40.8539 152.591 46.1134 149.914 50.75C147.237 55.3866 143.387 59.2368 138.75 61.9137L123.5 35.5M123.5 65.9999C129.532 66 135.429 64.2112 140.445 60.8598M123.5 65.9999L123.5 35.5M140.445 60.8598C134.578 64.7801 127.533 66.5447 120.51 65.8531C113.488 65.1614 106.923 62.0563 101.933 57.0667L123.5 35.5M123.5 35.5L138.75 9.08626" stroke="black"/>
<circle cx="123.5" cy="35.5" r="27" fill="white" stroke="black"/>
<circle cx="123.5" cy="35.5" r="23" fill="white" stroke="black"/>
<circle cx="123.5" cy="35.5" r="15" transform="rotate(29.1468 123.5 35.5)" fill="white" stroke="black"/>
<rect x="123.307" y="34.8198" width="1" height="16" transform="rotate(29.1468 123.307 34.8198)" fill="black"/>
<circle cx="123.5" cy="35.5" r="4" transform="rotate(29.1468 123.5 35.5)" fill="white" stroke="black"/>
<path d="M93 5.49999C93 -11.3447 106.655 -25 123.5 -25C140.345 -25 154 -11.3447 154 5.5C154 22.3447 140.345 36 123.5 35.9999C106.655 35.9999 93 22.3447 93 5.49999Z" fill="white"/>
<path d="M93 5.49999C93 -1.55633 95.4467 -8.39436 99.9232 -13.849C104.4 -19.3036 110.629 -23.0373 117.55 -24.4139C124.47 -25.7905 131.654 -24.7249 137.878 -21.3986C144.101 -18.0722 148.978 -12.691 151.678 -6.17183C154.379 0.347365 154.735 7.60118 152.687 14.3537C150.638 21.1061 146.312 26.9395 140.445 30.8598C134.578 34.7801 127.533 36.5447 120.51 35.8531C113.488 35.1614 106.923 32.0563 101.933 27.0667L123.5 5.5L93 5.49999Z" fill="white"/>
<path d="M93 5.49999C93 -0.532326 94.7888 -6.42918 98.1402 -11.4449C101.492 -16.4606 106.255 -20.3698 111.828 -22.6783C117.401 -24.9868 123.534 -25.5908 129.45 -24.4139C135.367 -23.2371 140.801 -20.3322 145.067 -16.0667C149.332 -11.8012 152.237 -6.36666 153.414 -0.450246C154.591 5.46617 153.987 11.5987 151.678 17.1718C149.37 22.745 145.461 27.5084 140.445 30.8598C135.429 34.2112 129.532 36 123.5 35.9999L123.5 5.5L93 5.49999Z" fill="white"/>
<path d="M93 5.49999C93 0.146134 94.4093 -5.1134 97.0862 -9.74998C99.7632 -14.3866 103.613 -18.2368 108.25 -20.9137C112.887 -23.5907 118.146 -25 123.5 -25C128.854 -25 134.113 -23.5907 138.75 -20.9137C143.387 -18.2368 147.237 -14.3866 149.914 -9.74998C152.591 -5.1134 154 0.146139 154 5.5C154 10.8539 152.591 16.1134 149.914 20.75C147.237 25.3866 143.387 29.2368 138.75 31.9137L123.5 5.5L93 5.49999Z" fill="white"/>
<path d="M93 5.49999C93 0.146134 94.4093 -5.1134 97.0862 -9.74998C99.7632 -14.3866 103.613 -18.2368 108.25 -20.9137C112.887 -23.5907 118.146 -25 123.5 -25C128.854 -25 134.113 -23.5907 138.75 -20.9137L123.5 5.5L93 5.49999Z" fill="white"/>
<path d="M93 5.49999C93 -11.3447 106.655 -25 123.5 -25M93 5.49999C93 22.3447 106.655 35.9999 123.5 35.9999M93 5.49999C93 -1.55633 95.4467 -8.39436 99.9232 -13.849C104.4 -19.3036 110.629 -23.0373 117.55 -24.4139C124.47 -25.7905 131.654 -24.7249 137.878 -21.3986C144.101 -18.0722 148.978 -12.691 151.678 -6.17183C154.379 0.347365 154.735 7.60118 152.687 14.3537C150.638 21.1061 146.312 26.9395 140.445 30.8598M93 5.49999L123.5 5.5M93 5.49999C93 -0.532326 94.7888 -6.42918 98.1402 -11.4449C101.492 -16.4606 106.255 -20.3698 111.828 -22.6783C117.401 -24.9868 123.534 -25.5908 129.45 -24.4139C135.367 -23.2371 140.801 -20.3322 145.067 -16.0667C149.332 -11.8012 152.237 -6.36666 153.414 -0.450246C154.591 5.46617 153.987 11.5987 151.678 17.1718C149.37 22.745 145.461 27.5084 140.445 30.8598M93 5.49999C93 0.146134 94.4093 -5.1134 97.0862 -9.74998C99.7632 -14.3866 103.613 -18.2368 108.25 -20.9137C112.887 -23.5907 118.146 -25 123.5 -25M123.5 -25C140.345 -25 154 -11.3447 154 5.5M123.5 -25C128.854 -25 134.113 -23.5907 138.75 -20.9137M154 5.5C154 22.3447 140.345 36 123.5 35.9999M154 5.5C154 0.146139 152.591 -5.1134 149.914 -9.74998C147.237 -14.3866 143.387 -18.2368 138.75 -20.9137M154 5.5C154 10.8539 152.591 16.1134 149.914 20.75C147.237 25.3866 143.387 29.2368 138.75 31.9137L123.5 5.5M123.5 35.9999C129.532 36 135.429 34.2112 140.445 30.8598M123.5 35.9999L123.5 5.5M140.445 30.8598C134.578 34.7801 127.533 36.5447 120.51 35.8531C113.488 35.1614 106.923 32.0563 101.933 27.0667L123.5 5.5M123.5 5.5L138.75 -20.9137" stroke="black"/>
<circle cx="123.5" cy="5.5" r="27" fill="white" stroke="black"/>
<circle cx="123.5" cy="5.5" r="23" fill="white" stroke="black"/>
<circle cx="123.5" cy="5.5" r="15" fill="white" stroke="black"/>
<rect x="123" y="5" width="1" height="16" fill="black"/>
<circle cx="123.5" cy="5.5" r="4" fill="white" stroke="black"/>
<rect x="93.5" y="163.5" width="60" height="60" fill="white" stroke="black"/>
<path d="M97.799 206H102.192V205.055H98.8963V198.727H97.799V206ZM103.358 206H104.42V200.545H103.358V206ZM103.895 199.704C104.26 199.704 104.566 199.42 104.566 199.072C104.566 198.724 104.26 198.436 103.895 198.436C103.525 198.436 103.223 198.724 103.223 199.072C103.223 199.42 103.525 199.704 103.895 199.704ZM108.444 200.545H107.269V200.055C107.269 199.572 107.468 199.31 107.986 199.31C108.206 199.31 108.363 199.359 108.462 199.391L108.711 198.532C108.562 198.475 108.253 198.386 107.823 198.386C106.96 198.386 106.204 198.891 106.204 199.913V200.545H105.362V201.398H106.204V206H107.269V201.398H108.444V200.545ZM111.676 206.11C112.866 206.11 113.707 205.524 113.949 204.636L112.944 204.455C112.752 204.97 112.29 205.233 111.687 205.233C110.778 205.233 110.167 204.643 110.138 203.592H114.016V203.216C114.016 201.245 112.837 200.474 111.601 200.474C110.081 200.474 109.08 201.632 109.08 203.308C109.08 205.002 110.067 206.11 111.676 206.11ZM110.142 202.797C110.184 202.023 110.746 201.352 111.608 201.352C112.432 201.352 112.972 201.962 112.976 202.797H110.142ZM117.74 200.545H116.622V199.239H115.56V200.545H114.761V201.398H115.56V204.619C115.556 205.609 116.313 206.089 117.151 206.071C117.488 206.067 117.716 206.004 117.84 205.957L117.648 205.08C117.577 205.094 117.446 205.126 117.275 205.126C116.931 205.126 116.622 205.013 116.622 204.398V201.398H117.74V200.545ZM118.915 206H119.977V200.545H118.915V206ZM119.451 199.704C119.817 199.704 120.122 199.42 120.122 199.072C120.122 198.724 119.817 198.436 119.451 198.436C119.082 198.436 118.78 198.724 118.78 199.072C118.78 199.42 119.082 199.704 119.451 199.704ZM121.405 206H122.467V202.637C122.467 201.902 122.982 201.391 123.586 201.391C124.175 201.391 124.583 201.781 124.583 202.374V206H125.642V202.523C125.642 201.866 126.043 201.391 126.735 201.391C127.297 201.391 127.758 201.703 127.758 202.442V206H128.82V202.342C128.82 201.096 128.124 200.474 127.137 200.474C126.352 200.474 125.762 200.851 125.5 201.433H125.443C125.205 200.837 124.704 200.474 123.976 200.474C123.255 200.474 122.719 200.833 122.492 201.433H122.424V200.545H121.405V206ZM132.594 206.11C133.784 206.11 134.625 205.524 134.867 204.636L133.862 204.455C133.67 204.97 133.208 205.233 132.605 205.233C131.695 205.233 131.085 204.643 131.056 203.592H134.934V203.216C134.934 201.245 133.755 200.474 132.519 200.474C130.999 200.474 129.998 201.632 129.998 203.308C129.998 205.002 130.985 206.11 132.594 206.11ZM131.06 202.797C131.102 202.023 131.664 201.352 132.526 201.352C133.35 201.352 133.89 201.962 133.894 202.797H131.06ZM98.4134 218L99.081 216.075H101.922L102.586 218H103.751L101.134 210.727H99.8658L97.2486 218H98.4134ZM99.4006 215.152L100.473 212.048H100.53L101.602 215.152H99.4006ZM104.716 218H105.778V214.669C105.778 213.955 106.328 213.44 107.081 213.44C107.301 213.44 107.55 213.479 107.635 213.504V212.489C107.528 212.474 107.319 212.464 107.184 212.464C106.545 212.464 105.998 212.826 105.799 213.412H105.742V212.545H104.716V218ZM110.656 218.11C111.945 218.11 112.779 217.336 112.897 216.274H111.863C111.728 216.864 111.27 217.212 110.663 217.212C109.765 217.212 109.186 216.462 109.186 215.273C109.186 214.104 109.775 213.369 110.663 213.369C111.338 213.369 111.75 213.795 111.863 214.307H112.897C112.783 213.206 111.885 212.474 110.645 212.474C109.108 212.474 108.113 213.632 108.113 215.298C108.113 216.942 109.072 218.11 110.656 218.11ZM115.094 214.761C115.094 213.891 115.644 213.394 116.401 213.394C117.132 213.394 117.569 213.859 117.569 214.658V218H118.631V214.531C118.631 213.17 117.885 212.474 116.763 212.474C115.914 212.474 115.403 212.844 115.147 213.433H115.08V210.727H114.032V218H115.094V214.761ZM120.048 218H121.11V212.545H120.048V218ZM120.584 211.704C120.95 211.704 121.255 211.42 121.255 211.072C121.255 210.724 120.95 210.436 120.584 210.436C120.215 210.436 119.913 210.724 119.913 211.072C119.913 211.42 120.215 211.704 120.584 211.704ZM127.204 212.545H126.064L124.686 216.743H124.63L123.248 212.545H122.108L124.09 218H125.226L127.204 212.545ZM130.358 218.11C131.547 218.11 132.389 217.524 132.63 216.636L131.625 216.455C131.434 216.97 130.972 217.233 130.368 217.233C129.459 217.233 128.848 216.643 128.82 215.592H132.698V215.216C132.698 213.245 131.519 212.474 130.283 212.474C128.763 212.474 127.762 213.632 127.762 215.308C127.762 217.002 128.749 218.11 130.358 218.11ZM128.824 214.797C128.866 214.023 129.427 213.352 130.29 213.352C131.114 213.352 131.654 213.962 131.657 214.797H128.824Z" fill="black"/>
<path d="M0.5 0.5H247.5V247.5H0.5V0.5Z" stroke="black"/>
</g>
</svg>
