<svg width="248" height="248" viewBox="0 0 248 248" fill="none" xmlns="http://www.w3.org/2000/svg">
<path d="M0.5 0.5H247.5V247.5H0.5V0.5Z" fill="white" stroke="black"/>
<path d="M124.228 89.0416C122.138 111.712 133.879 132.261 153 142" stroke="black" stroke-dasharray="2 2"/>
<path d="M179.73 70C179.73 99.8234 155.553 124 125.73 124C95.9067 124 71.7301 99.8234 71.7301 70" stroke="black" stroke-dasharray="2 2"/>
<path d="M123.646 84.8294C127.054 114.457 105.799 141.238 76.1706 144.646" stroke="black" stroke-dasharray="2 2"/>
<path d="M153 142C140.813 138.462 128.038 145.465 124.5 157.652C122.788 163.548 123.546 169.576 126.164 174.628" stroke="black" stroke-dasharray="2 2"/>
<path d="M94 57.5C94 40.6553 107.655 27 124.5 27C141.345 27 155 40.6553 155 57.5C155 74.3447 141.345 88 124.5 87.9999C107.655 87.9999 94 74.3447 94 57.5Z" fill="white"/>
<path d="M94 57.5C94 50.4437 96.4467 43.6056 100.923 38.151C105.4 32.6964 111.629 28.9627 118.55 27.5861C125.47 26.2095 132.654 27.2751 138.878 30.6014C145.101 33.9278 149.978 39.309 152.678 45.8282C155.379 52.3474 155.735 59.6012 153.687 66.3537C151.638 73.1061 147.312 78.9395 141.445 82.8598C135.578 86.7801 128.533 88.5447 121.51 87.8531C114.488 87.1614 107.923 84.0563 102.933 79.0667L124.5 57.5L94 57.5Z" fill="white"/>
<path d="M94 57.5C94 51.4677 95.7888 45.5708 99.1402 40.5551C102.492 35.5394 107.255 31.6302 112.828 29.3217C118.401 27.0132 124.534 26.4092 130.45 27.5861C136.367 28.7629 141.801 31.6678 146.067 35.9333C150.332 40.1988 153.237 45.6333 154.414 51.5498C155.591 57.4662 154.987 63.5987 152.678 69.1718C150.37 74.745 146.461 79.5084 141.445 82.8598C136.429 86.2112 130.532 88 124.5 87.9999L124.5 57.5L94 57.5Z" fill="white"/>
<path d="M94 57.5C94 52.1461 95.4093 46.8866 98.0862 42.25C100.763 37.6134 104.613 33.7632 109.25 31.0863C113.887 28.4093 119.146 27 124.5 27C129.854 27 135.113 28.4093 139.75 31.0863C144.387 33.7632 148.237 37.6134 150.914 42.25C153.591 46.8866 155 52.1461 155 57.5C155 62.8539 153.591 68.1134 150.914 72.75C148.237 77.3866 144.387 81.2368 139.75 83.9137L124.5 57.5L94 57.5Z" fill="white"/>
<path d="M94 57.5C94 52.1461 95.4093 46.8866 98.0862 42.25C100.763 37.6134 104.613 33.7632 109.25 31.0863C113.887 28.4093 119.146 27 124.5 27C129.854 27 135.113 28.4093 139.75 31.0863L124.5 57.5L94 57.5Z" fill="white"/>
<path d="M94 57.5C94 40.6553 107.655 27 124.5 27M94 57.5C94 74.3447 107.655 87.9999 124.5 87.9999M94 57.5C94 50.4437 96.4467 43.6056 100.923 38.151C105.4 32.6964 111.629 28.9627 118.55 27.5861C125.47 26.2095 132.654 27.2751 138.878 30.6014C145.101 33.9278 149.978 39.309 152.678 45.8282C155.379 52.3474 155.735 59.6012 153.687 66.3537C151.638 73.1061 147.312 78.9395 141.445 82.8598M94 57.5L124.5 57.5M94 57.5C94 51.4677 95.7888 45.5708 99.1402 40.5551C102.492 35.5394 107.255 31.6302 112.828 29.3217C118.401 27.0132 124.534 26.4092 130.45 27.5861C136.367 28.7629 141.801 31.6678 146.067 35.9333C150.332 40.1988 153.237 45.6333 154.414 51.5498C155.591 57.4662 154.987 63.5987 152.678 69.1718C150.37 74.745 146.461 79.5084 141.445 82.8598M94 57.5C94 52.1461 95.4093 46.8866 98.0862 42.25C100.763 37.6134 104.613 33.7632 109.25 31.0863C113.887 28.4093 119.146 27 124.5 27M124.5 27C141.345 27 155 40.6553 155 57.5M124.5 27C129.854 27 135.113 28.4093 139.75 31.0863M155 57.5C155 74.3447 141.345 88 124.5 87.9999M155 57.5C155 52.1461 153.591 46.8866 150.914 42.25C148.237 37.6134 144.387 33.7632 139.75 31.0863M155 57.5C155 62.8539 153.591 68.1134 150.914 72.75C148.237 77.3866 144.387 81.2368 139.75 83.9137L124.5 57.5M124.5 87.9999C130.532 88 136.429 86.2112 141.445 82.8598M124.5 87.9999L124.5 57.5M141.445 82.8598C135.578 86.7801 128.533 88.5447 121.51 87.8531C114.488 87.1614 107.923 84.0563 102.933 79.0667L124.5 57.5M124.5 57.5L139.75 31.0863" stroke="black"/>
<circle cx="124.5" cy="57.5" r="27" fill="white" stroke="black"/>
<circle cx="124.5" cy="57.5" r="23" fill="white" stroke="black"/>
<circle cx="124.5" cy="57.5" r="15" transform="rotate(-90 124.5 57.5)" fill="white" stroke="black"/>
<rect x="124" y="58" width="1" height="16" transform="rotate(-90 124 58)" fill="black"/>
<circle cx="124.5" cy="57.5" r="4" transform="rotate(-90 124.5 57.5)" fill="white" stroke="black"/>
<path d="M152 90.5C152 73.6553 165.655 60 182.5 60C199.345 60 213 73.6553 213 90.5C213 107.345 199.345 121 182.5 121C165.655 121 152 107.345 152 90.5Z" fill="white"/>
<path d="M152 90.5C152 83.4437 154.447 76.6056 158.923 71.151C163.4 65.6964 169.629 61.9627 176.55 60.5861C183.47 59.2095 190.654 60.2751 196.878 63.6014C203.101 66.9278 207.978 72.309 210.678 78.8282C213.379 85.3474 213.735 92.6012 211.687 99.3537C209.638 106.106 205.312 111.939 199.445 115.86C193.578 119.78 186.533 121.545 179.51 120.853C172.488 120.161 165.923 117.056 160.933 112.067L182.5 90.5L152 90.5Z" fill="white"/>
<path d="M152 90.5C152 84.4677 153.789 78.5708 157.14 73.5551C160.492 68.5394 165.255 64.6302 170.828 62.3217C176.401 60.0132 182.534 59.4092 188.45 60.5861C194.367 61.7629 199.801 64.6678 204.067 68.9333C208.332 73.1988 211.237 78.6333 212.414 84.5498C213.591 90.4662 212.987 96.5987 210.678 102.172C208.37 107.745 204.461 112.508 199.445 115.86C194.429 119.211 188.532 121 182.5 121L182.5 90.5L152 90.5Z" fill="white"/>
<path d="M152 90.5C152 85.1461 153.409 79.8866 156.086 75.25C158.763 70.6134 162.613 66.7632 167.25 64.0863C171.887 61.4093 177.146 60 182.5 60C187.854 60 193.113 61.4093 197.75 64.0863C202.387 66.7632 206.237 70.6134 208.914 75.25C211.591 79.8866 213 85.1461 213 90.5C213 95.8539 211.591 101.113 208.914 105.75C206.237 110.387 202.387 114.237 197.75 116.914L182.5 90.5L152 90.5Z" fill="white"/>
<path d="M152 90.5C152 85.1461 153.409 79.8866 156.086 75.25C158.763 70.6134 162.613 66.7632 167.25 64.0863C171.887 61.4093 177.146 60 182.5 60C187.854 60 193.113 61.4093 197.75 64.0863L182.5 90.5L152 90.5Z" fill="white"/>
<path d="M152 90.5C152 73.6553 165.655 60 182.5 60M152 90.5C152 107.345 165.655 121 182.5 121M152 90.5C152 83.4437 154.447 76.6056 158.923 71.151C163.4 65.6964 169.629 61.9627 176.55 60.5861C183.47 59.2095 190.654 60.2751 196.878 63.6014C203.101 66.9278 207.978 72.309 210.678 78.8282C213.379 85.3474 213.735 92.6012 211.687 99.3537C209.638 106.106 205.312 111.939 199.445 115.86M152 90.5L182.5 90.5M152 90.5C152 84.4677 153.789 78.5708 157.14 73.5551C160.492 68.5394 165.255 64.6302 170.828 62.3217C176.401 60.0132 182.534 59.4092 188.45 60.5861C194.367 61.7629 199.801 64.6678 204.067 68.9333C208.332 73.1988 211.237 78.6333 212.414 84.5498C213.591 90.4662 212.987 96.5987 210.678 102.172C208.37 107.745 204.461 112.508 199.445 115.86M152 90.5C152 85.1461 153.409 79.8866 156.086 75.25C158.763 70.6134 162.613 66.7632 167.25 64.0863C171.887 61.4093 177.146 60 182.5 60M182.5 60C199.345 60 213 73.6553 213 90.5M182.5 60C187.854 60 193.113 61.4093 197.75 64.0863M213 90.5C213 107.345 199.345 121 182.5 121M213 90.5C213 85.1461 211.591 79.8866 208.914 75.25C206.237 70.6134 202.387 66.7632 197.75 64.0863M213 90.5C213 95.8539 211.591 101.113 208.914 105.75C206.237 110.387 202.387 114.237 197.75 116.914L182.5 90.5M182.5 121C188.532 121 194.429 119.211 199.445 115.86M182.5 121L182.5 90.5M199.445 115.86C193.578 119.78 186.533 121.545 179.51 120.853C172.488 120.161 165.923 117.056 160.933 112.067L182.5 90.5M182.5 90.5L197.75 64.0863" stroke="black"/>
<circle cx="182.5" cy="90.5" r="27" fill="white" stroke="black"/>
<circle cx="182.5" cy="90.5" r="23" fill="white" stroke="black"/>
<circle cx="182.5" cy="90.5" r="15" transform="rotate(-90 182.5 90.5)" fill="white" stroke="black"/>
<rect x="182" y="91" width="1" height="16" transform="rotate(-90 182 91)" fill="black"/>
<circle cx="182.5" cy="90.5" r="4" transform="rotate(-90 182.5 90.5)" fill="white" stroke="black"/>
<path d="M36 90.5C36 73.6553 49.6553 60 66.5 60C83.3447 60 97 73.6553 97 90.5C97 107.345 83.3447 121 66.5 121C49.6553 121 36 107.345 36 90.5Z" fill="white"/>
<path d="M36 90.5C36 83.4437 38.4467 76.6056 42.9232 71.151C47.3997 65.6964 53.629 61.9627 60.5497 60.5861C67.4705 59.2095 74.6545 60.2751 80.8776 63.6014C87.1007 66.9278 91.978 72.309 94.6783 78.8282C97.3787 85.3474 97.735 92.6012 95.6867 99.3537C93.6383 106.106 89.312 111.939 83.4449 115.86C77.5778 119.78 70.5328 121.545 63.5105 120.853C56.4881 120.161 49.9228 117.056 44.9332 112.067L66.5 90.5L36 90.5Z" fill="white"/>
<path d="M36 90.5C36 84.4677 37.7888 78.5708 41.1402 73.5551C44.4916 68.5394 49.255 64.6302 54.8282 62.3217C60.4013 60.0132 66.5338 59.4092 72.4503 60.5861C78.3667 61.7629 83.8012 64.6678 88.0667 68.9333C92.3322 73.1988 95.2371 78.6333 96.4139 84.5498C97.5908 90.4662 96.9868 96.5987 94.6783 102.172C92.3698 107.745 88.4606 112.508 83.4449 115.86C78.4292 119.211 72.5323 121 66.5 121L66.5 90.5L36 90.5Z" fill="white"/>
<path d="M36 90.5C36 85.1461 37.4093 79.8866 40.0862 75.25C42.7632 70.6134 46.6134 66.7632 51.25 64.0863C55.8866 61.4093 61.1461 60 66.5 60C71.8539 60 77.1134 61.4093 81.75 64.0863C86.3866 66.7632 90.2368 70.6134 92.9138 75.25C95.5907 79.8866 97 85.1461 97 90.5C97 95.8539 95.5907 101.113 92.9138 105.75C90.2368 110.387 86.3866 114.237 81.75 116.914L66.5 90.5L36 90.5Z" fill="white"/>
<path d="M36 90.5C36 85.1461 37.4093 79.8866 40.0862 75.25C42.7632 70.6134 46.6134 66.7632 51.25 64.0863C55.8866 61.4093 61.1461 60 66.5 60C71.8539 60 77.1134 61.4093 81.75 64.0863L66.5 90.5L36 90.5Z" fill="white"/>
<path d="M36 90.5C36 73.6553 49.6553 60 66.5 60M36 90.5C36 107.345 49.6553 121 66.5 121M36 90.5C36 83.4437 38.4467 76.6056 42.9232 71.151C47.3997 65.6964 53.629 61.9627 60.5497 60.5861C67.4705 59.2095 74.6545 60.2751 80.8776 63.6014C87.1007 66.9278 91.978 72.309 94.6783 78.8282C97.3787 85.3474 97.735 92.6012 95.6867 99.3537C93.6383 106.106 89.312 111.939 83.4449 115.86M36 90.5L66.5 90.5M36 90.5C36 84.4677 37.7888 78.5708 41.1402 73.5551C44.4916 68.5394 49.255 64.6302 54.8282 62.3217C60.4013 60.0132 66.5338 59.4092 72.4503 60.5861C78.3667 61.7629 83.8012 64.6678 88.0667 68.9333C92.3322 73.1988 95.2371 78.6333 96.4139 84.5498C97.5908 90.4662 96.9868 96.5987 94.6783 102.172C92.3698 107.745 88.4606 112.508 83.4449 115.86M36 90.5C36 85.1461 37.4093 79.8866 40.0862 75.25C42.7632 70.6134 46.6134 66.7632 51.25 64.0863C55.8866 61.4093 61.1461 60 66.5 60M66.5 60C83.3447 60 97 73.6553 97 90.5M66.5 60C71.8539 60 77.1134 61.4093 81.75 64.0863M97 90.5C97 107.345 83.3447 121 66.5 121M97 90.5C97 85.1461 95.5907 79.8866 92.9138 75.25C90.2368 70.6134 86.3866 66.7632 81.75 64.0863M97 90.5C97 95.8539 95.5907 101.113 92.9138 105.75C90.2368 110.387 86.3866 114.237 81.75 116.914L66.5 90.5M66.5 121C72.5323 121 78.4292 119.211 83.4449 115.86M66.5 121L66.5 90.5M83.4449 115.86C77.5778 119.78 70.5328 121.545 63.5105 120.853C56.4881 120.161 49.9228 117.056 44.9332 112.067L66.5 90.5M66.5 90.5L81.75 64.0863" stroke="black"/>
<circle cx="66.5" cy="90.5" r="27" fill="white" stroke="black"/>
<circle cx="66.5" cy="90.5" r="23" fill="white" stroke="black"/>
<circle cx="66.5" cy="90.5" r="15" transform="rotate(-90 66.5 90.5)" fill="white" stroke="black"/>
<rect x="66" y="91" width="1" height="16" transform="rotate(-90 66 91)" fill="black"/>
<circle cx="66.5" cy="90.5" r="4" transform="rotate(-90 66.5 90.5)" fill="white" stroke="black"/>
<path d="M36 156.5C36 139.655 49.6553 126 66.5 126C83.3447 126 97 139.655 97 156.5C97 173.345 83.3447 187 66.5 187C49.6553 187 36 173.345 36 156.5Z" fill="white"/>
<path d="M36 156.5C36 149.444 38.4467 142.606 42.9232 137.151C47.3997 131.696 53.629 127.963 60.5497 126.586C67.4705 125.209 74.6545 126.275 80.8776 129.601C87.1007 132.928 91.978 138.309 94.6783 144.828C97.3787 151.347 97.735 158.601 95.6867 165.354C93.6383 172.106 89.312 177.939 83.4449 181.86C77.5778 185.78 70.5328 187.545 63.5105 186.853C56.4881 186.161 49.9228 183.056 44.9332 178.067L66.5 156.5L36 156.5Z" fill="white"/>
<path d="M36 156.5C36 150.468 37.7888 144.571 41.1402 139.555C44.4916 134.539 49.255 130.63 54.8282 128.322C60.4013 126.013 66.5338 125.409 72.4503 126.586C78.3667 127.763 83.8012 130.668 88.0667 134.933C92.3322 139.199 95.2371 144.633 96.4139 150.55C97.5908 156.466 96.9868 162.599 94.6783 168.172C92.3698 173.745 88.4606 178.508 83.4449 181.86C78.4292 185.211 72.5323 187 66.5 187L66.5 156.5L36 156.5Z" fill="white"/>
<path d="M36 156.5C36 151.146 37.4093 145.887 40.0862 141.25C42.7632 136.613 46.6134 132.763 51.25 130.086C55.8866 127.409 61.1461 126 66.5 126C71.8539 126 77.1134 127.409 81.75 130.086C86.3866 132.763 90.2368 136.613 92.9138 141.25C95.5907 145.887 97 151.146 97 156.5C97 161.854 95.5907 167.113 92.9138 171.75C90.2368 176.387 86.3866 180.237 81.75 182.914L66.5 156.5L36 156.5Z" fill="white"/>
<path d="M36 156.5C36 151.146 37.4093 145.887 40.0862 141.25C42.7632 136.613 46.6134 132.763 51.25 130.086C55.8866 127.409 61.1461 126 66.5 126C71.8539 126 77.1134 127.409 81.75 130.086L66.5 156.5L36 156.5Z" fill="white"/>
<path d="M36 156.5C36 139.655 49.6553 126 66.5 126M36 156.5C36 173.345 49.6553 187 66.5 187M36 156.5C36 149.444 38.4467 142.606 42.9232 137.151C47.3997 131.696 53.629 127.963 60.5497 126.586C67.4705 125.209 74.6545 126.275 80.8776 129.601C87.1007 132.928 91.978 138.309 94.6783 144.828C97.3787 151.347 97.735 158.601 95.6867 165.354C93.6383 172.106 89.312 177.939 83.4449 181.86M36 156.5L66.5 156.5M36 156.5C36 150.468 37.7888 144.571 41.1402 139.555C44.4916 134.539 49.255 130.63 54.8282 128.322C60.4013 126.013 66.5338 125.409 72.4503 126.586C78.3667 127.763 83.8012 130.668 88.0667 134.933C92.3322 139.199 95.2371 144.633 96.4139 150.55C97.5908 156.466 96.9868 162.599 94.6783 168.172C92.3698 173.745 88.4606 178.508 83.4449 181.86M36 156.5C36 151.146 37.4093 145.887 40.0862 141.25C42.7632 136.613 46.6134 132.763 51.25 130.086C55.8866 127.409 61.1461 126 66.5 126M66.5 126C83.3447 126 97 139.655 97 156.5M66.5 126C71.8539 126 77.1134 127.409 81.75 130.086M97 156.5C97 173.345 83.3447 187 66.5 187M97 156.5C97 151.146 95.5907 145.887 92.9138 141.25C90.2368 136.613 86.3866 132.763 81.75 130.086M97 156.5C97 161.854 95.5907 167.113 92.9138 171.75C90.2368 176.387 86.3866 180.237 81.75 182.914L66.5 156.5M66.5 187C72.5323 187 78.4292 185.211 83.4449 181.86M66.5 187L66.5 156.5M83.4449 181.86C77.5778 185.78 70.5328 187.545 63.5105 186.853C56.4881 186.161 49.9228 183.056 44.9332 178.067L66.5 156.5M66.5 156.5L81.75 130.086" stroke="black"/>
<circle cx="66.5" cy="156.5" r="27" fill="white" stroke="black"/>
<circle cx="66.5" cy="156.5" r="23" fill="white" stroke="black"/>
<circle cx="66.5" cy="156.5" r="15" transform="rotate(-90 66.5 156.5)" fill="white" stroke="black"/>
<rect x="66" y="157" width="1" height="16" transform="rotate(-90 66 157)" fill="black"/>
<circle cx="66.5" cy="156.5" r="4" transform="rotate(-90 66.5 156.5)" fill="white" stroke="black"/>
<path d="M152 156.5C152 139.655 165.655 126 182.5 126C199.345 126 213 139.655 213 156.5C213 173.345 199.345 187 182.5 187C165.655 187 152 173.345 152 156.5Z" fill="white"/>
<path d="M152 156.5C152 149.444 154.447 142.606 158.923 137.151C163.4 131.696 169.629 127.963 176.55 126.586C183.47 125.209 190.654 126.275 196.878 129.601C203.101 132.928 207.978 138.309 210.678 144.828C213.379 151.347 213.735 158.601 211.687 165.354C209.638 172.106 205.312 177.939 199.445 181.86C193.578 185.78 186.533 187.545 179.51 186.853C172.488 186.161 165.923 183.056 160.933 178.067L182.5 156.5L152 156.5Z" fill="white"/>
<path d="M152 156.5C152 150.468 153.789 144.571 157.14 139.555C160.492 134.539 165.255 130.63 170.828 128.322C176.401 126.013 182.534 125.409 188.45 126.586C194.367 127.763 199.801 130.668 204.067 134.933C208.332 139.199 211.237 144.633 212.414 150.55C213.591 156.466 212.987 162.599 210.678 168.172C208.37 173.745 204.461 178.508 199.445 181.86C194.429 185.211 188.532 187 182.5 187L182.5 156.5L152 156.5Z" fill="white"/>
<path d="M152 156.5C152 151.146 153.409 145.887 156.086 141.25C158.763 136.613 162.613 132.763 167.25 130.086C171.887 127.409 177.146 126 182.5 126C187.854 126 193.113 127.409 197.75 130.086C202.387 132.763 206.237 136.613 208.914 141.25C211.591 145.887 213 151.146 213 156.5C213 161.854 211.591 167.113 208.914 171.75C206.237 176.387 202.387 180.237 197.75 182.914L182.5 156.5L152 156.5Z" fill="white"/>
<path d="M152 156.5C152 151.146 153.409 145.887 156.086 141.25C158.763 136.613 162.613 132.763 167.25 130.086C171.887 127.409 177.146 126 182.5 126C187.854 126 193.113 127.409 197.75 130.086L182.5 156.5L152 156.5Z" fill="white"/>
<path d="M152 156.5C152 139.655 165.655 126 182.5 126M152 156.5C152 173.345 165.655 187 182.5 187M152 156.5C152 149.444 154.447 142.606 158.923 137.151C163.4 131.696 169.629 127.963 176.55 126.586C183.47 125.209 190.654 126.275 196.878 129.601C203.101 132.928 207.978 138.309 210.678 144.828C213.379 151.347 213.735 158.601 211.687 165.354C209.638 172.106 205.312 177.939 199.445 181.86M152 156.5L182.5 156.5M152 156.5C152 150.468 153.789 144.571 157.14 139.555C160.492 134.539 165.255 130.63 170.828 128.322C176.401 126.013 182.534 125.409 188.45 126.586C194.367 127.763 199.801 130.668 204.067 134.933C208.332 139.199 211.237 144.633 212.414 150.55C213.591 156.466 212.987 162.599 210.678 168.172C208.37 173.745 204.461 178.508 199.445 181.86M152 156.5C152 151.146 153.409 145.887 156.086 141.25C158.763 136.613 162.613 132.763 167.25 130.086C171.887 127.409 177.146 126 182.5 126M182.5 126C199.345 126 213 139.655 213 156.5M182.5 126C187.854 126 193.113 127.409 197.75 130.086M213 156.5C213 173.345 199.345 187 182.5 187M213 156.5C213 151.146 211.591 145.887 208.914 141.25C206.237 136.613 202.387 132.763 197.75 130.086M213 156.5C213 161.854 211.591 167.113 208.914 171.75C206.237 176.387 202.387 180.237 197.75 182.914L182.5 156.5M182.5 187C188.532 187 194.429 185.211 199.445 181.86M182.5 187L182.5 156.5M199.445 181.86C193.578 185.78 186.533 187.545 179.51 186.853C172.488 186.161 165.923 183.056 160.933 178.067L182.5 156.5M182.5 156.5L197.75 130.086" stroke="black"/>
<circle cx="182.5" cy="156.5" r="27" fill="white" stroke="black"/>
<circle cx="182.5" cy="156.5" r="23" fill="white" stroke="black"/>
<circle cx="182.5" cy="156.5" r="15" transform="rotate(-90 182.5 156.5)" fill="white" stroke="black"/>
<rect x="182" y="157" width="1" height="16" transform="rotate(-90 182 157)" fill="black"/>
<circle cx="182.5" cy="156.5" r="4" transform="rotate(-90 182.5 156.5)" fill="black" stroke="white"/>
<path d="M94 190.5C94 173.655 107.655 160 124.5 160C141.345 160 155 173.655 155 190.5C155 207.345 141.345 221 124.5 221C107.655 221 94 207.345 94 190.5Z" fill="white"/>
<path d="M94 190.5C94 183.444 96.4467 176.606 100.923 171.151C105.4 165.696 111.629 161.963 118.55 160.586C125.47 159.209 132.654 160.275 138.878 163.601C145.101 166.928 149.978 172.309 152.678 178.828C155.379 185.347 155.735 192.601 153.687 199.354C151.638 206.106 147.312 211.939 141.445 215.86C135.578 219.78 128.533 221.545 121.51 220.853C114.488 220.161 107.923 217.056 102.933 212.067L124.5 190.5L94 190.5Z" fill="white"/>
<path d="M94 190.5C94 184.468 95.7888 178.571 99.1402 173.555C102.492 168.539 107.255 164.63 112.828 162.322C118.401 160.013 124.534 159.409 130.45 160.586C136.367 161.763 141.801 164.668 146.067 168.933C150.332 173.199 153.237 178.633 154.414 184.55C155.591 190.466 154.987 196.599 152.678 202.172C150.37 207.745 146.461 212.508 141.445 215.86C136.429 219.211 130.532 221 124.5 221L124.5 190.5L94 190.5Z" fill="white"/>
<path d="M94 190.5C94 185.146 95.4093 179.887 98.0862 175.25C100.763 170.613 104.613 166.763 109.25 164.086C113.887 161.409 119.146 160 124.5 160C129.854 160 135.113 161.409 139.75 164.086C144.387 166.763 148.237 170.613 150.914 175.25C153.591 179.887 155 185.146 155 190.5C155 195.854 153.591 201.113 150.914 205.75C148.237 210.387 144.387 214.237 139.75 216.914L124.5 190.5L94 190.5Z" fill="white"/>
<path d="M94 190.5C94 185.146 95.4093 179.887 98.0862 175.25C100.763 170.613 104.613 166.763 109.25 164.086C113.887 161.409 119.146 160 124.5 160C129.854 160 135.113 161.409 139.75 164.086L124.5 190.5L94 190.5Z" fill="white"/>
<path d="M94 190.5C94 173.655 107.655 160 124.5 160M94 190.5C94 207.345 107.655 221 124.5 221M94 190.5C94 183.444 96.4467 176.606 100.923 171.151C105.4 165.696 111.629 161.963 118.55 160.586C125.47 159.209 132.654 160.275 138.878 163.601C145.101 166.928 149.978 172.309 152.678 178.828C155.379 185.347 155.735 192.601 153.687 199.354C151.638 206.106 147.312 211.939 141.445 215.86M94 190.5L124.5 190.5M94 190.5C94 184.468 95.7888 178.571 99.1402 173.555C102.492 168.539 107.255 164.63 112.828 162.322C118.401 160.013 124.534 159.409 130.45 160.586C136.367 161.763 141.801 164.668 146.067 168.933C150.332 173.199 153.237 178.633 154.414 184.55C155.591 190.466 154.987 196.599 152.678 202.172C150.37 207.745 146.461 212.508 141.445 215.86M94 190.5C94 185.146 95.4093 179.887 98.0862 175.25C100.763 170.613 104.613 166.763 109.25 164.086C113.887 161.409 119.146 160 124.5 160M124.5 160C141.345 160 155 173.655 155 190.5M124.5 160C129.854 160 135.113 161.409 139.75 164.086M155 190.5C155 207.345 141.345 221 124.5 221M155 190.5C155 185.146 153.591 179.887 150.914 175.25C148.237 170.613 144.387 166.763 139.75 164.086M155 190.5C155 195.854 153.591 201.113 150.914 205.75C148.237 210.387 144.387 214.237 139.75 216.914L124.5 190.5M124.5 221C130.532 221 136.429 219.211 141.445 215.86M124.5 221L124.5 190.5M141.445 215.86C135.578 219.78 128.533 221.545 121.51 220.853C114.488 220.161 107.923 217.056 102.933 212.067L124.5 190.5M124.5 190.5L139.75 164.086" stroke="black"/>
<circle cx="124.5" cy="190.5" r="27" fill="white" stroke="black"/>
<circle cx="124.5" cy="190.5" r="23" fill="white" stroke="black"/>
<circle cx="124.5" cy="190.5" r="15" transform="rotate(-90 124.5 190.5)" fill="white" stroke="black"/>
<rect x="124" y="191" width="1" height="16" transform="rotate(-90 124 191)" fill="black"/>
<circle cx="124.5" cy="190.5" r="4" transform="rotate(-90 124.5 190.5)" fill="white" stroke="black"/>
<path d="M209.946 159.209L209.523 158.942C209.303 159.29 208.781 159.238 208.634 158.854L208.4 158.247C207.907 156.965 206.093 156.965 205.6 158.247L205.366 158.854C205.219 159.238 204.697 159.29 204.477 158.942L204.129 158.392C203.396 157.231 201.617 157.584 201.383 158.938L201.272 159.579C201.202 159.985 200.701 160.137 200.417 159.839L199.969 159.367L199.606 159.711L199.969 159.367C199.023 158.371 197.347 159.065 197.382 160.438L197.399 161.089C197.409 161.5 196.946 161.748 196.61 161.51L196.079 161.135C194.956 160.343 193.448 161.351 193.751 162.691L193.894 163.326C193.984 163.727 193.579 164.06 193.203 163.893L192.608 163.628C191.353 163.07 190.07 164.353 190.628 165.608L190.893 166.203C191.06 166.579 190.727 166.984 190.326 166.894L189.691 166.751C188.351 166.448 187.343 167.956 188.135 169.079L188.51 169.61C188.748 169.946 188.5 170.409 188.089 170.399L187.438 170.382C186.065 170.347 185.371 172.023 186.367 172.969L186.711 172.606L186.367 172.969L186.839 173.417C187.137 173.701 186.985 174.202 186.579 174.272L185.938 174.383C184.584 174.617 184.231 176.396 185.392 177.129L185.942 177.477L186.209 177.054L185.942 177.477C186.29 177.697 186.238 178.219 185.854 178.366L185.247 178.6C183.965 179.093 183.965 180.907 185.247 181.4L185.854 181.634C186.238 181.781 186.29 182.303 185.942 182.523L185.392 182.871C184.231 183.604 184.584 185.383 185.938 185.617L186.579 185.728C186.985 185.798 187.137 186.299 186.839 186.583L186.367 187.031C185.371 187.977 186.065 189.653 187.438 189.618L188.089 189.601C188.5 189.591 188.748 190.054 188.51 190.39L188.135 190.921C187.343 192.044 188.351 193.552 189.691 193.249L190.326 193.106C190.727 193.016 191.06 193.421 190.893 193.797L190.628 194.392C190.07 195.647 191.353 196.93 192.608 196.372L193.203 196.107C193.579 195.94 193.984 196.273 193.894 196.674L193.751 197.309C193.448 198.649 194.956 199.657 196.079 198.865L196.61 198.49C196.946 198.252 197.409 198.5 197.399 198.911L197.382 199.562C197.347 200.935 199.023 201.629 199.969 200.633L200.417 200.161C200.701 199.863 201.202 200.015 201.272 200.421L201.383 201.062C201.617 202.416 203.396 202.769 204.129 201.608L204.477 201.058C204.697 200.71 205.219 200.762 205.366 201.146L205.6 201.753C206.093 203.035 207.907 203.035 208.4 201.753L208.634 201.146C208.781 200.762 209.303 200.71 209.523 201.058L209.871 201.608C210.604 202.769 212.383 202.416 212.617 201.062L212.728 200.421C212.798 200.015 213.299 199.863 213.583 200.161L214.031 200.633C214.977 201.629 216.653 200.935 216.618 199.562L216.601 198.911C216.591 198.5 217.054 198.252 217.39 198.49L217.921 198.865C219.044 199.657 220.552 198.649 220.249 197.309L220.106 196.674C220.016 196.273 220.421 195.94 220.797 196.107L221.392 196.372C222.647 196.93 223.93 195.647 223.372 194.392L223.107 193.797C222.94 193.421 223.273 193.016 223.674 193.106L224.309 193.249C225.649 193.552 226.657 192.044 225.865 190.921L225.49 190.39C225.252 190.054 225.5 189.591 225.911 189.601L226.562 189.618C227.935 189.653 228.629 187.977 227.633 187.031L227.161 186.583C226.863 186.299 227.015 185.798 227.421 185.728L228.062 185.617C229.416 185.383 229.769 183.604 228.608 182.871L228.058 182.523C227.71 182.303 227.762 181.781 228.146 181.634L228.753 181.4C230.035 180.907 230.035 179.093 228.753 178.6L228.146 178.366C227.762 178.219 227.71 177.697 228.058 177.477L228.608 177.129C229.769 176.396 229.416 174.617 228.062 174.383L227.421 174.272C227.015 174.202 226.863 173.701 227.161 173.417L227.633 172.969C228.629 172.023 227.935 170.347 226.562 170.382L225.911 170.399C225.5 170.409 225.252 169.946 225.49 169.61L225.865 169.079C226.657 167.956 225.649 166.448 224.309 166.751L223.674 166.894C223.273 166.984 222.94 166.579 223.107 166.203L223.372 165.608C223.93 164.353 222.647 163.07 221.392 163.628L220.797 163.893C220.421 164.06 220.016 163.727 220.106 163.326L220.249 162.691C220.552 161.351 219.044 160.343 217.921 161.135L217.39 161.51C217.054 161.748 216.591 161.5 216.601 161.089L216.618 160.438C216.653 159.065 214.977 158.371 214.031 159.367L213.583 159.839C213.299 160.137 212.798 159.985 212.728 159.579L212.617 158.938C212.383 157.584 210.604 157.231 209.871 158.392L209.523 158.942L209.946 159.209Z" fill="white" stroke="black"/>
<path d="M193.673 170.727L196.312 175.145V178H197.406V175.145L200.044 170.727H198.798L196.898 174.033H196.82L194.92 170.727H193.673ZM202.404 178.11C203.942 178.11 204.947 176.984 204.947 175.298C204.947 173.6 203.942 172.474 202.404 172.474C200.866 172.474 199.861 173.6 199.861 175.298C199.861 176.984 200.866 178.11 202.404 178.11ZM202.407 177.219C201.403 177.219 200.934 176.342 200.934 175.294C200.934 174.25 201.403 173.362 202.407 173.362C203.405 173.362 203.874 174.25 203.874 175.294C203.874 176.342 203.405 177.219 202.407 177.219ZM209.587 175.738C209.591 176.665 208.902 177.105 208.305 177.105C207.648 177.105 207.194 176.629 207.194 175.887V172.545H206.132V176.015C206.132 177.368 206.874 178.071 207.922 178.071C208.742 178.071 209.299 177.638 209.551 177.055H209.608V178H210.652V172.545H209.587V175.738ZM212.079 178H213.141V174.669C213.141 173.955 213.691 173.44 214.444 173.44C214.664 173.44 214.913 173.479 214.998 173.504V172.489C214.892 172.474 214.682 172.464 214.547 172.464C213.908 172.464 213.361 172.826 213.162 173.412H213.105V172.545H212.079V178ZM220.004 173.877C219.784 173.028 219.12 172.474 217.941 172.474C216.709 172.474 215.835 173.124 215.835 174.09C215.835 174.864 216.304 175.379 217.327 175.607L218.25 175.809C218.776 175.926 219.021 176.161 219.021 176.501C219.021 176.924 218.57 177.254 217.874 177.254C217.238 177.254 216.83 176.981 216.702 176.445L215.675 176.601C215.853 177.567 216.656 178.11 217.881 178.11C219.198 178.11 220.111 177.411 220.111 176.423C220.111 175.653 219.621 175.177 218.619 174.946L217.753 174.747C217.153 174.605 216.893 174.403 216.897 174.033C216.893 173.614 217.348 173.316 217.952 173.316C218.612 173.316 218.918 173.682 219.042 174.048L220.004 173.877ZM194.484 190H195.581V186.829H198.67V185.888H195.581V183.672H198.994V182.727H194.484V190ZM202.155 190.11C203.693 190.11 204.698 188.984 204.698 187.298C204.698 185.6 203.693 184.474 202.155 184.474C200.617 184.474 199.612 185.6 199.612 187.298C199.612 188.984 200.617 190.11 202.155 190.11ZM202.158 189.219C201.153 189.219 200.685 188.342 200.685 187.294C200.685 186.25 201.153 185.362 202.158 185.362C203.156 185.362 203.625 186.25 203.625 187.294C203.625 188.342 203.156 189.219 202.158 189.219ZM205.883 190H206.945V186.669C206.945 185.955 207.495 185.44 208.248 185.44C208.468 185.44 208.717 185.479 208.802 185.504V184.489C208.695 184.474 208.486 184.464 208.351 184.464C207.712 184.464 207.165 184.826 206.966 185.412H206.909V184.545H205.883V190ZM211.876 190.11C213.066 190.11 213.907 189.524 214.149 188.636L213.144 188.455C212.952 188.97 212.491 189.233 211.887 189.233C210.978 189.233 210.367 188.643 210.339 187.592H214.216V187.216C214.216 185.245 213.037 184.474 211.802 184.474C210.282 184.474 209.28 185.632 209.28 187.308C209.28 189.002 210.267 190.11 211.876 190.11ZM210.342 186.797C210.385 186.023 210.946 185.352 211.809 185.352C212.633 185.352 213.172 185.962 213.176 186.797H210.342ZM220.031 184.545H218.891L217.514 188.743H217.457L216.075 184.545H214.935L216.917 190H218.053L220.031 184.545Z" fill="black"/>
<path d="M43.6337 44.8544L43.4 44.2469C42.9069 42.9649 41.0931 42.9649 40.6 44.2469L40.3663 44.8544C40.2187 45.2382 39.6967 45.2896 39.477 44.942L39.1293 44.3917C38.3955 43.2306 36.6166 43.5844 36.3831 44.938L36.2724 45.5794C36.2025 45.9846 35.7005 46.1369 35.4172 45.8388L34.9689 45.367C34.0227 44.3713 32.347 45.0654 32.382 46.4385L32.3986 47.0892C32.4091 47.5003 31.9465 47.7475 31.6105 47.5104L31.0787 47.1351C29.9564 46.3432 28.4483 47.3509 28.7506 48.6907L28.8938 49.3257C28.9842 49.7268 28.5788 50.0596 28.203 49.8926L27.6082 49.6283C26.353 49.0705 25.0705 50.353 25.6283 51.6082L25.8926 52.203C26.0596 52.5788 25.7268 52.9842 25.3257 52.8938L24.6907 52.7506C23.3509 52.4483 22.3432 53.9564 23.1351 55.0787L23.5104 55.6105C23.7475 55.9465 23.5003 56.4091 23.0892 56.3986L22.4385 56.382C21.0654 56.347 20.3713 58.0227 21.367 58.9689L21.8388 59.4172C22.1369 59.7005 21.9846 60.2025 21.5794 60.2724L20.938 60.3831C19.5844 60.6166 19.2306 62.3955 20.3917 63.1293L20.942 63.477C21.2896 63.6967 21.2382 64.2187 20.8544 64.3663L20.2469 64.6C18.9649 65.0931 18.9649 66.9069 20.2469 67.4L20.8544 67.6337C21.2382 67.7813 21.2896 68.3033 20.942 68.523L20.3917 68.8707C19.2306 69.6045 19.5844 71.3834 20.938 71.6169L21.5794 71.7276C21.9846 71.7975 22.1369 72.2995 21.8388 72.5828L21.367 73.0311C20.3713 73.9773 21.0654 75.653 22.4385 75.618L23.0892 75.6014C23.5003 75.5909 23.7475 76.0535 23.5104 76.3895L23.1351 76.9213C22.3432 78.0436 23.3509 79.5517 24.6907 79.2494L25.3257 79.1062C25.7268 79.0158 26.0596 79.4212 25.8926 79.797L25.6283 80.3918C25.0705 81.647 26.353 82.9295 27.6082 82.3717L28.203 82.1074C28.5788 81.9404 28.9842 82.2732 28.8938 82.6743L28.7506 83.3093C28.4483 84.6491 29.9564 85.6568 31.0787 84.8649L31.6105 84.4896C31.9465 84.2525 32.4091 84.4997 32.3986 84.9108L32.382 85.5615C32.347 86.9346 34.0227 87.6287 34.9689 86.633L35.4172 86.1612C35.7005 85.8631 36.2025 86.0154 36.2724 86.4206L36.3831 87.062C36.6166 88.4156 38.3955 88.7694 39.1293 87.6083L39.477 87.058C39.6967 86.7104 40.2187 86.7618 40.3663 87.1456L40.6 87.7531C41.0931 89.0351 42.9069 89.0351 43.4 87.7531L43.6337 87.1456C43.7813 86.7618 44.3033 86.7104 44.523 87.058L44.8707 87.6083C45.6045 88.7694 47.3834 88.4156 47.6169 87.062L47.7276 86.4206C47.7975 86.0154 48.2995 85.8631 48.5828 86.1612L49.0311 86.633C49.9773 87.6287 51.653 86.9346 51.618 85.5615L51.6014 84.9108C51.5909 84.4997 52.0535 84.2525 52.3895 84.4896L52.9213 84.8649C54.0436 85.6568 55.5517 84.6491 55.2494 83.3093L55.1062 82.6743C55.0158 82.2732 55.4212 81.9404 55.797 82.1074L56.3918 82.3717C57.647 82.9295 58.9295 81.647 58.3717 80.3918L58.1074 79.797C57.9404 79.4212 58.2732 79.0158 58.6743 79.1062L59.3093 79.2494C60.6491 79.5517 61.6568 78.0436 60.8649 76.9213L60.4896 76.3895C60.2525 76.0535 60.4997 75.5909 60.9108 75.6014L61.5615 75.618C62.9346 75.653 63.6287 73.9773 62.633 73.0311L62.1612 72.5828C61.8631 72.2995 62.0154 71.7975 62.4206 71.7276L63.062 71.6169C64.4156 71.3834 64.7694 69.6045 63.6083 68.8707L63.058 68.523C62.7104 68.3033 62.7618 67.7813 63.1456 67.6337L63.7531 67.4C65.0351 66.9069 65.0351 65.0931 63.7531 64.6L63.1456 64.3663C62.7618 64.2187 62.7104 63.6967 63.058 63.477L63.6083 63.1293C64.7694 62.3955 64.4156 60.6166 63.062 60.3831L62.4206 60.2724C62.0154 60.2025 61.8631 59.7005 62.1612 59.4172L62.633 58.9689C63.6287 58.0227 62.9346 56.347 61.5615 56.382L60.9108 56.3986C60.4997 56.4091 60.2525 55.9465 60.4896 55.6105L60.8649 55.0787C61.6568 53.9564 60.6492 52.4483 59.3093 52.7506L58.6743 52.8938C58.2732 52.9842 57.9404 52.5788 58.1074 52.203L58.3717 51.6082C58.9295 50.353 57.647 49.0705 56.3918 49.6283L55.797 49.8926C55.4212 50.0596 55.0158 49.7268 55.1062 49.3257L55.2494 48.6907C55.5517 47.3509 54.0436 46.3432 52.9213 47.1351L52.3895 47.5104C52.0535 47.7475 51.5909 47.5003 51.6014 47.0892L51.618 46.4385C51.653 45.0654 49.9773 44.3713 49.0311 45.367L48.5828 45.8388C48.2995 46.1369 47.7975 45.9846 47.7276 45.5794L47.6169 44.938C47.3834 43.5844 45.6045 43.2306 44.8707 44.3917L44.523 44.942C44.3033 45.2896 43.7813 45.2382 43.6337 44.8544Z" fill="#E6E6E6" stroke="black"/>
<path d="M27.8964 57.6719H30.162V64H31.2558V57.6719H33.5249V56.7273H27.8964V57.6719ZM35.7453 60.7614C35.7453 59.8913 36.2957 59.3942 37.0521 59.3942C37.7836 59.3942 38.2204 59.8594 38.2204 60.6584V64H39.2822V60.5305C39.2822 59.1705 38.5365 58.4744 37.4143 58.4744C36.5656 58.4744 36.0542 58.8438 35.7986 59.4332H35.7311V56.7273H34.6835V64H35.7453V60.7614ZM43.05 64.1101C44.2396 64.1101 45.0812 63.5241 45.3227 62.6364L44.3177 62.4553C44.126 62.9702 43.6643 63.233 43.0606 63.233C42.1515 63.233 41.5407 62.6435 41.5123 61.5923H45.3902V61.2159C45.3902 59.245 44.2112 58.4744 42.9754 58.4744C41.4555 58.4744 40.4541 59.6321 40.4541 61.3082C40.4541 63.0021 41.4413 64.1101 43.05 64.1101ZM41.5159 60.7969C41.5585 60.0227 42.1196 59.3516 42.9825 59.3516C43.8064 59.3516 44.3461 59.9624 44.3497 60.7969H41.5159ZM46.5683 64H47.6301V58.5455H46.5683V64ZM47.1045 57.7038C47.4703 57.7038 47.7757 57.4197 47.7757 57.0717C47.7757 56.7237 47.4703 56.4361 47.1045 56.4361C46.7352 56.4361 46.4333 56.7237 46.4333 57.0717C46.4333 57.4197 46.7352 57.7038 47.1045 57.7038ZM49.0585 64H50.1203V60.669C50.1203 59.9553 50.6707 59.4403 51.4236 59.4403C51.6437 59.4403 51.8923 59.4794 51.9775 59.5043V58.4886C51.871 58.4744 51.6615 58.4638 51.5265 58.4638C50.8873 58.4638 50.3405 58.826 50.1416 59.4119H50.0848V58.5455H49.0585V64ZM56.9838 59.8771C56.7636 59.0284 56.0995 58.4744 54.9205 58.4744C53.6883 58.4744 52.8147 59.1243 52.8147 60.0902C52.8147 60.8643 53.2835 61.3793 54.3062 61.6065L55.2295 61.8089C55.7551 61.9261 56.0001 62.1605 56.0001 62.5014C56.0001 62.924 55.5491 63.2543 54.8531 63.2543C54.2174 63.2543 53.809 62.9808 53.6812 62.4446L52.6549 62.6009C52.8325 63.5668 53.635 64.1101 54.8602 64.1101C56.1776 64.1101 57.0903 63.4105 57.0903 62.4233C57.0903 61.6527 56.6002 61.1768 55.5988 60.946L54.7323 60.7472C54.1322 60.6051 53.873 60.4027 53.8765 60.0334C53.873 59.6143 54.3275 59.3161 54.9312 59.3161C55.5917 59.3161 55.8971 59.6818 56.0214 60.0476L56.9838 59.8771ZM29.9836 76H31.0809V72.8288H34.1704V71.8878H31.0809V69.6719H34.4935V68.7273H29.9836V76ZM37.6549 76.1101C39.1926 76.1101 40.1975 74.9844 40.1975 73.2976C40.1975 71.6001 39.1926 70.4744 37.6549 70.4744C36.1173 70.4744 35.1123 71.6001 35.1123 73.2976C35.1123 74.9844 36.1173 76.1101 37.6549 76.1101ZM37.6585 75.2188C36.6535 75.2188 36.1847 74.3416 36.1847 73.294C36.1847 72.25 36.6535 71.3622 37.6585 71.3622C38.6563 71.3622 39.1251 72.25 39.1251 73.294C39.1251 74.3416 38.6563 75.2188 37.6585 75.2188ZM41.3827 76H42.4445V72.669C42.4445 71.9553 42.9949 71.4403 43.7478 71.4403C43.968 71.4403 44.2165 71.4794 44.3018 71.5043V70.4886C44.1952 70.4744 43.9857 70.4638 43.8508 70.4638C43.2116 70.4638 42.6647 70.826 42.4658 71.4119H42.409V70.5455H41.3827V76ZM47.3762 76.1101C48.5658 76.1101 49.4074 75.5241 49.6489 74.6364L48.6439 74.4553C48.4521 74.9702 47.9905 75.233 47.3868 75.233C46.4777 75.233 45.8669 74.6435 45.8385 73.5923H49.7164V73.2159C49.7164 71.245 48.5374 70.4744 47.3016 70.4744C45.7817 70.4744 44.7803 71.6321 44.7803 73.3082C44.7803 75.0021 45.7675 76.1101 47.3762 76.1101ZM45.8421 72.7969C45.8847 72.0227 46.4458 71.3516 47.3087 71.3516C48.1325 71.3516 48.6723 71.9624 48.6759 72.7969H45.8421ZM55.5313 70.5455H54.3914L53.0136 74.7429H52.9568L51.5754 70.5455H50.4355L52.417 76H53.5534L55.5313 70.5455Z" fill="black"/>
</svg>
