<svg width="248" height="248" viewBox="0 0 248 248" fill="none" xmlns="http://www.w3.org/2000/svg">
<rect x="0.5" y="0.5" width="247" height="247" fill="white" stroke="black"/>
<path d="M73 124L247 124" stroke="black"/>
<path d="M73 124C168.075 124 131.608 220 247 220" stroke="black"/>
<path d="M73 124C168.075 124 131.608 28 247 28" stroke="black"/>
<path d="M73 124C168.075 124 168.075 172 247 172" stroke="black"/>
<path d="M73 124C168.075 124 168.075 76 247 76" stroke="black"/>
<rect x="226.5" y="69.5" width="15" height="15" rx="7.5" fill="white" stroke="black"/>
<rect x="166.5" y="190.5" width="9" height="9" rx="4.5" fill="black" stroke="black"/>
<rect x="147.5" y="136.5" width="7" height="7" rx="3.5" fill="black" stroke="black"/>
<rect x="125.5" y="114.5" width="5" height="5" rx="2.5" fill="black" stroke="black"/>
<rect x="204.5" y="118.5" width="11" height="11" fill="black" stroke="black"/>
<rect x="184.5" y="34.5" width="11" height="11" fill="white" stroke="black"/>
<circle cx="42.5" cy="123.5" r="30" fill="white" stroke="black"/>
<mask id="path-14-inside-1" fill="white">
<path d="M73 123.5C73 130.556 70.5533 137.394 66.0768 142.849C61.6003 148.304 55.371 152.037 48.4503 153.414C41.5295 154.791 34.3455 153.725 28.1224 150.399C21.8993 147.072 17.022 141.691 14.3217 135.172C11.6213 128.653 11.265 121.399 13.3133 114.646C15.3617 107.894 19.688 102.06 25.5551 98.1402C31.4222 94.2199 38.4672 92.4552 45.4895 93.1469C52.5119 93.8385 59.0772 96.9437 64.0668 101.933L42.5 123.5L73 123.5Z"/>
</mask>
<path d="M73 123.5C73 130.556 70.5533 137.394 66.0768 142.849C61.6003 148.304 55.371 152.037 48.4503 153.414C41.5295 154.791 34.3455 153.725 28.1224 150.399C21.8993 147.072 17.022 141.691 14.3217 135.172C11.6213 128.653 11.265 121.399 13.3133 114.646C15.3617 107.894 19.688 102.06 25.5551 98.1402C31.4222 94.2199 38.4672 92.4552 45.4895 93.1469C52.5119 93.8385 59.0772 96.9437 64.0668 101.933L42.5 123.5L73 123.5Z" fill="white" stroke="black" stroke-width="2" mask="url(#path-14-inside-1)"/>
<mask id="path-15-inside-2" fill="white">
<path d="M73 123.5C73 129.532 71.2112 135.429 67.8598 140.445C64.5084 145.461 59.745 149.37 54.1718 151.678C48.5987 153.987 42.4662 154.591 36.5497 153.414C30.6333 152.237 25.1987 149.332 20.9332 145.067C16.6677 140.801 13.7629 135.367 12.586 129.45C11.4092 123.534 12.0132 117.401 14.3217 111.828C16.6301 106.255 20.5394 101.492 25.5551 98.1402C30.5708 94.7888 36.4677 93 42.5 93V123.5L73 123.5Z"/>
</mask>
<path d="M73 123.5C73 129.532 71.2112 135.429 67.8598 140.445C64.5084 145.461 59.745 149.37 54.1718 151.678C48.5987 153.987 42.4662 154.591 36.5497 153.414C30.6333 152.237 25.1987 149.332 20.9332 145.067C16.6677 140.801 13.7629 135.367 12.586 129.45C11.4092 123.534 12.0132 117.401 14.3217 111.828C16.6301 106.255 20.5394 101.492 25.5551 98.1402C30.5708 94.7888 36.4677 93 42.5 93V123.5L73 123.5Z" fill="white" stroke="black" stroke-width="2" mask="url(#path-15-inside-2)"/>
<mask id="path-16-inside-3" fill="white">
<path d="M73 123.5C73 128.854 71.5907 134.113 68.9138 138.75C66.2368 143.387 62.3866 147.237 57.75 149.914C53.1134 152.591 47.8539 154 42.5 154C37.1461 154 31.8866 152.591 27.25 149.914C22.6134 147.237 18.7632 143.387 16.0862 138.75C13.4093 134.113 12 128.854 12 123.5C12 118.146 13.4093 112.887 16.0862 108.25C18.7632 103.613 22.6134 99.7632 27.25 97.0862L42.5 123.5L73 123.5Z"/>
</mask>
<path d="M73 123.5C73 128.854 71.5907 134.113 68.9138 138.75C66.2368 143.387 62.3866 147.237 57.75 149.914C53.1134 152.591 47.8539 154 42.5 154C37.1461 154 31.8866 152.591 27.25 149.914C22.6134 147.237 18.7632 143.387 16.0862 138.75C13.4093 134.113 12 128.854 12 123.5C12 118.146 13.4093 112.887 16.0862 108.25C18.7632 103.613 22.6134 99.7632 27.25 97.0862L42.5 123.5L73 123.5Z" fill="white" stroke="black" stroke-width="2" mask="url(#path-16-inside-3)"/>
<mask id="path-17-inside-4" fill="white">
<path d="M73 123.5C73 128.854 71.5907 134.113 68.9138 138.75C66.2368 143.387 62.3866 147.237 57.75 149.914C53.1134 152.591 47.8539 154 42.5 154C37.1461 154 31.8866 152.591 27.25 149.914L42.5 123.5L73 123.5Z"/>
</mask>
<path d="M73 123.5C73 128.854 71.5907 134.113 68.9138 138.75C66.2368 143.387 62.3866 147.237 57.75 149.914C53.1134 152.591 47.8539 154 42.5 154C37.1461 154 31.8866 152.591 27.25 149.914L42.5 123.5L73 123.5Z" fill="white" stroke="black" stroke-width="2" mask="url(#path-17-inside-4)"/>
<circle cx="42.5" cy="123.5" r="27" fill="white" stroke="black"/>
<circle cx="42.5" cy="123.5" r="23" fill="white" stroke="black"/>
<circle cx="42.5" cy="123.5" r="15" transform="rotate(-45 42.5 123.5)" fill="white" stroke="black"/>
<rect x="46.5355" y="124" width="1" height="10.6258" transform="rotate(-90 46.5355 124)" fill="black"/>
<circle cx="42.5001" cy="123.5" r="4" transform="rotate(-45 42.5001 123.5)" fill="black" stroke="white"/>
</svg>
