<svg width="65" height="65" viewBox="0 0 65 65" fill="none" xmlns="http://www.w3.org/2000/svg">
<rect width="65" height="65" fill="white"/>
<circle cx="32.5" cy="32.5" r="30" fill="#F86C4D" stroke="black"/>
<mask id="path-2-inside-1" fill="white">
<path d="M63 32.5C63 39.5563 60.5533 46.3944 56.0768 51.849C51.6003 57.3036 45.371 61.0373 38.4503 62.414C31.5295 63.7906 24.3455 62.7249 18.1224 59.3986C11.8993 56.0723 7.02202 50.6911 4.32168 44.1718C1.62133 37.6526 1.26497 30.3988 3.31332 23.6463C5.36166 16.8938 9.68798 11.0605 15.5551 7.14018C21.4222 3.21989 28.4672 1.45522 35.4895 2.14687C42.5119 2.83851 49.0772 5.94366 54.0668 10.9332L32.5 32.5H63Z"/>
</mask>
<path d="M63 32.5C63 39.5563 60.5533 46.3944 56.0768 51.849C51.6003 57.3036 45.371 61.0373 38.4503 62.414C31.5295 63.7906 24.3455 62.7249 18.1224 59.3986C11.8993 56.0723 7.02202 50.6911 4.32168 44.1718C1.62133 37.6526 1.26497 30.3988 3.31332 23.6463C5.36166 16.8938 9.68798 11.0605 15.5551 7.14018C21.4222 3.21989 28.4672 1.45522 35.4895 2.14687C42.5119 2.83851 49.0772 5.94366 54.0668 10.9332L32.5 32.5H63Z" fill="#F86C4D" stroke="black" stroke-width="2" mask="url(#path-2-inside-1)"/>
<mask id="path-3-inside-2" fill="white">
<path d="M63 32.5C63 38.5323 61.2112 44.4292 57.8598 49.4449C54.5084 54.4606 49.745 58.3699 44.1718 60.6783C38.5987 62.9868 32.4662 63.5908 26.5497 62.414C20.6333 61.2371 15.1987 58.3323 10.9332 54.0668C6.66774 49.8013 3.7629 44.3667 2.58605 38.4503C1.4092 32.5338 2.0132 26.4013 4.32167 20.8282C6.63015 15.255 10.5394 10.4916 15.5551 7.14018C20.5708 3.78879 26.4677 2 32.5 2L32.5 32.5H63Z"/>
</mask>
<path d="M63 32.5C63 38.5323 61.2112 44.4292 57.8598 49.4449C54.5084 54.4606 49.745 58.3699 44.1718 60.6783C38.5987 62.9868 32.4662 63.5908 26.5497 62.414C20.6333 61.2371 15.1987 58.3323 10.9332 54.0668C6.66774 49.8013 3.7629 44.3667 2.58605 38.4503C1.4092 32.5338 2.0132 26.4013 4.32167 20.8282C6.63015 15.255 10.5394 10.4916 15.5551 7.14018C20.5708 3.78879 26.4677 2 32.5 2L32.5 32.5H63Z" fill="#F86C4D" stroke="black" stroke-width="2" mask="url(#path-3-inside-2)"/>
<mask id="path-4-inside-3" fill="white">
<path d="M63 32.5C63 37.8539 61.5907 43.1134 58.9138 47.75C56.2368 52.3866 52.3866 56.2368 47.75 58.9138C43.1134 61.5907 37.8539 63 32.5 63C27.1461 63 21.8866 61.5907 17.25 58.9138C12.6134 56.2368 8.76316 52.3866 6.08622 47.75C3.40929 43.1134 2 37.8539 2 32.5C2 27.1461 3.40929 21.8866 6.08623 17.25C8.76316 12.6134 12.6134 8.76316 17.25 6.08622L32.5 32.5H63Z"/>
</mask>
<path d="M63 32.5C63 37.8539 61.5907 43.1134 58.9138 47.75C56.2368 52.3866 52.3866 56.2368 47.75 58.9138C43.1134 61.5907 37.8539 63 32.5 63C27.1461 63 21.8866 61.5907 17.25 58.9138C12.6134 56.2368 8.76316 52.3866 6.08622 47.75C3.40929 43.1134 2 37.8539 2 32.5C2 27.1461 3.40929 21.8866 6.08623 17.25C8.76316 12.6134 12.6134 8.76316 17.25 6.08622L32.5 32.5H63Z" fill="#F86C4D" stroke="black" stroke-width="2" mask="url(#path-4-inside-3)"/>
<mask id="path-5-inside-4" fill="white">
<path d="M63 32.5C63 37.8539 61.5907 43.1134 58.9138 47.75C56.2368 52.3866 52.3866 56.2368 47.75 58.9138C43.1134 61.5907 37.8539 63 32.5 63C27.1461 63 21.8866 61.5907 17.25 58.9138L32.5 32.5H63Z"/>
</mask>
<path d="M63 32.5C63 37.8539 61.5907 43.1134 58.9138 47.75C56.2368 52.3866 52.3866 56.2368 47.75 58.9138C43.1134 61.5907 37.8539 63 32.5 63C27.1461 63 21.8866 61.5907 17.25 58.9138L32.5 32.5H63Z" fill="#F86C4D" stroke="black" stroke-width="2" mask="url(#path-5-inside-4)"/>
<circle cx="32.5" cy="32.5" r="27" fill="#F86C4D" stroke="black"/>
<circle cx="32.5" cy="32.5" r="23" fill="#F86C4D" stroke="black"/>
<circle cx="32.5" cy="32.5" r="15" fill="#F86C4D" stroke="black"/>
<circle cx="32.5" cy="32.5" r="4" fill="white" stroke="black"/>
<rect x="35" y="35.707" width="1" height="10.6258" transform="rotate(-45 35 35.707)" fill="black"/>
</svg>
