<svg width="532" height="200" viewBox="0 0 532 200" fill="none" xmlns="http://www.w3.org/2000/svg">
<circle cx="266.5" cy="102.5" r="77" fill="#F86C4D" stroke="black"/>
<mask id="path-2-inside-1" fill="white">
<path d="M344 102.5C344 120.43 337.783 137.805 326.408 151.665C315.034 165.526 299.205 175.013 281.62 178.511C264.034 182.009 245.78 179.301 229.967 170.849C214.154 162.397 201.761 148.723 194.899 132.158C188.038 115.593 187.132 97.1609 192.337 80.0029C197.542 62.845 208.535 48.0225 223.443 38.0611C238.352 28.0997 256.253 23.6157 274.096 25.3732C291.94 27.1306 308.622 35.0208 321.301 47.6992L266.5 102.5H344Z"/>
</mask>
<path d="M344 102.5C344 120.43 337.783 137.805 326.408 151.665C315.034 165.526 299.205 175.013 281.62 178.511C264.034 182.009 245.78 179.301 229.967 170.849C214.154 162.397 201.761 148.723 194.899 132.158C188.038 115.593 187.132 97.1609 192.337 80.0029C197.542 62.845 208.535 48.0225 223.443 38.0611C238.352 28.0997 256.253 23.6157 274.096 25.3732C291.94 27.1306 308.622 35.0208 321.301 47.6992L266.5 102.5H344Z" fill="#F86C4D" stroke="black" stroke-width="2" mask="url(#path-2-inside-1)"/>
<mask id="path-3-inside-2" fill="white">
<path d="M344 102.5C344 117.828 339.455 132.812 330.939 145.557C322.423 158.302 310.319 168.235 296.158 174.101C281.997 179.966 266.414 181.501 251.38 178.511C236.347 175.521 222.538 168.139 211.699 157.301C200.861 146.462 193.479 132.653 190.489 117.619C187.499 102.586 189.034 87.0033 194.899 72.842C200.765 58.6808 210.698 46.5769 223.443 38.0611C236.188 29.5453 251.172 25 266.5 25L266.5 102.5H344Z"/>
</mask>
<path d="M344 102.5C344 117.828 339.455 132.812 330.939 145.557C322.423 158.302 310.319 168.235 296.158 174.101C281.997 179.966 266.414 181.501 251.38 178.511C236.347 175.521 222.538 168.139 211.699 157.301C200.861 146.462 193.479 132.653 190.489 117.619C187.499 102.586 189.034 87.0033 194.899 72.842C200.765 58.6808 210.698 46.5769 223.443 38.0611C236.188 29.5453 251.172 25 266.5 25L266.5 102.5H344Z" fill="#F86C4D" stroke="black" stroke-width="2" mask="url(#path-3-inside-2)"/>
<mask id="path-4-inside-3" fill="white">
<path d="M344 102.5C344 116.104 340.419 129.469 333.617 141.25C326.815 153.031 317.031 162.815 305.25 169.617C293.469 176.419 280.104 180 266.5 180C252.896 180 239.531 176.419 227.75 169.617C215.969 162.815 206.185 153.031 199.383 141.25C192.581 129.469 189 116.104 189 102.5C189 88.8959 192.581 75.5315 199.383 63.75C206.185 51.9685 215.969 42.1851 227.75 35.383L266.5 102.5H344Z"/>
</mask>
<path d="M344 102.5C344 116.104 340.419 129.469 333.617 141.25C326.815 153.031 317.031 162.815 305.25 169.617C293.469 176.419 280.104 180 266.5 180C252.896 180 239.531 176.419 227.75 169.617C215.969 162.815 206.185 153.031 199.383 141.25C192.581 129.469 189 116.104 189 102.5C189 88.8959 192.581 75.5315 199.383 63.75C206.185 51.9685 215.969 42.1851 227.75 35.383L266.5 102.5H344Z" fill="#F86C4D" stroke="black" stroke-width="2" mask="url(#path-4-inside-3)"/>
<mask id="path-5-inside-4" fill="white">
<path d="M344 102.5C344 116.104 340.419 129.469 333.617 141.25C326.815 153.031 317.031 162.815 305.25 169.617C293.469 176.419 280.104 180 266.5 180C252.896 180 239.531 176.419 227.75 169.617L266.5 102.5H344Z"/>
</mask>
<path d="M344 102.5C344 116.104 340.419 129.469 333.617 141.25C326.815 153.031 317.031 162.815 305.25 169.617C293.469 176.419 280.104 180 266.5 180C252.896 180 239.531 176.419 227.75 169.617L266.5 102.5H344Z" fill="#F86C4D" stroke="black" stroke-width="2" mask="url(#path-5-inside-4)"/>
<circle cx="266.5" cy="102.5" r="72" fill="#F86C4D" stroke="black"/>
<circle cx="266.5" cy="102.5" r="67" fill="#F86C4D" stroke="black"/>
<circle cx="266.5" cy="102.5" r="67" fill="#F86C4D" stroke="black"/>
<circle cx="266.5" cy="102.5" r="35" fill="#F86C4D" stroke="black"/>
<circle cx="266.498" cy="102.499" r="35" transform="rotate(79.1122 266.498 102.499)" fill="#F86C4D" stroke="black"/>
<circle cx="266.12" cy="102.773" r="7" transform="rotate(79.1122 266.12 102.773)" fill="white" stroke="black"/>
<rect x="300.082" y="95.7839" width="0.5" height="26.5" transform="rotate(79.1122 300.082 95.7839)" fill="#F86C4D" stroke="black" stroke-width="0.5"/>
<path d="M356 102H530" stroke="black"/>
<path d="M356 102C451.075 102 414.608 198 530 198" stroke="black"/>
<path d="M356 102C451.075 102 414.608 6 530 6" stroke="black"/>
<path d="M356 102C451.075 102 451.075 150 530 150" stroke="black"/>
<path d="M356 102C451.075 102 451.075 54 530 54" stroke="black"/>
<rect x="509.5" y="47.5" width="15" height="15" rx="7.5" fill="white" stroke="black"/>
<rect x="449.5" y="168.5" width="9" height="9" rx="4.5" fill="black" stroke="black"/>
<rect x="430.5" y="114.5" width="7" height="7" rx="3.5" fill="black" stroke="black"/>
<rect x="408.5" y="92.5" width="5" height="5" rx="2.5" fill="black" stroke="black"/>
<rect x="487.5" y="96.5" width="11" height="11" fill="black" stroke="black"/>
<rect x="467.5" y="12.5" width="11" height="11" fill="white" stroke="black"/>
<path d="M177 102C81.3787 102 118.055 198 2.00001 198" stroke="black"/>
<path d="M177 102C81.3787 102 81.3787 150 2.00001 150" stroke="black"/>
<path d="M177 102H2" stroke="black"/>
<path d="M177 102C81.3787 102 81.3787 54 2.00001 54" stroke="black"/>
<path d="M177 102C81.3787 102 118.055 6 2.00001 6" stroke="black"/>
<rect x="-0.5" y="0.5" width="13" height="13" transform="matrix(-1 0 0 1 49 186)" fill="white" stroke="black"/>
<rect x="-0.5" y="0.5" width="7" height="7" transform="matrix(-1 0 0 1 93 41)" fill="white" stroke="black"/>
<rect x="-0.5" y="0.5" width="11" height="11" rx="5.5" transform="matrix(-1 0 0 1 60 58)" fill="white" stroke="black"/>
<rect x="-0.5" y="0.5" width="15" height="15" rx="7.5" transform="matrix(-1 0 0 1 20 142)" fill="white" stroke="black"/>
<rect x="-0.5" y="0.5" width="15" height="15" rx="7.5" transform="matrix(-1 0 0 1 46 2)" fill="black" stroke="black"/>
<rect x="-0.5" y="0.5" width="9" height="9" rx="4.5" transform="matrix(-1 0 0 1 81 125)" fill="black" stroke="black"/>
<rect x="-0.5" y="0.5" width="13" height="13" rx="6.5" transform="matrix(-1 0 0 1 33 95)" fill="black" stroke="black"/>
</svg>
