<svg width="404" height="203" viewBox="0 0 404 203" fill="none" xmlns="http://www.w3.org/2000/svg">
<path d="M167 101H404" stroke="black"/>
<path d="M167 101C296.499 101 246.828 197 404 197" stroke="black"/>
<path d="M167 101C296.499 101 246.828 5 404 5" stroke="black"/>
<path d="M167 101C296.499 101 296.499 149 404 149" stroke="black"/>
<path d="M167 101C296.499 101 296.499 53 404 53" stroke="black"/>
<circle cx="77.5" cy="101.5" r="77" fill="#FCC440" stroke="black"/>
<mask id="path-7-inside-1" fill="white">
<path d="M155 101.5C155 119.43 148.783 136.805 137.408 150.665C126.034 164.526 110.205 174.013 92.6195 177.511C75.034 181.009 56.7796 178.301 40.9668 169.849C25.1539 161.397 12.7609 147.723 5.89934 131.158C-0.96219 114.593 -1.86769 96.1609 3.33712 79.0029C8.54193 61.845 19.535 47.0225 34.4433 37.0611C49.3516 27.0997 67.2526 22.6157 85.0963 24.3732C102.94 26.1306 119.622 34.0208 132.301 46.6992L77.5 101.5H155Z"/>
</mask>
<path d="M155 101.5C155 119.43 148.783 136.805 137.408 150.665C126.034 164.526 110.205 174.013 92.6195 177.511C75.034 181.009 56.7796 178.301 40.9668 169.849C25.1539 161.397 12.7609 147.723 5.89934 131.158C-0.96219 114.593 -1.86769 96.1609 3.33712 79.0029C8.54193 61.845 19.535 47.0225 34.4433 37.0611C49.3516 27.0997 67.2526 22.6157 85.0963 24.3732C102.94 26.1306 119.622 34.0208 132.301 46.6992L77.5 101.5H155Z" fill="#FCC440" stroke="black" stroke-width="2" mask="url(#path-7-inside-1)"/>
<mask id="path-8-inside-2" fill="white">
<path d="M155 101.5C155 116.828 150.455 131.812 141.939 144.557C133.423 157.301 121.319 167.235 107.158 173.101C92.9967 178.966 77.414 180.501 62.3805 177.511C47.347 174.521 33.5378 167.139 22.6992 156.301C11.8607 145.462 4.4795 131.653 1.48914 116.619C-1.50121 101.586 0.0335448 86.0033 5.89934 71.842C11.7651 57.6808 21.6985 45.5769 34.4433 37.0611C47.1881 28.5453 62.1719 24 77.5 24V101.5H155Z"/>
</mask>
<path d="M155 101.5C155 116.828 150.455 131.812 141.939 144.557C133.423 157.301 121.319 167.235 107.158 173.101C92.9967 178.966 77.414 180.501 62.3805 177.511C47.347 174.521 33.5378 167.139 22.6992 156.301C11.8607 145.462 4.4795 131.653 1.48914 116.619C-1.50121 101.586 0.0335448 86.0033 5.89934 71.842C11.7651 57.6808 21.6985 45.5769 34.4433 37.0611C47.1881 28.5453 62.1719 24 77.5 24V101.5H155Z" fill="#FCC440" stroke="black" stroke-width="2" mask="url(#path-8-inside-2)"/>
<mask id="path-9-inside-3" fill="white">
<path d="M155 101.5C155 115.104 151.419 128.469 144.617 140.25C137.815 152.031 128.031 161.815 116.25 168.617C104.469 175.419 91.1041 179 77.5 179C63.8959 179 50.5315 175.419 38.75 168.617C26.9685 161.815 17.1851 152.031 10.383 140.25C3.58098 128.469 -1.18931e-06 115.104 0 101.5C1.18931e-06 87.8959 3.58099 74.5315 10.383 62.75C17.1851 50.9685 26.9685 41.1851 38.75 34.383L77.5 101.5H155Z"/>
</mask>
<path d="M155 101.5C155 115.104 151.419 128.469 144.617 140.25C137.815 152.031 128.031 161.815 116.25 168.617C104.469 175.419 91.1041 179 77.5 179C63.8959 179 50.5315 175.419 38.75 168.617C26.9685 161.815 17.1851 152.031 10.383 140.25C3.58098 128.469 -1.18931e-06 115.104 0 101.5C1.18931e-06 87.8959 3.58099 74.5315 10.383 62.75C17.1851 50.9685 26.9685 41.1851 38.75 34.383L77.5 101.5H155Z" fill="#FCC440" stroke="black" stroke-width="2" mask="url(#path-9-inside-3)"/>
<mask id="path-10-inside-4" fill="white">
<path d="M155 101.5C155 115.104 151.419 128.469 144.617 140.25C137.815 152.031 128.031 161.815 116.25 168.617C104.469 175.419 91.1041 179 77.5 179C63.8959 179 50.5315 175.419 38.75 168.617L77.5 101.5H155Z"/>
</mask>
<path d="M155 101.5C155 115.104 151.419 128.469 144.617 140.25C137.815 152.031 128.031 161.815 116.25 168.617C104.469 175.419 91.1041 179 77.5 179C63.8959 179 50.5315 175.419 38.75 168.617L77.5 101.5H155Z" fill="#FCC440" stroke="black" stroke-width="2" mask="url(#path-10-inside-4)"/>
<circle cx="77.5" cy="101.5" r="72" fill="#FCC440" stroke="black"/>
<circle cx="77.5" cy="101.5" r="67" fill="#FCC440" stroke="black"/>
<circle cx="77.5" cy="101.5" r="67" fill="#FCC440" stroke="black"/>
<circle cx="77.5" cy="101.5" r="35" fill="#FCC440" stroke="black"/>
<circle cx="77.498" cy="101.499" r="35" transform="rotate(90 77.498 101.499)" fill="#FCC440" stroke="black"/>
<circle cx="77.0742" cy="101.696" r="7" transform="rotate(90 77.0742 101.696)" fill="white" stroke="black"/>
<rect x="111.996" y="100.999" width="1" height="27" transform="rotate(90 111.996 100.999)" fill="black"/>
<rect x="363.5" y="187.5" width="15" height="15" fill="white" stroke="black"/>
<rect x="333.5" y="53.5" width="15" height="15" rx="7.5" fill="white" stroke="black"/>
<rect x="388.5" y="141.5" width="15" height="15" rx="7.5" fill="white" stroke="black"/>
<rect x="353.5" y="0.5" width="15" height="15" rx="7.5" fill="black" stroke="black"/>
<rect x="242.5" y="117.5" width="15" height="15" rx="7.5" fill="black" stroke="black"/>
<rect x="369.5" y="93.5" width="15" height="15" rx="7.5" fill="black" stroke="black"/>
<rect x="298.5" y="93.5" width="15" height="15" fill="black" stroke="black"/>
</svg>
