<svg width="528" height="415" viewBox="0 0 528 415" fill="none" xmlns="http://www.w3.org/2000/svg">
<circle cx="136.5" cy="157.5" r="30" transform="rotate(90 136.5 157.5)" fill="white" stroke="black"/>
<mask id="path-2-inside-1" fill="white">
<path d="M136.5 188C129.444 188 122.606 185.553 117.151 181.077C111.696 176.6 107.963 170.371 106.586 163.45C105.209 156.53 106.275 149.346 109.601 143.122C112.928 136.899 118.309 132.022 124.828 129.322C131.347 126.621 138.601 126.265 145.354 128.313C152.106 130.362 157.94 134.688 161.86 140.555C165.78 146.422 167.545 153.467 166.853 160.49C166.161 167.512 163.056 174.077 158.067 179.067L136.5 157.5L136.5 188Z"/>
</mask>
<path d="M136.5 188C129.444 188 122.606 185.553 117.151 181.077C111.696 176.6 107.963 170.371 106.586 163.45C105.209 156.53 106.275 149.346 109.601 143.122C112.928 136.899 118.309 132.022 124.828 129.322C131.347 126.621 138.601 126.265 145.354 128.313C152.106 130.362 157.94 134.688 161.86 140.555C165.78 146.422 167.545 153.467 166.853 160.49C166.161 167.512 163.056 174.077 158.067 179.067L136.5 157.5L136.5 188Z" fill="white" stroke="black" stroke-width="2" mask="url(#path-2-inside-1)"/>
<mask id="path-3-inside-2" fill="white">
<path d="M136.5 188C130.468 188 124.571 186.211 119.555 182.86C114.539 179.508 110.63 174.745 108.322 169.172C106.013 163.599 105.409 157.466 106.586 151.55C107.763 145.633 110.668 140.199 114.933 135.933C119.199 131.668 124.633 128.763 130.55 127.586C136.466 126.409 142.599 127.013 148.172 129.322C153.745 131.63 158.508 135.539 161.86 140.555C165.211 145.571 167 151.468 167 157.5L136.5 157.5L136.5 188Z"/>
</mask>
<path d="M136.5 188C130.468 188 124.571 186.211 119.555 182.86C114.539 179.508 110.63 174.745 108.322 169.172C106.013 163.599 105.409 157.466 106.586 151.55C107.763 145.633 110.668 140.199 114.933 135.933C119.199 131.668 124.633 128.763 130.55 127.586C136.466 126.409 142.599 127.013 148.172 129.322C153.745 131.63 158.508 135.539 161.86 140.555C165.211 145.571 167 151.468 167 157.5L136.5 157.5L136.5 188Z" fill="white" stroke="black" stroke-width="2" mask="url(#path-3-inside-2)"/>
<mask id="path-4-inside-3" fill="white">
<path d="M136.5 188C131.146 188 125.887 186.591 121.25 183.914C116.613 181.237 112.763 177.387 110.086 172.75C107.409 168.113 106 162.854 106 157.5C106 152.146 107.409 146.887 110.086 142.25C112.763 137.613 116.613 133.763 121.25 131.086C125.887 128.409 131.146 127 136.5 127C141.854 127 147.113 128.409 151.75 131.086C156.387 133.763 160.237 137.613 162.914 142.25L136.5 157.5L136.5 188Z"/>
</mask>
<path d="M136.5 188C131.146 188 125.887 186.591 121.25 183.914C116.613 181.237 112.763 177.387 110.086 172.75C107.409 168.113 106 162.854 106 157.5C106 152.146 107.409 146.887 110.086 142.25C112.763 137.613 116.613 133.763 121.25 131.086C125.887 128.409 131.146 127 136.5 127C141.854 127 147.113 128.409 151.75 131.086C156.387 133.763 160.237 137.613 162.914 142.25L136.5 157.5L136.5 188Z" fill="white" stroke="black" stroke-width="2" mask="url(#path-4-inside-3)"/>
<mask id="path-5-inside-4" fill="white">
<path d="M136.5 188C131.146 188 125.887 186.591 121.25 183.914C116.613 181.237 112.763 177.387 110.086 172.75C107.409 168.113 106 162.854 106 157.5C106 152.146 107.409 146.887 110.086 142.25L136.5 157.5L136.5 188Z"/>
</mask>
<path d="M136.5 188C131.146 188 125.887 186.591 121.25 183.914C116.613 181.237 112.763 177.387 110.086 172.75C107.409 168.113 106 162.854 106 157.5C106 152.146 107.409 146.887 110.086 142.25L136.5 157.5L136.5 188Z" fill="white" stroke="black" stroke-width="2" mask="url(#path-5-inside-4)"/>
<circle cx="136.5" cy="157.5" r="27" transform="rotate(90 136.5 157.5)" fill="white" stroke="black"/>
<circle cx="136.5" cy="157.5" r="23" transform="rotate(90 136.5 157.5)" fill="white" stroke="black"/>
<circle cx="136.5" cy="157.5" r="15" transform="rotate(90 136.5 157.5)" fill="white" stroke="black"/>
<circle cx="136.5" cy="157.5" r="4" transform="rotate(90 136.5 157.5)" fill="white" stroke="black"/>
<rect x="133.293" y="160" width="1" height="10.6258" transform="rotate(45 133.293 160)" fill="black"/>
<circle cx="263.5" cy="284.5" r="30" transform="rotate(90 263.5 284.5)" fill="white" stroke="black"/>
<mask id="path-12-inside-5" fill="white">
<path d="M263.5 315C256.444 315 249.606 312.553 244.151 308.077C238.696 303.6 234.963 297.371 233.586 290.45C232.209 283.53 233.275 276.346 236.601 270.122C239.928 263.899 245.309 259.022 251.828 256.322C258.347 253.621 265.601 253.265 272.354 255.313C279.106 257.362 284.94 261.688 288.86 267.555C292.78 273.422 294.545 280.467 293.853 287.49C293.161 294.512 290.056 301.077 285.067 306.067L263.5 284.5L263.5 315Z"/>
</mask>
<path d="M263.5 315C256.444 315 249.606 312.553 244.151 308.077C238.696 303.6 234.963 297.371 233.586 290.45C232.209 283.53 233.275 276.346 236.601 270.122C239.928 263.899 245.309 259.022 251.828 256.322C258.347 253.621 265.601 253.265 272.354 255.313C279.106 257.362 284.94 261.688 288.86 267.555C292.78 273.422 294.545 280.467 293.853 287.49C293.161 294.512 290.056 301.077 285.067 306.067L263.5 284.5L263.5 315Z" fill="white" stroke="black" stroke-width="2" mask="url(#path-12-inside-5)"/>
<mask id="path-13-inside-6" fill="white">
<path d="M263.5 315C257.468 315 251.571 313.211 246.555 309.86C241.539 306.508 237.63 301.745 235.322 296.172C233.013 290.599 232.409 284.466 233.586 278.55C234.763 272.633 237.668 267.199 241.933 262.933C246.199 258.668 251.633 255.763 257.55 254.586C263.466 253.409 269.599 254.013 275.172 256.322C280.745 258.63 285.508 262.539 288.86 267.555C292.211 272.571 294 278.468 294 284.5L263.5 284.5L263.5 315Z"/>
</mask>
<path d="M263.5 315C257.468 315 251.571 313.211 246.555 309.86C241.539 306.508 237.63 301.745 235.322 296.172C233.013 290.599 232.409 284.466 233.586 278.55C234.763 272.633 237.668 267.199 241.933 262.933C246.199 258.668 251.633 255.763 257.55 254.586C263.466 253.409 269.599 254.013 275.172 256.322C280.745 258.63 285.508 262.539 288.86 267.555C292.211 272.571 294 278.468 294 284.5L263.5 284.5L263.5 315Z" fill="white" stroke="black" stroke-width="2" mask="url(#path-13-inside-6)"/>
<mask id="path-14-inside-7" fill="white">
<path d="M263.5 315C258.146 315 252.887 313.591 248.25 310.914C243.613 308.237 239.763 304.387 237.086 299.75C234.409 295.113 233 289.854 233 284.5C233 279.146 234.409 273.887 237.086 269.25C239.763 264.613 243.613 260.763 248.25 258.086C252.887 255.409 258.146 254 263.5 254C268.854 254 274.113 255.409 278.75 258.086C283.387 260.763 287.237 264.613 289.914 269.25L263.5 284.5L263.5 315Z"/>
</mask>
<path d="M263.5 315C258.146 315 252.887 313.591 248.25 310.914C243.613 308.237 239.763 304.387 237.086 299.75C234.409 295.113 233 289.854 233 284.5C233 279.146 234.409 273.887 237.086 269.25C239.763 264.613 243.613 260.763 248.25 258.086C252.887 255.409 258.146 254 263.5 254C268.854 254 274.113 255.409 278.75 258.086C283.387 260.763 287.237 264.613 289.914 269.25L263.5 284.5L263.5 315Z" fill="white" stroke="black" stroke-width="2" mask="url(#path-14-inside-7)"/>
<mask id="path-15-inside-8" fill="white">
<path d="M263.5 315C258.146 315 252.887 313.591 248.25 310.914C243.613 308.237 239.763 304.387 237.086 299.75C234.409 295.113 233 289.854 233 284.5C233 279.146 234.409 273.887 237.086 269.25L263.5 284.5L263.5 315Z"/>
</mask>
<path d="M263.5 315C258.146 315 252.887 313.591 248.25 310.914C243.613 308.237 239.763 304.387 237.086 299.75C234.409 295.113 233 289.854 233 284.5C233 279.146 234.409 273.887 237.086 269.25L263.5 284.5L263.5 315Z" fill="white" stroke="black" stroke-width="2" mask="url(#path-15-inside-8)"/>
<circle cx="263.5" cy="284.5" r="27" transform="rotate(90 263.5 284.5)" fill="white" stroke="black"/>
<circle cx="263.5" cy="284.5" r="23" transform="rotate(90 263.5 284.5)" fill="white" stroke="black"/>
<circle cx="263.5" cy="284.5" r="15" transform="rotate(90 263.5 284.5)" fill="white" stroke="black"/>
<circle cx="263.5" cy="284.5" r="4" transform="rotate(90 263.5 284.5)" fill="white" stroke="black"/>
<rect x="260.293" y="287" width="1" height="10.6258" transform="rotate(45 260.293 287)" fill="black"/>
<circle cx="390.5" cy="157.5" r="30" transform="rotate(90 390.5 157.5)" fill="white" stroke="black"/>
<mask id="path-22-inside-9" fill="white">
<path d="M390.5 188C383.444 188 376.606 185.553 371.151 181.077C365.696 176.6 361.963 170.371 360.586 163.45C359.209 156.53 360.275 149.346 363.601 143.122C366.928 136.899 372.309 132.022 378.828 129.322C385.347 126.621 392.601 126.265 399.354 128.313C406.106 130.362 411.94 134.688 415.86 140.555C419.78 146.422 421.545 153.467 420.853 160.49C420.161 167.512 417.056 174.077 412.067 179.067L390.5 157.5L390.5 188Z"/>
</mask>
<path d="M390.5 188C383.444 188 376.606 185.553 371.151 181.077C365.696 176.6 361.963 170.371 360.586 163.45C359.209 156.53 360.275 149.346 363.601 143.122C366.928 136.899 372.309 132.022 378.828 129.322C385.347 126.621 392.601 126.265 399.354 128.313C406.106 130.362 411.94 134.688 415.86 140.555C419.78 146.422 421.545 153.467 420.853 160.49C420.161 167.512 417.056 174.077 412.067 179.067L390.5 157.5L390.5 188Z" fill="white" stroke="black" stroke-width="2" mask="url(#path-22-inside-9)"/>
<mask id="path-23-inside-10" fill="white">
<path d="M390.5 188C384.468 188 378.571 186.211 373.555 182.86C368.539 179.508 364.63 174.745 362.322 169.172C360.013 163.599 359.409 157.466 360.586 151.55C361.763 145.633 364.668 140.199 368.933 135.933C373.199 131.668 378.633 128.763 384.55 127.586C390.466 126.409 396.599 127.013 402.172 129.322C407.745 131.63 412.508 135.539 415.86 140.555C419.211 145.571 421 151.468 421 157.5L390.5 157.5L390.5 188Z"/>
</mask>
<path d="M390.5 188C384.468 188 378.571 186.211 373.555 182.86C368.539 179.508 364.63 174.745 362.322 169.172C360.013 163.599 359.409 157.466 360.586 151.55C361.763 145.633 364.668 140.199 368.933 135.933C373.199 131.668 378.633 128.763 384.55 127.586C390.466 126.409 396.599 127.013 402.172 129.322C407.745 131.63 412.508 135.539 415.86 140.555C419.211 145.571 421 151.468 421 157.5L390.5 157.5L390.5 188Z" fill="white" stroke="black" stroke-width="2" mask="url(#path-23-inside-10)"/>
<mask id="path-24-inside-11" fill="white">
<path d="M390.5 188C385.146 188 379.887 186.591 375.25 183.914C370.613 181.237 366.763 177.387 364.086 172.75C361.409 168.113 360 162.854 360 157.5C360 152.146 361.409 146.887 364.086 142.25C366.763 137.613 370.613 133.763 375.25 131.086C379.887 128.409 385.146 127 390.5 127C395.854 127 401.113 128.409 405.75 131.086C410.387 133.763 414.237 137.613 416.914 142.25L390.5 157.5L390.5 188Z"/>
</mask>
<path d="M390.5 188C385.146 188 379.887 186.591 375.25 183.914C370.613 181.237 366.763 177.387 364.086 172.75C361.409 168.113 360 162.854 360 157.5C360 152.146 361.409 146.887 364.086 142.25C366.763 137.613 370.613 133.763 375.25 131.086C379.887 128.409 385.146 127 390.5 127C395.854 127 401.113 128.409 405.75 131.086C410.387 133.763 414.237 137.613 416.914 142.25L390.5 157.5L390.5 188Z" fill="white" stroke="black" stroke-width="2" mask="url(#path-24-inside-11)"/>
<mask id="path-25-inside-12" fill="white">
<path d="M390.5 188C385.146 188 379.887 186.591 375.25 183.914C370.613 181.237 366.763 177.387 364.086 172.75C361.409 168.113 360 162.854 360 157.5C360 152.146 361.409 146.887 364.086 142.25L390.5 157.5L390.5 188Z"/>
</mask>
<path d="M390.5 188C385.146 188 379.887 186.591 375.25 183.914C370.613 181.237 366.763 177.387 364.086 172.75C361.409 168.113 360 162.854 360 157.5C360 152.146 361.409 146.887 364.086 142.25L390.5 157.5L390.5 188Z" fill="white" stroke="black" stroke-width="2" mask="url(#path-25-inside-12)"/>
<circle cx="390.5" cy="157.5" r="27" transform="rotate(90 390.5 157.5)" fill="white" stroke="black"/>
<circle cx="390.5" cy="157.5" r="23" transform="rotate(90 390.5 157.5)" fill="white" stroke="black"/>
<circle cx="390.5" cy="157.5" r="15" transform="rotate(90 390.5 157.5)" fill="white" stroke="black"/>
<circle cx="390.5" cy="157.5" r="4" transform="rotate(90 390.5 157.5)" fill="white" stroke="black"/>
<rect x="387.293" y="160" width="1" height="10.6258" transform="rotate(45 387.293 160)" fill="black"/>
<circle cx="263.5" cy="30.5" r="30" transform="rotate(90 263.5 30.5)" fill="white" stroke="black"/>
<mask id="path-32-inside-13" fill="white">
<path d="M263.5 61C256.444 61 249.606 58.5533 244.151 54.0768C238.696 49.6003 234.963 43.371 233.586 36.4503C232.209 29.5295 233.275 22.3455 236.601 16.1224C239.928 9.89927 245.309 5.02202 251.828 2.32167C258.347 -0.37867 265.601 -0.735028 272.354 1.31332C279.106 3.36166 284.94 7.68798 288.86 13.5551C292.78 19.4222 294.545 26.4672 293.853 33.4895C293.161 40.5119 290.056 47.0772 285.067 52.0668L263.5 30.5L263.5 61Z"/>
</mask>
<path d="M263.5 61C256.444 61 249.606 58.5533 244.151 54.0768C238.696 49.6003 234.963 43.371 233.586 36.4503C232.209 29.5295 233.275 22.3455 236.601 16.1224C239.928 9.89927 245.309 5.02202 251.828 2.32167C258.347 -0.37867 265.601 -0.735028 272.354 1.31332C279.106 3.36166 284.94 7.68798 288.86 13.5551C292.78 19.4222 294.545 26.4672 293.853 33.4895C293.161 40.5119 290.056 47.0772 285.067 52.0668L263.5 30.5L263.5 61Z" fill="white" stroke="black" stroke-width="2" mask="url(#path-32-inside-13)"/>
<mask id="path-33-inside-14" fill="white">
<path d="M263.5 61C257.468 61 251.571 59.2112 246.555 55.8598C241.539 52.5084 237.63 47.745 235.322 42.1718C233.013 36.5987 232.409 30.4662 233.586 24.5497C234.763 18.6333 237.668 13.1987 241.933 8.93324C246.199 4.66774 251.633 1.7629 257.55 0.586047C263.466 -0.590802 269.599 0.0132004 275.172 2.32167C280.745 4.63015 285.508 8.53941 288.86 13.5551C292.211 18.5708 294 24.4677 294 30.5L263.5 30.5L263.5 61Z"/>
</mask>
<path d="M263.5 61C257.468 61 251.571 59.2112 246.555 55.8598C241.539 52.5084 237.63 47.745 235.322 42.1718C233.013 36.5987 232.409 30.4662 233.586 24.5497C234.763 18.6333 237.668 13.1987 241.933 8.93324C246.199 4.66774 251.633 1.7629 257.55 0.586047C263.466 -0.590802 269.599 0.0132004 275.172 2.32167C280.745 4.63015 285.508 8.53941 288.86 13.5551C292.211 18.5708 294 24.4677 294 30.5L263.5 30.5L263.5 61Z" fill="white" stroke="black" stroke-width="2" mask="url(#path-33-inside-14)"/>
<mask id="path-34-inside-15" fill="white">
<path d="M263.5 61C258.146 61 252.887 59.5907 248.25 56.9138C243.613 54.2368 239.763 50.3866 237.086 45.75C234.409 41.1134 233 35.8539 233 30.5C233 25.1461 234.409 19.8866 237.086 15.25C239.763 10.6134 243.613 6.76316 248.25 4.08622C252.887 1.40929 258.146 -2.03527e-06 263.5 -1.3332e-06C268.854 -6.31122e-07 274.113 1.40929 278.75 4.08623C283.387 6.76316 287.237 10.6134 289.914 15.25L263.5 30.5L263.5 61Z"/>
</mask>
<path d="M263.5 61C258.146 61 252.887 59.5907 248.25 56.9138C243.613 54.2368 239.763 50.3866 237.086 45.75C234.409 41.1134 233 35.8539 233 30.5C233 25.1461 234.409 19.8866 237.086 15.25C239.763 10.6134 243.613 6.76316 248.25 4.08622C252.887 1.40929 258.146 -2.03527e-06 263.5 -1.3332e-06C268.854 -6.31122e-07 274.113 1.40929 278.75 4.08623C283.387 6.76316 287.237 10.6134 289.914 15.25L263.5 30.5L263.5 61Z" fill="white" stroke="black" stroke-width="2" mask="url(#path-34-inside-15)"/>
<mask id="path-35-inside-16" fill="white">
<path d="M263.5 61C258.146 61 252.887 59.5907 248.25 56.9138C243.613 54.2368 239.763 50.3866 237.086 45.75C234.409 41.1134 233 35.8539 233 30.5C233 25.1461 234.409 19.8866 237.086 15.25L263.5 30.5L263.5 61Z"/>
</mask>
<path d="M263.5 61C258.146 61 252.887 59.5907 248.25 56.9138C243.613 54.2368 239.763 50.3866 237.086 45.75C234.409 41.1134 233 35.8539 233 30.5C233 25.1461 234.409 19.8866 237.086 15.25L263.5 30.5L263.5 61Z" fill="white" stroke="black" stroke-width="2" mask="url(#path-35-inside-16)"/>
<circle cx="263.5" cy="30.5" r="27" transform="rotate(90 263.5 30.5)" fill="white" stroke="black"/>
<circle cx="263.5" cy="30.5" r="23" transform="rotate(90 263.5 30.5)" fill="white" stroke="black"/>
<circle cx="263.5" cy="30.5" r="15" transform="rotate(90 263.5 30.5)" fill="white" stroke="black"/>
<circle cx="263.5" cy="30.5" r="4" transform="rotate(90 263.5 30.5)" fill="white" stroke="black"/>
<rect x="260.293" y="33" width="1" height="10.6258" transform="rotate(45 260.293 33)" fill="black"/>
<circle cx="173.699" cy="67.6953" r="30" transform="rotate(135 173.699 67.6953)" fill="white" stroke="black"/>
<mask id="path-42-inside-17" fill="white">
<path d="M152.132 89.2621C147.142 84.2725 144.037 77.7072 143.345 70.6848C142.654 63.6625 144.418 56.6175 148.339 50.7504C152.259 44.8833 158.092 40.557 164.845 38.5086C171.597 36.4603 178.851 36.8166 185.37 39.517C191.89 42.2173 197.271 47.0946 200.597 53.3177C203.923 59.5408 204.989 66.7248 203.612 73.6456C202.236 80.5663 198.502 86.7956 193.048 91.2721C187.593 95.7486 180.755 98.1953 173.699 98.1953L173.699 67.6953L152.132 89.2621Z"/>
</mask>
<path d="M152.132 89.2621C147.142 84.2725 144.037 77.7072 143.345 70.6848C142.654 63.6625 144.418 56.6175 148.339 50.7504C152.259 44.8833 158.092 40.557 164.845 38.5086C171.597 36.4603 178.851 36.8166 185.37 39.517C191.89 42.2173 197.271 47.0946 200.597 53.3177C203.923 59.5408 204.989 66.7248 203.612 73.6456C202.236 80.5663 198.502 86.7956 193.048 91.2721C187.593 95.7486 180.755 98.1953 173.699 98.1953L173.699 67.6953L152.132 89.2621Z" fill="white" stroke="black" stroke-width="2" mask="url(#path-42-inside-17)"/>
<mask id="path-43-inside-18" fill="white">
<path d="M152.132 89.2621C147.866 84.9966 144.961 79.562 143.785 73.6456C142.608 67.7291 143.212 61.5966 145.52 56.0235C147.829 50.4503 151.738 45.6869 156.754 42.3355C161.769 38.9841 167.666 37.1953 173.699 37.1953C179.731 37.1953 185.628 38.9841 190.643 42.3355C195.659 45.6869 199.568 50.4503 201.877 56.0235C204.185 61.5966 204.789 67.7291 203.612 73.6456C202.436 79.562 199.531 84.9966 195.265 89.2621L173.699 67.6953L152.132 89.2621Z"/>
</mask>
<path d="M152.132 89.2621C147.866 84.9966 144.961 79.562 143.785 73.6456C142.608 67.7291 143.212 61.5966 145.52 56.0235C147.829 50.4503 151.738 45.6869 156.754 42.3355C161.769 38.9841 167.666 37.1953 173.699 37.1953C179.731 37.1953 185.628 38.9841 190.643 42.3355C195.659 45.6869 199.568 50.4503 201.877 56.0235C204.185 61.5966 204.789 67.7291 203.612 73.6456C202.436 79.562 199.531 84.9966 195.265 89.2621L173.699 67.6953L152.132 89.2621Z" fill="white" stroke="black" stroke-width="2" mask="url(#path-43-inside-18)"/>
<mask id="path-44-inside-19" fill="white">
<path d="M152.132 89.2621C148.346 85.4763 145.623 80.7607 144.238 75.5893C142.852 70.4178 142.852 64.9728 144.238 59.8013C145.623 54.6299 148.346 49.9143 152.132 46.1285C155.918 42.3428 160.633 39.6203 165.805 38.2346C170.976 36.8489 176.421 36.8489 181.593 38.2346C186.764 39.6203 191.48 42.3428 195.265 46.1286C199.051 49.9143 201.774 54.6299 203.159 59.8013C204.545 64.9728 204.545 70.4179 203.159 75.5893L173.699 67.6953L152.132 89.2621Z"/>
</mask>
<path d="M152.132 89.2621C148.346 85.4763 145.623 80.7607 144.238 75.5893C142.852 70.4178 142.852 64.9728 144.238 59.8013C145.623 54.6299 148.346 49.9143 152.132 46.1285C155.918 42.3428 160.633 39.6203 165.805 38.2346C170.976 36.8489 176.421 36.8489 181.593 38.2346C186.764 39.6203 191.48 42.3428 195.265 46.1286C199.051 49.9143 201.774 54.6299 203.159 59.8013C204.545 64.9728 204.545 70.4179 203.159 75.5893L173.699 67.6953L152.132 89.2621Z" fill="white" stroke="black" stroke-width="2" mask="url(#path-44-inside-19)"/>
<mask id="path-45-inside-20" fill="white">
<path d="M152.132 89.2621C148.346 85.4763 145.623 80.7607 144.238 75.5893C142.852 70.4178 142.852 64.9728 144.238 59.8013C145.623 54.6299 148.346 49.9143 152.132 46.1285C155.918 42.3428 160.633 39.6203 165.805 38.2346L173.699 67.6953L152.132 89.2621Z"/>
</mask>
<path d="M152.132 89.2621C148.346 85.4763 145.623 80.7607 144.238 75.5893C142.852 70.4178 142.852 64.9728 144.238 59.8013C145.623 54.6299 148.346 49.9143 152.132 46.1285C155.918 42.3428 160.633 39.6203 165.805 38.2346L173.699 67.6953L152.132 89.2621Z" fill="white" stroke="black" stroke-width="2" mask="url(#path-45-inside-20)"/>
<circle cx="173.699" cy="67.6953" r="27" transform="rotate(135 173.699 67.6953)" fill="white" stroke="black"/>
<circle cx="173.698" cy="67.6953" r="23" transform="rotate(135 173.698 67.6953)" fill="white" stroke="black"/>
<circle cx="173.697" cy="67.6953" r="15" transform="rotate(135 173.697 67.6953)" fill="white" stroke="black"/>
<circle cx="173.699" cy="67.6953" r="4" transform="rotate(135 173.699 67.6953)" fill="white" stroke="black"/>
<rect x="169.664" y="67.1953" width="1" height="10.6258" transform="rotate(90 169.664 67.1953)" fill="black"/>
<circle cx="173.699" cy="247.305" r="30" transform="rotate(135 173.699 247.305)" fill="white" stroke="black"/>
<mask id="path-52-inside-21" fill="white">
<path d="M152.132 268.871C147.142 263.882 144.037 257.317 143.345 250.294C142.654 243.272 144.418 236.227 148.339 230.36C152.259 224.493 158.092 220.166 164.845 218.118C171.597 216.07 178.851 216.426 185.37 219.126C191.89 221.827 197.271 226.704 200.597 232.927C203.923 239.15 204.989 246.334 203.612 253.255C202.236 260.176 198.502 266.405 193.048 270.882C187.593 275.358 180.755 277.805 173.699 277.805L173.699 247.305L152.132 268.871Z"/>
</mask>
<path d="M152.132 268.871C147.142 263.882 144.037 257.317 143.345 250.294C142.654 243.272 144.418 236.227 148.339 230.36C152.259 224.493 158.092 220.166 164.845 218.118C171.597 216.07 178.851 216.426 185.37 219.126C191.89 221.827 197.271 226.704 200.597 232.927C203.923 239.15 204.989 246.334 203.612 253.255C202.236 260.176 198.502 266.405 193.048 270.882C187.593 275.358 180.755 277.805 173.699 277.805L173.699 247.305L152.132 268.871Z" fill="white" stroke="black" stroke-width="2" mask="url(#path-52-inside-21)"/>
<mask id="path-53-inside-22" fill="white">
<path d="M152.132 268.871C147.866 264.606 144.961 259.171 143.785 253.255C142.608 247.339 143.212 241.206 145.52 235.633C147.829 230.06 151.738 225.296 156.754 221.945C161.769 218.593 167.666 216.805 173.699 216.805C179.731 216.805 185.628 218.593 190.643 221.945C195.659 225.296 199.568 230.06 201.877 235.633C204.185 241.206 204.789 247.339 203.612 253.255C202.436 259.171 199.531 264.606 195.265 268.871L173.699 247.305L152.132 268.871Z"/>
</mask>
<path d="M152.132 268.871C147.866 264.606 144.961 259.171 143.785 253.255C142.608 247.339 143.212 241.206 145.52 235.633C147.829 230.06 151.738 225.296 156.754 221.945C161.769 218.593 167.666 216.805 173.699 216.805C179.731 216.805 185.628 218.593 190.643 221.945C195.659 225.296 199.568 230.06 201.877 235.633C204.185 241.206 204.789 247.339 203.612 253.255C202.436 259.171 199.531 264.606 195.265 268.871L173.699 247.305L152.132 268.871Z" fill="white" stroke="black" stroke-width="2" mask="url(#path-53-inside-22)"/>
<mask id="path-54-inside-23" fill="white">
<path d="M152.132 268.871C148.346 265.086 145.623 260.37 144.238 255.199C142.852 250.027 142.852 244.582 144.238 239.411C145.623 234.239 148.346 229.524 152.132 225.738C155.918 221.952 160.633 219.23 165.805 217.844C170.976 216.458 176.421 216.458 181.593 217.844C186.764 219.23 191.48 221.952 195.265 225.738C199.051 229.524 201.774 234.239 203.159 239.411C204.545 244.582 204.545 250.027 203.159 255.199L173.699 247.305L152.132 268.871Z"/>
</mask>
<path d="M152.132 268.871C148.346 265.086 145.623 260.37 144.238 255.199C142.852 250.027 142.852 244.582 144.238 239.411C145.623 234.239 148.346 229.524 152.132 225.738C155.918 221.952 160.633 219.23 165.805 217.844C170.976 216.458 176.421 216.458 181.593 217.844C186.764 219.23 191.48 221.952 195.265 225.738C199.051 229.524 201.774 234.239 203.159 239.411C204.545 244.582 204.545 250.027 203.159 255.199L173.699 247.305L152.132 268.871Z" fill="white" stroke="black" stroke-width="2" mask="url(#path-54-inside-23)"/>
<mask id="path-55-inside-24" fill="white">
<path d="M152.132 268.871C148.346 265.086 145.623 260.37 144.238 255.199C142.852 250.027 142.852 244.582 144.238 239.411C145.623 234.239 148.346 229.524 152.132 225.738C155.918 221.952 160.633 219.23 165.805 217.844L173.699 247.305L152.132 268.871Z"/>
</mask>
<path d="M152.132 268.871C148.346 265.086 145.623 260.37 144.238 255.199C142.852 250.027 142.852 244.582 144.238 239.411C145.623 234.239 148.346 229.524 152.132 225.738C155.918 221.952 160.633 219.23 165.805 217.844L173.699 247.305L152.132 268.871Z" fill="white" stroke="black" stroke-width="2" mask="url(#path-55-inside-24)"/>
<circle cx="173.699" cy="247.305" r="27" transform="rotate(135 173.699 247.305)" fill="white" stroke="black"/>
<circle cx="173.698" cy="247.305" r="23" transform="rotate(135 173.698 247.305)" fill="white" stroke="black"/>
<circle cx="173.697" cy="247.305" r="15" transform="rotate(135 173.697 247.305)" fill="white" stroke="black"/>
<circle cx="173.699" cy="247.305" r="4" transform="rotate(135 173.699 247.305)" fill="white" stroke="black"/>
<rect x="169.664" y="246.805" width="1" height="10.6258" transform="rotate(90 169.664 246.805)" fill="black"/>
<circle cx="353.304" cy="247.305" r="30" transform="rotate(135 353.304 247.305)" fill="white" stroke="black"/>
<mask id="path-62-inside-25" fill="white">
<path d="M331.737 268.871C326.748 263.882 323.642 257.317 322.951 250.294C322.259 243.272 324.024 236.227 327.944 230.36C331.864 224.493 337.698 220.166 344.45 218.118C351.203 216.07 358.457 216.426 364.976 219.126C371.495 221.827 376.876 226.704 380.203 232.927C383.529 239.15 384.595 246.334 383.218 253.255C381.841 260.176 378.108 266.405 372.653 270.882C367.198 275.358 360.36 277.805 353.304 277.805L353.304 247.305L331.737 268.871Z"/>
</mask>
<path d="M331.737 268.871C326.748 263.882 323.642 257.317 322.951 250.294C322.259 243.272 324.024 236.227 327.944 230.36C331.864 224.493 337.698 220.166 344.45 218.118C351.203 216.07 358.457 216.426 364.976 219.126C371.495 221.827 376.876 226.704 380.203 232.927C383.529 239.15 384.595 246.334 383.218 253.255C381.841 260.176 378.108 266.405 372.653 270.882C367.198 275.358 360.36 277.805 353.304 277.805L353.304 247.305L331.737 268.871Z" fill="white" stroke="black" stroke-width="2" mask="url(#path-62-inside-25)"/>
<mask id="path-63-inside-26" fill="white">
<path d="M331.737 268.871C327.472 264.606 324.567 259.171 323.39 253.255C322.213 247.339 322.817 241.206 325.126 235.633C327.434 230.06 331.343 225.296 336.359 221.945C341.375 218.593 347.272 216.805 353.304 216.805C359.336 216.805 365.233 218.593 370.249 221.945C375.265 225.296 379.174 230.06 381.482 235.633C383.791 241.206 384.395 247.339 383.218 253.255C382.041 259.171 379.136 264.606 374.871 268.871L353.304 247.305L331.737 268.871Z"/>
</mask>
<path d="M331.737 268.871C327.472 264.606 324.567 259.171 323.39 253.255C322.213 247.339 322.817 241.206 325.126 235.633C327.434 230.06 331.343 225.296 336.359 221.945C341.375 218.593 347.272 216.805 353.304 216.805C359.336 216.805 365.233 218.593 370.249 221.945C375.265 225.296 379.174 230.06 381.482 235.633C383.791 241.206 384.395 247.339 383.218 253.255C382.041 259.171 379.136 264.606 374.871 268.871L353.304 247.305L331.737 268.871Z" fill="white" stroke="black" stroke-width="2" mask="url(#path-63-inside-26)"/>
<mask id="path-64-inside-27" fill="white">
<path d="M331.737 268.871C327.951 265.086 325.229 260.37 323.843 255.199C322.458 250.027 322.458 244.582 323.843 239.411C325.229 234.239 327.951 229.524 331.737 225.738C335.523 221.952 340.239 219.23 345.41 217.844C350.581 216.458 356.027 216.458 361.198 217.844C366.369 219.23 371.085 221.952 374.871 225.738C378.657 229.524 381.379 234.239 382.765 239.411C384.15 244.582 384.15 250.027 382.765 255.199L353.304 247.305L331.737 268.871Z"/>
</mask>
<path d="M331.737 268.871C327.951 265.086 325.229 260.37 323.843 255.199C322.458 250.027 322.458 244.582 323.843 239.411C325.229 234.239 327.951 229.524 331.737 225.738C335.523 221.952 340.239 219.23 345.41 217.844C350.581 216.458 356.027 216.458 361.198 217.844C366.369 219.23 371.085 221.952 374.871 225.738C378.657 229.524 381.379 234.239 382.765 239.411C384.15 244.582 384.15 250.027 382.765 255.199L353.304 247.305L331.737 268.871Z" fill="white" stroke="black" stroke-width="2" mask="url(#path-64-inside-27)"/>
<mask id="path-65-inside-28" fill="white">
<path d="M331.737 268.871C327.951 265.086 325.229 260.37 323.843 255.199C322.458 250.027 322.458 244.582 323.843 239.411C325.229 234.239 327.951 229.524 331.737 225.738C335.523 221.952 340.239 219.23 345.41 217.844L353.304 247.305L331.737 268.871Z"/>
</mask>
<path d="M331.737 268.871C327.951 265.086 325.229 260.37 323.843 255.199C322.458 250.027 322.458 244.582 323.843 239.411C325.229 234.239 327.951 229.524 331.737 225.738C335.523 221.952 340.239 219.23 345.41 217.844L353.304 247.305L331.737 268.871Z" fill="white" stroke="black" stroke-width="2" mask="url(#path-65-inside-28)"/>
<circle cx="353.304" cy="247.305" r="27" transform="rotate(135 353.304 247.305)" fill="white" stroke="black"/>
<circle cx="353.303" cy="247.305" r="23" transform="rotate(135 353.303 247.305)" fill="white" stroke="black"/>
<circle cx="353.302" cy="247.305" r="15" transform="rotate(135 353.302 247.305)" fill="white" stroke="black"/>
<circle cx="353.304" cy="247.305" r="4" transform="rotate(135 353.304 247.305)" fill="white" stroke="black"/>
<rect x="349.27" y="246.805" width="1" height="10.6258" transform="rotate(90 349.27 246.805)" fill="black"/>
<circle cx="353.304" cy="67.6953" r="30" transform="rotate(135 353.304 67.6953)" fill="white" stroke="black"/>
<mask id="path-72-inside-29" fill="white">
<path d="M331.737 89.2621C326.748 84.2725 323.642 77.7072 322.951 70.6848C322.259 63.6625 324.024 56.6175 327.944 50.7504C331.864 44.8833 337.698 40.557 344.45 38.5086C351.203 36.4603 358.457 36.8166 364.976 39.517C371.495 42.2173 376.876 47.0946 380.203 53.3177C383.529 59.5408 384.595 66.7248 383.218 73.6456C381.841 80.5663 378.108 86.7956 372.653 91.2721C367.198 95.7486 360.36 98.1953 353.304 98.1953L353.304 67.6953L331.737 89.2621Z"/>
</mask>
<path d="M331.737 89.2621C326.748 84.2725 323.642 77.7072 322.951 70.6848C322.259 63.6625 324.024 56.6175 327.944 50.7504C331.864 44.8833 337.698 40.557 344.45 38.5086C351.203 36.4603 358.457 36.8166 364.976 39.517C371.495 42.2173 376.876 47.0946 380.203 53.3177C383.529 59.5408 384.595 66.7248 383.218 73.6456C381.841 80.5663 378.108 86.7956 372.653 91.2721C367.198 95.7486 360.36 98.1953 353.304 98.1953L353.304 67.6953L331.737 89.2621Z" fill="white" stroke="black" stroke-width="2" mask="url(#path-72-inside-29)"/>
<mask id="path-73-inside-30" fill="white">
<path d="M331.737 89.2621C327.472 84.9966 324.567 79.562 323.39 73.6456C322.213 67.7291 322.817 61.5966 325.126 56.0235C327.434 50.4503 331.343 45.6869 336.359 42.3355C341.375 38.9841 347.272 37.1953 353.304 37.1953C359.336 37.1953 365.233 38.9841 370.249 42.3355C375.265 45.6869 379.174 50.4503 381.482 56.0235C383.791 61.5966 384.395 67.7291 383.218 73.6456C382.041 79.562 379.136 84.9966 374.871 89.2621L353.304 67.6953L331.737 89.2621Z"/>
</mask>
<path d="M331.737 89.2621C327.472 84.9966 324.567 79.562 323.39 73.6456C322.213 67.7291 322.817 61.5966 325.126 56.0235C327.434 50.4503 331.343 45.6869 336.359 42.3355C341.375 38.9841 347.272 37.1953 353.304 37.1953C359.336 37.1953 365.233 38.9841 370.249 42.3355C375.265 45.6869 379.174 50.4503 381.482 56.0235C383.791 61.5966 384.395 67.7291 383.218 73.6456C382.041 79.562 379.136 84.9966 374.871 89.2621L353.304 67.6953L331.737 89.2621Z" fill="white" stroke="black" stroke-width="2" mask="url(#path-73-inside-30)"/>
<mask id="path-74-inside-31" fill="white">
<path d="M331.737 89.2621C327.951 85.4763 325.229 80.7607 323.843 75.5893C322.458 70.4178 322.458 64.9728 323.843 59.8013C325.229 54.6299 327.951 49.9143 331.737 46.1285C335.523 42.3428 340.239 39.6203 345.41 38.2346C350.581 36.8489 356.027 36.8489 361.198 38.2346C366.369 39.6203 371.085 42.3428 374.871 46.1286C378.657 49.9143 381.379 54.6299 382.765 59.8013C384.15 64.9728 384.15 70.4179 382.765 75.5893L353.304 67.6953L331.737 89.2621Z"/>
</mask>
<path d="M331.737 89.2621C327.951 85.4763 325.229 80.7607 323.843 75.5893C322.458 70.4178 322.458 64.9728 323.843 59.8013C325.229 54.6299 327.951 49.9143 331.737 46.1285C335.523 42.3428 340.239 39.6203 345.41 38.2346C350.581 36.8489 356.027 36.8489 361.198 38.2346C366.369 39.6203 371.085 42.3428 374.871 46.1286C378.657 49.9143 381.379 54.6299 382.765 59.8013C384.15 64.9728 384.15 70.4179 382.765 75.5893L353.304 67.6953L331.737 89.2621Z" fill="white" stroke="black" stroke-width="2" mask="url(#path-74-inside-31)"/>
<mask id="path-75-inside-32" fill="white">
<path d="M331.737 89.2621C327.951 85.4763 325.229 80.7607 323.843 75.5893C322.458 70.4178 322.458 64.9728 323.843 59.8013C325.229 54.6299 327.951 49.9143 331.737 46.1285C335.523 42.3428 340.239 39.6203 345.41 38.2346L353.304 67.6953L331.737 89.2621Z"/>
</mask>
<path d="M331.737 89.2621C327.951 85.4763 325.229 80.7607 323.843 75.5893C322.458 70.4178 322.458 64.9728 323.843 59.8013C325.229 54.6299 327.951 49.9143 331.737 46.1285C335.523 42.3428 340.239 39.6203 345.41 38.2346L353.304 67.6953L331.737 89.2621Z" fill="white" stroke="black" stroke-width="2" mask="url(#path-75-inside-32)"/>
<circle cx="353.304" cy="67.6953" r="27" transform="rotate(135 353.304 67.6953)" fill="white" stroke="black"/>
<circle cx="353.303" cy="67.6953" r="23" transform="rotate(135 353.303 67.6953)" fill="white" stroke="black"/>
<circle cx="353.302" cy="67.6953" r="15" transform="rotate(135 353.302 67.6953)" fill="white" stroke="black"/>
<circle cx="353.304" cy="67.6953" r="4" transform="rotate(135 353.304 67.6953)" fill="white" stroke="black"/>
<rect x="349.27" y="67.1953" width="1" height="10.6258" transform="rotate(90 349.27 67.1953)" fill="black"/>
<circle cx="263.5" cy="284.5" r="30" fill="#FCC440" stroke="black"/>
<mask id="path-82-inside-33" fill="white">
<path d="M294 284.5C294 291.556 291.553 298.394 287.077 303.849C282.6 309.304 276.371 313.037 269.45 314.414C262.53 315.791 255.346 314.725 249.122 311.399C242.899 308.072 238.022 302.691 235.322 296.172C232.621 289.653 232.265 282.399 234.313 275.646C236.362 268.894 240.688 263.06 246.555 259.14C252.422 255.22 259.467 253.455 266.49 254.147C273.512 254.839 280.077 257.944 285.067 262.933L263.5 284.5H294Z"/>
</mask>
<path d="M294 284.5C294 291.556 291.553 298.394 287.077 303.849C282.6 309.304 276.371 313.037 269.45 314.414C262.53 315.791 255.346 314.725 249.122 311.399C242.899 308.072 238.022 302.691 235.322 296.172C232.621 289.653 232.265 282.399 234.313 275.646C236.362 268.894 240.688 263.06 246.555 259.14C252.422 255.22 259.467 253.455 266.49 254.147C273.512 254.839 280.077 257.944 285.067 262.933L263.5 284.5H294Z" fill="#FCC440" stroke="black" stroke-width="2" mask="url(#path-82-inside-33)"/>
<mask id="path-83-inside-34" fill="white">
<path d="M294 284.5C294 290.532 292.211 296.429 288.86 301.445C285.508 306.461 280.745 310.37 275.172 312.678C269.599 314.987 263.466 315.591 257.55 314.414C251.633 313.237 246.199 310.332 241.933 306.067C237.668 301.801 234.763 296.367 233.586 290.45C232.409 284.534 233.013 278.401 235.322 272.828C237.63 267.255 241.539 262.492 246.555 259.14C251.571 255.789 257.468 254 263.5 254V284.5H294Z"/>
</mask>
<path d="M294 284.5C294 290.532 292.211 296.429 288.86 301.445C285.508 306.461 280.745 310.37 275.172 312.678C269.599 314.987 263.466 315.591 257.55 314.414C251.633 313.237 246.199 310.332 241.933 306.067C237.668 301.801 234.763 296.367 233.586 290.45C232.409 284.534 233.013 278.401 235.322 272.828C237.63 267.255 241.539 262.492 246.555 259.14C251.571 255.789 257.468 254 263.5 254V284.5H294Z" fill="#FCC440" stroke="black" stroke-width="2" mask="url(#path-83-inside-34)"/>
<mask id="path-84-inside-35" fill="white">
<path d="M294 284.5C294 289.854 292.591 295.113 289.914 299.75C287.237 304.387 283.387 308.237 278.75 310.914C274.113 313.591 268.854 315 263.5 315C258.146 315 252.887 313.591 248.25 310.914C243.613 308.237 239.763 304.387 237.086 299.75C234.409 295.113 233 289.854 233 284.5C233 279.146 234.409 273.887 237.086 269.25C239.763 264.613 243.613 260.763 248.25 258.086L263.5 284.5H294Z"/>
</mask>
<path d="M294 284.5C294 289.854 292.591 295.113 289.914 299.75C287.237 304.387 283.387 308.237 278.75 310.914C274.113 313.591 268.854 315 263.5 315C258.146 315 252.887 313.591 248.25 310.914C243.613 308.237 239.763 304.387 237.086 299.75C234.409 295.113 233 289.854 233 284.5C233 279.146 234.409 273.887 237.086 269.25C239.763 264.613 243.613 260.763 248.25 258.086L263.5 284.5H294Z" fill="#FCC440" stroke="black" stroke-width="2" mask="url(#path-84-inside-35)"/>
<mask id="path-85-inside-36" fill="white">
<path d="M294 284.5C294 289.854 292.591 295.113 289.914 299.75C287.237 304.387 283.387 308.237 278.75 310.914C274.113 313.591 268.854 315 263.5 315C258.146 315 252.887 313.591 248.25 310.914L263.5 284.5H294Z"/>
</mask>
<path d="M294 284.5C294 289.854 292.591 295.113 289.914 299.75C287.237 304.387 283.387 308.237 278.75 310.914C274.113 313.591 268.854 315 263.5 315C258.146 315 252.887 313.591 248.25 310.914L263.5 284.5H294Z" fill="#FCC440" stroke="black" stroke-width="2" mask="url(#path-85-inside-36)"/>
<circle cx="263.5" cy="284.5" r="27" fill="#FCC440" stroke="black"/>
<circle cx="263.5" cy="284.5" r="23" fill="#FCC440" stroke="black"/>
<circle cx="263.5" cy="284.5" r="15" fill="#FCC440" stroke="black"/>
<circle cx="263.5" cy="284.5" r="4" fill="white" stroke="black"/>
<rect x="263" y="270" width="1" height="10.6258" fill="black"/>
<path d="M291.215 287.824C290.616 286.998 289.384 286.998 288.785 287.824L286.393 291.125C286.24 291.337 285.949 291.395 285.727 291.258L282.253 289.123C281.384 288.589 280.246 289.06 280.009 290.053L279.062 294.018C279.001 294.273 278.755 294.437 278.497 294.396L274.471 293.753C273.463 293.592 272.592 294.463 272.753 295.471L273.396 299.497C273.437 299.755 273.273 300.001 273.018 300.062L269.053 301.009C268.06 301.246 267.589 302.384 268.123 303.253L270.258 306.727C270.395 306.949 270.337 307.24 270.125 307.393L266.824 309.785C265.998 310.384 265.998 311.616 266.824 312.215L270.125 314.607C270.337 314.76 270.395 315.051 270.258 315.273L268.123 318.747C267.589 319.616 268.06 320.754 269.053 320.991L273.018 321.938C273.273 321.999 273.437 322.245 273.396 322.503L272.753 326.529C272.592 327.537 273.463 328.408 274.471 328.247L278.497 327.604C278.755 327.563 279.001 327.727 279.062 327.982L280.009 331.947C280.246 332.94 281.384 333.411 282.253 332.877L285.727 330.742C285.949 330.605 286.24 330.663 286.393 330.875L288.785 334.176C289.384 335.002 290.616 335.002 291.215 334.176L293.607 330.875C293.76 330.663 294.051 330.605 294.273 330.742L297.747 332.877C298.616 333.411 299.754 332.94 299.991 331.947L300.938 327.982C300.999 327.727 301.245 327.563 301.503 327.604L305.529 328.247C306.537 328.408 307.408 327.537 307.247 326.529L306.604 322.503C306.563 322.245 306.727 321.999 306.982 321.938L310.947 320.991C311.94 320.754 312.411 319.616 311.877 318.747L309.742 315.273C309.605 315.051 309.663 314.76 309.875 314.607L313.176 312.215C314.002 311.616 314.002 310.384 313.176 309.785L309.875 307.393C309.663 307.24 309.605 306.949 309.742 306.727L311.877 303.253C312.411 302.384 311.94 301.246 310.947 301.009L306.982 300.062C306.727 300.001 306.563 299.755 306.604 299.497L307.247 295.471C307.408 294.463 306.537 293.592 305.529 293.753L301.503 294.396C301.245 294.437 300.999 294.273 300.938 294.018L299.991 290.053C299.754 289.06 298.616 288.589 297.747 289.123L294.273 291.258C294.051 291.395 293.76 291.337 293.607 291.125L291.215 287.824Z" fill="#FCC440" stroke="black"/>
<path d="M276.673 301.727L279.312 306.145V309H280.406V306.145L283.044 301.727H281.798L279.898 305.033H279.82L277.92 301.727H276.673ZM285.404 309.11C286.942 309.11 287.947 307.984 287.947 306.298C287.947 304.6 286.942 303.474 285.404 303.474C283.866 303.474 282.861 304.6 282.861 306.298C282.861 307.984 283.866 309.11 285.404 309.11ZM285.407 308.219C284.403 308.219 283.934 307.342 283.934 306.294C283.934 305.25 284.403 304.362 285.407 304.362C286.405 304.362 286.874 305.25 286.874 306.294C286.874 307.342 286.405 308.219 285.407 308.219ZM292.587 306.738C292.591 307.665 291.902 308.105 291.305 308.105C290.648 308.105 290.194 307.629 290.194 306.887V303.545H289.132V307.015C289.132 308.368 289.874 309.071 290.922 309.071C291.742 309.071 292.299 308.638 292.551 308.055H292.608V309H293.652V303.545H292.587V306.738ZM295.079 309H296.141V305.669C296.141 304.955 296.691 304.44 297.444 304.44C297.664 304.44 297.913 304.479 297.998 304.504V303.489C297.892 303.474 297.682 303.464 297.547 303.464C296.908 303.464 296.361 303.826 296.162 304.412H296.105V303.545H295.079V309ZM303.004 304.877C302.784 304.028 302.12 303.474 300.941 303.474C299.709 303.474 298.835 304.124 298.835 305.09C298.835 305.864 299.304 306.379 300.327 306.607L301.25 306.809C301.776 306.926 302.021 307.161 302.021 307.501C302.021 307.924 301.57 308.254 300.874 308.254C300.238 308.254 299.83 307.981 299.702 307.445L298.675 307.601C298.853 308.567 299.656 309.11 300.881 309.11C302.198 309.11 303.111 308.411 303.111 307.423C303.111 306.653 302.621 306.177 301.619 305.946L300.753 305.747C300.153 305.605 299.893 305.403 299.897 305.033C299.893 304.614 300.348 304.316 300.952 304.316C301.612 304.316 301.918 304.682 302.042 305.048L303.004 304.877ZM277.484 321H278.581V317.829H281.67V316.888H278.581V314.672H281.994V313.727H277.484V321ZM285.155 321.11C286.693 321.11 287.698 319.984 287.698 318.298C287.698 316.6 286.693 315.474 285.155 315.474C283.617 315.474 282.612 316.6 282.612 318.298C282.612 319.984 283.617 321.11 285.155 321.11ZM285.158 320.219C284.153 320.219 283.685 319.342 283.685 318.294C283.685 317.25 284.153 316.362 285.158 316.362C286.156 316.362 286.625 317.25 286.625 318.294C286.625 319.342 286.156 320.219 285.158 320.219ZM288.883 321H289.945V317.669C289.945 316.955 290.495 316.44 291.248 316.44C291.468 316.44 291.717 316.479 291.802 316.504V315.489C291.695 315.474 291.486 315.464 291.351 315.464C290.712 315.464 290.165 315.826 289.966 316.412H289.909V315.545H288.883V321ZM294.876 321.11C296.066 321.11 296.907 320.524 297.149 319.636L296.144 319.455C295.952 319.97 295.491 320.233 294.887 320.233C293.978 320.233 293.367 319.643 293.339 318.592H297.216V318.216C297.216 316.245 296.037 315.474 294.802 315.474C293.282 315.474 292.28 316.632 292.28 318.308C292.28 320.002 293.267 321.11 294.876 321.11ZM293.342 317.797C293.385 317.023 293.946 316.352 294.809 316.352C295.633 316.352 296.172 316.962 296.176 317.797H293.342ZM303.031 315.545H301.891L300.514 319.743H300.457L299.075 315.545H297.935L299.917 321H301.053L303.031 315.545Z" fill="black"/>
</svg>
