<svg width="319" height="339" viewBox="0 0 319 339" fill="none" xmlns="http://www.w3.org/2000/svg">
<path d="M160 255.5C160 200.447 140.272 150.003 107.5 110.85" stroke="black" stroke-width="0.5" stroke-dasharray="4 2"/>
<path d="M275.538 157.08C255.468 165.638 232.26 156.306 223.702 136.236C215.144 116.166 224.477 92.9579 244.547 84.3999" stroke="black" stroke-width="0.5" stroke-dasharray="4 2"/>
<path d="M51.0864 155.975C71.8536 143.985 98.4085 151.1 110.398 171.867C122.388 192.635 115.273 219.19 94.5059 231.179" stroke="black" stroke-width="0.5" stroke-dasharray="4 2"/>
<path d="M158 276C158 211.383 210.383 159 275 159" stroke="black" stroke-width="0.5" stroke-dasharray="4 2"/>
<path d="M159 45C159 109.617 211.383 162 276 162" stroke="black" stroke-width="0.5" stroke-dasharray="4 2"/>
<circle cx="32.5" cy="159.5" r="30" transform="rotate(90 32.5 159.5)" fill="white" stroke="black"/>
<mask id="path-7-inside-1" fill="white">
<path d="M32.5 190C25.4437 190 18.6056 187.553 13.151 183.077C7.69638 178.6 3.96267 172.371 2.58605 165.45C1.20942 158.53 2.27507 151.346 5.6014 145.122C8.92773 138.899 14.3089 134.022 20.8282 131.322C27.3474 128.621 34.6012 128.265 41.3537 130.313C48.1062 132.362 53.9395 136.688 57.8598 142.555C61.7801 148.422 63.5448 155.467 62.8531 162.49C62.1615 169.512 59.0563 176.077 54.0668 181.067L32.5 159.5L32.5 190Z"/>
</mask>
<path d="M32.5 190C25.4437 190 18.6056 187.553 13.151 183.077C7.69638 178.6 3.96267 172.371 2.58605 165.45C1.20942 158.53 2.27507 151.346 5.6014 145.122C8.92773 138.899 14.3089 134.022 20.8282 131.322C27.3474 128.621 34.6012 128.265 41.3537 130.313C48.1062 132.362 53.9395 136.688 57.8598 142.555C61.7801 148.422 63.5448 155.467 62.8531 162.49C62.1615 169.512 59.0563 176.077 54.0668 181.067L32.5 159.5L32.5 190Z" fill="white" stroke="black" stroke-width="2" mask="url(#path-7-inside-1)"/>
<mask id="path-8-inside-2" fill="white">
<path d="M32.5 190C26.4677 190 20.5708 188.211 15.5551 184.86C10.5394 181.508 6.63014 176.745 4.32167 171.172C2.0132 165.599 1.4092 159.466 2.58605 153.55C3.7629 147.633 6.66774 142.199 10.9332 137.933C15.1987 133.668 20.6333 130.763 26.5497 129.586C32.4662 128.409 38.5987 129.013 44.1718 131.322C49.745 133.63 54.5084 137.539 57.8598 142.555C61.2112 147.571 63 153.468 63 159.5L32.5 159.5L32.5 190Z"/>
</mask>
<path d="M32.5 190C26.4677 190 20.5708 188.211 15.5551 184.86C10.5394 181.508 6.63014 176.745 4.32167 171.172C2.0132 165.599 1.4092 159.466 2.58605 153.55C3.7629 147.633 6.66774 142.199 10.9332 137.933C15.1987 133.668 20.6333 130.763 26.5497 129.586C32.4662 128.409 38.5987 129.013 44.1718 131.322C49.745 133.63 54.5084 137.539 57.8598 142.555C61.2112 147.571 63 153.468 63 159.5L32.5 159.5L32.5 190Z" fill="white" stroke="black" stroke-width="2" mask="url(#path-8-inside-2)"/>
<mask id="path-9-inside-3" fill="white">
<path d="M32.5 190C27.1461 190 21.8866 188.591 17.25 185.914C12.6134 183.237 8.76316 179.387 6.08622 174.75C3.40929 170.113 2 164.854 2 159.5C2 154.146 3.40929 148.887 6.08623 144.25C8.76316 139.613 12.6134 135.763 17.25 133.086C21.8866 130.409 27.1461 129 32.5 129C37.8539 129 43.1134 130.409 47.75 133.086C52.3866 135.763 56.2368 139.613 58.9138 144.25L32.5 159.5L32.5 190Z"/>
</mask>
<path d="M32.5 190C27.1461 190 21.8866 188.591 17.25 185.914C12.6134 183.237 8.76316 179.387 6.08622 174.75C3.40929 170.113 2 164.854 2 159.5C2 154.146 3.40929 148.887 6.08623 144.25C8.76316 139.613 12.6134 135.763 17.25 133.086C21.8866 130.409 27.1461 129 32.5 129C37.8539 129 43.1134 130.409 47.75 133.086C52.3866 135.763 56.2368 139.613 58.9138 144.25L32.5 159.5L32.5 190Z" fill="white" stroke="black" stroke-width="2" mask="url(#path-9-inside-3)"/>
<mask id="path-10-inside-4" fill="white">
<path d="M32.5 190C27.1461 190 21.8866 188.591 17.25 185.914C12.6134 183.237 8.76316 179.387 6.08622 174.75C3.40929 170.113 2 164.854 2 159.5C2 154.146 3.40929 148.887 6.08623 144.25L32.5 159.5L32.5 190Z"/>
</mask>
<path d="M32.5 190C27.1461 190 21.8866 188.591 17.25 185.914C12.6134 183.237 8.76316 179.387 6.08622 174.75C3.40929 170.113 2 164.854 2 159.5C2 154.146 3.40929 148.887 6.08623 144.25L32.5 159.5L32.5 190Z" fill="white" stroke="black" stroke-width="2" mask="url(#path-10-inside-4)"/>
<circle cx="32.5" cy="159.5" r="27" transform="rotate(90 32.5 159.5)" fill="white" stroke="black"/>
<circle cx="32.5" cy="159.5" r="23" transform="rotate(90 32.5 159.5)" fill="white" stroke="black"/>
<circle cx="32.4998" cy="159.5" r="15" transform="rotate(90 32.4998 159.5)" fill="white" stroke="black"/>
<circle cx="32.5" cy="159.5" r="4" transform="rotate(90 32.5 159.5)" fill="white" stroke="black"/>
<rect x="29.293" y="162" width="1" height="10.6258" transform="rotate(45 29.293 162)" fill="black"/>
<circle cx="159.5" cy="286.5" r="30" transform="rotate(90 159.5 286.5)" fill="white" stroke="black"/>
<mask id="path-17-inside-5" fill="white">
<path d="M159.5 317C152.444 317 145.606 314.553 140.151 310.077C134.696 305.6 130.963 299.371 129.586 292.45C128.209 285.53 129.275 278.346 132.601 272.122C135.928 265.899 141.309 261.022 147.828 258.322C154.347 255.621 161.601 255.265 168.354 257.313C175.106 259.362 180.94 263.688 184.86 269.555C188.78 275.422 190.545 282.467 189.853 289.49C189.161 296.512 186.056 303.077 181.067 308.067L159.5 286.5L159.5 317Z"/>
</mask>
<path d="M159.5 317C152.444 317 145.606 314.553 140.151 310.077C134.696 305.6 130.963 299.371 129.586 292.45C128.209 285.53 129.275 278.346 132.601 272.122C135.928 265.899 141.309 261.022 147.828 258.322C154.347 255.621 161.601 255.265 168.354 257.313C175.106 259.362 180.94 263.688 184.86 269.555C188.78 275.422 190.545 282.467 189.853 289.49C189.161 296.512 186.056 303.077 181.067 308.067L159.5 286.5L159.5 317Z" fill="white" stroke="black" stroke-width="2" mask="url(#path-17-inside-5)"/>
<mask id="path-18-inside-6" fill="white">
<path d="M159.5 317C153.468 317 147.571 315.211 142.555 311.86C137.539 308.508 133.63 303.745 131.322 298.172C129.013 292.599 128.409 286.466 129.586 280.55C130.763 274.633 133.668 269.199 137.933 264.933C142.199 260.668 147.633 257.763 153.55 256.586C159.466 255.409 165.599 256.013 171.172 258.322C176.745 260.63 181.508 264.539 184.86 269.555C188.211 274.571 190 280.468 190 286.5L159.5 286.5L159.5 317Z"/>
</mask>
<path d="M159.5 317C153.468 317 147.571 315.211 142.555 311.86C137.539 308.508 133.63 303.745 131.322 298.172C129.013 292.599 128.409 286.466 129.586 280.55C130.763 274.633 133.668 269.199 137.933 264.933C142.199 260.668 147.633 257.763 153.55 256.586C159.466 255.409 165.599 256.013 171.172 258.322C176.745 260.63 181.508 264.539 184.86 269.555C188.211 274.571 190 280.468 190 286.5L159.5 286.5L159.5 317Z" fill="white" stroke="black" stroke-width="2" mask="url(#path-18-inside-6)"/>
<mask id="path-19-inside-7" fill="white">
<path d="M159.5 317C154.146 317 148.887 315.591 144.25 312.914C139.613 310.237 135.763 306.387 133.086 301.75C130.409 297.113 129 291.854 129 286.5C129 281.146 130.409 275.887 133.086 271.25C135.763 266.613 139.613 262.763 144.25 260.086C148.887 257.409 154.146 256 159.5 256C164.854 256 170.113 257.409 174.75 260.086C179.387 262.763 183.237 266.613 185.914 271.25L159.5 286.5L159.5 317Z"/>
</mask>
<path d="M159.5 317C154.146 317 148.887 315.591 144.25 312.914C139.613 310.237 135.763 306.387 133.086 301.75C130.409 297.113 129 291.854 129 286.5C129 281.146 130.409 275.887 133.086 271.25C135.763 266.613 139.613 262.763 144.25 260.086C148.887 257.409 154.146 256 159.5 256C164.854 256 170.113 257.409 174.75 260.086C179.387 262.763 183.237 266.613 185.914 271.25L159.5 286.5L159.5 317Z" fill="white" stroke="black" stroke-width="2" mask="url(#path-19-inside-7)"/>
<mask id="path-20-inside-8" fill="white">
<path d="M159.5 317C154.146 317 148.887 315.591 144.25 312.914C139.613 310.237 135.763 306.387 133.086 301.75C130.409 297.113 129 291.854 129 286.5C129 281.146 130.409 275.887 133.086 271.25L159.5 286.5L159.5 317Z"/>
</mask>
<path d="M159.5 317C154.146 317 148.887 315.591 144.25 312.914C139.613 310.237 135.763 306.387 133.086 301.75C130.409 297.113 129 291.854 129 286.5C129 281.146 130.409 275.887 133.086 271.25L159.5 286.5L159.5 317Z" fill="white" stroke="black" stroke-width="2" mask="url(#path-20-inside-8)"/>
<circle cx="159.5" cy="286.5" r="27" transform="rotate(90 159.5 286.5)" fill="white" stroke="black"/>
<circle cx="159.5" cy="286.5" r="23" transform="rotate(90 159.5 286.5)" fill="white" stroke="black"/>
<circle cx="159.5" cy="286.5" r="15" transform="rotate(90 159.5 286.5)" fill="white" stroke="black"/>
<circle cx="159.5" cy="286.5" r="4" transform="rotate(90 159.5 286.5)" fill="white" stroke="black"/>
<rect x="156.293" y="289" width="1" height="10.6258" transform="rotate(45 156.293 289)" fill="black"/>
<circle cx="286.5" cy="159.5" r="30" fill="white" stroke="black"/>
<mask id="path-27-inside-9" fill="white">
<path d="M317 159.5C317 166.556 314.553 173.394 310.077 178.849C305.6 184.304 299.371 188.037 292.45 189.414C285.53 190.791 278.346 189.725 272.122 186.399C265.899 183.072 261.022 177.691 258.322 171.172C255.621 164.653 255.265 157.399 257.313 150.646C259.362 143.894 263.688 138.06 269.555 134.14C275.422 130.22 282.467 128.455 289.49 129.147C296.512 129.839 303.077 132.944 308.067 137.933L286.5 159.5H317Z"/>
</mask>
<path d="M317 159.5C317 166.556 314.553 173.394 310.077 178.849C305.6 184.304 299.371 188.037 292.45 189.414C285.53 190.791 278.346 189.725 272.122 186.399C265.899 183.072 261.022 177.691 258.322 171.172C255.621 164.653 255.265 157.399 257.313 150.646C259.362 143.894 263.688 138.06 269.555 134.14C275.422 130.22 282.467 128.455 289.49 129.147C296.512 129.839 303.077 132.944 308.067 137.933L286.5 159.5H317Z" fill="white" stroke="black" stroke-width="2" mask="url(#path-27-inside-9)"/>
<mask id="path-28-inside-10" fill="white">
<path d="M317 159.5C317 165.532 315.211 171.429 311.86 176.445C308.508 181.461 303.745 185.37 298.172 187.678C292.599 189.987 286.466 190.591 280.55 189.414C274.633 188.237 269.199 185.332 264.933 181.067C260.668 176.801 257.763 171.367 256.586 165.45C255.409 159.534 256.013 153.401 258.322 147.828C260.63 142.255 264.539 137.492 269.555 134.14C274.571 130.789 280.468 129 286.5 129L286.5 159.5L317 159.5Z"/>
</mask>
<path d="M317 159.5C317 165.532 315.211 171.429 311.86 176.445C308.508 181.461 303.745 185.37 298.172 187.678C292.599 189.987 286.466 190.591 280.55 189.414C274.633 188.237 269.199 185.332 264.933 181.067C260.668 176.801 257.763 171.367 256.586 165.45C255.409 159.534 256.013 153.401 258.322 147.828C260.63 142.255 264.539 137.492 269.555 134.14C274.571 130.789 280.468 129 286.5 129L286.5 159.5L317 159.5Z" fill="white" stroke="black" stroke-width="2" mask="url(#path-28-inside-10)"/>
<mask id="path-29-inside-11" fill="white">
<path d="M317 159.5C317 164.854 315.591 170.113 312.914 174.75C310.237 179.387 306.387 183.237 301.75 185.914C297.113 188.591 291.854 190 286.5 190C281.146 190 275.887 188.591 271.25 185.914C266.613 183.237 262.763 179.387 260.086 174.75C257.409 170.113 256 164.854 256 159.5C256 154.146 257.409 148.887 260.086 144.25C262.763 139.613 266.613 135.763 271.25 133.086L286.5 159.5H317Z"/>
</mask>
<path d="M317 159.5C317 164.854 315.591 170.113 312.914 174.75C310.237 179.387 306.387 183.237 301.75 185.914C297.113 188.591 291.854 190 286.5 190C281.146 190 275.887 188.591 271.25 185.914C266.613 183.237 262.763 179.387 260.086 174.75C257.409 170.113 256 164.854 256 159.5C256 154.146 257.409 148.887 260.086 144.25C262.763 139.613 266.613 135.763 271.25 133.086L286.5 159.5H317Z" fill="white" stroke="black" stroke-width="2" mask="url(#path-29-inside-11)"/>
<mask id="path-30-inside-12" fill="white">
<path d="M317 159.5C317 164.854 315.591 170.113 312.914 174.75C310.237 179.387 306.387 183.237 301.75 185.914C297.113 188.591 291.854 190 286.5 190C281.146 190 275.887 188.591 271.25 185.914L286.5 159.5H317Z"/>
</mask>
<path d="M317 159.5C317 164.854 315.591 170.113 312.914 174.75C310.237 179.387 306.387 183.237 301.75 185.914C297.113 188.591 291.854 190 286.5 190C281.146 190 275.887 188.591 271.25 185.914L286.5 159.5H317Z" fill="white" stroke="black" stroke-width="2" mask="url(#path-30-inside-12)"/>
<circle cx="286.5" cy="159.5" r="27" fill="white" stroke="black"/>
<circle cx="286.5" cy="159.5" r="23" fill="white" stroke="black"/>
<circle cx="286.5" cy="159.5" r="15" fill="white" stroke="black"/>
<circle cx="286.5" cy="159.5" r="4" fill="white" stroke="black"/>
<rect x="289" y="162.707" width="1" height="10.6258" transform="rotate(-45 289 162.707)" fill="black"/>
<circle cx="159.5" cy="32.5" r="30" transform="rotate(90 159.5 32.5)" fill="white" stroke="black"/>
<mask id="path-37-inside-13" fill="white">
<path d="M159.5 63C152.444 63 145.606 60.5533 140.151 56.0768C134.696 51.6003 130.963 45.371 129.586 38.4503C128.209 31.5295 129.275 24.3455 132.601 18.1224C135.928 11.8993 141.309 7.02202 147.828 4.32167C154.347 1.62133 161.601 1.26497 168.354 3.31332C175.106 5.36166 180.94 9.68798 184.86 15.5551C188.78 21.4222 190.545 28.4672 189.853 35.4895C189.161 42.5119 186.056 49.0772 181.067 54.0668L159.5 32.5L159.5 63Z"/>
</mask>
<path d="M159.5 63C152.444 63 145.606 60.5533 140.151 56.0768C134.696 51.6003 130.963 45.371 129.586 38.4503C128.209 31.5295 129.275 24.3455 132.601 18.1224C135.928 11.8993 141.309 7.02202 147.828 4.32167C154.347 1.62133 161.601 1.26497 168.354 3.31332C175.106 5.36166 180.94 9.68798 184.86 15.5551C188.78 21.4222 190.545 28.4672 189.853 35.4895C189.161 42.5119 186.056 49.0772 181.067 54.0668L159.5 32.5L159.5 63Z" fill="white" stroke="black" stroke-width="2" mask="url(#path-37-inside-13)"/>
<mask id="path-38-inside-14" fill="white">
<path d="M159.5 63C153.468 63 147.571 61.2112 142.555 57.8598C137.539 54.5084 133.63 49.745 131.322 44.1718C129.013 38.5987 128.409 32.4662 129.586 26.5497C130.763 20.6333 133.668 15.1987 137.933 10.9332C142.199 6.66774 147.633 3.7629 153.55 2.58605C159.466 1.4092 165.599 2.0132 171.172 4.32167C176.745 6.63015 181.508 10.5394 184.86 15.5551C188.211 20.5708 190 26.4677 190 32.5L159.5 32.5L159.5 63Z"/>
</mask>
<path d="M159.5 63C153.468 63 147.571 61.2112 142.555 57.8598C137.539 54.5084 133.63 49.745 131.322 44.1718C129.013 38.5987 128.409 32.4662 129.586 26.5497C130.763 20.6333 133.668 15.1987 137.933 10.9332C142.199 6.66774 147.633 3.7629 153.55 2.58605C159.466 1.4092 165.599 2.0132 171.172 4.32167C176.745 6.63015 181.508 10.5394 184.86 15.5551C188.211 20.5708 190 26.4677 190 32.5L159.5 32.5L159.5 63Z" fill="white" stroke="black" stroke-width="2" mask="url(#path-38-inside-14)"/>
<mask id="path-39-inside-15" fill="white">
<path d="M159.5 63C154.146 63 148.887 61.5907 144.25 58.9138C139.613 56.2368 135.763 52.3866 133.086 47.75C130.409 43.1134 129 37.8539 129 32.5C129 27.1461 130.409 21.8866 133.086 17.25C135.763 12.6134 139.613 8.76316 144.25 6.08622C148.887 3.40929 154.146 2 159.5 2C164.854 2 170.113 3.40929 174.75 6.08623C179.387 8.76316 183.237 12.6134 185.914 17.25L159.5 32.5L159.5 63Z"/>
</mask>
<path d="M159.5 63C154.146 63 148.887 61.5907 144.25 58.9138C139.613 56.2368 135.763 52.3866 133.086 47.75C130.409 43.1134 129 37.8539 129 32.5C129 27.1461 130.409 21.8866 133.086 17.25C135.763 12.6134 139.613 8.76316 144.25 6.08622C148.887 3.40929 154.146 2 159.5 2C164.854 2 170.113 3.40929 174.75 6.08623C179.387 8.76316 183.237 12.6134 185.914 17.25L159.5 32.5L159.5 63Z" fill="white" stroke="black" stroke-width="2" mask="url(#path-39-inside-15)"/>
<mask id="path-40-inside-16" fill="white">
<path d="M159.5 63C154.146 63 148.887 61.5907 144.25 58.9138C139.613 56.2368 135.763 52.3866 133.086 47.75C130.409 43.1134 129 37.8539 129 32.5C129 27.1461 130.409 21.8866 133.086 17.25L159.5 32.5L159.5 63Z"/>
</mask>
<path d="M159.5 63C154.146 63 148.887 61.5907 144.25 58.9138C139.613 56.2368 135.763 52.3866 133.086 47.75C130.409 43.1134 129 37.8539 129 32.5C129 27.1461 130.409 21.8866 133.086 17.25L159.5 32.5L159.5 63Z" fill="white" stroke="black" stroke-width="2" mask="url(#path-40-inside-16)"/>
<circle cx="159.5" cy="32.5" r="27" transform="rotate(90 159.5 32.5)" fill="white" stroke="black"/>
<circle cx="159.5" cy="32.5" r="23" transform="rotate(90 159.5 32.5)" fill="white" stroke="black"/>
<circle cx="159.5" cy="32.5" r="15" fill="white" stroke="black"/>
<circle cx="159.5" cy="32.5" r="4" transform="rotate(90 159.5 32.5)" fill="white" stroke="black"/>
<rect x="156.293" y="35" width="1" height="10.6258" transform="rotate(45 156.293 35)" fill="black"/>
<circle cx="69.6985" cy="69.6951" r="30" transform="rotate(114.284 69.6985 69.6951)" fill="white" stroke="black"/>
<mask id="path-47-inside-17" fill="white">
<path d="M57.1552 97.4964C50.7232 94.5945 45.4965 89.5521 42.3654 83.2285C39.2344 76.9048 38.3929 69.6911 39.9843 62.8166C41.5757 55.942 45.5015 49.832 51.0928 45.5274C56.6841 41.2229 63.595 38.9902 70.6479 39.2099C77.7008 39.4295 84.4594 42.0879 89.772 46.732C95.0847 51.3761 98.6227 57.7186 99.7832 64.6788C100.944 71.6391 99.655 78.7864 96.1366 84.903C92.6181 91.0196 87.0877 95.7269 80.4876 98.2231L69.6985 69.6951L57.1552 97.4964Z"/>
</mask>
<path d="M57.1552 97.4964C50.7232 94.5945 45.4965 89.5521 42.3654 83.2285C39.2344 76.9048 38.3929 69.6911 39.9843 62.8166C41.5757 55.942 45.5015 49.832 51.0928 45.5274C56.6841 41.2229 63.595 38.9902 70.6479 39.2099C77.7008 39.4295 84.4594 42.0879 89.772 46.732C95.0847 51.3761 98.6227 57.7186 99.7832 64.6788C100.944 71.6391 99.655 78.7864 96.1366 84.903C92.6181 91.0196 87.0877 95.7269 80.4876 98.2231L69.6985 69.6951L57.1552 97.4964Z" fill="white" stroke="black" stroke-width="2" mask="url(#path-47-inside-17)"/>
<mask id="path-48-inside-18" fill="white">
<path d="M57.1552 97.4964C51.6566 95.0156 47.0172 90.96 43.8236 85.8424C40.6299 80.7248 39.0255 74.7751 39.2133 68.7457C39.4011 62.7163 41.3726 56.878 44.8784 51.969C48.3843 47.0601 53.2671 43.301 58.9094 41.1671C64.5517 39.0332 70.7001 38.6204 76.577 39.9808C82.4539 41.3413 87.7955 44.4139 91.9261 48.8101C96.0568 53.2063 98.7911 58.7287 99.7832 64.6788C100.775 70.629 99.9807 76.7398 97.4999 82.2384L69.6985 69.6951L57.1552 97.4964Z"/>
</mask>
<path d="M57.1552 97.4964C51.6566 95.0156 47.0172 90.96 43.8236 85.8424C40.6299 80.7248 39.0255 74.7751 39.2133 68.7457C39.4011 62.7163 41.3726 56.878 44.8784 51.969C48.3843 47.0601 53.2671 43.301 58.9094 41.1671C64.5517 39.0332 70.7001 38.6204 76.577 39.9808C82.4539 41.3413 87.7955 44.4139 91.9261 48.8101C96.0568 53.2063 98.7911 58.7287 99.7832 64.6788C100.775 70.629 99.9807 76.7398 97.4999 82.2384L69.6985 69.6951L57.1552 97.4964Z" fill="white" stroke="black" stroke-width="2" mask="url(#path-48-inside-18)"/>
<mask id="path-49-inside-19" fill="white">
<path d="M57.1552 97.4964C52.2751 95.2946 48.0605 91.847 44.935 87.5001C41.8096 83.1532 39.8835 78.0602 39.3502 72.733C38.8169 67.4057 39.6954 62.032 41.8972 57.1518C44.099 52.2716 47.5466 48.057 51.8935 44.9316C56.2404 41.8062 61.3334 39.88 66.6607 39.3468C71.9879 38.8135 77.3617 39.6919 82.2418 41.8937C87.122 44.0955 91.3366 47.5431 94.462 51.89C97.5875 56.2369 99.5136 61.33 100.047 66.6572L69.6985 69.6951L57.1552 97.4964Z"/>
</mask>
<path d="M57.1552 97.4964C52.2751 95.2946 48.0605 91.847 44.935 87.5001C41.8096 83.1532 39.8835 78.0602 39.3502 72.733C38.8169 67.4057 39.6954 62.032 41.8972 57.1518C44.099 52.2716 47.5466 48.057 51.8935 44.9316C56.2404 41.8062 61.3334 39.88 66.6607 39.3468C71.9879 38.8135 77.3617 39.6919 82.2418 41.8937C87.122 44.0955 91.3366 47.5431 94.462 51.89C97.5875 56.2369 99.5136 61.33 100.047 66.6572L69.6985 69.6951L57.1552 97.4964Z" fill="white" stroke="black" stroke-width="2" mask="url(#path-49-inside-19)"/>
<mask id="path-50-inside-20" fill="white">
<path d="M57.1552 97.4964C52.2751 95.2946 48.0605 91.847 44.935 87.5001C41.8096 83.1532 39.8835 78.0602 39.3502 72.733C38.8169 67.4057 39.6954 62.032 41.8972 57.1518C44.099 52.2716 47.5466 48.057 51.8935 44.9316L69.6985 69.6951L57.1552 97.4964Z"/>
</mask>
<path d="M57.1552 97.4964C52.2751 95.2946 48.0605 91.847 44.935 87.5001C41.8096 83.1532 39.8835 78.0602 39.3502 72.733C38.8169 67.4057 39.6954 62.032 41.8972 57.1518C44.099 52.2716 47.5466 48.057 51.8935 44.9316L69.6985 69.6951L57.1552 97.4964Z" fill="white" stroke="black" stroke-width="2" mask="url(#path-50-inside-20)"/>
<circle cx="69.6985" cy="69.6953" r="27" transform="rotate(114.284 69.6985 69.6953)" fill="white" stroke="black"/>
<circle cx="69.6985" cy="69.6952" r="23" transform="rotate(114.284 69.6985 69.6952)" fill="white" stroke="black"/>
<circle cx="69.697" cy="69.6955" r="15" transform="rotate(114.284 69.697 69.6955)" fill="white" stroke="black"/>
<circle cx="69.6986" cy="69.695" r="4" transform="rotate(114.284 69.6986 69.695)" fill="white" stroke="black"/>
<rect x="65.7481" y="70.6548" width="1" height="10.6258" transform="rotate(69.2837 65.7481 70.6548)" fill="black"/>
<circle cx="69.6985" cy="249.305" r="30" transform="rotate(135 69.6985 249.305)" fill="white" stroke="black"/>
<mask id="path-57-inside-21" fill="white">
<path d="M48.1318 270.871C43.1422 265.882 40.037 259.317 39.3454 252.294C38.6537 245.272 40.4184 238.227 44.3387 232.36C48.259 226.493 54.0923 222.166 60.8448 220.118C67.5973 218.07 74.8512 218.426 81.3704 221.126C87.8896 223.827 93.2708 228.704 96.5971 234.927C99.9235 241.15 100.989 248.334 99.6125 255.255C98.2358 262.176 94.5021 268.405 89.0475 272.882C83.5929 277.358 76.7549 279.805 69.6985 279.805L69.6985 249.305L48.1318 270.871Z"/>
</mask>
<path d="M48.1318 270.871C43.1422 265.882 40.037 259.317 39.3454 252.294C38.6537 245.272 40.4184 238.227 44.3387 232.36C48.259 226.493 54.0923 222.166 60.8448 220.118C67.5973 218.07 74.8512 218.426 81.3704 221.126C87.8896 223.827 93.2708 228.704 96.5971 234.927C99.9235 241.15 100.989 248.334 99.6125 255.255C98.2358 262.176 94.5021 268.405 89.0475 272.882C83.5929 277.358 76.7549 279.805 69.6985 279.805L69.6985 249.305L48.1318 270.871Z" fill="white" stroke="black" stroke-width="2" mask="url(#path-57-inside-21)"/>
<mask id="path-58-inside-22" fill="white">
<path d="M48.1318 270.871C43.8663 266.606 40.9614 261.171 39.7846 255.255C38.6077 249.339 39.2117 243.206 41.5202 237.633C43.8287 232.06 47.7379 227.296 52.7536 223.945C57.7693 220.593 63.6662 218.805 69.6985 218.805C75.7309 218.805 81.6277 220.593 86.6434 223.945C91.6591 227.296 95.5684 232.06 97.8768 237.633C100.185 243.206 100.789 249.339 99.6125 255.255C98.4356 261.171 95.5308 266.606 91.2653 270.871L69.6985 249.305L48.1318 270.871Z"/>
</mask>
<path d="M48.1318 270.871C43.8663 266.606 40.9614 261.171 39.7846 255.255C38.6077 249.339 39.2117 243.206 41.5202 237.633C43.8287 232.06 47.7379 227.296 52.7536 223.945C57.7693 220.593 63.6662 218.805 69.6985 218.805C75.7309 218.805 81.6277 220.593 86.6434 223.945C91.6591 227.296 95.5684 232.06 97.8768 237.633C100.185 243.206 100.789 249.339 99.6125 255.255C98.4356 261.171 95.5308 266.606 91.2653 270.871L69.6985 249.305L48.1318 270.871Z" fill="white" stroke="black" stroke-width="2" mask="url(#path-58-inside-22)"/>
<mask id="path-59-inside-23" fill="white">
<path d="M48.1318 270.871C44.346 267.086 41.6235 262.37 40.2378 257.199C38.8521 252.027 38.8521 246.582 40.2378 241.411C41.6235 236.239 44.346 231.524 48.1318 227.738C51.9175 223.952 56.6331 221.23 61.8045 219.844C66.976 218.458 72.4211 218.458 77.5925 219.844C82.7639 221.23 87.4795 223.952 91.2653 227.738C95.051 231.524 97.7736 236.239 99.1593 241.411C100.545 246.582 100.545 252.027 99.1593 257.199L69.6985 249.305L48.1318 270.871Z"/>
</mask>
<path d="M48.1318 270.871C44.346 267.086 41.6235 262.37 40.2378 257.199C38.8521 252.027 38.8521 246.582 40.2378 241.411C41.6235 236.239 44.346 231.524 48.1318 227.738C51.9175 223.952 56.6331 221.23 61.8045 219.844C66.976 218.458 72.4211 218.458 77.5925 219.844C82.7639 221.23 87.4795 223.952 91.2653 227.738C95.051 231.524 97.7736 236.239 99.1593 241.411C100.545 246.582 100.545 252.027 99.1593 257.199L69.6985 249.305L48.1318 270.871Z" fill="white" stroke="black" stroke-width="2" mask="url(#path-59-inside-23)"/>
<mask id="path-60-inside-24" fill="white">
<path d="M48.1318 270.871C44.346 267.086 41.6235 262.37 40.2378 257.199C38.8521 252.027 38.8521 246.582 40.2378 241.411C41.6235 236.239 44.346 231.524 48.1318 227.738C51.9175 223.952 56.6331 221.23 61.8045 219.844L69.6985 249.305L48.1318 270.871Z"/>
</mask>
<path d="M48.1318 270.871C44.346 267.086 41.6235 262.37 40.2378 257.199C38.8521 252.027 38.8521 246.582 40.2378 241.411C41.6235 236.239 44.346 231.524 48.1318 227.738C51.9175 223.952 56.6331 221.23 61.8045 219.844L69.6985 249.305L48.1318 270.871Z" fill="white" stroke="black" stroke-width="2" mask="url(#path-60-inside-24)"/>
<circle cx="69.6985" cy="249.305" r="27" transform="rotate(135 69.6985 249.305)" fill="white" stroke="black"/>
<circle cx="69.6985" cy="249.305" r="23" transform="rotate(135 69.6985 249.305)" fill="white" stroke="black"/>
<circle cx="69.6969" cy="249.305" r="15" transform="rotate(135 69.6969 249.305)" fill="white" stroke="black"/>
<circle cx="69.6985" cy="249.305" r="4" transform="rotate(135 69.6985 249.305)" fill="white" stroke="black"/>
<rect x="65.6641" y="248.805" width="1" height="10.6258" transform="rotate(90 65.6641 248.805)" fill="black"/>
<circle cx="249.304" cy="249.305" r="30" transform="rotate(135 249.304 249.305)" fill="white" stroke="black"/>
<mask id="path-67-inside-25" fill="white">
<path d="M227.737 270.871C222.748 265.882 219.642 259.317 218.951 252.294C218.259 245.272 220.024 238.227 223.944 232.36C227.864 226.493 233.698 222.166 240.45 220.118C247.203 218.07 254.457 218.426 260.976 221.126C267.495 223.827 272.876 228.704 276.203 234.927C279.529 241.15 280.595 248.334 279.218 255.255C277.841 262.176 274.108 268.405 268.653 272.882C263.198 277.358 256.36 279.805 249.304 279.805L249.304 249.305L227.737 270.871Z"/>
</mask>
<path d="M227.737 270.871C222.748 265.882 219.642 259.317 218.951 252.294C218.259 245.272 220.024 238.227 223.944 232.36C227.864 226.493 233.698 222.166 240.45 220.118C247.203 218.07 254.457 218.426 260.976 221.126C267.495 223.827 272.876 228.704 276.203 234.927C279.529 241.15 280.595 248.334 279.218 255.255C277.841 262.176 274.108 268.405 268.653 272.882C263.198 277.358 256.36 279.805 249.304 279.805L249.304 249.305L227.737 270.871Z" fill="white" stroke="black" stroke-width="2" mask="url(#path-67-inside-25)"/>
<mask id="path-68-inside-26" fill="white">
<path d="M227.737 270.871C223.472 266.606 220.567 261.171 219.39 255.255C218.213 249.339 218.817 243.206 221.126 237.633C223.434 232.06 227.343 227.296 232.359 223.945C237.375 220.593 243.272 218.805 249.304 218.805C255.336 218.805 261.233 220.593 266.249 223.945C271.265 227.296 275.174 232.06 277.482 237.633C279.791 243.206 280.395 249.339 279.218 255.255C278.041 261.171 275.136 266.606 270.871 270.871L249.304 249.305L227.737 270.871Z"/>
</mask>
<path d="M227.737 270.871C223.472 266.606 220.567 261.171 219.39 255.255C218.213 249.339 218.817 243.206 221.126 237.633C223.434 232.06 227.343 227.296 232.359 223.945C237.375 220.593 243.272 218.805 249.304 218.805C255.336 218.805 261.233 220.593 266.249 223.945C271.265 227.296 275.174 232.06 277.482 237.633C279.791 243.206 280.395 249.339 279.218 255.255C278.041 261.171 275.136 266.606 270.871 270.871L249.304 249.305L227.737 270.871Z" fill="white" stroke="black" stroke-width="2" mask="url(#path-68-inside-26)"/>
<mask id="path-69-inside-27" fill="white">
<path d="M227.737 270.871C223.951 267.086 221.229 262.37 219.843 257.199C218.458 252.027 218.458 246.582 219.843 241.411C221.229 236.239 223.951 231.524 227.737 227.738C231.523 223.952 236.239 221.23 241.41 219.844C246.581 218.458 252.027 218.458 257.198 219.844C262.369 221.23 267.085 223.952 270.871 227.738C274.657 231.524 277.379 236.239 278.765 241.411C280.15 246.582 280.15 252.027 278.765 257.199L249.304 249.305L227.737 270.871Z"/>
</mask>
<path d="M227.737 270.871C223.951 267.086 221.229 262.37 219.843 257.199C218.458 252.027 218.458 246.582 219.843 241.411C221.229 236.239 223.951 231.524 227.737 227.738C231.523 223.952 236.239 221.23 241.41 219.844C246.581 218.458 252.027 218.458 257.198 219.844C262.369 221.23 267.085 223.952 270.871 227.738C274.657 231.524 277.379 236.239 278.765 241.411C280.15 246.582 280.15 252.027 278.765 257.199L249.304 249.305L227.737 270.871Z" fill="white" stroke="black" stroke-width="2" mask="url(#path-69-inside-27)"/>
<mask id="path-70-inside-28" fill="white">
<path d="M227.737 270.871C223.951 267.086 221.229 262.37 219.843 257.199C218.458 252.027 218.458 246.582 219.843 241.411C221.229 236.239 223.951 231.524 227.737 227.738C231.523 223.952 236.239 221.23 241.41 219.844L249.304 249.305L227.737 270.871Z"/>
</mask>
<path d="M227.737 270.871C223.951 267.086 221.229 262.37 219.843 257.199C218.458 252.027 218.458 246.582 219.843 241.411C221.229 236.239 223.951 231.524 227.737 227.738C231.523 223.952 236.239 221.23 241.41 219.844L249.304 249.305L227.737 270.871Z" fill="white" stroke="black" stroke-width="2" mask="url(#path-70-inside-28)"/>
<circle cx="249.304" cy="249.305" r="27" transform="rotate(135 249.304 249.305)" fill="white" stroke="black"/>
<circle cx="249.304" cy="249.305" r="23" transform="rotate(135 249.304 249.305)" fill="white" stroke="black"/>
<circle cx="249.302" cy="249.305" r="15" transform="rotate(135 249.302 249.305)" fill="white" stroke="black"/>
<circle cx="249.304" cy="249.305" r="4" transform="rotate(135 249.304 249.305)" fill="white" stroke="black"/>
<rect x="245.27" y="248.805" width="1" height="10.6258" transform="rotate(90 245.27 248.805)" fill="black"/>
<circle cx="249.304" cy="69.6952" r="30" transform="rotate(179.205 249.304 69.6952)" fill="white" stroke="black"/>
<mask id="path-77-inside-29" fill="white">
<path d="M218.807 70.1184C218.709 63.0628 221.061 56.1915 225.461 50.6752C229.861 45.159 236.038 41.3392 242.939 39.8667C249.84 38.3942 257.038 39.36 263.307 42.5997C269.576 45.8394 274.527 51.1524 277.318 57.6335C280.108 64.1146 280.565 71.3628 278.611 78.143C276.656 84.9233 272.411 90.8161 266.599 94.8175C260.787 98.8188 253.767 100.681 246.736 100.087C239.705 99.4928 233.097 96.479 228.039 91.5592L249.304 69.6952L218.807 70.1184Z"/>
</mask>
<path d="M218.807 70.1184C218.709 63.0628 221.061 56.1915 225.461 50.6752C229.861 45.159 236.038 41.3392 242.939 39.8667C249.84 38.3942 257.038 39.36 263.307 42.5997C269.576 45.8394 274.527 51.1524 277.318 57.6335C280.108 64.1146 280.565 71.3628 278.611 78.143C276.656 84.9233 272.411 90.8161 266.599 94.8175C260.787 98.8188 253.767 100.681 246.736 100.087C239.705 99.4928 233.097 96.479 228.039 91.5592L249.304 69.6952L218.807 70.1184Z" fill="white" stroke="black" stroke-width="2" mask="url(#path-77-inside-29)"/>
<mask id="path-78-inside-30" fill="white">
<path d="M218.807 70.1184C218.723 64.0867 220.43 58.1656 223.711 53.1039C226.993 48.0421 231.702 44.0672 237.242 41.6816C242.783 39.296 248.906 38.6069 254.839 39.7016C260.771 40.7962 266.245 43.6254 270.569 47.8313C274.894 52.0372 277.874 57.4309 279.132 63.3304C280.391 69.23 279.872 75.3703 277.642 80.9749C275.411 86.5796 271.568 91.3968 266.599 94.8175C261.63 98.2381 255.759 100.109 249.727 100.192L249.304 69.6952L218.807 70.1184Z"/>
</mask>
<path d="M218.807 70.1184C218.723 64.0867 220.43 58.1656 223.711 53.1039C226.993 48.0421 231.702 44.0672 237.242 41.6816C242.783 39.296 248.906 38.6069 254.839 39.7016C260.771 40.7962 266.245 43.6254 270.569 47.8313C274.894 52.0372 277.874 57.4309 279.132 63.3304C280.391 69.23 279.872 75.3703 277.642 80.9749C275.411 86.5796 271.568 91.3968 266.599 94.8175C261.63 98.2381 255.759 100.109 249.727 100.192L249.304 69.6952L218.807 70.1184Z" fill="white" stroke="black" stroke-width="2" mask="url(#path-78-inside-30)"/>
<mask id="path-79-inside-31" fill="white">
<path d="M218.807 70.1184C218.733 64.7651 220.069 59.4865 222.681 54.8132C225.293 50.1399 229.09 46.2366 233.689 43.4956C238.288 40.7546 243.527 39.2724 248.881 39.1982C254.234 39.1239 259.513 40.46 264.186 43.0724C268.859 45.6847 272.763 49.4812 275.504 54.0802C278.245 58.6791 279.727 63.9186 279.801 69.272C279.875 74.6253 278.539 79.9039 275.927 84.5772C273.314 89.2505 269.518 93.1538 264.919 95.8948L249.304 69.6952L218.807 70.1184Z"/>
</mask>
<path d="M218.807 70.1184C218.733 64.7651 220.069 59.4865 222.681 54.8132C225.293 50.1399 229.09 46.2366 233.689 43.4956C238.288 40.7546 243.527 39.2724 248.881 39.1982C254.234 39.1239 259.513 40.46 264.186 43.0724C268.859 45.6847 272.763 49.4812 275.504 54.0802C278.245 58.6791 279.727 63.9186 279.801 69.272C279.875 74.6253 278.539 79.9039 275.927 84.5772C273.314 89.2505 269.518 93.1538 264.919 95.8948L249.304 69.6952L218.807 70.1184Z" fill="white" stroke="black" stroke-width="2" mask="url(#path-79-inside-31)"/>
<mask id="path-80-inside-32" fill="white">
<path d="M218.807 70.1184C218.733 64.7651 220.069 59.4865 222.681 54.8132C225.293 50.1399 229.09 46.2366 233.689 43.4956C238.288 40.7546 243.527 39.2724 248.881 39.1982C254.234 39.1239 259.513 40.46 264.186 43.0724L249.304 69.6952L218.807 70.1184Z"/>
</mask>
<path d="M218.807 70.1184C218.733 64.7651 220.069 59.4865 222.681 54.8132C225.293 50.1399 229.09 46.2366 233.689 43.4956C238.288 40.7546 243.527 39.2724 248.881 39.1982C254.234 39.1239 259.513 40.46 264.186 43.0724L249.304 69.6952L218.807 70.1184Z" fill="white" stroke="black" stroke-width="2" mask="url(#path-80-inside-32)"/>
<circle cx="249.304" cy="69.6953" r="27" transform="rotate(179.205 249.304 69.6953)" fill="white" stroke="black"/>
<circle cx="249.304" cy="69.6951" r="23" transform="rotate(179.205 249.304 69.6951)" fill="white" stroke="black"/>
<circle cx="249.303" cy="69.6941" r="15" transform="rotate(179.205 249.303 69.6941)" fill="white" stroke="black"/>
<circle cx="249.304" cy="69.6952" r="4" transform="rotate(179.205 249.304 69.6952)" fill="white" stroke="black"/>
<rect x="246.76" y="66.5239" width="1" height="10.6258" transform="rotate(134.205 246.76 66.5239)" fill="black"/>
<circle cx="159.5" cy="286.5" r="30" fill="#F86C4D" stroke="black"/>
<mask id="path-87-inside-33" fill="white">
<path d="M190 286.5C190 293.556 187.553 300.394 183.077 305.849C178.6 311.304 172.371 315.037 165.45 316.414C158.53 317.791 151.346 316.725 145.122 313.399C138.899 310.072 134.022 304.691 131.322 298.172C128.621 291.653 128.265 284.399 130.313 277.646C132.362 270.894 136.688 265.06 142.555 261.14C148.422 257.22 155.467 255.455 162.49 256.147C169.512 256.839 176.077 259.944 181.067 264.933L159.5 286.5H190Z"/>
</mask>
<path d="M190 286.5C190 293.556 187.553 300.394 183.077 305.849C178.6 311.304 172.371 315.037 165.45 316.414C158.53 317.791 151.346 316.725 145.122 313.399C138.899 310.072 134.022 304.691 131.322 298.172C128.621 291.653 128.265 284.399 130.313 277.646C132.362 270.894 136.688 265.06 142.555 261.14C148.422 257.22 155.467 255.455 162.49 256.147C169.512 256.839 176.077 259.944 181.067 264.933L159.5 286.5H190Z" fill="#F86C4D" stroke="black" stroke-width="2" mask="url(#path-87-inside-33)"/>
<mask id="path-88-inside-34" fill="white">
<path d="M190 286.5C190 292.532 188.211 298.429 184.86 303.445C181.508 308.461 176.745 312.37 171.172 314.678C165.599 316.987 159.466 317.591 153.55 316.414C147.633 315.237 142.199 312.332 137.933 308.067C133.668 303.801 130.763 298.367 129.586 292.45C128.409 286.534 129.013 280.401 131.322 274.828C133.63 269.255 137.539 264.492 142.555 261.14C147.571 257.789 153.468 256 159.5 256L159.5 286.5H190Z"/>
</mask>
<path d="M190 286.5C190 292.532 188.211 298.429 184.86 303.445C181.508 308.461 176.745 312.37 171.172 314.678C165.599 316.987 159.466 317.591 153.55 316.414C147.633 315.237 142.199 312.332 137.933 308.067C133.668 303.801 130.763 298.367 129.586 292.45C128.409 286.534 129.013 280.401 131.322 274.828C133.63 269.255 137.539 264.492 142.555 261.14C147.571 257.789 153.468 256 159.5 256L159.5 286.5H190Z" fill="#F86C4D" stroke="black" stroke-width="2" mask="url(#path-88-inside-34)"/>
<mask id="path-89-inside-35" fill="white">
<path d="M190 286.5C190 291.854 188.591 297.113 185.914 301.75C183.237 306.387 179.387 310.237 174.75 312.914C170.113 315.591 164.854 317 159.5 317C154.146 317 148.887 315.591 144.25 312.914C139.613 310.237 135.763 306.387 133.086 301.75C130.409 297.113 129 291.854 129 286.5C129 281.146 130.409 275.887 133.086 271.25C135.763 266.613 139.613 262.763 144.25 260.086L159.5 286.5H190Z"/>
</mask>
<path d="M190 286.5C190 291.854 188.591 297.113 185.914 301.75C183.237 306.387 179.387 310.237 174.75 312.914C170.113 315.591 164.854 317 159.5 317C154.146 317 148.887 315.591 144.25 312.914C139.613 310.237 135.763 306.387 133.086 301.75C130.409 297.113 129 291.854 129 286.5C129 281.146 130.409 275.887 133.086 271.25C135.763 266.613 139.613 262.763 144.25 260.086L159.5 286.5H190Z" fill="#F86C4D" stroke="black" stroke-width="2" mask="url(#path-89-inside-35)"/>
<mask id="path-90-inside-36" fill="white">
<path d="M190 286.5C190 291.854 188.591 297.113 185.914 301.75C183.237 306.387 179.387 310.237 174.75 312.914C170.113 315.591 164.854 317 159.5 317C154.146 317 148.887 315.591 144.25 312.914L159.5 286.5H190Z"/>
</mask>
<path d="M190 286.5C190 291.854 188.591 297.113 185.914 301.75C183.237 306.387 179.387 310.237 174.75 312.914C170.113 315.591 164.854 317 159.5 317C154.146 317 148.887 315.591 144.25 312.914L159.5 286.5H190Z" fill="#F86C4D" stroke="black" stroke-width="2" mask="url(#path-90-inside-36)"/>
<circle cx="159.5" cy="286.5" r="27" fill="#F86C4D" stroke="black"/>
<circle cx="159.5" cy="286.5" r="23" fill="#F86C4D" stroke="black"/>
<circle cx="159.5" cy="286.5" r="15" fill="#F86C4D" stroke="black"/>
<circle cx="159.5" cy="286.5" r="4" fill="white" stroke="black"/>
<rect x="159" y="272" width="1" height="10.6258" fill="black"/>
<path d="M187.634 291.854L187.4 291.247C186.907 289.965 185.093 289.965 184.6 291.247L184.366 291.854C184.219 292.238 183.697 292.29 183.477 291.942L183.129 291.392C182.396 290.231 180.617 290.584 180.383 291.938L180.272 292.579C180.202 292.985 179.701 293.137 179.417 292.839L178.969 292.367C178.023 291.371 176.347 292.065 176.382 293.438L176.399 294.089C176.409 294.5 175.946 294.748 175.61 294.51L175.079 294.135C173.956 293.343 172.448 294.351 172.751 295.691L172.894 296.326C172.984 296.727 172.579 297.06 172.203 296.893L171.608 296.628C170.353 296.07 169.07 297.353 169.628 298.608L169.893 299.203C170.06 299.579 169.727 299.984 169.326 299.894L168.691 299.751C167.351 299.448 166.343 300.956 167.135 302.079L167.51 302.61C167.748 302.946 167.5 303.409 167.089 303.399L166.438 303.382C165.065 303.347 164.371 305.023 165.367 305.969L165.839 306.417C166.137 306.701 165.985 307.202 165.579 307.272L164.938 307.383C163.584 307.617 163.231 309.396 164.392 310.129L164.942 310.477C165.29 310.697 165.238 311.219 164.854 311.366L164.247 311.6C162.965 312.093 162.965 313.907 164.247 314.4L164.854 314.634C165.238 314.781 165.29 315.303 164.942 315.523L164.392 315.871C163.231 316.604 163.584 318.383 164.938 318.617L165.579 318.728C165.985 318.798 166.137 319.299 165.839 319.583L165.367 320.031C164.371 320.977 165.065 322.653 166.438 322.618L167.089 322.601C167.5 322.591 167.748 323.054 167.51 323.39L167.135 323.921C166.343 325.044 167.351 326.552 168.691 326.249L169.326 326.106C169.727 326.016 170.06 326.421 169.893 326.797L169.628 327.392C169.07 328.647 170.353 329.93 171.608 329.372L172.203 329.107C172.579 328.94 172.984 329.273 172.894 329.674L172.751 330.309C172.448 331.649 173.956 332.657 175.079 331.865L175.61 331.49C175.946 331.252 176.409 331.5 176.399 331.911L176.382 332.562C176.347 333.935 178.023 334.629 178.969 333.633L179.417 333.161C179.701 332.863 180.202 333.015 180.272 333.421L180.383 334.062C180.617 335.416 182.396 335.769 183.129 334.608L183.477 334.058C183.697 333.71 184.219 333.762 184.366 334.146L184.6 334.753C185.093 336.035 186.907 336.035 187.4 334.753L187.634 334.146C187.781 333.762 188.303 333.71 188.523 334.058L188.871 334.608C189.604 335.769 191.383 335.416 191.617 334.062L191.728 333.421C191.798 333.015 192.299 332.863 192.583 333.161L193.031 333.633C193.977 334.629 195.653 333.935 195.618 332.562L195.601 331.911C195.591 331.5 196.054 331.252 196.39 331.49L196.921 331.865C198.044 332.657 199.552 331.649 199.249 330.309L199.106 329.674C199.016 329.273 199.421 328.94 199.797 329.107L200.392 329.372C201.647 329.93 202.93 328.647 202.372 327.392L202.107 326.797C201.94 326.421 202.273 326.016 202.674 326.106L203.309 326.249C204.649 326.552 205.657 325.044 204.865 323.921L204.49 323.39C204.252 323.054 204.5 322.591 204.911 322.601L205.562 322.618C206.935 322.653 207.629 320.977 206.633 320.031L206.161 319.583C205.863 319.299 206.015 318.798 206.421 318.728L207.062 318.617C208.416 318.383 208.769 316.604 207.608 315.871L207.058 315.523C206.71 315.303 206.762 314.781 207.146 314.634L207.753 314.4C209.035 313.907 209.035 312.093 207.753 311.6L207.146 311.366C206.762 311.219 206.71 310.697 207.058 310.477L207.608 310.129C208.769 309.396 208.416 307.617 207.062 307.383L206.421 307.272C206.015 307.202 205.863 306.701 206.161 306.417L206.633 305.969C207.629 305.023 206.935 303.347 205.562 303.382L204.911 303.399C204.5 303.409 204.252 302.946 204.49 302.61L204.865 302.079C205.657 300.956 204.649 299.448 203.309 299.751L202.674 299.894C202.273 299.984 201.94 299.579 202.107 299.203L202.372 298.608C202.93 297.353 201.647 296.07 200.392 296.628L199.797 296.893C199.421 297.06 199.016 296.727 199.106 296.326L199.249 295.691C199.552 294.351 198.044 293.343 196.921 294.135L196.39 294.51C196.054 294.748 195.591 294.5 195.601 294.089L195.618 293.438C195.653 292.065 193.977 291.371 193.031 292.367L192.583 292.839C192.299 293.137 191.798 292.985 191.728 292.579L191.617 291.938C191.383 290.584 189.604 290.231 188.871 291.392L188.523 291.942C188.303 292.29 187.781 292.238 187.634 291.854Z" fill="#F86C4D" stroke="black"/>
<path d="M172.673 303.727L175.312 308.145V311H176.406V308.145L179.044 303.727H177.798L175.898 307.033H175.82L173.92 303.727H172.673ZM181.404 311.11C182.942 311.11 183.947 309.984 183.947 308.298C183.947 306.6 182.942 305.474 181.404 305.474C179.866 305.474 178.861 306.6 178.861 308.298C178.861 309.984 179.866 311.11 181.404 311.11ZM181.407 310.219C180.403 310.219 179.934 309.342 179.934 308.294C179.934 307.25 180.403 306.362 181.407 306.362C182.405 306.362 182.874 307.25 182.874 308.294C182.874 309.342 182.405 310.219 181.407 310.219ZM188.587 308.738C188.591 309.665 187.902 310.105 187.305 310.105C186.648 310.105 186.194 309.629 186.194 308.887V305.545H185.132V309.015C185.132 310.368 185.874 311.071 186.922 311.071C187.742 311.071 188.299 310.638 188.551 310.055H188.608V311H189.652V305.545H188.587V308.738ZM191.079 311H192.141V307.669C192.141 306.955 192.691 306.44 193.444 306.44C193.664 306.44 193.913 306.479 193.998 306.504V305.489C193.892 305.474 193.682 305.464 193.547 305.464C192.908 305.464 192.361 305.826 192.162 306.412H192.105V305.545H191.079V311ZM199.004 306.877C198.784 306.028 198.12 305.474 196.941 305.474C195.709 305.474 194.835 306.124 194.835 307.09C194.835 307.864 195.304 308.379 196.327 308.607L197.25 308.809C197.776 308.926 198.021 309.161 198.021 309.501C198.021 309.924 197.57 310.254 196.874 310.254C196.238 310.254 195.83 309.981 195.702 309.445L194.675 309.601C194.853 310.567 195.656 311.11 196.881 311.11C198.198 311.11 199.111 310.411 199.111 309.423C199.111 308.653 198.621 308.177 197.619 307.946L196.753 307.747C196.153 307.605 195.893 307.403 195.897 307.033C195.893 306.614 196.348 306.316 196.952 306.316C197.612 306.316 197.918 306.682 198.042 307.048L199.004 306.877ZM173.484 323H174.581V319.829H177.67V318.888H174.581V316.672H177.994V315.727H173.484V323ZM181.155 323.11C182.693 323.11 183.698 321.984 183.698 320.298C183.698 318.6 182.693 317.474 181.155 317.474C179.617 317.474 178.612 318.6 178.612 320.298C178.612 321.984 179.617 323.11 181.155 323.11ZM181.158 322.219C180.153 322.219 179.685 321.342 179.685 320.294C179.685 319.25 180.153 318.362 181.158 318.362C182.156 318.362 182.625 319.25 182.625 320.294C182.625 321.342 182.156 322.219 181.158 322.219ZM184.883 323H185.945V319.669C185.945 318.955 186.495 318.44 187.248 318.44C187.468 318.44 187.717 318.479 187.802 318.504V317.489C187.695 317.474 187.486 317.464 187.351 317.464C186.712 317.464 186.165 317.826 185.966 318.412H185.909V317.545H184.883V323ZM190.876 323.11C192.066 323.11 192.907 322.524 193.149 321.636L192.144 321.455C191.952 321.97 191.491 322.233 190.887 322.233C189.978 322.233 189.367 321.643 189.339 320.592H193.216V320.216C193.216 318.245 192.037 317.474 190.802 317.474C189.282 317.474 188.28 318.632 188.28 320.308C188.28 322.002 189.267 323.11 190.876 323.11ZM189.342 319.797C189.385 319.023 189.946 318.352 190.809 318.352C191.633 318.352 192.172 318.962 192.176 319.797H189.342ZM199.031 317.545H197.891L196.514 321.743H196.457L195.075 317.545H193.935L195.917 323H197.053L199.031 317.545Z" fill="black"/>
<path d="M97.6337 74.8544L97.4 74.2469C96.9069 72.9649 95.0931 72.9649 94.6 74.2469L94.3663 74.8544C94.2187 75.2382 93.6967 75.2896 93.477 74.942L93.1293 74.3917C92.3955 73.2306 90.6166 73.5844 90.3831 74.938L90.2724 75.5794C90.2025 75.9846 89.7005 76.1369 89.4172 75.8388L88.9689 75.367C88.0227 74.3713 86.347 75.0654 86.382 76.4385L86.3986 77.0892C86.4091 77.5003 85.9465 77.7475 85.6105 77.5104L85.0787 77.1351C83.9564 76.3432 82.4483 77.3509 82.7506 78.6907L82.8938 79.3257C82.9842 79.7268 82.5788 80.0596 82.203 79.8926L81.6082 79.6283C80.353 79.0705 79.0705 80.353 79.6283 81.6082L79.8926 82.203C80.0596 82.5788 79.7268 82.9842 79.3257 82.8938L78.6907 82.7506C77.3509 82.4483 76.3432 83.9564 77.1351 85.0787L77.5104 85.6105C77.7475 85.9465 77.5003 86.4091 77.0892 86.3986L76.4385 86.382C75.0654 86.347 74.3713 88.0227 75.367 88.9689L75.8388 89.4172C76.1369 89.7005 75.9846 90.2025 75.5794 90.2724L74.938 90.3831C73.5844 90.6166 73.2306 92.3955 74.3917 93.1293L74.942 93.477C75.2896 93.6967 75.2382 94.2187 74.8544 94.3663L74.2469 94.6C72.9649 95.0931 72.9649 96.9069 74.2469 97.4L74.8544 97.6337C75.2382 97.7813 75.2896 98.3033 74.942 98.523L74.3917 98.8707C73.2306 99.6045 73.5844 101.383 74.938 101.617L75.5794 101.728C75.9846 101.798 76.1369 102.299 75.8388 102.583L75.367 103.031C74.3713 103.977 75.0654 105.653 76.4385 105.618L77.0892 105.601C77.5003 105.591 77.7475 106.054 77.5104 106.39L77.1351 106.921C76.3432 108.044 77.3509 109.552 78.6907 109.249L79.3257 109.106C79.7268 109.016 80.0596 109.421 79.8926 109.797L79.6283 110.392C79.0705 111.647 80.353 112.93 81.6082 112.372L82.203 112.107C82.5788 111.94 82.9842 112.273 82.8938 112.674L82.7506 113.309C82.4483 114.649 83.9564 115.657 85.0787 114.865L85.6105 114.49C85.9465 114.252 86.4091 114.5 86.3986 114.911L86.382 115.562C86.347 116.935 88.0227 117.629 88.9689 116.633L89.4172 116.161C89.7005 115.863 90.2025 116.015 90.2724 116.421L90.3831 117.062C90.6166 118.416 92.3955 118.769 93.1293 117.608L93.477 117.058C93.6967 116.71 94.2187 116.762 94.3663 117.146L94.6 117.753C95.0931 119.035 96.9069 119.035 97.4 117.753L97.6337 117.146C97.7813 116.762 98.3033 116.71 98.523 117.058L98.8707 117.608C99.6045 118.769 101.383 118.416 101.617 117.062L101.728 116.421C101.798 116.015 102.299 115.863 102.583 116.161L103.031 116.633C103.977 117.629 105.653 116.935 105.618 115.562L105.601 114.911C105.591 114.5 106.054 114.252 106.39 114.49L106.921 114.865C108.044 115.657 109.552 114.649 109.249 113.309L109.106 112.674C109.016 112.273 109.421 111.94 109.797 112.107L110.392 112.372C111.647 112.93 112.93 111.647 112.372 110.392L112.107 109.797C111.94 109.421 112.273 109.016 112.674 109.106L113.309 109.249C114.649 109.552 115.657 108.044 114.865 106.921L114.49 106.39C114.252 106.054 114.5 105.591 114.911 105.601L115.562 105.618C116.935 105.653 117.629 103.977 116.633 103.031L116.161 102.583C115.863 102.299 116.015 101.798 116.421 101.728L117.062 101.617C118.416 101.383 118.769 99.6045 117.608 98.8707L117.058 98.523C116.71 98.3033 116.762 97.7813 117.146 97.6337L117.753 97.4C119.035 96.9069 119.035 95.0931 117.753 94.6L117.146 94.3663C116.762 94.2187 116.71 93.6967 117.058 93.477L117.608 93.1293C118.769 92.3955 118.416 90.6166 117.062 90.3831L116.421 90.2724C116.015 90.2025 115.863 89.7005 116.161 89.4172L116.633 88.9689C117.629 88.0227 116.935 86.347 115.562 86.382L114.911 86.3986C114.5 86.4091 114.252 85.9465 114.49 85.6105L114.865 85.0787C115.657 83.9564 114.649 82.4483 113.309 82.7506L112.674 82.8938C112.273 82.9842 111.94 82.5788 112.107 82.203L112.372 81.6082C112.93 80.353 111.647 79.0705 110.392 79.6283L109.797 79.8926C109.421 80.0596 109.016 79.7268 109.106 79.3257L109.249 78.6907C109.552 77.3509 108.044 76.3432 106.921 77.1351L106.39 77.5104C106.054 77.7475 105.591 77.5003 105.601 77.0892L105.618 76.4385C105.653 75.0654 103.977 74.3713 103.031 75.367L102.583 75.8388C102.299 76.1369 101.798 75.9846 101.728 75.5794L101.617 74.938C101.383 73.5844 99.6045 73.2306 98.8707 74.3917L98.523 74.942C98.3033 75.2896 97.7813 75.2382 97.6337 74.8544Z" fill="#E6E6E6" stroke="black"/>
<path d="M81.8964 87.6719H84.162V94H85.2558V87.6719H87.5249V86.7273H81.8964V87.6719ZM89.7453 90.7614C89.7453 89.8913 90.2957 89.3942 91.0521 89.3942C91.7836 89.3942 92.2204 89.8594 92.2204 90.6584V94H93.2822V90.5305C93.2822 89.1705 92.5365 88.4744 91.4143 88.4744C90.5656 88.4744 90.0542 88.8438 89.7986 89.4332H89.7311V86.7273H88.6835V94H89.7453V90.7614ZM97.05 94.1101C98.2396 94.1101 99.0812 93.5241 99.3227 92.6364L98.3177 92.4553C98.126 92.9702 97.6643 93.233 97.0606 93.233C96.1515 93.233 95.5407 92.6435 95.5123 91.5923H99.3902V91.2159C99.3902 89.245 98.2112 88.4744 96.9754 88.4744C95.4555 88.4744 94.4541 89.6321 94.4541 91.3082C94.4541 93.0021 95.4413 94.1101 97.05 94.1101ZM95.5159 90.7969C95.5585 90.0227 96.1196 89.3516 96.9825 89.3516C97.8064 89.3516 98.3461 89.9624 98.3497 90.7969H95.5159ZM100.568 94H101.63V88.5455H100.568V94ZM101.104 87.7038C101.47 87.7038 101.776 87.4197 101.776 87.0717C101.776 86.7237 101.47 86.4361 101.104 86.4361C100.735 86.4361 100.433 86.7237 100.433 87.0717C100.433 87.4197 100.735 87.7038 101.104 87.7038ZM103.059 94H104.12V90.669C104.12 89.9553 104.671 89.4403 105.424 89.4403C105.644 89.4403 105.892 89.4794 105.978 89.5043V88.4886C105.871 88.4744 105.661 88.4638 105.527 88.4638C104.887 88.4638 104.34 88.826 104.142 89.4119H104.085V88.5455H103.059V94ZM110.984 89.8771C110.764 89.0284 110.1 88.4744 108.921 88.4744C107.688 88.4744 106.815 89.1243 106.815 90.0902C106.815 90.8643 107.283 91.3793 108.306 91.6065L109.229 91.8089C109.755 91.9261 110 92.1605 110 92.5014C110 92.924 109.549 93.2543 108.853 93.2543C108.217 93.2543 107.809 92.9808 107.681 92.4446L106.655 92.6009C106.832 93.5668 107.635 94.1101 108.86 94.1101C110.178 94.1101 111.09 93.4105 111.09 92.4233C111.09 91.6527 110.6 91.1768 109.599 90.946L108.732 90.7472C108.132 90.6051 107.873 90.4027 107.877 90.0334C107.873 89.6143 108.328 89.3161 108.931 89.3161C109.592 89.3161 109.897 89.6818 110.021 90.0476L110.984 89.8771ZM83.9836 106H85.0809V102.829H88.1704V101.888H85.0809V99.6719H88.4935V98.7273H83.9836V106ZM91.6549 106.11C93.1926 106.11 94.1975 104.984 94.1975 103.298C94.1975 101.6 93.1926 100.474 91.6549 100.474C90.1173 100.474 89.1123 101.6 89.1123 103.298C89.1123 104.984 90.1173 106.11 91.6549 106.11ZM91.6585 105.219C90.6535 105.219 90.1847 104.342 90.1847 103.294C90.1847 102.25 90.6535 101.362 91.6585 101.362C92.6563 101.362 93.1251 102.25 93.1251 103.294C93.1251 104.342 92.6563 105.219 91.6585 105.219ZM95.3827 106H96.4445V102.669C96.4445 101.955 96.9949 101.44 97.7478 101.44C97.968 101.44 98.2165 101.479 98.3018 101.504V100.489C98.1952 100.474 97.9857 100.464 97.8508 100.464C97.2116 100.464 96.6647 100.826 96.4658 101.412H96.409V100.545H95.3827V106ZM101.376 106.11C102.566 106.11 103.407 105.524 103.649 104.636L102.644 104.455C102.452 104.97 101.991 105.233 101.387 105.233C100.478 105.233 99.8669 104.643 99.8385 103.592H103.716V103.216C103.716 101.245 102.537 100.474 101.302 100.474C99.7817 100.474 98.7803 101.632 98.7803 103.308C98.7803 105.002 99.7675 106.11 101.376 106.11ZM99.8421 102.797C99.8847 102.023 100.446 101.352 101.309 101.352C102.133 101.352 102.672 101.962 102.676 102.797H99.8421ZM109.531 100.545H108.391L107.014 104.743H106.957L105.575 100.545H104.435L106.417 106H107.553L109.531 100.545Z" fill="black"/>
</svg>
