<svg width="898" height="272" viewBox="0 0 898 272" fill="none" xmlns="http://www.w3.org/2000/svg">
  <path d="M214.409 271.24C209.939 271.24 207.929 266.32 207.929 260.5C207.929 254.65 209.939 249.76 214.409 249.76C218.879 249.76 220.889 254.65 220.889 260.5C220.889 266.32 218.879 271.24 214.409 271.24ZM214.409 269.74C217.889 269.74 219.389 265.45 219.389 260.5C219.389 255.52 217.889 251.26 214.409 251.26C210.929 251.26 209.429 255.52 209.429 260.5C209.429 265.45 210.929 269.74 214.409 269.74ZM230.278 271.21C227.998 271.21 225.718 270.16 224.338 268.42C224.188 268.21 224.128 268.03 224.128 267.82C224.128 267.43 224.458 267.1 224.848 267.1C225.118 267.1 225.358 267.25 225.538 267.49C226.648 268.87 228.358 269.71 230.278 269.71C232.858 269.71 234.928 268.18 234.928 265.39C234.928 263.59 233.998 262.27 231.388 261.43L228.658 260.44C225.478 259.39 224.608 257.14 224.608 254.98C224.608 252.13 226.678 249.76 230.128 249.76C232.258 249.76 234.088 250.81 235.528 252.46C235.678 252.64 235.798 252.82 235.798 253.06C235.798 253.48 235.408 253.78 235.048 253.78C234.748 253.78 234.538 253.63 234.328 253.39C233.158 252.04 231.838 251.26 230.128 251.26C227.488 251.26 226.108 252.97 226.108 254.98C226.108 256.6 226.678 258.22 229.228 259.06L231.958 260.02C235.138 261.07 236.428 263.02 236.428 265.39C236.428 269.2 233.518 271.21 230.278 271.21Z" fill="#F5F5F5"/>
  <path d="M222.388 144.187C242.159 144.187 258.188 128.159 258.188 108.387C258.188 88.6156 242.159 72.5874 222.388 72.5874C202.616 72.5874 186.588 88.6156 186.588 108.387C186.588 128.159 202.616 144.187 222.388 144.187Z" stroke="#F5F5F5" stroke-width="1.25" stroke-miterlimit="10"/>
  <path d="M222.387 215.775C281.696 215.775 329.775 167.696 329.775 108.387C329.775 49.079 281.696 1 222.387 1C163.079 1 115 49.079 115 108.387C115 167.696 163.079 215.775 222.387 215.775Z" stroke="#F5F5F5" stroke-width="1.25" stroke-miterlimit="10"/>
  <path d="M222.388 197.875C271.81 197.875 311.875 157.81 311.875 108.387C311.875 58.9648 271.81 18.8999 222.388 18.8999C172.965 18.8999 132.9 58.9648 132.9 108.387C132.9 157.81 172.965 197.875 222.388 197.875Z" stroke="#F5F5F5" stroke-width="1.25" stroke-miterlimit="10"/>
  <path d="M222.387 206.825C276.753 206.825 320.825 162.753 320.825 108.387C320.825 54.0219 276.753 9.94995 222.387 9.94995C168.022 9.94995 123.95 54.0219 123.95 108.387C123.95 162.753 168.022 206.825 222.387 206.825Z" stroke="#F5F5F5" stroke-width="1.25" stroke-miterlimit="10"/>
  <path d="M222.387 108.387H258.187" stroke="#F5F5F5" stroke-width="1.25" stroke-miterlimit="10"/>
  <path d="M222.387 9.95V1" stroke="#F5F5F5" stroke-width="1.25" stroke-miterlimit="10"/>
  <path d="M181.288 207.587L184.713 199.325" stroke="#F5F5F5" stroke-width="1.25" stroke-miterlimit="10"/>
  <path d="M152.787 38.7875L146.45 32.45" stroke="#F5F5F5" stroke-width="1.25" stroke-miterlimit="10"/>
  <path d="M291.988 38.7875L298.325 32.45" stroke="#F5F5F5" stroke-width="1.25" stroke-miterlimit="10"/>
  <path d="M222.387 117.337C227.33 117.337 231.337 113.33 231.337 108.387C231.337 103.445 227.33 99.4375 222.387 99.4375C217.445 99.4375 213.438 103.445 213.438 108.387C213.438 113.33 217.445 117.337 222.387 117.337Z" fill="#F5F5F5"/>
  <path d="M668.186 271C667.736 271 667.436 270.7 667.436 270.25V250.75C667.436 250.3 667.736 250 668.186 250C668.636 250 668.936 250.3 668.936 250.75V270.25C668.936 270.7 668.636 271 668.186 271ZM674.375 271C673.955 271 673.625 270.67 673.625 270.25V250.75C673.625 250.3 673.955 250 674.375 250H677.975C683.285 250 686.165 254.32 686.165 260.5C686.165 266.65 683.285 271 677.975 271H674.375ZM675.125 269.5H677.975C682.445 269.5 684.665 265.75 684.665 260.5C684.665 255.22 682.445 251.5 677.975 251.5H675.125V269.5Z" fill="#F5F5F5"/>
  <path d="M676.387 54.7V1H783.775V54.6875C783.775 84.3375 759.737 108.375 730.087 108.375C700.437 108.375 676.4 84.3375 676.4 54.6875L676.387 54.7Z" stroke="#F5F5F5" stroke-width="1.25" stroke-miterlimit="10"/>
  <path d="M757.35 1V100.95" stroke="#F5F5F5" stroke-width="1.25" stroke-miterlimit="10"/>
  <path d="M676.387 54.7C706.037 54.7 730.075 30.6625 730.075 1.01245" stroke="#F5F5F5" stroke-width="1.25" stroke-miterlimit="10"/>
  <path d="M676.387 162.075V215.763H569V162.075C569 132.425 593.038 108.388 622.688 108.388C652.338 108.388 676.375 132.425 676.375 162.075H676.387Z" stroke="#F5F5F5" stroke-width="1.25" stroke-miterlimit="10"/>
  <path d="M622.7 108.388V215.775" stroke="#F5F5F5" stroke-width="1.25" stroke-miterlimit="10"/>
  <path d="M595.85 115.575V215.775" stroke="#F5F5F5" stroke-width="1.25" stroke-miterlimit="10"/>
  <path d="M676.387 215.775C735.7 215.775 783.775 167.7 783.775 108.388H676.387V215.775Z" stroke="#F5F5F5" stroke-width="1.25" stroke-miterlimit="10"/>
  <path d="M676.387 162.075C706.037 162.075 730.075 138.038 730.075 108.388" stroke="#F5F5F5" stroke-width="1.25" stroke-miterlimit="10"/>
  <path d="M622.7 68.1249C630.115 68.1249 636.125 62.1143 636.125 54.6999C636.125 47.2855 630.115 41.2749 622.7 41.2749C615.286 41.2749 609.275 47.2855 609.275 54.6999C609.275 62.1143 615.286 68.1249 622.7 68.1249Z" stroke="#F5F5F5" stroke-width="1.25" stroke-miterlimit="10"/>
  <path d="M622.7 108.388C652.351 108.388 676.387 84.351 676.387 54.7002C676.387 25.0494 652.351 1.0127 622.7 1.0127C593.049 1.0127 569.012 25.0494 569.012 54.7002C569.012 84.351 593.049 108.388 622.7 108.388Z" stroke="#F5F5F5" stroke-width="1.25" stroke-miterlimit="10"/>
  <path d="M584.725 16.7251L660.663 92.6626" stroke="#F5F5F5" stroke-width="1.25" stroke-miterlimit="10"/>
  <path d="M598.1 37.65C602.27 37.65 605.65 34.2698 605.65 30.1C605.65 25.9303 602.27 22.55 598.1 22.55C593.93 22.55 590.55 25.9303 590.55 30.1C590.55 34.2698 593.93 37.65 598.1 37.65Z" fill="#F5F5F5"/>
  </svg>
  