<svg id="Layer_1" data-name="Layer 1" xmlns="http://www.w3.org/2000/svg" viewBox="0 0 600 1368">
  <title>3-faces</title>
  <g>
    <g>
      <path d="M92.8,380.6a137.7,137.7,0,0,0-38.7,58.2" fill="none" stroke="#1b1464" stroke-miterlimit="10" stroke-width="16.53"/>
      <path d="M54.1,438.8a153.6,153.6,0,0,0-4.4,16.1,134.4,134.4,0,0,0,0,53.6h0" fill="none" stroke="#736357" stroke-miterlimit="10" stroke-width="16.53"/>
      <path d="M271.2,583.4a136.8,136.8,0,0,0,23.1-26.6,133.5,133.5,0,0,0,20-101.3" fill="none" stroke="#58c0f4" stroke-miterlimit="10" stroke-width="16.53"/>
      <path d="M138.8,609.9a153.6,153.6,0,0,0,16.1,4.4A136.3,136.3,0,0,0,258,593.6a165.4,165.4,0,0,0,13.2-10.2" fill="none" stroke="#58c0f4" stroke-miterlimit="10" stroke-width="16.53"/>
      <path d="M49.7,508.5a133.8,133.8,0,0,0,57.5,85.8,136.7,136.7,0,0,0,31.6,15.6" fill="none" stroke="#3fa9f5" stroke-miterlimit="10" stroke-width="16.53"/>
      <g>
        <path d="M314.3,455.5a133.8,133.8,0,0,0-57.5-85.8,136.7,136.7,0,0,0-31.6-15.6" fill="none" stroke="#2e3192" stroke-miterlimit="10" stroke-width="16.53"/>
        <path d="M225.2,354.1a153.6,153.6,0,0,0-16.1-4.4A136.3,136.3,0,0,0,106,370.4a165.4,165.4,0,0,0-13.2,10.2" fill="none" stroke="#f0f" stroke-miterlimit="10" stroke-width="16.53"/>
      </g>
    </g>
    <g>
      <path d="M119.4,466h0a4,4,0,0,1,4-4h27.3a30,30,0,1,0,0,8H123.4A4,4,0,0,1,119.4,466Z" fill="#8bcb93"/>
      <path d="M150.7,462H123.4a4,4,0,0,0-4,4h0a4,4,0,0,0,4,4h27.3a26.8,26.8,0,0,0,0-8Z" fill="#d8eedb"/>
      <circle cx="123.4" cy="466" r="4" fill="#fff"/>
    </g>
    <g>
      <path d="M238.4,466h0a4,4,0,0,1,4-4h27.3a30,30,0,1,0,0,8H242.4A4,4,0,0,1,238.4,466Z" fill="#8bcb93"/>
      <path d="M269.7,462H242.4a4,4,0,0,0-4,4h0a4,4,0,0,0,4,4h27.3a26.8,26.8,0,0,0,0-8Z" fill="#d8eedb"/>
      <circle cx="242.4" cy="466" r="4" fill="#fff"/>
    </g>
    <path d="M262.9,524.4a150.1,150.1,0,0,1-145.1,38.9" fill="none" stroke="#c2e4c6" stroke-miterlimit="10" stroke-width="16"/>
  </g>
  <g>
    <g>
      <path d="M483.2,718.6a137.7,137.7,0,0,1,38.7,58.2" fill="none" stroke="#1b1464" stroke-miterlimit="10" stroke-width="16.53"/>
      <path d="M521.9,776.8a153.6,153.6,0,0,1,4.4,16.1,134.4,134.4,0,0,1,0,53.6h0" fill="none" stroke="#736357" stroke-miterlimit="10" stroke-width="16.53"/>
      <path d="M304.8,921.4a136.8,136.8,0,0,1-23.1-26.6,133.5,133.5,0,0,1-20-101.3" fill="none" stroke="#58c0f4" stroke-miterlimit="10" stroke-width="16.53"/>
      <path d="M437.2,947.9a153.6,153.6,0,0,1-16.1,4.4A136.3,136.3,0,0,1,318,931.6a165.4,165.4,0,0,1-13.2-10.2" fill="none" stroke="#58c0f4" stroke-miterlimit="10" stroke-width="16.53"/>
      <path d="M526.3,846.5a133.8,133.8,0,0,1-57.5,85.8,136.7,136.7,0,0,1-31.6,15.6" fill="none" stroke="#3fa9f5" stroke-miterlimit="10" stroke-width="16.53"/>
      <g>
        <path d="M261.7,793.5a133.8,133.8,0,0,1,57.5-85.8,136.7,136.7,0,0,1,31.6-15.6" fill="none" stroke="#2e3192" stroke-miterlimit="10" stroke-width="16.53"/>
        <path d="M350.8,692.1a153.6,153.6,0,0,1,16.1-4.4A136.3,136.3,0,0,1,470,708.4a165.4,165.4,0,0,1,13.2,10.2" fill="none" stroke="#f0f" stroke-miterlimit="10" stroke-width="16.53"/>
      </g>
    </g>
    <path d="M407.9,789.2a11,11,0,1,1-11,10.9,10.9,10.9,0,0,1,11-10.9m0-11a21.9,21.9,0,1,0,21.9,21.9,21.9,21.9,0,0,0-21.9-21.9Z" fill="#c2e4c6"/>
    <path d="M480.9,789.2a11,11,0,1,1-11,10.9,10.9,10.9,0,0,1,11-10.9m0-11a21.9,21.9,0,1,0,21.9,21.9,21.9,21.9,0,0,0-21.9-21.9Z" fill="#c2e4c6"/>
    <g>
      <path d="M482.5,868H414.3a10,10,0,0,0-10,10h0a10,10,0,0,0,10,10h68.2a71.8,71.8,0,0,0,0-20Z" fill="#c2e4c6"/>
      <circle cx="414" cy="878" r="10" fill="#556055"/>
    </g>
  </g>
  <g>
    <path d="M435.9,203.5a26.6,26.6,0,1,1-26.6,26.6,26.7,26.7,0,0,1,26.6-26.6m0-18.5A45.1,45.1,0,1,0,481,230.1,45.1,45.1,0,0,0,435.9,185Z" fill="#c2e4c6"/>
    <g>
      <path d="M360.8,102l3.2,68.2a10,10,0,0,0,10.5,9.5h0a10,10,0,0,0,9.5-10.4l-3.2-68.2a66.5,66.5,0,0,0-10-.2A82.7,82.7,0,0,0,360.8,102Z" fill="#d8eedb"/>
      <circle cx="374" cy="170" r="10" fill="#7acc82"/>
    </g>
    <g>
      <path d="M475.8,94l3.2,68.2a10,10,0,0,0,10.5,9.5h0a10,10,0,0,0,9.5-10.4l-3.2-68.2a66.5,66.5,0,0,0-10-.2A82.7,82.7,0,0,0,475.8,94Z" fill="#d8eedb"/>
      <circle cx="489" cy="162" r="10" fill="#7acc82"/>
    </g>
    <g>
      <path d="M330.6,72.8a137.7,137.7,0,0,1,58.2-38.7" fill="none" stroke="#1b1464" stroke-miterlimit="10" stroke-width="16.53"/>
      <path d="M388.8,34.1a153.6,153.6,0,0,1,16.1-4.4,134.4,134.4,0,0,1,53.6,0h0" fill="none" stroke="#736357" stroke-miterlimit="10" stroke-width="16.53"/>
      <path d="M533.4,251.2a136.8,136.8,0,0,1-26.6,23.1,133.5,133.5,0,0,1-101.3,20" fill="none" stroke="#58c0f4" stroke-miterlimit="10" stroke-width="16.53"/>
      <path d="M559.9,118.8a153.6,153.6,0,0,1,4.4,16.1A136.3,136.3,0,0,1,543.6,238a165.4,165.4,0,0,1-10.2,13.2" fill="none" stroke="#58c0f4" stroke-miterlimit="10" stroke-width="16.53"/>
      <path d="M458.5,29.7a133.8,133.8,0,0,1,85.8,57.5,136.7,136.7,0,0,1,15.6,31.6" fill="none" stroke="#3fa9f5" stroke-miterlimit="10" stroke-width="16.53"/>
      <g>
        <path d="M405.5,294.3a133.8,133.8,0,0,1-85.8-57.5,136.7,136.7,0,0,1-15.6-31.6" fill="none" stroke="#2e3192" stroke-miterlimit="10" stroke-width="16.53"/>
        <path d="M304.1,205.2a153.6,153.6,0,0,1-4.4-16.1A136.3,136.3,0,0,1,320.4,86a165.4,165.4,0,0,1,10.2-13.2" fill="none" stroke="#f0f" stroke-miterlimit="10" stroke-width="16.53"/>
      </g>
    </g>
  </g>
  <g>
    <g>
      <path d="M246.7,1145.5h0a3.8,3.8,0,0,1,3-4.7l26.6-6a29.8,29.8,0,1,0,1.8,7.8l-26.7,6A3.9,3.9,0,0,1,246.7,1145.5Z" fill="#4fe89c"/>
      <path d="M276.3,1134.8l-26.6,6a3.8,3.8,0,0,0-3,4.7h0a3.9,3.9,0,0,0,4.7,3.1l26.7-6-.6-3.9A25.2,25.2,0,0,0,276.3,1134.8Z" fill="#5e6367"/>
      <circle cx="250.6" cy="1144.7" r="4" fill="#1e1b1d"/>
    </g>
    <path d="M117.8,1158.9a15,15,0,1,1-11.4,17.9,15,15,0,0,1,11.4-17.9m-3.3-14.6a30,30,0,1,0,35.8,22.7,29.9,29.9,0,0,0-35.8-22.7Z" fill="#4fe89c"/>
    <path d="M238.3,1220a148.4,148.4,0,0,1-68.9,36" fill="none" stroke="#ff2b31" stroke-miterlimit="10" stroke-width="12.78"/>
    <g>
      <path d="M98.4,1073a133,133,0,0,0-23,26.6,135,135,0,0,0-15.5,31.7" fill="none" stroke="#1b1464" stroke-miterlimit="10" stroke-width="16.53"/>
      <path d="M59.9,1131.3a148.5,148.5,0,0,0-4.3,16.2,134.4,134.4,0,0,0,.2,53.6h0" fill="none" stroke="#736357" stroke-miterlimit="10" stroke-width="16.53"/>
      <path d="M277.6,1275a133,133,0,0,0,23-26.6,136,136,0,0,0,19.8-47.9,134.4,134.4,0,0,0-.2-53.6" fill="none" stroke="#58c0f4" stroke-miterlimit="10" stroke-width="16.53"/>
      <path d="M145.3,1302.1a148.5,148.5,0,0,0,16.2,4.3,135.8,135.8,0,0,0,102.9-21.1,146.1,146.1,0,0,0,13.2-10.3" fill="none" stroke="#58c0f4" stroke-miterlimit="10" stroke-width="16.53"/>
      <path d="M55.8,1201.1a135.4,135.4,0,0,0,89.5,101" fill="none" stroke="#3fa9f5" stroke-miterlimit="10" stroke-width="16.53"/>
      <g>
        <path d="M320.2,1146.9a135.4,135.4,0,0,0-89.5-101" fill="none" stroke="#2e3192" stroke-miterlimit="10" stroke-width="16.53"/>
        <path d="M230.7,1045.9a148.5,148.5,0,0,0-16.2-4.3,135.8,135.8,0,0,0-102.9,21.1A146.1,146.1,0,0,0,98.4,1073" fill="none" stroke="#f0f" stroke-miterlimit="10" stroke-width="16.53"/>
      </g>
    </g>
  </g>
</svg>
