<svg xmlns="http://www.w3.org/2000/svg" viewBox="0 0 156 156"><title>file</title><g id="network-diagram"><rect x="24.61351" y="15" width="17.4259" height="21.29832" fill="#ffc440"/><rect x="42.03941" y="15" width="17.4259" height="21.29832" fill="#ffc440"/><rect x="59.46531" y="15" width="17.4259" height="21.29832" fill="#ffc440"/><rect x="76.8912" y="15" width="17.4259" height="21.29832" fill="#ffc440"/><rect x="94.3171" y="15" width="17.4259" height="21.29832" fill="#ffc440"/><rect x="111.743" y="15" width="17.4259" height="21.29832" fill="#4330fc"/><rect x="24.61351" y="36.29832" width="17.4259" height="21.29832" fill="#4330fc"/><rect x="42.03941" y="36.29832" width="17.4259" height="21.29832" fill="#4330fc"/><polygon points="59.465 57.113 59.465 77.927 76.891 77.927 76.891 57.113 76.891 36.298 59.465 36.298 59.465 57.113" fill="#d2ccdb"/><polygon points="76.891 57.113 76.891 77.927 94.317 77.927 94.317 57.113 94.317 36.298 76.891 36.298 76.891 57.113" fill="#d2ccdb"/><rect x="94.3171" y="36.29832" width="17.4259" height="21.29832" fill="#d2ccdb"/><rect x="111.743" y="36.29832" width="17.4259" height="21.29832" fill="#d2ccdb"/><rect x="24.61351" y="57.59664" width="17.4259" height="21.29844" fill="#d2ccdb"/><rect x="42.03941" y="57.59664" width="17.4259" height="21.29844" fill="#d2ccdb"/><polygon points="111.743 78.411 111.743 99.225 129.169 99.225 129.169 78.411 129.169 57.597 111.743 57.597 111.743 78.411" fill="#4fe89c"/><polygon points="24.614 99.709 24.614 120.523 42.039 120.523 42.039 99.709 42.039 78.895 24.614 78.895 24.614 99.709" fill="#4fe89c"/><polygon points="42.039 99.709 42.039 120.523 59.465 120.523 59.465 99.709 59.465 78.895 42.039 78.895 42.039 99.709" fill="#4fe89c"/><rect x="59.46531" y="77.92685" width="17.4259" height="21.29832" fill="#4fe89c"/><rect x="76.8912" y="77.92685" width="17.4259" height="21.29832" fill="#4fe89c"/><polygon points="111.743 78.411 111.743 57.597 94.317 57.597 94.317 78.411 94.317 99.225 111.743 99.225 111.743 78.411" fill="#4fe89c"/><rect x="59.46531" y="99.22517" width="17.4259" height="21.29832" fill="#1846b7"/><rect x="76.8912" y="99.22517" width="17.4259" height="21.29832" fill="#1846b7"/><polygon points="111.743 99.225 94.317 99.225 94.317 120.523 94.547 120.523 111.743 120.523 111.743 99.225" fill="#1846b7"/><polygon points="111.743 120.523 111.955 120.523 129.169 120.523 129.169 99.225 111.743 99.225 111.743 120.523" fill="#1846b7"/><rect x="24.61351" y="120.52349" width="17.4259" height="21.29832" fill="#1846b7"/><rect x="42.03941" y="120.52349" width="17.4259" height="21.29832" fill="#ee3124"/><rect x="59.46531" y="120.52349" width="17.4259" height="21.29832" fill="#ee3124"/><rect x="76.8912" y="120.52349" width="33.88369" height="21.29832" fill="#ee3124"/><polygon points="106.902 147 106.902 117.619 131.386 117.619 106.902 147" fill="#ee3124" stroke="#fff" stroke-miterlimit="10" stroke-width="3.53706"/></g></svg>