<svg id="b2f14fa6-f478-4f94-a563-e4c7583698ec" data-name="Layer 1" xmlns="http://www.w3.org/2000/svg" viewBox="0 0 600 600"><defs><style>.febf9d1c-1bd1-4153-846c-c606f0b9f90b{fill:#fff;}.\32 05e02cd-5043-4cc5-ad7e-51f76962d75a{fill:#6fdc74;}</style></defs><title>Artboard 3</title><rect class="febf9d1c-1bd1-4153-846c-c606f0b9f90b" x="100" width="100" height="100"/><path class="205e02cd-5043-4cc5-ad7e-51f76962d75a" d="M121.09,20.31H150V49.22A28.91,28.91,0,0,1,121.09,20.31Z"/><path class="febf9d1c-1bd1-4153-846c-c606f0b9f90b" d="M120.31,26.56H150v1.56H120.31Z"/><path class="205e02cd-5043-4cc5-ad7e-51f76962d75a" d="M150.23,35.32a14.45,14.45,0,1,1,14.45,14.45A14.45,14.45,0,0,1,150.23,35.32Z"/><path class="febf9d1c-1bd1-4153-846c-c606f0b9f90b" d="M154.15,24.47l6.93,6.93-.32.32-6.93-6.93Z"/><path class="205e02cd-5043-4cc5-ad7e-51f76962d75a" d="M150,64.84V79.69H135.22A14.74,14.74,0,0,1,121,69.58,14.89,14.89,0,0,1,135.16,50H150Z"/><path class="febf9d1c-1bd1-4153-846c-c606f0b9f90b" d="M149.93,50.39,121,79.27l-.32-.32,28.89-28.89Z"/><path class="febf9d1c-1bd1-4153-846c-c606f0b9f90b" d="M124.79,53.83l6.93,6.93-.32.32-6.93-6.93Z"/><path class="205e02cd-5043-4cc5-ad7e-51f76962d75a" d="M150,64.84V50h14.78A14.74,14.74,0,0,1,179,60.1a14.89,14.89,0,0,1-14.11,19.58H150Z"/><path class="febf9d1c-1bd1-4153-846c-c606f0b9f90b" d="M179.29,50.39,150.4,79.27l-.32-.32L179,50.07Z"/><path class="febf9d1c-1bd1-4153-846c-c606f0b9f90b" d="M164.68,54.06a10.61,10.61,0,1,0,10.61,10.61A10.61,10.61,0,0,0,164.68,54.06ZM153.61,64.68a11.07,11.07,0,1,1,11.07,11.07A11.07,11.07,0,0,1,153.61,64.68Z"/><path class="febf9d1c-1bd1-4153-846c-c606f0b9f90b" d="M164.68,71.68a7,7,0,1,0-7-7A7,7,0,0,0,164.68,71.68Zm0,.45a7.45,7.45,0,1,0-7.45-7.45A7.45,7.45,0,0,0,164.68,72.13Z"/><rect class="febf9d1c-1bd1-4153-846c-c606f0b9f90b" x="200" width="100" height="100"/><path class="205e02cd-5043-4cc5-ad7e-51f76962d75a" d="M221.09,20.31H250V49.22A28.91,28.91,0,0,1,221.09,20.31Z"/><path class="febf9d1c-1bd1-4153-846c-c606f0b9f90b" d="M249.93,21,221,49.92l-.32-.32,28.89-28.89Z"/><path class="febf9d1c-1bd1-4153-846c-c606f0b9f90b" d="M240.74,28.09a1.81,1.81,0,1,1,1.81,1.81A1.81,1.81,0,0,1,240.74,28.09Z"/><path class="205e02cd-5043-4cc5-ad7e-51f76962d75a" d="M278.91,50H250V21.09A28.91,28.91,0,0,1,278.91,50Z"/><path class="febf9d1c-1bd1-4153-846c-c606f0b9f90b" d="M278.91,20.31h.45A29.36,29.36,0,0,1,250,49.67v-.45A28.91,28.91,0,0,0,278.91,20.31Z"/><path class="205e02cd-5043-4cc5-ad7e-51f76962d75a" d="M250,64.84V79.69H235.22A14.74,14.74,0,0,1,221,69.58,14.89,14.89,0,0,1,235.16,50H250Z"/><path class="febf9d1c-1bd1-4153-846c-c606f0b9f90b" d="M237.13,64.68a1.81,1.81,0,1,1-1.81-1.81A1.81,1.81,0,0,1,237.13,64.68Z"/><path class="205e02cd-5043-4cc5-ad7e-51f76962d75a" d="M250,50h29.69V79.69H250Z"/><path class="febf9d1c-1bd1-4153-846c-c606f0b9f90b" d="M271.91,70.1a1.81,1.81,0,1,1-1.81,1.81A1.81,1.81,0,0,1,271.91,70.1Z"/><rect class="febf9d1c-1bd1-4153-846c-c606f0b9f90b" x="300" width="100" height="100"/><path class="205e02cd-5043-4cc5-ad7e-51f76962d75a" d="M321.09,20.31H350V49.22A28.91,28.91,0,0,1,321.09,20.31Z"/><path class="febf9d1c-1bd1-4153-846c-c606f0b9f90b" d="M338.93,35.32a3.61,3.61,0,1,1-3.61-3.61A3.61,3.61,0,0,1,338.93,35.32Zm-3.61,1.81a1.81,1.81,0,1,0-1.81-1.81A1.81,1.81,0,0,0,335.32,37.13Z"/><path class="205e02cd-5043-4cc5-ad7e-51f76962d75a" d="M350,20.31h29.69V50H350Z"/><path class="febf9d1c-1bd1-4153-846c-c606f0b9f90b" d="M350,21.09v-.45A29.36,29.36,0,0,1,379.36,50h-.45A28.91,28.91,0,0,0,350,21.09Z"/><path class="205e02cd-5043-4cc5-ad7e-51f76962d75a" d="M350,64.84V79.69H335.22A14.74,14.74,0,0,1,321,69.58,14.89,14.89,0,0,1,335.16,50H350Z"/><path class="febf9d1c-1bd1-4153-846c-c606f0b9f90b" d="M349.93,50.39,321,79.27l-.32-.32,28.89-28.89Z"/><path class="febf9d1c-1bd1-4153-846c-c606f0b9f90b" d="M342.55,70.1a1.81,1.81,0,1,1-1.81,1.81A1.81,1.81,0,0,1,342.55,70.1Z"/><path class="205e02cd-5043-4cc5-ad7e-51f76962d75a" d="M350.23,64.68a14.45,14.45,0,1,1,14.45,14.45A14.45,14.45,0,0,1,350.23,64.68Z"/><rect class="febf9d1c-1bd1-4153-846c-c606f0b9f90b" x="400" width="100" height="100"/><path class="205e02cd-5043-4cc5-ad7e-51f76962d75a" d="M420.87,20.87a28.91,28.91,0,0,1,28.91,28.91A28.91,28.91,0,0,1,420.87,20.87Z"/><path class="febf9d1c-1bd1-4153-846c-c606f0b9f90b" d="M421,20.71,449.92,49.6l-.32.32L420.71,21Z"/><path class="febf9d1c-1bd1-4153-846c-c606f0b9f90b" d="M438.91,38.36a25.44,25.44,0,0,0,7.47-18h-.45A25,25,0,0,1,438.59,38Z"/><path class="febf9d1c-1bd1-4153-846c-c606f0b9f90b" d="M436.36,35.8a21.84,21.84,0,0,0,6.42-15.49h-.45A21.39,21.39,0,0,1,436,35.48Z"/><path class="febf9d1c-1bd1-4153-846c-c606f0b9f90b" d="M433.8,33.25a18.24,18.24,0,0,0,5.36-12.93h-.45a17.78,17.78,0,0,1-5.23,12.62Z"/><path class="febf9d1c-1bd1-4153-846c-c606f0b9f90b" d="M431.25,30.69a14.63,14.63,0,0,0,4.3-10.38h-.45a14.18,14.18,0,0,1-4.17,10.06Z"/><path class="febf9d1c-1bd1-4153-846c-c606f0b9f90b" d="M428.69,28.14a11,11,0,0,0,3.24-7.82h-.45a10.58,10.58,0,0,1-3.11,7.51Z"/><path class="febf9d1c-1bd1-4153-846c-c606f0b9f90b" d="M426.14,25.58a7.43,7.43,0,0,0,2.18-5.27h-.45a7,7,0,0,1-2.05,5Z"/><path class="febf9d1c-1bd1-4153-846c-c606f0b9f90b" d="M423.58,23a3.83,3.83,0,0,0,1.12-2.71h-.45a3.38,3.38,0,0,1-1,2.4Z"/><path class="205e02cd-5043-4cc5-ad7e-51f76962d75a" d="M479.13,20.87a28.91,28.91,0,0,1-28.91,28.91A28.91,28.91,0,0,1,479.13,20.87Z"/><path class="febf9d1c-1bd1-4153-846c-c606f0b9f90b" d="M450.39,20.71,479.27,49.6l-.32.32L450.07,21Z"/><path class="febf9d1c-1bd1-4153-846c-c606f0b9f90b" d="M473.71,46.16A1.81,1.81,0,1,1,475.52,48,1.81,1.81,0,0,1,473.71,46.16Z"/><path class="febf9d1c-1bd1-4153-846c-c606f0b9f90b" d="M452,46.16A1.81,1.81,0,1,1,453.84,48,1.81,1.81,0,0,1,452,46.16Z"/><path class="febf9d1c-1bd1-4153-846c-c606f0b9f90b" d="M473.71,24.48a1.81,1.81,0,1,1,1.81,1.81A1.81,1.81,0,0,1,473.71,24.48Z"/><path class="205e02cd-5043-4cc5-ad7e-51f76962d75a" d="M450,50.78V79.69H421.09A28.91,28.91,0,0,1,450,50.78Z"/><path class="febf9d1c-1bd1-4153-846c-c606f0b9f90b" d="M448,53.84A1.81,1.81,0,1,1,446.16,52,1.81,1.81,0,0,1,448,53.84Z"/><path class="febf9d1c-1bd1-4153-846c-c606f0b9f90b" d="M426.29,75.52a1.81,1.81,0,1,1-1.81-1.81A1.81,1.81,0,0,1,426.29,75.52Z"/><path class="205e02cd-5043-4cc5-ad7e-51f76962d75a" d="M450,78.91V50h28.91A28.91,28.91,0,0,1,450,78.91Z"/><path class="febf9d1c-1bd1-4153-846c-c606f0b9f90b" d="M468,61.09a25.44,25.44,0,0,0-18-7.47v.45a25,25,0,0,1,17.73,7.34Z"/><path class="febf9d1c-1bd1-4153-846c-c606f0b9f90b" d="M465.49,63.64A21.84,21.84,0,0,0,450,57.23v.45A21.39,21.39,0,0,1,465.17,64Z"/><path class="febf9d1c-1bd1-4153-846c-c606f0b9f90b" d="M462.93,66.2A18.24,18.24,0,0,0,450,60.84v.45a17.78,17.78,0,0,1,12.62,5.23Z"/><path class="febf9d1c-1bd1-4153-846c-c606f0b9f90b" d="M460.38,68.75A14.63,14.63,0,0,0,450,64.45v.45a14.18,14.18,0,0,1,10.06,4.17Z"/><path class="febf9d1c-1bd1-4153-846c-c606f0b9f90b" d="M457.82,71.31A11,11,0,0,0,450,68.07v.45a10.58,10.58,0,0,1,7.51,3.11Z"/><path class="febf9d1c-1bd1-4153-846c-c606f0b9f90b" d="M455.27,73.86A7.43,7.43,0,0,0,450,71.68v.45a7,7,0,0,1,5,2.05Z"/><path class="febf9d1c-1bd1-4153-846c-c606f0b9f90b" d="M452.71,76.42A3.83,3.83,0,0,0,450,75.29v.45a3.38,3.38,0,0,1,2.4,1Z"/><rect class="febf9d1c-1bd1-4153-846c-c606f0b9f90b" x="500" width="100" height="100"/><path class="205e02cd-5043-4cc5-ad7e-51f76962d75a" d="M521.09,20.31H550V49.22A28.91,28.91,0,0,1,521.09,20.31Z"/><path class="febf9d1c-1bd1-4153-846c-c606f0b9f90b" d="M550,41.77v.45a21.91,21.91,0,0,1-21.91-21.91h.45A21.45,21.45,0,0,0,550,41.77Z"/><path class="205e02cd-5043-4cc5-ad7e-51f76962d75a" d="M550.23,35.32a14.45,14.45,0,1,1,14.45,14.45A14.45,14.45,0,0,1,550.23,35.32Z"/><path class="febf9d1c-1bd1-4153-846c-c606f0b9f90b" d="M566.49,35.32a1.81,1.81,0,1,1-1.81-1.81A1.81,1.81,0,0,1,566.49,35.32Z"/><path class="febf9d1c-1bd1-4153-846c-c606f0b9f90b" d="M579.69,32.81V31.25H550v1.56Z"/><path class="205e02cd-5043-4cc5-ad7e-51f76962d75a" d="M521.09,50H550V78.91A28.91,28.91,0,0,1,521.09,50Z"/><path class="febf9d1c-1bd1-4153-846c-c606f0b9f90b" d="M548,53.84A1.81,1.81,0,1,1,546.16,52,1.81,1.81,0,0,1,548,53.84Z"/><path class="febf9d1c-1bd1-4153-846c-c606f0b9f90b" d="M526.29,75.52a1.81,1.81,0,1,1-1.81-1.81A1.81,1.81,0,0,1,526.29,75.52Z"/><path class="205e02cd-5043-4cc5-ad7e-51f76962d75a" d="M550,64.84V50h14.78A14.74,14.74,0,0,1,579,60.1a14.89,14.89,0,0,1-14.11,19.58H550Z"/><path class="febf9d1c-1bd1-4153-846c-c606f0b9f90b" d="M568.29,64.68a3.61,3.61,0,1,1-3.61-3.61A3.61,3.61,0,0,1,568.29,64.68Zm-3.61,1.81a1.81,1.81,0,1,0-1.81-1.81A1.81,1.81,0,0,0,564.68,66.49Z"/><rect class="febf9d1c-1bd1-4153-846c-c606f0b9f90b" y="100" width="100" height="100"/><path class="205e02cd-5043-4cc5-ad7e-51f76962d75a" d="M21.09,120.31H50v28.91A28.91,28.91,0,0,1,21.09,120.31Z"/><path class="febf9d1c-1bd1-4153-846c-c606f0b9f90b" d="M21.09,150h-.45A29.36,29.36,0,0,1,50,120.64v.45A28.91,28.91,0,0,0,21.09,150Z"/><path class="205e02cd-5043-4cc5-ad7e-51f76962d75a" d="M50,135.16V120.31H64.78A14.74,14.74,0,0,1,79,130.42,14.89,14.89,0,0,1,64.84,150H50Z"/><path class="febf9d1c-1bd1-4153-846c-c606f0b9f90b" d="M64.68,124.71a10.61,10.61,0,1,0,10.61,10.61A10.61,10.61,0,0,0,64.68,124.71ZM53.61,135.32a11.07,11.07,0,1,1,11.07,11.07A11.07,11.07,0,0,1,53.61,135.32Z"/><path class="205e02cd-5043-4cc5-ad7e-51f76962d75a" d="M49.22,179.69H20.31V150.78A28.91,28.91,0,0,1,49.22,179.69Z"/><path class="febf9d1c-1bd1-4153-846c-c606f0b9f90b" d="M20.31,154.62v-.45a25.52,25.52,0,0,1,25.52,25.52h-.45A25.07,25.07,0,0,0,20.31,154.62Z"/><path class="febf9d1c-1bd1-4153-846c-c606f0b9f90b" d="M20.31,158.23v-.45a21.91,21.91,0,0,1,21.91,21.91h-.45A21.45,21.45,0,0,0,20.31,158.23Z"/><path class="febf9d1c-1bd1-4153-846c-c606f0b9f90b" d="M20.31,161.85v-.45A18.29,18.29,0,0,1,38.6,179.69h-.45A17.84,17.84,0,0,0,20.31,161.85Z"/><path class="febf9d1c-1bd1-4153-846c-c606f0b9f90b" d="M20.31,165.46V165A14.68,14.68,0,0,1,35,179.69h-.45A14.23,14.23,0,0,0,20.31,165.46Z"/><path class="febf9d1c-1bd1-4153-846c-c606f0b9f90b" d="M20.31,172.69v-.45a7.45,7.45,0,0,1,7.45,7.45h-.45A7,7,0,0,0,20.31,172.69Z"/><path class="febf9d1c-1bd1-4153-846c-c606f0b9f90b" d="M20.31,176.3v-.45a3.84,3.84,0,0,1,3.84,3.84H23.7A3.39,3.39,0,0,0,20.31,176.3Z"/><path class="febf9d1c-1bd1-4153-846c-c606f0b9f90b" d="M20.31,169.07v-.45a11.07,11.07,0,0,1,11.07,11.07h-.45A10.61,10.61,0,0,0,20.31,169.07Z"/><path class="205e02cd-5043-4cc5-ad7e-51f76962d75a" d="M50.23,164.68a14.45,14.45,0,1,1,14.45,14.45A14.45,14.45,0,0,1,50.23,164.68Z"/><path class="febf9d1c-1bd1-4153-846c-c606f0b9f90b" d="M59.26,171.91a1.81,1.81,0,1,1-1.81-1.81A1.81,1.81,0,0,1,59.26,171.91Z"/><rect class="febf9d1c-1bd1-4153-846c-c606f0b9f90b" x="100" y="100" width="100" height="100"/><path class="205e02cd-5043-4cc5-ad7e-51f76962d75a" d="M150,121.09V150H121.09A28.91,28.91,0,0,1,150,121.09Z"/><path class="febf9d1c-1bd1-4153-846c-c606f0b9f90b" d="M121,120.71l28.89,28.89-.32.32L120.71,121Z"/><path class="febf9d1c-1bd1-4153-846c-c606f0b9f90b" d="M135.77,150h-.45A14.68,14.68,0,0,1,150,135.32v.45A14.23,14.23,0,0,0,135.77,150Z"/><path class="205e02cd-5043-4cc5-ad7e-51f76962d75a" d="M150.23,135.32a14.45,14.45,0,1,1,14.45,14.45A14.45,14.45,0,0,1,150.23,135.32Z"/><path class="febf9d1c-1bd1-4153-846c-c606f0b9f90b" d="M159.26,142.55a1.81,1.81,0,1,1-1.81-1.81A1.81,1.81,0,0,1,159.26,142.55Z"/><path class="205e02cd-5043-4cc5-ad7e-51f76962d75a" d="M150,164.84v14.84H135.22A14.74,14.74,0,0,1,121,169.58,14.89,14.89,0,0,1,135.16,150H150Z"/><path class="febf9d1c-1bd1-4153-846c-c606f0b9f90b" d="M135.32,154.06a10.61,10.61,0,1,0,10.61,10.61A10.61,10.61,0,0,0,135.32,154.06Zm-11.07,10.61a11.07,11.07,0,1,1,11.07,11.07A11.07,11.07,0,0,1,124.26,164.68Z"/><path class="febf9d1c-1bd1-4153-846c-c606f0b9f90b" d="M135.32,170.1a1.81,1.81,0,1,1-1.81,1.81A1.81,1.81,0,0,1,135.32,170.1Z"/><path class="205e02cd-5043-4cc5-ad7e-51f76962d75a" d="M178.91,179.69H150V150.78A28.91,28.91,0,0,1,178.91,179.69Z"/><path class="febf9d1c-1bd1-4153-846c-c606f0b9f90b" d="M155.65,164.68a1.81,1.81,0,1,1-1.81-1.81A1.81,1.81,0,0,1,155.65,164.68Z"/><rect class="febf9d1c-1bd1-4153-846c-c606f0b9f90b" x="200" y="100" width="100" height="100"/><path class="205e02cd-5043-4cc5-ad7e-51f76962d75a" d="M220.87,135.32a14.45,14.45,0,1,1,14.45,14.45A14.45,14.45,0,0,1,220.87,135.32Z"/><path class="febf9d1c-1bd1-4153-846c-c606f0b9f90b" d="M242.55,135.32a7.23,7.23,0,1,1-7.23-7.23A7.23,7.23,0,0,1,242.55,135.32Zm-7.23,5.42a5.42,5.42,0,1,0-5.42-5.42A5.42,5.42,0,0,0,235.32,140.74Z"/><path class="205e02cd-5043-4cc5-ad7e-51f76962d75a" d="M278.91,150H250V121.09A28.91,28.91,0,0,1,278.91,150Z"/><path class="febf9d1c-1bd1-4153-846c-c606f0b9f90b" d="M279.29,121,250.4,149.92l-.32-.32L279,120.71Z"/><path class="febf9d1c-1bd1-4153-846c-c606f0b9f90b" d="M279.69,141.77v.45a21.91,21.91,0,0,1-21.91-21.91h.45A21.45,21.45,0,0,0,279.69,141.77Z"/><path class="205e02cd-5043-4cc5-ad7e-51f76962d75a" d="M250,164.84v14.84H235.22A14.74,14.74,0,0,1,221,169.58,14.89,14.89,0,0,1,235.16,150H250Z"/><path class="febf9d1c-1bd1-4153-846c-c606f0b9f90b" d="M249.93,150.39,221,179.27l-.32-.32,28.89-28.89Z"/><path class="febf9d1c-1bd1-4153-846c-c606f0b9f90b" d="M245.85,175.53l-6.93-6.93.32-.32,6.93,6.93Z"/><path class="205e02cd-5043-4cc5-ad7e-51f76962d75a" d="M250,178.91V150h28.91A28.91,28.91,0,0,1,250,178.91Z"/><path class="febf9d1c-1bd1-4153-846c-c606f0b9f90b" d="M250.39,150.07,279.27,179l-.32.32-28.89-28.89Z"/><path class="febf9d1c-1bd1-4153-846c-c606f0b9f90b" d="M261.09,161.64a25.44,25.44,0,0,0-7.47,18h.45A25,25,0,0,1,261.41,162Z"/><path class="febf9d1c-1bd1-4153-846c-c606f0b9f90b" d="M263.64,164.2a21.84,21.84,0,0,0-6.42,15.49h.45A21.39,21.39,0,0,1,264,164.52Z"/><path class="febf9d1c-1bd1-4153-846c-c606f0b9f90b" d="M266.2,166.75a18.24,18.24,0,0,0-5.36,12.93h.45a17.78,17.78,0,0,1,5.23-12.62Z"/><path class="febf9d1c-1bd1-4153-846c-c606f0b9f90b" d="M268.75,169.31a14.63,14.63,0,0,0-4.3,10.38h.45a14.18,14.18,0,0,1,4.17-10.06Z"/><path class="febf9d1c-1bd1-4153-846c-c606f0b9f90b" d="M271.31,171.86a11,11,0,0,0-3.24,7.82h.45a10.58,10.58,0,0,1,3.11-7.51Z"/><path class="febf9d1c-1bd1-4153-846c-c606f0b9f90b" d="M273.86,174.42a7.43,7.43,0,0,0-2.18,5.27h.45a7,7,0,0,1,2.05-5Z"/><path class="febf9d1c-1bd1-4153-846c-c606f0b9f90b" d="M276.42,177a3.83,3.83,0,0,0-1.12,2.71h.45a3.38,3.38,0,0,1,1-2.4Z"/><rect class="febf9d1c-1bd1-4153-846c-c606f0b9f90b" x="300" y="100" width="100" height="100"/><path class="205e02cd-5043-4cc5-ad7e-51f76962d75a" d="M350,135.16V150H335.22A14.74,14.74,0,0,1,321,139.9a14.89,14.89,0,0,1,14.11-19.58H350Z"/><path class="febf9d1c-1bd1-4153-846c-c606f0b9f90b" d="M321,120.71l28.89,28.89-.32.32L320.71,121Z"/><path class="febf9d1c-1bd1-4153-846c-c606f0b9f90b" d="M331.73,132a25.44,25.44,0,0,0-7.47,18h.45A25,25,0,0,1,332,132.27Z"/><path class="febf9d1c-1bd1-4153-846c-c606f0b9f90b" d="M334.28,134.51A21.84,21.84,0,0,0,327.87,150h.45a21.39,21.39,0,0,1,6.28-15.17Z"/><path class="febf9d1c-1bd1-4153-846c-c606f0b9f90b" d="M336.84,137.07A18.24,18.24,0,0,0,331.48,150h.45a17.78,17.78,0,0,1,5.23-12.62Z"/><path class="febf9d1c-1bd1-4153-846c-c606f0b9f90b" d="M339.39,139.62A14.63,14.63,0,0,0,335.1,150h.45a14.18,14.18,0,0,1,4.17-10.06Z"/><path class="febf9d1c-1bd1-4153-846c-c606f0b9f90b" d="M341.95,142.18a11,11,0,0,0-3.24,7.82h.45a10.58,10.58,0,0,1,3.11-7.51Z"/><path class="febf9d1c-1bd1-4153-846c-c606f0b9f90b" d="M344.5,144.73a7.43,7.43,0,0,0-2.18,5.27h.45a7,7,0,0,1,2.05-5Z"/><path class="febf9d1c-1bd1-4153-846c-c606f0b9f90b" d="M347.06,147.29a3.83,3.83,0,0,0-1.12,2.71h.45a3.38,3.38,0,0,1,1-2.4Z"/><path class="205e02cd-5043-4cc5-ad7e-51f76962d75a" d="M379.69,121.09V150H350.78A28.91,28.91,0,0,1,379.69,121.09Z"/><path class="febf9d1c-1bd1-4153-846c-c606f0b9f90b" d="M358.23,150h-.45a21.91,21.91,0,0,1,21.91-21.91v.45A21.45,21.45,0,0,0,358.23,150Z"/><path class="205e02cd-5043-4cc5-ad7e-51f76962d75a" d="M320.87,150.23a28.91,28.91,0,0,1,28.91,28.91A28.91,28.91,0,0,1,320.87,150.23Z"/><path class="febf9d1c-1bd1-4153-846c-c606f0b9f90b" d="M335.32,163.1a1.58,1.58,0,1,0,1.58,1.58A1.58,1.58,0,0,0,335.32,163.1Zm-2,1.58a2,2,0,1,1,2,2A2,2,0,0,1,333.29,164.68Z"/><path class="febf9d1c-1bd1-4153-846c-c606f0b9f90b" d="M320.31,171.88H350v1.56H320.31Z"/><path class="205e02cd-5043-4cc5-ad7e-51f76962d75a" d="M379.69,150.78v28.91H350.78A28.91,28.91,0,0,1,379.69,150.78Z"/><path class="febf9d1c-1bd1-4153-846c-c606f0b9f90b" d="M375.21,175.53l-6.93-6.93.32-.32,6.93,6.93Z"/><path class="febf9d1c-1bd1-4153-846c-c606f0b9f90b" d="M375.52,173.71a1.81,1.81,0,1,1-1.81,1.81A1.81,1.81,0,0,1,375.52,173.71Z"/><rect class="febf9d1c-1bd1-4153-846c-c606f0b9f90b" x="400" y="100" width="100" height="100"/><path class="205e02cd-5043-4cc5-ad7e-51f76962d75a" d="M421.09,120.31H450v28.91A28.91,28.91,0,0,1,421.09,120.31Z"/><path class="febf9d1c-1bd1-4153-846c-c606f0b9f90b" d="M432,138.91a25.44,25.44,0,0,0,18,7.47v-.45a25,25,0,0,1-17.73-7.34Z"/><path class="febf9d1c-1bd1-4153-846c-c606f0b9f90b" d="M434.51,136.36A21.84,21.84,0,0,0,450,142.77v-.45A21.39,21.39,0,0,1,434.83,136Z"/><path class="febf9d1c-1bd1-4153-846c-c606f0b9f90b" d="M437.07,133.8A18.24,18.24,0,0,0,450,139.16v-.45a17.78,17.78,0,0,1-12.62-5.23Z"/><path class="febf9d1c-1bd1-4153-846c-c606f0b9f90b" d="M439.62,131.25a14.63,14.63,0,0,0,10.38,4.3v-.45a14.18,14.18,0,0,1-10.06-4.17Z"/><path class="febf9d1c-1bd1-4153-846c-c606f0b9f90b" d="M442.18,128.69a11,11,0,0,0,7.82,3.24v-.45a10.58,10.58,0,0,1-7.51-3.11Z"/><path class="febf9d1c-1bd1-4153-846c-c606f0b9f90b" d="M444.73,126.14a7.43,7.43,0,0,0,5.27,2.18v-.45a7,7,0,0,1-5-2.05Z"/><path class="febf9d1c-1bd1-4153-846c-c606f0b9f90b" d="M447.29,123.58a3.83,3.83,0,0,0,2.71,1.12v-.45a3.38,3.38,0,0,1-2.4-1Z"/><path class="205e02cd-5043-4cc5-ad7e-51f76962d75a" d="M450,149.22V120.31h28.91A28.91,28.91,0,0,1,450,149.22Z"/><path class="febf9d1c-1bd1-4153-846c-c606f0b9f90b" d="M457,120.31h.45a7.45,7.45,0,0,1-7.45,7.45v-.45A7,7,0,0,0,457,120.31Z"/><path class="205e02cd-5043-4cc5-ad7e-51f76962d75a" d="M421.09,150H450v28.91A28.91,28.91,0,0,1,421.09,150Z"/><path class="febf9d1c-1bd1-4153-846c-c606f0b9f90b" d="M449.32,150h-28a28.36,28.36,0,0,0,8.33,19.67Z"/><path class="205e02cd-5043-4cc5-ad7e-51f76962d75a" d="M432.72,164a6.44,6.44,0,1,1,6.44-6.44A6.44,6.44,0,0,1,432.72,164Z"/><path class="205e02cd-5043-4cc5-ad7e-51f76962d75a" d="M450.23,164.68a14.45,14.45,0,1,1,14.45,14.45A14.45,14.45,0,0,1,450.23,164.68Z"/><path class="febf9d1c-1bd1-4153-846c-c606f0b9f90b" d="M450.39,150.07,479.27,179l-.32.32-28.89-28.89Z"/><path class="febf9d1c-1bd1-4153-846c-c606f0b9f90b" d="M465.46,179.69H465A14.68,14.68,0,0,1,479.69,165v.45A14.23,14.23,0,0,0,465.46,179.69Z"/><rect class="febf9d1c-1bd1-4153-846c-c606f0b9f90b" x="500" y="100" width="100" height="100"/><path class="205e02cd-5043-4cc5-ad7e-51f76962d75a" d="M520.87,135.32a14.45,14.45,0,1,1,14.45,14.45A14.45,14.45,0,0,1,520.87,135.32Z"/><path class="febf9d1c-1bd1-4153-846c-c606f0b9f90b" d="M549.93,121,521,149.92l-.32-.32,28.89-28.89Z"/><path class="febf9d1c-1bd1-4153-846c-c606f0b9f90b" d="M550,141.77v.45a21.91,21.91,0,0,1-21.91-21.91h.45A21.45,21.45,0,0,0,550,141.77Z"/><path class="205e02cd-5043-4cc5-ad7e-51f76962d75a" d="M578.91,150H550V121.09A28.91,28.91,0,0,1,578.91,150Z"/><path class="febf9d1c-1bd1-4153-846c-c606f0b9f90b" d="M560.94,150V120.31h1.56V150Z"/><path class="febf9d1c-1bd1-4153-846c-c606f0b9f90b" d="M556.25,150V120.31h1.56V150Z"/><path class="205e02cd-5043-4cc5-ad7e-51f76962d75a" d="M520.31,150H550v29.69H520.31Z"/><path class="205e02cd-5043-4cc5-ad7e-51f76962d75a" d="M550,150h29.69v29.69H550Z"/><path class="febf9d1c-1bd1-4153-846c-c606f0b9f90b" d="M571.45,150h.45A21.91,21.91,0,0,1,550,171.91v-.45A21.45,21.45,0,0,0,571.45,150Z"/><rect class="febf9d1c-1bd1-4153-846c-c606f0b9f90b" x="200" y="200" width="100" height="100"/><path class="205e02cd-5043-4cc5-ad7e-51f76962d75a" d="M221.09,220.31H250v28.91A28.91,28.91,0,0,1,221.09,220.31Z"/><path class="febf9d1c-1bd1-4153-846c-c606f0b9f90b" d="M249.93,221,221,249.92l-.32-.32,28.89-28.89Z"/><path class="febf9d1c-1bd1-4153-846c-c606f0b9f90b" d="M240.74,228.09a1.81,1.81,0,1,1,1.81,1.81A1.81,1.81,0,0,1,240.74,228.09Z"/><path class="205e02cd-5043-4cc5-ad7e-51f76962d75a" d="M278.91,250H250V221.09A28.91,28.91,0,0,1,278.91,250Z"/><path class="febf9d1c-1bd1-4153-846c-c606f0b9f90b" d="M279.29,221,250.4,249.92l-.32-.32L279,220.71Z"/><path class="febf9d1c-1bd1-4153-846c-c606f0b9f90b" d="M279.69,241.77v.45a21.91,21.91,0,0,1-21.91-21.91h.45A21.45,21.45,0,0,0,279.69,241.77Z"/><path class="205e02cd-5043-4cc5-ad7e-51f76962d75a" d="M220.87,264.68a14.45,14.45,0,1,1,14.45,14.45A14.45,14.45,0,0,1,220.87,264.68Z"/><path class="febf9d1c-1bd1-4153-846c-c606f0b9f90b" d="M245.22,274.58a14,14,0,1,0-19.8-19.8Z"/><path class="febf9d1c-1bd1-4153-846c-c606f0b9f90b" d="M229.9,271.91a1.81,1.81,0,1,1-1.81-1.81A1.81,1.81,0,0,1,229.9,271.91Z"/><path class="205e02cd-5043-4cc5-ad7e-51f76962d75a" d="M250,250h29.69v29.69H250Z"/><path class="febf9d1c-1bd1-4153-846c-c606f0b9f90b" d="M250.39,250.07,279.27,279l-.32.32-28.89-28.89Z"/><path class="febf9d1c-1bd1-4153-846c-c606f0b9f90b" d="M257.66,250a7,7,0,0,0,14,0h.44a7.45,7.45,0,0,1-14.9,0Z"/><rect class="febf9d1c-1bd1-4153-846c-c606f0b9f90b" x="300" y="200" width="100" height="100"/><path class="205e02cd-5043-4cc5-ad7e-51f76962d75a" d="M350,221.09V250H321.09A28.91,28.91,0,0,1,350,221.09Z"/><path class="febf9d1c-1bd1-4153-846c-c606f0b9f90b" d="M345.38,220.31h.45a25.52,25.52,0,0,1-25.52,25.52v-.45A25.07,25.07,0,0,0,345.38,220.31Z"/><path class="febf9d1c-1bd1-4153-846c-c606f0b9f90b" d="M341.77,220.31h.45a21.91,21.91,0,0,1-21.91,21.91v-.45A21.45,21.45,0,0,0,341.77,220.31Z"/><path class="febf9d1c-1bd1-4153-846c-c606f0b9f90b" d="M338.15,220.31h.45a18.29,18.29,0,0,1-18.29,18.29v-.45A17.84,17.84,0,0,0,338.15,220.31Z"/><path class="febf9d1c-1bd1-4153-846c-c606f0b9f90b" d="M334.54,220.31H335A14.68,14.68,0,0,1,320.31,235v-.45A14.23,14.23,0,0,0,334.54,220.31Z"/><path class="febf9d1c-1bd1-4153-846c-c606f0b9f90b" d="M327.31,220.31h.45a7.45,7.45,0,0,1-7.45,7.45v-.45A7,7,0,0,0,327.31,220.31Z"/><path class="febf9d1c-1bd1-4153-846c-c606f0b9f90b" d="M323.7,220.31h.45a3.84,3.84,0,0,1-3.84,3.84v-.45A3.39,3.39,0,0,0,323.7,220.31Z"/><path class="febf9d1c-1bd1-4153-846c-c606f0b9f90b" d="M330.93,220.31h.45a11.07,11.07,0,0,1-11.07,11.07v-.45A10.61,10.61,0,0,0,330.93,220.31Z"/><path class="205e02cd-5043-4cc5-ad7e-51f76962d75a" d="M379.69,221.09V250H350.78A28.91,28.91,0,0,1,379.69,221.09Z"/><path class="febf9d1c-1bd1-4153-846c-c606f0b9f90b" d="M372.69,250h-.45a7.45,7.45,0,0,1,7.45-7.45V243A7,7,0,0,0,372.69,250Z"/><path class="205e02cd-5043-4cc5-ad7e-51f76962d75a" d="M321.09,250H350v28.91A28.91,28.91,0,0,1,321.09,250Z"/><path class="febf9d1c-1bd1-4153-846c-c606f0b9f90b" d="M349.93,250.39,321,279.27l-.32-.32,28.89-28.89Z"/><path class="febf9d1c-1bd1-4153-846c-c606f0b9f90b" d="M335.32,263.1a1.58,1.58,0,1,0,1.58,1.58A1.58,1.58,0,0,0,335.32,263.1Zm-2,1.58a2,2,0,1,1,2,2A2,2,0,0,1,333.29,264.68Z"/><path class="febf9d1c-1bd1-4153-846c-c606f0b9f90b" d="M344.35,264.68a1.81,1.81,0,1,1,1.81,1.81A1.81,1.81,0,0,1,344.35,264.68Z"/><path class="205e02cd-5043-4cc5-ad7e-51f76962d75a" d="M378.91,279.69H350V250.78A28.91,28.91,0,0,1,378.91,279.69Z"/><path class="febf9d1c-1bd1-4153-846c-c606f0b9f90b" d="M379.29,250.39,350.4,279.27l-.32-.32L379,250.07Z"/><path class="febf9d1c-1bd1-4153-846c-c606f0b9f90b" d="M375.52,255.65a1.81,1.81,0,1,1,1.81-1.81A1.81,1.81,0,0,1,375.52,255.65Z"/><path class="febf9d1c-1bd1-4153-846c-c606f0b9f90b" d="M375.52,277.33a1.81,1.81,0,1,1,1.81-1.81A1.81,1.81,0,0,1,375.52,277.33Z"/><path class="febf9d1c-1bd1-4153-846c-c606f0b9f90b" d="M353.84,255.65a1.81,1.81,0,1,1,1.81-1.81A1.81,1.81,0,0,1,353.84,255.65Z"/><rect class="febf9d1c-1bd1-4153-846c-c606f0b9f90b" x="400" y="200" width="100" height="100"/><path class="205e02cd-5043-4cc5-ad7e-51f76962d75a" d="M449.77,220.87a28.91,28.91,0,0,1-28.91,28.91A28.91,28.91,0,0,1,449.77,220.87Z"/><path class="febf9d1c-1bd1-4153-846c-c606f0b9f90b" d="M435.32,233.74a1.58,1.58,0,1,0,1.58,1.58A1.58,1.58,0,0,0,435.32,233.74Zm-2,1.58a2,2,0,1,1,2,2A2,2,0,0,1,433.29,235.32Z"/><path class="febf9d1c-1bd1-4153-846c-c606f0b9f90b" d="M429.54,234.85c-5.23,3.89-8.44,9.25-8.44,15.15h-.46c0-6.07,3.31-11.55,8.62-15.51a34.91,34.91,0,0,1,20.74-6.4v.45A34.45,34.45,0,0,0,429.54,234.85Z"/><path class="205e02cd-5043-4cc5-ad7e-51f76962d75a" d="M450,235.16V220.31h14.78A14.74,14.74,0,0,1,479,230.42,14.89,14.89,0,0,1,464.84,250H450Z"/><path class="febf9d1c-1bd1-4153-846c-c606f0b9f90b" d="M453.83,245.85l6.93-6.93.32.32-6.93,6.93Z"/><path class="febf9d1c-1bd1-4153-846c-c606f0b9f90b" d="M468.29,235.32a3.61,3.61,0,1,1-3.61-3.61A3.61,3.61,0,0,1,468.29,235.32Zm-3.61,1.81a1.81,1.81,0,1,0-1.81-1.81A1.81,1.81,0,0,0,464.68,237.13Z"/><path class="205e02cd-5043-4cc5-ad7e-51f76962d75a" d="M420.87,264.68a14.45,14.45,0,1,1,14.45,14.45A14.45,14.45,0,0,1,420.87,264.68Z"/><path class="febf9d1c-1bd1-4153-846c-c606f0b9f90b" d="M421,250.07,449.92,279l-.32.32-28.89-28.89Z"/><path class="febf9d1c-1bd1-4153-846c-c606f0b9f90b" d="M424.87,264.06a11.07,11.07,0,0,0,11.07,11.07v-.45a10.61,10.61,0,0,1-10.61-10.61Z"/><path class="febf9d1c-1bd1-4153-846c-c606f0b9f90b" d="M426.29,264.68a1.81,1.81,0,1,1-1.81-1.81A1.81,1.81,0,0,1,426.29,264.68Z"/><path class="205e02cd-5043-4cc5-ad7e-51f76962d75a" d="M450,278.91V250h28.91A28.91,28.91,0,0,1,450,278.91Z"/><path class="febf9d1c-1bd1-4153-846c-c606f0b9f90b" d="M450,250.68v28a28.36,28.36,0,0,0,19.67-8.33Z"/><path class="205e02cd-5043-4cc5-ad7e-51f76962d75a" d="M455.65,275.52a1.81,1.81,0,1,1-1.81-1.81A1.81,1.81,0,0,1,455.65,275.52Z"/><rect class="febf9d1c-1bd1-4153-846c-c606f0b9f90b" x="500" y="200" width="100" height="100"/><path class="205e02cd-5043-4cc5-ad7e-51f76962d75a" d="M520.87,235.32a14.45,14.45,0,1,1,14.45,14.45A14.45,14.45,0,0,1,520.87,235.32Z"/><path class="febf9d1c-1bd1-4153-846c-c606f0b9f90b" d="M520.31,242.19H550v1.56H520.31Z"/><path class="205e02cd-5043-4cc5-ad7e-51f76962d75a" d="M550,220.31h29.69V250H550Z"/><path class="febf9d1c-1bd1-4153-846c-c606f0b9f90b" d="M558.23,250h-.45a21.91,21.91,0,0,1,21.91-21.91v.45A21.45,21.45,0,0,0,558.23,250Z"/><path class="205e02cd-5043-4cc5-ad7e-51f76962d75a" d="M550,264.84v14.84H535.22A14.74,14.74,0,0,1,521,269.58,14.89,14.89,0,0,1,535.16,250H550Z"/><path class="febf9d1c-1bd1-4153-846c-c606f0b9f90b" d="M545.85,275.53l-6.93-6.93.32-.32,6.93,6.93Z"/><path class="febf9d1c-1bd1-4153-846c-c606f0b9f90b" d="M538.93,264.68a3.61,3.61,0,1,1-3.61-3.61A3.61,3.61,0,0,1,538.93,264.68Z"/><path class="205e02cd-5043-4cc5-ad7e-51f76962d75a" d="M550,250h29.69v29.69H550Z"/><path class="febf9d1c-1bd1-4153-846c-c606f0b9f90b" d="M562.87,268.29a1.81,1.81,0,1,1-1.81-1.81A1.81,1.81,0,0,1,562.87,268.29Z"/><rect class="febf9d1c-1bd1-4153-846c-c606f0b9f90b" y="300" width="100" height="100"/><path class="205e02cd-5043-4cc5-ad7e-51f76962d75a" d="M20.31,320.31H50V350H20.31Z"/><path class="febf9d1c-1bd1-4153-846c-c606f0b9f90b" d="M35.32,342.32a7,7,0,1,0-7-7A7,7,0,0,0,35.32,342.32Zm0,.45a7.45,7.45,0,1,0-7.45-7.45A7.45,7.45,0,0,0,35.32,342.77Z"/><path class="febf9d1c-1bd1-4153-846c-c606f0b9f90b" d="M29.9,335.32a1.81,1.81,0,1,1-1.81-1.81A1.81,1.81,0,0,1,29.9,335.32Z"/><path class="205e02cd-5043-4cc5-ad7e-51f76962d75a" d="M50,335.16V320.31H64.78A14.74,14.74,0,0,1,79,330.42,14.89,14.89,0,0,1,64.84,350H50Z"/><path class="febf9d1c-1bd1-4153-846c-c606f0b9f90b" d="M59.26,335.32a1.81,1.81,0,1,1-1.81-1.81A1.81,1.81,0,0,1,59.26,335.32Z"/><path class="febf9d1c-1bd1-4153-846c-c606f0b9f90b" d="M73.71,335.32a1.81,1.81,0,1,1-1.81-1.81A1.81,1.81,0,0,1,73.71,335.32Z"/><path class="205e02cd-5043-4cc5-ad7e-51f76962d75a" d="M49.77,350.23a28.91,28.91,0,0,1-28.91,28.91A28.91,28.91,0,0,1,49.77,350.23Z"/><path class="febf9d1c-1bd1-4153-846c-c606f0b9f90b" d="M30.33,359.19c-2.6-5.25-6.16-8.41-10-8.41v-.46c4.12,0,7.79,3.36,10.42,8.66S35,371.62,35,379.69h-.45C34.54,371.67,32.93,364.43,30.33,359.19Z"/><path class="205e02cd-5043-4cc5-ad7e-51f76962d75a" d="M50.23,364.68a14.45,14.45,0,1,1,14.45,14.45A14.45,14.45,0,0,1,50.23,364.68Z"/><path class="febf9d1c-1bd1-4153-846c-c606f0b9f90b" d="M53.83,375.21l6.93-6.93.32.32-6.93,6.93Z"/><rect class="febf9d1c-1bd1-4153-846c-c606f0b9f90b" x="200" y="300" width="100" height="100"/><path class="205e02cd-5043-4cc5-ad7e-51f76962d75a" d="M221.09,320.31H250v28.91A28.91,28.91,0,0,1,221.09,320.31Z"/><path class="febf9d1c-1bd1-4153-846c-c606f0b9f90b" d="M221,320.71l28.89,28.89-.32.32L220.71,321Z"/><path class="febf9d1c-1bd1-4153-846c-c606f0b9f90b" d="M224.48,344.35a1.81,1.81,0,1,1-1.81,1.81A1.81,1.81,0,0,1,224.48,344.35Z"/><path class="febf9d1c-1bd1-4153-846c-c606f0b9f90b" d="M224.48,322.67a1.81,1.81,0,1,1-1.81,1.81A1.81,1.81,0,0,1,224.48,322.67Z"/><path class="febf9d1c-1bd1-4153-846c-c606f0b9f90b" d="M246.16,344.35a1.81,1.81,0,1,1-1.81,1.81A1.81,1.81,0,0,1,246.16,344.35Z"/><path class="205e02cd-5043-4cc5-ad7e-51f76962d75a" d="M250,335.16V320.31h14.78A14.74,14.74,0,0,1,279,330.42,14.89,14.89,0,0,1,264.84,350H250Z"/><path class="febf9d1c-1bd1-4153-846c-c606f0b9f90b" d="M250.39,320.71l28.89,28.89-.32.32L250.07,321Z"/><path class="febf9d1c-1bd1-4153-846c-c606f0b9f90b" d="M253.83,345.85l6.93-6.93.32.32-6.93,6.93Z"/><path class="febf9d1c-1bd1-4153-846c-c606f0b9f90b" d="M268.29,335.32a3.61,3.61,0,1,1-3.61-3.61A3.61,3.61,0,0,1,268.29,335.32Zm-3.61,1.81a1.81,1.81,0,1,0-1.81-1.81A1.81,1.81,0,0,0,264.68,337.13Z"/><path class="205e02cd-5043-4cc5-ad7e-51f76962d75a" d="M220.87,364.68a14.45,14.45,0,1,1,14.45,14.45A14.45,14.45,0,0,1,220.87,364.68Z"/><path class="febf9d1c-1bd1-4153-846c-c606f0b9f90b" d="M235.32,363.1a1.58,1.58,0,1,0,1.58,1.58A1.58,1.58,0,0,0,235.32,363.1Zm-2,1.58a2,2,0,1,1,2,2A2,2,0,0,1,233.29,364.68Z"/><path class="205e02cd-5043-4cc5-ad7e-51f76962d75a" d="M278.91,379.69H250V350.78A28.91,28.91,0,0,1,278.91,379.69Z"/><path class="febf9d1c-1bd1-4153-846c-c606f0b9f90b" d="M253.84,373.71a1.81,1.81,0,1,1-1.81,1.81A1.81,1.81,0,0,1,253.84,373.71Z"/><path class="febf9d1c-1bd1-4153-846c-c606f0b9f90b" d="M253.84,352a1.81,1.81,0,1,1-1.81,1.81A1.81,1.81,0,0,1,253.84,352Z"/><path class="febf9d1c-1bd1-4153-846c-c606f0b9f90b" d="M275.52,373.71a1.81,1.81,0,1,1-1.81,1.81A1.81,1.81,0,0,1,275.52,373.71Z"/><rect class="febf9d1c-1bd1-4153-846c-c606f0b9f90b" x="300" y="300" width="100" height="100"/><path class="205e02cd-5043-4cc5-ad7e-51f76962d75a" d="M321.09,320.31H350v28.91A28.91,28.91,0,0,1,321.09,320.31Z"/><path class="205e02cd-5043-4cc5-ad7e-51f76962d75a" d="M350,335.16V320.31h14.78A14.74,14.74,0,0,1,379,330.42,14.89,14.89,0,0,1,364.84,350H350Z"/><path class="205e02cd-5043-4cc5-ad7e-51f76962d75a" d="M350,364.84v14.84H335.22A14.74,14.74,0,0,1,321,369.58,14.89,14.89,0,0,1,335.16,350H350Z"/><path class="febf9d1c-1bd1-4153-846c-c606f0b9f90b" d="M335.32,363.1a1.58,1.58,0,1,0,1.58,1.58A1.58,1.58,0,0,0,335.32,363.1Zm-2,1.58a2,2,0,1,1,2,2A2,2,0,0,1,333.29,364.68Z"/><path class="febf9d1c-1bd1-4153-846c-c606f0b9f90b" d="M349.93,350.39,321,379.27l-.32-.32,28.89-28.89Z"/><path class="205e02cd-5043-4cc5-ad7e-51f76962d75a" d="M350,350h29.69v29.69H350Z"/><path class="febf9d1c-1bd1-4153-846c-c606f0b9f90b" d="M364.68,354.06a10.61,10.61,0,1,0,10.61,10.61A10.61,10.61,0,0,0,364.68,354.06Zm-11.07,10.61a11.07,11.07,0,1,1,11.07,11.07A11.07,11.07,0,0,1,353.61,364.68Z"/><path class="febf9d1c-1bd1-4153-846c-c606f0b9f90b" d="M364.68,370.1a1.81,1.81,0,1,1-1.81,1.81A1.81,1.81,0,0,1,364.68,370.1Z"/><rect class="febf9d1c-1bd1-4153-846c-c606f0b9f90b" x="400" y="300" width="100" height="100"/><path class="205e02cd-5043-4cc5-ad7e-51f76962d75a" d="M421.09,320.31H450v28.91A28.91,28.91,0,0,1,421.09,320.31Z"/><path class="febf9d1c-1bd1-4153-846c-c606f0b9f90b" d="M421,320.71l28.89,28.89-.32.32L420.71,321Z"/><path class="205e02cd-5043-4cc5-ad7e-51f76962d75a" d="M426.29,346.16a1.81,1.81,0,1,1-1.81-1.81A1.81,1.81,0,0,1,426.29,346.16Z"/><path class="205e02cd-5043-4cc5-ad7e-51f76962d75a" d="M450,320.31h29.69V350H450Z"/><path class="febf9d1c-1bd1-4153-846c-c606f0b9f90b" d="M450,335.77v-.45A14.68,14.68,0,0,1,464.68,350h-.45A14.23,14.23,0,0,0,450,335.77Z"/><path class="205e02cd-5043-4cc5-ad7e-51f76962d75a" d="M420.31,350H450v29.69H420.31Z"/><path class="febf9d1c-1bd1-4153-846c-c606f0b9f90b" d="M435.32,371.68a7,7,0,1,0-7-7A7,7,0,0,0,435.32,371.68Zm0,.45a7.45,7.45,0,1,0-7.45-7.45A7.45,7.45,0,0,0,435.32,372.13Z"/><path class="febf9d1c-1bd1-4153-846c-c606f0b9f90b" d="M440.74,364.68a1.81,1.81,0,1,1,1.81,1.81A1.81,1.81,0,0,1,440.74,364.68Z"/><path class="205e02cd-5043-4cc5-ad7e-51f76962d75a" d="M450,364.84V350h14.78A14.74,14.74,0,0,1,479,360.1a14.89,14.89,0,0,1-14.11,19.58H450Z"/><path class="febf9d1c-1bd1-4153-846c-c606f0b9f90b" d="M464.68,354.06a10.61,10.61,0,1,0,10.61,10.61A10.61,10.61,0,0,0,464.68,354.06Zm-11.07,10.61a11.07,11.07,0,1,1,11.07,11.07A11.07,11.07,0,0,1,453.61,364.68Z"/><rect class="febf9d1c-1bd1-4153-846c-c606f0b9f90b" x="500" y="300" width="100" height="100"/><path class="205e02cd-5043-4cc5-ad7e-51f76962d75a" d="M520.31,320.31H550V350H520.31Z"/><path class="febf9d1c-1bd1-4153-846c-c606f0b9f90b" d="M542.55,335.32a7.23,7.23,0,1,1-7.23-7.23A7.23,7.23,0,0,1,542.55,335.32Zm-7.23,5.42a5.42,5.42,0,1,0-5.42-5.42A5.42,5.42,0,0,0,535.32,340.74Z"/><path class="205e02cd-5043-4cc5-ad7e-51f76962d75a" d="M550,349.22V320.31h28.91A28.91,28.91,0,0,1,550,349.22Z"/><path class="febf9d1c-1bd1-4153-846c-c606f0b9f90b" d="M550.39,320.71l28.89,28.89-.32.32L550.07,321Z"/><path class="febf9d1c-1bd1-4153-846c-c606f0b9f90b" d="M573.71,346.16a1.81,1.81,0,1,1,1.81,1.81A1.81,1.81,0,0,1,573.71,346.16Z"/><path class="febf9d1c-1bd1-4153-846c-c606f0b9f90b" d="M552,346.16a1.81,1.81,0,1,1,1.81,1.81A1.81,1.81,0,0,1,552,346.16Z"/><path class="febf9d1c-1bd1-4153-846c-c606f0b9f90b" d="M573.71,324.48a1.81,1.81,0,1,1,1.81,1.81A1.81,1.81,0,0,1,573.71,324.48Z"/><path class="205e02cd-5043-4cc5-ad7e-51f76962d75a" d="M550,364.84v14.84H535.22A14.74,14.74,0,0,1,521,369.58,14.89,14.89,0,0,1,535.16,350H550Z"/><path class="febf9d1c-1bd1-4153-846c-c606f0b9f90b" d="M549.93,350.39,521,379.27l-.32-.32,28.89-28.89Z"/><path class="febf9d1c-1bd1-4153-846c-c606f0b9f90b" d="M547,364.06A11.07,11.07,0,0,0,535.94,353v.45a10.61,10.61,0,0,1,10.61,10.61Z"/><path class="febf9d1c-1bd1-4153-846c-c606f0b9f90b" d="M535.32,355.65a1.81,1.81,0,1,1,1.81-1.81A1.81,1.81,0,0,1,535.32,355.65Z"/><path class="205e02cd-5043-4cc5-ad7e-51f76962d75a" d="M578.91,379.69H550V350.78A28.91,28.91,0,0,1,578.91,379.69Z"/><path class="febf9d1c-1bd1-4153-846c-c606f0b9f90b" d="M568.29,364.68a3.61,3.61,0,1,1-3.61-3.61A3.61,3.61,0,0,1,568.29,364.68Z"/><rect class="febf9d1c-1bd1-4153-846c-c606f0b9f90b" y="400" width="100" height="100"/><path class="205e02cd-5043-4cc5-ad7e-51f76962d75a" d="M20.87,435.32a14.45,14.45,0,1,1,14.45,14.45A14.45,14.45,0,0,1,20.87,435.32Z"/><path class="febf9d1c-1bd1-4153-846c-c606f0b9f90b" d="M35.32,433.74a1.58,1.58,0,1,0,1.58,1.58A1.58,1.58,0,0,0,35.32,433.74Zm-2,1.58a2,2,0,1,1,2,2A2,2,0,0,1,33.29,435.32Z"/><path class="febf9d1c-1bd1-4153-846c-c606f0b9f90b" d="M49.93,421,21,449.92l-.32-.32,28.89-28.89Z"/><path class="205e02cd-5043-4cc5-ad7e-51f76962d75a" d="M78.91,450H50V421.09A28.91,28.91,0,0,1,78.91,450Z"/><path class="febf9d1c-1bd1-4153-846c-c606f0b9f90b" d="M50.39,420.71,79.27,449.6l-.32.32L50.07,421Z"/><path class="febf9d1c-1bd1-4153-846c-c606f0b9f90b" d="M53.83,445.85l6.93-6.93.32.32-6.93,6.93Z"/><path class="205e02cd-5043-4cc5-ad7e-51f76962d75a" d="M20.87,450.23a28.91,28.91,0,0,1,28.91,28.91A28.91,28.91,0,0,1,20.87,450.23Z"/><path class="febf9d1c-1bd1-4153-846c-c606f0b9f90b" d="M45.85,475.53l-6.93-6.93.32-.32,6.93,6.93Z"/><path class="205e02cd-5043-4cc5-ad7e-51f76962d75a" d="M26.29,475.52a1.81,1.81,0,1,1-1.81-1.81A1.81,1.81,0,0,1,26.29,475.52Z"/><path class="205e02cd-5043-4cc5-ad7e-51f76962d75a" d="M78.91,479.69H50V450.78A28.91,28.91,0,0,1,78.91,479.69Z"/><path class="febf9d1c-1bd1-4153-846c-c606f0b9f90b" d="M79.29,450.39,50.4,479.27l-.32-.32L79,450.07Z"/><path class="febf9d1c-1bd1-4153-846c-c606f0b9f90b" d="M62.87,468.29a1.81,1.81,0,1,1-1.81-1.81A1.81,1.81,0,0,1,62.87,468.29Z"/><rect class="febf9d1c-1bd1-4153-846c-c606f0b9f90b" x="100" y="400" width="100" height="100"/><path class="205e02cd-5043-4cc5-ad7e-51f76962d75a" d="M120.87,420.87a28.91,28.91,0,0,1,28.91,28.91A28.91,28.91,0,0,1,120.87,420.87Z"/><path class="febf9d1c-1bd1-4153-846c-c606f0b9f90b" d="M149.93,421,121,449.92l-.32-.32,28.89-28.89Z"/><path class="febf9d1c-1bd1-4153-846c-c606f0b9f90b" d="M138.93,435.32a3.61,3.61,0,1,1-3.61-3.61A3.61,3.61,0,0,1,138.93,435.32Zm-3.61,1.81a1.81,1.81,0,1,0-1.81-1.81A1.81,1.81,0,0,0,135.32,437.13Z"/><path class="205e02cd-5043-4cc5-ad7e-51f76962d75a" d="M150,435.16V420.31h14.78A14.74,14.74,0,0,1,179,430.42,14.89,14.89,0,0,1,164.84,450H150Z"/><path class="febf9d1c-1bd1-4153-846c-c606f0b9f90b" d="M153.84,435.32a10.84,10.84,0,1,1,10.84,10.84A10.84,10.84,0,0,1,153.84,435.32Zm10.84,9a9,9,0,1,0-9-9A9,9,0,0,0,164.68,444.35Z"/><path class="205e02cd-5043-4cc5-ad7e-51f76962d75a" d="M150,450.78v28.91H121.09A28.91,28.91,0,0,1,150,450.78Z"/><path class="febf9d1c-1bd1-4153-846c-c606f0b9f90b" d="M126.29,453.84a1.81,1.81,0,1,1-1.81-1.81A1.81,1.81,0,0,1,126.29,453.84Z"/><path class="febf9d1c-1bd1-4153-846c-c606f0b9f90b" d="M148,453.84a1.81,1.81,0,1,1-1.81-1.81A1.81,1.81,0,0,1,148,453.84Z"/><path class="febf9d1c-1bd1-4153-846c-c606f0b9f90b" d="M126.29,475.52a1.81,1.81,0,1,1-1.81-1.81A1.81,1.81,0,0,1,126.29,475.52Z"/><path class="205e02cd-5043-4cc5-ad7e-51f76962d75a" d="M150.23,464.68a14.45,14.45,0,1,1,14.45,14.45A14.45,14.45,0,0,1,150.23,464.68Z"/><path class="febf9d1c-1bd1-4153-846c-c606f0b9f90b" d="M153.84,464.68a10.84,10.84,0,1,1,10.84,10.84A10.84,10.84,0,0,1,153.84,464.68Z"/><rect class="febf9d1c-1bd1-4153-846c-c606f0b9f90b" x="200" y="400" width="100" height="100"/><path class="205e02cd-5043-4cc5-ad7e-51f76962d75a" d="M250,435.16V450H235.22A14.74,14.74,0,0,1,221,439.9a14.89,14.89,0,0,1,14.11-19.58H250Z"/><path class="febf9d1c-1bd1-4153-846c-c606f0b9f90b" d="M229.9,435.32a1.81,1.81,0,1,1-1.81-1.81A1.81,1.81,0,0,1,229.9,435.32Z"/><path class="febf9d1c-1bd1-4153-846c-c606f0b9f90b" d="M244.35,435.32a1.81,1.81,0,1,1-1.81-1.81A1.81,1.81,0,0,1,244.35,435.32Z"/><path class="205e02cd-5043-4cc5-ad7e-51f76962d75a" d="M250.23,435.32a14.45,14.45,0,1,1,14.45,14.45A14.45,14.45,0,0,1,250.23,435.32Z"/><path class="febf9d1c-1bd1-4153-846c-c606f0b9f90b" d="M250.39,420.71l28.89,28.89-.32.32L250.07,421Z"/><path class="febf9d1c-1bd1-4153-846c-c606f0b9f90b" d="M279.69,434.54V435A14.68,14.68,0,0,1,265,420.31h.45A14.23,14.23,0,0,0,279.69,434.54Z"/><path class="205e02cd-5043-4cc5-ad7e-51f76962d75a" d="M250,464.84v14.84H235.22A14.74,14.74,0,0,1,221,469.58,14.89,14.89,0,0,1,235.16,450H250Z"/><path class="febf9d1c-1bd1-4153-846c-c606f0b9f90b" d="M237.13,464.68a1.81,1.81,0,1,1-1.81-1.81A1.81,1.81,0,0,1,237.13,464.68Z"/><path class="febf9d1c-1bd1-4153-846c-c606f0b9f90b" d="M250,457.66a7,7,0,0,0,0,14v.44a7.45,7.45,0,0,1,0-14.9Z"/><path class="205e02cd-5043-4cc5-ad7e-51f76962d75a" d="M250.23,464.68a14.45,14.45,0,1,1,14.45,14.45A14.45,14.45,0,0,1,250.23,464.68Z"/><path class="febf9d1c-1bd1-4153-846c-c606f0b9f90b" d="M254.15,453.83l6.93,6.93-.32.32-6.93-6.93Z"/><rect class="febf9d1c-1bd1-4153-846c-c606f0b9f90b" x="300" y="400" width="100" height="100"/><path class="205e02cd-5043-4cc5-ad7e-51f76962d75a" d="M350,435.16V450H335.22A14.74,14.74,0,0,1,321,439.9a14.89,14.89,0,0,1,14.11-19.58H350Z"/><path class="febf9d1c-1bd1-4153-846c-c606f0b9f90b" d="M324.79,424.47l6.93,6.93-.32.32-6.93-6.93Z"/><path class="205e02cd-5043-4cc5-ad7e-51f76962d75a" d="M350,420.31h29.69V450H350Z"/><path class="febf9d1c-1bd1-4153-846c-c606f0b9f90b" d="M350.39,420.71l28.89,28.89-.32.32L350.07,421Z"/><path class="febf9d1c-1bd1-4153-846c-c606f0b9f90b" d="M361.09,432a25.44,25.44,0,0,0-7.47,18h.45a25,25,0,0,1,7.34-17.73Z"/><path class="febf9d1c-1bd1-4153-846c-c606f0b9f90b" d="M363.64,434.51A21.84,21.84,0,0,0,357.23,450h.45A21.39,21.39,0,0,1,364,434.83Z"/><path class="febf9d1c-1bd1-4153-846c-c606f0b9f90b" d="M366.2,437.07A18.24,18.24,0,0,0,360.84,450h.45a17.78,17.78,0,0,1,5.23-12.62Z"/><path class="febf9d1c-1bd1-4153-846c-c606f0b9f90b" d="M368.75,439.62a14.63,14.63,0,0,0-4.3,10.38h.45a14.18,14.18,0,0,1,4.17-10.06Z"/><path class="febf9d1c-1bd1-4153-846c-c606f0b9f90b" d="M371.31,442.18a11,11,0,0,0-3.24,7.82h.45a10.58,10.58,0,0,1,3.11-7.51Z"/><path class="febf9d1c-1bd1-4153-846c-c606f0b9f90b" d="M373.86,444.73a7.43,7.43,0,0,0-2.18,5.27h.45a7,7,0,0,1,2.05-5Z"/><path class="febf9d1c-1bd1-4153-846c-c606f0b9f90b" d="M376.42,447.29a3.83,3.83,0,0,0-1.12,2.71h.45a3.38,3.38,0,0,1,1-2.4Z"/><path class="205e02cd-5043-4cc5-ad7e-51f76962d75a" d="M320.87,464.68a14.45,14.45,0,1,1,14.45,14.45A14.45,14.45,0,0,1,320.87,464.68Z"/><path class="febf9d1c-1bd1-4153-846c-c606f0b9f90b" d="M321,450.07,349.92,479l-.32.32-28.89-28.89Z"/><path class="febf9d1c-1bd1-4153-846c-c606f0b9f90b" d="M345.85,475.53l-6.93-6.93.32-.32,6.93,6.93Z"/><path class="febf9d1c-1bd1-4153-846c-c606f0b9f90b" d="M347,464.06A11.07,11.07,0,0,0,335.94,453v.45a10.61,10.61,0,0,1,10.61,10.61Z"/><path class="205e02cd-5043-4cc5-ad7e-51f76962d75a" d="M378.91,479.69H350V450.78A28.91,28.91,0,0,1,378.91,479.69Z"/><path class="febf9d1c-1bd1-4153-846c-c606f0b9f90b" d="M379.29,450.39,350.4,479.27l-.32-.32L379,450.07Z"/><path class="febf9d1c-1bd1-4153-846c-c606f0b9f90b" d="M379.69,471.45v.45A21.91,21.91,0,0,1,357.78,450h.45A21.45,21.45,0,0,0,379.69,471.45Z"/><rect class="febf9d1c-1bd1-4153-846c-c606f0b9f90b" x="400" y="400" width="100" height="100"/><path class="205e02cd-5043-4cc5-ad7e-51f76962d75a" d="M450,435.16V450H435.22A14.74,14.74,0,0,1,421,439.9a14.89,14.89,0,0,1,14.11-19.58H450Z"/><path class="febf9d1c-1bd1-4153-846c-c606f0b9f90b" d="M435.32,433.74a1.58,1.58,0,1,0,1.58,1.58A1.58,1.58,0,0,0,435.32,433.74Zm-2,1.58a2,2,0,1,1,2,2A2,2,0,0,1,433.29,435.32Z"/><path class="febf9d1c-1bd1-4153-846c-c606f0b9f90b" d="M426.56,450V420.31h1.56V450Z"/><path class="205e02cd-5043-4cc5-ad7e-51f76962d75a" d="M450.23,435.32a14.45,14.45,0,1,1,14.45,14.45A14.45,14.45,0,0,1,450.23,435.32Z"/><path class="febf9d1c-1bd1-4153-846c-c606f0b9f90b" d="M450.39,420.71l28.89,28.89-.32.32L450.07,421Z"/><path class="febf9d1c-1bd1-4153-846c-c606f0b9f90b" d="M479.69,434.54V435A14.68,14.68,0,0,1,465,420.31h.45A14.23,14.23,0,0,0,479.69,434.54Z"/><path class="205e02cd-5043-4cc5-ad7e-51f76962d75a" d="M421.09,450H450v28.91A28.91,28.91,0,0,1,421.09,450Z"/><path class="febf9d1c-1bd1-4153-846c-c606f0b9f90b" d="M450,457v.45a7.45,7.45,0,0,1-7.45-7.45H443A7,7,0,0,0,450,457Z"/><path class="205e02cd-5043-4cc5-ad7e-51f76962d75a" d="M450,450h29.69v29.69H450Z"/><path class="febf9d1c-1bd1-4153-846c-c606f0b9f90b" d="M450.39,450.07,479.27,479l-.32.32-28.89-28.89Z"/><path class="febf9d1c-1bd1-4153-846c-c606f0b9f90b" d="M471.45,450h.45A21.91,21.91,0,0,1,450,471.91v-.45A21.45,21.45,0,0,0,471.45,450Z"/><rect class="febf9d1c-1bd1-4153-846c-c606f0b9f90b" x="500" y="400" width="100" height="100"/><path class="205e02cd-5043-4cc5-ad7e-51f76962d75a" d="M550,435.16V450H535.22A14.74,14.74,0,0,1,521,439.9a14.89,14.89,0,0,1,14.11-19.58H550Z"/><path class="febf9d1c-1bd1-4153-846c-c606f0b9f90b" d="M535.32,433.74a1.58,1.58,0,1,0,1.58,1.58A1.58,1.58,0,0,0,535.32,433.74Zm-2,1.58a2,2,0,1,1,2,2A2,2,0,0,1,533.29,435.32Z"/><path class="febf9d1c-1bd1-4153-846c-c606f0b9f90b" d="M526.56,450V420.31h1.56V450Z"/><path class="205e02cd-5043-4cc5-ad7e-51f76962d75a" d="M550,435.16V420.31h14.78A14.74,14.74,0,0,1,579,430.42,14.89,14.89,0,0,1,564.84,450H550Z"/><path class="febf9d1c-1bd1-4153-846c-c606f0b9f90b" d="M564.68,442.32a7,7,0,1,0-7-7A7,7,0,0,0,564.68,442.32Zm0,.45a7.45,7.45,0,1,0-7.45-7.45A7.45,7.45,0,0,0,564.68,442.77Z"/><path class="febf9d1c-1bd1-4153-846c-c606f0b9f90b" d="M559.26,435.32a1.81,1.81,0,1,1-1.81-1.81A1.81,1.81,0,0,1,559.26,435.32Z"/><path class="205e02cd-5043-4cc5-ad7e-51f76962d75a" d="M550,450.78v28.91H521.09A28.91,28.91,0,0,1,550,450.78Z"/><path class="febf9d1c-1bd1-4153-846c-c606f0b9f90b" d="M535.32,463.1a1.58,1.58,0,1,0,1.58,1.58A1.58,1.58,0,0,0,535.32,463.1Zm-2,1.58a2,2,0,1,1,2,2A2,2,0,0,1,533.29,464.68Z"/><path class="febf9d1c-1bd1-4153-846c-c606f0b9f90b" d="M538.93,464.68a3.61,3.61,0,1,1-3.61-3.61A3.61,3.61,0,0,1,538.93,464.68Zm-3.61,1.81a1.81,1.81,0,1,0-1.81-1.81A1.81,1.81,0,0,0,535.32,466.49Z"/><path class="205e02cd-5043-4cc5-ad7e-51f76962d75a" d="M550,464.84V450h14.78A14.74,14.74,0,0,1,579,460.1a14.89,14.89,0,0,1-14.11,19.58H550Z"/><path class="febf9d1c-1bd1-4153-846c-c606f0b9f90b" d="M553.84,464.68a10.84,10.84,0,1,1,10.84,10.84A10.84,10.84,0,0,1,553.84,464.68Zm10.84,9a9,9,0,1,0-9-9A9,9,0,0,0,564.68,473.71Z"/><rect class="febf9d1c-1bd1-4153-846c-c606f0b9f90b" y="500" width="100" height="100"/><path class="205e02cd-5043-4cc5-ad7e-51f76962d75a" d="M20.31,520.31H50V550H20.31Z"/><path class="febf9d1c-1bd1-4153-846c-c606f0b9f90b" d="M40.77,535.46c5.23-3.89,8.44-9.25,8.44-15.15h.46c0,6.07-3.31,11.55-8.62,15.51a34.91,34.91,0,0,1-20.74,6.4v-.45A34.45,34.45,0,0,0,40.77,535.46Z"/><path class="febf9d1c-1bd1-4153-846c-c606f0b9f90b" d="M40.81,530.33c5.25-2.6,8.41-6.16,8.41-10h.46c0,4.12-3.36,7.79-8.66,10.42S28.38,535,20.31,535v-.45C28.33,534.54,35.57,532.93,40.81,530.33Z"/><path class="205e02cd-5043-4cc5-ad7e-51f76962d75a" d="M79.69,521.09V550H50.78A28.91,28.91,0,0,1,79.69,521.09Z"/><path class="febf9d1c-1bd1-4153-846c-c606f0b9f90b" d="M72.69,550h-.45a7.45,7.45,0,0,1,7.45-7.45V543A7,7,0,0,0,72.69,550Z"/><path class="205e02cd-5043-4cc5-ad7e-51f76962d75a" d="M50,564.84v14.84H35.22A14.74,14.74,0,0,1,21,569.58,14.89,14.89,0,0,1,35.16,550H50Z"/><path class="febf9d1c-1bd1-4153-846c-c606f0b9f90b" d="M35.94,575.13A11.07,11.07,0,0,0,47,564.06h-.45a10.61,10.61,0,0,1-10.61,10.61Z"/><path class="205e02cd-5043-4cc5-ad7e-51f76962d75a" d="M78.91,579.69H50V550.78A28.91,28.91,0,0,1,78.91,579.69Z"/><path class="febf9d1c-1bd1-4153-846c-c606f0b9f90b" d="M79.29,550.39,50.4,579.27l-.32-.32L79,550.07Z"/><path class="febf9d1c-1bd1-4153-846c-c606f0b9f90b" d="M50,572.69v-.45a7.45,7.45,0,0,1,7.45,7.45H57A7,7,0,0,0,50,572.69Z"/><rect class="febf9d1c-1bd1-4153-846c-c606f0b9f90b" x="100" y="500" width="100" height="100"/><path class="205e02cd-5043-4cc5-ad7e-51f76962d75a" d="M120.87,535.32a14.45,14.45,0,1,1,14.45,14.45A14.45,14.45,0,0,1,120.87,535.32Z"/><path class="febf9d1c-1bd1-4153-846c-c606f0b9f90b" d="M135.32,531.93a3.39,3.39,0,1,0,3.39,3.39A3.39,3.39,0,0,0,135.32,531.93Zm-3.84,3.39a3.84,3.84,0,1,1,3.84,3.84A3.84,3.84,0,0,1,131.48,535.32Z"/><path class="205e02cd-5043-4cc5-ad7e-51f76962d75a" d="M164.84,520.31h14.84v14a14.79,14.79,0,0,1-11.25,14.52c-9.76,2.23-18.44-4.92-18.44-14V520.31Z"/><path class="205e02cd-5043-4cc5-ad7e-51f76962d75a" d="M150,550.78v28.91H121.09A28.91,28.91,0,0,1,150,550.78Z"/><path class="febf9d1c-1bd1-4153-846c-c606f0b9f90b" d="M149.77,579.69a14.45,14.45,0,0,0-28.91,0h-.45a14.9,14.9,0,1,1,29.81,0Z"/><path class="205e02cd-5043-4cc5-ad7e-51f76962d75a" d="M179.13,550.23a28.91,28.91,0,0,1-28.91,28.91A28.91,28.91,0,0,1,179.13,550.23Z"/><path class="febf9d1c-1bd1-4153-846c-c606f0b9f90b" d="M150.39,550.07,179.27,579l-.32.32-28.89-28.89Z"/><path class="febf9d1c-1bd1-4153-846c-c606f0b9f90b" d="M168.27,568a25.44,25.44,0,0,0,7.47-18h-.45A25,25,0,0,1,168,567.73Z"/><path class="febf9d1c-1bd1-4153-846c-c606f0b9f90b" d="M165.72,565.49A21.84,21.84,0,0,0,172.13,550h-.45a21.39,21.39,0,0,1-6.28,15.17Z"/><path class="febf9d1c-1bd1-4153-846c-c606f0b9f90b" d="M163.16,562.93A18.24,18.24,0,0,0,168.52,550h-.45a17.78,17.78,0,0,1-5.23,12.62Z"/><path class="febf9d1c-1bd1-4153-846c-c606f0b9f90b" d="M160.61,560.38A14.63,14.63,0,0,0,164.9,550h-.45a14.18,14.18,0,0,1-4.17,10.06Z"/><path class="febf9d1c-1bd1-4153-846c-c606f0b9f90b" d="M158.05,557.82a11,11,0,0,0,3.24-7.82h-.45a10.58,10.58,0,0,1-3.11,7.51Z"/><path class="febf9d1c-1bd1-4153-846c-c606f0b9f90b" d="M155.5,555.27a7.43,7.43,0,0,0,2.18-5.27h-.45a7,7,0,0,1-2.05,5Z"/><path class="febf9d1c-1bd1-4153-846c-c606f0b9f90b" d="M152.94,552.71a3.83,3.83,0,0,0,1.12-2.71h-.45a3.38,3.38,0,0,1-1,2.4Z"/><rect class="febf9d1c-1bd1-4153-846c-c606f0b9f90b" y="200" width="100" height="100"/><path class="205e02cd-5043-4cc5-ad7e-51f76962d75a" d="M49.77,220.87v28.91H20.87A28.91,28.91,0,0,1,49.77,220.87Z"/><path class="febf9d1c-1bd1-4153-846c-c606f0b9f90b" d="M26.29,224.48a1.81,1.81,0,1,1-1.81-1.81A1.81,1.81,0,0,1,26.29,224.48Z"/><path class="febf9d1c-1bd1-4153-846c-c606f0b9f90b" d="M48,224.48a1.81,1.81,0,1,1-1.81-1.81A1.81,1.81,0,0,1,48,224.48Z"/><path class="febf9d1c-1bd1-4153-846c-c606f0b9f90b" d="M26.29,246.16a1.81,1.81,0,1,1-1.81-1.81A1.81,1.81,0,0,1,26.29,246.16Z"/><path class="205e02cd-5043-4cc5-ad7e-51f76962d75a" d="M79.13,220.87v28.91H50.23A28.91,28.91,0,0,1,79.13,220.87Z"/><path class="febf9d1c-1bd1-4153-846c-c606f0b9f90b" d="M79.13,228.32a21.45,21.45,0,0,0-21.45,21.45h-.45a21.91,21.91,0,0,1,21.91-21.91Z"/><path class="205e02cd-5043-4cc5-ad7e-51f76962d75a" d="M49.77,250.23v28.91H20.87A28.91,28.91,0,0,1,49.77,250.23Z"/><path class="febf9d1c-1bd1-4153-846c-c606f0b9f90b" d="M21,250.07,49.92,279l-.32.32L20.71,250.39Z"/><path class="febf9d1c-1bd1-4153-846c-c606f0b9f90b" d="M49.77,264.9a14.23,14.23,0,0,0-14.23,14.23H35.1a14.68,14.68,0,0,1,14.68-14.68Z"/><path class="205e02cd-5043-4cc5-ad7e-51f76962d75a" d="M64.68,279.13H50.23V264.68a14.45,14.45,0,0,1,28.91,0v14.45Z"/><path class="febf9d1c-1bd1-4153-846c-c606f0b9f90b" d="M50.39,250.07,79.27,279l-.32.32L50.07,250.39Z"/><path class="febf9d1c-1bd1-4153-846c-c606f0b9f90b" d="M66.49,264.68a1.81,1.81,0,1,1-1.81-1.81A1.81,1.81,0,0,1,66.49,264.68Z"/><path class="febf9d1c-1bd1-4153-846c-c606f0b9f90b" d="M64.68,254.06a10.61,10.61,0,1,0,10.61,10.61A10.61,10.61,0,0,0,64.68,254.06ZM53.61,264.68a11.07,11.07,0,1,1,11.07,11.07A11.07,11.07,0,0,1,53.61,264.68Z"/><rect class="febf9d1c-1bd1-4153-846c-c606f0b9f90b" width="100" height="100"/><path class="205e02cd-5043-4cc5-ad7e-51f76962d75a" d="M20.87,35.32A14.45,14.45,0,1,1,35.32,49.77,14.45,14.45,0,0,1,20.87,35.32Z"/><path class="febf9d1c-1bd1-4153-846c-c606f0b9f90b" d="M20.87,35.1H49.77v.45H20.87Z"/><path class="febf9d1c-1bd1-4153-846c-c606f0b9f90b" d="M31.48,20.87h.45V49.77h-.45Z"/><path class="205e02cd-5043-4cc5-ad7e-51f76962d75a" d="M79.13,49.77H50.23V20.87A28.91,28.91,0,0,1,79.13,49.77Z"/><path class="febf9d1c-1bd1-4153-846c-c606f0b9f90b" d="M50.68,21.32v28A28.36,28.36,0,0,0,70.35,41Z"/><path class="205e02cd-5043-4cc5-ad7e-51f76962d75a" d="M64,37.92a6.44,6.44,0,1,1-6.44-6.44A6.44,6.44,0,0,1,64,37.92Z"/><path class="205e02cd-5043-4cc5-ad7e-51f76962d75a" d="M49.77,79.13H20.87V50.23A28.91,28.91,0,0,1,49.77,79.13Z"/><path class="febf9d1c-1bd1-4153-846c-c606f0b9f90b" d="M20.87,64.45H49.77v.45H20.87Z"/><path class="febf9d1c-1bd1-4153-846c-c606f0b9f90b" d="M41.36,60.24c5.25-2.6,8.41-6.16,8.41-10h.46c0,4.12-3.36,7.79-8.66,10.42S28.94,64.9,20.87,64.9v-.45C28.88,64.45,36.13,62.84,41.36,60.24Z"/><path class="205e02cd-5043-4cc5-ad7e-51f76962d75a" d="M50.23,50.23H79.13V79.13H50.23Z"/><path class="febf9d1c-1bd1-4153-846c-c606f0b9f90b" d="M50.23,64.45A14.23,14.23,0,0,0,64.45,50.23h.45A14.68,14.68,0,0,1,50.23,64.9Z"/><rect class="febf9d1c-1bd1-4153-846c-c606f0b9f90b" x="100" y="200" width="100" height="100"/><path class="205e02cd-5043-4cc5-ad7e-51f76962d75a" d="M120.87,235.32a14.45,14.45,0,1,1,14.45,14.45A14.45,14.45,0,0,1,120.87,235.32Z"/><path class="febf9d1c-1bd1-4153-846c-c606f0b9f90b" d="M120.87,235.1h28.91v.45H120.87Z"/><path class="febf9d1c-1bd1-4153-846c-c606f0b9f90b" d="M135.32,242.32a7,7,0,1,0-7-7A7,7,0,0,0,135.32,242.32Zm0,.45a7.45,7.45,0,1,0-7.45-7.45A7.45,7.45,0,0,0,135.32,242.77Z"/><path class="205e02cd-5043-4cc5-ad7e-51f76962d75a" d="M150.23,235.32V220.87h14.45a14.45,14.45,0,0,1,0,28.91H150.23Z"/><path class="febf9d1c-1bd1-4153-846c-c606f0b9f90b" d="M179.29,221,150.4,249.92l-.32-.32L179,220.71Z"/><path class="febf9d1c-1bd1-4153-846c-c606f0b9f90b" d="M168.29,235.32a3.61,3.61,0,1,1-3.61-3.61A3.61,3.61,0,0,1,168.29,235.32Zm-3.61,1.81a1.81,1.81,0,1,0-1.81-1.81A1.81,1.81,0,0,0,164.68,237.13Z"/><path class="205e02cd-5043-4cc5-ad7e-51f76962d75a" d="M120.87,250.23h28.91v28.91A28.91,28.91,0,0,1,120.87,250.23Z"/><path class="febf9d1c-1bd1-4153-846c-c606f0b9f90b" d="M120.87,250.23a14.45,14.45,0,0,0,28.91,0h.45a14.9,14.9,0,0,1-29.81,0Z"/><path class="205e02cd-5043-4cc5-ad7e-51f76962d75a" d="M150.23,264.68a14.45,14.45,0,1,1,14.45,14.45A14.45,14.45,0,0,1,150.23,264.68Z"/><path class="febf9d1c-1bd1-4153-846c-c606f0b9f90b" d="M175.21,275.53l-6.93-6.93.32-.32,6.93,6.93Z"/><path class="febf9d1c-1bd1-4153-846c-c606f0b9f90b" d="M175.74,264.68a11.07,11.07,0,0,0-11.07-11.07v.45a10.61,10.61,0,0,1,10.61,10.61Z"/><rect class="febf9d1c-1bd1-4153-846c-c606f0b9f90b" x="100" y="300" width="100" height="100"/><path class="205e02cd-5043-4cc5-ad7e-51f76962d75a" d="M120.87,335.32a14.45,14.45,0,1,1,14.45,14.45A14.45,14.45,0,0,1,120.87,335.32Z"/><path class="febf9d1c-1bd1-4153-846c-c606f0b9f90b" d="M120.87,335.1h28.91v.45H120.87Z"/><path class="febf9d1c-1bd1-4153-846c-c606f0b9f90b" d="M131.48,320.87h.45v28.91h-.45Z"/><path class="205e02cd-5043-4cc5-ad7e-51f76962d75a" d="M150.23,320.87h28.91v28.91H150.23Z"/><path class="febf9d1c-1bd1-4153-846c-c606f0b9f90b" d="M150.68,342.53a7.23,7.23,0,0,0,0-14.43Z"/><path class="205e02cd-5043-4cc5-ad7e-51f76962d75a" d="M149.77,364.68v14.45H135.32a14.45,14.45,0,0,1,0-28.91h14.45Z"/><path class="febf9d1c-1bd1-4153-846c-c606f0b9f90b" d="M137.13,364.68a1.81,1.81,0,1,1-1.81-1.81A1.81,1.81,0,0,1,137.13,364.68Z"/><path class="febf9d1c-1bd1-4153-846c-c606f0b9f90b" d="M149.77,357.66a7,7,0,0,0,0,14v.44a7.45,7.45,0,0,1,0-14.9Z"/><path class="205e02cd-5043-4cc5-ad7e-51f76962d75a" d="M150.23,350.23h28.91v28.91H150.23Z"/><path class="febf9d1c-1bd1-4153-846c-c606f0b9f90b" d="M150.23,350.23a28.91,28.91,0,0,0,28.91,28.91v.45a29.36,29.36,0,0,1-29.36-29.36Z"/></svg>